<svg width="433" height="525" xmlns="http://www.w3.org/2000/svg"><g fill="none" fill-rule="evenodd"><path stroke="#595959" stroke-width="5" d="M48.5 112.5h305v405h-305z"/><path d="M352.602 75v35" stroke="#979797" stroke-width="3"/><text font-family="MagneticPro-Medium, Magnetic Pro" font-size="24" font-weight="400" fill="#000" transform="translate(-1 -4)"><tspan x="347.59" y="68">1</tspan></text><path d="M107.5 75v35" stroke="#979797" stroke-width="3"/><text font-family="MagneticPro-Medium, Magnetic Pro" font-size="24" font-weight="400" fill="#000" transform="translate(-1 -4)"><tspan x="101.936" y="68">2</tspan></text><path d="M49 75v35" stroke="#979797" stroke-width="3"/><text font-family="MagneticPro-Medium, Magnetic Pro" font-size="24" font-weight="400" fill="#000" transform="translate(-1 -4)"><tspan x="43.316" y="68">3</tspan></text><text font-family="MagneticPro-Medium, Magnetic Pro" font-size="24" font-weight="400" fill="#000" transform="translate(-1 -4)"><tspan x="395.051" y="224.986">1fr</tspan></text><text font-family="MagneticPro-Medium, Magnetic Pro" font-size="24" font-weight="400" fill="#000" transform="translate(-1 -4)"><tspan x="158.418" y="82">max-content</tspan></text><text font-family="MagneticPro-Medium, Magnetic Pro" font-size="24" font-weight="400" fill="#000" transform="translate(-1 -4)"><tspan x="0" y="21">min-content</tspan></text><path d="M372.102 119v190m-3-179.2l3-10.8 3 10.8m-6 168.4l3 10.8 3-10.8M112.55 93h235m-224.2 3l-10.8-3 10.8-3m213.4 6l10.8-3-10.8-3M51 35h49.254M61.8 38L51 35l10.8-3m27.654 6l10.8-3-10.8-3" stroke="#9012FE" stroke-width="2" stroke-linecap="square"/><text font-family="MagneticPro-Medium, Magnetic Pro" font-size="24" font-weight="400" fill="#000" transform="translate(-1 -4)"><tspan x="395.051" y="429.014">1fr</tspan></text><path d="M372.102 322v190m-3-179.2l3-10.8 3 10.8m-6 168.4l3 10.8 3-10.8" stroke="#9012FE" stroke-width="2" stroke-linecap="square"/><path d="M107.05 115v400M51 315.5h300" stroke="#595959" stroke-width="5" stroke-dasharray="9"/><text transform="rotate(90 227.781 213.486)" font-family="MagneticPro-Medium, Magnetic Pro" font-size="24" font-weight="400" fill="#000"><tspan x="188.361" y="223.986">&lt;img&gt;</tspan></text><text transform="rotate(90 227.379 420.514)" font-family="MagneticPro-Medium, Magnetic Pro" font-size="24" font-weight="400" fill="#000"><tspan x="187.959" y="431.014">&lt;img&gt;</tspan></text><text transform="rotate(90 81.918 319.5)" font-family="MagneticPro-Medium, Magnetic Pro" font-size="24" font-weight="400" fill="#000"><tspan x=".57" y="330">&lt;figcaption&gt;</tspan></text><text font-family="MagneticPro-Medium, Magnetic Pro" font-size="24" font-weight="400" fill="#000" transform="translate(-1 -4)"><tspan x="401.293" y="123.88">1</tspan></text><text font-family="MagneticPro-Medium, Magnetic Pro" font-size="24" font-weight="400" fill="#000" transform="translate(-1 -4)"><tspan x="401.241" y="328">2</tspan></text><text font-family="MagneticPro-Medium, Magnetic Pro" font-size="24" font-weight="400" fill="#000" transform="translate(-1 -4)"><tspan x="401.121" y="527.88">3</tspan></text><path d="M355.805 113.297h35m-35 201.703h35m-35 202h35" stroke="#979797" stroke-width="3"/></g></svg>
