<svg xmlns="http://www.w3.org/2000/svg" xmlns:xlink="http://www.w3.org/1999/xlink" viewBox="0 0 207 342"><defs><path id="a" d="M115.5 67.5h50v50h-50v-50z"/><mask id="b" width="54" height="54" x="-2" y="-2"><path fill="#fff" d="M113.5 65.5h54v54h-54z"/><use xlink:href="#a"/></mask></defs><g fill="none" fill-rule="evenodd"><rect width="48" height="48" x="42.5" y="207.5" fill="#D8D8D8" fill-rule="nonzero" stroke="#979797" stroke-width="2" rx="8"/><path fill="#D8D8D8" fill-rule="nonzero" d="M3.5 318.5h200v20H3.5z"/><rect width="48" height="48" x="117.5" y="207.5" fill="#D8D8D8" fill-opacity=".5" fill-rule="nonzero" stroke="#979797" stroke-opacity=".5" stroke-width="2" rx="8"/><path stroke="#F5A623" stroke-dasharray="4" stroke-width="2" d="M29.5 58h71v90h-71V58z"/><use stroke="#F5A623" stroke-dasharray="4" stroke-width="4" mask="url(#b)" xlink:href="#a"/><path stroke="#979797" stroke-width="3" d="M2 17h203v323H2z"/><path stroke="#9013FE" stroke-dasharray="6" stroke-width="3" d="M2 17h203v323H2V17z"/><path stroke="#F5A623" stroke-dasharray="6" stroke-width="3" d="M29 58h150v90H29V58z"/><path stroke="#9013FE" stroke-dasharray="4" stroke-width="2" d="M40.5 205.5h127v52h-127v-52z"/><path stroke="#9013FE" stroke-dasharray="6" stroke-width="2" d="M2.5 317.5h203v23H2.5v-23z"/><path fill="#9013FE" d="M1.947 6.246c-.031-.023-.11-.04-.234-.053l-.428-.04A4.324 4.324 0 0 1 .8 6.075a1.401 1.401 0 0 1-.416-.152.421.421 0 0 1-.211-.264c-.027-.11.017-.25.135-.422a.566.566 0 0 1 .222-.217c.094-.05.196-.087.305-.11.11-.024.22-.036.334-.036.113 0 .22.008.322.023-.133-.89-.15-1.638-.052-2.244.097-.605.267-1.093.51-1.465.241-.37.534-.638.878-.802.344-.164.69-.242 1.037-.235.348.008.678.086.99.235.313.148.563.343.75.586a.32.32 0 0 1 .13.328.752.752 0 0 1-.176.363.745.745 0 0 1-.334.229c-.13.043-.244.01-.346-.1-.32-.367-.613-.578-.879-.633a.823.823 0 0 0-.697.147c-.2.152-.365.382-.498.691a4.296 4.296 0 0 0-.316 2.04c.03.347.105.638.222.872l1.828-.012c.125.079.22.182.287.311.067.129.106.258.117.387a.822.822 0 0 1-.035.345c-.035.102-.092.168-.17.2l-1.605.082c.015.07.055.197.117.38.063.184.129.393.2.627.07.235.132.483.187.745.054.261.082.51.082.744a.613.613 0 0 1-.287.334.849.849 0 0 1-.393.1.748.748 0 0 1-.38-.106.555.555 0 0 1-.253-.305l-.457-2.496zm5.707 2.145c.055.195.047.345-.023.45a.442.442 0 0 1-.305.194.92.92 0 0 1-.44-.04 1.012 1.012 0 0 1-.415-.253L6.072.797c-.054-.14-.056-.264-.006-.37A.567.567 0 0 1 6.29.183.839.839 0 0 1 6.617.07a.608.608 0 0 1 .328.041.45.45 0 0 1 .223.211c.05.098.053.229.006.393l.48 7.676zm5.742-.645c-.14.266-.328.486-.562.662a2.494 2.494 0 0 1-.773.393 3.013 3.013 0 0 1-1.781-.023 3.216 3.216 0 0 1-.815-.4 2.4 2.4 0 0 1-.639-.632 4.93 4.93 0 0 1-.574-1.582 4.042 4.042 0 0 1 .012-1.594c.109-.5.332-.937.668-1.312s.804-.625 1.406-.75c.57-.04 1.021.03 1.353.205.332.176.559.414.68.715.121.3.145.634.07 1.002a2.865 2.865 0 0 1-.474 1.072 3.631 3.631 0 0 1-.961.926c-.399.27-.86.455-1.383.556.156.258.334.444.533.557.2.113.408.182.627.205.219.024.436.01.65-.04.215-.052.415-.114.598-.188a9.4 9.4 0 0 0 .487-.211c.14-.067.242-.112.304-.135.282-.086.473-.086.574 0 .102.086.102.277 0 .574zm-3.105-4.184a2.61 2.61 0 0 0-.832 1.055 2.371 2.371 0 0 0-.17.633c-.027.219-.021.434.018.645.328-.047.623-.149.884-.305.262-.156.48-.334.657-.533.175-.2.302-.405.38-.616.079-.21.1-.394.065-.55a.473.473 0 0 0-.299-.34c-.164-.07-.398-.067-.703.011zm3.855 5.297a.685.685 0 0 1-.234-.263c-.039-.09-.031-.213.024-.37.14-.14.318-.345.533-.615.215-.27.424-.55.627-.843.203-.293.386-.58.55-.862.165-.281.266-.504.305-.668l-1.547-1.84a.541.541 0 0 1-.064-.439.753.753 0 0 1 .234-.363.974.974 0 0 1 .387-.205.552.552 0 0 1 .416.046c.094.047.213.16.357.34.145.18.295.366.452.557.156.191.306.357.45.498.145.14.264.195.358.164a1.93 1.93 0 0 0 .223-.252c.101-.129.219-.271.351-.428.133-.156.276-.312.428-.468a2.23 2.23 0 0 1 .457-.37.802.802 0 0 1 .428-.128c.133.004.246.087.34.252a.835.835 0 0 1 .029.574c-.059.187-.15.367-.275.539-.125.172-.27.338-.434.498-.164.16-.314.314-.451.463a2.83 2.83 0 0 0-.328.422c-.082.132-.104.254-.065.363.14.203.3.402.475.598.176.195.35.39.521.586.172.195.334.394.487.597.152.203.279.418.38.645a.498.498 0 0 1 .012.457.69.69 0 0 1-.316.316.827.827 0 0 1-.457.082.573.573 0 0 1-.41-.234l-1.594-1.945c-.078.054-.172.17-.281.345-.11.176-.233.37-.37.58-.136.211-.283.426-.439.645a3.31 3.31 0 0 1-.492.556 1.295 1.295 0 0 1-.527.3c-.18.046-.36.003-.54-.13zm6.399-3.023c-.234-.164-.35-.334-.346-.51.004-.176.143-.306.416-.392l4.078-.024c.11.04.184.11.223.211.04.102.041.207.006.316a.715.715 0 0 1-.205.305.676.676 0 0 1-.41.164l-3.762-.07zm9.703 1.57c-.203.477-.463.832-.78 1.067a2.105 2.105 0 0 1-1.013.416c-.36.043-.72-.002-1.084-.135a3.134 3.134 0 0 1-1.71-1.5 2.67 2.67 0 0 1-.311-1.172 6.439 6.439 0 0 1-.041-.838 4.74 4.74 0 0 1 .087-.855c.055-.278.143-.543.264-.797.121-.254.287-.479.498-.674a1.88 1.88 0 0 1 .838-.404c.3-.059.59-.063.867-.012.278.05.53.139.756.264.227.125.39.263.492.416.102.152.125.302.07.45-.054.15-.218.27-.492.364-.406-.234-.757-.355-1.054-.363-.297-.008-.54.06-.727.205a1.262 1.262 0 0 0-.416.61c-.09.261-.137.544-.14.849-.004.305.035.611.117.92.082.308.199.586.351.832.153.246.34.44.563.58.222.14.47.193.744.158.273-.035.574-.174.902-.416.328-.242.676-.629 1.043-1.16.086-.047.158-.04.217.023a.514.514 0 0 1 .117.276 1.564 1.564 0 0 1-.158.896zm1.688 1.383a1.929 1.929 0 0 1-.815-.72 2.717 2.717 0 0 1-.375-1.02 3.849 3.849 0 0 1 0-1.16c.059-.403.158-.793.299-1.172.14-.38.312-.725.516-1.037.203-.313.421-.567.656-.762.43-.328.828-.523 1.195-.586.367-.062.695-.027.984.106.29.132.541.343.756.632.215.29.383.62.504.99.121.372.194.77.217 1.196.023.426-.006.842-.088 1.248a4.03 4.03 0 0 1-.41 1.137 2.55 2.55 0 0 1-.762.867 2.528 2.528 0 0 1-1.136.433c-.442.063-.956.012-1.541-.152zm.902-.973c.328.032.623-.04.885-.216.261-.176.478-.407.65-.692.172-.285.297-.607.375-.967.078-.359.094-.705.047-1.037a2.24 2.24 0 0 0-.328-.902 1.371 1.371 0 0 0-.738-.568c-.196-.04-.4.023-.616.187-.215.164-.41.385-.586.662-.175.278-.32.59-.433.938-.114.347-.17.691-.17 1.031 0 .34.07.65.21.932.141.28.376.492.704.632zm4.805.598c0 .242-.065.404-.194.486a.571.571 0 0 1-.422.082.888.888 0 0 1-.422-.205.577.577 0 0 1-.216-.386 78.43 78.43 0 0 0 .006-2.55c-.012-.902-.038-1.849-.077-2.841.063-.21.17-.344.323-.398a.478.478 0 0 1 .44.052c.14.09.247.25.321.48.075.231.065.526-.029.886.5-.735.969-1.215 1.406-1.442.438-.226.84-.273 1.207-.14.368.132.69.404.967.814.277.41.506.885.686 1.424.18.539.302 1.103.369 1.693.066.59.068 1.131.006 1.623.007.203-.053.356-.182.457a.766.766 0 0 1-.422.17.629.629 0 0 1-.416-.111c-.125-.086-.18-.219-.164-.399.055-.984.033-1.78-.064-2.39-.098-.61-.239-1.065-.422-1.365-.184-.301-.397-.467-.639-.499-.242-.03-.486.034-.732.194s-.48.4-.703.72c-.223.32-.403.68-.54 1.079-.136.398-.22.822-.251 1.271-.032.45.023.881.164 1.295zm7.218-3.832c-.039.016-.054.105-.047.27.008.164.026.37.053.62.028.25.06.532.1.844.039.313.066.621.082.926.015.305.014.592-.006.862-.02.269-.068.49-.147.662-.078.172-.193.279-.345.322-.153.043-.358-.006-.615-.147l-.282-4.359a2.457 2.457 0 0 0-.422-.047c-.109 0-.212.006-.31.018l-.322.035c-.118.012-.27.01-.457-.006a.574.574 0 0 1-.27-.328c-.039-.133-.006-.264.1-.393.105-.129.293-.238.562-.328.27-.09.643-.135 1.12-.135.054-.03.07-.15.046-.357a29.739 29.739 0 0 0-.094-.732c-.039-.282-.068-.575-.087-.88-.02-.304.001-.566.064-.784.062-.22.182-.368.357-.446.176-.078.44-.035.791.13a134.034 134.034 0 0 0 .047 1.845 18.292 18.292 0 0 0 .047.773l.024.223c.007.066.015.146.023.24.164.008.314.006.451-.006.137-.011.27-.023.399-.035.129-.012.261-.021.398-.03.137-.007.287-.007.451 0 .172.04.297.11.375.212a.5.5 0 0 1 .112.328.537.537 0 0 1-.141.334.84.84 0 0 1-.357.24l-1.7.129zm8.414 3.727c0 .226-.046.378-.14.457a.497.497 0 0 1-.328.117.864.864 0 0 1-.358-.076c-.113-.051-.185-.1-.217-.147l-.62-1.336c-.102.188-.22.37-.352.545a2.82 2.82 0 0 1-.446.469 2.653 2.653 0 0 1-.533.346 1.83 1.83 0 0 1-.615.175c-.523.016-.959-.064-1.307-.24a2.206 2.206 0 0 1-.832-.709 2.51 2.51 0 0 1-.41-1.025 4.207 4.207 0 0 1-.03-1.196c.048-.41.145-.814.294-1.212.148-.399.336-.756.562-1.073a3.21 3.21 0 0 1 .791-.785c.301-.207.623-.322.967-.346.344-.023.705.057 1.084.24.38.184.768.51 1.166.98l1.324 4.816zm-4.593-.774c.359.125.673.154.943.088.27-.066.498-.193.686-.38.187-.188.33-.423.427-.704a3.609 3.609 0 0 0 .14-1.775 2.504 2.504 0 0 0-.257-.774 1.247 1.247 0 0 0-.463-.498c-.187-.11-.406-.133-.656-.07a1.005 1.005 0 0 0-.545.357c-.16.192-.295.418-.404.68-.11.262-.192.545-.246.85-.055.304-.08.601-.077.89.004.29.043.553.118.791.074.239.185.42.334.545zm6.632.434a.887.887 0 0 1 .053.433.917.917 0 0 1-.135.375.791.791 0 0 1-.263.258.546.546 0 0 1-.323.082.51.51 0 0 1-.31-.146c-.098-.09-.174-.237-.229-.44a2.514 2.514 0 0 1-.04-.404 27.99 27.99 0 0 1-.03-.756c-.008-.289-.016-.6-.023-.932a267.603 267.603 0 0 0-.047-1.687 2.615 2.615 0 0 0-.035-.416c-.055-.383-.059-.693-.012-.932.047-.238.12-.418.217-.539a.486.486 0 0 1 .334-.199.487.487 0 0 1 .345.1c.106.078.19.197.252.357.063.16.082.35.059.568l.187 4.278zm-.843-6.235c-.172-.132-.276-.279-.31-.44a.654.654 0 0 1 .034-.427.527.527 0 0 1 .282-.27.49.49 0 0 1 .416.024.594.594 0 0 1 .316.399.81.81 0 0 1-.023.474.567.567 0 0 1-.276.317c-.129.066-.275.04-.44-.077zm2.988 6.68c0 .242-.064.404-.193.486a.571.571 0 0 1-.422.082.888.888 0 0 1-.422-.205.577.577 0 0 1-.217-.386 78.43 78.43 0 0 0 .006-2.55c-.012-.902-.037-1.849-.076-2.841.062-.21.17-.344.322-.398a.478.478 0 0 1 .44.052c.14.09.248.25.322.48.074.231.064.526-.03.886.5-.735.97-1.215 1.407-1.442.437-.226.84-.273 1.207-.14.367.132.69.404.967.814.277.41.505.885.685 1.424.18.539.303 1.103.37 1.693.066.59.068 1.131.005 1.623.008.203-.053.356-.182.457a.766.766 0 0 1-.421.17.629.629 0 0 1-.416-.111c-.125-.086-.18-.219-.165-.399.055-.984.034-1.78-.064-2.39-.098-.61-.238-1.065-.422-1.365-.183-.301-.396-.467-.639-.499-.242-.03-.486.034-.732.194s-.48.4-.703.72c-.223.32-.402.68-.54 1.079-.136.398-.22.822-.251 1.271-.031.45.023.881.164 1.295zm10.16-.668c-.14.266-.328.486-.562.662a2.494 2.494 0 0 1-.774.393 3.013 3.013 0 0 1-1.781-.023 3.216 3.216 0 0 1-.814-.4 2.4 2.4 0 0 1-.64-.632 4.93 4.93 0 0 1-.573-1.582 4.042 4.042 0 0 1 .011-1.594c.11-.5.332-.937.668-1.312s.805-.625 1.407-.75c.57-.04 1.021.03 1.353.205.332.176.559.414.68.715.12.3.144.634.07 1.002a2.865 2.865 0 0 1-.475 1.072 3.631 3.631 0 0 1-.96.926c-.399.27-.86.455-1.383.556.156.258.334.444.533.557.2.113.408.182.627.205.219.024.435.01.65-.04.215-.052.414-.114.598-.188a9.4 9.4 0 0 0 .486-.211c.14-.067.242-.112.305-.135.281-.086.473-.086.574 0 .102.086.102.277 0 .574zm-3.105-4.184a2.61 2.61 0 0 0-.832 1.055 2.371 2.371 0 0 0-.17.633c-.028.219-.022.434.017.645.328-.047.623-.149.885-.305s.48-.334.656-.533c.176-.2.303-.405.381-.616.078-.21.1-.394.065-.55a.473.473 0 0 0-.3-.34c-.163-.07-.398-.067-.702.011zm5.215 4.993a.624.624 0 0 1-.288.299.885.885 0 0 1-.427.11.736.736 0 0 1-.416-.128c-.13-.086-.217-.23-.264-.434a2.512 2.512 0 0 1-.006-.486c.012-.246.014-.594.006-1.043a42.116 42.116 0 0 0-.07-1.676 41.877 41.877 0 0 0-.223-2.396c.164-.149.322-.203.475-.164.152.039.29.125.416.258.125.132.226.294.304.486.078.191.121.369.13.533a1.27 1.27 0 0 1 .251-.463c.13-.16.287-.306.475-.44.187-.132.396-.245.627-.34.23-.093.468-.151.715-.175.246-.023.492 0 .738.07s.474.204.685.399a.46.46 0 0 1-.035.223.916.916 0 0 1-.316.404.575.575 0 0 1-.211.1c-.453-.094-.838-.088-1.154.017-.317.105-.577.28-.78.521a2.407 2.407 0 0 0-.457.885 6.111 6.111 0 0 0-.21 1.108c-.04.39-.053.789-.042 1.195.012.406.037.785.077 1.137z"/><path fill="#F5A623" d="M89.947 48.246c-.031-.023-.11-.04-.234-.053a115.12 115.12 0 0 1-.428-.04 4.324 4.324 0 0 1-.486-.077 1.401 1.401 0 0 1-.416-.152.421.421 0 0 1-.211-.264c-.027-.11.017-.25.135-.422a.566.566 0 0 1 .222-.217c.094-.05.196-.087.305-.11.11-.024.22-.036.334-.036.113 0 .22.008.322.023-.133-.89-.15-1.638-.052-2.244.097-.605.267-1.093.51-1.465.241-.37.534-.638.878-.802.344-.164.69-.242 1.037-.235.348.008.678.086.99.235.313.148.563.343.75.586a.32.32 0 0 1 .13.328.752.752 0 0 1-.176.363.745.745 0 0 1-.334.229c-.13.043-.244.01-.346-.1-.32-.367-.613-.578-.879-.633a.823.823 0 0 0-.697.147c-.2.152-.365.382-.498.691a4.296 4.296 0 0 0-.316 2.04c.03.347.105.638.222.872l1.828-.012c.125.079.22.182.287.311.067.129.106.258.117.387a.822.822 0 0 1-.035.345c-.035.102-.092.168-.17.2l-1.605.082c.015.07.055.197.117.38.063.184.129.393.2.627.07.235.132.483.187.745.054.261.082.51.082.744a.613.613 0 0 1-.287.334.849.849 0 0 1-.393.1.748.748 0 0 1-.38-.106.555.555 0 0 1-.253-.305l-.457-2.496zm5.707 2.145c.055.195.047.345-.023.45a.442.442 0 0 1-.305.194.92.92 0 0 1-.44-.04 1.012 1.012 0 0 1-.415-.253l-.399-7.945c-.054-.14-.056-.264-.006-.37a.567.567 0 0 1 .223-.245.839.839 0 0 1 .328-.112.608.608 0 0 1 .328.041.45.45 0 0 1 .223.211c.05.098.053.229.006.393l.48 7.676zm5.742-.645c-.14.266-.328.486-.562.662a2.494 2.494 0 0 1-.773.393 3.013 3.013 0 0 1-1.781-.023 3.216 3.216 0 0 1-.815-.4 2.4 2.4 0 0 1-.639-.632 4.93 4.93 0 0 1-.574-1.582 4.042 4.042 0 0 1 .012-1.594c.109-.5.332-.937.668-1.312s.804-.625 1.406-.75c.57-.04 1.021.03 1.353.205.332.176.559.414.68.715.121.3.145.634.07 1.002a2.865 2.865 0 0 1-.474 1.072 3.631 3.631 0 0 1-.961.926c-.399.27-.86.455-1.383.556.156.258.334.444.533.557.2.113.408.182.627.205.219.024.436.01.65-.04.215-.052.415-.114.598-.188a9.4 9.4 0 0 0 .487-.211c.14-.067.242-.112.304-.135.282-.086.473-.086.574 0 .102.086.102.277 0 .574zm-3.105-4.184a2.61 2.61 0 0 0-.832 1.055 2.371 2.371 0 0 0-.17.633c-.027.219-.021.434.018.645.328-.047.623-.149.884-.305.262-.156.48-.334.657-.533.175-.2.302-.405.38-.616.079-.21.1-.394.065-.55a.473.473 0 0 0-.299-.34c-.164-.07-.398-.067-.703.011zm3.855 5.297a.685.685 0 0 1-.234-.263c-.039-.09-.031-.213.024-.37.14-.14.318-.345.533-.615.215-.27.424-.55.627-.843.203-.293.386-.58.55-.862.165-.281.266-.504.305-.668l-1.547-1.84a.541.541 0 0 1-.064-.439.753.753 0 0 1 .234-.363.974.974 0 0 1 .387-.205.552.552 0 0 1 .416.047c.094.046.213.16.357.34.145.179.295.365.452.556.156.191.306.357.45.498.145.14.264.195.358.164a1.93 1.93 0 0 0 .223-.252c.101-.129.219-.271.351-.428.133-.156.276-.312.428-.468a2.23 2.23 0 0 1 .457-.37.802.802 0 0 1 .428-.128c.133.004.246.087.34.252a.835.835 0 0 1 .029.574c-.059.187-.15.367-.275.539-.125.172-.27.338-.434.498-.164.16-.314.314-.451.463a2.83 2.83 0 0 0-.328.422c-.082.132-.104.254-.065.363.14.203.3.402.475.598.176.195.35.39.521.586.172.195.334.394.487.597.152.203.279.418.38.645a.498.498 0 0 1 .012.457.69.69 0 0 1-.316.316.827.827 0 0 1-.457.082.573.573 0 0 1-.41-.234l-1.594-1.946c-.078.055-.172.17-.281.346-.11.176-.233.37-.37.58-.136.211-.283.426-.439.645a3.31 3.31 0 0 1-.492.556 1.295 1.295 0 0 1-.527.3c-.18.046-.36.003-.54-.13zm6.399-3.023c-.234-.164-.35-.334-.346-.51.004-.176.143-.306.416-.392l4.078-.024c.11.04.184.11.223.211.04.102.041.207.006.316a.715.715 0 0 1-.205.305.676.676 0 0 1-.41.164l-3.762-.07zm9.703 1.57c-.203.477-.463.832-.78 1.067a2.105 2.105 0 0 1-1.013.416c-.36.043-.72-.002-1.084-.135a3.134 3.134 0 0 1-1.71-1.5 2.67 2.67 0 0 1-.311-1.172 6.439 6.439 0 0 1-.041-.838 4.74 4.74 0 0 1 .087-.855c.055-.278.143-.543.264-.797.121-.254.287-.479.498-.674a1.88 1.88 0 0 1 .838-.404c.3-.059.59-.063.867-.012.278.05.53.139.756.264.227.125.39.263.492.416.102.152.125.302.07.45-.054.15-.218.27-.492.364-.406-.234-.757-.355-1.054-.363-.297-.008-.54.06-.727.205a1.262 1.262 0 0 0-.416.61c-.09.261-.137.544-.14.849-.004.305.035.611.117.92.082.308.199.586.351.832.153.246.34.44.563.58.222.14.47.193.744.158.273-.035.574-.174.902-.416.328-.242.676-.629 1.043-1.16.086-.047.158-.04.217.023a.514.514 0 0 1 .117.276 1.564 1.564 0 0 1-.158.896zm1.688 1.383a1.929 1.929 0 0 1-.815-.72 2.717 2.717 0 0 1-.375-1.02 3.849 3.849 0 0 1 0-1.16c.059-.403.158-.793.299-1.172.14-.38.312-.725.516-1.037.203-.313.421-.567.656-.762.43-.328.828-.523 1.195-.586.367-.062.695-.027.984.105.29.133.541.344.756.633.215.29.383.62.504.99.121.372.194.77.217 1.196.023.426-.006.842-.088 1.248a4.03 4.03 0 0 1-.41 1.137 2.55 2.55 0 0 1-.762.867 2.528 2.528 0 0 1-1.136.433c-.442.063-.956.012-1.541-.152zm.902-.973c.328.032.623-.04.885-.216.261-.176.478-.407.65-.692.172-.285.297-.607.375-.967.078-.359.094-.705.047-1.037a2.24 2.24 0 0 0-.328-.902 1.371 1.371 0 0 0-.738-.568c-.196-.04-.4.023-.616.187-.215.164-.41.385-.586.662-.175.278-.32.59-.433.938-.114.347-.17.691-.17 1.031 0 .34.07.65.21.932.141.28.376.492.704.632zm4.805.598c0 .242-.065.404-.194.486a.571.571 0 0 1-.422.082.888.888 0 0 1-.422-.205.577.577 0 0 1-.216-.386 78.43 78.43 0 0 0 .006-2.55c-.012-.902-.038-1.849-.077-2.841.063-.21.17-.344.323-.398a.478.478 0 0 1 .44.052c.14.09.247.25.321.48.075.231.065.526-.029.886.5-.735.969-1.215 1.406-1.442.438-.226.84-.273 1.207-.14.368.132.69.404.967.814.277.41.506.885.686 1.424.18.539.302 1.103.369 1.693.066.59.068 1.131.006 1.623.007.203-.053.356-.182.457a.766.766 0 0 1-.422.17.629.629 0 0 1-.416-.111c-.125-.086-.18-.219-.164-.399.055-.984.033-1.78-.064-2.39-.098-.61-.239-1.065-.422-1.365-.184-.301-.397-.467-.639-.499-.242-.03-.486.034-.732.194s-.48.4-.703.72c-.223.32-.403.68-.54 1.079-.136.398-.22.822-.251 1.271-.032.45.023.881.164 1.295zm7.218-3.832c-.039.016-.054.105-.047.27.008.164.026.37.053.62.028.25.06.532.1.844.039.313.066.621.082.926.015.305.013.592-.006.862-.02.269-.068.49-.147.662-.078.172-.193.279-.345.322-.153.043-.358-.006-.615-.147l-.282-4.359a2.457 2.457 0 0 0-.422-.047c-.109 0-.212.006-.31.018l-.322.035c-.118.012-.27.01-.457-.006a.574.574 0 0 1-.27-.328c-.039-.133-.006-.264.1-.393.105-.129.293-.238.562-.328.27-.09.643-.135 1.12-.135.054-.03.07-.15.046-.357a29.74 29.74 0 0 0-.094-.732c-.039-.282-.068-.575-.087-.88-.02-.304.001-.566.064-.784.062-.22.182-.368.357-.446.176-.078.44-.035.791.13a134.042 134.042 0 0 0 .047 1.845 18.293 18.293 0 0 0 .047.773l.024.223c.007.066.015.146.023.24.164.008.314.006.451-.006.137-.011.27-.023.399-.035.129-.012.261-.021.398-.03.137-.007.287-.007.451 0 .172.04.297.11.375.212a.5.5 0 0 1 .112.328.537.537 0 0 1-.141.334.84.84 0 0 1-.357.24l-1.7.129zm8.414 3.727c0 .226-.046.378-.14.457a.497.497 0 0 1-.328.117.864.864 0 0 1-.358-.076c-.113-.051-.185-.1-.217-.147l-.62-1.336c-.102.188-.22.37-.352.545a2.82 2.82 0 0 1-.446.469 2.653 2.653 0 0 1-.533.346 1.83 1.83 0 0 1-.615.175c-.523.016-.959-.064-1.307-.24a2.206 2.206 0 0 1-.832-.709 2.51 2.51 0 0 1-.41-1.025 4.207 4.207 0 0 1-.03-1.196c.048-.41.145-.814.294-1.212.148-.399.336-.756.562-1.073a3.21 3.21 0 0 1 .791-.785c.301-.207.623-.322.967-.346.344-.023.705.057 1.084.24.38.184.768.51 1.166.98l1.324 4.816zm-4.593-.774c.359.125.673.154.943.088.27-.066.498-.193.686-.38.187-.188.33-.423.427-.704a3.609 3.609 0 0 0 .14-1.775 2.504 2.504 0 0 0-.257-.774 1.247 1.247 0 0 0-.463-.498c-.187-.11-.406-.133-.656-.07a1.005 1.005 0 0 0-.545.357c-.16.192-.295.418-.404.68-.11.262-.192.545-.246.85-.055.304-.08.601-.077.89.004.29.043.553.118.791.074.239.185.42.334.545zm6.632.434a.887.887 0 0 1 .053.433.917.917 0 0 1-.135.375.791.791 0 0 1-.263.258.546.546 0 0 1-.323.082.51.51 0 0 1-.31-.146c-.098-.09-.174-.237-.229-.44a2.514 2.514 0 0 1-.04-.404 27.99 27.99 0 0 1-.03-.756c-.008-.289-.016-.6-.023-.932a267.572 267.572 0 0 0-.047-1.687 2.615 2.615 0 0 0-.035-.416c-.055-.383-.059-.693-.012-.932.047-.238.12-.418.217-.539a.486.486 0 0 1 .334-.199.487.487 0 0 1 .345.1c.106.078.19.197.252.357.063.16.082.35.059.568l.187 4.278zm-.843-6.235c-.172-.132-.276-.279-.31-.44a.654.654 0 0 1 .034-.427.527.527 0 0 1 .282-.27.49.49 0 0 1 .416.024.594.594 0 0 1 .316.399.81.81 0 0 1-.023.474.567.567 0 0 1-.276.317c-.129.066-.275.04-.44-.077zm2.988 6.68c0 .242-.064.404-.193.486a.571.571 0 0 1-.422.082.888.888 0 0 1-.422-.205.577.577 0 0 1-.217-.386c.016-.797.018-1.647.006-2.55-.012-.902-.037-1.849-.076-2.841.062-.21.17-.344.322-.398a.478.478 0 0 1 .44.052c.14.09.248.25.322.48.074.231.064.526-.03.886.5-.735.97-1.215 1.407-1.442.437-.226.84-.273 1.207-.14.367.132.69.404.967.814.277.41.505.885.685 1.424.18.539.303 1.103.37 1.693.066.59.068 1.131.005 1.623.008.203-.053.356-.182.457a.766.766 0 0 1-.421.17.629.629 0 0 1-.416-.111c-.125-.086-.18-.219-.165-.399.055-.984.034-1.78-.064-2.39-.098-.61-.238-1.065-.422-1.365-.183-.301-.396-.467-.639-.499-.242-.03-.486.034-.732.194s-.48.4-.703.72c-.223.32-.402.68-.54 1.079-.136.398-.22.822-.251 1.271-.031.45.023.881.164 1.295zm10.16-.668c-.14.266-.328.486-.562.662a2.494 2.494 0 0 1-.774.393 3.013 3.013 0 0 1-1.781-.023 3.216 3.216 0 0 1-.815-.4 2.4 2.4 0 0 1-.638-.632 4.93 4.93 0 0 1-.574-1.582 4.042 4.042 0 0 1 .011-1.594c.11-.5.332-.937.668-1.312s.805-.625 1.407-.75c.57-.04 1.021.03 1.353.205.332.176.559.414.68.715.12.3.144.634.07 1.002a2.865 2.865 0 0 1-.475 1.072 3.631 3.631 0 0 1-.96.926c-.399.27-.86.455-1.383.556.156.258.334.444.533.557.2.113.408.182.627.205.219.024.435.01.65-.04.215-.052.414-.114.598-.188a9.4 9.4 0 0 0 .486-.211c.14-.067.242-.112.305-.135.281-.086.473-.086.574 0 .102.086.102.277 0 .574zm-3.105-4.184a2.61 2.61 0 0 0-.832 1.055 2.371 2.371 0 0 0-.17.633c-.028.219-.022.434.017.645.328-.047.623-.149.885-.305s.48-.334.656-.533c.176-.2.303-.405.381-.616.078-.21.1-.394.065-.55a.473.473 0 0 0-.3-.34c-.163-.07-.398-.067-.702.011zm5.215 4.993a.624.624 0 0 1-.288.299.885.885 0 0 1-.427.11.736.736 0 0 1-.416-.128c-.13-.086-.217-.23-.264-.434a2.512 2.512 0 0 1-.006-.486c.012-.246.014-.594.006-1.043a42.114 42.114 0 0 0-.07-1.676 41.877 41.877 0 0 0-.223-2.396c.164-.149.322-.203.475-.164.152.039.29.125.416.258.125.132.226.294.304.486.078.191.121.369.13.533a1.27 1.27 0 0 1 .251-.463c.13-.16.287-.306.475-.44.187-.132.396-.245.627-.34.23-.093.468-.151.715-.175.246-.023.492 0 .738.07s.474.204.685.399a.46.46 0 0 1-.035.222.916.916 0 0 1-.316.405.575.575 0 0 1-.211.1c-.453-.094-.838-.088-1.154.017-.317.105-.577.28-.78.521a2.407 2.407 0 0 0-.457.885 6.111 6.111 0 0 0-.21 1.108c-.04.39-.053.789-.042 1.195.012.406.037.785.077 1.137zM132.072 174.246c-.031-.023-.11-.04-.234-.053l-.428-.04a4.324 4.324 0 0 1-.486-.077 1.401 1.401 0 0 1-.416-.152.421.421 0 0 1-.211-.264c-.027-.11.017-.25.135-.422a.566.566 0 0 1 .222-.217c.094-.05.196-.087.305-.11.11-.024.22-.036.334-.036.113 0 .22.008.322.023-.133-.89-.15-1.638-.053-2.244.098-.605.268-1.093.51-1.465.242-.37.535-.638.88-.802.343-.164.689-.242 1.036-.235.348.008.678.086.99.235.313.148.563.343.75.586a.32.32 0 0 1 .13.328.752.752 0 0 1-.176.363.745.745 0 0 1-.334.229c-.13.043-.244.01-.346-.1-.32-.367-.613-.578-.879-.633a.823.823 0 0 0-.697.147c-.2.152-.365.382-.498.691a4.297 4.297 0 0 0-.316 2.04c.03.347.105.638.222.872l1.828-.012c.125.079.22.182.287.311.067.129.106.258.117.387a.822.822 0 0 1-.035.345c-.035.102-.092.168-.17.2l-1.605.082c.015.07.055.197.117.38.063.184.129.393.2.627.07.235.132.483.187.745.054.261.082.51.082.744a.613.613 0 0 1-.287.334.849.849 0 0 1-.393.1.748.748 0 0 1-.38-.106.555.555 0 0 1-.253-.305l-.457-2.496zm5.707 2.145c.055.195.047.345-.023.45a.442.442 0 0 1-.305.194.92.92 0 0 1-.44-.04 1.012 1.012 0 0 1-.415-.253l-.399-7.945c-.054-.14-.056-.264-.006-.37a.567.567 0 0 1 .223-.245.839.839 0 0 1 .328-.112.608.608 0 0 1 .328.041.45.45 0 0 1 .223.211c.05.098.053.229.006.393l.48 7.676zm5.742-.645c-.14.266-.328.486-.562.662a2.494 2.494 0 0 1-.773.393 3.013 3.013 0 0 1-1.781-.023 3.216 3.216 0 0 1-.815-.4 2.4 2.4 0 0 1-.639-.632 4.93 4.93 0 0 1-.574-1.582 4.042 4.042 0 0 1 .012-1.594c.109-.5.332-.937.668-1.312s.804-.625 1.406-.75c.57-.04 1.021.03 1.353.205.332.176.559.414.68.715.121.3.145.634.07 1.002a2.865 2.865 0 0 1-.474 1.072 3.631 3.631 0 0 1-.961.926c-.399.27-.86.455-1.383.556.156.258.334.444.533.557.2.113.408.182.627.205.219.024.436.01.65-.04.215-.052.415-.114.598-.188a9.4 9.4 0 0 0 .487-.211c.14-.067.242-.112.304-.135.282-.086.473-.086.574 0 .102.086.102.277 0 .574zm-3.105-4.184a2.61 2.61 0 0 0-.832 1.055 2.371 2.371 0 0 0-.17.633c-.027.219-.021.434.018.645.328-.047.623-.149.884-.305.262-.156.48-.334.657-.533.175-.2.302-.405.38-.616.079-.21.1-.394.065-.55a.473.473 0 0 0-.299-.34c-.164-.07-.398-.067-.703.012zm3.855 5.297a.685.685 0 0 1-.234-.263c-.039-.09-.031-.213.024-.37.14-.14.318-.345.533-.615.215-.27.424-.55.627-.843.203-.293.386-.58.55-.862.165-.281.266-.504.305-.668l-1.547-1.84a.541.541 0 0 1-.064-.439.753.753 0 0 1 .234-.363.974.974 0 0 1 .387-.205.552.552 0 0 1 .416.047c.094.046.213.16.357.34.145.179.295.365.452.556.156.191.306.357.45.498.145.14.264.195.358.164a1.93 1.93 0 0 0 .223-.252c.101-.129.219-.271.351-.428.133-.156.276-.312.428-.468a2.23 2.23 0 0 1 .457-.37.802.802 0 0 1 .428-.128c.133.004.246.087.34.252a.835.835 0 0 1 .029.574c-.059.187-.15.367-.275.539-.125.172-.27.338-.434.498-.164.16-.314.314-.451.463a2.83 2.83 0 0 0-.328.422c-.082.132-.104.254-.065.363.14.203.3.402.475.598.176.195.35.39.521.586.172.195.334.394.487.597.152.203.279.418.38.645a.498.498 0 0 1 .012.457.69.69 0 0 1-.316.316.827.827 0 0 1-.457.082.573.573 0 0 1-.41-.234l-1.594-1.946c-.078.055-.172.17-.281.346-.11.176-.233.37-.37.58-.136.211-.283.426-.439.645a3.31 3.31 0 0 1-.492.556 1.295 1.295 0 0 1-.527.3c-.18.046-.36.003-.54-.13zm6.399-3.023c-.234-.164-.35-.334-.346-.51.004-.176.143-.306.416-.392l4.078-.024c.11.04.184.11.223.211.04.102.041.207.006.316a.715.715 0 0 1-.205.305.676.676 0 0 1-.41.164l-3.762-.07zm6.293 2.133a.887.887 0 0 1 .053.433.917.917 0 0 1-.135.375.791.791 0 0 1-.264.258.546.546 0 0 1-.322.082.51.51 0 0 1-.31-.146c-.098-.09-.174-.237-.23-.44a2.514 2.514 0 0 1-.04-.404 27.986 27.986 0 0 1-.03-.756l-.023-.932a267.584 267.584 0 0 0-.047-1.687 2.615 2.615 0 0 0-.035-.416c-.055-.383-.059-.693-.012-.932.047-.238.12-.418.217-.539a.486.486 0 0 1 .334-.199.487.487 0 0 1 .346.1c.105.078.19.197.252.357.062.16.082.35.058.568l.188 4.278zm-.844-6.235c-.172-.132-.275-.279-.31-.44a.654.654 0 0 1 .035-.427.527.527 0 0 1 .281-.27.49.49 0 0 1 .416.024.594.594 0 0 1 .316.399.81.81 0 0 1-.023.474.567.567 0 0 1-.275.317c-.13.066-.276.04-.44-.077zm3.844 2.848c-.04.016-.055.105-.047.27.008.164.025.37.053.62.027.25.06.532.1.844.038.313.066.621.081.926.016.305.014.592-.005.862-.02.269-.069.49-.147.662-.078.172-.193.279-.346.322-.152.043-.357-.006-.615-.147l-.281-4.359a2.457 2.457 0 0 0-.422-.047c-.11 0-.213.006-.31.018l-.323.035c-.117.012-.27.01-.457-.006a.574.574 0 0 1-.27-.328c-.038-.133-.005-.264.1-.393.106-.129.293-.238.563-.328.27-.09.642-.135 1.119-.135.055-.03.07-.15.047-.357a29.734 29.734 0 0 0-.094-.732c-.04-.282-.068-.575-.088-.88-.02-.304.002-.566.065-.784.062-.22.181-.368.357-.446.176-.078.44-.035.791.13a134.037 134.037 0 0 0 .047 1.845 18.292 18.292 0 0 0 .047.773c.008.082.015.157.023.223s.016.146.024.24c.164.008.314.006.45-.006.138-.011.27-.023.4-.035.128-.012.26-.021.398-.03.136-.007.287-.007.45 0 .173.04.298.11.376.212a.5.5 0 0 1 .111.328.537.537 0 0 1-.14.334.84.84 0 0 1-.358.24l-1.7.129zm7.441 3.164c-.14.266-.328.486-.562.662a2.494 2.494 0 0 1-.774.393 3.013 3.013 0 0 1-1.781-.023 3.216 3.216 0 0 1-.814-.4 2.4 2.4 0 0 1-.639-.632 4.93 4.93 0 0 1-.574-1.582 4.042 4.042 0 0 1 .011-1.594c.11-.5.333-.937.668-1.312.336-.375.805-.625 1.407-.75.57-.04 1.021.03 1.353.205.332.176.559.414.68.715.121.3.144.634.07 1.002a2.865 2.865 0 0 1-.474 1.072 3.631 3.631 0 0 1-.961.926c-.399.27-.86.455-1.383.556.156.258.334.444.533.557.2.113.408.182.627.205.219.024.436.01.65-.04.215-.052.414-.114.598-.188a9.4 9.4 0 0 0 .486-.211c.141-.067.243-.112.305-.135.281-.086.473-.086.574 0 .102.086.102.277 0 .574zm-3.105-4.184a2.61 2.61 0 0 0-.832 1.055 2.371 2.371 0 0 0-.17.633c-.027.219-.022.434.017.645.329-.047.623-.149.885-.305s.48-.334.656-.533c.176-.2.303-.405.381-.616.078-.21.1-.394.065-.55a.473.473 0 0 0-.299-.34c-.164-.07-.398-.067-.703.012zm5.344 4.981a.55.55 0 0 1-.27.387.948.948 0 0 1-.908 0 .574.574 0 0 1-.287-.328 46.966 46.966 0 0 1-.03-1.407 71.149 71.149 0 0 0-.029-1.576 25.857 25.857 0 0 0-.088-1.517 7.536 7.536 0 0 0-.193-1.22.726.726 0 0 1 .082-.439.57.57 0 0 1 .275-.252.5.5 0 0 1 .375.006c.137.051.26.158.37.323l.152 1.125c.258-.422.55-.711.879-.868.328-.156.638-.195.931-.117.293.078.55.266.768.563.219.297.351.687.398 1.172.016-.133.09-.297.223-.493.133-.195.303-.392.51-.591.207-.2.437-.38.691-.54.254-.16.51-.273.768-.34.258-.066.508-.066.75 0 .242.067.453.23.633.487.093.148.173.355.24.621.066.266.12.56.164.885.043.324.082.664.117 1.02l.1 1.025c.03.328.066.633.105.914.04.281.09.508.152.68a.98.98 0 0 1-.11.603.762.762 0 0 1-.358.34.526.526 0 0 1-.434-.012c-.148-.066-.265-.213-.351-.44.03-1.187-.014-2.14-.135-2.859-.121-.718-.28-1.23-.475-1.535-.195-.305-.412-.42-.65-.346-.238.075-.457.311-.656.71-.2.398-.366.939-.498 1.622-.133.684-.192 1.483-.176 2.397a.68.68 0 0 1-.229.34.54.54 0 0 1-.322.105.773.773 0 0 1-.363-.1 1.186 1.186 0 0 1-.34-.275c.023-.82-.014-1.549-.112-2.185-.097-.637-.224-1.143-.38-1.518-.157-.375-.325-.607-.504-.697-.18-.09-.34 0-.48.27-.141.269-.245.734-.311 1.394-.067.66-.065 1.549.006 2.666z"/><path fill="#9013FE" d="M30.072 48.246c-.031-.023-.11-.04-.234-.053a115.12 115.12 0 0 1-.428-.04 4.324 4.324 0 0 1-.486-.077 1.401 1.401 0 0 1-.416-.152.421.421 0 0 1-.211-.264c-.027-.11.017-.25.135-.422a.566.566 0 0 1 .222-.217c.094-.05.196-.087.305-.11.11-.024.22-.036.334-.036.113 0 .22.008.322.023-.133-.89-.15-1.638-.052-2.244.097-.605.267-1.093.51-1.465.241-.37.534-.638.878-.802.344-.164.69-.242 1.037-.235.348.008.678.086.99.235.313.148.563.343.75.586a.32.32 0 0 1 .13.328.752.752 0 0 1-.176.363.745.745 0 0 1-.334.229c-.13.043-.244.01-.346-.1-.32-.367-.613-.578-.879-.633a.823.823 0 0 0-.697.147c-.2.152-.365.382-.498.691a4.296 4.296 0 0 0-.316 2.04c.03.347.105.638.222.872l1.828-.012c.125.079.22.182.287.311.067.129.106.258.117.387a.822.822 0 0 1-.035.345c-.035.102-.092.168-.17.2l-1.605.082c.015.07.055.197.117.38.063.184.129.393.2.627.07.235.132.483.187.745.054.261.082.51.082.744a.613.613 0 0 1-.287.334.849.849 0 0 1-.393.1.748.748 0 0 1-.38-.106.555.555 0 0 1-.253-.305l-.457-2.496zm5.707 2.145c.055.195.047.345-.023.45a.442.442 0 0 1-.305.194.92.92 0 0 1-.44-.04 1.012 1.012 0 0 1-.415-.253l-.399-7.945c-.054-.14-.056-.264-.006-.37a.567.567 0 0 1 .223-.245.839.839 0 0 1 .328-.112.608.608 0 0 1 .328.041.45.45 0 0 1 .223.211c.05.098.053.229.006.393l.48 7.676zm5.742-.645c-.14.266-.328.486-.562.662a2.494 2.494 0 0 1-.773.393 3.013 3.013 0 0 1-1.781-.023 3.216 3.216 0 0 1-.815-.4 2.4 2.4 0 0 1-.639-.632 4.93 4.93 0 0 1-.574-1.582 4.042 4.042 0 0 1 .012-1.594c.109-.5.332-.937.668-1.312s.804-.625 1.406-.75c.57-.04 1.021.03 1.353.205.332.176.559.414.68.715.121.3.145.634.07 1.002a2.865 2.865 0 0 1-.474 1.072 3.631 3.631 0 0 1-.961.926c-.399.27-.86.455-1.383.556.156.258.334.444.533.557.2.113.408.182.627.205.219.024.436.01.65-.04.215-.052.415-.114.598-.188a9.4 9.4 0 0 0 .487-.211c.14-.067.242-.112.304-.135.282-.086.473-.086.574 0 .102.086.102.277 0 .574zm-3.105-4.184a2.61 2.61 0 0 0-.832 1.055 2.371 2.371 0 0 0-.17.633c-.027.219-.021.434.018.645.328-.047.623-.149.884-.305.262-.156.48-.334.657-.533.175-.2.302-.405.38-.616.079-.21.1-.394.065-.55a.473.473 0 0 0-.299-.34c-.164-.07-.398-.067-.703.011zm3.855 5.297a.685.685 0 0 1-.234-.263c-.039-.09-.031-.213.024-.37.14-.14.318-.345.533-.615.215-.27.424-.55.627-.843.203-.293.386-.58.55-.862.165-.281.266-.504.305-.668l-1.547-1.84a.541.541 0 0 1-.064-.439.753.753 0 0 1 .234-.363.974.974 0 0 1 .387-.205.552.552 0 0 1 .416.047c.094.046.213.16.357.34.145.179.295.365.452.556.156.191.306.357.45.498.145.14.264.195.358.164a1.93 1.93 0 0 0 .223-.252c.101-.129.219-.271.351-.428.133-.156.276-.312.428-.468a2.23 2.23 0 0 1 .457-.37.802.802 0 0 1 .428-.128c.133.004.246.087.34.252a.835.835 0 0 1 .029.574c-.059.187-.15.367-.275.539-.125.172-.27.338-.434.498-.164.16-.314.314-.451.463a2.83 2.83 0 0 0-.328.422c-.082.132-.104.254-.065.363.14.203.3.402.475.598.176.195.35.39.521.586.172.195.334.394.487.597.152.203.279.418.38.645a.498.498 0 0 1 .012.457.69.69 0 0 1-.316.316.827.827 0 0 1-.457.082.573.573 0 0 1-.41-.234l-1.594-1.946c-.078.055-.172.17-.281.346-.11.176-.233.37-.37.58-.136.211-.283.426-.439.645a3.31 3.31 0 0 1-.492.556 1.295 1.295 0 0 1-.527.3c-.18.046-.36.003-.54-.13zm6.399-3.023c-.234-.164-.35-.334-.346-.51.004-.176.143-.306.416-.392l4.078-.024c.11.04.184.11.223.211.04.102.041.207.006.316a.715.715 0 0 1-.205.305.676.676 0 0 1-.41.164l-3.762-.07zm6.293 2.133a.887.887 0 0 1 .053.433.917.917 0 0 1-.135.375.791.791 0 0 1-.264.258.546.546 0 0 1-.322.082.51.51 0 0 1-.31-.146c-.098-.09-.174-.237-.23-.44a2.514 2.514 0 0 1-.04-.404 27.989 27.989 0 0 1-.03-.756l-.023-.932a267.603 267.603 0 0 0-.047-1.687 2.615 2.615 0 0 0-.035-.416c-.055-.383-.059-.693-.012-.932.047-.238.12-.418.217-.539a.486.486 0 0 1 .334-.199.487.487 0 0 1 .346.1c.105.078.19.197.252.357.062.16.082.35.058.568l.188 4.278zm-.844-6.235c-.172-.132-.275-.279-.31-.44a.654.654 0 0 1 .035-.427.527.527 0 0 1 .281-.27.49.49 0 0 1 .416.024.594.594 0 0 1 .316.399.81.81 0 0 1-.023.474.567.567 0 0 1-.275.317c-.13.066-.276.04-.44-.077zm3.844 2.848c-.04.016-.055.105-.047.27.008.164.025.37.053.62.027.25.06.532.1.844.038.313.066.621.081.926.016.305.014.592-.005.862-.02.269-.069.49-.147.662-.078.172-.193.279-.346.322-.152.043-.357-.006-.615-.147l-.281-4.359a2.457 2.457 0 0 0-.422-.047c-.11 0-.213.006-.31.018l-.323.035c-.117.012-.27.01-.457-.006a.574.574 0 0 1-.27-.328c-.038-.133-.005-.264.1-.393.106-.129.293-.238.563-.328.27-.09.642-.135 1.119-.135.055-.03.07-.15.047-.357a29.739 29.739 0 0 0-.094-.732c-.04-.282-.068-.575-.088-.88-.02-.304.002-.566.065-.784.062-.22.181-.368.357-.446.176-.078.44-.035.791.13a134.034 134.034 0 0 0 .047 1.845 18.292 18.292 0 0 0 .047.773c.008.082.015.157.023.223s.016.146.024.24c.164.008.314.006.45-.006.138-.011.27-.023.4-.035.128-.012.26-.021.398-.03.136-.007.287-.007.45 0 .173.04.298.11.376.212a.5.5 0 0 1 .111.328.537.537 0 0 1-.14.334.84.84 0 0 1-.358.24l-1.7.129zm7.441 3.164c-.14.266-.328.486-.562.662a2.494 2.494 0 0 1-.774.393 3.013 3.013 0 0 1-1.781-.023 3.216 3.216 0 0 1-.814-.4 2.4 2.4 0 0 1-.639-.632 4.93 4.93 0 0 1-.574-1.582 4.042 4.042 0 0 1 .011-1.594c.11-.5.333-.937.668-1.312.336-.375.805-.625 1.407-.75.57-.04 1.021.03 1.353.205.332.176.559.414.68.715.121.3.144.634.07 1.002a2.865 2.865 0 0 1-.474 1.072 3.631 3.631 0 0 1-.961.926c-.399.27-.86.455-1.383.556.156.258.334.444.533.557.2.113.408.182.627.205.219.024.436.01.65-.04.215-.052.414-.114.598-.188a9.4 9.4 0 0 0 .486-.211c.141-.067.243-.112.305-.135.281-.086.473-.086.574 0 .102.086.102.277 0 .574zM62.3 45.562a2.61 2.61 0 0 0-.832 1.055 2.371 2.371 0 0 0-.17.633c-.027.219-.022.434.017.645.329-.047.623-.149.885-.305s.48-.334.656-.533c.176-.2.303-.405.381-.616.078-.21.1-.394.065-.55a.473.473 0 0 0-.299-.34c-.164-.07-.398-.067-.703.011zm5.344 4.981a.55.55 0 0 1-.27.387.948.948 0 0 1-.908 0 .574.574 0 0 1-.287-.328 46.967 46.967 0 0 1-.03-1.407 71.144 71.144 0 0 0-.029-1.576 25.858 25.858 0 0 0-.088-1.517 7.536 7.536 0 0 0-.193-1.22.726.726 0 0 1 .082-.439.57.57 0 0 1 .275-.252.5.5 0 0 1 .375.006c.137.051.26.158.37.323l.152 1.125c.258-.422.55-.711.879-.868.328-.156.638-.195.931-.117.293.078.55.266.768.563.219.297.351.687.398 1.172.016-.133.09-.297.223-.493.133-.195.303-.392.51-.591.207-.2.437-.38.691-.54.254-.16.51-.273.768-.34.258-.066.508-.066.75 0 .242.067.453.23.633.487.093.148.173.355.24.621.066.266.12.56.164.885.043.324.082.664.117 1.02l.1 1.025c.03.328.066.633.105.914.04.281.09.508.152.68a.98.98 0 0 1-.11.603.762.762 0 0 1-.358.34.526.526 0 0 1-.434-.012c-.148-.066-.265-.213-.351-.44.03-1.187-.014-2.14-.135-2.859-.121-.718-.28-1.23-.475-1.535-.195-.305-.412-.42-.65-.346-.238.075-.457.311-.656.71-.2.398-.366.939-.498 1.622-.133.684-.192 1.483-.176 2.397a.68.68 0 0 1-.229.34.54.54 0 0 1-.322.105.773.773 0 0 1-.363-.1 1.186 1.186 0 0 1-.34-.275c.023-.82-.014-1.549-.112-2.185-.097-.637-.224-1.143-.38-1.518-.157-.375-.325-.607-.504-.697-.18-.09-.34 0-.48.27-.141.269-.245.734-.311 1.394-.067.66-.065 1.549.006 2.666z"/><text fill="#979797" font-family="SetFiretotheRain, Set Fire to the Rain" font-size="16"><tspan x="78.109" y="52">/</tspan></text><path fill="#9013FE" d="M41.072 196.246c-.031-.023-.11-.04-.234-.053l-.428-.04a4.324 4.324 0 0 1-.486-.077 1.401 1.401 0 0 1-.416-.152.421.421 0 0 1-.211-.264c-.027-.11.017-.25.135-.422a.566.566 0 0 1 .222-.217c.094-.05.196-.087.305-.11.11-.024.22-.036.334-.036.113 0 .22.008.322.023-.133-.89-.15-1.638-.053-2.244.098-.605.268-1.093.51-1.465.242-.37.535-.638.88-.802.343-.164.689-.242 1.036-.235.348.008.678.086.99.235.313.148.563.343.75.586a.32.32 0 0 1 .13.328.752.752 0 0 1-.176.363.745.745 0 0 1-.334.229c-.13.043-.244.01-.346-.1-.32-.367-.613-.578-.879-.633a.823.823 0 0 0-.697.147c-.2.152-.365.382-.498.691a4.296 4.296 0 0 0-.316 2.04c.03.347.105.638.222.872l1.828-.012c.125.079.22.182.287.311.067.129.106.258.117.387a.822.822 0 0 1-.035.345c-.035.102-.092.168-.17.2l-1.605.082c.015.07.055.197.117.38.063.184.129.393.2.627.07.235.132.483.187.745.054.261.082.51.082.744a.613.613 0 0 1-.287.334.849.849 0 0 1-.393.1.748.748 0 0 1-.38-.106.555.555 0 0 1-.253-.305l-.457-2.496zm5.707 2.145c.055.195.047.345-.023.45a.442.442 0 0 1-.305.194.92.92 0 0 1-.44-.04 1.012 1.012 0 0 1-.415-.253l-.399-7.945c-.054-.14-.056-.264-.006-.37a.567.567 0 0 1 .223-.245.839.839 0 0 1 .328-.112.608.608 0 0 1 .328.041.45.45 0 0 1 .223.211c.05.098.053.229.006.393l.48 7.676zm5.742-.645c-.14.266-.328.486-.562.662a2.494 2.494 0 0 1-.773.393 3.013 3.013 0 0 1-1.781-.023 3.216 3.216 0 0 1-.815-.4 2.4 2.4 0 0 1-.639-.632 4.93 4.93 0 0 1-.574-1.582 4.042 4.042 0 0 1 .012-1.594c.109-.5.332-.937.668-1.312s.804-.625 1.406-.75c.57-.04 1.021.03 1.353.205.332.176.559.414.68.715.121.3.145.634.07 1.002a2.865 2.865 0 0 1-.474 1.072 3.631 3.631 0 0 1-.961.926c-.399.27-.86.455-1.383.556.156.258.334.444.533.557.2.113.408.182.627.205.219.024.436.01.65-.04.215-.052.415-.114.598-.188a9.4 9.4 0 0 0 .487-.211c.14-.067.242-.112.304-.135.282-.086.473-.086.574 0 .102.086.102.277 0 .574zm-3.105-4.184a2.61 2.61 0 0 0-.832 1.055 2.371 2.371 0 0 0-.17.633c-.027.219-.021.434.018.645.328-.047.623-.149.884-.305.262-.156.48-.334.657-.533.175-.2.302-.405.38-.616.079-.21.1-.394.065-.55a.473.473 0 0 0-.299-.34c-.164-.07-.398-.067-.703.012zm3.855 5.297a.685.685 0 0 1-.234-.263c-.039-.09-.031-.213.024-.37.14-.14.318-.345.533-.615.215-.27.424-.55.627-.843.203-.293.386-.58.55-.862.165-.281.266-.504.305-.668l-1.547-1.84a.541.541 0 0 1-.064-.439.753.753 0 0 1 .234-.363.974.974 0 0 1 .387-.205.552.552 0 0 1 .416.047c.094.046.213.16.357.34.145.179.295.365.452.556.156.191.306.357.45.498.145.14.264.195.358.164a1.93 1.93 0 0 0 .223-.252c.101-.129.219-.271.351-.428.133-.156.276-.312.428-.468a2.23 2.23 0 0 1 .457-.37.802.802 0 0 1 .428-.128c.133.004.246.087.34.252a.835.835 0 0 1 .029.574c-.059.187-.15.367-.275.539-.125.172-.27.338-.434.498-.164.16-.314.314-.451.463a2.83 2.83 0 0 0-.328.422c-.082.132-.104.254-.065.363.14.203.3.402.475.598.176.195.35.39.521.586.172.195.334.394.487.597.152.203.279.418.38.645a.498.498 0 0 1 .012.457.69.69 0 0 1-.316.316.827.827 0 0 1-.457.082.573.573 0 0 1-.41-.234l-1.594-1.946c-.078.055-.172.17-.281.346-.11.176-.233.37-.37.58-.136.211-.283.426-.439.645a3.31 3.31 0 0 1-.492.556 1.295 1.295 0 0 1-.527.3c-.18.046-.36.003-.54-.13zm6.399-3.023c-.234-.164-.35-.334-.346-.51.004-.176.143-.306.416-.392l4.078-.024c.11.04.184.11.223.211.04.102.041.207.006.316a.715.715 0 0 1-.205.305.676.676 0 0 1-.41.164l-3.762-.07zm6.293 2.133a.887.887 0 0 1 .053.433.917.917 0 0 1-.135.375.791.791 0 0 1-.264.258.546.546 0 0 1-.322.082.51.51 0 0 1-.31-.146c-.098-.09-.174-.237-.23-.44a2.514 2.514 0 0 1-.04-.404 27.989 27.989 0 0 1-.03-.756l-.023-.932a267.603 267.603 0 0 0-.047-1.687 2.615 2.615 0 0 0-.035-.416c-.055-.383-.059-.693-.012-.932.047-.238.12-.418.217-.539a.486.486 0 0 1 .334-.199.487.487 0 0 1 .346.1c.105.078.19.197.252.357.062.16.082.35.058.568l.188 4.278zm-.844-6.235c-.172-.132-.275-.279-.31-.44a.654.654 0 0 1 .035-.427.527.527 0 0 1 .281-.27.49.49 0 0 1 .416.024.594.594 0 0 1 .316.399.81.81 0 0 1-.023.474.567.567 0 0 1-.275.317c-.13.066-.276.04-.44-.077zm3.844 2.848c-.04.016-.055.105-.047.27.008.164.025.37.053.62.027.25.06.532.1.844.038.313.066.621.081.926.016.305.014.592-.005.862-.02.269-.069.49-.147.662-.078.172-.193.279-.346.322-.152.043-.357-.006-.615-.147l-.281-4.359a2.457 2.457 0 0 0-.422-.047c-.11 0-.213.006-.31.018l-.323.035c-.117.012-.27.01-.457-.006a.574.574 0 0 1-.27-.328c-.038-.133-.005-.264.1-.393.106-.129.293-.238.563-.328.27-.09.642-.135 1.119-.135.055-.03.07-.15.047-.357a29.738 29.738 0 0 0-.094-.732c-.04-.282-.068-.575-.088-.88-.02-.304.002-.566.065-.784.062-.22.181-.368.357-.446.176-.078.44-.035.791.13a134.035 134.035 0 0 0 .047 1.845 18.292 18.292 0 0 0 .047.773c.008.082.015.157.023.223s.016.146.024.24c.164.008.314.006.45-.006.138-.011.27-.023.4-.035.128-.012.26-.021.398-.03.136-.007.287-.007.45 0 .173.04.298.11.376.212a.5.5 0 0 1 .111.328.537.537 0 0 1-.14.334.84.84 0 0 1-.358.24l-1.7.129zm7.441 3.164c-.14.266-.328.486-.562.662a2.494 2.494 0 0 1-.774.393 3.013 3.013 0 0 1-1.781-.023 3.216 3.216 0 0 1-.814-.4 2.4 2.4 0 0 1-.639-.632 4.93 4.93 0 0 1-.574-1.582 4.042 4.042 0 0 1 .011-1.594c.11-.5.333-.937.668-1.312.336-.375.805-.625 1.407-.75.57-.04 1.021.03 1.353.205.332.176.559.414.68.715.121.3.144.634.07 1.002a2.865 2.865 0 0 1-.474 1.072 3.631 3.631 0 0 1-.961.926c-.399.27-.86.455-1.383.556.156.258.334.444.533.557.2.113.408.182.627.205.219.024.436.01.65-.04.215-.052.414-.114.598-.188a9.4 9.4 0 0 0 .486-.211c.141-.067.243-.112.305-.135.281-.086.473-.086.574 0 .102.086.102.277 0 .574zm-3.105-4.184a2.61 2.61 0 0 0-.832 1.055 2.371 2.371 0 0 0-.17.633c-.027.219-.022.434.017.645.329-.047.623-.149.885-.305s.48-.334.656-.533c.176-.2.303-.405.381-.616.078-.21.1-.394.065-.55a.473.473 0 0 0-.299-.34c-.164-.07-.398-.067-.703.012zm5.344 4.981a.55.55 0 0 1-.27.387.948.948 0 0 1-.908 0 .574.574 0 0 1-.287-.328 46.967 46.967 0 0 1-.03-1.407 71.144 71.144 0 0 0-.029-1.576 25.858 25.858 0 0 0-.088-1.517 7.536 7.536 0 0 0-.193-1.22.726.726 0 0 1 .082-.439.57.57 0 0 1 .275-.252.5.5 0 0 1 .375.006c.137.051.26.158.37.323l.152 1.125c.258-.422.55-.711.879-.868.328-.156.638-.195.931-.117.293.078.55.266.768.563.219.297.351.687.398 1.172.016-.133.09-.297.223-.493.133-.195.303-.392.51-.591.207-.2.437-.38.691-.54.254-.16.51-.273.768-.34.258-.066.508-.066.75 0 .242.067.453.23.633.487.093.148.173.355.24.621.066.266.12.56.164.885.043.324.082.664.117 1.02l.1 1.025c.03.328.066.633.105.914.04.281.09.508.152.68a.98.98 0 0 1-.11.603.762.762 0 0 1-.358.34.526.526 0 0 1-.434-.012c-.148-.066-.265-.213-.351-.44.03-1.187-.014-2.14-.135-2.859-.121-.718-.28-1.23-.475-1.535-.195-.305-.412-.42-.65-.346-.238.075-.457.311-.656.71-.2.398-.366.939-.498 1.622-.133.684-.192 1.483-.176 2.397a.68.68 0 0 1-.229.34.54.54 0 0 1-.322.105.773.773 0 0 1-.363-.1 1.186 1.186 0 0 1-.34-.275c.023-.82-.014-1.549-.112-2.185-.097-.637-.224-1.143-.38-1.518-.157-.375-.325-.607-.504-.697-.18-.09-.34 0-.48.27-.141.269-.245.734-.311 1.394-.067.66-.065 1.549.006 2.666zM9.072 308.246c-.031-.023-.11-.04-.234-.053l-.428-.04a4.324 4.324 0 0 1-.486-.077 1.401 1.401 0 0 1-.416-.152.421.421 0 0 1-.211-.264c-.027-.11.017-.25.135-.422a.566.566 0 0 1 .222-.217c.094-.05.196-.087.305-.11.11-.024.22-.036.334-.036.113 0 .22.008.322.023-.133-.89-.15-1.638-.053-2.244.098-.605.268-1.093.51-1.465.242-.37.535-.638.88-.802.343-.164.689-.242 1.036-.235.348.008.678.086.99.235.313.148.563.343.75.586a.32.32 0 0 1 .13.328.752.752 0 0 1-.176.363.745.745 0 0 1-.334.229c-.13.043-.244.01-.346-.1-.32-.367-.613-.578-.879-.633a.823.823 0 0 0-.697.147c-.2.152-.365.382-.498.691a4.296 4.296 0 0 0-.316 2.04c.03.347.105.638.222.872l1.828-.012c.125.079.22.182.287.311.067.129.106.258.117.387a.822.822 0 0 1-.035.345c-.035.102-.092.168-.17.2l-1.605.082c.015.07.055.197.117.38.063.184.129.393.2.627.07.235.132.483.187.745.054.261.082.51.082.744a.613.613 0 0 1-.287.334.849.849 0 0 1-.393.1.748.748 0 0 1-.38-.106.555.555 0 0 1-.253-.305l-.457-2.496zm5.707 2.145c.055.195.047.345-.023.45a.442.442 0 0 1-.305.194.92.92 0 0 1-.44-.04 1.012 1.012 0 0 1-.415-.253l-.399-7.945c-.054-.14-.056-.264-.006-.37a.567.567 0 0 1 .223-.245.839.839 0 0 1 .328-.112.608.608 0 0 1 .328.041.45.45 0 0 1 .223.211c.05.098.053.229.006.393l.48 7.676zm5.742-.645c-.14.266-.328.486-.562.662a2.494 2.494 0 0 1-.773.393 3.013 3.013 0 0 1-1.781-.023 3.216 3.216 0 0 1-.815-.4 2.4 2.4 0 0 1-.639-.632 4.93 4.93 0 0 1-.574-1.582 4.042 4.042 0 0 1 .012-1.594c.109-.5.332-.937.668-1.312s.804-.625 1.406-.75c.57-.04 1.021.03 1.353.205.332.176.559.414.68.715.121.3.145.634.07 1.002a2.865 2.865 0 0 1-.474 1.072 3.631 3.631 0 0 1-.961.926c-.399.27-.86.455-1.383.556.156.258.334.444.533.557.2.113.408.182.627.205.219.024.436.01.65-.04.215-.052.415-.114.598-.188a9.4 9.4 0 0 0 .487-.211c.14-.067.242-.112.304-.135.282-.086.473-.086.574 0 .102.086.102.277 0 .574zm-3.105-4.183a2.61 2.61 0 0 0-.832 1.054 2.371 2.371 0 0 0-.17.633c-.027.219-.021.434.018.645.328-.047.623-.149.884-.305.262-.156.48-.334.657-.533.175-.2.302-.405.38-.616.079-.21.1-.394.065-.55a.473.473 0 0 0-.299-.34c-.164-.07-.398-.067-.703.012zm3.855 5.296a.685.685 0 0 1-.234-.263c-.039-.09-.031-.213.024-.37.14-.14.318-.345.533-.615.215-.27.424-.55.627-.843.203-.293.386-.58.55-.862.165-.281.266-.504.305-.668l-1.547-1.84a.541.541 0 0 1-.064-.439.753.753 0 0 1 .234-.363.974.974 0 0 1 .387-.205.552.552 0 0 1 .416.046c.094.047.213.16.357.34.145.18.295.366.452.557.156.191.306.357.45.498.145.14.264.195.358.164a1.93 1.93 0 0 0 .223-.252c.101-.129.219-.271.351-.428.133-.156.276-.312.428-.468a2.23 2.23 0 0 1 .457-.37.802.802 0 0 1 .428-.128c.133.004.246.087.34.252a.835.835 0 0 1 .029.574c-.059.187-.15.367-.275.539-.125.172-.27.338-.434.498-.164.16-.314.314-.451.463a2.83 2.83 0 0 0-.328.422c-.082.132-.104.254-.065.363.14.203.3.402.475.598.176.195.35.39.521.586.172.195.334.394.487.597.152.203.279.418.38.645a.498.498 0 0 1 .012.457.69.69 0 0 1-.316.316.827.827 0 0 1-.457.082.573.573 0 0 1-.41-.234l-1.594-1.945c-.078.054-.172.17-.281.345-.11.176-.233.37-.37.58-.136.211-.283.426-.439.645a3.31 3.31 0 0 1-.492.556 1.295 1.295 0 0 1-.527.3c-.18.046-.36.003-.54-.13zm6.399-3.023c-.234-.164-.35-.334-.346-.51.004-.176.143-.306.416-.392l4.078-.024c.11.04.184.11.223.211.04.102.041.207.006.317a.715.715 0 0 1-.205.304.676.676 0 0 1-.41.164l-3.762-.07zm6.293 2.133a.887.887 0 0 1 .053.433.917.917 0 0 1-.135.375.791.791 0 0 1-.264.258.546.546 0 0 1-.322.082.51.51 0 0 1-.31-.146c-.098-.09-.174-.237-.23-.44a2.514 2.514 0 0 1-.04-.404 27.989 27.989 0 0 1-.03-.756l-.023-.932a267.603 267.603 0 0 0-.047-1.687 2.615 2.615 0 0 0-.035-.416c-.055-.383-.059-.693-.012-.932.047-.238.12-.418.217-.539a.486.486 0 0 1 .334-.199.487.487 0 0 1 .346.1c.105.078.19.197.252.357.062.16.082.35.058.568l.188 4.278zm-.844-6.235c-.172-.132-.275-.279-.31-.44a.654.654 0 0 1 .035-.427.527.527 0 0 1 .281-.27.49.49 0 0 1 .416.024.594.594 0 0 1 .316.399.81.81 0 0 1-.023.474.567.567 0 0 1-.275.317c-.13.066-.276.04-.44-.077zm3.844 2.848c-.04.016-.055.105-.047.27.008.164.025.37.053.62.027.25.06.532.1.844.038.313.066.621.081.926.016.305.014.592-.005.862-.02.269-.069.49-.147.662-.078.172-.193.279-.346.322-.152.043-.357-.006-.615-.147l-.281-4.359a2.457 2.457 0 0 0-.422-.047c-.11 0-.213.006-.31.018l-.323.035c-.117.012-.27.01-.457-.006a.574.574 0 0 1-.27-.328c-.038-.133-.005-.264.1-.393.106-.129.293-.238.563-.328.27-.09.642-.135 1.119-.135.055-.03.07-.15.047-.357a29.738 29.738 0 0 0-.094-.732c-.04-.282-.068-.575-.088-.88-.02-.304.002-.566.065-.784.062-.22.181-.368.357-.446.176-.078.44-.035.791.13a134.035 134.035 0 0 0 .047 1.845 18.292 18.292 0 0 0 .047.773c.008.082.015.157.023.223s.016.146.024.24c.164.008.314.006.45-.006.138-.011.27-.023.4-.035.128-.012.26-.021.398-.03.136-.007.287-.007.45 0 .173.04.298.11.376.212a.5.5 0 0 1 .111.328.537.537 0 0 1-.14.334.84.84 0 0 1-.358.24l-1.7.129zm7.441 3.164c-.14.266-.328.486-.562.662a2.494 2.494 0 0 1-.774.393 3.013 3.013 0 0 1-1.781-.023 3.216 3.216 0 0 1-.814-.4 2.4 2.4 0 0 1-.639-.632 4.93 4.93 0 0 1-.574-1.582 4.042 4.042 0 0 1 .011-1.594c.11-.5.333-.937.668-1.312.336-.375.805-.625 1.407-.75.57-.04 1.021.03 1.353.205.332.176.559.414.68.715.121.3.144.634.07 1.002a2.865 2.865 0 0 1-.474 1.072 3.631 3.631 0 0 1-.961.926c-.399.27-.86.455-1.383.556.156.258.334.444.533.557.2.113.408.182.627.205.219.024.436.01.65-.04.215-.052.414-.114.598-.188a9.4 9.4 0 0 0 .486-.211c.141-.067.243-.112.305-.135.281-.086.473-.086.574 0 .102.086.102.277 0 .574zm-3.105-4.183a2.61 2.61 0 0 0-.832 1.054 2.371 2.371 0 0 0-.17.633c-.027.219-.022.434.017.645.329-.047.623-.149.885-.305s.48-.334.656-.533c.176-.2.303-.405.381-.616.078-.21.1-.394.065-.55a.473.473 0 0 0-.299-.34c-.164-.07-.398-.067-.703.012zm5.344 4.98a.55.55 0 0 1-.27.387.948.948 0 0 1-.908 0 .574.574 0 0 1-.287-.328 46.967 46.967 0 0 1-.03-1.407 71.144 71.144 0 0 0-.029-1.576 25.858 25.858 0 0 0-.088-1.517 7.536 7.536 0 0 0-.193-1.22.726.726 0 0 1 .082-.439.57.57 0 0 1 .275-.252.5.5 0 0 1 .375.006c.137.051.26.158.37.323l.152 1.125c.258-.422.55-.711.879-.868.328-.156.638-.195.931-.117.293.078.55.266.768.563.219.297.351.687.398 1.172.016-.133.09-.297.223-.493.133-.195.303-.392.51-.591.207-.2.437-.38.691-.54.254-.16.51-.273.768-.34.258-.066.508-.066.75 0 .242.067.453.23.633.487.093.148.173.355.24.621.066.266.12.56.164.885.043.324.082.664.117 1.02l.1 1.025c.03.328.066.633.105.914.04.281.09.508.152.68a.98.98 0 0 1-.11.603.762.762 0 0 1-.358.34.526.526 0 0 1-.434-.012c-.148-.066-.265-.213-.351-.44.03-1.187-.014-2.14-.135-2.859-.121-.718-.28-1.23-.475-1.535-.195-.305-.412-.42-.65-.346-.238.075-.457.311-.656.71-.2.398-.366.939-.498 1.622-.133.684-.192 1.483-.176 2.397a.68.68 0 0 1-.229.34.54.54 0 0 1-.322.105.773.773 0 0 1-.363-.1 1.186 1.186 0 0 1-.34-.275c.023-.82-.014-1.549-.111-2.185-.098-.637-.225-1.143-.381-1.518-.157-.375-.325-.607-.504-.697-.18-.09-.34 0-.48.27-.141.269-.245.734-.311 1.394-.067.66-.065 1.549.006 2.666z"/><path stroke="#9013FE" stroke-dasharray="4" stroke-width="2" d="M29.5 58.5h149v89h-149v-89z"/><rect width="48" height="48" x="41.5" y="68.5" fill="#D8D8D8" fill-rule="nonzero" stroke="#979797" stroke-width="2" rx="8"/><rect width="48" height="48" x="116.5" y="68.5" fill="#D8D8D8" fill-opacity=".5" fill-rule="nonzero" stroke="#979797" stroke-opacity=".5" stroke-width="2" rx="8"/><path fill="#D8D8D8" fill-rule="nonzero" stroke="#979797" d="M31 132h34v14H31z"/><path fill="#D8D8D8" fill-opacity=".5" fill-rule="nonzero" stroke="#979797" stroke-opacity=".5" d="M65 132h34v14H65z"/><path fill="#F5A623" fill-rule="nonzero" d="M153.34 131.976l2.525-8.825-.848.202 6.23 6.74a.5.5 0 1 0 .735-.679l-6.23-6.74-.604-.653-.245.855-2.524 8.825a.5.5 0 1 0 .961.275zm12.646 33.408l-8.268-34.728-1.732-7.272a.5.5 0 1 0-.972.232l1.731 7.272 8.269 34.728a.5.5 0 1 0 .972-.232zM108.636 135.982l-1.981-8.963-.65.582 8.688 2.961a.5.5 0 1 0 .323-.947l-8.688-2.96-.841-.288.191.868 1.981 8.963a.5.5 0 1 0 .977-.216zm32.237 29.185l-29.028-32.443-4.972-5.557a.5.5 0 0 0-.746.666l4.973 5.558 29.027 32.442a.5.5 0 0 0 .746-.666z"/></g></svg>
