<svg viewBox="0 0 474 326" xmlns="http://www.w3.org/2000/svg"><g transform="translate(3 3)" fill-rule="nonzero" fill="none"><path stroke="#979797" stroke-width="3" d="M-1.5-1.5h203v323h-203z"/><rect stroke="#979797" stroke-width="2" fill="#D8D8D8" x="39" y="60" width="48" height="48" rx="8"/><rect stroke-opacity=".5" stroke="#979797" stroke-width="2" fill-opacity=".5" fill="#D8D8D8" x="114" y="60" width="48" height="48" rx="8"/><rect stroke="#979797" stroke-width="2" fill="#D8D8D8" x="39" y="189" width="48" height="48" rx="8"/><path fill="#D8D8D8" d="M0 300h200v20H0z"/><rect stroke-opacity=".5" stroke="#979797" stroke-width="2" fill-opacity=".5" fill="#D8D8D8" x="114" y="189" width="48" height="48" rx="8"/><path stroke="#979797" fill="#D8D8D8" d="M28.5 123.5h34v14h-34z"/><path stroke-opacity=".5" stroke="#979797" fill-opacity=".5" fill="#D8D8D8" d="M62.5 123.5h34v14h-34z"/><path stroke="#979797" stroke-width="3" d="M266.5-1.5h203v323h-203z"/><rect stroke-opacity=".5" stroke="#979797" stroke-width="2" fill-opacity=".5" fill="#D8D8D8" x="307" y="60" width="48" height="48" rx="8"/><rect stroke="#979797" stroke-width="2" fill="#D8D8D8" x="382" y="60" width="48" height="48" rx="8"/><rect stroke="#979797" stroke-width="2" fill="#D8D8D8" x="307" y="189" width="48" height="48" rx="8"/><path fill="#D8D8D8" d="M268 300h200v20H268z"/><rect stroke-opacity=".5" stroke="#979797" stroke-width="2" fill-opacity=".5" fill="#D8D8D8" x="382" y="189" width="48" height="48" rx="8"/></g></svg>
