<svg xmlns="http://www.w3.org/2000/svg" viewBox="0 0 318 150" xmlns:xlink="http://www.w3.org/1999/xlink"><defs><path id="a" d="M0 0h122v150H0z"/><path id="b" d="M.757 0h25.486v150H.757z"/><path id="c" d="M0 0h142v150H0z"/><path id="d" d="M1.54 0h31.03v150H1.54z"/></defs><g fill="none" fill-rule="evenodd"><g transform="translate(196)"><use fill="#FFEDCE" xlink:href="#a"/><path stroke="#979797" d="M.5.5h121v149H.5z"/></g><text fill="#222" font-family="PingFangSC-Regular, PingFang SC" font-size="32" transform="translate(196)"><tspan x="29.42" y="85">东汉</tspan></text><text fill="#222" font-family="MagneticPro-Medium, Magnetic Pro" font-size="14" font-weight="400" transform="translate(196)"><tspan x="5" y="16">25</tspan></text><text fill="#222" font-family="MagneticPro-Medium, Magnetic Pro" font-size="14" font-weight="400" transform="translate(196)"><tspan x="93" y="33">220</tspan></text><text fill="#222" font-family="MagneticPro-Medium, Magnetic Pro" font-size="14" font-weight="400" transform="translate(196)"><tspan x="95" y="79">221</tspan></text><text fill="#222" font-family="MagneticPro-Medium, Magnetic Pro" font-size="14" font-weight="400" transform="translate(196)"><tspan x="95" y="129">222</tspan></text><g transform="translate(171)"><use fill="#E9FFD3" xlink:href="#b"/><path stroke="#979797" d="M1.257.5h24.486v149H1.257z"/></g><text fill="#222" font-family="PingFangSC-Regular, PingFang SC" font-size="24" transform="translate(171)"><tspan x="2" y="82">新</tspan></text><text fill="#222" font-family="MagneticPro-Medium, Magnetic Pro" font-size="14" font-weight="400" transform="translate(171)"><tspan x="10" y="16">9</tspan></text><text fill="#222" font-family="MagneticPro-Medium, Magnetic Pro" font-size="14" font-weight="400" transform="translate(171)"><tspan x="6" y="144">23</tspan></text><g transform="translate(31)"><use fill="#FFEDCE" xlink:href="#c"/><path stroke="#979797" d="M.5.5h141v149H.5z"/></g><text fill="#222" font-family="PingFangSC-Regular, PingFang SC" font-size="32" transform="translate(31)"><tspan x="39.021" y="85">西汉</tspan></text><use fill="#C3EEDF" xlink:href="#d"/><path stroke="#979797" d="M2.04.5h30.03v149H2.04z"/><text fill="#222" font-family="PingFangSC-Regular, PingFang SC" font-size="30"><tspan x="2" y="84">秦</tspan></text><text fill="#222" font-family="MagneticPro-Medium, Magnetic Pro" font-size="14" font-weight="400"><tspan x="2" y="16">-221</tspan></text><text fill="#222" font-family="MagneticPro-Medium, Magnetic Pro" font-size="14" font-weight="400"><tspan x="0" y="144">-206</tspan></text></g></svg>
