<svg id="cssconfasia" xmlns="http://www.w3.org/2000/svg" viewBox="0 0 301.2 301.2">
  <style>
    .st0{fill:#FDCD08;} .st1{fill:#C3952D;} .st2{fill:#DFAE26;} .st3{fill:#C5962C;} .st4{fill:#FFFFFF;}
  </style>
  <title>
    cssconfasia
  </title>
  <g id="Page-1">
    <g id="cssconfasia_1_">
      <path id="bg" class="st0" d="M0 0h301.2v301.2H0V0z"/>
      <g id="asia">
        <path id="Shape" class="st1" d="M66.8 282.1c1.3 0 2 .8 2 2.3 0 .6-.1 1.1-.4 1.7-.6 1.6-1.6 2.4-3 2.4-1.3 0-1.9-.8-1.9-2.4 0-.9.3-1.8 1-2.7.6-.8 1.4-1.3 2.3-1.3z"/>
        <path id="Shape_1_" class="st1" d="M94.9 266.4c.9-1.7 1.7-3.1 2.3-3.9.4-.5.7-.7 1-.7.5 0 .8.5 1.2 1.5.2.7.3 1.4.3 2 0 1.3-.3 2.6-1 4-1.5 2.6-3.6 6.2-6.2 11.1-.8 1.7-1.2 3.2-1.2 4.3 0 1.3.6 2 1.7 1.9 1.2-.1 2.7-1 4.4-2.9 1.5-1.6 2.8-3.6 4-6 .4-.7.7-.8 1-.1.4.9.2 2.3-.6 4-.8 1.9-2.2 3.5-3.9 4.8-1.8 1.5-3.6 2.1-5.3 2-3.5-.2-5.2-2-5.2-5.2-2.6 3.3-5.3 5-8 5-1.7 0-3-.6-3.9-1.7-.9-1.2-1.4-2.7-1.4-4.5 0-3.1 1.1-6.3 3.4-9.6 2.4-3.6 4.9-6.2 7.5-8.1 2.2-1.6 4.2-2.4 6-2.4 1.3 0 2.3.4 3 1.3.7.8 1 1.9.9 3.2zm-5.6 10c2.5-4.4 3.8-7.6 3.8-9.6 0-1-.4-1.5-1-1.6-1.1-.1-2.6.8-4.5 2.6-2.1 1.9-4 4.3-5.7 7.1-2.1 3.4-3.2 6.4-3.2 8.9 0 1.5.5 2.3 1.5 2.3 2.3 0 5.4-3.2 9.1-9.7z"/>
        <path id="Shape_2_" class="st1" d="M102.8 276.8c3.3-4.5 5.7-8.2 7.4-11 .3-2.1 1-3.8 2.3-4.9.9-.8 1.8-1.3 2.6-1.3s1.2.4 1.2 1.1c0 .4-.5 1.4-1.6 3.3 0 .8-.1 1.7-.1 2.7 0 1.5.1 3.7.4 6.7.2 2.7.3 4.7.3 6-.2 3.3-1.1 5.5-2.9 6.7 3.6-1.3 6.4-4.3 8.6-8.9.2-.4.4-.5.6-.4.3 0 .4.1.6.4.4.9.1 2.4-.9 4.2-2.5 4.5-6.3 6.8-11.3 7.1-4.5.2-7.6-1.4-9.5-4.8-.7-1.2-1-2.6-1-4.2 0-2.1.6-3.7 1.9-4.8.3-.2.5-.3.7-.3.4 0 .6.4.6 1 0 .4 0 .9.1 1.4zm7.2-7c-1.5 2.7-3.7 6.2-6.7 10.4 1 3.9 2.4 5.8 4.3 5.8 1.8 0 2.8-2.6 2.8-7.9 0-.7-.2-3.5-.4-8.3z"/>
        <path id="Shape_3_" class="st1" d="M124 288.2c-3.4 0-5.1-1.7-5.1-5.2 0-1.2.3-2.6.8-4.2.8-2.2 2-5 3.8-8.3 1.7-3.1 3.1-5.5 4.4-7.3.4-.5.7-.7 1-.7.5 0 .8.5 1.2 1.4.2.7.3 1.3.3 1.9 0 1.3-.3 2.6-1 4-1.4 2.4-3.2 5.8-5.4 10.4-.7 1.7-1 3-1 4.1 0 1.4.6 2 1.7 2 1.4-.1 2.9-1 4.5-2.8 1.5-1.6 2.8-3.6 3.8-5.9.4-.6.7-.6 1 0 .5 1 .4 2.3-.4 4-.9 2-2.3 3.6-4.1 4.8-1.8 1.2-3.6 1.8-5.5 1.8zm10.5-30.3c.3.6.4 1.2.4 1.9 0 2-.7 2.9-2.2 2.9-.9 0-1.7-.5-2.3-1.5-.4-.7-.6-1.5-.6-2.2 0-.7.2-1.4.6-2 .4-.7.9-1 1.5-1 1.1-.1 1.9.6 2.6 1.9z"/>
        <path id="Shape_4_" class="st1" d="M153.2 266.4c.9-1.7 1.7-3.1 2.3-3.9.4-.5.7-.7 1-.7.5 0 .8.5 1.2 1.5.2.7.3 1.4.3 2 0 1.3-.3 2.6-1 4-1.5 2.6-3.6 6.2-6.2 11.1-.8 1.7-1.2 3.2-1.2 4.3 0 1.3.6 2 1.7 1.9 1.2-.1 2.7-1 4.4-2.9 1.5-1.6 2.8-3.6 4-6 .4-.7.7-.8 1-.1.4.9.2 2.3-.6 4-.8 1.9-2.2 3.5-3.9 4.8-1.8 1.5-3.6 2.1-5.3 2-3.5-.2-5.2-2-5.2-5.2-2.6 3.3-5.3 5-8 5-1.7 0-3-.6-3.9-1.7-.9-1.2-1.4-2.7-1.4-4.5 0-3.1 1.1-6.3 3.4-9.6 2.4-3.6 4.9-6.2 7.5-8.1 2.2-1.6 4.2-2.4 6-2.4 1.3 0 2.3.4 3 1.3.7.8 1 1.9.9 3.2zm-5.5 10c2.5-4.4 3.8-7.6 3.8-9.6 0-1-.4-1.5-1-1.6-1.1-.1-2.6.8-4.5 2.6-2.1 1.9-4 4.3-5.7 7.1-2.1 3.4-3.2 6.4-3.2 8.9 0 1.5.5 2.3 1.5 2.3 2.2 0 5.3-3.2 9.1-9.7z"/>
      </g>
      <g id="css">
        <g id="letter_c">
          <path id="Shape_5_" class="st2" d="M107.6 163.2v8.3c0 14.6-3.4 21.9-12.5 21.9l-14.9.7c-8.3 0-11.3-7.3-11.3-20.5V96.9c0-13.2 10.3-26.3 18.6-29.5h6.3c8.8 0 14.5 4.3 14.5 18.9v14.6l-11.7 3.2V91.2c0-4.9-1-6.7-4.3-5.6l-2.1.7c-2.8 1-8.4 3.8-8.4 8.4v77c0 4.7 5.6 7 8.4 6.8l2.7-.1c2.9-.1 2.3-2.6 2.3-7.5l2-8.1 10.4.4z"/>
          <path id="Shape_6_" class="st3" d="M85.2 103.3l11.4.7 11.7-3.2-11.1-1.1-12 3.6z"/>
          <path id="Shape_7_" class="st4" d="M97.1 163v8.4c0 14.8-4.9 22.4-14.3 22.6l-7.2.2c-8.5.2-12.5-6.4-12.5-19.7V96.7c0-13.3 4.1-21.7 12.5-25.2l7.2-3c9.4-3.9 14.3 1.5 14.3 16.4v14.8l-12 3.6v-13c0-4.9-1.7-6.8-5.1-5.5l-2.2.8c-2.9 1.1-4.3 4-4.3 8.7v78c0 4.8 1.4 7 4.3 6.8l2.8-.2c3-.2 4.5-2.8 4.5-7.7v-6.8l12-1.4z"/>
        </g>
        <g id="letter_s1">
          <path id="Shape_8_" class="st2" d="M150 88.9V76.3c0-5.7-2.1-7.8-6.4-6.4l-2.2.8c-4 1.3-6 4.8-6 10.3v22.8c0 2.6.4 4.2 1.2 4.9.8.7 2 1.6 3.8 2.6l13.9 6.7c3.2 1.7 5.5 3 6.8 4.1 1.4 1.1 2.4 2.4 3.2 4.2.8 1.7 1.2 5.2 1.2 10.5v31.8c0 16.8-6.2 24.6-18.4 24.6H132c-10.8 0-9.7-7.6-9.7-23.9l2-8.7 11.2.9v7.5c0 5.4 2 8 6.2 7.8l2.5-.1c3.8-.2 5.8-3.1 5.8-8.6v-24.3c0-2.7-.4-4.4-1.2-5.2-.8-.8-2.1-1.8-4-2.9l-13.2-7.6c-2.8-1.5-4.8-2.8-6-3.9-1.2-1.1-2.1-2.7-2.6-4.8-.5-2-.8-4.8-.8-8.2V83.8c0-15.1 4-31.3 14.8-35.5l6.8-1.4c12.7 0 21.6 6.1 21.6 23.1v14.5L150 88.9z"/>
          <path id="Shape_9_" class="st3" d="M139.2 86.4l10.8 2.4 15.5-4.4-10.3-3-16 5z"/>
          <path id="Shape_10_" class="st4" d="M139.2 86.4V73.7c0-5.8-2.2-7.9-6.6-6.3l-2.3.8c-4.1 1.5-6.1 5-6.1 10.6V102c0 2.6.4 4.2 1.2 4.9.8.7 2.1 1.6 3.9 2.5l14.3 6.4c3.3 1.6 5.6 2.9 7.1 3.9 1.4 1 2.5 2.4 3.3 4.1s1.2 5.3 1.2 10.6v32.3c0 17-6.6 25.7-19.1 26l-9 .2c-11.1.3-16.4-7.8-16.4-24.3V162l13.6-1.6v7.6c0 5.4 2.1 8 6.4 7.7l2.6-.2c4-.3 6-3.2 6-8.9v-24.7c0-2.7-.4-4.4-1.3-5.2s-2.2-1.7-4.1-2.9l-13.6-7.3c-2.8-1.4-4.9-2.7-6.1-3.8-1.2-1.1-2.1-2.7-2.7-4.7-.5-2-.8-4.8-.8-8.3V82.1c0-15.3 5.3-25.2 16.4-29.7l9.2-3.8c12.4-5.1 19 .8 19 18.1v14.8l-16.1 4.9z"/>
        </g>
        <g id="letter_s2">
          <path id="Shape_11_" class="st2" d="M216.3 70.4V55.6c0-6.7-3-9.1-8.8-7.1l-3.1 1c-5.5 1.9-8.2 6-8.2 12.4v25.9c0 3 .5 4.9 1.6 5.7 1.1.8 2.8 1.8 5.2 2.9l19.2 7.3c4.4 1.8 7.6 3.3 9.6 4.5 1.9 1.2 3.4 3.5 4.5 5.5s1.6 6.2 1.6 12.4v37.7c0 19.9-9.2 27.6-26.1 27.6l-15.3-.2c-14.7 0-18.2-7.2-18.2-26l8.6-12 9.3 2.7v8.7c0 6.3 2.8 9.3 8.6 9l3.5-.2c5.3-.2 8-3.6 8-10.2v-28.6c0-3.1-.6-5.2-1.7-6.1-1.1-.9-3-2-5.5-3.3l-18.1-8.4c-3.8-1.6-6.5-3.1-8.1-4.4-1.6-1.2-2.8-3.1-3.5-5.4-.7-2.4-1.1-5.5-1.1-9.5V66.1c0-17.6 19.3-41.8 34-47.5l3.8-.3c18.9 0 21.7 8.5 21.7 28.7v17.2l-21.5 6.2z"/>
          <path id="Shape_12_" class="st3" d="M207.7 65.6l8.6 4.8 21.6-6.1-7.8-5.6-22.4 6.9z"/>
          <path id="Shape_13_" class="st4" d="M207.7 65.6v-15c0-6.8-3.1-9.2-9.1-6.9l-3.2 1.2c-5.7 2.1-8.4 6.4-8.4 12.9v27.1c0 3 .5 4.9 1.6 5.7 1.1.8 2.9 1.7 5.4 2.8l19.9 6.8c4.6 1.7 7.9 3.2 9.9 4.3 2 1.2 3.6 2.7 4.7 4.8 1.1 2 1.7 6.2 1.7 12.6v38.4c0 20.2-9.3 30.6-26.8 31l-12.5.3c-15.2.4-22.4-9-22.4-28.2v-7.8l18.5-2.1v8.9c0 6.4 2.9 9.4 8.9 8.9l3.6-.3c5.5-.4 8.3-3.9 8.3-10.6v-29.1c0-3.2-.6-5.2-1.8-6.1-1.2-.9-3.1-2-5.6-3.2l-18.7-8c-3.9-1.6-6.7-2.9-8.4-4.2-1.7-1.2-2.9-3-3.6-5.4-.7-2.4-1.1-5.6-1.1-9.6v-32c0-17.9 7.2-29.7 22.4-36l12.7-5.2c17.4-7.2 26.6-.7 26.6 19.9v17.6l-22.6 6.5z"/>
        </g>
      </g>
      <g id="conf">
        <path id="Shape_14_" class="st4" d="M87.9 236.5c.3.2.3.4.1.8-.6 1.2-3.7 6.3-11.7 6.3-7.2 0-12.8-5.4-12.8-14s6-13.6 12.7-13.6c5 0 7.4 2.4 8.5 4v-3.4c0-.3.1-.4.4-.4h2.1c.3 0 .5.1.5.4v8.2c0 .3-.2.5-.5.5h-2.4c-.3 0-.4-.2-.4-.5v-.3c0-2-3.2-5.5-8-5.5-4.5 0-9.3 3.4-9.3 10.6 0 7.2 4.8 10.7 9.5 10.7 5.8 0 8.3-3.2 9.2-4.8.2-.3.4-.4.7-.2l1.4 1.2z"/>
        <path id="Shape_15_" class="st4" d="M94.8 229.7c0-8.6 6.3-13.6 13.2-13.6 6.8 0 13.1 5 13.1 13.6 0 8.4-5.7 14-13.1 14s-13.2-5.8-13.2-14zm22.7.1c0-7.2-5.1-10.8-9.6-10.8s-9.6 3.5-9.6 10.8c0 7.1 4.9 10.8 9.6 10.8 4.8-.1 9.6-3.7 9.6-10.8z"/>
        <path id="Shape_16_" class="st4" d="M148.1 243.3c-1.1 0-1.5-.4-1.9-1.2l-10.9-17c-1.1-1.7-1.9-3.2-1.9-3.2h-.1v18.5h2.9c.3 0 .5.1.5.4v1.9c0 .3-.2.4-.5.4h-9.1c-.3 0-.5-.1-.5-.4v-1.9c0-.3.1-.4.5-.4h2.9V219h-2.9c-.3 0-.5-.1-.5-.4v-1.9c0-.3.1-.4.5-.4h5.3c1.1 0 1.5.6 1.9 1.3l10.8 16.8c1.2 1.9 2.1 3.6 2.1 3.6h.1v-18.9h-2.9c-.3 0-.4-.1-.4-.4v-1.9c0-.3.1-.4.4-.4h9.1c.3 0 .4.1.4.4v1.9c0 .3-.1.4-.4.4h-2.9v23.8c0 .3-.2.4-.5.4h-2z"/>
        <path id="Shape_17_" class="st4" d="M161.4 243.3c-.3 0-.5-.1-.5-.4V241c0-.3.1-.4.5-.4h2.9v-21.4h-2.9c-.3 0-.5-.1-.5-.4v-1.9c0-.3.1-.4.5-.4h19.3c.3 0 .5.1.5.4v6.1c0 .3-.2.5-.5.5h-2c-.3 0-.4-.2-.4-.5v-3.7h-10.7v9.3h8.9c.3 0 .5.1.5.4v1.9c0 .3-.2.4-.5.4h-8.9v9.2h4.3c.3 0 .4.1.4.4v1.9c0 .3-.1.4-.4.4h-10.5z"/>
      </g>
    </g>
  </g>
</svg>
