<svg xmlns="http://www.w3.org/2000/svg" viewBox="0 0 1596 321" xmlns:xlink="http://www.w3.org/1999/xlink"><defs><rect id="a" width="146" height="250" rx="15"/><mask id="f" width="146" height="250" x="0" y="0" fill="#fff"><use xlink:href="#a"/></mask><path id="b" d="M6 21h134v206H6z"/><mask id="g" width="134" height="206" x="0" y="0" fill="#fff"><use xlink:href="#b"/></mask><linearGradient id="h" x1="49.994%" x2="49.994%" y1="1.631%" y2="98.543%"><stop stop-color="#FF1B2D" offset="0%"/><stop stop-color="#FF1B2D" offset="30%"/><stop stop-color="#FF1B2D" offset="61%"/><stop stop-color="#A70014" offset="100%"/></linearGradient><linearGradient id="i" x1="50.005%" x2="50.005%" y1=".848%" y2="99.602%"><stop stop-color="#9C0000" offset="0%"/><stop stop-color="#FF4B4B" offset="70%"/><stop stop-color="#FF4B4B" offset="100%"/></linearGradient><path id="c" d="M0 41.998c0-2.76 2.218-5.322 4.938-5.72L245.062 1.163C247.79.765 250 2.678 250 5.44v152.562c0 2.76-2.238 4.998-4.994 4.998H4.994C2.236 163 0 160.76 0 158.002V41.998z"/><mask id="j" width="250" height="162.559" x="0" y="0" fill="#fff"><use xlink:href="#c"/></mask><rect id="d" width="104" height="187" rx="10"/><mask id="k" width="104" height="187" x="0" y="0" fill="#fff"><use xlink:href="#d"/></mask><rect id="e" width="207" height="143" rx="4"/><mask id="l" width="213" height="149" x="-3" y="-3"><path fill="#fff" d="M-3-3h213v149H-3z"/><use xlink:href="#e"/></mask></defs><g fill="none" fill-rule="evenodd"><path stroke="#979797" stroke-width="10" d="M212.875 124h88.06" stroke-linecap="square"/><path fill="#979797" d="M300.63 106l17.256 17.255-17.255 17.256m-88-33.51l-17.25 17.26 17.257 17.258"/><path stroke="#979797" stroke-width="10" d="M503.625 124h88.06" stroke-linecap="square"/><path fill="#979797" d="M591.38 106l17.256 17.255-17.255 17.256m-88-33.51l-17.25 17.26 17.257 17.258"/><path stroke="#979797" stroke-width="10" d="M947.375 132h88.06" stroke-linecap="square"/><path fill="#979797" d="M1035.13 114l17.256 17.255-17.255 17.256m-88-33.51l-17.25 17.26 17.257 17.258"/><path stroke="#979797" stroke-width="10" d="M1245.125 132h88.06" stroke-linecap="square"/><path fill="#979797" d="M1332.88 114l17.256 17.255-17.255 17.256m-88-33.51l-17.25 17.26 17.256 17.257"/><g transform="translate(14)"><use fill="#D8D8D8" stroke="#979797" stroke-width="6" mask="url(#f)" xlink:href="#a"/><use fill="#FFF" stroke="#979797" stroke-width="6" mask="url(#g)" xlink:href="#b"/><g fill-rule="nonzero"><path fill="url(#h)" d="M37.91.566C17.03.566.105 17.55.105 38.5c0 20.345 15.968 36.945 36.014 37.89.6.03 1.19.044 1.79.044 9.685 0 18.51-3.654 25.2-9.655-4.43 2.95-9.616 4.64-15.154 4.64-9.007 0-17.066-4.49-22.49-11.55-4.184-4.95-6.89-12.27-7.074-20.48V37.6c.18-8.205 2.89-15.53 7.066-20.48 5.426-7.065 13.492-11.54 22.5-11.54 5.537 0 10.722 1.697 15.154 4.65C56.457 4.25 47.684.603 38.054.565h-.144z" transform="translate(35 86)"/><path fill="url(#i)" d="M25.464 17.12c3.476-4.105 7.953-6.582 12.852-6.582 11.01 0 19.933 12.524 19.933 27.962 0 15.445-8.93 27.962-19.94 27.962-4.9 0-9.377-2.477-12.846-6.583 5.426 7.06 13.485 11.55 22.492 11.55 5.537 0 10.722-1.7 15.154-4.65 7.74-6.95 12.61-17.04 12.61-28.28 0-11.236-4.87-21.337-12.61-28.28-4.434-2.95-9.61-4.64-15.15-4.64-9.006 0-17.065 4.48-22.49 11.55" transform="translate(35 86)"/></g><circle cx="44" cy="13" r="4" fill="#979797"/><path stroke="#979797" stroke-width="6" d="M103 10v5" stroke-linecap="round"/></g><text fill="#000" font-size="36" font-weight="bold" transform="translate(-1)"><tspan x=".11" y="313">Opera Mini</tspan></text><g stroke="#979797"><g transform="translate(371.75 87)"><path stroke-width="9" d="M29.33 137.002c13.16.01 29.33-13.96 29.33-13.96L29.137 20 0 123s16.172 13.992 29.33 14.002z" stroke-linecap="round"/><path stroke-width="9" d="M15.14 67s5.77 9.12 14.327 9.12c8.56 0 14.326-9.12 14.326-9.12M8.74 93s9.685 11.006 20.55 11.006C40.156 104.006 49.84 93 49.84 93"/><circle cx="29.5" cy="12.5" r="12.5" fill="#979797"/></g><path stroke-width="6" d="M421.75 79s7.484 8.604 7.484 19-7.484 19-7.484 19m13.822-58s15.178 14.854 15.178 38.5-15.178 38.5-15.178 38.5M380.75 79s-8 8.604-8 19 8 19 8 19m-11.822-58S353.75 73.854 353.75 97.5s15.178 38.5 15.178 38.5" stroke-linecap="round"/></g><text fill="#000" font-size="36" font-weight="bold" transform="translate(-20)"><tspan x="280.02" y="313">Mobile Network</tspan></text><g transform="translate(644.5 50)"><use fill="#D8D8D8" stroke="#979797" stroke-width="14" mask="url(#j)" xlink:href="#c"/><path fill="#979797" d="M27 82h20v34H27zm44 0h20v34H71zm44 0h20v34h-20zm44 1h20v34h-20zm44-1h20v34h-20z"/></g><text fill="#000" font-size="36" font-weight="bold" transform="translate(-20)"><tspan x="638.16" y="313">Internet Gateway</tspan></text><g transform="translate(1088.25 38)"><use fill="#D8D8D8" stroke="#979797" stroke-width="12" mask="url(#k)" xlink:href="#d"/><path stroke="#979797" stroke-width="8" d="M23 31h57.01M23 51h57.01M23 70h57.01" stroke-linecap="round"/><g fill-rule="nonzero"><path fill="url(#h)" d="M22.945.346C10.307.346.065 10.713.065 23.5c0 12.418 9.663 22.55 21.796 23.127.37.018.73.027 1.09.027 5.86 0 11.21-2.23 15.26-5.893-2.683 1.81-5.82 2.84-9.173 2.84-5.45 0-10.33-2.735-13.612-7.05-2.53-3.02-4.17-7.49-4.28-12.5v-1.1c.11-5.01 1.75-9.48 4.276-12.5 3.28-4.312 8.16-7.045 13.614-7.045 3.353 0 6.49 1.037 9.174 2.84-4.03-3.65-9.34-5.876-15.17-5.9h-.088z" transform="translate(29 98)"/><path fill="url(#i)" d="M15.412 10.45c2.104-2.506 4.814-4.017 7.78-4.017 6.662 0 12.064 7.644 12.064 17.067 0 9.428-5.402 17.067-12.065 17.067-2.96 0-5.67-1.51-7.77-4.018 3.288 4.31 8.16 7.05 13.617 7.05 3.353 0 6.49-1.04 9.174-2.84 4.68-4.244 7.626-10.406 7.626-17.266 0-6.857-2.945-13.023-7.632-17.26C35.524 4.43 32.388 3.4 29.036 3.4c-5.452 0-10.33 2.737-13.613 7.05" transform="translate(29 98)"/></g></g><text fill="#000" font-size="36" font-weight="bold" transform="translate(-20)"><tspan x="1042.396" y="313">Opera Server</tspan></text><g transform="translate(1386 70)"><use fill="#D8D8D8" xlink:href="#e"/><use stroke="#979797" stroke-width="6" mask="url(#l)" xlink:href="#e"/><circle cx="9" cy="9" r="4" fill="#D0011B"/><circle cx="21" cy="9" r="4" fill="#F8E81C"/><circle cx="34" cy="9" r="4" fill="#7ED321"/><path fill="#FFF" d="M0 18h207v107H0z"/><path stroke="#979797" stroke-width="6" d="M151 87.912S151 67 163 67s12 20.912 12 20.912" stroke-linecap="square"/><path fill="#979797" d="M144 85h39v28h-39z"/></g><text fill="#000" font-size="36" font-weight="bold" transform="translate(-20)"><tspan x="1406.332" y="313">Secure Site</tspan></text></g></svg>
