<?xml version="1.0" standalone="no"?>
<!DOCTYPE svg PUBLIC "-//W3C//DTD SVG 20010904//EN"
 "http://www.w3.org/TR/2001/REC-SVG-20010904/DTD/svg10.dtd">
<svg version="1.0" xmlns="http://www.w3.org/2000/svg"
 width="16.000000pt" height="16.000000pt" viewBox="0 0 16.000000 16.000000"
 preserveAspectRatio="xMidYMid meet">
<metadata>
Created by potrace 1.11, written by Peter Selinger 2001-2013
</metadata>
<g transform="translate(0.000000,16.000000) scale(0.003922,-0.003922)"
fill="#000000" stroke="none">
<path d="M0 2040 l0 -2040 2040 0 2040 0 0 1785 0 1785 -135 0 -135 0 0 125 0
125 -130 0 -130 0 0 130 0 130 -250 0 -250 0 0 -130 0 -130 -1020 0 -1020 0 0
130 0 130 -505 0 -505 0 0 -2040z m2790 635 l0 -125 -250 0 -250 0 0 125 0
125 250 0 250 0 0 -125z m760 -1390 l0 -1025 -1525 0 -1525 0 0 1025 0 1025
1525 0 1525 0 0 -1025z"/>
<path d="M1010 1670 l0 -130 1020 0 1020 0 0 130 0 130 -1020 0 -1020 0 0
-130z"/>
<path d="M1010 1150 l0 -130 1020 0 1020 0 0 130 0 130 -1020 0 -1020 0 0
-130z"/>
<path d="M1010 630 l0 -130 1020 0 1020 0 0 130 0 130 -1020 0 -1020 0 0 -130z"/>
</g>
</svg>
