<svg xmlns="http://www.w3.org/2000/svg" fill="none" viewBox="0 0 381 414"><path fill="#fff" fill-rule="evenodd" stroke="#1D877A" stroke-linecap="square" stroke-width="3" d="M225.17 215.308c.975-.706-16.501-41.93-20.144-44.038-3.643-2.108-84.202-17.767-85.923-16.701-.833.516 6.483 15.982 8.315 21.351 1.949 5.712 6.247 21.601 6.893 21.727 1.254.243 89.884 18.366 90.859 17.661z" clip-rule="evenodd"/><path stroke="#000" stroke-linecap="round" stroke-width="5" d="M223.125 240.977s7.98-1.256 10.73-6.492c2.751-5.235 3.202-16.469 3.202-16.469M154.293 263.621s-5.908 2.292-7.981 4.927c-2.074 2.635-2.869 9.584-2.869 9.584l-8.044 1.311M173.676 267.389s4.62 4.338 5.555 7.558c.935 3.22-.931 9.96-.931 9.96l6.967 4.229"/><path fill="#fff" stroke="#1D877A" stroke-width="3" d="M134.051 198.013l.056-.127c.121.003.264.009.43.02.732.045 1.775.157 3.103.332 2.649.348 6.329.933 10.707 1.686 8.751 1.506 20.226 3.676 31.669 5.941 11.443 2.266 22.842 4.626 31.438 6.512 4.3.944 7.888 1.767 10.427 2.4a67.17 67.17 0 012.941.785l.175.054a38.572 38.572 0 01-.16 1.997c-.184 1.818-.506 4.354-.934 7.382-.856 6.052-2.132 14.016-3.559 22.019-1.428 8.007-3.004 16.03-4.459 22.206-.729 3.092-1.421 5.692-2.042 7.585-.311.95-.593 1.686-.839 2.204a4.658 4.658 0 01-.28.519c-.182.03-.457.054-.841.064-.769.02-1.835-.022-3.18-.127-2.682-.209-6.339-.656-10.663-1.285-8.639-1.257-19.847-3.223-31.046-5.4-11.198-2.177-22.365-4.559-30.922-6.645-4.281-1.044-7.888-2.009-10.511-2.831-1.315-.413-2.353-.78-3.095-1.095a7.579 7.579 0 01-.825-.397 3.064 3.064 0 01-.096-.059 3.621 3.621 0 01-.109-.61c-.062-.561-.078-1.337-.041-2.326.074-1.971.352-4.618.79-7.737.874-6.229 2.364-14.2 4.027-22.115 1.663-7.912 3.495-15.741 5.049-21.679.778-2.972 1.481-5.452 2.056-7.227.288-.891.535-1.575.734-2.046zm.246-.509a.143.143 0 01.016-.023.13.13 0 01-.016.023z"/><path stroke="#000" stroke-linecap="round" stroke-width="4" d="M161.831 230.081l-.859 4.418M186.872 234.949l-.858 4.417"/><path fill="#fff" fill-rule="evenodd" stroke="#1D877A" stroke-linecap="square" stroke-width="3" d="M118.815 156.184c-2.324.505-12.704 65.355-12.704 65.355s13.879 40.881 15.109 39.67c1.23-1.212 2.316-11.914 5.757-29.62 3.442-17.706 7.519-33.734 7.519-33.734s-13.357-42.176-15.681-41.671z" clip-rule="evenodd"/><path stroke="#1D877A" stroke-linecap="square" stroke-width="3" d="M126.701 174.91l88.864 17.273"/><path fill="#fff" fill-rule="evenodd" stroke="#000" stroke-width="3" d="M170.069 254.548c3.354.652 6.48-.912 6.981-3.495.502-2.582-1.81-5.203-5.164-5.855-3.354-.652-6.479.913-6.981 3.495-.502 2.582 1.81 5.203 5.164 5.855z" clip-rule="evenodd"/><path stroke="#000" stroke-linecap="round" stroke-width="5" d="M117.887 214.311s-7.525-4.593-10.192-10.161-7.805-15.4-7.805-15.4"/><g stroke="#000" stroke-width="6"><path stroke-linecap="round" d="M138.526 135.91l-29.115 19.41 6.834 27.049M191.309 136.204l29.115 19.41-6.835 27.049"/><path fill="#fff" d="M139.23 100.47h51.373v35.309H139.23z"/><path stroke-linecap="square" d="M164.344 50.998v44.81"/><path fill="#fff" fill-rule="evenodd" d="M164.917 50.59c26.142 0 47.333-21.192 47.333-47.333h-94.666c0 26.141 21.192 47.333 47.333 47.333z" clip-rule="evenodd"/></g><g><path fill="#fff" fill-rule="evenodd" stroke="#1D877A" stroke-linecap="square" stroke-width="3" d="M364.755 330.719c.823-.879-24.198-38.011-28.176-39.385-3.978-1.374-86.045-1.374-87.531 0-.72.666 9.413 14.451 12.236 19.372 3.003 5.235 10.253 20.013 10.912 20.013 1.277 0 91.737.878 92.559 0z" clip-rule="evenodd"/><path stroke="#000" stroke-linecap="round" stroke-width="5" d="M367.645 356.306s7.594-2.755 9.295-8.419c1.701-5.665 0-16.778 0-16.778M304.399 391.668s-5.362 3.377-6.895 6.359c-1.532 2.983-.986 9.955-.986 9.955l-7.646 2.823M324.145 391.668s5.362 3.377 6.895 6.359c1.532 2.983.986 9.955.986 9.955l7.646 2.823"/><path fill="#fff" stroke="#1D877A" stroke-width="3" d="M272.011 331.128l.03-.136c.12-.02.261-.041.426-.062.727-.095 1.773-.184 3.11-.266 2.666-.164 6.39-.292 10.832-.388 8.877-.191 20.555-.251 32.221-.211 11.664.041 23.304.183 32.102.394 4.401.106 8.081.229 10.693.366 1.31.068 2.332.139 3.038.21l.182.019c.07.48.146 1.147.223 1.991.167 1.82.335 4.37.492 7.424.314 6.104.582 14.166.708 22.295.126 8.131.11 16.308-.14 22.648-.126 3.175-.309 5.858-.557 7.835-.125.992-.261 1.768-.404 2.324a4.34 4.34 0 01-.176.563 6.44 6.44 0 01-.813.223c-.75.166-1.805.329-3.145.482-2.673.307-6.348.566-10.712.773-8.721.415-20.098.623-31.506.623-11.408 0-22.824-.208-31.622-.623-4.402-.207-8.127-.466-10.859-.773-1.369-.154-2.458-.317-3.247-.484a7.492 7.492 0 01-.885-.233 2.952 2.952 0 01-.106-.039 3.58 3.58 0 01-.223-.578c-.168-.539-.332-1.297-.484-2.275-.303-1.949-.535-4.6-.701-7.746-.33-6.281-.389-14.39-.266-22.477.122-8.084.426-16.118.819-22.244.196-3.066.414-5.635.639-7.486.113-.93.225-1.649.331-2.149zm.144-.547a.139.139 0 01.011-.025.104.104 0 01-.011.025z"/><path stroke="#000" stroke-linecap="round" stroke-width="4" d="M307.239 373.355s7.227 4.647 11.085 4.647c3.857 0 11.085-4.647 11.085-4.647M305.399 356.306v4.5M330.909 356.306v4.5"/><path fill="#fff" fill-rule="evenodd" stroke="#1D877A" stroke-linecap="square" stroke-width="3" d="M249.073 292.975c-2.184.939 0 66.578 0 66.578s21.425 37.482 22.401 36.058c.976-1.424 0-12.137 0-30.174 0-18.038.943-34.549.943-34.549s-21.159-38.853-23.344-37.913z" clip-rule="evenodd"/><path stroke="#1D877A" stroke-linecap="square" stroke-width="3" d="M260.388 309.852h90.527"/><path stroke="#000" stroke-linecap="round" stroke-width="5" d="M259.253 350.211s-8.263-3.073-11.944-8.03c-3.68-4.957-10.6-13.628-10.6-13.628"/></g><g><path fill="#fff" fill-rule="evenodd" stroke="#1D877A" stroke-linecap="square" stroke-width="3" d="M131.085 330.719c.823-.879-24.198-38.011-28.176-39.385-3.978-1.374-86.045-1.374-87.531 0-.72.666 9.413 14.451 12.236 19.372 3.003 5.235 10.253 20.013 10.912 20.013 1.277 0 91.737.878 92.559 0z" clip-rule="evenodd"/><path stroke="#000" stroke-linecap="round" stroke-width="5" d="M133.975 356.306s7.594-2.755 9.295-8.419c1.701-5.665 0-16.778 0-16.778M70.729 391.668s-5.362 3.377-6.895 6.359c-1.532 2.983-.986 9.955-.986 9.955l-7.646 2.823M90.475 391.668s5.362 3.377 6.895 6.359c1.532 2.983.986 9.955.986 9.955l7.646 2.823"/><path fill="#fff" stroke="#1D877A" stroke-width="3" d="M38.34 331.128l.03-.136c.12-.02.262-.041.427-.062.728-.095 1.773-.184 3.11-.266 2.666-.164 6.39-.292 10.832-.388 8.877-.191 20.556-.251 32.22-.211 11.665.041 23.305.183 32.103.394 4.401.106 8.081.229 10.694.366 1.309.068 2.332.139 3.037.21l.182.019c.071.48.146 1.147.223 1.991.167 1.82.335 4.37.492 7.424.314 6.104.582 14.166.708 22.295.126 8.131.11 16.308-.14 22.648-.126 3.175-.309 5.858-.557 7.835-.124.992-.261 1.768-.403 2.324a4.682 4.682 0 01-.176.563c-.173.064-.438.14-.814.223-.75.166-1.805.329-3.145.482-2.673.307-6.348.566-10.712.773-8.721.415-20.098.623-31.506.623-11.408 0-22.824-.208-31.622-.623-4.402-.207-8.127-.466-10.858-.773-1.37-.154-2.46-.317-3.248-.484a7.462 7.462 0 01-.885-.233 2.399 2.399 0 01-.106-.039 3.627 3.627 0 01-.223-.578c-.168-.539-.332-1.297-.484-2.275-.303-1.949-.535-4.6-.7-7.746-.33-6.281-.39-14.39-.267-22.477.122-8.084.426-16.118.819-22.244.196-3.066.414-5.635.64-7.486.112-.93.224-1.649.33-2.149zm.145-.547a.233.233 0 010 0z"/><path stroke="#000" stroke-linecap="round" stroke-width="4" d="M73.569 373.355s7.227 4.647 11.085 4.647c3.857 0 11.085-4.647 11.085-4.647M71.729 356.306v4.5M97.239 356.306v4.5"/><path fill="#fff" fill-rule="evenodd" stroke="#1D877A" stroke-linecap="square" stroke-width="3" d="M15.403 292.975c-2.184.939 0 66.578 0 66.578s21.425 37.482 22.4 36.058c.977-1.424 0-12.137 0-30.174 0-18.038.944-34.549.944-34.549s-21.16-38.853-23.344-37.913z" clip-rule="evenodd"/><path stroke="#1D877A" stroke-linecap="square" stroke-width="3" d="M26.718 309.852h90.527"/><path stroke="#000" stroke-linecap="round" stroke-width="5" d="M25.583 350.211s-8.263-3.073-11.944-8.03c-3.68-4.957-10.6-13.628-10.6-13.628"/></g></svg>