<svg xmlns="http://www.w3.org/2000/svg" fill="none" viewBox="0 0 467 157"><path fill="#fff" fill-rule="evenodd" stroke="#1D877A" stroke-linecap="square" stroke-width="3" d="M450.794 55.094c.823-.88-24.198-38.01-28.176-39.385-3.978-1.374-86.045-1.374-87.531 0-.72.666 9.413 14.451 12.236 19.372 3.003 5.235 10.253 20.013 10.912 20.013 1.277 0 91.737.878 92.559 0z" clip-rule="evenodd"/><path stroke="#000" stroke-linecap="round" stroke-width="5" d="M453.684 80.681s7.594-2.755 9.295-8.42c1.701-5.663 0-16.777 0-16.777M390.438 116.043s-5.362 3.377-6.895 6.359c-1.532 2.983-.986 9.955-.986 9.955l-7.646 2.823M410.184 116.043s5.362 3.377 6.895 6.359c1.532 2.983.986 9.955.986 9.955l7.646 2.823"/><path fill="#fff" stroke="#1D877A" stroke-width="3" d="M358.05 55.503l.03-.136c.12-.02.261-.04.426-.062.728-.095 1.773-.184 3.11-.266 2.666-.164 6.391-.292 10.832-.388 8.877-.191 20.555-.251 32.221-.21 11.664.04 23.304.182 32.102.393 4.401.106 8.081.23 10.694.366a67.39 67.39 0 013.219.23c.071.478.146 1.146.223 1.99.167 1.82.335 4.37.492 7.424.314 6.104.582 14.166.708 22.295.126 8.131.11 16.308-.14 22.648-.126 3.175-.309 5.858-.557 7.835-.124.992-.261 1.768-.403 2.324a4.682 4.682 0 01-.176.563c-.173.064-.438.14-.814.223-.75.166-1.805.329-3.145.482-2.673.307-6.348.566-10.712.773-8.721.415-20.098.623-31.506.623-11.408 0-22.824-.208-31.622-.623-4.402-.207-8.127-.466-10.859-.773-1.369-.154-2.458-.317-3.247-.484a7.492 7.492 0 01-.885-.233 2.952 2.952 0 01-.106-.039 3.686 3.686 0 01-.223-.578c-.168-.539-.332-1.297-.484-2.275-.303-1.949-.535-4.6-.701-7.746-.33-6.281-.389-14.39-.266-22.477.122-8.084.426-16.118.819-22.244.196-3.066.414-5.635.639-7.486.113-.93.225-1.649.331-2.149zm.144-.547a.17.17 0 01.011-.025.09.09 0 01-.011.025z"/><path stroke="#000" stroke-linecap="round" stroke-width="4" d="M393.278 97.73s7.227 4.647 11.085 4.647c3.857 0 11.085-4.647 11.085-4.647M391.438 80.681v4.5M416.948 80.681v4.5"/><path fill="#fff" fill-rule="evenodd" stroke="#1D877A" stroke-linecap="square" stroke-width="3" d="M335.112 17.35c-2.184.94 0 66.578 0 66.578s21.425 37.482 22.401 36.058c.976-1.424 0-12.137 0-30.174 0-18.038.943-34.549.943-34.549S337.297 16.41 335.112 17.35z" clip-rule="evenodd"/><path stroke="#1D877A" stroke-linecap="square" stroke-width="3" d="M346.427 34.227h90.527"/><path stroke="#000" stroke-linecap="round" stroke-width="5" d="M345.292 74.586s-8.263-3.073-11.944-8.03c-3.68-4.957-10.6-13.628-10.6-13.628"/><g><path fill="#fff" fill-rule="evenodd" stroke="#1D877A" stroke-linecap="square" stroke-width="3" d="M294.992 53.386c.822-.879-24.198-38.01-28.177-39.385-3.978-1.374-86.045-1.374-87.531 0-.72.666 9.414 14.452 12.236 19.373 3.003 5.235 10.254 20.012 10.912 20.012 1.277 0 91.737.879 92.56 0z" clip-rule="evenodd"/><path stroke="#000" stroke-linecap="round" stroke-width="5" d="M297.881 78.974s7.594-2.756 9.295-8.42c1.701-5.664 0-16.777 0-16.777M234.635 114.336s-5.362 3.376-6.894 6.359c-1.533 2.982-.987 9.955-.987 9.955l-7.646 2.822M254.381 114.336s5.362 3.376 6.895 6.359c1.532 2.982.987 9.955.987 9.955l7.646 2.822"/><path fill="#fff" stroke="#1D877A" stroke-width="3" d="M202.247 53.795l.03-.135c.12-.02.262-.041.427-.063.727-.094 1.772-.184 3.109-.266 2.666-.163 6.391-.292 10.832-.387 8.877-.192 20.556-.252 32.221-.211 11.664.04 23.304.182 32.103.394 4.401.106 8.08.229 10.693.365a67.42 67.42 0 013.219.23c.071.48.146 1.146.223 1.99.167 1.82.335 4.37.492 7.425.314 6.104.582 14.166.708 22.294.126 8.132.11 16.308-.14 22.649-.125 3.174-.308 5.858-.557 7.835-.124.991-.261 1.768-.403 2.324a4.653 4.653 0 01-.176.562 6.503 6.503 0 01-.813.224c-.751.166-1.805.328-3.146.482-2.673.307-6.348.565-10.712.773-8.72.415-20.098.623-31.506.623-11.408 0-22.824-.208-31.622-.623-4.402-.208-8.126-.466-10.858-.773-1.37-.154-2.459-.317-3.248-.485a7.736 7.736 0 01-.885-.232 2.269 2.269 0 01-.105-.039 3.69 3.69 0 01-.224-.578c-.168-.539-.331-1.298-.484-2.276-.303-1.948-.535-4.6-.7-7.745-.331-6.281-.39-14.39-.267-22.477.123-8.084.427-16.118.819-22.244.197-3.067.414-5.635.639-7.487.114-.93.225-1.648.331-2.149zm.144-.546a.222.222 0 010 0z"/><path stroke="#000" stroke-linecap="round" stroke-width="4" d="M237.475 96.023s7.228 4.646 11.085 4.646c3.858 0 11.085-4.646 11.085-4.646M235.635 78.974v4.5M261.145 78.974v4.5"/><path fill="#fff" fill-rule="evenodd" stroke="#1D877A" stroke-linecap="square" stroke-width="3" d="M179.31 15.642c-2.185.94 0 66.578 0 66.578s21.424 37.482 22.4 36.058c.976-1.423 0-12.136 0-30.174 0-18.037.943-34.548.943-34.548s-21.159-38.853-23.343-37.914z" clip-rule="evenodd"/><path stroke="#1D877A" stroke-linecap="square" stroke-width="3" d="M190.624 32.52h90.527"/><path stroke="#000" stroke-linecap="round" stroke-width="5" d="M189.489 72.878s-8.263-3.072-11.943-8.03c-3.681-4.956-10.601-13.627-10.601-13.627"/></g><g fill-rule="evenodd" clip-rule="evenodd"><path fill="#000" d="M73.548 156.469c-2.869-.186-3.709-.266-5.632-.539-9.074-1.286-17.25-4.499-24.555-9.648-1.688-1.19-3.596-2.787-5.297-4.433-4.847-4.69-8.506-10.46-10.459-16.491-1.918-5.926-2.292-12.269-1.08-18.327 1.081-5.402 3.471-10.7 6.908-15.313 7.984-10.718 21-17.85 35.806-19.62a60.24 60.24 0 0113.314-.094c18.589 1.93 34.521 12.473 41.07 27.177 2.138 4.803 3.189 9.715 3.189 14.913 0 4.135-.623 7.876-1.962 11.805-1.67 4.896-4.403 9.499-8.105 13.65-.794.89-2.68 2.783-3.519 3.533-8.049 7.189-18.62 11.761-30.227 13.073-2.144.242-3.266.3-6.173.318-1.61.01-3.085.008-3.278-.004zm5.091-4.035c8.727-.38 16.841-2.651 24.002-6.716.961-.545 2.615-1.566 2.776-1.714.22-.201.384-2.277.271-3.437-.294-3.021-1.638-5.729-4.044-8.151-1.37-1.379-2.853-2.456-4.455-3.238-1.316-.642-2.273-.938-3.31-1.023-.76-.063-1.105.029-2.302.613-3.878 1.892-7.5 2.908-12.047 3.38-.301.031-.845.055-1.562.068-.48.01-1.038.014-1.652.014-1.53 0-2.71-.03-3.213-.082-4.569-.474-8.276-1.519-12.085-3.405l-1.172-.58-.578-.024c-1.096-.046-2.362.315-3.983 1.137-4.19 2.122-7.321 5.984-8.147 10.05-.237 1.166-.262 2.916-.061 4.153l.08.494.866.55c8.767 5.568 19.682 8.388 30.616 7.911zm-29.272-24.001c-3.223 2.767-5.52 6.563-6.237 10.306a21.181 21.181 0 00-.208 1.331l-.078.649-.451-.394c-3.455-3.017-6.51-6.842-8.598-10.767-2.203-4.141-3.443-8.345-3.837-13.01-.085-1.018-.085-3.883 0-4.907a32.673 32.673 0 013.215-11.753c.363-.75.605-1.226.821-1.595a6.81 6.81 0 01.592-.858c1.204-1.51 3.288-2.3 5.776-2.19 2.74.122 5.559 1.16 7.934 2.92.652.483 1.687 1.48 2.093 2.013l.305.401-.255.458c-3.64 6.52-3.088 14.156 1.464 20.237.47.628.853 1.103 1.3 1.597.31.344.651.697 1.075 1.118l.934.928-.393.149c-1.69.645-3.799 1.947-5.452 3.367zm61.488 11.355c5.861-5.333 9.884-12.242 11.311-19.426.428-2.159.597-3.922.598-6.268.002-3.722-.536-6.962-1.743-10.491-.722-2.107-2.042-4.959-2.723-5.876-1.292-1.743-3.309-2.587-5.932-2.48-2.967.12-5.934 1.261-8.408 3.231-.592.473-1.501 1.396-1.799 1.828l-.184.268.513 1.001c1.427 2.78 2.115 5.538 2.115 8.478 0 5.172-2.335 10.289-6.473 14.187-.145.136-.278.264-.385.371-.169.168-.275.283-.266.292.016.013.314.145.665.292 2.075.874 4.254 2.336 5.975 4.009 3.078 2.992 4.991 6.556 5.54 10.321.029.201.055.417.073.596.016.153.025.279.025.346 0 .253.006.262.127.177.071-.049.507-.434.971-.856zm-24.643-13.127c-2.572.858-5.203 1.356-8.064 1.527-6.662.398-13.524-1.428-18.456-4.91-2.777-1.962-4.993-4.502-6.217-7.13-1.79-3.843-1.839-8.041-.137-11.879 1.928-4.35 6.224-8.13 11.683-10.282 3.936-1.551 8.164-2.242 12.632-2.062 5.742.23 11.132 1.961 15.294 4.912 1.517 1.075 3.194 2.638 4.213 3.925 2.25 2.845 3.388 5.966 3.387 9.291-.002 2.913-.83 5.569-2.53 8.114-.717 1.074-1.203 1.667-2.18 2.661-1.4 1.428-2.66 2.398-4.662 3.59-1.548.922-3.09 1.619-4.963 2.243zM55.529 94.959c3.993-3.448 9.596-5.874 15.537-6.727.871-.125 2.772-.324 3.098-.324h.148l-.016-6.061-.016-6.062-.604.02c-1.796.058-4.662.364-6.746.72-7.88 1.343-15.158 4.358-21.254 8.802-1.911 1.394-3.453 2.72-5.218 4.488l-1.368 1.37 1.145.041c2.26.081 4.171.476 6.276 1.296 2.57 1.002 4.947 2.569 6.356 4.19l.408.47.794-.824a27.089 27.089 0 011.46-1.4zm46.226-.043c-.341.254-1.018.857-1.504 1.34-.486.484-.888.88-.892.88-.002 0-.127-.124-.323-.32l-.639-.637c-1.554-1.56-2.95-2.645-4.898-3.81-4.192-2.506-9.254-4.044-14.589-4.432l-.589-.043V75.797l1.003.041c3.899.159 8.57.947 12.52 2.11 8.125 2.396 15.202 6.566 20.656 12.173l1.035 1.064-1.141.041c-.329.012-.693.032-1.008.054-.286.02-.532.041-.674.06-3.204.427-6.492 1.74-8.957 3.576z"/><path fill="#F57C23" d="M78.64 152.434c8.726-.38 16.84-2.651 24-6.716.962-.545 2.616-1.567 2.777-1.714.22-.201.384-2.277.271-3.437-.295-3.021-1.638-5.729-4.044-8.151-1.37-1.379-2.852-2.456-4.455-3.238-1.316-.642-2.274-.938-3.309-1.023-.76-.063-1.105.029-2.303.613-3.879 1.892-7.5 2.908-12.047 3.38-.503.052-1.684.082-3.214.082s-2.71-.03-3.213-.082c-4.569-.474-8.276-1.519-12.085-3.405l-1.172-.58-.578-.024c-1.096-.046-2.362.315-3.983 1.137-4.19 2.122-7.32 5.984-8.147 10.05-.237 1.166-.263 2.916-.061 4.153l.08.494.866.55c8.767 5.568 19.682 8.388 30.616 7.911zM100.251 96.256c.486-.483 1.163-1.086 1.504-1.34 2.465-1.836 5.753-3.149 8.957-3.576.298-.04 1.054-.09 1.682-.114l1.141-.04-1.035-1.065c-5.454-5.607-12.531-9.777-20.656-12.172-3.95-1.165-8.621-1.952-12.52-2.111l-1.003-.04v12.096l.589.043c5.335.388 10.397 1.926 14.589 4.432 1.947 1.165 3.344 2.25 4.899 3.81.524.526.957.956.961.956.005 0 .406-.395.892-.879z"/></g><g><path fill="#fff" fill-rule="evenodd" stroke="#1D877A" stroke-linecap="square" stroke-width="3" d="M135.148 43.68c.658-1.008-30.431-33.23-34.587-33.893-4.157-.663-84.977 13.588-86.202 15.2-.593.78 11.78 12.597 15.415 16.952 3.866 4.634 13.572 17.928 14.22 17.814 1.259-.222 90.497-15.065 91.154-16.073z" clip-rule="evenodd"/><path stroke="#000" stroke-linecap="round" stroke-width="5" d="M142.438 68.377s6.999-4.032 7.691-9.906c.692-5.873-2.913-16.522-2.913-16.522M88.292 116.184s-4.694 4.257-5.685 7.46c-.991 3.204.757 9.976.757 9.976l-7.04 4.107M107.739 112.755s5.867 2.395 7.894 5.066 2.7 9.633 2.7 9.633l8.02 1.451"/><path fill="#fff" stroke="#1D877A" stroke-width="3" d="M43.884 60.188l.005-.139c.115-.04.25-.085.41-.135.7-.22 1.713-.49 3.016-.802 2.597-.624 6.243-1.397 10.6-2.263 8.709-1.73 20.2-3.817 31.695-5.802 11.494-1.986 22.982-3.868 31.683-5.187 4.353-.66 7.997-1.178 10.594-1.497a67.423 67.423 0 013.21-.333c.153.46.343 1.104.566 1.922.48 1.763 1.089 4.245 1.774 7.226 1.369 5.957 3.032 13.85 4.568 21.832 1.536 7.987 2.941 16.042 3.795 22.33.428 3.147.713 5.822.812 7.812.05.998.05 1.786.006 2.359-.02.263-.047.454-.075.584a6.51 6.51 0 01-.762.362c-.71.293-1.721.636-3.014 1.021-2.579.766-6.153 1.659-10.415 2.621-8.516 1.923-19.685 4.103-30.919 6.084-11.235 1.981-22.514 3.759-31.25 4.878-4.372.56-8.084.952-10.828 1.124-1.375.086-2.476.115-3.282.087a7.774 7.774 0 01-.912-.075 3.813 3.813 0 01-.11-.021 3.612 3.612 0 01-.321-.53c-.259-.502-.552-1.22-.872-2.157-.637-1.866-1.326-4.437-2.035-7.506-1.416-6.128-2.882-14.104-4.166-22.09-1.282-7.981-2.378-15.947-3.055-22.048-.34-3.053-.571-5.62-.671-7.483a26.53 26.53 0 01-.047-2.174zm.047-.563a.147.147 0 01.006-.028c0 .001-.001.01-.006.028z"/><path stroke="#000" stroke-linecap="round" stroke-width="4" d="M85.91 95.657s7.924 3.32 11.723 2.65c3.799-.67 10.109-6.5 10.109-6.5M81.137 79.186l.782 4.432M106.259 74.757l.782 4.431"/><path fill="#fff" fill-rule="evenodd" stroke="#1D877A" stroke-linecap="square" stroke-width="3" d="M14.67 26.598c-1.989 1.304 11.56 65.566 11.56 65.566s27.608 33.192 28.322 31.621c.714-1.572-2.107-11.952-5.24-29.716-3.132-17.764-5.07-34.187-5.07-34.187S16.658 25.293 14.67 26.598z" clip-rule="evenodd"/><path stroke="#1D877A" stroke-linecap="square" stroke-width="3" d="M28.742 41.253l89.153-15.72"/><path stroke="#000" stroke-linecap="round" stroke-width="5" d="M34.633 81.196s-8.67-1.59-13.156-5.833c-4.485-4.242-12.806-11.58-12.806-11.58"/><path fill="#000" d="M124.435 66.36c-7.236.136-20.703 2.285-29.913 6.638l-4.176.736c-10.144-.94-23.53 1.658-30.38 3.993-.836.373-.177 4.112.518 4.215 1.439.423 2.328 1.63 2.328 1.63s.67 1.246 2.627 5.884c1.95 4.663 4.97 5.044 4.97 5.044s3.676.254 7.634-.444 6.347-1.345 8.749-3.133 2.885-5.503 2.885-5.503.78-3.317 1.151-6.325c.063-.925 4.47-1.702 4.844-.854 1.38 2.71 3.245 5.55 3.245 5.55s1.725 3.326 4.594 4.184c2.879.857 5.334.65 9.292-.049 3.958-.698 7.325-2.193 7.325-2.193s2.749-1.16 2.95-6.416c.212-5.258.456-6.428.456-6.428s.423-1.439 1.63-2.328c.857-.388.157-4.358-.729-4.202z"/></g></svg>