<svg xmlns="http://www.w3.org/2000/svg" fill="none" viewBox="0 0 459 128"><path fill="#fff" fill-rule="evenodd" stroke="#1D877A" stroke-linecap="square" stroke-width="3" d="M442.794 45.406c.823-.879-24.198-38.01-28.176-39.384-3.978-1.375-86.045-1.375-87.531 0-.72.665 9.413 14.451 12.236 19.372 3.003 5.235 10.253 20.012 10.912 20.012 1.277 0 91.737.879 92.559 0z" clip-rule="evenodd"/><path stroke="#000" stroke-linecap="round" stroke-width="5" d="M445.684 70.994s7.594-2.756 9.295-8.42c1.701-5.664 0-16.777 0-16.777M382.438 106.355s-5.362 3.377-6.895 6.36c-1.532 2.982-.986 9.955-.986 9.955l-7.646 2.822M402.184 106.355s5.362 3.377 6.895 6.36c1.532 2.982.986 9.955.986 9.955l7.646 2.822"/><path fill="#fff" stroke="#1D877A" stroke-width="3" d="M350.05 45.816l.03-.136c.12-.02.261-.041.426-.063.728-.094 1.773-.184 3.11-.266 2.666-.163 6.391-.291 10.832-.387 8.877-.191 20.555-.252 32.221-.211 11.664.04 23.304.182 32.102.394 4.401.106 8.081.229 10.694.365a67.39 67.39 0 013.219.23c.071.479.146 1.146.223 1.99.167 1.82.335 4.37.492 7.425.314 6.104.582 14.166.708 22.294.126 8.132.11 16.308-.14 22.649-.126 3.174-.309 5.858-.557 7.835-.124.991-.261 1.768-.403 2.324a4.653 4.653 0 01-.176.562 6.48 6.48 0 01-.814.224c-.75.166-1.805.328-3.145.482-2.673.307-6.348.565-10.712.773-8.721.415-20.098.623-31.506.623-11.408 0-22.824-.208-31.622-.623-4.402-.208-8.127-.466-10.859-.773-1.369-.154-2.458-.317-3.247-.485a7.736 7.736 0 01-.885-.232 1.702 1.702 0 01-.106-.04 3.656 3.656 0 01-.223-.577c-.168-.539-.332-1.298-.484-2.276-.303-1.948-.535-4.6-.701-7.745-.33-6.281-.389-14.39-.266-22.477.122-8.084.426-16.119.819-22.244.196-3.067.414-5.635.639-7.487.113-.93.225-1.648.331-2.148zm.144-.547a.17.17 0 01.011-.026.09.09 0 01-.011.026z"/><path stroke="#000" stroke-linecap="round" stroke-width="4" d="M385.278 88.043s7.227 4.646 11.085 4.646c3.857 0 11.085-4.646 11.085-4.646M383.438 70.994v4.5M408.948 70.994v4.5"/><path fill="#fff" fill-rule="evenodd" stroke="#1D877A" stroke-linecap="square" stroke-width="3" d="M327.112 7.662c-2.184.94 0 66.578 0 66.578s21.425 37.482 22.401 36.058c.976-1.423 0-12.136 0-30.174 0-18.037.943-34.548.943-34.548S329.297 6.723 327.112 7.662z" clip-rule="evenodd"/><path stroke="#1D877A" stroke-linecap="square" stroke-width="3" d="M338.427 24.54h90.527"/><path stroke="#000" stroke-linecap="round" stroke-width="5" d="M337.292 64.898s-8.263-3.072-11.944-8.03c-3.68-4.956-10.6-13.627-10.6-13.627"/><g><path fill="#fff" fill-rule="evenodd" stroke="#1D877A" stroke-linecap="square" stroke-width="3" d="M286.992 43.699c.822-.879-24.198-38.01-28.177-39.385-3.978-1.374-86.045-1.374-87.531 0-.72.666 9.414 14.451 12.236 19.372 3.003 5.235 10.254 20.013 10.912 20.013 1.277 0 91.737.878 92.56 0z" clip-rule="evenodd"/><path stroke="#000" stroke-linecap="round" stroke-width="5" d="M289.881 69.287s7.594-2.756 9.295-8.42c1.701-5.664 0-16.778 0-16.778M226.635 104.648s-5.362 3.377-6.894 6.359c-1.533 2.983-.987 9.955-.987 9.955l-7.646 2.823M246.381 104.648s5.362 3.377 6.895 6.359c1.532 2.983.987 9.955.987 9.955l7.646 2.823"/><path fill="#fff" stroke="#1D877A" stroke-width="3" d="M194.247 44.108l.03-.136c.12-.02.262-.04.427-.062.727-.095 1.772-.184 3.109-.266 2.666-.164 6.391-.292 10.832-.388 8.877-.191 20.556-.251 32.221-.21 11.664.04 23.304.182 32.103.393 4.401.106 8.08.23 10.693.366a67.42 67.42 0 013.219.23c.071.479.146 1.146.223 1.99.167 1.82.335 4.37.492 7.425.314 6.103.582 14.165.708 22.294.126 8.131.11 16.308-.14 22.648-.125 3.175-.308 5.858-.557 7.835-.124.992-.261 1.768-.403 2.324a4.682 4.682 0 01-.176.563c-.173.064-.438.14-.813.223-.751.166-1.805.329-3.146.483-2.673.306-6.348.565-10.712.772-8.72.415-20.098.623-31.506.623-11.408 0-22.824-.208-31.622-.623-4.402-.207-8.126-.466-10.858-.773-1.37-.154-2.459-.317-3.248-.484a7.492 7.492 0 01-.885-.233 2.269 2.269 0 01-.105-.039 3.645 3.645 0 01-.224-.578c-.168-.539-.331-1.297-.484-2.275-.303-1.949-.535-4.6-.7-7.746-.331-6.28-.39-14.39-.267-22.477.123-8.084.427-16.118.819-22.244.197-3.066.414-5.635.639-7.486.114-.93.225-1.649.331-2.149zm.144-.546a.222.222 0 010 0z"/><path stroke="#000" stroke-linecap="round" stroke-width="4" d="M229.475 86.335s7.228 4.647 11.085 4.647c3.858 0 11.085-4.647 11.085-4.647M227.635 69.287v4.5M253.145 69.287v4.5"/><path fill="#fff" fill-rule="evenodd" stroke="#1D877A" stroke-linecap="square" stroke-width="3" d="M171.31 5.955c-2.185.94 0 66.578 0 66.578s21.424 37.482 22.4 36.058c.976-1.424 0-12.137 0-30.174 0-18.038.943-34.549.943-34.549S173.494 5.015 171.31 5.955z" clip-rule="evenodd"/><path stroke="#1D877A" stroke-linecap="square" stroke-width="3" d="M182.624 22.832h90.527"/><path stroke="#000" stroke-linecap="round" stroke-width="5" d="M181.489 63.19s-8.263-3.072-11.943-8.029c-3.681-4.957-10.601-13.628-10.601-13.628"/></g><g><path fill="#fff" fill-rule="evenodd" stroke="#1D877A" stroke-linecap="square" stroke-width="3" d="M130.729 42.699c.822-.879-24.198-38.01-28.176-39.385-3.979-1.374-86.046-1.374-87.532 0-.72.666 9.414 14.451 12.237 19.372C30.26 27.921 37.51 42.7 38.169 42.7c1.278 0 91.737.878 92.56 0z" clip-rule="evenodd"/><path stroke="#000" stroke-linecap="round" stroke-width="5" d="M133.619 68.287s7.593-2.756 9.295-8.42c1.701-5.664 0-16.778 0-16.778M70.373 103.648s-5.362 3.377-6.895 6.359c-1.532 2.983-.987 9.955-.987 9.955l-7.646 2.823M90.119 103.648s5.362 3.377 6.894 6.359c1.533 2.983.987 9.955.987 9.955l7.646 2.823"/><path fill="#fff" stroke="#1D877A" stroke-width="3" d="M37.984 43.108l.03-.136c.12-.02.262-.04.427-.062.727-.095 1.772-.184 3.11-.266 2.666-.164 6.39-.292 10.831-.388 8.878-.191 20.556-.251 32.221-.21 11.665.04 23.305.182 32.103.393 4.401.106 8.08.23 10.693.366a67.31 67.31 0 013.219.23c.071.479.146 1.146.224 1.99.166 1.82.334 4.37.492 7.425.314 6.103.581 14.165.707 22.294.127 8.131.111 16.308-.14 22.648-.125 3.175-.308 5.858-.556 7.835-.125.992-.261 1.768-.404 2.324a4.504 4.504 0 01-.176.563 6.49 6.49 0 01-.813.223c-.75.166-1.805.329-3.145.483-2.673.306-6.348.565-10.712.772-8.721.415-20.099.623-31.507.623-11.407 0-22.824-.208-31.621-.623-4.403-.207-8.127-.466-10.859-.773-1.37-.154-2.459-.317-3.247-.484a7.46 7.46 0 01-.885-.233 2.307 2.307 0 01-.106-.039 3.623 3.623 0 01-.223-.578c-.168-.539-.332-1.297-.484-2.275-.304-1.949-.535-4.6-.701-7.746-.33-6.28-.39-14.39-.267-22.477.123-8.084.427-16.118.82-22.244.196-3.066.413-5.635.639-7.486.113-.93.225-1.649.33-2.149zm.145-.546a.144.144 0 01.011-.026s-.003.01-.011.026z"/><path stroke="#000" stroke-linecap="round" stroke-width="4" d="M73.212 85.335s7.228 4.647 11.085 4.647c3.858 0 11.085-4.647 11.085-4.647M71.373 68.287v4.5M96.882 68.287v4.5"/><path fill="#fff" fill-rule="evenodd" stroke="#1D877A" stroke-linecap="square" stroke-width="3" d="M15.047 4.955c-2.185.94 0 66.578 0 66.578s21.424 37.482 22.4 36.058c.976-1.424 0-12.137 0-30.174 0-18.038.944-34.549.944-34.549S17.23 4.015 15.047 4.955z" clip-rule="evenodd"/><path stroke="#1D877A" stroke-linecap="square" stroke-width="3" d="M26.361 21.832h90.528"/><path stroke="#000" stroke-linecap="round" stroke-width="5" d="M25.226 62.19s-8.262-3.072-11.943-8.029c-3.68-4.957-10.6-13.628-10.6-13.628"/></g></svg>