<svg xmlns="http://www.w3.org/2000/svg" fill="none" viewBox="0 0 564 414"><g filter="url(#filter0_d)"><rect width="550" height="400" x="7" y="7" fill="#F4F6F9" rx="5"/></g><mask id="a" width="550" height="400" x="7" y="7" maskUnits="userSpaceOnUse"><rect width="550" height="400" x="7" y="7" fill="#fff" rx="5"/></mask><g mask="url(#a)"><g filter="url(#filter1_d)"><path fill="url(#paint0_linear)" d="M7 7h550v30H7z"/></g><path fill="#34C749" fill-rule="evenodd" d="M47 26a4 4 0 100-8 4 4 0 000 8z" clip-rule="evenodd"/><path fill="#FDBC40" fill-rule="evenodd" d="M34 26a4 4 0 100-8 4 4 0 000 8z" clip-rule="evenodd"/><path fill="#FC605C" fill-rule="evenodd" d="M21 26a4 4 0 100-8 4 4 0 000 8z" clip-rule="evenodd"/><path fill="#fff" stroke="#000" d="M109.5 64.5h333v246h-333z"/><path fill="#E4E7EB" d="M110 303h332v7H110z"/><rect width="141" height="5" x="110" y="304" fill="#979797" rx="2.5"/><path fill="#33A9DC" fill-opacity=".5" stroke="#0242BC" stroke-width="2" d="M115 68h98v98h-98zM315 68h98v98h-98zM415 68h98v98h-98zM515 68h98v98h-98z"/><path fill="#34C749" fill-opacity=".5" stroke="#2D770A" stroke-width="2" d="M215 68h98v98h-98z"/><path stroke="#FF3647" stroke-dasharray="6 6" stroke-width="3" d="M111.5 66.5h329v235h-329z"/><path fill="#FF3647" d="M335.375 301.548a1.499 1.499 0 00-1.827 1.077l-3.378 13.07a1.5 1.5 0 002.904.751l3.003-11.618 11.618 3.002a1.5 1.5 0 00.751-2.904l-13.071-3.378zm33.917 56.69l-33-56-2.584 1.524 33 56 2.584-1.524z"/><path fill="#000" d="M238.477 381.484a1.395 1.395 0 01-.586-.304 1.315 1.315 0 01-.399-.539.996.996 0 01.024-.703c.109-.25.351-.493.726-.727.203.187.539.351 1.008.492a8.87 8.87 0 001.523.258c.563.047 1.118.055 1.665.023.546-.046 1-.14 1.359-.281.375-.141.609-.328.703-.562.094-.25-.039-.555-.398-.914a49.501 49.501 0 00-2.743-1.735 19.49 19.49 0 01-1.968-1.359 6.263 6.263 0 01-1.289-1.477c-.313-.547-.54-1.242-.68-2.086-.047-.687.117-1.25.492-1.687a3.346 3.346 0 011.453-1.008c.594-.234 1.258-.359 1.992-.375a7.426 7.426 0 012.133.258 6.254 6.254 0 011.899.797c.562.359.968.797 1.218 1.312a1.15 1.15 0 01-.047.656 1.245 1.245 0 01-.304.493c-.141.14-.32.25-.539.328a1.538 1.538 0 01-.657.047c-.484-.61-1.015-1.047-1.593-1.313-.563-.281-1.102-.43-1.617-.445-.5-.016-.922.094-1.266.328-.344.219-.524.523-.539.914-.016.391.172.852.562 1.383.407.531 1.102 1.101 2.086 1.711 1.407.843 2.446 1.633 3.117 2.367.688.719 1.071 1.367 1.149 1.945.094.563-.07 1.047-.492 1.453-.422.407-1.024.711-1.805.914-.781.204-1.711.297-2.789.282-1.063-.016-2.195-.164-3.398-.446zm14.437-8.32c-.078.031-.109.211-.094.539.016.328.047.742.094 1.242l.211 1.688c.078.625.133 1.242.164 1.851a12.9 12.9 0 01-.023 1.735c-.032.531-.125.969-.282 1.312-.156.344-.39.555-.703.633-.297.094-.703 0-1.219-.281l-.562-8.719a4.973 4.973 0 00-.844-.094c-.218 0-.429.016-.633.047-.187.016-.398.039-.632.071a6.506 6.506 0 01-.914-.024c-.282-.172-.461-.391-.539-.656-.079-.266-.008-.524.21-.774.204-.265.571-.484 1.102-.656.547-.187 1.297-.281 2.25-.281.109-.063.141-.297.094-.703-.047-.422-.11-.914-.188-1.477a29.015 29.015 0 01-.187-1.758c-.031-.609.015-1.132.14-1.57.125-.437.36-.734.703-.891.36-.156.891-.07 1.594.258.016.875.032 1.61.047 2.203.016.594.031 1.094.047 1.5.016.391.031.703.047.938a21.44 21.44 0 00.094 1.055c.015.125.031.281.047.468.328.016.624.016.89 0 .281-.031.547-.054.797-.07.266-.031.531-.055.797-.07.281-.016.586-.016.914 0 .344.078.594.218.75.422a.949.949 0 01.211.656c0 .234-.094.461-.281.68a1.64 1.64 0 01-.704.468l-3.398.258zm7.922 6.774c.109.296.141.585.094.867a1.737 1.737 0 01-.258.75c-.141.218-.32.39-.539.515a1.04 1.04 0 01-.633.164c-.219-.015-.43-.109-.633-.281-.187-.187-.336-.484-.445-.891-.031-.109-.063-.374-.094-.796-.016-.438-.031-.946-.047-1.524a1164.683 1164.683 0 01-.093-3.726c-.016-.578-.032-1.078-.047-1.5-.016-.438-.039-.719-.071-.844-.109-.766-.117-1.383-.023-1.852.094-.484.234-.843.422-1.078.203-.25.429-.383.679-.398a.892.892 0 01.68.187c.219.157.391.399.516.727.125.312.164.687.117 1.125l.375 8.555zm-1.688-12.469c-.343-.266-.554-.555-.632-.867-.063-.329-.039-.618.07-.868.125-.25.312-.429.562-.539.266-.109.547-.093.844.047.344.188.555.453.633.797.078.344.063.664-.047.961a1.179 1.179 0 01-.562.633c-.25.125-.539.07-.868-.164zm13.055 11.343c-.406.954-.93 1.665-1.57 2.133-.625.469-1.297.75-2.016.844a4.818 4.818 0 01-2.179-.281 6.572 6.572 0 01-1.969-1.149 6.79 6.79 0 01-1.453-1.851 5.448 5.448 0 01-.61-2.344 14.35 14.35 0 01-.094-1.664c.016-.594.079-1.164.188-1.711a6.759 6.759 0 01.516-1.594c.25-.515.586-.968 1.007-1.359.516-.422 1.071-.688 1.665-.797a4.322 4.322 0 011.734-.023c.562.093 1.07.265 1.523.515.453.25.782.531.985.844.203.297.25.594.14.891-.109.296-.437.539-.984.726-.813-.469-1.516-.711-2.109-.726-.594-.016-1.079.125-1.454.422-.375.281-.656.687-.843 1.218a5.792 5.792 0 00-.282 1.688c0 .609.079 1.226.235 1.851.172.61.406 1.164.703 1.664.312.485.687.868 1.125 1.149.453.281.953.39 1.5.328.547-.078 1.148-.359 1.805-.844.656-.484 1.351-1.258 2.086-2.32.171-.094.312-.078.421.047.125.125.204.312.235.562.047.235.047.516 0 .844a3.131 3.131 0 01-.305.937zm4.078 2.415c0 .375-.117.648-.351.82-.235.187-.5.281-.797.281a1.64 1.64 0 01-.867-.258 1.25 1.25 0 01-.563-.773l-.726-13.313c-.094-.734-.102-1.336-.024-1.804.094-.485.227-.836.399-1.055.171-.234.375-.344.609-.328.234 0 .453.109.656.328.219.203.406.508.563.914.156.406.242.891.258 1.453l.328 5.93c.25-.141.515-.414.796-.82.297-.422.602-.875.915-1.36a48.79 48.79 0 011.007-1.43c.344-.468.688-.828 1.032-1.078.359-.265.718-.375 1.078-.328.359.047.711.344 1.054.891a3.29 3.29 0 01-.421 1.383 8.48 8.48 0 01-.915 1.289c-.343.422-.71.828-1.101 1.219-.375.39-.711.765-1.008 1.124l5.063.54c.328.062.554.218.679.468.141.25.196.524.164.821a1.66 1.66 0 01-.281.82 1.31 1.31 0 01-.609.562 23.507 23.507 0 01-1.688-.234 24.058 24.058 0 00-1.945-.305 16.471 16.471 0 00-1.945-.117c-.625 0-1.18.078-1.664.235l.304 4.125zm9.422 7.429c-.187-.218-.258-.492-.211-.82.047-.328.156-.633.328-.914.172-.266.383-.461.633-.586.25-.109.469-.063.656.141.625 1.046 1.211 1.804 1.758 2.273.563.469 1.078.711 1.547.727.484.015.914-.157 1.289-.516.391-.344.727-.813 1.008-1.406.281-.594.516-1.274.703-2.039.188-.75.32-1.516.398-2.297.079-.781.094-1.539.047-2.274-.047-.75-.148-1.398-.304-1.945-.297.375-.649.75-1.055 1.125a6.197 6.197 0 01-1.312.961c-.469.25-.985.414-1.547.492-.547.078-1.118 0-1.711-.234-.547-.297-1-.719-1.36-1.266a8.492 8.492 0 01-.89-1.898 14.57 14.57 0 01-.492-2.274 25.27 25.27 0 01-.211-2.39 35.812 35.812 0 01-.024-2.227c.016-.703.039-1.32.07-1.851.157-.25.375-.446.657-.586a1.53 1.53 0 01.843-.211c.282 0 .532.086.75.257.219.172.352.446.399.821-.016.312-.039.742-.07 1.289a61.16 61.16 0 00-.024 1.781c.016.641.047 1.297.094 1.969.062.672.172 1.289.328 1.851.172.563.391 1.047.656 1.453.282.407.641.665 1.078.774.719-.094 1.297-.344 1.735-.75.453-.422.797-.93 1.031-1.524a7.27 7.27 0 00.445-1.992c.078-.718.102-1.429.071-2.132a15.377 15.377 0 00-.164-1.969c-.079-.61-.149-1.11-.211-1.5a.784.784 0 01.586-.469c.281-.078.562-.086.843-.023.297.062.563.187.797.375.25.187.391.414.422.679.672 3.781 1.016 7.047 1.031 9.797.016 2.75-.195 5.024-.632 6.82-.422 1.813-1.024 3.18-1.805 4.102-.781.938-1.641 1.477-2.578 1.617-.922.156-1.875-.047-2.86-.609-.984-.563-1.898-1.43-2.742-2.602zm12.352-12.984c-.469-.328-.703-.664-.703-1.008.015-.359.296-.625.843-.797l8.157-.047a.705.705 0 01.445.422.885.885 0 010 .633 1.326 1.326 0 01-.399.609c-.203.188-.476.297-.82.328l-7.523-.14zm19.406 3.14c-.406.954-.93 1.665-1.57 2.133-.625.469-1.297.75-2.016.844a4.824 4.824 0 01-2.18-.281 6.58 6.58 0 01-1.968-1.149 6.794 6.794 0 01-1.454-1.851 5.433 5.433 0 01-.609-2.344 14.35 14.35 0 01-.094-1.664c.016-.594.078-1.164.188-1.711a6.803 6.803 0 01.515-1.594 4.54 4.54 0 011.008-1.359c.516-.422 1.071-.688 1.664-.797a4.327 4.327 0 011.735-.023c.562.093 1.07.265 1.523.515.453.25.781.531.985.844.203.297.25.594.14.891-.109.296-.437.539-.984.726-.813-.469-1.516-.711-2.11-.726-.593-.016-1.078.125-1.453.422-.375.281-.656.687-.843 1.218a5.792 5.792 0 00-.282 1.688c0 .609.078 1.226.235 1.851.171.61.406 1.164.703 1.664.312.485.687.868 1.125 1.149.453.281.953.39 1.5.328.547-.078 1.148-.359 1.804-.844.657-.484 1.352-1.258 2.086-2.32.172-.094.313-.078.422.047.125.125.203.312.235.562a2.58 2.58 0 010 .844 3.131 3.131 0 01-.305.937zm3.375 2.766c-.703-.344-1.25-.82-1.641-1.43a5.822 5.822 0 01-.75-2.039 8.269 8.269 0 010-2.32c.125-.812.328-1.594.61-2.344.281-.765.625-1.461 1.031-2.086.406-.625.844-1.132 1.312-1.523.86-.656 1.657-1.047 2.391-1.172s1.391-.055 1.969.211c.578.266 1.078.687 1.5 1.266a6.488 6.488 0 011.008 1.992c.25.734.398 1.531.445 2.39a9.42 9.42 0 01-.188 2.485 7.59 7.59 0 01-.82 2.273 4.957 4.957 0 01-1.523 1.735c-.625.453-1.383.742-2.274.867-.875.125-1.898.023-3.07-.305zm1.805-1.945c.656.062 1.242-.078 1.757-.422.532-.359.969-.82 1.313-1.383a6.444 6.444 0 00.75-1.945 5.823 5.823 0 00.094-2.063 4.39 4.39 0 00-.657-1.804c-.343-.547-.836-.93-1.476-1.149-.391-.078-.805.047-1.242.375-.422.328-.813.774-1.172 1.336a8.625 8.625 0 00-.867 1.875 6.766 6.766 0 00-.329 2.063c0 .672.141 1.289.422 1.851.282.563.75.985 1.407 1.266zm9.609 1.195c0 .484-.133.813-.398.984-.25.157-.532.211-.844.165a1.973 1.973 0 01-.844-.422c-.25-.219-.391-.477-.422-.774.031-1.593.031-3.289 0-5.086a184.03 184.03 0 00-.14-5.695c.125-.422.336-.688.632-.797a.96.96 0 01.891.117c.281.172.492.492.633.961.156.453.14 1.039-.047 1.758 1-1.469 1.937-2.43 2.812-2.883.875-.453 1.68-.547 2.415-.281.734.266 1.374.813 1.921 1.641.563.812 1.024 1.757 1.383 2.836.36 1.078.602 2.21.727 3.398.14 1.172.148 2.25.023 3.234.016.407-.109.711-.375.914a1.55 1.55 0 01-.844.352 1.29 1.29 0 01-.82-.234c-.25-.172-.359-.438-.328-.797.109-1.969.063-3.563-.141-4.781-.187-1.219-.468-2.126-.843-2.719-.36-.61-.782-.946-1.266-1.008-.484-.063-.977.07-1.477.398-.484.313-.953.789-1.406 1.43a9.289 9.289 0 00-1.078 2.156c-.266.797-.43 1.649-.492 2.555-.063.891.047 1.75.328 2.578zm10.922.656a1.4 1.4 0 01-.586-.304 1.313 1.313 0 01-.398-.539.99.99 0 01.023-.703c.109-.25.351-.493.727-.727.203.187.539.351 1.007.492.469.125.977.211 1.524.258.562.047 1.117.055 1.664.023.547-.046 1-.14 1.359-.281.375-.141.61-.328.703-.562.094-.25-.039-.555-.398-.914a49.894 49.894 0 00-2.742-1.735 19.4 19.4 0 01-1.969-1.359 6.286 6.286 0 01-1.289-1.477c-.313-.547-.539-1.242-.68-2.086-.047-.687.117-1.25.492-1.687.375-.453.86-.789 1.453-1.008.594-.234 1.258-.359 1.993-.375a7.435 7.435 0 012.133.258 6.248 6.248 0 011.898.797c.562.359.969.797 1.219 1.312.047.235.031.453-.047.656a1.247 1.247 0 01-.305.493c-.141.14-.32.25-.539.328a1.535 1.535 0 01-.656.047c-.485-.61-1.016-1.047-1.594-1.313-.562-.281-1.102-.43-1.617-.445-.5-.016-.922.094-1.266.328-.343.219-.523.523-.539.914-.015.391.172.852.563 1.383.406.531 1.101 1.101 2.086 1.711 1.406.843 2.445 1.633 3.117 2.367.687.719 1.07 1.367 1.148 1.945.094.563-.07 1.047-.492 1.453-.422.407-1.023.711-1.805.914-.781.204-1.711.297-2.789.282-1.062-.016-2.195-.164-3.398-.446zm14.437-8.32c-.078.031-.109.211-.093.539.015.328.046.742.093 1.242l.211 1.688c.078.625.133 1.242.164 1.851.032.61.024 1.188-.023 1.735-.031.531-.125.969-.281 1.312-.157.344-.391.555-.703.633-.297.094-.704 0-1.219-.281l-.563-8.719a4.963 4.963 0 00-.843-.094c-.219 0-.43.016-.633.047-.188.016-.399.039-.633.071a6.509 6.509 0 01-.914-.024c-.281-.172-.461-.391-.539-.656-.078-.266-.008-.524.211-.774.203-.265.57-.484 1.101-.656.547-.187 1.297-.281 2.25-.281.11-.063.141-.297.094-.703a56.346 56.346 0 00-.187-1.477 28.217 28.217 0 01-.188-1.758c-.031-.609.016-1.132.141-1.57.125-.437.359-.734.703-.891.359-.156.89-.07 1.594.258.015.875.031 1.61.046 2.203.016.594.032 1.094.047 1.5.016.391.032.703.047.938.016.234.031.437.047.609.016.156.031.305.047.446.016.125.031.281.047.468.328.016.625.016.89 0 .282-.031.547-.054.797-.07.266-.031.532-.055.797-.07.281-.016.586-.016.914 0 .344.078.594.218.75.422a.94.94 0 01.211.656c0 .234-.094.461-.281.68a1.636 1.636 0 01-.703.468l-3.399.258zm7.336 7.945c-.109.25-.304.453-.586.61-.265.14-.547.211-.843.211-.297 0-.578-.086-.844-.258-.25-.172-.422-.461-.516-.867-.031-.157-.039-.477-.023-.961.031-.5.039-1.196.023-2.086a82.022 82.022 0 00-.14-3.352 83.08 83.08 0 00-.446-4.804c.328-.297.641-.407.938-.329.312.079.594.25.844.516s.453.594.609.984c.156.375.242.727.258 1.055.078-.297.242-.601.492-.914.266-.328.586-.625.961-.891a6.327 6.327 0 011.242-.679 5.163 5.163 0 011.43-.352c.5-.047.992 0 1.476.141.5.14.961.406 1.383.797a.92.92 0 01-.07.445 1.853 1.853 0 01-.258.445 2.08 2.08 0 01-.375.375 1.245 1.245 0 01-.422.188c-.906-.188-1.68-.172-2.32.047a3.309 3.309 0 00-1.547 1.031c-.406.484-.711 1.078-.914 1.781a11.977 11.977 0 00-.422 2.203 20.289 20.289 0 00-.094 2.391c.031.812.086 1.57.164 2.273zm18.305-.492c0 .453-.094.758-.281.914a.994.994 0 01-.657.235 1.93 1.93 0 01-.726-.141c-.219-.109-.359-.211-.422-.305l-1.242-2.672a9.366 9.366 0 01-.703 1.102 6.381 6.381 0 01-.891.938 5.452 5.452 0 01-1.078.679 3.537 3.537 0 01-1.219.352c-1.047.031-1.922-.125-2.625-.469a4.637 4.637 0 01-1.664-1.43 5.227 5.227 0 01-.82-2.039 8.716 8.716 0 01-.047-2.39c.094-.829.289-1.641.586-2.438a8.918 8.918 0 011.125-2.133 6.244 6.244 0 011.57-1.57c.61-.422 1.258-.656 1.946-.703.687-.047 1.406.117 2.156.492.765.359 1.547 1.008 2.344 1.945l2.648 9.633zm-9.188-1.547c.719.25 1.344.313 1.876.188a2.96 2.96 0 001.382-.774 3.52 3.52 0 00.844-1.406 6.655 6.655 0 00.375-1.758 6.722 6.722 0 00-.094-1.781c-.093-.594-.265-1.109-.515-1.547-.235-.453-.539-.789-.914-1.008-.375-.218-.813-.265-1.313-.14-.406.094-.773.336-1.101.726a5.155 5.155 0 00-.797 1.36 7.88 7.88 0 00-.493 1.687c-.109.61-.164 1.203-.164 1.781a6.31 6.31 0 00.235 1.594c.156.469.383.828.679 1.078zm13.266.868c.11.296.141.585.094.867a1.711 1.711 0 01-.258.75c-.141.218-.32.39-.539.515a1.04 1.04 0 01-.633.164c-.219-.015-.43-.109-.633-.281-.187-.187-.336-.484-.445-.891-.031-.109-.062-.374-.094-.796a232.586 232.586 0 01-.093-3.375l-.047-1.875c-.016-.578-.032-1.078-.047-1.5-.016-.438-.039-.719-.071-.844-.109-.766-.117-1.383-.023-1.852.094-.484.234-.843.422-1.078.203-.25.43-.383.68-.398a.89.89 0 01.679.187c.219.157.391.399.516.727.125.312.164.687.117 1.125l.375 8.555zm-1.687-12.469c-.344-.266-.555-.555-.633-.867-.063-.329-.039-.618.07-.868.125-.25.313-.429.563-.539.265-.109.547-.093.843.047.344.188.555.453.633.797.078.344.063.664-.047.961a1.179 1.179 0 01-.562.633c-.25.125-.539.07-.867-.164zm5.976 13.359c0 .484-.133.813-.398.984-.25.157-.531.211-.844.165a1.973 1.973 0 01-.844-.422 1.174 1.174 0 01-.422-.774c.032-1.593.032-3.289 0-5.086a184.03 184.03 0 00-.14-5.695c.125-.422.336-.688.633-.797a.959.959 0 01.89.117c.281.172.492.492.633.961.156.453.141 1.039-.047 1.758 1-1.469 1.938-2.43 2.813-2.883.875-.453 1.679-.547 2.414-.281.734.266 1.375.813 1.922 1.641.562.812 1.023 1.757 1.382 2.836.36 1.078.602 2.21.727 3.398.141 1.172.148 2.25.023 3.234.016.407-.109.711-.375.914a1.55 1.55 0 01-.843.352 1.29 1.29 0 01-.821-.234c-.25-.172-.359-.438-.328-.797.11-1.969.063-3.563-.14-4.781-.188-1.219-.469-2.126-.844-2.719-.36-.61-.781-.946-1.266-1.008-.484-.063-.976.07-1.476.398-.485.313-.954.789-1.407 1.43a9.289 9.289 0 00-1.078 2.156 10.343 10.343 0 00-.492 2.555 6.53 6.53 0 00.328 2.578zm14.438-7.664c-.078.031-.11.211-.094.539.016.328.047.742.094 1.242l.211 1.688c.078.625.132 1.242.164 1.851.031.61.023 1.188-.024 1.735-.031.531-.125.969-.281 1.312-.156.344-.391.555-.703.633-.297.094-.703 0-1.219-.281l-.562-8.719a4.973 4.973 0 00-.844-.094c-.219 0-.43.016-.633.047-.187.016-.398.039-.633.071a6.509 6.509 0 01-.914-.024c-.281-.172-.461-.391-.539-.656-.078-.266-.008-.524.211-.774.203-.265.57-.484 1.102-.656.547-.187 1.297-.281 2.25-.281.109-.063.14-.297.093-.703a52.364 52.364 0 00-.187-1.477 28.998 28.998 0 01-.188-1.758c-.031-.609.016-1.132.141-1.57.125-.437.359-.734.703-.891.359-.156.891-.07 1.594.258.015.875.031 1.61.047 2.203.015.594.031 1.094.047 1.5a32.875 32.875 0 00.093 1.547l.047.446c.016.125.031.281.047.468.328.016.625.016.891 0 .281-.031.547-.054.797-.07.265-.031.531-.055.796-.07.282-.016.586-.016.915 0 .343.078.593.218.75.422a.949.949 0 01.211.656c0 .234-.094.461-.282.68a1.636 1.636 0 01-.703.468l-3.398.258zm18.586 7.945c-.11.25-.305.453-.586.61-.266.14-.547.211-.844.211-.297 0-.578-.086-.844-.258-.25-.172-.422-.461-.515-.867-.032-.157-.04-.477-.024-.961.031-.5.039-1.196.024-2.086a84.112 84.112 0 00-.141-3.352 83.879 83.879 0 00-.445-4.804c.328-.297.64-.407.937-.329.313.079.594.25.844.516s.453.594.609.984c.156.375.242.727.258 1.055.078-.297.242-.601.492-.914.266-.328.586-.625.961-.891a6.327 6.327 0 011.242-.679 5.171 5.171 0 011.43-.352c.5-.047.992 0 1.477.141.5.14.961.406 1.382.797a.908.908 0 01-.07.445 1.789 1.789 0 01-.258.445 2.08 2.08 0 01-.375.375c-.14.094-.281.157-.422.188-.906-.188-1.679-.172-2.32.047a3.309 3.309 0 00-1.547 1.031c-.406.484-.711 1.078-.914 1.781a11.977 11.977 0 00-.422 2.203 20.078 20.078 0 00-.093 2.391c.031.812.085 1.57.164 2.273zm16.851-1.617a4.042 4.042 0 01-1.125 1.336 5.129 5.129 0 01-1.547.774 6.087 6.087 0 01-1.781.257 6.259 6.259 0 01-1.781-.304 6.658 6.658 0 01-1.641-.797 4.865 4.865 0 01-1.265-1.266 9.845 9.845 0 01-1.149-3.164c-.203-1.125-.195-2.187.024-3.187.218-1 .664-1.875 1.335-2.625.672-.75 1.61-1.25 2.813-1.5 1.141-.078 2.039.062 2.695.422.672.343 1.125.82 1.36 1.429.25.594.297 1.258.14 1.992-.14.735-.453 1.453-.937 2.157-.485.687-1.125 1.304-1.922 1.851-.797.531-1.719.899-2.766 1.102.313.515.664.89 1.055 1.125a3.43 3.43 0 001.266.398 3.95 3.95 0 001.289-.07c.437-.11.836-.234 1.195-.375.375-.156.703-.297.984-.422.282-.141.485-.234.61-.281.562-.172.945-.172 1.148 0 .203.172.203.554 0 1.148zm-6.211-8.367a5.213 5.213 0 00-1.664 2.109 5.056 5.056 0 00-.351 1.266c-.047.438-.032.867.046 1.289a4.615 4.615 0 001.758-.609 5.32 5.32 0 001.313-1.055c.359-.406.617-.82.773-1.242.156-.422.196-.789.117-1.102-.062-.312-.257-.539-.585-.679-.329-.141-.797-.133-1.407.023zm17.086 7.687c-.406.954-.929 1.665-1.57 2.133-.625.469-1.297.75-2.016.844a4.818 4.818 0 01-2.179-.281 6.584 6.584 0 01-1.969-1.149 6.79 6.79 0 01-1.453-1.851 5.448 5.448 0 01-.61-2.344 14.355 14.355 0 01-.093-1.664c.015-.594.078-1.164.187-1.711a6.759 6.759 0 01.516-1.594 4.54 4.54 0 011.008-1.359c.515-.422 1.07-.688 1.664-.797a4.322 4.322 0 011.734-.023c.562.093 1.07.265 1.523.515.453.25.782.531.985.844.203.297.25.594.14.891-.109.296-.437.539-.984.726-.812-.469-1.516-.711-2.109-.726-.594-.016-1.079.125-1.453.422-.376.281-.657.687-.844 1.218a5.792 5.792 0 00-.282 1.688c0 .609.079 1.226.235 1.851.172.61.406 1.164.703 1.664.312.485.688.868 1.125 1.149.453.281.953.39 1.5.328.547-.078 1.148-.359 1.805-.844.656-.484 1.351-1.258 2.086-2.32.172-.094.312-.078.422.047.124.125.203.312.234.562.047.235.047.516 0 .844a3.131 3.131 0 01-.305.937zm5.438-5.648c-.078.031-.11.211-.094.539.016.328.047.742.094 1.242l.211 1.688c.078.625.132 1.242.164 1.851.031.61.023 1.188-.024 1.735-.031.531-.125.969-.281 1.312-.156.344-.391.555-.703.633-.297.094-.703 0-1.219-.281l-.562-8.719a4.973 4.973 0 00-.844-.094c-.219 0-.43.016-.633.047-.187.016-.398.039-.633.071a6.509 6.509 0 01-.914-.024c-.281-.172-.461-.391-.539-.656-.078-.266-.008-.524.211-.774.203-.265.57-.484 1.102-.656.547-.187 1.297-.281 2.25-.281.109-.063.14-.297.093-.703a52.364 52.364 0 00-.187-1.477 28.998 28.998 0 01-.188-1.758c-.031-.609.016-1.132.141-1.57.125-.437.359-.734.703-.891.359-.156.891-.07 1.594.258.015.875.031 1.61.047 2.203.015.594.031 1.094.047 1.5a32.875 32.875 0 00.093 1.547l.047.446c.016.125.031.281.047.468.328.016.625.016.891 0 .281-.031.547-.054.797-.07.265-.031.531-.055.796-.07.282-.016.586-.016.915 0 .343.078.593.218.75.422a.949.949 0 01.211.656c0 .234-.094.461-.282.68a1.636 1.636 0 01-.703.468l-3.398.258zm16.828 7.453c0 .453-.094.758-.281.914a.994.994 0 01-.657.235 1.93 1.93 0 01-.726-.141c-.219-.109-.36-.211-.422-.305l-1.242-2.672a9.366 9.366 0 01-.703 1.102 6.381 6.381 0 01-.891.938 5.481 5.481 0 01-1.078.679 3.537 3.537 0 01-1.219.352c-1.047.031-1.922-.125-2.625-.469a4.637 4.637 0 01-1.664-1.43 5.227 5.227 0 01-.82-2.039 8.716 8.716 0 01-.047-2.39c.094-.829.289-1.641.586-2.438a8.918 8.918 0 011.125-2.133 6.244 6.244 0 011.57-1.57 3.83 3.83 0 011.945-.703c.688-.047 1.407.117 2.157.492.765.359 1.547 1.008 2.343 1.945l2.649 9.633zm-9.188-1.547c.719.25 1.344.313 1.875.188a2.958 2.958 0 001.383-.774c.375-.375.656-.843.844-1.406a6.655 6.655 0 00.375-1.758 6.722 6.722 0 00-.094-1.781c-.094-.594-.266-1.109-.516-1.547-.234-.453-.539-.789-.914-1.008-.375-.218-.812-.265-1.312-.14-.406.094-.774.336-1.102.726a5.18 5.18 0 00-.796 1.36 7.88 7.88 0 00-.493 1.687c-.109.61-.164 1.203-.164 1.781a6.31 6.31 0 00.235 1.594c.156.469.382.828.679 1.078zm13.008 1.758c0 .484-.133.813-.398.984-.25.157-.532.211-.844.165a1.973 1.973 0 01-.844-.422 1.174 1.174 0 01-.422-.774c.032-1.593.032-3.289 0-5.086a184.03 184.03 0 00-.14-5.695c.125-.422.336-.688.633-.797a.959.959 0 01.89.117c.281.172.492.492.633.961.156.453.141 1.039-.047 1.758 1-1.469 1.938-2.43 2.813-2.883.875-.453 1.679-.547 2.414-.281.734.266 1.375.813 1.921 1.641.563.812 1.024 1.757 1.383 2.836.36 1.078.602 2.21.727 3.398.14 1.172.148 2.25.023 3.234.016.407-.109.711-.375.914a1.55 1.55 0 01-.843.352 1.29 1.29 0 01-.821-.234c-.25-.172-.359-.438-.328-.797.11-1.969.063-3.563-.14-4.781-.188-1.219-.469-2.126-.844-2.719-.36-.61-.782-.946-1.266-1.008-.484-.063-.976.07-1.476.398-.485.313-.954.789-1.407 1.43a9.289 9.289 0 00-1.078 2.156 10.343 10.343 0 00-.492 2.555c-.063.891.047 1.75.328 2.578zm17.133 10.641c-.938-.219-1.719-.571-2.344-1.055-.625-.484-1.062-.969-1.312-1.453-.25-.469-.289-.883-.118-1.242.172-.344.586-.492 1.243-.446.734.704 1.437 1.172 2.109 1.407.688.25 1.313.297 1.875.14.563-.156 1.039-.492 1.43-1.008.39-.515.656-1.171.797-1.968.14-.797.132-1.727-.024-2.789-.14-1.047-.469-2.188-.984-3.422a5.505 5.505 0 01-1.547 1.406 5.648 5.648 0 01-1.875.727 5.693 5.693 0 01-1.992.023 5.14 5.14 0 01-1.875-.75 6.061 6.061 0 01-1.547-1.547c-.438-.64-.758-1.43-.961-2.367-.094-1.156-.031-2.219.187-3.187.219-.985.555-1.836 1.008-2.555a6.146 6.146 0 011.688-1.781 5.456 5.456 0 012.203-.914c.797-.141 1.641-.094 2.531.14.906.219 1.82.641 2.742 1.266.11.75.289 1.648.539 2.695.266 1.031.539 2.141.821 3.328.297 1.172.57 2.383.82 3.633s.422 2.461.516 3.633a16.726 16.726 0 010 3.305c-.094 1.031-.36 1.921-.797 2.671-.438.75-1.071 1.313-1.899 1.688-.828.391-1.906.531-3.234.422zm-4.781-16.43c0 1.063.156 1.922.468 2.578.313.641.711 1.11 1.196 1.406.484.297 1.008.43 1.57.399a3.62 3.62 0 001.594-.469 3.91 3.91 0 001.312-1.172 3.53 3.53 0 00.68-1.734 13.591 13.591 0 01-.211-1.031 29.688 29.688 0 00-.211-1.172 17.986 17.986 0 00-.258-1.149 8.192 8.192 0 00-.304-.984c-.313-.406-.68-.664-1.102-.773a2.312 2.312 0 00-1.266-.024 3.755 3.755 0 00-1.265.563 5.012 5.012 0 00-1.102.984 4.955 4.955 0 00-.797 1.242 3.146 3.146 0 00-.304 1.336zm14.695 5.742c.109.391.094.696-.047.914a.898.898 0 01-.609.375 1.98 1.98 0 01-.891-.07 2.14 2.14 0 01-.82-.516l-.797-15.89c-.109-.282-.117-.524-.024-.727a1.14 1.14 0 01.446-.492c.203-.125.422-.203.656-.234.25-.032.469 0 .656.093a.79.79 0 01.446.422c.109.188.117.446.023.774l.961 15.351zm11.484-1.289a4.042 4.042 0 01-1.125 1.336 5.117 5.117 0 01-1.547.774 6.087 6.087 0 01-1.781.257 6.259 6.259 0 01-1.781-.304 6.658 6.658 0 01-1.641-.797 4.88 4.88 0 01-1.265-1.266 9.845 9.845 0 01-1.149-3.164c-.203-1.125-.195-2.187.024-3.187a5.69 5.69 0 011.336-2.625c.672-.75 1.609-1.25 2.812-1.5 1.141-.078 2.039.062 2.695.422.672.343 1.126.82 1.36 1.429.25.594.297 1.258.14 1.992-.14.735-.453 1.453-.937 2.157-.484.687-1.125 1.304-1.922 1.851-.797.531-1.719.899-2.765 1.102.312.515.664.89 1.054 1.125a3.43 3.43 0 001.266.398 3.95 3.95 0 001.289-.07c.437-.11.836-.234 1.195-.375.375-.156.703-.297.985-.422.281-.141.484-.234.609-.281.562-.172.945-.172 1.148 0 .204.172.204.554 0 1.148zm-6.211-8.367a5.213 5.213 0 00-1.664 2.109 5.098 5.098 0 00-.351 1.266c-.047.438-.031.867.047 1.289a4.616 4.616 0 001.757-.609 5.32 5.32 0 001.313-1.055c.359-.406.617-.82.773-1.242.157-.422.196-.789.118-1.102-.063-.312-.258-.539-.586-.679-.328-.141-.797-.133-1.407.023z"/></g><defs><filter id="filter0_d" width="564" height="414" x="0" y="0" color-interpolation-filters="sRGB" filterUnits="userSpaceOnUse"><feFlood flood-opacity="0" result="BackgroundImageFix"/><feColorMatrix in="SourceAlpha" values="0 0 0 0 0 0 0 0 0 0 0 0 0 0 0 0 0 0 127 0"/><feOffset/><feGaussianBlur stdDeviation="3.5"/><feColorMatrix values="0 0 0 0 0 0 0 0 0 0 0 0 0 0 0 0 0 0 0.2 0"/><feBlend in2="BackgroundImageFix" result="effect1_dropShadow"/><feBlend in="SourceGraphic" in2="effect1_dropShadow" result="shape"/></filter><filter id="filter1_d" width="554" height="34" x="5" y="5" color-interpolation-filters="sRGB" filterUnits="userSpaceOnUse"><feFlood flood-opacity="0" result="BackgroundImageFix"/><feColorMatrix in="SourceAlpha" values="0 0 0 0 0 0 0 0 0 0 0 0 0 0 0 0 0 0 127 0"/><feOffset/><feGaussianBlur stdDeviation="1"/><feColorMatrix values="0 0 0 0 0 0 0 0 0 0 0 0 0 0 0 0 0 0 0.15 0"/><feBlend in2="BackgroundImageFix" result="effect1_dropShadow"/><feBlend in="SourceGraphic" in2="effect1_dropShadow" result="shape"/></filter><linearGradient id="paint0_linear" x1="7" x2="7" y1="7" y2="37" gradientUnits="userSpaceOnUse"><stop stop-color="#fff"/><stop offset="1" stop-color="#FAFBFC"/></linearGradient></defs></svg>