<svg xmlns="http://www.w3.org/2000/svg" fill="none" viewBox="0 0 564 414"><g filter="url(#filter0_d)"><rect width="550" height="400" x="7" y="7" fill="#F4F6F9" rx="5"/></g><mask id="a" width="550" height="400" x="7" y="7" maskUnits="userSpaceOnUse"><rect width="550" height="400" x="7" y="7" fill="#fff" rx="5"/></mask><g mask="url(#a)"><g filter="url(#filter1_d)"><path fill="url(#paint0_linear)" d="M7 7h550v30H7z"/></g><path fill="#34C749" fill-rule="evenodd" d="M47 26a4 4 0 100-8 4 4 0 000 8z" clip-rule="evenodd"/><path fill="#FDBC40" fill-rule="evenodd" d="M34 26a4 4 0 100-8 4 4 0 000 8z" clip-rule="evenodd"/><path fill="#FC605C" fill-rule="evenodd" d="M21 26a4 4 0 100-8 4 4 0 000 8z" clip-rule="evenodd"/><path fill="#33A9DC" stroke="#0242BC" stroke-width="2" d="M38 64h98v98H38zM38 164h98v98H38z"/><path fill="#34C749" stroke="#2D770A" stroke-width="2" d="M428 164h98v98h-98z"/><path stroke="#000" stroke-dasharray="1 2" d="M35.5 61.5h493v319h-493z"/></g><defs><filter id="filter0_d" width="564" height="414" x="0" y="0" color-interpolation-filters="sRGB" filterUnits="userSpaceOnUse"><feFlood flood-opacity="0" result="BackgroundImageFix"/><feColorMatrix in="SourceAlpha" values="0 0 0 0 0 0 0 0 0 0 0 0 0 0 0 0 0 0 127 0"/><feOffset/><feGaussianBlur stdDeviation="3.5"/><feColorMatrix values="0 0 0 0 0 0 0 0 0 0 0 0 0 0 0 0 0 0 0.2 0"/><feBlend in2="BackgroundImageFix" result="effect1_dropShadow"/><feBlend in="SourceGraphic" in2="effect1_dropShadow" result="shape"/></filter><filter id="filter1_d" width="554" height="34" x="5" y="5" color-interpolation-filters="sRGB" filterUnits="userSpaceOnUse"><feFlood flood-opacity="0" result="BackgroundImageFix"/><feColorMatrix in="SourceAlpha" values="0 0 0 0 0 0 0 0 0 0 0 0 0 0 0 0 0 0 127 0"/><feOffset/><feGaussianBlur stdDeviation="1"/><feColorMatrix values="0 0 0 0 0 0 0 0 0 0 0 0 0 0 0 0 0 0 0.15 0"/><feBlend in2="BackgroundImageFix" result="effect1_dropShadow"/><feBlend in="SourceGraphic" in2="effect1_dropShadow" result="shape"/></filter><linearGradient id="paint0_linear" x1="7" x2="7" y1="7" y2="37" gradientUnits="userSpaceOnUse"><stop stop-color="#fff"/><stop offset="1" stop-color="#FAFBFC"/></linearGradient></defs></svg>