<svg xmlns="http://www.w3.org/2000/svg" viewBox="0 0 450 450"><defs><linearGradient id="a" x1="2.665%" y1="50%" y2="50%"><stop stop-color="#4D39F7" offset="0%"/><stop offset="100%"/></linearGradient><linearGradient id="b" x1="50%" x2="50%" y1="0%" y2="100%"><stop stop-color="#4D39F7" offset="0%"/><stop offset="100%"/></linearGradient><linearGradient id="c" x1="50%" x2="50%" y1="100%" y2="0%"><stop stop-color="#4D39F7" offset="0%"/><stop offset="100%"/></linearGradient><linearGradient id="d" x1="100%" x2="0%" y1="50%" y2="50%"><stop stop-color="#4D39F7" offset="0%"/><stop offset="100%"/></linearGradient></defs><g fill="none" fill-rule="evenodd"><path fill="#9C99FF" d="M0 0h450v450H0z"/><path fill="#000" d="M200 200v150h150V100H100v300H50V50h350v350H150V150h150v150h-50V200"/><path fill="url(#a)" d="M100 100v250l-50 50V50"/><path fill="url(#b)" d="M350 100H100L50 50h350"/><path fill="url(#c)" d="M100 350v50H50"/><path fill="url(#d)" d="M350 350V100l50-50v350"/><path fill="url(#c)" d="M200 350h150l50 50H150"/><path fill="url(#a)" d="M200 200v150l-50 50V150"/><path fill="url(#b)" d="M200 200l-50-50h150l-50 50"/><path fill="url(#d)" d="M300 150v150l-50-50v-50"/><path fill="url(#c)" d="M250 250l50 50h-50"/></g></svg>
