<svg xmlns="http://www.w3.org/2000/svg" viewBox="0 0 430 275" fill="none"><path fill="#D4D4D4" d="M414.987 0H15C6.716 0 0 6.716 0 15v33.71c0 8.284 6.716 15 15 15h399.987c8.284 0 15-6.716 15-15V15c0-8.284-6.716-15-15-15z"/><path fill="#F5F5F5" fill-rule="evenodd" d="M0 50h429.987v225H0V50z" clip-rule="evenodd"/><path fill="#E96E4C" d="M20.534 31.451a6.044 6.044 0 0 0 6.039-6.048 6.044 6.044 0 0 0-6.039-6.048 6.043 6.043 0 0 0-6.039 6.048 6.043 6.043 0 0 0 6.039 6.048z"/><path fill="#E6AA34" fill-rule="evenodd" d="M39.054 31.452a6.042 6.042 0 0 0 6.04-6.05 6.043 6.043 0 0 0-6.04-6.047 6.045 6.045 0 0 0-6.04 6.048c0 3.34 2.705 6.05 6.04 6.05v-.001z" clip-rule="evenodd"/><path fill="#85C33D" d="M57.575 31.451a6.043 6.043 0 0 0 6.039-6.048 6.043 6.043 0 0 0-6.039-6.048 6.044 6.044 0 0 0-6.039 6.048 6.044 6.044 0 0 0 6.039 6.048z"/><path fill="#fff" fill-rule="evenodd" d="M72.472 11.29h346.255v27.242H72.472V11.29z" clip-rule="evenodd" opacity=".85"/><path fill="#000" fill-rule="evenodd" d="M90.496 108.832c0-4.76-6.35-4.703-6.35-4.703-.578.028-1.187.29-1.187.754 0 .87 1.07 14.864 1.07 15.62 0 .725 1.712.9 1.712.173 0-.32-.145-3.832-.29-7.49 2.03-.03 5.044-.64 5.044-4.355l.001.001zm-5.334-2.584c1.16-.03 3.566.204 3.566 2.7 0 2.7-2 2.613-3.334 2.497l-.232-5.197zm8.32 4.21c-.03-.348-.03-.58-.03-.697.03-.986-2.29-.928-2.318.117-.03 1.017.666 9.436.637 10.336 0 .9 2.118 1.103 2.147.26 0-.608-.232-5.02-.348-8.012.144-.783.666-1.973 1.477-1.973 1.13 0 .812 2.207.812 2.207s2.405.667 2.405-1.626c0-2.73-3.885-2.787-4.783-.61l.001-.002zm9.827-1.51c-2.204 0-4 3.426-4 6.736 0 3.34 1.796 5.284 4 5.284 2.202 0 3.97-1.945 3.97-5.284 0-3.31-1.768-6.736-3.97-6.736zm.028 9.697c-.957 0-2.03-1.103-2.03-2.99 0-1.858.957-4.674 1.914-4.674.928 0 2.03 1.626 2.03 4.762 0 1.858-.986 2.903-1.914 2.903v-.001zm9.276-9.348l-.058-2.15c.03-1.015-2.232-.986-2.29.088 0 .262.03.96.087 1.946h-.84c0-.028-.464.117-.464.523 0 .523.028.93.405.9h.956c.146 2.874.378 6.707.407 7.868h-.03c.03 1.685.87 2.643 3.19 2.585 2.522-.058 2.32-2.207 2.32-2.207s.173-.58-.668-.55c-.84 0-.812.52-.812.52s.144.96-.812.988c-.754 0-1.015-.638-1.073-1.103-.058-2.12-.203-5.545-.29-8.158h1.42s.378.03.378-.406c0-.32 0-.785-.26-.785l-1.566-.059zm8.697-.35c-2.202 0-4 3.427-4 6.737 0 3.34 1.798 5.284 4 5.284 2.204 0 3.972-1.945 3.972-5.284 0-3.31-1.768-6.736-3.97-6.736l-.002-.001zm.03 9.698c-.957 0-2.03-1.103-2.03-2.99 0-1.858.957-4.674 1.914-4.674.928 0 2.03 1.626 2.03 4.762 0 1.858-.986 2.903-1.914 2.903v-.001zm11.827-1.19c-.405 0-.23 1.45-1.855 1.45-1.043 0-1.942-1.915-1.942-4.18 0-2.264.812-4.122 1.826-4.122 1.218 0 1.305 1.597 1.624 1.597.318 0 1.13-.755 1.13-1.132 0-.755-1.275-2.12-2.725-2.12-2.203 0-4 2.7-4 6.01 0 3.31 1.797 6.01 4 6.01 1.97 0 3.305-2.12 3.305-2.67 0-.524-.957-.843-1.363-.843zm6.813-8.507c-2.203 0-4 3.426-4 6.736 0 3.34 1.797 5.284 4 5.284 2.203 0 3.97-1.945 3.97-5.284 0-3.31-1.767-6.736-3.97-6.736zm.03 9.697c-.958 0-2.03-1.103-2.03-2.99 0-1.858.956-4.674 1.913-4.674.927 0 2.03 1.626 2.03 4.762 0 1.858-.987 2.903-1.914 2.903l.001-.001zm5.74-14.284c0 1.017 1.274 14.953 1.274 15.853 0 .87 2 1.045 2 .203 0-.842-.724-15.33-.724-16.287 0-.988-2.55-.784-2.55.231z" clip-rule="evenodd"/><path stroke="#21C9C9" stroke-linecap="round" stroke-width="4" d="M103.747 50.597l9.663 45.968m-9.663-45.968l-.714 11.186 5.872-1.234-5.158-9.952zM80.122 39.516h34.625"/><path stroke="#F76477" stroke-linecap="round" stroke-width="4" d="M214.48 50.597l9.664 45.968M133 38.903h124m-43.233 22.88l.714-11.186 5.16 9.952-5.874 1.234z"/><path fill="#000" fill-rule="evenodd" d="M203.32 109.384s.406-3.455-2.667-3.455c-.986 0-2.377.464-2.377 2.7 0 4.238 8.262 3.686 8.262 8.97 0 4.558-10.29 4.906-10.29.61 0-3.31 2.58-3.02 2.58-2.816l.056 2.467s.58 1.57 2.32 1.57c1.855 0 2.84-.64 2.84-1.86 0-4.238-8-4.005-8-9.086 0-4.878 9.682-5.545 9.682-1.307 0 3.107-2.406 2.207-2.406 2.207zm10.117 7.722s.203 2.15-1.942 2.15c-.812 0-1.566-1.075-1.566-3.282.434 0 5.74.61 5.74-3.89 0-2.555-2.175-3.165-4.262-3.165-2.204 0-4 2.7-4 6.01 0 3.338 1.796 6.01 4 6.01h.232c1.884.202 3.768-.698 3.768-2.817 0-1.597-1.97-1.016-1.97-1.016zm-1.624-6.648c1.77 0 1.74 1.307 1.74 1.83 0 1.857-.9 2.41-3.624 2.41 0 0-.06-4.24 1.883-4.24h.001zm8.523 0c-.03-.348-.03-.58-.03-.697.03-.986-2.29-.928-2.318.117-.03 1.017.667 9.436.638 10.336 0 .9 2.116 1.103 2.145.26 0-.608-.23-5.02-.347-8.012.145-.783.667-1.973 1.48-1.973 1.13 0 .81 2.207.81 2.207s2.406.667 2.406-1.626c0-2.73-3.885-2.787-4.784-.61v-.002zm12.958-.29c-.174.726-1.275 5.574-2.058 8.42-.812-2.846-1.913-7.694-2.058-8.42-.232-.958-2.696-1.016-2.435 0 .232 1.016 3.188 9.435 3.39 10.306.06.203.204.35.378.465.117.115.378.173.668.173.32.03.638-.03.754-.174.203-.117.348-.263.377-.466.2-.87 3.187-9.29 3.42-10.306.23-1.016-2.204-.958-2.436 0v.002zm9.48 6.938s.202 2.15-1.943 2.15c-.81 0-1.564-1.075-1.564-3.282.435 0 5.74.61 5.74-3.89 0-2.555-2.175-3.165-4.262-3.165-2.203 0-4 2.7-4 6.01 0 3.338 1.797 6.01 4 6.01h.232c1.884.202 3.77-.698 3.77-2.817 0-1.597-1.973-1.016-1.973-1.016zm-1.624-6.648c1.768 0 1.74 1.307 1.74 1.83 0 1.857-.9 2.41-3.624 2.41 0 0-.058-4.24 1.884-4.24zm8.523 0c-.03-.348-.03-.58-.03-.697.03-.986-2.29-.928-2.318.117-.03 1.017.666 9.436.637 10.336 0 .9 2.117 1.103 2.146.26 0-.608-.232-5.02-.348-8.012.145-.783.667-1.973 1.478-1.973 1.13 0 .812 2.207.812 2.207s2.406.667 2.406-1.626c0-2.73-3.885-2.787-4.783-.61v-.002z" clip-rule="evenodd"/><path stroke="#FFDB01" stroke-linecap="round" stroke-width="4" d="M325.33 50.597l9.664 45.968M269 38.903h86m-30.383 22.88l.714-11.186 5.16 9.952-5.874 1.234z"/><path fill="#000" fill-rule="evenodd" d="M307.417 108.832c0-4.76-6.348-4.703-6.348-4.703-.58.028-1.19.29-1.19.754 0 .87 1.073 14.864 1.073 15.62 0 .725 1.71.9 1.71.173 0-.32-.145-3.832-.29-7.49 2.03-.03 5.044-.64 5.044-4.355l.001.001zm-5.334-2.584c1.16-.03 3.566.204 3.566 2.7 0 2.7-2 2.613-3.335 2.497l-.232-5.197h.001zm13.596 12.92c-.32-.32-.523-1.887-.58-2.38l-.175-4.907c.03-3.628-7.13-3.715-7.13-.638 0 1.597 2.376 1.016 2.376 1.016s-.26-1.742 1.45-1.742c1.073 0 1.16 2.73 1.16 3.426-.435 0-5.48-.61-5.48 3.832 0 3.397 3.567 3.92 5.857 2.323.84 1.335 1.68.58 1.68.58s1.19-1.16.842-1.51zm-2.755-.407s-.406.64-1.623.64c-1.71 0-1.71-1.306-1.71-1.83 0-1.828 1.45-2.38 3.13-2.38l.203 3.57zm7.71-9.463l-.057-2.15c.03-1.015-2.232-.986-2.29.088 0 .262.03.96.087 1.946h-.84c0-.028-.464.117-.464.523 0 .523.03.93.406.9h.957c.145 2.874.377 6.707.406 7.868h-.03c.03 1.685.87 2.643 3.19 2.585 2.52-.058 2.318-2.207 2.318-2.207s.174-.58-.667-.55c-.84 0-.81.52-.81.52s.144.96-.812.988c-.754 0-1.015-.638-1.073-1.103-.058-2.12-.203-5.545-.29-8.158h1.42s.377.03.377-.406c0-.32 0-.785-.26-.785l-1.566-.058-.002-.001zm10.292 10.48c0 .697.174 1.162 1.073 1.162.61 0 .696-.64.696-.64l.23-9.03c0-.23-.028-.435-.057-.61-.435-1.8-2.754-1.683-2.754-1.683-1.218 0-2 .813-2.465 1.626-.172-3.222-.288-6.068-.288-6.474 0-.988-2.55-.785-2.55.23 0 1.017 1.274 14.953 1.274 15.853 0 .87 2 1.045 2 .203 0-.406-.174-4.15-.348-7.955.29-.58.812-1.276 1.798-1.276.522 0 1.246.145 1.246 2.38l.145 6.213v.001zm16.35-10.48l-.058-2.15c.028-1.015-2.233-.986-2.29.088 0 .262.028.96.086 1.946h-.84c0-.028-.465.117-.465.523 0 .523.03.93.407.9h.957c.145 2.874.377 6.707.406 7.868h-.03c.03 1.685.87 2.643 3.19 2.585 2.52-.058 2.318-2.207 2.318-2.207s.174-.58-.666-.55c-.84 0-.812.52-.812.52s.145.96-.812.988c-.753 0-1.014-.638-1.072-1.103-.058-2.12-.203-5.545-.29-8.158h1.42s.377.03.377-.406c0-.32 0-.785-.26-.785l-1.566-.058v-.001zm8.696-.35c-2.203 0-4 3.427-4 6.737 0 3.34 1.797 5.284 4 5.284 2.204 0 3.972-1.945 3.972-5.284 0-3.31-1.768-6.736-3.972-6.736v-.001zm.03 9.698c-.957 0-2.03-1.103-2.03-2.99 0-1.858.957-4.674 1.914-4.674.927 0 2.03 1.626 2.03 4.762 0 1.858-.987 2.903-1.915 2.903l.001-.001zm14.755-6.997c-.26 0-.232.465-.232.784 0 .436.377.378.377.378h1.16c.29 3.338.608 6.91.608 7.403 0 .87 2 1.045 2 .203 0-.464-.202-4.18-.347-7.606h.232c1.247 0 1.508-.755 1.508-1.25 0-.608-.638-.492-.638-.492l-1.19.145a104.037 104.037 0 0 1-.144-4.326c0-.697.523-2.06 2.09-2.06 2.086 0 1.68 2.612 1.68 2.612s2.406.637 2.406-1.627c0-3.078-8.668-2.816-8.668 1.16 0 .408.174 2.295.348 4.53l-1.188.145-.002.001zm6.986-1.974c-.058 1.016.435 9.697.406 10.597-.058.872 2.058.93 2.116.088.058-.842.058-9.726.116-10.684.058-.958-2.58-1.016-2.638 0v-.001zm4.522-5.313c0 1.017 1.276 14.953 1.276 15.853 0 .87 2 1.045 2 .203 0-.842-.725-15.33-.725-16.287 0-.988-2.55-.785-2.55.23l-.001.001zm11.277 12.746s.203 2.15-1.942 2.15c-.81 0-1.565-1.075-1.565-3.282.435 0 5.74.61 5.74-3.89 0-2.555-2.174-3.165-4.26-3.165-2.204 0-4.002 2.7-4.002 6.01 0 3.338 1.798 6.01 4 6.01h.233c1.884.202 3.768-.698 3.768-2.817 0-1.597-1.97-1.017-1.97-1.017l-.002.001zm-1.623-6.648c1.768 0 1.74 1.307 1.74 1.83 0 1.857-.9 2.41-3.625 2.41 0 0-.058-4.24 1.885-4.24z" clip-rule="evenodd"/><path fill="#000" d="M81.54 22.57c.64-.786 1.473-1.18 2.5-1.18 1.785 0 2.687 1.008 2.702 3.024V30h-1.445v-5.594c-.005-.61-.146-1.06-.422-1.351-.27-.292-.695-.438-1.273-.438-.47 0-.88.125-1.235.375-.354.25-.63.578-.828.985V30h-1.445V18h1.445v4.57zM90.867 19.5v2.047h1.578v1.117h-1.578v5.242c0 .339.07.594.211.766.14.166.38.25.719.25a3.5 3.5 0 0 0 .687-.094V30c-.38.104-.75.156-1.109.156-.646 0-1.133-.195-1.46-.586-.33-.39-.493-.945-.493-1.664v-5.242h-1.54v-1.117h1.54V19.5h1.445zM96.102 19.5v2.047h1.578v1.117h-1.578v5.242c0 .339.07.594.21.766.141.166.38.25.72.25a3.5 3.5 0 0 0 .687-.094V30a4.19 4.19 0 0 1-1.11.156c-.645 0-1.132-.195-1.46-.586-.329-.39-.493-.945-.493-1.664v-5.242h-1.539v-1.117h1.54V19.5h1.445zM106.516 25.867c0 1.287-.295 2.323-.883 3.11-.589.786-1.386 1.18-2.391 1.18-1.026 0-1.833-.326-2.422-.977v4.07h-1.445V21.547h1.32l.071.937c.588-.729 1.406-1.093 2.453-1.093 1.015 0 1.817.382 2.406 1.148.594.766.891 1.83.891 3.195v.133zm-1.446-.164c0-.953-.203-1.706-.609-2.258-.406-.552-.964-.828-1.672-.828-.875 0-1.531.388-1.969 1.164v4.04c.433.77 1.094 1.156 1.985 1.156.692 0 1.242-.274 1.648-.82.412-.553.617-1.37.617-2.454zM113.281 27.758c0-.39-.148-.693-.445-.906-.292-.22-.805-.407-1.539-.563-.729-.156-1.31-.344-1.742-.562-.427-.22-.745-.48-.953-.782-.204-.302-.305-.661-.305-1.078 0-.693.292-1.279.875-1.758.588-.479 1.338-.718 2.25-.718.958 0 1.734.247 2.328.742.599.495.898 1.127.898 1.898h-1.453c0-.396-.169-.737-.507-1.023-.334-.287-.756-.43-1.266-.43-.526 0-.938.115-1.234.344-.297.229-.446.529-.446.898 0 .35.138.612.414.79.276.177.774.346 1.492.507.724.162 1.31.354 1.758.578.448.224.779.495.992.813.219.312.329.695.329 1.148 0 .756-.303 1.362-.907 1.82-.604.454-1.388.68-2.351.68-.677 0-1.276-.12-1.797-.36a2.963 2.963 0 0 1-1.227-1 2.457 2.457 0 0 1-.437-1.398h1.445c.026.485.219.87.578 1.157.365.28.844.422 1.438.422.547 0 .984-.11 1.312-.329.334-.224.5-.52.5-.89zM116.562 29.242c0-.25.073-.458.219-.625.151-.166.375-.25.672-.25.297 0 .521.084.672.25a.88.88 0 0 1 .234.625c0 .24-.078.44-.234.602-.151.161-.375.242-.672.242-.297 0-.521-.08-.672-.242a.864.864 0 0 1-.219-.602zm.008-6.898c0-.25.073-.459.219-.625.151-.167.375-.25.672-.25.297 0 .521.083.672.25a.879.879 0 0 1 .234.625c0 .24-.078.44-.234.601-.151.162-.375.242-.672.242-.297 0-.521-.08-.672-.242a.863.863 0 0 1-.219-.601zM120.773 30.977h-1.242l4.75-12.352h1.235l-4.743 12.352zM125.617 30.977h-1.242l4.75-12.352h1.234l-4.742 12.352zM139.406 28.008l1.625-6.461h1.446L140.016 30h-1.172l-2.055-6.406-2 6.406h-1.172l-2.453-8.453h1.438l1.664 6.328 1.968-6.328h1.164l2.008 6.46zM151.438 28.008l1.624-6.461h1.446L152.047 30h-1.172l-2.055-6.406-2 6.406h-1.172l-2.453-8.453h1.438l1.664 6.328 1.969-6.328h1.164l2.008 6.46zM163.469 28.008l1.625-6.461h1.445L164.078 30h-1.172l-2.054-6.406-2 6.406h-1.172l-2.453-8.453h1.437l1.664 6.328 1.969-6.328h1.164l2.008 6.46zM167.078 29.242c0-.25.073-.458.219-.625.151-.166.375-.25.672-.25.297 0 .521.084.672.25a.88.88 0 0 1 .234.625c0 .24-.078.44-.234.602-.151.161-.375.242-.672.242-.297 0-.521-.08-.672-.242a.864.864 0 0 1-.219-.602zM176.484 29.164c-.562.662-1.388.992-2.476.992-.901 0-1.589-.26-2.063-.781-.468-.526-.705-1.302-.711-2.328v-5.5h1.446v5.46c0 1.282.521 1.923 1.562 1.923 1.104 0 1.839-.412 2.203-1.235v-6.148h1.446V30h-1.375l-.032-.836zM181.461 21.547l.047 1.062c.646-.812 1.489-1.218 2.531-1.218 1.787 0 2.688 1.007 2.703 3.023V30h-1.445v-5.594c-.005-.61-.146-1.06-.422-1.351-.271-.292-.695-.438-1.273-.438-.469 0-.881.125-1.235.375-.354.25-.63.578-.828.985V30h-1.445v-8.453h1.367zM190.492 30h-1.445v-8.453h1.445V30zm-1.562-10.695a.87.87 0 0 1 .211-.594c.145-.162.359-.242.64-.242s.495.08.641.242c.146.161.219.36.219.594 0 .234-.073.43-.219.586-.146.156-.36.234-.641.234s-.495-.078-.64-.234a.841.841 0 0 1-.211-.586zM196.203 28.977c.516 0 .966-.157 1.352-.47.385-.312.599-.702.64-1.171h1.367a2.615 2.615 0 0 1-.5 1.383 3.28 3.28 0 0 1-1.234 1.047c-.51.26-1.052.39-1.625.39-1.151 0-2.068-.383-2.75-1.148-.677-.771-1.015-1.823-1.015-3.156v-.243c0-.823.151-1.554.453-2.195a3.456 3.456 0 0 1 1.297-1.492c.567-.354 1.236-.531 2.007-.531.948 0 1.735.284 2.36.851.63.568.966 1.305 1.007 2.211h-1.367c-.041-.547-.25-.995-.625-1.344-.369-.354-.828-.53-1.375-.53-.734 0-1.304.265-1.711.796-.401.526-.601 1.29-.601 2.29v.273c0 .974.2 1.724.601 2.25.401.526.974.789 1.719.789zM200.805 25.695c0-.828.161-1.573.484-2.234.328-.662.781-1.172 1.359-1.531.584-.36 1.248-.54 1.993-.54 1.151 0 2.08.4 2.789 1.196.713.797 1.07 1.857 1.07 3.18v.101c0 .823-.159 1.563-.477 2.219a3.559 3.559 0 0 1-1.351 1.523c-.583.365-1.255.547-2.016.547-1.146 0-2.075-.398-2.789-1.195-.708-.797-1.062-1.852-1.062-3.164v-.102zm1.453.172c0 .938.216 1.69.648 2.258.438.568 1.021.852 1.75.852.735 0 1.318-.287 1.75-.86.433-.578.649-1.385.649-2.422 0-.927-.222-1.677-.664-2.25-.438-.578-1.021-.867-1.75-.867-.714 0-1.289.284-1.727.852-.437.567-.656 1.38-.656 2.437zM214.398 22.844a4.31 4.31 0 0 0-.71-.055c-.948 0-1.592.404-1.93 1.211v6h-1.446v-8.453h1.407l.023.976c.474-.755 1.146-1.132 2.016-1.132.281 0 .495.036.64.109v1.344zM217.102 21.547l.046 1.062c.646-.812 1.49-1.218 2.532-1.218 1.786 0 2.687 1.007 2.703 3.023V30h-1.445v-5.594c-.006-.61-.146-1.06-.422-1.351-.271-.292-.696-.438-1.274-.438-.469 0-.88.125-1.234.375s-.63.578-.828.985V30h-1.446v-8.453h1.368zM224.594 29.242c0-.25.073-.458.218-.625.152-.166.376-.25.672-.25.297 0 .521.084.672.25a.88.88 0 0 1 .235.625c0 .24-.079.44-.235.602-.151.161-.375.242-.672.242-.296 0-.52-.08-.672-.242a.868.868 0 0 1-.218-.602zM232.172 28.977c.516 0 .966-.157 1.351-.47.386-.312.599-.702.641-1.171h1.367a2.615 2.615 0 0 1-.5 1.383 3.288 3.288 0 0 1-1.234 1.047c-.511.26-1.052.39-1.625.39-1.151 0-2.068-.383-2.75-1.148-.677-.771-1.016-1.823-1.016-3.156v-.243c0-.823.151-1.554.453-2.195a3.462 3.462 0 0 1 1.297-1.492c.568-.354 1.237-.531 2.008-.531.948 0 1.734.284 2.359.851.631.568.967 1.305 1.008 2.211h-1.367c-.042-.547-.25-.995-.625-1.344-.37-.354-.828-.53-1.375-.53-.734 0-1.305.265-1.711.796-.401.526-.601 1.29-.601 2.29v.273c0 .974.2 1.724.601 2.25.401.526.974.789 1.719.789zM236.773 25.695c0-.828.162-1.573.485-2.234.328-.662.781-1.172 1.359-1.531.584-.36 1.248-.54 1.992-.54 1.151 0 2.081.4 2.789 1.196.714.797 1.071 1.857 1.071 3.18v.101c0 .823-.159 1.563-.477 2.219a3.559 3.559 0 0 1-1.351 1.523c-.584.365-1.256.547-2.016.547-1.146 0-2.076-.398-2.789-1.195-.708-.797-1.063-1.852-1.063-3.164v-.102zm1.454.172c0 .938.216 1.69.648 2.258.437.568 1.021.852 1.75.852.734 0 1.318-.287 1.75-.86.432-.578.648-1.385.648-2.422 0-.927-.221-1.677-.664-2.25-.437-.578-1.02-.867-1.75-.867-.713 0-1.289.284-1.726.852-.438.567-.656 1.38-.656 2.437zM247.641 21.547l.039.937c.619-.729 1.455-1.093 2.508-1.093 1.182 0 1.986.453 2.414 1.359a3.208 3.208 0 0 1 1.093-.984c.453-.25.987-.375 1.602-.375 1.854 0 2.797.981 2.828 2.945V30h-1.445v-5.578c0-.604-.138-1.055-.414-1.352-.276-.302-.74-.453-1.391-.453-.536 0-.982.162-1.336.485-.354.317-.56.747-.617 1.289V30h-1.453v-5.54c0-1.228-.602-1.843-1.805-1.843-.948 0-1.596.404-1.945 1.211V30h-1.446v-8.453h1.368zM260.602 30.977h-1.243l4.75-12.352h1.235l-4.742 12.352zM270.992 22.844a4.331 4.331 0 0 0-.711-.055c-.948 0-1.591.404-1.929 1.211v6h-1.446v-8.453h1.406l.024.976c.474-.755 1.146-1.132 2.016-1.132.281 0 .494.036.64.109v1.344zM277.234 30c-.083-.167-.151-.463-.203-.89-.672.697-1.474 1.046-2.406 1.046-.833 0-1.518-.234-2.055-.703-.531-.474-.797-1.073-.797-1.797 0-.88.334-1.562 1-2.047.672-.49 1.615-.734 2.829-.734h1.406v-.664c0-.505-.151-.906-.453-1.203-.302-.302-.748-.453-1.336-.453-.516 0-.948.13-1.297.39s-.524.576-.524.946h-1.453c0-.422.149-.828.446-1.22.302-.395.708-.707 1.218-.937a4.13 4.13 0 0 1 1.696-.343c.974 0 1.737.244 2.289.734.552.484.838 1.154.859 2.008v3.89c0 .776.099 1.394.297 1.852V30h-1.516zm-2.398-1.102a2.54 2.54 0 0 0 1.289-.351c.406-.235.701-.54.883-.914v-1.735h-1.133c-1.771 0-2.656.519-2.656 1.555 0 .453.151.807.453 1.063.302.255.69.382 1.164.382zM282.289 30h-1.445v-8.453h1.445V30zm-1.562-10.695a.87.87 0 0 1 .211-.594c.145-.162.359-.242.64-.242s.495.08.641.242c.146.161.219.36.219.594 0 .234-.073.43-.219.586-.146.156-.36.234-.641.234s-.495-.078-.64-.234a.841.841 0 0 1-.211-.586zM285.977 21.547l.046 1.062c.646-.812 1.49-1.218 2.532-1.218 1.786 0 2.687 1.007 2.703 3.023V30h-1.446v-5.594c-.005-.61-.145-1.06-.421-1.351-.271-.292-.696-.438-1.274-.438-.469 0-.88.125-1.234.375s-.63.578-.828.985V30h-1.446v-8.453h1.368zM300.594 25.867c0 1.292-.297 2.33-.891 3.117-.594.782-1.391 1.172-2.391 1.172-1.067 0-1.893-.377-2.476-1.133l-.07.977h-1.328V18h1.445v4.477c.583-.724 1.388-1.086 2.414-1.086 1.026 0 1.831.388 2.414 1.164.588.776.883 1.838.883 3.187v.125zm-1.446-.164c0-.984-.19-1.745-.57-2.281-.38-.537-.927-.805-1.64-.805-.954 0-1.639.443-2.055 1.328v3.657c.443.885 1.133 1.328 2.07 1.328.693 0 1.232-.268 1.617-.805.386-.537.578-1.344.578-2.422zM302.039 25.695c0-.828.162-1.573.484-2.234.329-.662.782-1.172 1.36-1.531.583-.36 1.247-.54 1.992-.54 1.151 0 2.081.4 2.789 1.196.714.797 1.07 1.857 1.07 3.18v.101c0 .823-.158 1.563-.476 2.219a3.561 3.561 0 0 1-1.352 1.523c-.583.365-1.255.547-2.015.547-1.146 0-2.076-.398-2.789-1.195-.709-.797-1.063-1.852-1.063-3.164v-.102zm1.453.172c0 .938.216 1.69.649 2.258.437.568 1.02.852 1.75.852.734 0 1.317-.287 1.75-.86.432-.578.648-1.385.648-2.422 0-.927-.221-1.677-.664-2.25-.437-.578-1.021-.867-1.75-.867-.714 0-1.289.284-1.727.852-.437.567-.656 1.38-.656 2.437zM319.031 28.008l1.625-6.461h1.446L319.641 30h-1.172l-2.055-6.406-2 6.406h-1.172l-2.453-8.453h1.438l1.664 6.328 1.968-6.328h1.164l2.008 6.46zM322.641 29.242c0-.25.073-.458.218-.625.151-.166.375-.25.672-.25.297 0 .521.084.672.25a.88.88 0 0 1 .235.625c0 .24-.079.44-.235.602-.151.161-.375.242-.672.242-.297 0-.521-.08-.672-.242a.868.868 0 0 1-.218-.602zM328.273 22.57c.641-.786 1.474-1.18 2.5-1.18 1.787 0 2.688 1.008 2.704 3.024V30h-1.446v-5.594c-.005-.61-.146-1.06-.422-1.351-.27-.292-.695-.438-1.273-.438-.469 0-.88.125-1.234.375-.355.25-.631.578-.829.985V30h-1.445V18h1.445v4.57zM337.602 19.5v2.047h1.578v1.117h-1.578v5.242c0 .339.07.594.21.766.141.166.381.25.719.25.167 0 .396-.031.688-.094V30c-.38.104-.75.156-1.11.156-.645 0-1.132-.195-1.461-.586-.328-.39-.492-.945-.492-1.664v-5.242h-1.539v-1.117h1.539V19.5h1.446zM342.234 21.547l.039.937c.62-.729 1.456-1.093 2.508-1.093 1.183 0 1.987.453 2.414 1.359a3.22 3.22 0 0 1 1.094-.984c.453-.25.987-.375 1.602-.375 1.854 0 2.797.981 2.828 2.945V30h-1.446v-5.578c0-.604-.138-1.055-.414-1.352-.276-.302-.739-.453-1.39-.453-.537 0-.982.162-1.336.485-.354.317-.56.747-.617 1.289V30h-1.454v-5.54c0-1.228-.601-1.843-1.804-1.843-.948 0-1.597.404-1.946 1.211V30h-1.445v-8.453h1.367zM356.477 30h-1.446V18h1.446v12z"/></svg>