<svg xmlns="http://www.w3.org/2000/svg" viewBox="0 0 299 325">
  <path fill="#000631" d="M159.92 280.66c34.05 1.04 63.25-15.13 87.57-48.5 8.64-12 12.97-27.92 12.97-47.74 0-13.04-1.63-27.65-4.87-43.82-8.65-43.3-32.43-67.8-71.36-73.55-10.27-1.57-21.9-2.35-34.87-2.35-32.97 0-57.43 7.82-73.38 23.47-15.96 15.65-26.63 39.65-32.04 72-2.16 12.5-3.24 22.94-3.24 31.3 0 21.38 5.67 38.33 17.03 50.85 9.73 10.43 25.67 20.34 47.84 29.73 11.88 5.22 30 8.1 54.32 8.6z"/>
  <path fill="#000631" d="M198.85 74.66c7.88-4.33 34.27-16.47 46.8-19.27 9.3-2.1 27.1-6.97 28.44 2.45 1.57 11.2-12.24 54.44-18.97 64.76-3.94 6.05-15.62 1.4-21.45-2.84-9.47-6.88-29.52-30.9-35.33-38.42-1.36-1.77-1.46-5.6.5-6.7z"/>
  <path fill="#000e66" d="M209.53 84.35c5.33-2.92 23.17-11.13 31.64-13.02 6.27-1.4 18.32-4.7 19.2 1.66 1.08 7.56-8.25 36.8-12.8 43.76-2.67 4.08-10.56.94-14.5-1.93-6.4-4.64-19.95-20.88-23.87-25.96-.92-1.2-1-3.8.33-4.52z"/>
  <path fill="#000631" d="M60.86 123.9c-4.05-8.04-15.28-34.83-17.65-47.46-1.74-9.35-6-27.33 3.44-28.33 11.26-1.18 54 14.1 64.08 21.2 5.9 4.13.86 15.64-3.58 21.33-7.2 9.22-31.9 28.44-39.6 33.98-1.82 1.3-5.67 1.28-6.68-.7z"/>
  <path fill="#000e66" d="M61.34 113.18C58.4 107.38 50.3 88.02 48.6 78.9c-1.28-6.76-4.37-19.75 2.47-20.47 8.13-.86 39 10.18 46.3 15.3 4.26 3 .6 11.3-2.6 15.42-5.2 6.66-23.04 20.55-28.6 24.55-1.32.95-4.1.92-4.83-.52z"/>
  <path fill="#25dd00" d="M179.72 164.96c2.17 2.3 5.2 3.1 9.05 2.4 1.4-.25 2.75-1.05 4.1-2.4.87-.9 1.75-2 2.64-3.32 2.37-3.52 2.46-6.75.28-9.7-.57-.76-1.28-1.58-2.14-2.42-2.17-2.16-4.3-3.22-6.42-3.2-2.1.03-4.44.97-7 2.83-.98.7-1.76 1.35-2.32 1.92-1.45 1.47-2.22 3-2.32 4.6-.07 1.34.3 3.06 1.14 5.15.43 1.13 1.43 2.5 3 4.14zM115.98 162.92c2.16-2.3 2.78-5.37 1.86-9.18-.33-1.37-1.22-2.68-2.65-3.94-.95-.83-2.1-1.64-3.47-2.44-3.66-2.15-6.9-2.05-9.7.3-.73.6-1.5 1.37-2.3 2.28-2 2.3-2.95 4.5-2.8 6.6.16 2.1 1.24 4.38 3.24 6.8.77.95 1.46 1.7 2.06 2.22 1.55 1.36 3.12 2.04 4.72 2.04 1.35 0 3.04-.5 5.08-1.44 1.1-.5 2.42-1.58 3.95-3.24z"/>
  <path fill="#ff2478" d="M129.6 179.06c2.58.17 10.85 1.28 14.32 2.53 2.57.92 7.64 2.47 6.5 4.96-1.33 2.96-11.33 11.32-14.55 12.78-1.88.86-4-2.06-4.76-4-1.22-3.1-2.4-12.02-2.64-14.73-.06-.63.5-1.58 1.15-1.54z"/>
  <path fill="#1f5eff" d="M211.1 192.3l.5.04.5.1.57.1.58.13.58.13.57.12.57.13.57.12.57.13.57.13.56.13.56.13.55.13.56.13.56.14.55.13.56.14.55.14.56.15.54.14.54.14.54.14.54.15.54.15.53.14.53.15.53.16.53.15.52.15.53.16.52.15.52.16.52.17.52.16.52.16.52.16.52.16.5.17.53.16.5.17.52.17.52.18.5.17.52.18.5.18.5.2.5.17.52.18.5.2.5.17.5.2.5.18.5.2.5.2.5.18.5.2.5.2.5.2.5.2.5.2.5.2.5.22.5.2.5.22.5.2.48.22.5.22.5.2.5.23.48.22.5.22.5.22.48.23.5.22.5.23.5.23.48.23.5.25.5.24.5.23.48.24.5.24.5.26.5.24.5.25.48.25.5.26.5.25.5.27.5.26.5.26.5.25.5.27.5.26.5.27.5.27.5.28.52.27.5.28.5.28.52.28.5.3.52.27.52.3.5.28.52.3.52.3.52.28.5.3.54.3.52.3.52.3.52.3.53.32.53.3.53.32.53.32.53.3.53.33.53.32.54.32.54.33.54.33.55.33.55.33.54.33.55.34.56.34.55.35.57.35.3.2.3.18.3.2.3.2.3.2.3.2.3.2.3.2.3.2.28.2.3.2.27.2.3.2.27.22.28.2.28.2.27.22.28.2.27.2.27.22.27.2.26.2.26.22.27.2.25.22.26.2.27.2.26.23.5.42.52.4.5.43.5.4.5.42.48.4.96.8.47.4.47.4.47.4.48.38.47.38.46.38.47.38.23.18.22.18.23.18.23.18.23.18.24.2.4.3.35.35.34.37.32.4.3.4.26.42.24.44.2.46.2.47.15.46.13.5.1.48.06.5.02.5v.5l-.04.5-.06.5-.1.5-.12.5-.16.46-.18.47-.22.46-.24.44-.27.42-.3.4-.32.38-.34.37-.36.34-.4.3-.4.3-.42.27-.45.24-.45.23-.47.18-.47.16-.48.13-.5.08-.5.06-.5.03h-.5l-.5-.03-.5-.07-.5-.1-.48-.12-.48-.16-.48-.2-.45-.2-.44-.25-.42-.27-.4-.3-.25-.2-.27-.2-.26-.2-.26-.22-.27-.2-.27-.22-.5-.4-.52-.43-.5-.4-.5-.4-.48-.42-.5-.4-.48-.42-.96-.8-.47-.4-.47-.4-.46-.37-.47-.4-.46-.38-.47-.37-.22-.18-.23-.2-.23-.17-.24-.18-.22-.18-.23-.17-.22-.18-.22-.18-.23-.18-.22-.17-.22-.17-.22-.17-.22-.16-.23-.17-.2-.16-.23-.16-.23-.16-.22-.16-.22-.15-.22-.15-.22-.15-.23-.15-.22-.15-.2-.14-.23-.15-.22-.13-.22-.14-.23-.14-.53-.34-.54-.33-.54-.33-.54-.33-.53-.32-.53-.33-.52-.32-.52-.3-.52-.33-.52-.3-.52-.32-.5-.3-.52-.3-.5-.3-.5-.3-.52-.3-.5-.3-.5-.3-.5-.28-.5-.3-.48-.27-.5-.28-.5-.3-.48-.26-.48-.28-.5-.27-.47-.26-.48-.27-.48-.27-.5-.26-.46-.26-.48-.26-.47-.26-.48-.25-.47-.24-.47-.26-.47-.24-.45-.25-.47-.23-.46-.25-.47-.23-.46-.25-.47-.24-.46-.22-.46-.23-.44-.23-.46-.23-.46-.24-.45-.22-.46-.22-.46-.22-.45-.22-.45-.2-.46-.23-.45-.2-.45-.22-.45-.2-.45-.2-.44-.22-.45-.2-.45-.2-.45-.2-.45-.2-.45-.18-.45-.2-.45-.2-.44-.18-.46-.2-.45-.17-.46-.2-.45-.17-.46-.18-.44-.18-.45-.18-.45-.18-.45-.17-.46-.17-.46-.17-.45-.17-.46-.18-.45-.17-.47-.17-.45-.16-.46-.16-.45-.17-.46-.17-.45-.16-.46-.15-.47-.16-.46-.16-.46-.15-.46-.15-.46-.15-.47-.15-.46-.15-.47-.15-.47-.14-.47-.15-.47-.13-.48-.14-.47-.15-.47-.14-.48-.13-.48-.13-.5-.14-.47-.13-.5-.14-.48-.13-.5-.13-.5-.13-.48-.13-.5-.13-.5-.12-.5-.12-.5-.13-.52-.12-.5-.1-.52-.14-.5-.12-.53-.12-.52-.12-.52-.1-.52-.13-.52-.12-.53-.1-.53-.13-.54-.1-.55-.13-.5-.12-.47-.15-.47-.18-.46-.2-.45-.24-.44-.26-.4-.3-.4-.3-.37-.34-.36-.36-.33-.38-.3-.4-.26-.43-.25-.43-.23-.46-.2-.46-.15-.48-.14-.48-.1-.5-.07-.5-.03-.5v-.5l.02-.5.05-.5.08-.5.12-.48.15-.48.18-.47.2-.47.24-.44.27-.44.27-.4.32-.4.33-.37.36-.36.37-.33.4-.3.43-.26.43-.25.45-.23.47-.2.47-.16.5-.12.48-.1.5-.07.5-.03h.5l.5.02zM198.67 218.82l.4.03.42.04.4.06.4.1.4.1.38.13.4.14.36.17.37.2.43.24.44.23.43.24.43.25.43.24.43.24.42.24.43.24.43.25.43.24.43.26.43.25.42.25.43.25.43.25.43.25.42.25.42.25.42.26.42.25.42.26.42.26.42.25.4.26.43.26.4.25.43.25.4.26.42.27.42.26.4.25.42.26.4.27.4.27.42.27.4.27.4.27.4.27.4.27.4.27.4.27.4.3.4.26.4.27.4.27.4.28.4.27.38.28.4.28.38.28.4.28.37.28.4.28.37.28.4.28.37.3.4.27.37.28.38.3.37.27.38.3.37.28.37.28.37.3.38.28.37.3.37.3.36.28.37.3.36.3.37.28.36.3.36.3.34.3.36.3.35.3.35.3.35.3.35.3.34.3.35.3.33.3.34.3.34.3.35.32.34.3.32.32.34.3.33.32.32.3.32.32.33.3.32.33.3.32.34.32.3.3.33.33.3.32.33.3.3.33.32.32.3.32.3.33.3.32.3.33.3.32.3.33.3.33.3.33.3.33.27.32.28.33.3.33.27.34.28.33.28.34.28.32.27.34.28.34.26.34.26.34.26.34.27.35.25.34.25.36.26.34.25.35.26.34.34.48.34.48.34.48.34.48.33.5.34.47.32.47.32.48.33.48.33.48.32.5.33.47.63.96.64.95.63.95.63.95 1.25 1.88.62.94.62.93.62.93.3.46.3.46.23.35.2.36.2.35.16.38.13.4.13.38.1.4.1.4.05.42.05.4.02.42v.4l-.02.42-.04.4-.05.42-.1.4-.1.4-.12.4-.14.38-.18.38-.18.36-.2.36-.22.35-.24.35-.26.32-.27.3-.3.3-.3.28-.3.27-.33.25-.35.23-.35.2-.36.2-.38.18-.38.15-.4.14-.38.1-.4.1-.4.08-.42.06-.4.04H251.57l-.42-.03-.4-.05-.42-.07-.4-.1-.4-.1-.38-.14-.38-.16-.38-.17-.36-.2-.35-.2-.36-.23-.33-.24-.3-.27-.3-.28-.3-.3-.26-.3-.26-.33-.24-.33-.32-.48-.32-.48-.64-.95-.63-.94-.63-.95-1.26-1.88-.62-.94-.62-.93-.62-.93-.62-.93-.3-.47-.3-.45-.32-.46-.3-.45-.32-.46-.3-.44-.32-.45-.3-.44-.33-.44-.3-.45-.32-.44-.3-.43-.2-.28-.2-.27-.2-.27-.2-.27-.2-.26-.2-.27-.22-.27-.2-.27-.23-.27-.2-.27-.23-.28-.22-.27-.22-.27-.23-.27-.23-.26-.23-.27-.23-.27-.23-.27-.23-.27-.24-.26-.25-.28-.24-.26-.24-.27-.25-.28-.24-.27-.25-.27-.25-.27-.25-.26-.26-.26-.27-.27-.26-.26-.26-.27-.27-.26-.27-.26-.27-.27-.27-.27-.28-.26-.28-.27-.28-.26-.3-.26-.27-.26-.3-.27-.28-.26-.3-.26-.28-.26-.3-.27-.3-.26-.3-.27-.3-.27-.3-.26-.3-.26-.32-.27-.3-.26-.32-.25-.3-.26-.33-.27-.3-.26-.33-.26-.32-.25-.32-.26-.32-.27-.33-.26-.3-.25-.34-.26-.33-.26-.33-.25-.34-.26-.33-.27-.34-.25-.35-.26-.34-.25-.33-.26-.34-.24-.35-.25-.34-.25-.35-.25-.36-.25-.35-.25-.36-.25-.35-.25-.37-.25-.35-.25-.36-.25-.36-.25-.36-.25-.36-.24-.37-.24-.36-.25-.36-.23-.36-.25-.37-.24-.36-.25-.37-.24-.37-.25-.38-.25-.37-.24-.38-.24-.37-.24-.38-.24-.38-.24-.38-.24-.38-.24-.4-.24-.37-.23-.37-.24-.4-.23-.38-.23-.38-.24-.4-.23-.38-.24-.4-.23-.4-.23-.4-.23-.38-.24-.4-.23-.4-.23-.4-.23-.4-.22-.38-.22-.4-.23-.4-.23-.4-.22-.4-.23-.4-.23-.4-.22-.4-.22-.42-.23-.4-.22-.37-.2-.34-.23-.32-.25-.32-.26-.3-.28-.3-.3-.28-.3-.26-.32-.24-.33-.23-.35-.2-.35-.2-.37-.16-.37-.16-.4-.13-.38-.1-.4-.1-.4-.06-.4-.05-.4-.04-.42V226.3l.05-.4.07-.42.08-.4.1-.4.12-.4.14-.38.17-.38.18-.37.2-.36.2-.36.25-.34.25-.33.27-.3.28-.3.3-.3.3-.26.34-.24.34-.24.35-.22.36-.2.36-.17.38-.16.4-.14.38-.12.4-.1.4-.07.4-.06.42-.04H198.67zM58.23 188.46h17.04l.46.02.45.04.45.06.45.1.44.1.44.15.42.16.42.2.4.2.4.23.37.26.36.27.35.3.32.32.3.32.3.36.27.37.25.38.22.4.2.4.18.43.16.43.12.43.1.44.1.46.04.45.02.46v.45l-.02.45-.05.45-.1.45-.1.45-.12.44-.16.43-.18.42-.2.4-.22.4-.25.38-.27.37-.3.35-.3.34-.32.32-.35.3-.36.28-.38.25-.4.23-.4.2-.42.2-.42.17-.44.14-.44.12-.45.1-.45.05-.46.05H54.64l-.38.02h-.73l-.37.02h-.73l-.37.02h-.36l-.35.02-.37.02h-.36l-.36.03h-.36l-.35.03-.36.02-.37.02-.35.02h-.35l-.36.04-.35.02-.35.03-.35.02-.34.03-.35.03-.35.03-.35.04-.34.04-.36.03-.34.05-.34.04-.35.02-.33.04-.34.04-.34.05-.35.04-.34.03-.33.05-.33.05-.34.04-.34.05-.33.05-.34.05-.34.05-.34.06-.33.05-.35.06-.33.05-.33.05-.34.06-.33.07-.33.06-.34.06-.33.06-.33.06-.33.07-.33.05-.33.07-.32.07-.32.06-.33.07-.33.07-.33.07-.33.08-.33.08-.3.07-.34.08-.33.08-.33.08-.32.08-.33.08-.33.1-.33.07-.33.1-.33.08-.33.08-.32.1-.32.08-.33.1-.33.1-.33.1-.33.1-.32.08-.33.1-.34.1-.33.1-.33.1-.33.1-.33.1-.33.1-.32.12-.33.1-.33.1-.33.12-.34.1-.34.12-.33.12-.34.1-.33.12-.34.12-.34.12-.33.12-.34.12-.35.12-.33.12-.34.12-.34.13-.33.13-.33.12-.34.13-.34.13-.35.13-.34.12-.33.14-.34.13-.35.13-.34.13-.35.14-.35.14-.34.14-.34.14-.35.14-.34.15-.34.15-.35.15-.36.15-.34.15-.35.15-.35.15-.42.17-.44.14-.45.13-.45.1-.45.06-.45.03-.46.02h-.46l-.45-.05-.45-.06-.45-.1-.45-.1-.43-.14-.43-.17-.4-.2-.42-.2-.4-.23-.37-.26-.36-.27-.35-.3-.33-.32-.32-.33-.3-.36-.26-.36-.25-.4-.23-.38-.2-.4-.18-.43-.16-.44-.13-.44-.1-.44-.08-.45-.07-.46-.03-.45v-.46l.03-.46.05-.45.07-.45.1-.45.13-.44.15-.42.18-.42.2-.4.23-.4.24-.4.27-.37.3-.36.3-.34.32-.32.34-.3.36-.28.38-.26.4-.24.4-.2.4-.2.38-.17.38-.16.4-.16.37-.15.38-.16.38-.17.38-.16.4-.15.37-.16.38-.15.38-.14.37-.16.38-.15.38-.15.38-.14.37-.15.4-.14.37-.14.38-.15.37-.14.38-.14.37-.15.38-.14.38-.13.37-.13.38-.14.37-.13.38-.14.37-.13.38-.13.37-.13.38-.13.37-.1.38-.14.37-.13.38-.12.37-.1.38-.13.38-.12.37-.12.38-.12.38-.1.38-.12.37-.12.38-.1.38-.12.38-.1.38-.12.37-.1.4-.12.37-.1.37-.1.38-.1.38-.1.38-.1.38-.1.37-.1.38-.1.4-.1.37-.1.38-.1.38-.08.38-.1.4-.08.37-.1.38-.07.38-.1.38-.07.4-.1.38-.07.38-.08.4-.08.37-.07.38-.08.4-.07.4-.08.37-.07.4-.07.37-.07.4-.07.38-.08.4-.06.38-.07.38-.07.4-.06.4-.06.38-.05.4-.06.38-.07.4-.05.4-.06.38-.05.4-.05.4-.05.4-.05.38-.05.4-.04.4-.05.4-.04.4-.04.4-.04.4-.04.4-.04.4-.04.4-.03.4-.03.4-.03.42-.03.4-.02.4-.03.42-.03.4-.02.42-.03.4-.02.42-.02.4-.02h.42l.42-.03.4-.02h.43l.4-.02.43-.02h.84l.42-.02h1.27l.48-.02H58.24zM89 219.63l.43.04.43.06.42.08.42.12.42.13.4.15.4.17.4.2.36.22.36.22.35.26.33.27.32.3.3.3.3.32.26.34.26.37.23.36.2.38.2.4.16.4.15.4.13.42.1.42.08.43.07.43.03.43v.87l-.04.43-.06.43-.1.42-.1.42-.13.42-.15.4-.17.4-.2.4-.2.36-.25.37-.25.35-.28.33-.3.32-.3.3-.32.3-.34.26-.35.26-.36.23-.4.2-.38.2-.4.16-.4.15-.42.13-.42.1-.43.08-.5.1-.52.08-.5.08-.5.08-.5.08-.52.1-.5.07-.5.08-.5.1-.5.07-.52.1-.5.1-.5.08-.5.1-.52.1-.5.08-.5.1-.5.1-.52.1-.5.1-.5.1-.5.1-.5.1-.5.1-.5.12-.5.1-.5.1-.5.12-.5.1-.5.12-.5.1-.5.13-.5.1-.5.12-.48.12-.5.12-.5.1-.48.14-.5.12-.48.12-.5.13-.47.12-.5.12-.48.13-.48.13-.48.13-.5.14-.47.13-.48.14-.48.14-.48.14-.48.14-.47.14-.47.14-.47.14-.46.15-.47.13-.47.15-.46.14-.46.15-.46.15-.46.15-.46.16-.45.15-.46.16-.46.15-.45.15-.46.16-.44.17-.45.16-.44.17-.43.16-.43.17-.44.17-.43.16-.43.17-.43.18-.42.18-.42.17-.43.18-.4.17-.43.18-.42.18-.4.18-.42.18-.4.2-.4.17-.4.18-.4.2-.4.17-.4.2-.4.18-.4.2-.37.2-.4.2-.37.18-.38.2-.38.2-.37.2-.37.2-.36.2-.36.22-.35.2-.36.2-.37.22-.17.1-.17.1-.2.1-.16.12-.17.1-.17.1-.18.1-.17.12-.16.1-.18.1-.17.12-.17.1-.16.1-.17.12-.16.1-.18.12-.16.1-.16.12-.16.1-.16.12-.16.1-.16.12-.15.1-.15.12-.16.1-.16.12-.16.12-.15.1-.15.12-.15.1-.15.12-.15.12-.15.1-.15.13-.14.1-.16.12-.15.12-.15.1-.15.12-.14.1-.14.13-.14.1-.14.13-.14.12-.13.1-.15.14-.34.27-.35.27-.37.23-.37.2-.4.2-.4.18-.4.15-.42.13-.42.1-.42.1-.43.05-.42.04-.44.02h-.43l-.42-.05-.43-.04-.43-.08-.42-.1-.4-.13-.42-.15-.4-.17-.4-.2-.36-.2-.37-.24-.35-.26-.34-.27-.32-.3-.3-.3-.3-.32-.27-.33-.26-.35-.22-.37-.22-.38-.2-.38-.16-.4-.15-.4-.13-.42-.1-.42-.1-.43-.05-.42-.04-.44v-.85l.04-.43.05-.43.08-.44.1-.42.13-.42.15-.4.17-.4.2-.4.2-.37.24-.36.24-.37.27-.33.3-.33.3-.3.32-.3.18-.15.2-.16.2-.16.18-.16.2-.16.2-.16.18-.16.2-.15.2-.15.2-.15.2-.16.18-.15.2-.17.2-.15.2-.15.2-.15.2-.15.2-.15.2-.15.22-.15.2-.15.2-.14.2-.16.22-.14.2-.15.2-.14.22-.14.2-.14.22-.14.2-.14.23-.14.2-.14.22-.14.2-.14.23-.14.2-.14.22-.13.22-.14.22-.13.2-.14.23-.13.2-.14.23-.14.22-.13.22-.13.22-.14.43-.25.44-.25.45-.26.45-.26.45-.25.45-.26.46-.24.46-.24.45-.24.46-.24.47-.24.47-.23.47-.22.47-.23.48-.23.47-.23.48-.23.47-.22.48-.22.48-.2.48-.23.5-.2.48-.22.5-.2.48-.2.5-.22.48-.2.5-.2.5-.2.5-.2.5-.2.5-.18.5-.2.5-.18.5-.18.5-.2.5-.17.5-.18.52-.18.52-.2.5-.16.52-.18.5-.17.53-.18.52-.17.5-.16.53-.18.52-.16.52-.16.52-.16.52-.16.53-.16.5-.15.54-.16.52-.14.53-.15.52-.14.53-.14.53-.15.53-.14.54-.14.53-.16.53-.13.53-.13.54-.14.53-.13.54-.14.53-.13.54-.13.54-.13.54-.12.53-.13.55-.12.54-.13.53-.12.53-.12.54-.12.54-.1.54-.12.54-.12.54-.1.54-.12.54-.1.54-.12.54-.1.54-.12.53-.1.53-.1.54-.1.54-.1.55-.1.54-.1.53-.1.54-.1.54-.1.55-.1.53-.1.54-.08.54-.1.54-.08.53-.1.54-.08.54-.08.54-.1.53-.07.43-.05.43-.03H89z"/>
  <path fill="#a34cff" d="M129.87 297.12c5.65-8 2.62-19.23-2.68-25.9-5.62-7.1-28.9-17.1-31-16.6-30.12 7.07-23.95 65.16-5.23 69.7 11.2 2.7 32.96-12.97 38.9-27.2M151.25 276.24c-6.87 7-5.7 18.57-1.56 26 4.38 7.9 25.74 21.46 27.9 21.3 30.84-2.2 34.18-60.55 16.45-68-10.6-4.44-34.63 7.6-42.8 20.7"/>
  <path fill="#8410ff" d="M129.57 297.78c-4.24-3.16-6.82-12.55-4.9-16.87 1.92-4.3 10.02-9.2 16.43-9.02 7.04.22 13.8 5.88 13.8 10.27.02 9.42-7.12 13.67-11.72 16-3.93 2.02-9.9 2.38-13.6-.37z"/>
  <path fill="#000631" d="M124.88 106.6c7.58 1 15.47 5.37 22.75 3.02 7.38-2.38 19.1-11.7 21.55-17.3 2.36-5.42-3.77-11.32-6.86-16.36-8.72-14.2-36.02-55.04-45.46-68.86-3.38-4.96-9-9.08-14.7-6.1-4.52 2.4-1.68 10.97 0 17.78 4.5 18.07 15.15 58.55 22.72 87.83"/>
  <path fill="#f540ff" d="M127.42 107.28c6.27 3.02 16.15 4.1 22.1 1.47 5.82-2.56 12.22-8.6 14.23-13.2 1.94-4.44-3.1-9.28-5.62-13.4C150.98 70.5 128.6 37 120.85 25.66c-2.77-4.06-6.54-8.65-9.2-11.55-1.98-2.2-5.63-6.56-6.68-5.86-1.05.7-.1 6.76.38 10.1.64 4.5 2.06 11.3 3.45 16.9 3.68 14.8 12.42 48 18.62 72.02"/>
  <path fill="#000631" d="M155.13 72.85l-2.46.27-.44.53-.36.45-.3.36-.3.37c-.8.94-1.7 1.8-2.65 2.6-.98.83-2 1.6-3.07 2.34-1 .7-2.03 1.32-3.08 1.93-1.46.83-2.96 1.6-4.53 2.2-1.43.6-2.92 1.04-4.43 1.36-3.54.76-7.2.8-10.82.82h-4.57v-7.5h5.34c1.36 0 2.72-.03 4.08-.1 1.52-.1 3.05-.25 4.54-.58 1.06-.23 2.1-.55 3.1-.96 1.2-.47 2.33-1.04 3.44-1.67.85-.48 1.68-.98 2.48-1.53.86-.6 1.7-1.2 2.5-1.87.64-.53 1.26-1.1 1.82-1.7.1-.1.18-.2.26-.3.1-.15.22-.3.33-.43.14-.2.3-.38.44-.56.4-.5.8-.97 1.24-1.42.43-.45.9-.9 1.43-1.2l.28-.12.15-.07.44-.15.4-.1c.08 0 .14 0 .2-.02l3.75-.4.8 7.45zM142.08 49.83l-1.7.2c-.12.2-.24.37-.37.56l-.32.5c-.08.1-.16.24-.24.36l-.22.32c-.73 1-1.57 1.92-2.46 2.8-.9.87-1.87 1.7-2.87 2.46-1.4 1.05-2.86 2.02-4.42 2.8-1.13.57-2.32 1.03-3.54 1.35-1.1.3-2.23.48-3.36.6-1.4.14-2.78.17-4.17.2H114.13v-5.5h3.94c1.1-.02 2.2-.04 3.3-.12 1.07-.08 2.13-.23 3.16-.5.67-.18 1.32-.4 1.95-.7 1.3-.58 2.5-1.35 3.63-2.18.3-.22.6-.45.9-.7.68-.52 1.32-1.08 1.92-1.67.58-.57 1.14-1.15 1.63-1.8l.32-.43.35-.55.38-.56c.25-.37.5-.73.78-1.08.3-.4.63-.76 1.03-1.04.22-.14.45-.25.7-.33.12-.04.15-.06.27-.08l.28-.05 2.73-.35.7 5.46zM127.97 33.44l-1.26.16-.3.4-.25.4-.1.13-.33.42c-.4.5-.88.97-1.36 1.4-.38.37-.8.7-1.2 1.04-.58.46-1.2.9-1.82 1.3-.8.5-1.6.95-2.46 1.33-.67.3-1.37.53-2.08.7-1.9.47-3.84.5-5.77.52h-2.43v-4h2.8c.77 0 1.52-.02 2.27-.08.73-.05 1.45-.14 2.16-.32.46-.1.9-.26 1.33-.44.7-.28 1.37-.66 2-1.07.6-.4 1.18-.8 1.73-1.25.36-.3.7-.6 1.05-.95.3-.28.57-.57.8-.9.08-.08.15-.18.2-.27l.3-.4c.2-.3.4-.56.63-.83.2-.23.4-.46.65-.63.2-.15.44-.26.7-.32.07-.03.15-.04.24-.05l2-.26.5 3.97z"/>
</svg>
