<svg xmlns="http://www.w3.org/2000/svg" viewBox="0 0 534 243" xmlns:xlink="http://www.w3.org/1999/xlink"><defs><path id="a" d="M0 27h100v180H0z"/><mask id="d" width="100" height="180" x="0" y="0" fill="#fff"><use xlink:href="#a"/></mask><path id="b" d="M40.87 10.315h100v180h-100z"/><mask id="e" width="100" height="180" x="0" y="0" fill="#fff"><use xlink:href="#b"/></mask><path id="c" d="M102.29 196.265L.737 213.63l.1-177.265L102.386 19z"/><mask id="f" width="101.651" height="194.63" x="0" y="0" fill="#fff"><use xlink:href="#c"/></mask></defs><g fill="none" fill-rule="evenodd" transform="translate(0 5)"><use fill="#D8D8D8" stroke="#979797" stroke-width="4" mask="url(#d)" xlink:href="#a"/><g transform="translate(168 18)"><use fill="#D8D8D8" stroke="#979797" stroke-width="4" mask="url(#e)" transform="rotate(-10 90.87 100.315)" xlink:href="#b"/><g fill="#979797"><path d="M9.805 31.314c.435 0 .725-.136 1.16-.272 1.016-.545 1.306-1.906.726-2.86C7.485 22.06 8.5 14.027 14.013 8.855c5.513-5.173 13.927-6.125 20.6-2.178 1.016.544 2.32.272 3.047-.68.58-.954.29-2.18-.727-2.86-8.27-4.9-19.004-3.81-25.968 2.723-6.963 6.533-8.124 16.47-2.9 24.365.434.68 1.014 1.09 1.74 1.09z"/><path d="M10.675 33.9c.87 0 1.74-.544 2.03-1.225l3.483-7.895c.435-1.09-.145-2.178-1.16-2.722-1.16-.41-2.322.136-2.902 1.09l-2.61 5.988-6.385-2.45c-1.16-.41-2.32.136-2.9 1.09-.435 1.088.145 2.177 1.16 2.72l8.415 3.268c.29.136.58.136.87.136z"/></g><g fill="#979797"><path d="M176.195 166.686c-.435 0-.725.136-1.16.272-1.016.545-1.306 1.906-.726 2.86 4.206 6.124 3.19 14.156-2.322 19.328-5.513 5.173-13.927 6.125-20.6 2.178-1.016-.544-2.32-.272-3.047.68-.58.954-.29 2.18.727 2.86 8.27 4.9 19.004 3.81 25.968-2.723 6.963-6.533 8.124-16.47 2.9-24.365-.434-.68-1.014-1.09-1.74-1.09z"/><path d="M175.325 164.1c-.87 0-1.74.544-2.03 1.225l-3.483 7.895c-.435 1.09.145 2.178 1.16 2.722 1.16.41 2.322-.136 2.902-1.09l2.61-5.988 6.385 2.45c1.16.41 2.32-.136 2.9-1.09.435-1.088-.145-2.177-1.16-2.72l-8.415-3.268c-.29-.136-.58-.136-.87-.136z"/></g></g><g stroke="#979797" transform="translate(422)"><use fill="#D8D8D8" stroke-width="4" mask="url(#f)" xlink:href="#c"/><path stroke-width="5" d="M52.5 1.5h50M91.7 4.5l10.8-3-10.8-3M51.5 231.13h-50M12.3 228.13l-10.8 3 10.8 3" stroke-linecap="square"/></g></g></svg>
