<svg xmlns="http://www.w3.org/2000/svg" viewBox="0 0 1159 508"><g fill="none" fill-rule="evenodd"><g transform="translate(285.984 1)"><path fill="#F0F0F0" stroke="#A8A8A8" stroke-width="2" d="M88 497c-5.613 0-8-3.463-8-11V22c0-12.27 9.74-22 22-22h664c12.26 0 22 9.73 22 22v464c0 7.537-2.385 11-8 11H88z"/><path fill="#F0F0F0" stroke="#A8A8A8" stroke-width="2" d="M36 506c-20.272 0-28.18-7.013-34-10-1.262-.64-2-1.858-2-3v-14h872v14c0 1.144-.74 2.36-2 3-5.82 2.987-13.728 10-34 10H36z"/><path fill="#F0F0F0" stroke="#A8A8A8" stroke-width="2" d="M384 487c-4.88 0-7.273-5.835-8-8h119c-.727 2.165-3.12 8-8 8H384z"/><circle cx="434.5" cy="17.5" r="3" stroke="#A8A8A8"/><path fill="#FFF" stroke="#A8A8A8" d="M102 35.5c-.316 0-.5.188-.5.527v413.946c0 .34.184.527.5.527h664c.316 0 .5-.188.5-.527V36.027c0-.339-.184-.527-.5-.527H102z"/><g stroke="#443A3A" stroke-linecap="square"><path d="M583.815 67.05v351.685M483.465 67.05v351.685M383.115 67.05v351.685M282.764 67.05v351.685"/><g><path d="M282.764 67.066h301.051M282.764 99.033h301.051M282.764 131h301.051M282.764 162.968h301.051M282.764 194.935h301.051M282.764 226.903h301.051M282.764 258.87h301.051M282.764 290.838h301.051M282.764 322.805h301.051M282.764 354.773h301.051M282.764 386.74h301.051M282.764 418.708h301.051"/></g></g></g><g transform="translate(1.547 68.5)"><g stroke="#A8A8A8" stroke-linecap="round" stroke-linejoin="round"><path d="M183.5 103.93c0 1.067-.859 1.94-1.915 1.94h-17.927c-1.056 0-1.915-.873-1.915-1.94V78.694c0-1.066.859-1.94 1.915-1.94h17.927c1.056 0 1.915.874 1.915 1.94v25.236zM21.257 138.316c0 .803-.646 1.46-1.443 1.46H.944a1.455 1.455 0 0 1-1.444-1.46V112.12c0-.803.646-1.46 1.443-1.46h18.87c.798 0 1.444.657 1.444 1.46v26.196zM21.257 104.41c0 .803-.646 1.46-1.443 1.46H.944A1.455 1.455 0 0 1-.5 104.41V78.215c0-.802.646-1.46 1.443-1.46h18.87c.798 0 1.444.658 1.444 1.46v26.197zM21.257 58.11c0 .798-.646 1.45-1.44 1.45H.94c-.794 0-1.44-.652-1.44-1.45V44.299c0-.797.646-1.45 1.44-1.45h18.877c.794 0 1.44.653 1.44 1.45v13.813z"/></g><path fill="#F0F0F0" stroke="#A8A8A8" stroke-width="2" d="M180 346V25c0-13.414-10.59-24-24-24H27C13.59 1 3 11.586 3 25v321c0 13.414 10.59 24 24 24h129c13.41 0 24-10.586 24-24z"/><path stroke="#A8A8A8" d="M78.5 350c0 8.078 6.123 14.5 13.5 14.5 8.231 0 14.5-6.269 14.5-14.5 0-7.377-6.422-13.5-14.5-13.5-7.232 0-13.5 6.268-13.5 13.5zM113.5 23c0 .794-.793 1.5-1.5 1.5H86c-.707 0-1.5-.706-1.5-1.5s.793-1.5 1.5-1.5h26c.707 0 1.5.706 1.5 1.5z"/><circle cx="73" cy="23" r="3.5" stroke="#A8A8A8"/><path stroke="#A8A8A8" d="M89.5 10.5a2 2 0 1 0 4.001-.001 2 2 0 0 0-4.001.001z"/><path fill="#FFF" stroke="#A8A8A8" d="M174.5 328.993c0 .637-.863 1.507-1.5 1.507H12c-.637 0-1.5-.87-1.5-1.507V41.007c0-.637.863-1.507 1.5-1.507h161c.637 0 1.5.87 1.5 1.507v287.986z"/><g stroke="#443A3A" stroke-linecap="square"><path d="M160.364 57.26v254.882M114.835 57.26v254.882M69.307 57.26v254.882M23.778 57.26v254.882"/><g><path d="M23.62 57.272h136.586M23.62 80.44h136.586M23.62 103.609h136.586M23.62 126.777h136.586M23.62 149.945h136.586M23.62 173.113h136.586M23.62 196.281h136.586M23.62 219.45h136.586M23.62 242.618h136.586M23.62 265.786h136.586M23.62 288.954h136.586M23.62 312.122h136.586"/></g></g></g></g></svg>
