<svg xmlns="http://www.w3.org/2000/svg" viewBox="0 0 1794 948"><g fill="none" fill-rule="evenodd"><path stroke="#BD0FE1" stroke-width="20" d="M190.854 221.97h1215.89s83.46 32.858 83.46 128.626c0 95.77-83.46 121.777-83.46 121.777H100.492S10.3 504.983 10.3 605.803c0 100.82 90.192 133.86 90.192 133.86h1389.712"/><path fill="#BD0FE1" d="M1412.094 780.173v-80.737l108.43 40.37"/><g transform="matrix(0 1 1 0 153.953 557.906)"><rect width="335.1" height="335.1" x=".484" y=".72" fill="#50E3C2" rx="50"/><g fill-rule="nonzero"><path fill="#FFF" stroke="#000" stroke-width="5" d="M154.58 115.976c-2.415-16.596-9.113-39.515-9.888-50.44-.684-9.658 4.77-16.545 13.17-20.365 3.038-1.38 6.602-2.14 10.348-2.14 3.746 0 7.31.76 10.347 2.15 8.402 3.82 13.855 10.71 13.17 20.37-.774 10.93-7.472 33.85-9.888 50.44m-51.67 13.83c-10.39-13.16-27.65-29.66-33.79-38.74-5.42-8.02-4.15-16.71 1.22-24.22 1.94-2.71 4.64-5.15 7.89-7.03 3.24-1.87 6.71-2.99 10.03-3.31 9.18-.89 17.35 2.35 21.59 11.06 4.79 9.85 10.45 33.05 16.65 48.63m-38.04 65.89c-16.6 2.42-39.52 9.12-50.44 9.89-9.66.68-16.55-4.77-20.37-13.17-1.38-3.04-2.14-6.6-2.14-10.35s.76-7.31 2.14-10.35c3.82-8.4 10.7-13.85 20.36-13.17 10.92.78 33.84 7.47 50.44 9.89m.21-.8c-15.58-6.2-38.78-11.86-48.63-16.65-8.71-4.23-11.95-12.4-11.06-21.59.32-3.32 1.44-6.79 3.32-10.03 1.87-3.24 4.31-5.95 7.03-7.89 7.51-5.36 16.2-6.64 24.22-1.22 9.07 6.13 25.57 23.39 38.74 33.78m0 76.08c-13.17 10.39-29.67 27.65-38.74 33.79-8.03 5.426-16.72 4.147-24.23-1.22-2.72-1.94-5.16-4.65-7.03-7.89-1.88-3.25-3-6.713-3.32-10.034-.89-9.186 2.34-17.35 11.05-21.59 9.85-4.79 33.04-10.45 48.62-16.655m37.82 37.83c-6.21 15.58-11.87 38.77-16.66 48.62-4.24 8.71-12.4 11.95-21.59 11.05-3.33-.32-6.79-1.44-10.04-3.317-3.24-1.87-5.95-4.315-7.89-7.03-5.366-7.51-6.64-16.2-1.22-24.22 6.133-9.077 23.393-25.576 33.783-38.74m51.67 13.84c2.412 16.59 9.11 39.51 9.89 50.44.68 9.655-4.77 16.54-13.17 20.36-3.04 1.38-6.6 2.14-10.35 2.14-3.746 0-7.31-.76-10.348-2.14-8.4-3.82-13.85-10.706-13.17-20.365.772-10.92 7.47-33.84 9.89-50.44m51.662-13.84c10.39 13.17 27.65 29.67 33.79 38.74 5.42 8.027 4.14 16.718-1.22 24.227-1.94 2.72-4.65 5.16-7.89 7.03-3.248 1.88-6.71 3-10.037 3.32-9.19.898-17.357-2.34-21.59-11.05-4.79-9.85-10.45-33.042-16.66-48.622m37.83-37.823c15.58 6.206 38.777 11.865 48.625 16.66 8.706 4.233 11.944 12.4 11.05 21.59-.32 3.32-1.443 6.79-3.316 10.03-1.87 3.24-4.317 5.95-7.03 7.89-7.51 5.36-16.2 6.64-24.22 1.22-9.07-6.13-25.57-23.39-38.74-33.78m13.84-51.66c16.596-2.415 39.515-9.11 50.44-9.89 9.66-.68 16.545 4.77 20.365 13.17 1.38 3.04 2.144 6.604 2.144 10.35 0 3.75-.76 7.31-2.14 10.35-3.82 8.4-10.706 13.854-20.365 13.17-10.93-.775-33.848-7.47-50.44-9.89m-38.04-65.89c6.2-15.58 11.86-38.78 16.65-48.628 4.23-8.706 12.4-11.943 21.59-11.05 3.32.32 6.79 1.444 10.03 3.316 3.24 1.87 5.95 4.31 7.89 7.03 5.36 7.51 6.64 16.2 1.22 24.22-6.137 9.07-23.397 25.57-33.787 38.74m.61.59c13.16-10.39 29.66-27.65 38.73-33.79 8.025-5.423 16.715-4.143 24.224 1.22 2.713 1.94 5.154 4.647 7.03 7.89 1.87 3.24 2.992 6.71 3.32 10.03.89 9.19-2.35 17.35-11.05 21.59-9.85 4.797-33.05 10.45-48.63 16.66"/><path fill="#FFD800" stroke="#020000" stroke-width="6" d="M221.937 168.445c0 29.67-24.054 53.725-53.725 53.725-29.672 0-53.725-24.054-53.725-53.725 0-29.672 24.053-53.726 53.725-53.726 29.67 0 53.725 24.05 53.725 53.72z"/></g></g><g transform="matrix(0 1 1 0 594.87 557.906)"><rect width="335.1" height="335.1" x=".484" y=".72" fill="#50E3C2" rx="50"/><g fill-rule="nonzero"><path fill="#FFF" stroke="#000" stroke-width="5" d="M154.58 115.976c-2.415-16.596-9.113-39.515-9.888-50.44-.684-9.658 4.77-16.545 13.17-20.365 3.038-1.38 6.602-2.14 10.348-2.14 3.746 0 7.31.76 10.347 2.15 8.402 3.82 13.855 10.71 13.17 20.37-.774 10.93-7.472 33.85-9.888 50.44m-51.67 13.83c-10.39-13.16-27.65-29.66-33.79-38.74-5.42-8.02-4.15-16.71 1.22-24.22 1.94-2.71 4.64-5.15 7.89-7.03 3.24-1.87 6.71-2.99 10.03-3.31 9.18-.89 17.35 2.35 21.59 11.06 4.79 9.85 10.45 33.05 16.65 48.63m-38.04 65.89c-16.6 2.42-39.52 9.12-50.44 9.89-9.66.68-16.55-4.77-20.37-13.17-1.38-3.04-2.14-6.6-2.14-10.35s.76-7.31 2.14-10.35c3.82-8.4 10.7-13.85 20.36-13.17 10.92.78 33.84 7.47 50.44 9.89m.21-.8c-15.58-6.2-38.78-11.86-48.63-16.65-8.71-4.23-11.95-12.4-11.06-21.59.32-3.32 1.44-6.79 3.32-10.03 1.87-3.24 4.31-5.95 7.03-7.89 7.51-5.36 16.2-6.64 24.22-1.22 9.07 6.13 25.57 23.39 38.74 33.78m0 76.08c-13.17 10.39-29.67 27.65-38.74 33.79-8.03 5.426-16.72 4.147-24.23-1.22-2.72-1.94-5.16-4.65-7.03-7.89-1.88-3.25-3-6.713-3.32-10.034-.89-9.186 2.34-17.35 11.05-21.59 9.85-4.79 33.04-10.45 48.62-16.655m37.82 37.83c-6.21 15.58-11.87 38.77-16.66 48.62-4.24 8.71-12.4 11.95-21.59 11.05-3.33-.32-6.79-1.44-10.04-3.317-3.24-1.87-5.95-4.315-7.89-7.03-5.366-7.51-6.64-16.2-1.22-24.22 6.133-9.077 23.393-25.576 33.783-38.74m51.67 13.84c2.412 16.59 9.11 39.51 9.89 50.44.68 9.655-4.77 16.54-13.17 20.36-3.04 1.38-6.6 2.14-10.35 2.14-3.746 0-7.31-.76-10.348-2.14-8.4-3.82-13.85-10.706-13.17-20.365.772-10.92 7.47-33.84 9.89-50.44m51.662-13.84c10.39 13.17 27.65 29.67 33.79 38.74 5.42 8.027 4.14 16.718-1.22 24.227-1.94 2.72-4.65 5.16-7.89 7.03-3.248 1.88-6.71 3-10.037 3.32-9.19.898-17.357-2.34-21.59-11.05-4.79-9.85-10.45-33.042-16.66-48.622m37.83-37.823c15.58 6.206 38.777 11.865 48.625 16.66 8.706 4.233 11.944 12.4 11.05 21.59-.32 3.32-1.443 6.79-3.316 10.03-1.87 3.24-4.317 5.95-7.03 7.89-7.51 5.36-16.2 6.64-24.22 1.22-9.07-6.13-25.57-23.39-38.74-33.78m13.84-51.66c16.596-2.415 39.515-9.11 50.44-9.89 9.66-.68 16.545 4.77 20.365 13.17 1.38 3.04 2.144 6.604 2.144 10.35 0 3.75-.76 7.31-2.14 10.35-3.82 8.4-10.706 13.854-20.365 13.17-10.93-.775-33.848-7.47-50.44-9.89m-38.04-65.89c6.2-15.58 11.86-38.78 16.65-48.628 4.23-8.706 12.4-11.943 21.59-11.05 3.32.32 6.79 1.444 10.03 3.316 3.24 1.87 5.95 4.31 7.89 7.03 5.36 7.51 6.64 16.2 1.22 24.22-6.137 9.07-23.397 25.57-33.787 38.74m.61.59c13.16-10.39 29.66-27.65 38.73-33.79 8.025-5.423 16.715-4.143 24.224 1.22 2.713 1.94 5.154 4.647 7.03 7.89 1.87 3.24 2.992 6.71 3.32 10.03.89 9.19-2.35 17.35-11.05 21.59-9.85 4.797-33.05 10.45-48.63 16.66"/><path fill="#FFD800" stroke="#020000" stroke-width="6" d="M221.937 168.445c0 29.67-24.054 53.725-53.725 53.725-29.672 0-53.725-24.054-53.725-53.725 0-29.672 24.053-53.726 53.725-53.726 29.67 0 53.725 24.05 53.725 53.72z"/></g></g><g transform="matrix(0 1 1 0 1035.79 557.906)"><rect width="335.1" height="335.1" x=".484" y=".72" fill="#50E3C2" rx="50"/><g fill-rule="nonzero"><path fill="#FFF" stroke="#000" stroke-width="5" d="M154.58 115.976c-2.415-16.596-9.113-39.515-9.888-50.44-.684-9.658 4.77-16.545 13.17-20.365 3.038-1.38 6.602-2.14 10.348-2.14 3.746 0 7.31.76 10.347 2.15 8.402 3.82 13.855 10.71 13.17 20.37-.774 10.93-7.472 33.85-9.888 50.44m-51.67 13.83c-10.39-13.16-27.65-29.66-33.79-38.74-5.42-8.02-4.15-16.71 1.22-24.22 1.94-2.71 4.64-5.15 7.89-7.03 3.24-1.87 6.71-2.99 10.03-3.31 9.18-.89 17.35 2.35 21.59 11.06 4.79 9.85 10.45 33.05 16.65 48.63m-38.04 65.89c-16.6 2.42-39.52 9.12-50.44 9.89-9.66.68-16.55-4.77-20.37-13.17-1.38-3.04-2.14-6.6-2.14-10.35s.76-7.31 2.14-10.35c3.82-8.4 10.7-13.85 20.36-13.17 10.92.78 33.84 7.47 50.44 9.89m.21-.8c-15.58-6.2-38.78-11.86-48.63-16.65-8.71-4.23-11.95-12.4-11.06-21.59.32-3.32 1.44-6.79 3.32-10.03 1.87-3.24 4.31-5.95 7.03-7.89 7.51-5.36 16.2-6.64 24.22-1.22 9.07 6.13 25.57 23.39 38.74 33.78m0 76.08c-13.17 10.39-29.67 27.65-38.74 33.79-8.03 5.426-16.72 4.147-24.23-1.22-2.72-1.94-5.16-4.65-7.03-7.89-1.88-3.25-3-6.713-3.32-10.034-.89-9.186 2.34-17.35 11.05-21.59 9.85-4.79 33.04-10.45 48.62-16.655m37.82 37.83c-6.21 15.58-11.87 38.77-16.66 48.62-4.24 8.71-12.4 11.95-21.59 11.05-3.33-.32-6.79-1.44-10.04-3.317-3.24-1.87-5.95-4.315-7.89-7.03-5.366-7.51-6.64-16.2-1.22-24.22 6.133-9.077 23.393-25.576 33.783-38.74m51.67 13.84c2.412 16.59 9.11 39.51 9.89 50.44.68 9.655-4.77 16.54-13.17 20.36-3.04 1.38-6.6 2.14-10.35 2.14-3.746 0-7.31-.76-10.348-2.14-8.4-3.82-13.85-10.706-13.17-20.365.772-10.92 7.47-33.84 9.89-50.44m51.662-13.84c10.39 13.17 27.65 29.67 33.79 38.74 5.42 8.027 4.14 16.718-1.22 24.227-1.94 2.72-4.65 5.16-7.89 7.03-3.248 1.88-6.71 3-10.037 3.32-9.19.898-17.357-2.34-21.59-11.05-4.79-9.85-10.45-33.042-16.66-48.622m37.83-37.823c15.58 6.206 38.777 11.865 48.625 16.66 8.706 4.233 11.944 12.4 11.05 21.59-.32 3.32-1.443 6.79-3.316 10.03-1.87 3.24-4.317 5.95-7.03 7.89-7.51 5.36-16.2 6.64-24.22 1.22-9.07-6.13-25.57-23.39-38.74-33.78m13.84-51.66c16.596-2.415 39.515-9.11 50.44-9.89 9.66-.68 16.545 4.77 20.365 13.17 1.38 3.04 2.144 6.604 2.144 10.35 0 3.75-.76 7.31-2.14 10.35-3.82 8.4-10.706 13.854-20.365 13.17-10.93-.775-33.848-7.47-50.44-9.89m-38.04-65.89c6.2-15.58 11.86-38.78 16.65-48.628 4.23-8.706 12.4-11.943 21.59-11.05 3.32.32 6.79 1.444 10.03 3.316 3.24 1.87 5.95 4.31 7.89 7.03 5.36 7.51 6.64 16.2 1.22 24.22-6.137 9.07-23.397 25.57-33.787 38.74m.61.59c13.16-10.39 29.66-27.65 38.73-33.79 8.025-5.423 16.715-4.143 24.224 1.22 2.713 1.94 5.154 4.647 7.03 7.89 1.87 3.24 2.992 6.71 3.32 10.03.89 9.19-2.35 17.35-11.05 21.59-9.85 4.797-33.05 10.45-48.63 16.66"/><path fill="#FFD800" stroke="#020000" stroke-width="6" d="M221.937 168.445c0 29.67-24.054 53.725-53.725 53.725-29.672 0-53.725-24.054-53.725-53.725 0-29.672 24.053-53.726 53.725-53.726 29.67 0 53.725 24.05 53.725 53.72z"/></g></g><g transform="matrix(0 1 1 0 153.953 54)"><rect width="335.1" height="335.1" x=".484" y=".72" fill="#50E3C2" rx="50"/><g fill-rule="nonzero"><path fill="#FFF" stroke="#000" stroke-width="5" d="M154.58 115.976c-2.415-16.596-9.113-39.515-9.888-50.44-.684-9.658 4.77-16.545 13.17-20.365 3.038-1.38 6.602-2.14 10.348-2.14 3.746 0 7.31.76 10.347 2.15 8.402 3.82 13.855 10.71 13.17 20.37-.774 10.93-7.472 33.85-9.888 50.44m-51.67 13.83c-10.39-13.16-27.65-29.66-33.79-38.74-5.42-8.02-4.15-16.71 1.22-24.22 1.94-2.71 4.64-5.15 7.89-7.03 3.24-1.87 6.71-2.99 10.03-3.31 9.18-.89 17.35 2.35 21.59 11.06 4.79 9.85 10.45 33.05 16.65 48.63m-38.04 65.89c-16.6 2.42-39.52 9.12-50.44 9.89-9.66.68-16.55-4.77-20.37-13.17-1.38-3.04-2.14-6.6-2.14-10.35s.76-7.31 2.14-10.35c3.82-8.4 10.7-13.85 20.36-13.17 10.92.78 33.84 7.47 50.44 9.89m.21-.8c-15.58-6.2-38.78-11.86-48.63-16.65-8.71-4.23-11.95-12.4-11.06-21.59.32-3.32 1.44-6.79 3.32-10.03 1.87-3.24 4.31-5.95 7.03-7.89 7.51-5.36 16.2-6.64 24.22-1.22 9.07 6.13 25.57 23.39 38.74 33.78m0 76.08c-13.17 10.39-29.67 27.65-38.74 33.79-8.03 5.426-16.72 4.147-24.23-1.22-2.72-1.94-5.16-4.65-7.03-7.89-1.88-3.25-3-6.713-3.32-10.034-.89-9.186 2.34-17.35 11.05-21.59 9.85-4.79 33.04-10.45 48.62-16.655m37.82 37.83c-6.21 15.58-11.87 38.77-16.66 48.62-4.24 8.71-12.4 11.95-21.59 11.05-3.33-.32-6.79-1.44-10.04-3.317-3.24-1.87-5.95-4.315-7.89-7.03-5.366-7.51-6.64-16.2-1.22-24.22 6.133-9.077 23.393-25.576 33.783-38.74m51.67 13.84c2.412 16.59 9.11 39.51 9.89 50.44.68 9.655-4.77 16.54-13.17 20.36-3.04 1.38-6.6 2.14-10.35 2.14-3.746 0-7.31-.76-10.348-2.14-8.4-3.82-13.85-10.706-13.17-20.365.772-10.92 7.47-33.84 9.89-50.44m51.662-13.84c10.39 13.17 27.65 29.67 33.79 38.74 5.42 8.027 4.14 16.718-1.22 24.227-1.94 2.72-4.65 5.16-7.89 7.03-3.248 1.88-6.71 3-10.037 3.32-9.19.898-17.357-2.34-21.59-11.05-4.79-9.85-10.45-33.042-16.66-48.622m37.83-37.823c15.58 6.206 38.777 11.865 48.625 16.66 8.706 4.233 11.944 12.4 11.05 21.59-.32 3.32-1.443 6.79-3.316 10.03-1.87 3.24-4.317 5.95-7.03 7.89-7.51 5.36-16.2 6.64-24.22 1.22-9.07-6.13-25.57-23.39-38.74-33.78m13.84-51.66c16.596-2.415 39.515-9.11 50.44-9.89 9.66-.68 16.545 4.77 20.365 13.17 1.38 3.04 2.144 6.604 2.144 10.35 0 3.75-.76 7.31-2.14 10.35-3.82 8.4-10.706 13.854-20.365 13.17-10.93-.775-33.848-7.47-50.44-9.89m-38.04-65.89c6.2-15.58 11.86-38.78 16.65-48.628 4.23-8.706 12.4-11.943 21.59-11.05 3.32.32 6.79 1.444 10.03 3.316 3.24 1.87 5.95 4.31 7.89 7.03 5.36 7.51 6.64 16.2 1.22 24.22-6.137 9.07-23.397 25.57-33.787 38.74m.61.59c13.16-10.39 29.66-27.65 38.73-33.79 8.025-5.423 16.715-4.143 24.224 1.22 2.713 1.94 5.154 4.647 7.03 7.89 1.87 3.24 2.992 6.71 3.32 10.03.89 9.19-2.35 17.35-11.05 21.59-9.85 4.797-33.05 10.45-48.63 16.66"/><path fill="#FFD800" stroke="#020000" stroke-width="6" d="M221.937 168.445c0 29.67-24.054 53.725-53.725 53.725-29.672 0-53.725-24.054-53.725-53.725 0-29.672 24.053-53.726 53.725-53.726 29.67 0 53.725 24.05 53.725 53.72z"/></g></g><g transform="matrix(0 1 1 0 594.87 54)"><rect width="335.1" height="335.1" x=".484" y=".72" fill="#50E3C2" rx="50"/><g fill-rule="nonzero"><path fill="#FFF" stroke="#000" stroke-width="5" d="M154.58 115.976c-2.415-16.596-9.113-39.515-9.888-50.44-.684-9.658 4.77-16.545 13.17-20.365 3.038-1.38 6.602-2.14 10.348-2.14 3.746 0 7.31.76 10.347 2.15 8.402 3.82 13.855 10.71 13.17 20.37-.774 10.93-7.472 33.85-9.888 50.44m-51.67 13.83c-10.39-13.16-27.65-29.66-33.79-38.74-5.42-8.02-4.15-16.71 1.22-24.22 1.94-2.71 4.64-5.15 7.89-7.03 3.24-1.87 6.71-2.99 10.03-3.31 9.18-.89 17.35 2.35 21.59 11.06 4.79 9.85 10.45 33.05 16.65 48.63m-38.04 65.89c-16.6 2.42-39.52 9.12-50.44 9.89-9.66.68-16.55-4.77-20.37-13.17-1.38-3.04-2.14-6.6-2.14-10.35s.76-7.31 2.14-10.35c3.82-8.4 10.7-13.85 20.36-13.17 10.92.78 33.84 7.47 50.44 9.89m.21-.8c-15.58-6.2-38.78-11.86-48.63-16.65-8.71-4.23-11.95-12.4-11.06-21.59.32-3.32 1.44-6.79 3.32-10.03 1.87-3.24 4.31-5.95 7.03-7.89 7.51-5.36 16.2-6.64 24.22-1.22 9.07 6.13 25.57 23.39 38.74 33.78m0 76.08c-13.17 10.39-29.67 27.65-38.74 33.79-8.03 5.426-16.72 4.147-24.23-1.22-2.72-1.94-5.16-4.65-7.03-7.89-1.88-3.25-3-6.713-3.32-10.034-.89-9.186 2.34-17.35 11.05-21.59 9.85-4.79 33.04-10.45 48.62-16.655m37.82 37.83c-6.21 15.58-11.87 38.77-16.66 48.62-4.24 8.71-12.4 11.95-21.59 11.05-3.33-.32-6.79-1.44-10.04-3.317-3.24-1.87-5.95-4.315-7.89-7.03-5.366-7.51-6.64-16.2-1.22-24.22 6.133-9.077 23.393-25.576 33.783-38.74m51.67 13.84c2.412 16.59 9.11 39.51 9.89 50.44.68 9.655-4.77 16.54-13.17 20.36-3.04 1.38-6.6 2.14-10.35 2.14-3.746 0-7.31-.76-10.348-2.14-8.4-3.82-13.85-10.706-13.17-20.365.772-10.92 7.47-33.84 9.89-50.44m51.662-13.84c10.39 13.17 27.65 29.67 33.79 38.74 5.42 8.027 4.14 16.718-1.22 24.227-1.94 2.72-4.65 5.16-7.89 7.03-3.248 1.88-6.71 3-10.037 3.32-9.19.898-17.357-2.34-21.59-11.05-4.79-9.85-10.45-33.042-16.66-48.622m37.83-37.823c15.58 6.206 38.777 11.865 48.625 16.66 8.706 4.233 11.944 12.4 11.05 21.59-.32 3.32-1.443 6.79-3.316 10.03-1.87 3.24-4.317 5.95-7.03 7.89-7.51 5.36-16.2 6.64-24.22 1.22-9.07-6.13-25.57-23.39-38.74-33.78m13.84-51.66c16.596-2.415 39.515-9.11 50.44-9.89 9.66-.68 16.545 4.77 20.365 13.17 1.38 3.04 2.144 6.604 2.144 10.35 0 3.75-.76 7.31-2.14 10.35-3.82 8.4-10.706 13.854-20.365 13.17-10.93-.775-33.848-7.47-50.44-9.89m-38.04-65.89c6.2-15.58 11.86-38.78 16.65-48.628 4.23-8.706 12.4-11.943 21.59-11.05 3.32.32 6.79 1.444 10.03 3.316 3.24 1.87 5.95 4.31 7.89 7.03 5.36 7.51 6.64 16.2 1.22 24.22-6.137 9.07-23.397 25.57-33.787 38.74m.61.59c13.16-10.39 29.66-27.65 38.73-33.79 8.025-5.423 16.715-4.143 24.224 1.22 2.713 1.94 5.154 4.647 7.03 7.89 1.87 3.24 2.992 6.71 3.32 10.03.89 9.19-2.35 17.35-11.05 21.59-9.85 4.797-33.05 10.45-48.63 16.66"/><path fill="#FFD800" stroke="#020000" stroke-width="6" d="M221.937 168.445c0 29.67-24.054 53.725-53.725 53.725-29.672 0-53.725-24.054-53.725-53.725 0-29.672 24.053-53.726 53.725-53.726 29.67 0 53.725 24.05 53.725 53.72z"/></g></g><g transform="matrix(0 1 1 0 1035.79 54)"><rect width="335.1" height="335.1" x=".484" y=".72" fill="#50E3C2" rx="50"/><g fill-rule="nonzero"><path fill="#FFF" stroke="#000" stroke-width="5" d="M154.58 115.976c-2.415-16.596-9.113-39.515-9.888-50.44-.684-9.658 4.77-16.545 13.17-20.365 3.038-1.38 6.602-2.14 10.348-2.14 3.746 0 7.31.76 10.347 2.15 8.402 3.82 13.855 10.71 13.17 20.37-.774 10.93-7.472 33.85-9.888 50.44m-51.67 13.83c-10.39-13.16-27.65-29.66-33.79-38.74-5.42-8.02-4.15-16.71 1.22-24.22 1.94-2.71 4.64-5.15 7.89-7.03 3.24-1.87 6.71-2.99 10.03-3.31 9.18-.89 17.35 2.35 21.59 11.06 4.79 9.85 10.45 33.05 16.65 48.63m-38.04 65.89c-16.6 2.42-39.52 9.12-50.44 9.89-9.66.68-16.55-4.77-20.37-13.17-1.38-3.04-2.14-6.6-2.14-10.35s.76-7.31 2.14-10.35c3.82-8.4 10.7-13.85 20.36-13.17 10.92.78 33.84 7.47 50.44 9.89m.21-.8c-15.58-6.2-38.78-11.86-48.63-16.65-8.71-4.23-11.95-12.4-11.06-21.59.32-3.32 1.44-6.79 3.32-10.03 1.87-3.24 4.31-5.95 7.03-7.89 7.51-5.36 16.2-6.64 24.22-1.22 9.07 6.13 25.57 23.39 38.74 33.78m0 76.08c-13.17 10.39-29.67 27.65-38.74 33.79-8.03 5.426-16.72 4.147-24.23-1.22-2.72-1.94-5.16-4.65-7.03-7.89-1.88-3.25-3-6.713-3.32-10.034-.89-9.186 2.34-17.35 11.05-21.59 9.85-4.79 33.04-10.45 48.62-16.655m37.82 37.83c-6.21 15.58-11.87 38.77-16.66 48.62-4.24 8.71-12.4 11.95-21.59 11.05-3.33-.32-6.79-1.44-10.04-3.317-3.24-1.87-5.95-4.315-7.89-7.03-5.366-7.51-6.64-16.2-1.22-24.22 6.133-9.077 23.393-25.576 33.783-38.74m51.67 13.84c2.412 16.59 9.11 39.51 9.89 50.44.68 9.655-4.77 16.54-13.17 20.36-3.04 1.38-6.6 2.14-10.35 2.14-3.746 0-7.31-.76-10.348-2.14-8.4-3.82-13.85-10.706-13.17-20.365.772-10.92 7.47-33.84 9.89-50.44m51.662-13.84c10.39 13.17 27.65 29.67 33.79 38.74 5.42 8.027 4.14 16.718-1.22 24.227-1.94 2.72-4.65 5.16-7.89 7.03-3.248 1.88-6.71 3-10.037 3.32-9.19.898-17.357-2.34-21.59-11.05-4.79-9.85-10.45-33.042-16.66-48.622m37.83-37.823c15.58 6.206 38.777 11.865 48.625 16.66 8.706 4.233 11.944 12.4 11.05 21.59-.32 3.32-1.443 6.79-3.316 10.03-1.87 3.24-4.317 5.95-7.03 7.89-7.51 5.36-16.2 6.64-24.22 1.22-9.07-6.13-25.57-23.39-38.74-33.78m13.84-51.66c16.596-2.415 39.515-9.11 50.44-9.89 9.66-.68 16.545 4.77 20.365 13.17 1.38 3.04 2.144 6.604 2.144 10.35 0 3.75-.76 7.31-2.14 10.35-3.82 8.4-10.706 13.854-20.365 13.17-10.93-.775-33.848-7.47-50.44-9.89m-38.04-65.89c6.2-15.58 11.86-38.78 16.65-48.628 4.23-8.706 12.4-11.943 21.59-11.05 3.32.32 6.79 1.444 10.03 3.316 3.24 1.87 5.95 4.31 7.89 7.03 5.36 7.51 6.64 16.2 1.22 24.22-6.137 9.07-23.397 25.57-33.787 38.74m.61.59c13.16-10.39 29.66-27.65 38.73-33.79 8.025-5.423 16.715-4.143 24.224 1.22 2.713 1.94 5.154 4.647 7.03 7.89 1.87 3.24 2.992 6.71 3.32 10.03.89 9.19-2.35 17.35-11.05 21.59-9.85 4.797-33.05 10.45-48.63 16.66"/><path fill="#FFD800" stroke="#020000" stroke-width="6" d="M221.937 168.445c0 29.67-24.054 53.725-53.725 53.725-29.672 0-53.725-24.054-53.725-53.725 0-29.672 24.053-53.726 53.725-53.726 29.67 0 53.725 24.05 53.725 53.72z"/></g></g><path fill="#B8E986" fill-rule="nonzero" d="M1600.382 0h118.248v770.49h-118.248"/><path fill="#B8E986" fill-rule="nonzero" d="M1793.947 766.615l-135.406 181.35L1522 764.925"/><text fill="#000" transform="rotate(90 909.88 1197.053)" font-family="Helvetica-Bold, Helvetica" font-size="80" font-weight="bold"><tspan x="-226.87" y="466.303">block flow direction</tspan></text></g></svg>
