<svg xmlns="http://www.w3.org/2000/svg" viewBox="0 0 1448 1379"><g fill="none" fill-rule="evenodd"><path stroke="#BD0FE1" stroke-width="20" d="M220.45 476.154v822.227s25.533 58.97 125.962 58.97c100.428 0 125.962-58.96 125.962-58.96V375.52s32.83-63.72 125.962-63.72c93.133 0 125.962 63.72 125.962 63.72v922.86s32.855 58.965 128.613 58.965c95.76 0 121.77-58.964 121.77-58.964V375.52s32.61-63.72 133.42-63.72c100.81 0 133.85 63.72 133.85 63.72v981.825"/><path fill="#BD0FE1" d="M1282.44 1302.16h-80.73l40.365 76.606"/><g transform="translate(52.5 455.437)"><rect width="335.061" height="335.061" x=".484" y=".72" fill="#50E3C2" rx="50"/><g fill-rule="nonzero"><path fill="#FFF" stroke="#000" stroke-width="5" d="M154.563 115.962c-2.415-16.593-9.113-39.51-9.887-50.433-.685-9.66 4.768-16.55 13.17-20.37 3.036-1.38 6.6-2.15 10.345-2.15 3.75 0 7.31.76 10.35 2.14 8.4 3.82 13.86 10.7 13.17 20.36-.77 10.92-7.47 33.84-9.88 50.43m-51.66 13.83c-10.39-13.164-27.64-29.66-33.78-38.734-5.42-8.02-4.14-16.71 1.23-24.22 1.94-2.713 4.647-5.155 7.89-7.03 3.244-1.87 6.71-2.99 10.03-3.314 9.187-.893 17.35 2.344 21.588 11.05 4.79 9.847 10.45 33.042 16.655 48.62m-38.03 65.88c-16.595 2.416-39.51 9.113-50.435 9.887-9.66.686-16.546-4.767-20.366-13.167-1.38-3.04-2.143-6.6-2.143-10.345s.763-7.31 2.144-10.35c3.82-8.4 10.704-13.85 20.36-13.167 10.926.77 33.84 7.47 50.436 9.885m.217-.803c-15.58-6.203-38.77-11.86-48.62-16.652-8.705-4.23-11.942-12.4-11.05-21.58.32-3.32 1.445-6.79 3.318-10.03 1.87-3.25 4.31-5.95 7.027-7.89 7.506-5.36 16.196-6.64 24.22-1.22 9.07 6.13 25.57 23.39 38.73 33.78m0 76.07c-13.164 10.39-29.66 27.644-38.735 33.78-8.02 5.42-16.71 4.14-24.22-1.226-2.71-1.94-5.15-4.647-7.024-7.89-1.88-3.245-3-6.71-3.32-10.03-.89-9.188 2.343-17.35 11.05-21.588 9.85-4.796 33.04-10.45 48.62-16.658m37.82 37.82c-6.207 15.58-11.865 38.773-16.656 48.62-4.24 8.707-12.403 11.944-21.59 11.05-3.322-.32-6.79-1.443-10.032-3.316-3.242-1.874-5.947-4.315-7.887-7.03-5.366-7.508-6.645-16.198-1.223-24.22 6.133-9.074 23.39-25.57 33.78-38.734m51.66 13.845c2.418 16.594 9.115 39.51 9.89 50.434.684 9.656-4.77 16.54-13.17 20.36-3.037 1.38-6.6 2.144-10.345 2.144-3.745 0-7.31-.765-10.35-2.146-8.4-3.82-13.85-10.704-13.164-20.362.77-10.922 7.47-33.84 9.885-50.432m51.66-13.84c10.39 13.163 27.65 29.66 33.78 38.733 5.42 8.02 4.146 16.71-1.22 24.22-1.94 2.717-4.645 5.16-7.89 7.03-3.242 1.876-6.71 3-10.03 3.32-9.185.89-17.35-2.344-21.586-11.05-4.79-9.85-10.45-33.04-16.65-48.62m37.823-37.82c15.58 6.21 38.777 11.866 48.62 16.657 8.71 4.233 11.947 12.4 11.05 21.583-.32 3.32-1.44 6.79-3.312 10.03-1.87 3.25-4.31 5.95-7.03 7.89-7.51 5.37-16.2 6.65-24.22 1.227-9.07-6.134-25.57-23.39-38.73-33.78m13.84-51.65c16.59-2.416 39.51-9.114 50.43-9.888 9.66-.69 16.544 4.77 20.364 13.17 1.38 3.03 2.14 6.6 2.14 10.34 0 3.746-.764 7.31-2.145 10.35-3.82 8.4-10.708 13.85-20.366 13.165-10.927-.775-33.84-7.473-50.437-9.89m-38.034-65.89c6.2-15.58 11.86-38.774 16.65-48.62 4.234-8.71 12.4-11.944 21.584-11.05 3.32.32 6.79 1.44 10.03 3.316 3.244 1.87 5.95 4.314 7.89 7.03 5.365 7.51 6.643 16.2 1.223 24.22-6.134 9.074-23.39 25.57-33.78 38.734m.604.6c13.163-10.39 29.66-27.645 38.733-33.78 8.025-5.42 16.71-4.14 24.22 1.225 2.72 1.94 5.16 4.64 7.03 7.885 1.87 3.244 2.996 6.71 3.32 10.03.893 9.187-2.344 17.35-11.05 21.588-9.847 4.79-33.04 10.45-48.62 16.654"/><path fill="#FFD800" stroke="#020000" stroke-width="6" d="M221.912 168.425c0 29.67-24.05 53.72-53.72 53.72-29.668 0-53.718-24.05-53.718-53.72 0-29.668 24.05-53.72 53.72-53.72 29.667 0 53.718 24.052 53.718 53.72z"/></g></g><g transform="translate(52.5 896.304)"><rect width="335.061" height="335.061" x=".484" y=".72" fill="#50E3C2" rx="50"/><g fill-rule="nonzero"><path fill="#FFF" stroke="#000" stroke-width="5" d="M154.563 115.962c-2.415-16.593-9.113-39.51-9.887-50.433-.685-9.66 4.768-16.55 13.17-20.37 3.036-1.38 6.6-2.15 10.345-2.15 3.75 0 7.31.76 10.35 2.14 8.4 3.82 13.86 10.7 13.17 20.36-.77 10.92-7.47 33.84-9.88 50.43m-51.66 13.83c-10.39-13.164-27.64-29.66-33.78-38.734-5.42-8.02-4.14-16.71 1.23-24.22 1.94-2.713 4.647-5.155 7.89-7.03 3.244-1.87 6.71-2.99 10.03-3.314 9.187-.893 17.35 2.344 21.588 11.05 4.79 9.847 10.45 33.042 16.655 48.62m-38.03 65.88c-16.595 2.416-39.51 9.113-50.435 9.887-9.66.686-16.546-4.767-20.366-13.167-1.38-3.04-2.143-6.6-2.143-10.345s.763-7.31 2.144-10.35c3.82-8.4 10.704-13.85 20.36-13.167 10.926.77 33.84 7.47 50.436 9.885m.217-.803c-15.58-6.203-38.77-11.86-48.62-16.652-8.705-4.23-11.942-12.4-11.05-21.58.32-3.32 1.445-6.79 3.318-10.03 1.87-3.25 4.31-5.95 7.027-7.89 7.506-5.36 16.196-6.64 24.22-1.22 9.07 6.13 25.57 23.39 38.73 33.78m0 76.07c-13.164 10.39-29.66 27.644-38.735 33.78-8.02 5.42-16.71 4.14-24.22-1.226-2.71-1.94-5.15-4.647-7.024-7.89-1.88-3.245-3-6.71-3.32-10.03-.89-9.188 2.343-17.35 11.05-21.588 9.85-4.796 33.04-10.45 48.62-16.658m37.82 37.82c-6.207 15.58-11.865 38.773-16.656 48.62-4.24 8.707-12.403 11.944-21.59 11.05-3.322-.32-6.79-1.443-10.032-3.316-3.242-1.874-5.947-4.315-7.887-7.03-5.366-7.508-6.645-16.198-1.223-24.22 6.133-9.074 23.39-25.57 33.78-38.734m51.66 13.845c2.418 16.594 9.115 39.51 9.89 50.434.684 9.656-4.77 16.54-13.17 20.36-3.037 1.38-6.6 2.144-10.345 2.144-3.745 0-7.31-.765-10.35-2.146-8.4-3.82-13.85-10.704-13.164-20.362.77-10.922 7.47-33.84 9.885-50.432m51.66-13.84c10.39 13.163 27.65 29.66 33.78 38.733 5.42 8.02 4.146 16.71-1.22 24.22-1.94 2.717-4.645 5.16-7.89 7.03-3.242 1.876-6.71 3-10.03 3.32-9.185.89-17.35-2.344-21.586-11.05-4.79-9.85-10.45-33.04-16.65-48.62m37.823-37.82c15.58 6.21 38.777 11.866 48.62 16.657 8.71 4.233 11.947 12.4 11.05 21.583-.32 3.32-1.44 6.79-3.312 10.03-1.87 3.25-4.31 5.95-7.03 7.89-7.51 5.37-16.2 6.65-24.22 1.227-9.07-6.134-25.57-23.39-38.73-33.78m13.84-51.65c16.59-2.416 39.51-9.114 50.43-9.888 9.66-.69 16.544 4.77 20.364 13.17 1.38 3.03 2.14 6.6 2.14 10.34 0 3.746-.764 7.31-2.145 10.35-3.82 8.4-10.708 13.85-20.366 13.165-10.927-.775-33.84-7.473-50.437-9.89m-38.034-65.89c6.2-15.58 11.86-38.774 16.65-48.62 4.234-8.71 12.4-11.944 21.584-11.05 3.32.32 6.79 1.44 10.03 3.316 3.244 1.87 5.95 4.314 7.89 7.03 5.365 7.51 6.643 16.2 1.223 24.22-6.134 9.074-23.39 25.57-33.78 38.734m.604.6c13.163-10.39 29.66-27.645 38.733-33.78 8.025-5.42 16.71-4.14 24.22 1.225 2.72 1.94 5.16 4.64 7.03 7.885 1.87 3.244 2.996 6.71 3.32 10.03.893 9.187-2.344 17.35-11.05 21.588-9.847 4.79-33.04 10.45-48.62 16.654"/><path fill="#FFD800" stroke="#020000" stroke-width="6" d="M221.912 168.425c0 29.67-24.05 53.72-53.72 53.72-29.668 0-53.718-24.05-53.718-53.72 0-29.668 24.05-53.72 53.72-53.72 29.667 0 53.718 24.052 53.718 53.72z"/></g></g><g transform="translate(1060.197 455.437)"><rect width="335.061" height="335.061" x=".484" y=".72" fill="#50E3C2" rx="50"/><g fill-rule="nonzero"><path fill="#FFF" stroke="#000" stroke-width="5" d="M154.563 115.962c-2.415-16.593-9.113-39.51-9.887-50.433-.685-9.66 4.768-16.55 13.17-20.37 3.036-1.38 6.6-2.15 10.345-2.15 3.75 0 7.31.76 10.35 2.14 8.4 3.82 13.86 10.7 13.17 20.36-.77 10.92-7.47 33.84-9.88 50.43m-51.66 13.83c-10.39-13.164-27.64-29.66-33.78-38.734-5.42-8.02-4.14-16.71 1.23-24.22 1.94-2.713 4.647-5.155 7.89-7.03 3.244-1.87 6.71-2.99 10.03-3.314 9.187-.893 17.35 2.344 21.588 11.05 4.79 9.847 10.45 33.042 16.655 48.62m-38.03 65.88c-16.595 2.416-39.51 9.113-50.435 9.887-9.66.686-16.546-4.767-20.366-13.167-1.38-3.04-2.143-6.6-2.143-10.345s.763-7.31 2.144-10.35c3.82-8.4 10.704-13.85 20.36-13.167 10.926.77 33.84 7.47 50.436 9.885m.217-.803c-15.58-6.203-38.77-11.86-48.62-16.652-8.705-4.23-11.942-12.4-11.05-21.58.32-3.32 1.445-6.79 3.318-10.03 1.87-3.25 4.31-5.95 7.027-7.89 7.506-5.36 16.196-6.64 24.22-1.22 9.07 6.13 25.57 23.39 38.73 33.78m0 76.07c-13.164 10.39-29.66 27.644-38.735 33.78-8.02 5.42-16.71 4.14-24.22-1.226-2.71-1.94-5.15-4.647-7.024-7.89-1.88-3.245-3-6.71-3.32-10.03-.89-9.188 2.343-17.35 11.05-21.588 9.85-4.796 33.04-10.45 48.62-16.658m37.82 37.82c-6.207 15.58-11.865 38.773-16.656 48.62-4.24 8.707-12.403 11.944-21.59 11.05-3.322-.32-6.79-1.443-10.032-3.316-3.242-1.874-5.947-4.315-7.887-7.03-5.366-7.508-6.645-16.198-1.223-24.22 6.133-9.074 23.39-25.57 33.78-38.734m51.66 13.845c2.418 16.594 9.115 39.51 9.89 50.434.684 9.656-4.77 16.54-13.17 20.36-3.037 1.38-6.6 2.144-10.345 2.144-3.745 0-7.31-.765-10.35-2.146-8.4-3.82-13.85-10.704-13.164-20.362.77-10.922 7.47-33.84 9.885-50.432m51.66-13.84c10.39 13.163 27.65 29.66 33.78 38.733 5.42 8.02 4.146 16.71-1.22 24.22-1.94 2.717-4.645 5.16-7.89 7.03-3.242 1.876-6.71 3-10.03 3.32-9.185.89-17.35-2.344-21.586-11.05-4.79-9.85-10.45-33.04-16.65-48.62m37.823-37.82c15.58 6.21 38.777 11.866 48.62 16.657 8.71 4.233 11.947 12.4 11.05 21.583-.32 3.32-1.44 6.79-3.312 10.03-1.87 3.25-4.31 5.95-7.03 7.89-7.51 5.37-16.2 6.65-24.22 1.227-9.07-6.134-25.57-23.39-38.73-33.78m13.84-51.65c16.59-2.416 39.51-9.114 50.43-9.888 9.66-.69 16.544 4.77 20.364 13.17 1.38 3.03 2.14 6.6 2.14 10.34 0 3.746-.764 7.31-2.145 10.35-3.82 8.4-10.708 13.85-20.366 13.165-10.927-.775-33.84-7.473-50.437-9.89m-38.034-65.89c6.2-15.58 11.86-38.774 16.65-48.62 4.234-8.71 12.4-11.944 21.584-11.05 3.32.32 6.79 1.44 10.03 3.316 3.244 1.87 5.95 4.314 7.89 7.03 5.365 7.51 6.643 16.2 1.223 24.22-6.134 9.074-23.39 25.57-33.78 38.734m.604.6c13.163-10.39 29.66-27.645 38.733-33.78 8.025-5.42 16.71-4.14 24.22 1.225 2.72 1.94 5.16 4.64 7.03 7.885 1.87 3.244 2.996 6.71 3.32 10.03.893 9.187-2.344 17.35-11.05 21.588-9.847 4.79-33.04 10.45-48.62 16.654"/><path fill="#FFD800" stroke="#020000" stroke-width="6" d="M221.912 168.425c0 29.67-24.05 53.72-53.72 53.72-29.668 0-53.718-24.05-53.718-53.72 0-29.668 24.05-53.72 53.72-53.72 29.667 0 53.718 24.052 53.718 53.72z"/></g></g><g transform="translate(1060.197 896.304)"><rect width="335.061" height="335.061" x=".484" y=".72" fill="#50E3C2" rx="50"/><g fill-rule="nonzero"><path fill="#FFF" stroke="#000" stroke-width="5" d="M154.563 115.962c-2.415-16.593-9.113-39.51-9.887-50.433-.685-9.66 4.768-16.55 13.17-20.37 3.036-1.38 6.6-2.15 10.345-2.15 3.75 0 7.31.76 10.35 2.14 8.4 3.82 13.86 10.7 13.17 20.36-.77 10.92-7.47 33.84-9.88 50.43m-51.66 13.83c-10.39-13.164-27.64-29.66-33.78-38.734-5.42-8.02-4.14-16.71 1.23-24.22 1.94-2.713 4.647-5.155 7.89-7.03 3.244-1.87 6.71-2.99 10.03-3.314 9.187-.893 17.35 2.344 21.588 11.05 4.79 9.847 10.45 33.042 16.655 48.62m-38.03 65.88c-16.595 2.416-39.51 9.113-50.435 9.887-9.66.686-16.546-4.767-20.366-13.167-1.38-3.04-2.143-6.6-2.143-10.345s.763-7.31 2.144-10.35c3.82-8.4 10.704-13.85 20.36-13.167 10.926.77 33.84 7.47 50.436 9.885m.217-.803c-15.58-6.203-38.77-11.86-48.62-16.652-8.705-4.23-11.942-12.4-11.05-21.58.32-3.32 1.445-6.79 3.318-10.03 1.87-3.25 4.31-5.95 7.027-7.89 7.506-5.36 16.196-6.64 24.22-1.22 9.07 6.13 25.57 23.39 38.73 33.78m0 76.07c-13.164 10.39-29.66 27.644-38.735 33.78-8.02 5.42-16.71 4.14-24.22-1.226-2.71-1.94-5.15-4.647-7.024-7.89-1.88-3.245-3-6.71-3.32-10.03-.89-9.188 2.343-17.35 11.05-21.588 9.85-4.796 33.04-10.45 48.62-16.658m37.82 37.82c-6.207 15.58-11.865 38.773-16.656 48.62-4.24 8.707-12.403 11.944-21.59 11.05-3.322-.32-6.79-1.443-10.032-3.316-3.242-1.874-5.947-4.315-7.887-7.03-5.366-7.508-6.645-16.198-1.223-24.22 6.133-9.074 23.39-25.57 33.78-38.734m51.66 13.845c2.418 16.594 9.115 39.51 9.89 50.434.684 9.656-4.77 16.54-13.17 20.36-3.037 1.38-6.6 2.144-10.345 2.144-3.745 0-7.31-.765-10.35-2.146-8.4-3.82-13.85-10.704-13.164-20.362.77-10.922 7.47-33.84 9.885-50.432m51.66-13.84c10.39 13.163 27.65 29.66 33.78 38.733 5.42 8.02 4.146 16.71-1.22 24.22-1.94 2.717-4.645 5.16-7.89 7.03-3.242 1.876-6.71 3-10.03 3.32-9.185.89-17.35-2.344-21.586-11.05-4.79-9.85-10.45-33.04-16.65-48.62m37.823-37.82c15.58 6.21 38.777 11.866 48.62 16.657 8.71 4.233 11.947 12.4 11.05 21.583-.32 3.32-1.44 6.79-3.312 10.03-1.87 3.25-4.31 5.95-7.03 7.89-7.51 5.37-16.2 6.65-24.22 1.227-9.07-6.134-25.57-23.39-38.73-33.78m13.84-51.65c16.59-2.416 39.51-9.114 50.43-9.888 9.66-.69 16.544 4.77 20.364 13.17 1.38 3.03 2.14 6.6 2.14 10.34 0 3.746-.764 7.31-2.145 10.35-3.82 8.4-10.708 13.85-20.366 13.165-10.927-.775-33.84-7.473-50.437-9.89m-38.034-65.89c6.2-15.58 11.86-38.774 16.65-48.62 4.234-8.71 12.4-11.944 21.584-11.05 3.32.32 6.79 1.44 10.03 3.316 3.244 1.87 5.95 4.314 7.89 7.03 5.365 7.51 6.643 16.2 1.223 24.22-6.134 9.074-23.39 25.57-33.78 38.734m.604.6c13.163-10.39 29.66-27.645 38.733-33.78 8.025-5.42 16.71-4.14 24.22 1.225 2.72 1.94 5.16 4.64 7.03 7.885 1.87 3.244 2.996 6.71 3.32 10.03.893 9.187-2.344 17.35-11.05 21.588-9.847 4.79-33.04 10.45-48.62 16.654"/><path fill="#FFD800" stroke="#020000" stroke-width="6" d="M221.912 168.425c0 29.67-24.05 53.72-53.72 53.72-29.668 0-53.718-24.05-53.718-53.72 0-29.668 24.05-53.72 53.72-53.72 29.667 0 53.718 24.052 53.718 53.72z"/></g></g><g transform="translate(556.35 455.437)"><rect width="335.061" height="335.061" x=".484" y=".72" fill="#50E3C2" rx="50"/><g fill-rule="nonzero"><path fill="#FFF" stroke="#000" stroke-width="5" d="M154.563 115.962c-2.415-16.593-9.113-39.51-9.887-50.433-.685-9.66 4.768-16.55 13.17-20.37 3.036-1.38 6.6-2.15 10.345-2.15 3.75 0 7.31.76 10.35 2.14 8.4 3.82 13.86 10.7 13.17 20.36-.77 10.92-7.47 33.84-9.88 50.43m-51.66 13.83c-10.39-13.164-27.64-29.66-33.78-38.734-5.42-8.02-4.14-16.71 1.23-24.22 1.94-2.713 4.647-5.155 7.89-7.03 3.244-1.87 6.71-2.99 10.03-3.314 9.187-.893 17.35 2.344 21.588 11.05 4.79 9.847 10.45 33.042 16.655 48.62m-38.03 65.88c-16.595 2.416-39.51 9.113-50.435 9.887-9.66.686-16.546-4.767-20.366-13.167-1.38-3.04-2.143-6.6-2.143-10.345s.763-7.31 2.144-10.35c3.82-8.4 10.704-13.85 20.36-13.167 10.926.77 33.84 7.47 50.436 9.885m.217-.803c-15.58-6.203-38.77-11.86-48.62-16.652-8.705-4.23-11.942-12.4-11.05-21.58.32-3.32 1.445-6.79 3.318-10.03 1.87-3.25 4.31-5.95 7.027-7.89 7.506-5.36 16.196-6.64 24.22-1.22 9.07 6.13 25.57 23.39 38.73 33.78m0 76.07c-13.164 10.39-29.66 27.644-38.735 33.78-8.02 5.42-16.71 4.14-24.22-1.226-2.71-1.94-5.15-4.647-7.024-7.89-1.88-3.245-3-6.71-3.32-10.03-.89-9.188 2.343-17.35 11.05-21.588 9.85-4.796 33.04-10.45 48.62-16.658m37.82 37.82c-6.207 15.58-11.865 38.773-16.656 48.62-4.24 8.707-12.403 11.944-21.59 11.05-3.322-.32-6.79-1.443-10.032-3.316-3.242-1.874-5.947-4.315-7.887-7.03-5.366-7.508-6.645-16.198-1.223-24.22 6.133-9.074 23.39-25.57 33.78-38.734m51.66 13.845c2.418 16.594 9.115 39.51 9.89 50.434.684 9.656-4.77 16.54-13.17 20.36-3.037 1.38-6.6 2.144-10.345 2.144-3.745 0-7.31-.765-10.35-2.146-8.4-3.82-13.85-10.704-13.164-20.362.77-10.922 7.47-33.84 9.885-50.432m51.66-13.84c10.39 13.163 27.65 29.66 33.78 38.733 5.42 8.02 4.146 16.71-1.22 24.22-1.94 2.717-4.645 5.16-7.89 7.03-3.242 1.876-6.71 3-10.03 3.32-9.185.89-17.35-2.344-21.586-11.05-4.79-9.85-10.45-33.04-16.65-48.62m37.823-37.82c15.58 6.21 38.777 11.866 48.62 16.657 8.71 4.233 11.947 12.4 11.05 21.583-.32 3.32-1.44 6.79-3.312 10.03-1.87 3.25-4.31 5.95-7.03 7.89-7.51 5.37-16.2 6.65-24.22 1.227-9.07-6.134-25.57-23.39-38.73-33.78m13.84-51.65c16.59-2.416 39.51-9.114 50.43-9.888 9.66-.69 16.544 4.77 20.364 13.17 1.38 3.03 2.14 6.6 2.14 10.34 0 3.746-.764 7.31-2.145 10.35-3.82 8.4-10.708 13.85-20.366 13.165-10.927-.775-33.84-7.473-50.437-9.89m-38.034-65.89c6.2-15.58 11.86-38.774 16.65-48.62 4.234-8.71 12.4-11.944 21.584-11.05 3.32.32 6.79 1.44 10.03 3.316 3.244 1.87 5.95 4.314 7.89 7.03 5.365 7.51 6.643 16.2 1.223 24.22-6.134 9.074-23.39 25.57-33.78 38.734m.604.6c13.163-10.39 29.66-27.645 38.733-33.78 8.025-5.42 16.71-4.14 24.22 1.225 2.72 1.94 5.16 4.64 7.03 7.885 1.87 3.244 2.996 6.71 3.32 10.03.893 9.187-2.344 17.35-11.05 21.588-9.847 4.79-33.04 10.45-48.62 16.654"/><path fill="#FFD800" stroke="#020000" stroke-width="6" d="M221.912 168.425c0 29.67-24.05 53.72-53.72 53.72-29.668 0-53.718-24.05-53.718-53.72 0-29.668 24.05-53.72 53.72-53.72 29.667 0 53.718 24.052 53.718 53.72z"/></g></g><g transform="translate(556.35 896.304)"><rect width="335.061" height="335.061" x=".484" y=".72" fill="#50E3C2" rx="50"/><g fill-rule="nonzero"><path fill="#FFF" stroke="#000" stroke-width="5" d="M154.563 115.962c-2.415-16.593-9.113-39.51-9.887-50.433-.685-9.66 4.768-16.55 13.17-20.37 3.036-1.38 6.6-2.15 10.345-2.15 3.75 0 7.31.76 10.35 2.14 8.4 3.82 13.86 10.7 13.17 20.36-.77 10.92-7.47 33.84-9.88 50.43m-51.66 13.83c-10.39-13.164-27.64-29.66-33.78-38.734-5.42-8.02-4.14-16.71 1.23-24.22 1.94-2.713 4.647-5.155 7.89-7.03 3.244-1.87 6.71-2.99 10.03-3.314 9.187-.893 17.35 2.344 21.588 11.05 4.79 9.847 10.45 33.042 16.655 48.62m-38.03 65.88c-16.595 2.416-39.51 9.113-50.435 9.887-9.66.686-16.546-4.767-20.366-13.167-1.38-3.04-2.143-6.6-2.143-10.345s.763-7.31 2.144-10.35c3.82-8.4 10.704-13.85 20.36-13.167 10.926.77 33.84 7.47 50.436 9.885m.217-.803c-15.58-6.203-38.77-11.86-48.62-16.652-8.705-4.23-11.942-12.4-11.05-21.58.32-3.32 1.445-6.79 3.318-10.03 1.87-3.25 4.31-5.95 7.027-7.89 7.506-5.36 16.196-6.64 24.22-1.22 9.07 6.13 25.57 23.39 38.73 33.78m0 76.07c-13.164 10.39-29.66 27.644-38.735 33.78-8.02 5.42-16.71 4.14-24.22-1.226-2.71-1.94-5.15-4.647-7.024-7.89-1.88-3.245-3-6.71-3.32-10.03-.89-9.188 2.343-17.35 11.05-21.588 9.85-4.796 33.04-10.45 48.62-16.658m37.82 37.82c-6.207 15.58-11.865 38.773-16.656 48.62-4.24 8.707-12.403 11.944-21.59 11.05-3.322-.32-6.79-1.443-10.032-3.316-3.242-1.874-5.947-4.315-7.887-7.03-5.366-7.508-6.645-16.198-1.223-24.22 6.133-9.074 23.39-25.57 33.78-38.734m51.66 13.845c2.418 16.594 9.115 39.51 9.89 50.434.684 9.656-4.77 16.54-13.17 20.36-3.037 1.38-6.6 2.144-10.345 2.144-3.745 0-7.31-.765-10.35-2.146-8.4-3.82-13.85-10.704-13.164-20.362.77-10.922 7.47-33.84 9.885-50.432m51.66-13.84c10.39 13.163 27.65 29.66 33.78 38.733 5.42 8.02 4.146 16.71-1.22 24.22-1.94 2.717-4.645 5.16-7.89 7.03-3.242 1.876-6.71 3-10.03 3.32-9.185.89-17.35-2.344-21.586-11.05-4.79-9.85-10.45-33.04-16.65-48.62m37.823-37.82c15.58 6.21 38.777 11.866 48.62 16.657 8.71 4.233 11.947 12.4 11.05 21.583-.32 3.32-1.44 6.79-3.312 10.03-1.87 3.25-4.31 5.95-7.03 7.89-7.51 5.37-16.2 6.65-24.22 1.227-9.07-6.134-25.57-23.39-38.73-33.78m13.84-51.65c16.59-2.416 39.51-9.114 50.43-9.888 9.66-.69 16.544 4.77 20.364 13.17 1.38 3.03 2.14 6.6 2.14 10.34 0 3.746-.764 7.31-2.145 10.35-3.82 8.4-10.708 13.85-20.366 13.165-10.927-.775-33.84-7.473-50.437-9.89m-38.034-65.89c6.2-15.58 11.86-38.774 16.65-48.62 4.234-8.71 12.4-11.944 21.584-11.05 3.32.32 6.79 1.44 10.03 3.316 3.244 1.87 5.95 4.314 7.89 7.03 5.365 7.51 6.643 16.2 1.223 24.22-6.134 9.074-23.39 25.57-33.78 38.734m.604.6c13.163-10.39 29.66-27.645 38.733-33.78 8.025-5.42 16.71-4.14 24.22 1.225 2.72 1.94 5.16 4.64 7.03 7.885 1.87 3.244 2.996 6.71 3.32 10.03.893 9.187-2.344 17.35-11.05 21.588-9.847 4.79-33.04 10.45-48.62 16.654"/><path fill="#FFD800" stroke="#020000" stroke-width="6" d="M221.912 168.425c0 29.67-24.05 53.72-53.72 53.72-29.668 0-53.718-24.05-53.718-53.72 0-29.668 24.05-53.72 53.72-53.72 29.667 0 53.718 24.052 53.718 53.72z"/></g></g><path fill="#B8E986" fill-rule="nonzero" d="M.827 222.88V87.664H1240.68V222.87"/><path fill="#B8E986" fill-rule="nonzero" d="M1241.264.24l206.152 153.614-209.12 156.33"/><text fill="#000" transform="translate(-205.994 -.577)" font-family="Helvetica-Bold, Helvetica" font-size="80" font-weight="bold"><tspan x="450.747" y="185.789">block flow direction</tspan></text></g></svg>
