<svg xmlns="http://www.w3.org/2000/svg" viewBox="0 0 304 171"><g fill="none" fill-rule="evenodd"><path fill="#F0EAD6" fill-rule="nonzero" d="M54 0h250v72H54"/><path stroke="#8B572A" stroke-width="2" d="M55 1h248v70H55z"/><g fill="#000" font-size="12" font-family="Helvetica"><text transform="translate(63 6)"><tspan x="0" y="11">Ultimately it is the magic of shadows. Were</tspan></text><text transform="translate(63 6)"><tspan x="0" y="27">the shadows to be banished from its</tspan></text><text transform="translate(63 6)"><tspan x="0" y="43">corners, the alcove would in that instant</tspan></text><text transform="translate(63 6)"><tspan x="0" y="59">revert to mere void.</tspan></text></g><path fill="#F0EAD6" fill-rule="nonzero" d="M54 82h250v72H54"/><path stroke="#8B572A" stroke-width="2" d="M55 83h248v70H55z"/><g fill="#000" font-size="12" font-family="Helvetica"><text transform="translate(63 88)"><tspan x="0" y="11">A phosphorescent jewel gives off its glow</tspan></text><text transform="translate(63 88)"><tspan x="0" y="27">and color in the dark and loses its beauty in</tspan></text><text transform="translate(63 88)"><tspan x="0" y="43">the light of day. Were it not for shadows,</tspan></text><text transform="translate(63 88)"><tspan x="0" y="59">there would be no beauty</tspan></text></g><g fill="#B8E986" fill-rule="nonzero"><path d="M14.367 0h21.267v138.574H14.367"/><path d="M49.18 137.877l-24.353 32.616L.27 137.573"/></g><text fill="#000" transform="rotate(90 9.5 23)" font-size="12" font-family="Helvetica-Bold, Helvetica" font-weight="bold"><tspan x=".5" y="11.5">block flow direction</tspan></text></g></svg>
