<svg viewBox="0 0 26 26" xmlns="http://www.w3.org/2000/svg" xmlns:xlink="http://www.w3.org/1999/xlink" xmlns:sketch="http://www.bohemiancoding.com/sketch/ns">
    <g transform="translate(0.000000, -1.000000)">
        <path fill="#372822" d="M18,18.759 L18,22.125 C18,23.159 17.159,24 16.125,24 L4.875,24 C3.841,24 3,23.159 3,22.125 L3,10.875 C3,9.841 3.841,9 4.875,9 L8.304,9 L11.305,6 L4.875,6 C2.182,6 0,8.182 0,10.875 L0,22.125 C0,24.818 2.182,27 4.875,27 L16.125,27 C18.818,27 21,24.818 21,22.125 L21,15.758 L18,18.759 L18,18.759 Z"></path>
        <path fill="#372822" d="M22.581,1 L12.322,1 C10.436,1.002 10.567,1.51 11.562,2.504 L14.782,5.724 L9.262,11.243 C8.117,12.387 8.118,14.241 9.262,15.384 L11.672,17.795 C12.816,18.936 14.668,18.937 15.812,17.794 L21.332,12.274 L24.492,15.434 C25.593,16.534 25.999,16.563 25.999,14.677 L26,4.419 C25.999,0.982 26.024,0.999 22.581,1 L22.581,1 Z"></path>
    </g>
</svg>
