<svg xmlns="http://www.w3.org/2000/svg" xmlns:xlink="http://www.w3.org/1999/xlink" width="73" height="73"><defs><path id="a" d="M.241.178h72v72h-72z"/><linearGradient id="c" x1="50.063%" x2="50.063%" y1="-.002%" y2="99.904%"><stop offset="0%" stop-color="#FFF" stop-opacity=".3"/><stop offset="2%" stop-color="#FFF" stop-opacity=".28"/><stop offset="28%" stop-color="#FFF" stop-opacity=".13"/><stop offset="48%" stop-color="#FFF" stop-opacity=".04"/><stop offset="60%" stop-color="#FFF" stop-opacity="0"/></linearGradient><linearGradient id="d" x1="50.092%" x2="50.092%" y1=".024%" y2="100.001%"><stop offset="0%" stop-color="#FFF" stop-opacity=".2"/><stop offset="14%" stop-color="#FFF" stop-opacity=".13"/><stop offset="36%" stop-color="#FFF" stop-opacity=".04"/><stop offset="50%" stop-color="#FFF" stop-opacity="0"/></linearGradient></defs><g fill="none" fill-rule="evenodd"><mask id="b" fill="#fff"><use xlink:href="#a"/></mask><use fill="#BC3428" xlink:href="#a"/><g mask="url(#b)"><g fill-rule="nonzero" transform="translate(9.5 10.769)"><ellipse cx="24.69" cy="48.43" fill="#000" opacity=".05" rx="24.63" ry="3.38"/><path fill="#FFF" d="M32.51 30.34a27.55 27.55 0 0 0-7-3.78 28.32 28.32 0 0 1-5.36-2.87c-4-2.787-6-6.243-6-10.37a10.63 10.63 0 0 1 2.25-6.89c.267-.331.554-.645.86-.94l-8.55 2A4.62 4.62 0 0 0 5.18 13l7.08 30.59A4.62 4.62 0 0 0 17.79 47l3.51-.81-.3-.03a33.76 33.76 0 0 1-6.78-2.92l3.66-8.18a16.3 16.3 0 0 0 10.4 3.66c4 0 6-1.43 6-4.27a5.26 5.26 0 0 0-1.77-4.11zm19.34 4.11L44.77 3.86A4.62 4.62 0 0 0 39.23.4l-5.15 1.19a28.13 28.13 0 0 1 8.42 2.72l-3 8c-2.24-1.92-5.37-2.88-9.37-2.88-3.587 0-5.383 1.427-5.39 4.28a3.86 3.86 0 0 0 1.77 3 36.82 36.82 0 0 0 7.56 3.66 23.64 23.64 0 0 1 6.39 3.55c.74.59 1.41 1.26 2 2A12.35 12.35 0 0 1 45 33.75a11.85 11.85 0 0 1-2.45 7.58L48.38 40a4.61 4.61 0 0 0 3.47-5.55z"/><path fill="url(#c)" d="M23.35 9.2a16.34 16.34 0 0 0-10.43 3.66L9.25 4.67a33.83 33.83 0 0 1 6.8-2.93l.27-.07-3.51-.81a4.63 4.63 0 0 0-5.55 3.47L.18 35a4.63 4.63 0 0 0 3.47 5.55l8.56 2a10.22 10.22 0 0 1-.86-.95 10.66 10.66 0 0 1-2.25-6.9c0-4.133 2-7.597 6-10.39a28.38 28.38 0 0 1 5.37-2.88 27.61 27.61 0 0 0 7.06-3.79 5.27 5.27 0 0 0 1.81-4.12c.03-2.89-1.97-4.32-5.99-4.32z" transform="translate(5 46)"/><path fill="url(#d)" d="M43.47 7.93l-5.84-1.35a11.87 11.87 0 0 1 2.46 7.6 12.37 12.37 0 0 1-2.56 7.87 12.71 12.71 0 0 1-2 2 23.69 23.69 0 0 1-6.41 3.56 36.89 36.89 0 0 0-7.57 3.66 3.87 3.87 0 0 0-1.78 3c0 2.853 1.8 4.283 5.4 4.29 4 0 7.15-1 9.39-2.89l3 8a28.19 28.19 0 0 1-6.67 2.4c-.58.127-1.167.237-1.76.33l5.17 1.2a4.63 4.63 0 0 0 5.55-3.46l7.09-30.66a4.62 4.62 0 0 0-3.47-5.55z" transform="translate(5 46)"/></g></g></g></svg>
