<svg width="395" height="395" xmlns="http://www.w3.org/2000/svg"><defs><linearGradient x1="50%" y1="0%" x2="50%" y2="100%" id="a"><stop stop-color="#714288" offset="0%"/><stop stop-color="#554F8F" offset="100%"/></linearGradient></defs><g fill="url(#a)" fill-rule="nonzero"><path d="M197 394.68C88.5 393.54.46 307.5.53 197.33.6 87.64 88.26.87 197.29.43c109.03-.44 197.59 88.79 197.4 197.49-.19 108.39-89.04 196.8-197.69 196.76zm-65.67-217.57a32.06 32.06 0 0 1-.36-3.28c0-8.5.11-17-.1-25.5-.2-7.87-3.92-11-12.38-10.76-7.87.16-10.81 3.1-10.82 10.93v83c0 9.22 2.7 13.3 11.32 16.68a55.09 55.09 0 0 0 31.86 2.82c13.11-2.74 23.36-9.73 27-23.05a75.13 75.13 0 0 0 2.15-23.53c-.688-14.345-10.954-26.426-25-29.42a36.56 36.56 0 0 0-23.67 2.11zm116.67-2.2c-12.08 1.51-14 2.88-14.28 9.52-.27 7.71 1.27 9 14.29 11.54 0 2.15-.05 4.44 0 6.72.24 9.15.13 18.33.9 27.43.83 9.91 5.84 17.18 15.69 20.37 8.6 2.8 17.08 2 25.33-1.35 5.44-2.22 7.13-6.16 5.43-11.65-1.7-5.49-5.08-7.49-11.1-6.45-2.12.37-4.51 1.26-6.34.62-2.14-.74-5.35-2.81-5.42-4.42-.49-10.53-.25-21.09-.25-32h11.19c7.7-.06 10.72-2.85 10.74-9.86.02-7.01-2.79-9.66-10.71-9.82-3.92-.09-7.84 0-12.18 0v-12.15c0-7.88-3.32-11.23-11.17-11.31-7.85-.08-11.86 3.43-12.11 11.19-.12 3.71-.01 7.54-.01 11.62zm-27.5 37.93c0-9.17.06-18.34 0-27.5-.06-7.92-3.38-11.25-11.15-11.42-8.13-.18-12.07 3.18-12.13 11-.14 18.667-.14 37.333 0 56 .07 7.81 3.53 10.46 12.52 10.37 7.61-.07 10.71-3 10.79-10.48.04-9.31-.03-18.64-.03-27.97zm-11.62-46.66c8 0 13.93-5.59 14-13.2.07-7.61-5.78-13.47-13.65-13.57-7.87-.1-13.77 5.5-13.84 13.26-.07 7.76 5.52 13.46 13.49 13.51z"/><path d="M130.91 213.07c0-4.32.32-8.67-.08-12.95-.43-4.5 2.15-5.88 5.67-6.61 10.53-2.19 18.66 3.74 20.05 15.29a36 36 0 0 1-1 13.27c-2.43 9.06-13.74 13.84-22.2 9.68a5.11 5.11 0 0 1-2.25-3.74c-.26-5-.1-10-.1-14.94h-.09z"/></g></svg>
