<svg xmlns="http://www.w3.org/2000/svg" fill-rule="evenodd" stroke-linejoin="round" stroke-miterlimit="1.41421" clip-rule="evenodd" version="1.1" viewBox="0 0 199 199" xml:space="preserve"><path fill="#2574bb" fill-rule="nonzero" d="M119.383,97.472c0,11.163 -9.051,20.218 -20.219,20.218c-11.163,0 -20.213,-9.055 -20.213,-20.219c0,-11.163 9.05,-20.218 20.213,-20.218c11.168,0 20.219,9.055 20.219,20.219Z"/><path fill="#4c4d4f" fill-rule="nonzero" d="M98.442,41.621c28.377,0 51.92,20.446 56.864,47.395l-11.113,0l27.03,26.578l27.109,-26.578l-13.55,0c-5.181,-43.102 -41.844,-76.516 -86.341,-76.516c-36.088,0 -67.043,21.976 -80.217,53.273l27.143,10.631c8.92,-20.468 29.32,-34.783 53.075,-34.783Zm-0.001,115.758c-27.84,0 -51.025,-19.677 -56.564,-45.87l12.262,0l-27.029,-26.577l-27.11,26.577l12.291,0c5.852,42.363 42.178,74.991 86.15,74.991c36,0 66.892,-21.866 80.121,-53.036l-27.152,-10.635c-8.974,20.345 -29.307,34.55 -52.969,34.55Z"/></svg>