<svg xmlns="http://www.w3.org/2000/svg" viewBox="0 0 62 62"><defs><linearGradient id="a" x1="13.289%" x2="91.771%" y1="40.43%" y2="85.696%"><stop stop-color="#5BA8D6" offset="0%"/><stop stop-color="#5CA9D6" offset="100%"/></linearGradient></defs><g fill="none" fill-rule="evenodd"><circle cx="31" cy="31" r="31" fill="#237DAC"/><path fill="#FFF" d="M31.487 15s-3.264 5.363-6.332 11.17c-2.662 5.038-5.337 10.308-3.604 13.967 3.73 7.876 15.98 7.76 19.03 0 1.39-3.523-.73-8.777-3.39-13.967-2.95-5.76-5.7-11.17-5.7-11.17z"/><path fill="url(#a)" d="M24.76 21s-2.104 3.457-4.082 7.2c-1.715 3.247-3.44 6.644-2.323 9.002 2.405 5.077 10.297 5.002 12.267 0 .894-2.27-.473-5.657-2.186-9.002-1.902-3.714-3.676-7.2-3.676-7.2z"/></g></svg>
