<svg xmlns="http://www.w3.org/2000/svg" viewBox="-96 0 539 539"><path fill="#6039ab" fill-rule="nonzero" d="M169.008 537.793c-1.719-.51-3.572-1.49-4.118-2.18-.546-.69-6.045-10.93-12.22-22.754-6.174-11.825-11.638-21.932-12.141-22.46-.573-.6-3.067 1.12-6.657 4.59-8.116 7.844-11.087 9.87-14.474 9.87-4.22 0-9.296-2.672-10.628-5.596-1.49-3.27-1.588-57.696-.109-60.46 1.422-2.655 6.194-4.944 10.309-4.944 1.89 0 6.336 1.356 9.878 3.014 3.543 1.658 10.906 4.217 16.363 5.687 9.045 2.438 11.51 2.672 27.92 2.65 16.089-.02 19.011-.292 27.512-2.568 5.232-1.401 12.606-3.95 16.389-5.665 3.782-1.715 8.432-3.118 10.334-3.118 4.234 0 8.726 2.52 10.18 5.712.697 1.53 1.086 12.304 1.086 30.112 0 30.34-.046 30.597-6.011 33.681-3.43 1.774-7.29 1.917-10.305.383-1.201-.611-5.386-4.252-9.299-8.09l-7.114-6.979-11.886 22.753c-7.178 13.743-12.875 23.463-14.385 24.546-3.288 2.356-6.784 2.954-10.624 1.816zM36.345 436.48c-5.751-1.599-11.423-5.97-13.852-10.675-1.968-3.81-20.212-80.5-21.982-92.4-2.037-13.697 2.137-31.227 10.384-43.602 5.131-7.7 11.855-13.98 30.737-28.708l16.5-12.87-.338-10.933c-.45-14.508 1.399-36.799 4.429-53.433 5.118-28.092 13.927-53.834 28.06-82 22.126-44.092 50.919-80.728 77.23-98.27L172.896 0l4.119 2.573c25.672 16.04 59.557 59.264 80.58 102.786 20.623 42.695 30.038 81.607 30.038 124.15v18.21l17.75 13.976c9.762 7.686 19.155 15.255 20.872 16.82 5.308 4.835 10.128 11.608 13.797 19.387 8.609 18.25 8.688 26.457.634 65.575-8.707 42.292-11.976 57.483-13.157 61.133-1.344 4.153-6.23 9.04-11.374 11.378-4.838 2.197-14.26 2.441-18.804.487-1.77-.761-16.714-12.444-33.21-25.962-25.53-20.922-30.23-24.398-31.605-23.366-.888.666-3.817 2.891-6.509 4.943-6.87 5.24-18.409 11.075-28.394 14.361-7.787 2.563-9.802 2.803-24 2.853-12.31.043-16.838-.332-22-1.823-9.543-2.756-25.587-10.628-32.801-16.094l-6.302-4.775-3.363 2.393c-3.18 2.263-31.16 25.692-45.434 38.046-10.938 9.465-18.23 11.976-27.387 9.43zM186.09 219.328c25.407-6.618 41.377-32.486 35.05-56.776-3.577-13.732-12.634-24.698-25.697-31.115-8.906-4.374-17.04-5.989-26.311-5.223-35.53 2.936-56.425 39.289-39.965 69.532 3.528 6.482 13.497 16.082 20.259 19.508 10.947 5.548 25.008 7.11 36.664 4.074zm-37.057-42.56c-1.82-13.272 9.403-25.263 23.599-25.216 13.598.045 23.45 9.698 23.387 22.913-.023 4.786-.61 7.097-2.712 10.685-5.658 9.655-18.143 14.134-28.79 10.33-8.375-2.994-14.313-10.17-15.484-18.713z"/></svg>
