<svg width="400" height="400" xmlns="http://www.w3.org/2000/svg"><g fill="none" fill-rule="evenodd"><circle fill="#7EE356" cx="200" cy="200" r="200"/><path d="M93.718 341.376c-6.05-.387-11.402-.76-11.895-.83-1.487-.211.154-23.913 2.362-34.127 4.741-21.925 12.156-41.543 29.293-77.5 22.356-46.909 42.788-90.786 42.439-91.135-.691-.691-15.02 4.633-19.593 7.28-2.533 1.465-6.824 4.413-9.535 6.549-2.711 2.136-5.636 3.75-6.5 3.585-2.289-.435-6.792-9.436-9.228-18.448-2.93-10.832-3.169-34.598-.451-44.73 5.592-20.85 17.959-36.415 36.572-46.028 25.214-13.022 61.113-12.361 84.78 1.562 7.88 4.636 23.854 20.715 30.166 30.365 20.87 31.906 35.505 85.421 42.187 154.272 1.143 11.778 1.276 12.245 3.297 11.62 3.86-1.193 12.048-5.585 17.04-9.14 5.902-4.202 7.238-3.75 9.903 3.353 5.46 14.558 6.726 39.683 2.808 55.758-6.048 24.81-23.31 42.255-46.645 47.138-7.397 1.547-53.661 1.931-75.5.626l-10.5-.627.144-3.21c.473-10.625 21.075-54.132 36.537-77.16 5.676-8.454 10.953-16.363 11.726-17.575 1.283-2.01.939-3.24-3.893-13.931l-5.3-11.727-29.607.607c-16.284.335-36.03.245-43.88-.198l-14.274-.806-3.105 8c-3.72 9.583-8.935 24.772-8.592 25.023.134.099 3.62-.408 7.744-1.126 10.716-1.866 24.105-5.923 32.796-9.938 5.55-2.565 7.832-3.184 8.793-2.385 1.861 1.544 5.168 12.174 6.51 20.926 1.462 9.536.563 31.477-1.618 39.5-6.333 23.297-23.358 39.33-46.688 43.968-8.208 1.631-36.662 1.87-58.293.489zm74.5-160.007c0 1.013 58.537.847 59.552-.168 1.787-1.787-13.937-24.107-22.868-32.462-6.232-5.83-16.967-12.37-18.23-11.108-.853.854-18.454 42.568-18.454 43.738z" fill="#FFF" fill-rule="nonzero"/></g></svg>
