<svg xmlns="http://www.w3.org/2000/svg" viewBox="0 0 1810 1600"><g fill="none" fill-rule="evenodd"><path stroke="#BD0FE1" stroke-width="20" d="M203.03 200h1470.665s99.375 30.406 99.375 150-99.375 150-99.375 150H118.345S10.952 539.094 10.952 650s107.39 150 107.39 150h1555.352s99.375 39.125 99.375 153.156c0 114.032-99.38 145-99.38 145H118.34S10.95 1136.984 10.95 1257.03c0 120.048 107.39 159.39 107.39 159.39h1654.73"/><path fill="#BD0FE1" d="M1680.066 1464.652v-96.132l129.106 48.066"/><g transform="matrix(0 1 1 0 182 0)"><rect width="399.002" height="399.002" x=".577" y=".857" fill="#50E3C2" rx="50"/><g fill-rule="nonzero"><path fill="#FFF" stroke="#000" stroke-width="5" d="M184.06 138.092c-2.877-19.76-10.853-47.05-11.775-60.058-.815-11.5 5.678-19.7 15.682-24.25 3.617-1.644 7.86-2.55 12.32-2.55s8.703.906 12.32 2.55c10.004 4.55 16.497 12.75 15.682 24.25-.93 13.008-8.9 40.297-11.78 60.058m-61.52 16.47c-12.37-15.675-32.92-35.32-40.23-46.125-6.46-9.552-4.94-19.9 1.45-28.84 2.31-3.234 5.53-6.14 9.39-8.37 3.86-2.23 7.99-3.567 11.94-3.95 10.94-1.064 20.66 2.79 25.7 13.158 5.71 11.726 12.44 39.348 19.83 57.9m-45.29 78.45c-19.76 2.877-47.05 10.852-60.06 11.774-11.5.81-19.7-5.68-24.25-15.69-1.64-3.62-2.55-7.86-2.55-12.32s.91-8.71 2.55-12.32c4.55-10.01 12.75-16.5 24.25-15.69 13.01.92 40.3 8.9 60.06 11.77m.26-.96c-18.55-7.39-46.18-14.13-57.9-19.83-10.37-5.05-14.23-14.77-13.16-25.71.38-3.96 1.72-8.09 3.95-11.95 2.23-3.87 5.13-7.09 8.37-9.4 8.94-6.39 19.29-7.91 28.84-1.46 10.8 7.3 30.45 27.85 46.12 40.22m0 90.59c-15.68 12.37-35.32 32.92-46.13 40.222-9.55 6.457-19.9 4.93-28.84-1.455-3.237-2.31-6.14-5.53-8.37-9.394-2.23-3.867-3.57-7.995-3.95-11.95-1.067-10.94 2.79-20.66 13.16-25.705 11.72-5.7 39.343-12.44 57.9-19.83m45.03 45.04c-7.39 18.55-14.127 46.17-19.83 57.9-5.046 10.37-14.77 14.22-25.707 13.16-3.956-.384-8.084-1.72-11.947-3.95-3.86-2.23-7.08-5.137-9.39-8.37-6.39-8.94-7.91-19.29-1.453-28.84 7.308-10.806 27.86-30.45 40.23-46.126m61.52 16.49c2.877 19.76 10.85 47.05 11.775 60.055.812 11.5-5.68 19.7-15.685 24.25-3.614 1.64-7.86 2.55-12.32 2.55s-8.7-.91-12.32-2.55c-10-4.55-16.495-12.75-15.68-24.25.92-13.01 8.9-40.3 11.775-60.06m61.52-16.48c12.37 15.676 32.92 35.32 40.225 46.126 6.455 9.554 4.93 19.9-1.457 28.84-2.31 3.236-5.53 6.14-9.393 8.37-3.86 2.23-7.99 3.57-11.944 3.95-10.94 1.066-20.66-2.79-25.706-13.156-5.707-11.73-12.445-39.35-19.834-57.9m45.04-45.033c18.55 7.39 46.17 14.124 57.9 19.83 10.36 5.042 14.22 14.765 13.16 25.703-.39 3.96-1.72 8.087-3.95 11.95-2.23 3.865-5.14 7.086-8.37 9.396-8.94 6.39-19.29 7.91-28.84 1.45-10.81-7.3-30.45-27.856-46.13-40.227m16.48-61.51c19.76-2.88 47.05-10.86 60.06-11.78 11.5-.81 19.7 5.68 24.25 15.68 1.64 3.62 2.55 7.863 2.55 12.323s-.91 8.7-2.55 12.32c-4.55 10-12.75 16.493-24.25 15.68-13.01-.926-40.3-8.9-60.06-11.778m-45.29-78.46c7.39-18.554 14.125-46.175 19.83-57.9 5.045-10.368 14.768-14.22 25.706-13.16 3.96.383 8.08 1.72 11.95 3.95 3.86 2.23 7.08 5.14 9.39 8.37 6.39 8.94 7.915 19.29 1.46 28.84-7.3 10.805-27.853 30.45-40.225 46.126m.72.715c15.676-12.376 35.32-32.93 46.125-40.23 9.55-6.46 19.9-4.934 28.84 1.455 3.23 2.31 6.14 5.53 8.37 9.39 2.23 3.867 3.564 7.99 3.95 11.95 1.06 10.94-2.794 20.66-13.16 25.704-11.73 5.704-39.35 12.44-57.9 19.83"/><path fill="#FFD800" stroke="#020000" stroke-width="6" d="M264.26 200.567c0 35.33-28.64 63.97-63.97 63.97s-63.97-28.64-63.97-63.97 28.64-63.97 63.97-63.97 63.97 28.64 63.97 63.97z"/></g></g><g transform="matrix(0 1 1 0 707 0)"><rect width="399.002" height="399.002" x=".577" y=".857" fill="#50E3C2" rx="50"/><g fill-rule="nonzero"><path fill="#FFF" stroke="#000" stroke-width="5" d="M184.06 138.092c-2.877-19.76-10.853-47.05-11.775-60.058-.815-11.5 5.678-19.7 15.682-24.25 3.617-1.644 7.86-2.55 12.32-2.55s8.703.906 12.32 2.55c10.004 4.55 16.497 12.75 15.682 24.25-.93 13.008-8.9 40.297-11.78 60.058m-61.52 16.47c-12.37-15.675-32.92-35.32-40.23-46.125-6.46-9.552-4.94-19.9 1.45-28.84 2.31-3.234 5.53-6.14 9.39-8.37 3.86-2.23 7.99-3.567 11.94-3.95 10.94-1.064 20.66 2.79 25.7 13.158 5.71 11.726 12.44 39.348 19.83 57.9m-45.29 78.45c-19.76 2.877-47.05 10.852-60.06 11.774-11.5.81-19.7-5.68-24.25-15.69-1.64-3.62-2.55-7.86-2.55-12.32s.91-8.71 2.55-12.32c4.55-10.01 12.75-16.5 24.25-15.69 13.01.92 40.3 8.9 60.06 11.77m.26-.96c-18.55-7.39-46.18-14.13-57.9-19.83-10.37-5.05-14.23-14.77-13.16-25.71.38-3.96 1.72-8.09 3.95-11.95 2.23-3.87 5.13-7.09 8.37-9.4 8.94-6.39 19.29-7.91 28.84-1.46 10.8 7.3 30.45 27.85 46.12 40.22m0 90.59c-15.68 12.37-35.32 32.92-46.13 40.222-9.55 6.457-19.9 4.93-28.84-1.455-3.237-2.31-6.14-5.53-8.37-9.394-2.23-3.867-3.57-7.995-3.95-11.95-1.067-10.94 2.79-20.66 13.16-25.705 11.72-5.7 39.343-12.44 57.9-19.83m45.03 45.04c-7.39 18.55-14.127 46.17-19.83 57.9-5.046 10.37-14.77 14.22-25.707 13.16-3.956-.384-8.084-1.72-11.947-3.95-3.86-2.23-7.08-5.137-9.39-8.37-6.39-8.94-7.91-19.29-1.453-28.84 7.308-10.806 27.86-30.45 40.23-46.126m61.52 16.49c2.877 19.76 10.85 47.05 11.775 60.055.812 11.5-5.68 19.7-15.685 24.25-3.614 1.64-7.86 2.55-12.32 2.55s-8.7-.91-12.32-2.55c-10-4.55-16.495-12.75-15.68-24.25.92-13.01 8.9-40.3 11.775-60.06m61.52-16.48c12.37 15.676 32.92 35.32 40.225 46.126 6.455 9.554 4.93 19.9-1.457 28.84-2.31 3.236-5.53 6.14-9.393 8.37-3.86 2.23-7.99 3.57-11.944 3.95-10.94 1.066-20.66-2.79-25.706-13.156-5.707-11.73-12.445-39.35-19.834-57.9m45.04-45.033c18.55 7.39 46.17 14.124 57.9 19.83 10.36 5.042 14.22 14.765 13.16 25.703-.39 3.96-1.72 8.087-3.95 11.95-2.23 3.865-5.14 7.086-8.37 9.396-8.94 6.39-19.29 7.91-28.84 1.45-10.81-7.3-30.45-27.856-46.13-40.227m16.48-61.51c19.76-2.88 47.05-10.86 60.06-11.78 11.5-.81 19.7 5.68 24.25 15.68 1.64 3.62 2.55 7.863 2.55 12.323s-.91 8.7-2.55 12.32c-4.55 10-12.75 16.493-24.25 15.68-13.01-.926-40.3-8.9-60.06-11.778m-45.29-78.46c7.39-18.554 14.125-46.175 19.83-57.9 5.045-10.368 14.768-14.22 25.706-13.16 3.96.383 8.08 1.72 11.95 3.95 3.86 2.23 7.08 5.14 9.39 8.37 6.39 8.94 7.915 19.29 1.46 28.84-7.3 10.805-27.853 30.45-40.225 46.126m.72.715c15.676-12.376 35.32-32.93 46.125-40.23 9.55-6.46 19.9-4.934 28.84 1.455 3.23 2.31 6.14 5.53 8.37 9.39 2.23 3.867 3.564 7.99 3.95 11.95 1.06 10.94-2.794 20.66-13.16 25.704-11.73 5.704-39.35 12.44-57.9 19.83"/><path fill="#FFD800" stroke="#020000" stroke-width="6" d="M264.26 200.567c0 35.33-28.64 63.97-63.97 63.97s-63.97-28.64-63.97-63.97 28.64-63.97 63.97-63.97 63.97 28.64 63.97 63.97z"/></g></g><g transform="matrix(0 1 1 0 1232 0)"><rect width="399.002" height="399.002" x=".577" y=".857" fill="#50E3C2" rx="50"/><g fill-rule="nonzero"><path fill="#FFF" stroke="#000" stroke-width="5" d="M184.06 138.092c-2.877-19.76-10.853-47.05-11.775-60.058-.815-11.5 5.678-19.7 15.682-24.25 3.617-1.644 7.86-2.55 12.32-2.55s8.703.906 12.32 2.55c10.004 4.55 16.497 12.75 15.682 24.25-.93 13.008-8.9 40.297-11.78 60.058m-61.52 16.47c-12.37-15.675-32.92-35.32-40.23-46.125-6.46-9.552-4.94-19.9 1.45-28.84 2.31-3.234 5.53-6.14 9.39-8.37 3.86-2.23 7.99-3.567 11.94-3.95 10.94-1.064 20.66 2.79 25.7 13.158 5.71 11.726 12.44 39.348 19.83 57.9m-45.29 78.45c-19.76 2.877-47.05 10.852-60.06 11.774-11.5.81-19.7-5.68-24.25-15.69-1.64-3.62-2.55-7.86-2.55-12.32s.91-8.71 2.55-12.32c4.55-10.01 12.75-16.5 24.25-15.69 13.01.92 40.3 8.9 60.06 11.77m.26-.96c-18.55-7.39-46.18-14.13-57.9-19.83-10.37-5.05-14.23-14.77-13.16-25.71.38-3.96 1.72-8.09 3.95-11.95 2.23-3.87 5.13-7.09 8.37-9.4 8.94-6.39 19.29-7.91 28.84-1.46 10.8 7.3 30.45 27.85 46.12 40.22m0 90.59c-15.68 12.37-35.32 32.92-46.13 40.222-9.55 6.457-19.9 4.93-28.84-1.455-3.237-2.31-6.14-5.53-8.37-9.394-2.23-3.867-3.57-7.995-3.95-11.95-1.067-10.94 2.79-20.66 13.16-25.705 11.72-5.7 39.343-12.44 57.9-19.83m45.03 45.04c-7.39 18.55-14.127 46.17-19.83 57.9-5.046 10.37-14.77 14.22-25.707 13.16-3.956-.384-8.084-1.72-11.947-3.95-3.86-2.23-7.08-5.137-9.39-8.37-6.39-8.94-7.91-19.29-1.453-28.84 7.308-10.806 27.86-30.45 40.23-46.126m61.52 16.49c2.877 19.76 10.85 47.05 11.775 60.055.812 11.5-5.68 19.7-15.685 24.25-3.614 1.64-7.86 2.55-12.32 2.55s-8.7-.91-12.32-2.55c-10-4.55-16.495-12.75-15.68-24.25.92-13.01 8.9-40.3 11.775-60.06m61.52-16.48c12.37 15.676 32.92 35.32 40.225 46.126 6.455 9.554 4.93 19.9-1.457 28.84-2.31 3.236-5.53 6.14-9.393 8.37-3.86 2.23-7.99 3.57-11.944 3.95-10.94 1.066-20.66-2.79-25.706-13.156-5.707-11.73-12.445-39.35-19.834-57.9m45.04-45.033c18.55 7.39 46.17 14.124 57.9 19.83 10.36 5.042 14.22 14.765 13.16 25.703-.39 3.96-1.72 8.087-3.95 11.95-2.23 3.865-5.14 7.086-8.37 9.396-8.94 6.39-19.29 7.91-28.84 1.45-10.81-7.3-30.45-27.856-46.13-40.227m16.48-61.51c19.76-2.88 47.05-10.86 60.06-11.78 11.5-.81 19.7 5.68 24.25 15.68 1.64 3.62 2.55 7.863 2.55 12.323s-.91 8.7-2.55 12.32c-4.55 10-12.75 16.493-24.25 15.68-13.01-.926-40.3-8.9-60.06-11.778m-45.29-78.46c7.39-18.554 14.125-46.175 19.83-57.9 5.045-10.368 14.768-14.22 25.706-13.16 3.96.383 8.08 1.72 11.95 3.95 3.86 2.23 7.08 5.14 9.39 8.37 6.39 8.94 7.915 19.29 1.46 28.84-7.3 10.805-27.853 30.45-40.225 46.126m.72.715c15.676-12.376 35.32-32.93 46.125-40.23 9.55-6.46 19.9-4.934 28.84 1.455 3.23 2.31 6.14 5.53 8.37 9.39 2.23 3.867 3.564 7.99 3.95 11.95 1.06 10.94-2.794 20.66-13.16 25.704-11.73 5.704-39.35 12.44-57.9 19.83"/><path fill="#FFD800" stroke="#020000" stroke-width="6" d="M264.26 200.567c0 35.33-28.64 63.97-63.97 63.97s-63.97-28.64-63.97-63.97 28.64-63.97 63.97-63.97 63.97 28.64 63.97 63.97z"/></g></g><g transform="matrix(0 1 1 0 182 1200)"><rect width="399.002" height="399.002" x=".577" y=".857" fill="#50E3C2" rx="50"/><g fill-rule="nonzero"><path fill="#FFF" stroke="#000" stroke-width="5" d="M184.06 138.092c-2.877-19.76-10.853-47.05-11.775-60.058-.815-11.5 5.678-19.7 15.682-24.25 3.617-1.644 7.86-2.55 12.32-2.55s8.703.906 12.32 2.55c10.004 4.55 16.497 12.75 15.682 24.25-.93 13.008-8.9 40.297-11.78 60.058m-61.52 16.47c-12.37-15.675-32.92-35.32-40.23-46.125-6.46-9.552-4.94-19.9 1.45-28.84 2.31-3.234 5.53-6.14 9.39-8.37 3.86-2.23 7.99-3.567 11.94-3.95 10.94-1.064 20.66 2.79 25.7 13.158 5.71 11.726 12.44 39.348 19.83 57.9m-45.29 78.45c-19.76 2.877-47.05 10.852-60.06 11.774-11.5.81-19.7-5.68-24.25-15.69-1.64-3.62-2.55-7.86-2.55-12.32s.91-8.71 2.55-12.32c4.55-10.01 12.75-16.5 24.25-15.69 13.01.92 40.3 8.9 60.06 11.77m.26-.96c-18.55-7.39-46.18-14.13-57.9-19.83-10.37-5.05-14.23-14.77-13.16-25.71.38-3.96 1.72-8.09 3.95-11.95 2.23-3.87 5.13-7.09 8.37-9.4 8.94-6.39 19.29-7.91 28.84-1.46 10.8 7.3 30.45 27.85 46.12 40.22m0 90.59c-15.68 12.37-35.32 32.92-46.13 40.222-9.55 6.457-19.9 4.93-28.84-1.455-3.237-2.31-6.14-5.53-8.37-9.394-2.23-3.867-3.57-7.995-3.95-11.95-1.067-10.94 2.79-20.66 13.16-25.705 11.72-5.7 39.343-12.44 57.9-19.83m45.03 45.04c-7.39 18.55-14.127 46.17-19.83 57.9-5.046 10.37-14.77 14.22-25.707 13.16-3.956-.384-8.084-1.72-11.947-3.95-3.86-2.23-7.08-5.137-9.39-8.37-6.39-8.94-7.91-19.29-1.453-28.84 7.308-10.806 27.86-30.45 40.23-46.126m61.52 16.49c2.877 19.76 10.85 47.05 11.775 60.055.812 11.5-5.68 19.7-15.685 24.25-3.614 1.64-7.86 2.55-12.32 2.55s-8.7-.91-12.32-2.55c-10-4.55-16.495-12.75-15.68-24.25.92-13.01 8.9-40.3 11.775-60.06m61.52-16.48c12.37 15.676 32.92 35.32 40.225 46.126 6.455 9.554 4.93 19.9-1.457 28.84-2.31 3.236-5.53 6.14-9.393 8.37-3.86 2.23-7.99 3.57-11.944 3.95-10.94 1.066-20.66-2.79-25.706-13.156-5.707-11.73-12.445-39.35-19.834-57.9m45.04-45.033c18.55 7.39 46.17 14.124 57.9 19.83 10.36 5.042 14.22 14.765 13.16 25.703-.39 3.96-1.72 8.087-3.95 11.95-2.23 3.865-5.14 7.086-8.37 9.396-8.94 6.39-19.29 7.91-28.84 1.45-10.81-7.3-30.45-27.856-46.13-40.227m16.48-61.51c19.76-2.88 47.05-10.86 60.06-11.78 11.5-.81 19.7 5.68 24.25 15.68 1.64 3.62 2.55 7.863 2.55 12.323s-.91 8.7-2.55 12.32c-4.55 10-12.75 16.493-24.25 15.68-13.01-.926-40.3-8.9-60.06-11.778m-45.29-78.46c7.39-18.554 14.125-46.175 19.83-57.9 5.045-10.368 14.768-14.22 25.706-13.16 3.96.383 8.08 1.72 11.95 3.95 3.86 2.23 7.08 5.14 9.39 8.37 6.39 8.94 7.915 19.29 1.46 28.84-7.3 10.805-27.853 30.45-40.225 46.126m.72.715c15.676-12.376 35.32-32.93 46.125-40.23 9.55-6.46 19.9-4.934 28.84 1.455 3.23 2.31 6.14 5.53 8.37 9.39 2.23 3.867 3.564 7.99 3.95 11.95 1.06 10.94-2.794 20.66-13.16 25.704-11.73 5.704-39.35 12.44-57.9 19.83"/><path fill="#FFD800" stroke="#020000" stroke-width="6" d="M264.26 200.567c0 35.33-28.64 63.97-63.97 63.97s-63.97-28.64-63.97-63.97 28.64-63.97 63.97-63.97 63.97 28.64 63.97 63.97z"/></g></g><g transform="matrix(0 1 1 0 707 1200)"><rect width="399.002" height="399.002" x=".577" y=".857" fill="#50E3C2" rx="50"/><g fill-rule="nonzero"><path fill="#FFF" stroke="#000" stroke-width="5" d="M184.06 138.092c-2.877-19.76-10.853-47.05-11.775-60.058-.815-11.5 5.678-19.7 15.682-24.25 3.617-1.644 7.86-2.55 12.32-2.55s8.703.906 12.32 2.55c10.004 4.55 16.497 12.75 15.682 24.25-.93 13.008-8.9 40.297-11.78 60.058m-61.52 16.47c-12.37-15.675-32.92-35.32-40.23-46.125-6.46-9.552-4.94-19.9 1.45-28.84 2.31-3.234 5.53-6.14 9.39-8.37 3.86-2.23 7.99-3.567 11.94-3.95 10.94-1.064 20.66 2.79 25.7 13.158 5.71 11.726 12.44 39.348 19.83 57.9m-45.29 78.45c-19.76 2.877-47.05 10.852-60.06 11.774-11.5.81-19.7-5.68-24.25-15.69-1.64-3.62-2.55-7.86-2.55-12.32s.91-8.71 2.55-12.32c4.55-10.01 12.75-16.5 24.25-15.69 13.01.92 40.3 8.9 60.06 11.77m.26-.96c-18.55-7.39-46.18-14.13-57.9-19.83-10.37-5.05-14.23-14.77-13.16-25.71.38-3.96 1.72-8.09 3.95-11.95 2.23-3.87 5.13-7.09 8.37-9.4 8.94-6.39 19.29-7.91 28.84-1.46 10.8 7.3 30.45 27.85 46.12 40.22m0 90.59c-15.68 12.37-35.32 32.92-46.13 40.222-9.55 6.457-19.9 4.93-28.84-1.455-3.237-2.31-6.14-5.53-8.37-9.394-2.23-3.867-3.57-7.995-3.95-11.95-1.067-10.94 2.79-20.66 13.16-25.705 11.72-5.7 39.343-12.44 57.9-19.83m45.03 45.04c-7.39 18.55-14.127 46.17-19.83 57.9-5.046 10.37-14.77 14.22-25.707 13.16-3.956-.384-8.084-1.72-11.947-3.95-3.86-2.23-7.08-5.137-9.39-8.37-6.39-8.94-7.91-19.29-1.453-28.84 7.308-10.806 27.86-30.45 40.23-46.126m61.52 16.49c2.877 19.76 10.85 47.05 11.775 60.055.812 11.5-5.68 19.7-15.685 24.25-3.614 1.64-7.86 2.55-12.32 2.55s-8.7-.91-12.32-2.55c-10-4.55-16.495-12.75-15.68-24.25.92-13.01 8.9-40.3 11.775-60.06m61.52-16.48c12.37 15.676 32.92 35.32 40.225 46.126 6.455 9.554 4.93 19.9-1.457 28.84-2.31 3.236-5.53 6.14-9.393 8.37-3.86 2.23-7.99 3.57-11.944 3.95-10.94 1.066-20.66-2.79-25.706-13.156-5.707-11.73-12.445-39.35-19.834-57.9m45.04-45.033c18.55 7.39 46.17 14.124 57.9 19.83 10.36 5.042 14.22 14.765 13.16 25.703-.39 3.96-1.72 8.087-3.95 11.95-2.23 3.865-5.14 7.086-8.37 9.396-8.94 6.39-19.29 7.91-28.84 1.45-10.81-7.3-30.45-27.856-46.13-40.227m16.48-61.51c19.76-2.88 47.05-10.86 60.06-11.78 11.5-.81 19.7 5.68 24.25 15.68 1.64 3.62 2.55 7.863 2.55 12.323s-.91 8.7-2.55 12.32c-4.55 10-12.75 16.493-24.25 15.68-13.01-.926-40.3-8.9-60.06-11.778m-45.29-78.46c7.39-18.554 14.125-46.175 19.83-57.9 5.045-10.368 14.768-14.22 25.706-13.16 3.96.383 8.08 1.72 11.95 3.95 3.86 2.23 7.08 5.14 9.39 8.37 6.39 8.94 7.915 19.29 1.46 28.84-7.3 10.805-27.853 30.45-40.225 46.126m.72.715c15.676-12.376 35.32-32.93 46.125-40.23 9.55-6.46 19.9-4.934 28.84 1.455 3.23 2.31 6.14 5.53 8.37 9.39 2.23 3.867 3.564 7.99 3.95 11.95 1.06 10.94-2.794 20.66-13.16 25.704-11.73 5.704-39.35 12.44-57.9 19.83"/><path fill="#FFD800" stroke="#020000" stroke-width="6" d="M264.26 200.567c0 35.33-28.64 63.97-63.97 63.97s-63.97-28.64-63.97-63.97 28.64-63.97 63.97-63.97 63.97 28.64 63.97 63.97z"/></g></g><g transform="matrix(0 1 1 0 1232 1200)"><rect width="399.002" height="399.002" x=".577" y=".857" fill="#50E3C2" rx="50"/><g fill-rule="nonzero"><path fill="#FFF" stroke="#000" stroke-width="5" d="M184.06 138.092c-2.877-19.76-10.853-47.05-11.775-60.058-.815-11.5 5.678-19.7 15.682-24.25 3.617-1.644 7.86-2.55 12.32-2.55s8.703.906 12.32 2.55c10.004 4.55 16.497 12.75 15.682 24.25-.93 13.008-8.9 40.297-11.78 60.058m-61.52 16.47c-12.37-15.675-32.92-35.32-40.23-46.125-6.46-9.552-4.94-19.9 1.45-28.84 2.31-3.234 5.53-6.14 9.39-8.37 3.86-2.23 7.99-3.567 11.94-3.95 10.94-1.064 20.66 2.79 25.7 13.158 5.71 11.726 12.44 39.348 19.83 57.9m-45.29 78.45c-19.76 2.877-47.05 10.852-60.06 11.774-11.5.81-19.7-5.68-24.25-15.69-1.64-3.62-2.55-7.86-2.55-12.32s.91-8.71 2.55-12.32c4.55-10.01 12.75-16.5 24.25-15.69 13.01.92 40.3 8.9 60.06 11.77m.26-.96c-18.55-7.39-46.18-14.13-57.9-19.83-10.37-5.05-14.23-14.77-13.16-25.71.38-3.96 1.72-8.09 3.95-11.95 2.23-3.87 5.13-7.09 8.37-9.4 8.94-6.39 19.29-7.91 28.84-1.46 10.8 7.3 30.45 27.85 46.12 40.22m0 90.59c-15.68 12.37-35.32 32.92-46.13 40.222-9.55 6.457-19.9 4.93-28.84-1.455-3.237-2.31-6.14-5.53-8.37-9.394-2.23-3.867-3.57-7.995-3.95-11.95-1.067-10.94 2.79-20.66 13.16-25.705 11.72-5.7 39.343-12.44 57.9-19.83m45.03 45.04c-7.39 18.55-14.127 46.17-19.83 57.9-5.046 10.37-14.77 14.22-25.707 13.16-3.956-.384-8.084-1.72-11.947-3.95-3.86-2.23-7.08-5.137-9.39-8.37-6.39-8.94-7.91-19.29-1.453-28.84 7.308-10.806 27.86-30.45 40.23-46.126m61.52 16.49c2.877 19.76 10.85 47.05 11.775 60.055.812 11.5-5.68 19.7-15.685 24.25-3.614 1.64-7.86 2.55-12.32 2.55s-8.7-.91-12.32-2.55c-10-4.55-16.495-12.75-15.68-24.25.92-13.01 8.9-40.3 11.775-60.06m61.52-16.48c12.37 15.676 32.92 35.32 40.225 46.126 6.455 9.554 4.93 19.9-1.457 28.84-2.31 3.236-5.53 6.14-9.393 8.37-3.86 2.23-7.99 3.57-11.944 3.95-10.94 1.066-20.66-2.79-25.706-13.156-5.707-11.73-12.445-39.35-19.834-57.9m45.04-45.033c18.55 7.39 46.17 14.124 57.9 19.83 10.36 5.042 14.22 14.765 13.16 25.703-.39 3.96-1.72 8.087-3.95 11.95-2.23 3.865-5.14 7.086-8.37 9.396-8.94 6.39-19.29 7.91-28.84 1.45-10.81-7.3-30.45-27.856-46.13-40.227m16.48-61.51c19.76-2.88 47.05-10.86 60.06-11.78 11.5-.81 19.7 5.68 24.25 15.68 1.64 3.62 2.55 7.863 2.55 12.323s-.91 8.7-2.55 12.32c-4.55 10-12.75 16.493-24.25 15.68-13.01-.926-40.3-8.9-60.06-11.778m-45.29-78.46c7.39-18.554 14.125-46.175 19.83-57.9 5.045-10.368 14.768-14.22 25.706-13.16 3.96.383 8.08 1.72 11.95 3.95 3.86 2.23 7.08 5.14 9.39 8.37 6.39 8.94 7.915 19.29 1.46 28.84-7.3 10.805-27.853 30.45-40.225 46.126m.72.715c15.676-12.376 35.32-32.93 46.125-40.23 9.55-6.46 19.9-4.934 28.84 1.455 3.23 2.31 6.14 5.53 8.37 9.39 2.23 3.867 3.564 7.99 3.95 11.95 1.06 10.94-2.794 20.66-13.16 25.704-11.73 5.704-39.35 12.44-57.9 19.83"/><path fill="#FFD800" stroke="#020000" stroke-width="6" d="M264.26 200.567c0 35.33-28.64 63.97-63.97 63.97s-63.97-28.64-63.97-63.97 28.64-63.97 63.97-63.97 63.97 28.64 63.97 63.97z"/></g></g><g transform="matrix(0 1 1 0 182 600)"><rect width="399.002" height="399.002" x=".577" y=".857" fill="#50E3C2" rx="50"/><g fill-rule="nonzero"><path fill="#FFF" stroke="#000" stroke-width="5" d="M184.06 138.092c-2.877-19.76-10.853-47.05-11.775-60.058-.815-11.5 5.678-19.7 15.682-24.25 3.617-1.644 7.86-2.55 12.32-2.55s8.703.906 12.32 2.55c10.004 4.55 16.497 12.75 15.682 24.25-.93 13.008-8.9 40.297-11.78 60.058m-61.52 16.47c-12.37-15.675-32.92-35.32-40.23-46.125-6.46-9.552-4.94-19.9 1.45-28.84 2.31-3.234 5.53-6.14 9.39-8.37 3.86-2.23 7.99-3.567 11.94-3.95 10.94-1.064 20.66 2.79 25.7 13.158 5.71 11.726 12.44 39.348 19.83 57.9m-45.29 78.45c-19.76 2.877-47.05 10.852-60.06 11.774-11.5.81-19.7-5.68-24.25-15.69-1.64-3.62-2.55-7.86-2.55-12.32s.91-8.71 2.55-12.32c4.55-10.01 12.75-16.5 24.25-15.69 13.01.92 40.3 8.9 60.06 11.77m.26-.96c-18.55-7.39-46.18-14.13-57.9-19.83-10.37-5.05-14.23-14.77-13.16-25.71.38-3.96 1.72-8.09 3.95-11.95 2.23-3.87 5.13-7.09 8.37-9.4 8.94-6.39 19.29-7.91 28.84-1.46 10.8 7.3 30.45 27.85 46.12 40.22m0 90.59c-15.68 12.37-35.32 32.92-46.13 40.222-9.55 6.457-19.9 4.93-28.84-1.455-3.237-2.31-6.14-5.53-8.37-9.394-2.23-3.867-3.57-7.995-3.95-11.95-1.067-10.94 2.79-20.66 13.16-25.705 11.72-5.7 39.343-12.44 57.9-19.83m45.03 45.04c-7.39 18.55-14.127 46.17-19.83 57.9-5.046 10.37-14.77 14.22-25.707 13.16-3.956-.384-8.084-1.72-11.947-3.95-3.86-2.23-7.08-5.137-9.39-8.37-6.39-8.94-7.91-19.29-1.453-28.84 7.308-10.806 27.86-30.45 40.23-46.126m61.52 16.49c2.877 19.76 10.85 47.05 11.775 60.055.812 11.5-5.68 19.7-15.685 24.25-3.614 1.64-7.86 2.55-12.32 2.55s-8.7-.91-12.32-2.55c-10-4.55-16.495-12.75-15.68-24.25.92-13.01 8.9-40.3 11.775-60.06m61.52-16.48c12.37 15.676 32.92 35.32 40.225 46.126 6.455 9.554 4.93 19.9-1.457 28.84-2.31 3.236-5.53 6.14-9.393 8.37-3.86 2.23-7.99 3.57-11.944 3.95-10.94 1.066-20.66-2.79-25.706-13.156-5.707-11.73-12.445-39.35-19.834-57.9m45.04-45.033c18.55 7.39 46.17 14.124 57.9 19.83 10.36 5.042 14.22 14.765 13.16 25.703-.39 3.96-1.72 8.087-3.95 11.95-2.23 3.865-5.14 7.086-8.37 9.396-8.94 6.39-19.29 7.91-28.84 1.45-10.81-7.3-30.45-27.856-46.13-40.227m16.48-61.51c19.76-2.88 47.05-10.86 60.06-11.78 11.5-.81 19.7 5.68 24.25 15.68 1.64 3.62 2.55 7.863 2.55 12.323s-.91 8.7-2.55 12.32c-4.55 10-12.75 16.493-24.25 15.68-13.01-.926-40.3-8.9-60.06-11.778m-45.29-78.46c7.39-18.554 14.125-46.175 19.83-57.9 5.045-10.368 14.768-14.22 25.706-13.16 3.96.383 8.08 1.72 11.95 3.95 3.86 2.23 7.08 5.14 9.39 8.37 6.39 8.94 7.915 19.29 1.46 28.84-7.3 10.805-27.853 30.45-40.225 46.126m.72.715c15.676-12.376 35.32-32.93 46.125-40.23 9.55-6.46 19.9-4.934 28.84 1.455 3.23 2.31 6.14 5.53 8.37 9.39 2.23 3.867 3.564 7.99 3.95 11.95 1.06 10.94-2.794 20.66-13.16 25.704-11.73 5.704-39.35 12.44-57.9 19.83"/><path fill="#FFD800" stroke="#020000" stroke-width="6" d="M264.26 200.567c0 35.33-28.64 63.97-63.97 63.97s-63.97-28.64-63.97-63.97 28.64-63.97 63.97-63.97 63.97 28.64 63.97 63.97z"/></g></g><g transform="matrix(0 1 1 0 707 600)"><rect width="399.002" height="399.002" x=".577" y=".857" fill="#50E3C2" rx="50"/><g fill-rule="nonzero"><path fill="#FFF" stroke="#000" stroke-width="5" d="M184.06 138.092c-2.877-19.76-10.853-47.05-11.775-60.058-.815-11.5 5.678-19.7 15.682-24.25 3.617-1.644 7.86-2.55 12.32-2.55s8.703.906 12.32 2.55c10.004 4.55 16.497 12.75 15.682 24.25-.93 13.008-8.9 40.297-11.78 60.058m-61.52 16.47c-12.37-15.675-32.92-35.32-40.23-46.125-6.46-9.552-4.94-19.9 1.45-28.84 2.31-3.234 5.53-6.14 9.39-8.37 3.86-2.23 7.99-3.567 11.94-3.95 10.94-1.064 20.66 2.79 25.7 13.158 5.71 11.726 12.44 39.348 19.83 57.9m-45.29 78.45c-19.76 2.877-47.05 10.852-60.06 11.774-11.5.81-19.7-5.68-24.25-15.69-1.64-3.62-2.55-7.86-2.55-12.32s.91-8.71 2.55-12.32c4.55-10.01 12.75-16.5 24.25-15.69 13.01.92 40.3 8.9 60.06 11.77m.26-.96c-18.55-7.39-46.18-14.13-57.9-19.83-10.37-5.05-14.23-14.77-13.16-25.71.38-3.96 1.72-8.09 3.95-11.95 2.23-3.87 5.13-7.09 8.37-9.4 8.94-6.39 19.29-7.91 28.84-1.46 10.8 7.3 30.45 27.85 46.12 40.22m0 90.59c-15.68 12.37-35.32 32.92-46.13 40.222-9.55 6.457-19.9 4.93-28.84-1.455-3.237-2.31-6.14-5.53-8.37-9.394-2.23-3.867-3.57-7.995-3.95-11.95-1.067-10.94 2.79-20.66 13.16-25.705 11.72-5.7 39.343-12.44 57.9-19.83m45.03 45.04c-7.39 18.55-14.127 46.17-19.83 57.9-5.046 10.37-14.77 14.22-25.707 13.16-3.956-.384-8.084-1.72-11.947-3.95-3.86-2.23-7.08-5.137-9.39-8.37-6.39-8.94-7.91-19.29-1.453-28.84 7.308-10.806 27.86-30.45 40.23-46.126m61.52 16.49c2.877 19.76 10.85 47.05 11.775 60.055.812 11.5-5.68 19.7-15.685 24.25-3.614 1.64-7.86 2.55-12.32 2.55s-8.7-.91-12.32-2.55c-10-4.55-16.495-12.75-15.68-24.25.92-13.01 8.9-40.3 11.775-60.06m61.52-16.48c12.37 15.676 32.92 35.32 40.225 46.126 6.455 9.554 4.93 19.9-1.457 28.84-2.31 3.236-5.53 6.14-9.393 8.37-3.86 2.23-7.99 3.57-11.944 3.95-10.94 1.066-20.66-2.79-25.706-13.156-5.707-11.73-12.445-39.35-19.834-57.9m45.04-45.033c18.55 7.39 46.17 14.124 57.9 19.83 10.36 5.042 14.22 14.765 13.16 25.703-.39 3.96-1.72 8.087-3.95 11.95-2.23 3.865-5.14 7.086-8.37 9.396-8.94 6.39-19.29 7.91-28.84 1.45-10.81-7.3-30.45-27.856-46.13-40.227m16.48-61.51c19.76-2.88 47.05-10.86 60.06-11.78 11.5-.81 19.7 5.68 24.25 15.68 1.64 3.62 2.55 7.863 2.55 12.323s-.91 8.7-2.55 12.32c-4.55 10-12.75 16.493-24.25 15.68-13.01-.926-40.3-8.9-60.06-11.778m-45.29-78.46c7.39-18.554 14.125-46.175 19.83-57.9 5.045-10.368 14.768-14.22 25.706-13.16 3.96.383 8.08 1.72 11.95 3.95 3.86 2.23 7.08 5.14 9.39 8.37 6.39 8.94 7.915 19.29 1.46 28.84-7.3 10.805-27.853 30.45-40.225 46.126m.72.715c15.676-12.376 35.32-32.93 46.125-40.23 9.55-6.46 19.9-4.934 28.84 1.455 3.23 2.31 6.14 5.53 8.37 9.39 2.23 3.867 3.564 7.99 3.95 11.95 1.06 10.94-2.794 20.66-13.16 25.704-11.73 5.704-39.35 12.44-57.9 19.83"/><path fill="#FFD800" stroke="#020000" stroke-width="6" d="M264.26 200.567c0 35.33-28.64 63.97-63.97 63.97s-63.97-28.64-63.97-63.97 28.64-63.97 63.97-63.97 63.97 28.64 63.97 63.97z"/></g></g><g transform="matrix(0 1 1 0 1232 600)"><rect width="399.002" height="399.002" x=".577" y=".857" fill="#50E3C2" rx="50"/><g fill-rule="nonzero"><path fill="#FFF" stroke="#000" stroke-width="5" d="M184.06 138.092c-2.877-19.76-10.853-47.05-11.775-60.058-.815-11.5 5.678-19.7 15.682-24.25 3.617-1.644 7.86-2.55 12.32-2.55s8.703.906 12.32 2.55c10.004 4.55 16.497 12.75 15.682 24.25-.93 13.008-8.9 40.297-11.78 60.058m-61.52 16.47c-12.37-15.675-32.92-35.32-40.23-46.125-6.46-9.552-4.94-19.9 1.45-28.84 2.31-3.234 5.53-6.14 9.39-8.37 3.86-2.23 7.99-3.567 11.94-3.95 10.94-1.064 20.66 2.79 25.7 13.158 5.71 11.726 12.44 39.348 19.83 57.9m-45.29 78.45c-19.76 2.877-47.05 10.852-60.06 11.774-11.5.81-19.7-5.68-24.25-15.69-1.64-3.62-2.55-7.86-2.55-12.32s.91-8.71 2.55-12.32c4.55-10.01 12.75-16.5 24.25-15.69 13.01.92 40.3 8.9 60.06 11.77m.26-.96c-18.55-7.39-46.18-14.13-57.9-19.83-10.37-5.05-14.23-14.77-13.16-25.71.38-3.96 1.72-8.09 3.95-11.95 2.23-3.87 5.13-7.09 8.37-9.4 8.94-6.39 19.29-7.91 28.84-1.46 10.8 7.3 30.45 27.85 46.12 40.22m0 90.59c-15.68 12.37-35.32 32.92-46.13 40.222-9.55 6.457-19.9 4.93-28.84-1.455-3.237-2.31-6.14-5.53-8.37-9.394-2.23-3.867-3.57-7.995-3.95-11.95-1.067-10.94 2.79-20.66 13.16-25.705 11.72-5.7 39.343-12.44 57.9-19.83m45.03 45.04c-7.39 18.55-14.127 46.17-19.83 57.9-5.046 10.37-14.77 14.22-25.707 13.16-3.956-.384-8.084-1.72-11.947-3.95-3.86-2.23-7.08-5.137-9.39-8.37-6.39-8.94-7.91-19.29-1.453-28.84 7.308-10.806 27.86-30.45 40.23-46.126m61.52 16.49c2.877 19.76 10.85 47.05 11.775 60.055.812 11.5-5.68 19.7-15.685 24.25-3.614 1.64-7.86 2.55-12.32 2.55s-8.7-.91-12.32-2.55c-10-4.55-16.495-12.75-15.68-24.25.92-13.01 8.9-40.3 11.775-60.06m61.52-16.48c12.37 15.676 32.92 35.32 40.225 46.126 6.455 9.554 4.93 19.9-1.457 28.84-2.31 3.236-5.53 6.14-9.393 8.37-3.86 2.23-7.99 3.57-11.944 3.95-10.94 1.066-20.66-2.79-25.706-13.156-5.707-11.73-12.445-39.35-19.834-57.9m45.04-45.033c18.55 7.39 46.17 14.124 57.9 19.83 10.36 5.042 14.22 14.765 13.16 25.703-.39 3.96-1.72 8.087-3.95 11.95-2.23 3.865-5.14 7.086-8.37 9.396-8.94 6.39-19.29 7.91-28.84 1.45-10.81-7.3-30.45-27.856-46.13-40.227m16.48-61.51c19.76-2.88 47.05-10.86 60.06-11.78 11.5-.81 19.7 5.68 24.25 15.68 1.64 3.62 2.55 7.863 2.55 12.323s-.91 8.7-2.55 12.32c-4.55 10-12.75 16.493-24.25 15.68-13.01-.926-40.3-8.9-60.06-11.778m-45.29-78.46c7.39-18.554 14.125-46.175 19.83-57.9 5.045-10.368 14.768-14.22 25.706-13.16 3.96.383 8.08 1.72 11.95 3.95 3.86 2.23 7.08 5.14 9.39 8.37 6.39 8.94 7.915 19.29 1.46 28.84-7.3 10.805-27.853 30.45-40.225 46.126m.72.715c15.676-12.376 35.32-32.93 46.125-40.23 9.55-6.46 19.9-4.934 28.84 1.455 3.23 2.31 6.14 5.53 8.37 9.39 2.23 3.867 3.564 7.99 3.95 11.95 1.06 10.94-2.794 20.66-13.16 25.704-11.73 5.704-39.35 12.44-57.9 19.83"/><path fill="#FFD800" stroke="#020000" stroke-width="6" d="M264.26 200.567c0 35.33-28.64 63.97-63.97 63.97s-63.97-28.64-63.97-63.97 28.64-63.97 63.97-63.97 63.97 28.64 63.97 63.97z"/></g></g></g></svg>
