<svg xmlns="http://www.w3.org/2000/svg" fill="none" viewBox="0 0 447 241"><path fill="#0242BC" stroke="#000" stroke-width="2" d="M67 42h11v22H67z"/><path fill="#010151" stroke="#000" stroke-width="2" d="M89 64h11v22H89z"/><path stroke="#000" stroke-width="2" d="M67 64h11v22H67zM67 86h11v22H67zM45 108h11v22H45z"/><path fill="#010151" stroke="#000" stroke-width="2" d="M23 108h11v22H23zM23 86h11v22H23z"/><path stroke="#000" stroke-width="2" d="M45 86h11v22H45z"/><path fill="#010151" stroke="#000" stroke-width="2" d="M23 64h11v22H23z"/><path stroke="#000" stroke-width="2" d="M45 64h11v22H45z"/><path fill="#0242BC" stroke="#000" stroke-width="2" d="M23 42h11v22H23zM45 42h11v22H45z"/><path stroke="#000" stroke-width="2" d="M177 86h11v22h-11zM177 130h11v22h-11zM177 152h11v22h-11z"/><path fill="#010151" stroke="#000" stroke-width="2" d="M155 64h11v22h-11z"/><path fill="#00369C" stroke="#000" stroke-width="2" d="M89 42h11v22H89zM155 42h11v22h-11z"/><path fill="#010151" stroke="#000" stroke-width="2" d="M177 64h11v22h-11z"/><path fill="#00369C" stroke="#000" stroke-width="2" d="M177 42h11v22h-11z"/><path fill="#010151" stroke="#000" stroke-width="2" d="M45 130h11v22H45z"/><path stroke="#000" stroke-width="2" d="M45 130h11v22H45zM45 152h11v22H45zM177 174h11v22h-11zM199 174h11v22h-11zM199 152h11v22h-11z"/><path fill="#024EE0" stroke="#000" stroke-width="2" d="M199 218h11v22h-11z"/><path stroke="#000" stroke-width="2" d="M199 196h11v22h-11zM199 130h11v22h-11z"/><path fill="#010151" stroke="#000" stroke-width="2" d="M221 174h11v22h-11z"/><path fill="navy" stroke="#000" stroke-width="2" d="M221 152h11v22h-11z"/><path fill="#024EE0" stroke="#000" stroke-width="2" d="M221 218h11v22h-11z"/><path fill="#010151" stroke="#000" stroke-width="2" d="M221 196h11v22h-11z"/><path fill="navy" stroke="#000" stroke-width="2" d="M221 130h11v22h-11z"/><path stroke="#000" stroke-width="2" d="M199 108h11v22h-11z"/><path fill="navy" stroke="#000" stroke-width="2" d="M221 108h11v22h-11zM221 86h11v22h-11z"/><path stroke="#000" stroke-width="2" d="M199 86h11v22h-11z"/><path fill="navy" stroke="#000" stroke-width="2" d="M221 64h11v22h-11z"/><path fill="#010151" stroke="#000" stroke-width="2" d="M199 64h11v22h-11z"/><path fill="#00369C" stroke="#000" stroke-width="2" d="M221 42h11v22h-11z"/><path stroke="#000" stroke-width="2" d="M243 174h11v22h-11zM243 152h11v22h-11z"/><path fill="#024EE0" stroke="#000" stroke-width="2" d="M243 218h11v22h-11z"/><path stroke="#000" stroke-width="2" d="M243 196h11v22h-11zM243 130h11v22h-11zM243 108h11v22h-11zM243 86h11v22h-11z"/><path fill="navy" stroke="#000" stroke-width="2" d="M243 64h11v22h-11z"/><path fill="#00369C" stroke="#000" stroke-width="2" d="M243 42h11v22h-11zM199 42h11v22h-11z"/><path stroke="#000" stroke-width="2" d="M67 130h11v22H67zM67 174h11v22H67z"/><path fill="#010151" stroke="#000" stroke-width="2" d="M89 174h11v22H89zM155 174h11v22h-11z"/><path stroke="#000" stroke-width="2" d="M133 174h11v22h-11zM111 174h11v22h-11z"/><path fill="#010151" stroke="#000" stroke-width="2" d="M89 152h11v22H89zM155 152h11v22h-11z"/><path stroke="#000" stroke-width="2" d="M133 152h11v22h-11zM111 152h11v22h-11z"/><path fill="#024EE0" stroke="#000" stroke-width="2" d="M133 218h11v22h-11zM111 218h11v22h-11z"/><path stroke="#000" stroke-width="2" d="M133 196h11v22h-11zM111 196h11v22h-11z"/><path fill="#010151" stroke="#000" stroke-width="2" d="M89 86h11v22H89zM155 86h11v22h-11z"/><path stroke="#000" stroke-width="2" d="M133 86h11v22h-11zM111 86h11v22h-11zM67 108h11v22H67zM177 108h11v22h-11z"/><path fill="#010151" stroke="#000" stroke-width="2" d="M155 130h11v22h-11zM155 108h11v22h-11zM67 130h11v22H67zM89 108h11v22H89zM89 130h11v22H89z"/><path stroke="#000" stroke-width="2" d="M133 130h11v22h-11zM111 130h11v22h-11zM133 108h11v22h-11zM111 108h11v22h-11z"/><path fill="#024EE0" stroke="#000" stroke-width="2" d="M89 218h11v22H89zM155 218h11v22h-11zM177 218h11v22h-11zM67 218h11v22H67z"/><path fill="#010151" stroke="#000" stroke-width="2" d="M89 196h11v22H89z"/><path stroke="#000" stroke-width="2" d="M67 196h11v22H67z"/><path fill="#024EE0" stroke="#000" stroke-width="2" d="M45 218h11v22H45z"/><path stroke="#000" stroke-width="2" d="M45 196h11v22H45z"/><path fill="#010151" stroke="#000" stroke-width="2" d="M23 130h11v22H23zM23 152h11v22H23zM23 174h11v22H23z"/><path fill="#0242BC" stroke="#000" stroke-width="2" d="M23 218h11v22H23z"/><path fill="#010151" stroke="#000" stroke-width="2" d="M23 196h11v22H23z"/><path fill="#0242BC" stroke="#000" stroke-width="2" d="M1 108h11v22H1zM1 86h11v22H1zM1 64h11v22H1zM1 42h11v22H1zM1 130h11v22H1zM1 152h11v22H1zM1 174h11v22H1zM1 218h11v22H1zM1 196h11v22H1z"/><path fill="#010151" stroke="#000" stroke-width="2" d="M155 196h11v22h-11z"/><path stroke="#000" stroke-width="2" d="M177 196h11v22h-11z"/><path fill="#00369C" stroke="#000" stroke-width="2" d="M133 42h11v22h-11z"/><path fill="#010151" stroke="#000" stroke-width="2" d="M133 64h11v22h-11zM111 64h11v22h-11z"/><path fill="#00369C" stroke="#000" stroke-width="2" d="M111 42h11v22h-11z"/><path stroke="#000" stroke-width="2" d="M265 64h11v22h-11zM353 86h11v22h-11zM353 130h11v22h-11zM353 152h11v22h-11z"/><path fill="#0202CA" stroke="#000" stroke-width="2" d="M331 64h11v22h-11z"/><path fill="#00369C" stroke="#000" stroke-width="2" d="M265 42h11v22h-11zM331 42h11v22h-11z"/><path stroke="#000" stroke-width="2" d="M353 64h11v22h-11z"/><path fill="#00369C" stroke="#000" stroke-width="2" d="M353 42h11v22h-11z"/><path stroke="#000" stroke-width="2" d="M353 174h11v22h-11zM375 174h11v22h-11zM375 152h11v22h-11z"/><path fill="#2B6DEC" stroke="#000" stroke-width="2" d="M375 218h11v22h-11z"/><path fill="#0202CA" stroke="#000" stroke-width="2" d="M375 196h11v22h-11z"/><path stroke="#000" stroke-width="2" d="M375 130h11v22h-11zM397 174h11v22h-11zM397 152h11v22h-11z"/><path fill="#2B6DEC" stroke="#000" stroke-width="2" d="M397 218h11v22h-11z"/><path fill="#0202CA" stroke="#000" stroke-width="2" d="M397 196h11v22h-11z"/><path stroke="#000" stroke-width="2" d="M397 130h11v22h-11zM375 108h11v22h-11zM397 108h11v22h-11zM397 86h11v22h-11zM375 86h11v22h-11zM397 64h11v22h-11zM375 64h11v22h-11z"/><path fill="#0202CA" stroke="#000" stroke-width="2" d="M397 42h11v22h-11z"/><path fill="#5186ED" stroke="#000" stroke-width="2" d="M419 174h11v22h-11zM419 152h11v22h-11z"/><path fill="#2B6DEC" stroke="#000" stroke-width="2" d="M419 218h11v22h-11z"/><path fill="#5186ED" stroke="#000" stroke-width="2" d="M419 196h11v22h-11z"/><path fill="#749EEF" stroke="#000" stroke-width="2" d="M419 130h11v22h-11zM419 108h11v22h-11zM419 86h11v22h-11z"/><path fill="#0202CA" stroke="#000" stroke-width="2" d="M419 64h11v22h-11zM419 42h11v22h-11z"/><path fill="#00369C" stroke="#000" stroke-width="2" d="M375 42h11v22h-11z"/><path stroke="#000" stroke-width="2" d="M265 174h11v22h-11z"/><path fill="#0202CA" stroke="#000" stroke-width="2" d="M331 174h11v22h-11zM309 174h11v22h-11z"/><path stroke="#000" stroke-width="2" d="M287 174h11v22h-11zM265 152h11v22h-11z"/><path fill="#0202CA" stroke="#000" stroke-width="2" d="M331 152h11v22h-11z"/><path fill="navy" stroke="#000" stroke-width="2" d="M309 152h11v22h-11z"/><path stroke="#000" stroke-width="2" d="M287 152h11v22h-11z"/><path fill="#2B6DEC" stroke="#000" stroke-width="2" d="M309 218h11v22h-11z"/><path fill="#155EEA" stroke="#000" stroke-width="2" d="M287 218h11v22h-11z"/><path fill="#0202CA" stroke="#000" stroke-width="2" d="M309 196h11v22h-11z"/><path stroke="#000" stroke-width="2" d="M287 196h11v22h-11z"/><path fill="navy" stroke="#000" stroke-width="2" d="M265 86h11v22h-11z"/><path fill="#0202CA" stroke="#000" stroke-width="2" d="M331 86h11v22h-11z"/><path fill="navy" stroke="#000" stroke-width="2" d="M309 86h11v22h-11z"/><path stroke="#000" stroke-width="2" d="M287 86h11v22h-11zM353 108h11v22h-11z"/><path fill="#0202CA" stroke="#000" stroke-width="2" d="M331 130h11v22h-11zM331 108h11v22h-11z"/><path fill="navy" stroke="#000" stroke-width="2" d="M265 108h11v22h-11z"/><path stroke="#000" stroke-width="2" d="M265 130h11v22h-11z"/><path fill="navy" stroke="#000" stroke-width="2" d="M309 130h11v22h-11z"/><path stroke="#000" stroke-width="2" d="M287 130h11v22h-11z"/><path fill="navy" stroke="#000" stroke-width="2" d="M309 108h11v22h-11z"/><path stroke="#000" stroke-width="2" d="M287 108h11v22h-11z"/><path fill="#155EEA" stroke="#000" stroke-width="2" d="M265 218h11v22h-11z"/><path fill="#2B6DEC" stroke="#000" stroke-width="2" d="M331 218h11v22h-11zM353 218h11v22h-11z"/><path stroke="#000" stroke-width="2" d="M265 196h11v22h-11z"/><path fill="#0202CA" stroke="#000" stroke-width="2" d="M331 196h11v22h-11zM353 196h11v22h-11z"/><path fill="#00369C" stroke="#000" stroke-width="2" d="M309 42h11v22h-11z"/><path fill="navy" stroke="#000" stroke-width="2" d="M309 64h11v22h-11zM287 64h11v22h-11z"/><path fill="#00369C" stroke="#000" stroke-width="2" d="M287 42h11v22h-11z"/><path fill="#0242BC" stroke="#000" stroke-width="2" d="M78 42h11v22H78z"/><path fill="#010151" stroke="#000" stroke-width="2" d="M100 64h11v22h-11z"/><path stroke="#000" stroke-width="2" d="M78 64h11v22H78zM78 86h11v22H78zM56 108h11v22H56z"/><path fill="#010151" stroke="#000" stroke-width="2" d="M34 108h11v22H34zM34 86h11v22H34z"/><path stroke="#000" stroke-width="2" d="M56 86h11v22H56z"/><path fill="#010151" stroke="#000" stroke-width="2" d="M34 64h11v22H34z"/><path stroke="#000" stroke-width="2" d="M56 64h11v22H56z"/><path fill="#0242BC" stroke="#000" stroke-width="2" d="M34 42h11v22H34zM56 42h11v22H56z"/><path stroke="#000" stroke-width="2" d="M188 86h11v22h-11zM188 130h11v22h-11zM188 152h11v22h-11z"/><path fill="#010151" stroke="#000" stroke-width="2" d="M166 64h11v22h-11z"/><path fill="#00369C" stroke="#000" stroke-width="2" d="M100 42h11v22h-11zM166 42h11v22h-11z"/><path fill="#010151" stroke="#000" stroke-width="2" d="M188 64h11v22h-11z"/><path fill="#00369C" stroke="#000" stroke-width="2" d="M188 42h11v22h-11z"/><path fill="#010151" stroke="#000" stroke-width="2" d="M56 130h11v22H56z"/><path stroke="#000" stroke-width="2" d="M56 130h11v22H56zM56 152h11v22H56zM67 152h11v22H67zM78 152h11v22H78zM188 174h11v22h-11zM210 174h11v22h-11zM210 152h11v22h-11z"/><path fill="#024EE0" stroke="#000" stroke-width="2" d="M210 218h11v22h-11z"/><path stroke="#000" stroke-width="2" d="M210 196h11v22h-11zM210 130h11v22h-11z"/><path fill="#010151" stroke="#000" stroke-width="2" d="M232 174h11v22h-11z"/><path fill="navy" stroke="#000" stroke-width="2" d="M232 152h11v22h-11z"/><path fill="#024EE0" stroke="#000" stroke-width="2" d="M232 218h11v22h-11z"/><path fill="#010151" stroke="#000" stroke-width="2" d="M232 196h11v22h-11z"/><path fill="navy" stroke="#000" stroke-width="2" d="M232 130h11v22h-11z"/><path stroke="#000" stroke-width="2" d="M210 108h11v22h-11z"/><path fill="navy" stroke="#000" stroke-width="2" d="M232 108h11v22h-11zM232 86h11v22h-11z"/><path stroke="#000" stroke-width="2" d="M210 86h11v22h-11z"/><path fill="navy" stroke="#000" stroke-width="2" d="M232 64h11v22h-11z"/><path fill="#010151" stroke="#000" stroke-width="2" d="M210 64h11v22h-11z"/><path fill="#00369C" stroke="#000" stroke-width="2" d="M232 42h11v22h-11z"/><path stroke="#000" stroke-width="2" d="M254 174h11v22h-11zM254 152h11v22h-11z"/><path fill="#024EE0" stroke="#000" stroke-width="2" d="M254 218h11v22h-11z"/><path stroke="#000" stroke-width="2" d="M254 196h11v22h-11zM254 130h11v22h-11zM254 108h11v22h-11z"/><path fill="navy" stroke="#000" stroke-width="2" d="M254 86h11v22h-11zM254 64h11v22h-11z"/><path fill="#00369C" stroke="#000" stroke-width="2" d="M254 42h11v22h-11zM210 42h11v22h-11z"/><path stroke="#000" stroke-width="2" d="M78 130h11v22H78zM78 174h11v22H78zM45 174h11v22H45zM56 174h11v22H56z"/><path fill="#010151" stroke="#000" stroke-width="2" d="M100 174h11v22h-11zM166 174h11v22h-11z"/><path stroke="#000" stroke-width="2" d="M144 174h11v22h-11zM122 174h11v22h-11z"/><path fill="#010151" stroke="#000" stroke-width="2" d="M100 152h11v22h-11zM166 152h11v22h-11z"/><path stroke="#000" stroke-width="2" d="M144 152h11v22h-11zM122 152h11v22h-11z"/><path fill="#024EE0" stroke="#000" stroke-width="2" d="M144 218h11v22h-11zM122 218h11v22h-11z"/><path stroke="#000" stroke-width="2" d="M144 196h11v22h-11zM122 196h11v22h-11z"/><path fill="#010151" stroke="#000" stroke-width="2" d="M100 86h11v22h-11zM166 86h11v22h-11z"/><path stroke="#000" stroke-width="2" d="M144 86h11v22h-11zM122 86h11v22h-11zM78 108h11v22H78zM188 108h11v22h-11z"/><path fill="#010151" stroke="#000" stroke-width="2" d="M166 130h11v22h-11zM166 108h11v22h-11zM78 130h11v22H78zM100 108h11v22h-11zM100 130h11v22h-11z"/><path stroke="#000" stroke-width="2" d="M144 130h11v22h-11zM122 130h11v22h-11zM144 108h11v22h-11zM122 108h11v22h-11z"/><path fill="#024EE0" stroke="#000" stroke-width="2" d="M100 218h11v22h-11zM166 218h11v22h-11zM188 218h11v22h-11zM78 218h11v22H78z"/><path fill="#010151" stroke="#000" stroke-width="2" d="M100 196h11v22h-11z"/><path stroke="#000" stroke-width="2" d="M78 196h11v22H78z"/><path fill="#024EE0" stroke="#000" stroke-width="2" d="M56 218h11v22H56z"/><path stroke="#000" stroke-width="2" d="M56 196h11v22H56z"/><path fill="#010151" stroke="#000" stroke-width="2" d="M34 130h11v22H34zM34 152h11v22H34zM34 174h11v22H34z"/><path fill="#0242BC" stroke="#000" stroke-width="2" d="M34 218h11v22H34z"/><path fill="#010151" stroke="#000" stroke-width="2" d="M34 196h11v22H34z"/><path fill="#0242BC" stroke="#000" stroke-width="2" d="M12 108h11v22H12zM12 86h11v22H12zM12 64h11v22H12zM12 42h11v22H12zM12 130h11v22H12zM12 152h11v22H12zM12 174h11v22H12zM12 218h11v22H12zM12 196h11v22H12z"/><path fill="#010151" stroke="#000" stroke-width="2" d="M166 196h11v22h-11z"/><path stroke="#000" stroke-width="2" d="M188 196h11v22h-11z"/><path fill="#00369C" stroke="#000" stroke-width="2" d="M144 42h11v22h-11z"/><path fill="#010151" stroke="#000" stroke-width="2" d="M144 64h11v22h-11zM122 64h11v22h-11z"/><path fill="#00369C" stroke="#000" stroke-width="2" d="M122 42h11v22h-11z"/><path stroke="#000" stroke-width="2" d="M276 64h11v22h-11zM364 86h11v22h-11zM364 130h11v22h-11zM364 152h11v22h-11z"/><path fill="#0202CA" stroke="#000" stroke-width="2" d="M342 64h11v22h-11z"/><path fill="#00369C" stroke="#000" stroke-width="2" d="M276 42h11v22h-11zM342 42h11v22h-11z"/><path stroke="#000" stroke-width="2" d="M364 64h11v22h-11z"/><path fill="#00369C" stroke="#000" stroke-width="2" d="M364 42h11v22h-11z"/><path stroke="#000" stroke-width="2" d="M364 174h11v22h-11zM386 174h11v22h-11zM386 152h11v22h-11z"/><path fill="#2B6DEC" stroke="#000" stroke-width="2" d="M386 218h11v22h-11z"/><path fill="#0202CA" stroke="#000" stroke-width="2" d="M386 196h11v22h-11z"/><path stroke="#000" stroke-width="2" d="M386 130h11v22h-11zM408 174h11v22h-11zM408 152h11v22h-11z"/><path fill="#2B6DEC" stroke="#000" stroke-width="2" d="M408 218h11v22h-11z"/><path fill="#0202CA" stroke="#000" stroke-width="2" d="M408 196h11v22h-11z"/><path stroke="#000" stroke-width="2" d="M408 130h11v22h-11zM386 108h11v22h-11zM408 108h11v22h-11zM408 86h11v22h-11zM386 86h11v22h-11zM408 64h11v22h-11zM386 64h11v22h-11z"/><path fill="#0202CA" stroke="#000" stroke-width="2" d="M408 42h11v22h-11z"/><path fill="#5186ED" stroke="#000" stroke-width="2" d="M430 174h11v22h-11zM430 152h11v22h-11z"/><path fill="#2B6DEC" stroke="#000" stroke-width="2" d="M430 218h11v22h-11z"/><path fill="#5186ED" stroke="#000" stroke-width="2" d="M430 196h11v22h-11z"/><path fill="#749EEF" stroke="#000" stroke-width="2" d="M430 130h11v22h-11zM430 108h11v22h-11zM430 86h11v22h-11z"/><path fill="#0202CA" stroke="#000" stroke-width="2" d="M430 64h11v22h-11zM430 42h11v22h-11z"/><path fill="#00369C" stroke="#000" stroke-width="2" d="M386 42h11v22h-11z"/><path stroke="#000" stroke-width="2" d="M276 174h11v22h-11z"/><path fill="#0202CA" stroke="#000" stroke-width="2" d="M342 174h11v22h-11zM320 174h11v22h-11z"/><path stroke="#000" stroke-width="2" d="M298 174h11v22h-11zM276 152h11v22h-11z"/><path fill="#0202CA" stroke="#000" stroke-width="2" d="M342 152h11v22h-11z"/><path fill="navy" stroke="#000" stroke-width="2" d="M320 152h11v22h-11z"/><path stroke="#000" stroke-width="2" d="M298 152h11v22h-11z"/><path fill="#2B6DEC" stroke="#000" stroke-width="2" d="M320 218h11v22h-11z"/><path fill="#155EEA" stroke="#000" stroke-width="2" d="M298 218h11v22h-11z"/><path fill="#0202CA" stroke="#000" stroke-width="2" d="M320 196h11v22h-11z"/><path stroke="#000" stroke-width="2" d="M298 196h11v22h-11z"/><path fill="navy" stroke="#000" stroke-width="2" d="M276 86h11v22h-11zM287 86h11v22h-11z"/><path fill="#0202CA" stroke="#000" stroke-width="2" d="M342 86h11v22h-11z"/><path fill="navy" stroke="#000" stroke-width="2" d="M320 86h11v22h-11z"/><path stroke="#000" stroke-width="2" d="M298 86h11v22h-11zM364 108h11v22h-11z"/><path fill="#0202CA" stroke="#000" stroke-width="2" d="M342 130h11v22h-11zM342 108h11v22h-11z"/><path fill="navy" stroke="#000" stroke-width="2" d="M276 108h11v22h-11z"/><path stroke="#000" stroke-width="2" d="M276 130h11v22h-11z"/><path fill="navy" stroke="#000" stroke-width="2" d="M320 130h11v22h-11z"/><path stroke="#000" stroke-width="2" d="M298 130h11v22h-11z"/><path fill="navy" stroke="#000" stroke-width="2" d="M320 108h11v22h-11z"/><path stroke="#000" stroke-width="2" d="M298 108h11v22h-11z"/><path fill="#155EEA" stroke="#000" stroke-width="2" d="M276 218h11v22h-11z"/><path fill="#2B6DEC" stroke="#000" stroke-width="2" d="M342 218h11v22h-11zM364 218h11v22h-11z"/><path stroke="#000" stroke-width="2" d="M276 196h11v22h-11z"/><path fill="#0202CA" stroke="#000" stroke-width="2" d="M342 196h11v22h-11zM364 196h11v22h-11z"/><path fill="#00369C" stroke="#000" stroke-width="2" d="M320 42h11v22h-11z"/><path fill="navy" stroke="#000" stroke-width="2" d="M320 64h11v22h-11zM298 64h11v22h-11z"/><path fill="#00369C" stroke="#000" stroke-width="2" d="M298 42h11v22h-11z"/><path fill="#34C749" d="M94.293 65.707a1 1 0 0 0 1.414 0l6.364-6.364a1 1 0 1 0-1.414-1.414L95 63.586l-5.657-5.657a1 1 0 0 0-1.414 1.414l6.364 6.364zM94 28v37h2V28h-2zM314.293 81.707a1 1 0 0 0 1.414 0l6.364-6.364a1 1 0 1 0-1.414-1.414L315 79.586l-5.657-5.657a1 1 0 1 0-1.414 1.414l6.364 6.364zM314 44v37h2V44h-2zM424.293 65.707a1 1 0 0 0 1.414 0l6.364-6.364a1 1 0 1 0-1.414-1.414L425 63.586l-5.657-5.657a1 1 0 1 0-1.414 1.414l6.364 6.364zM424 28v37h2V28h-2zM226.293 65.707a1 1 0 0 0 1.414 0l6.364-6.364a1 1 0 1 0-1.414-1.414L227 63.586l-5.657-5.657a1 1 0 1 0-1.414 1.414l6.364 6.364zM226 28v37h2V28h-2zM287.028 74.484a1 1 0 0 0-1.372-.342l-7.713 4.638a1.001 1.001 0 0 0 1.031 1.714l6.856-4.122 4.122 6.856a1 1 0 1 0 1.714-1.031l-4.638-7.713zm-19.058 77.758l19.172-77.001-1.941-.483-19.171 77.001 1.94.483zM265.679 119.689a1 1 0 0 0-1.262-.639l-8.554 2.797a1 1 0 0 0 .622 1.901l7.603-2.487 2.487 7.604a1 1 0 0 0 1.901-.622l-2.797-8.554zm-16.287 32.763l16.228-32-1.784-.904-16.228 32 1.784.904zM254.651 96.615a1 1 0 0 0-1.308-.538l-8.307 3.463a1 1 0 0 0 .77 1.846l7.384-3.078 3.078 7.384a1 1 0 1 0 1.846-.769l-3.463-8.308zm-22.226 54.766l22.228-54-1.85-.762-22.228 54 1.85.762zM160.293 65.707a1 1 0 0 0 1.414 0l6.364-6.364a1 1 0 1 0-1.414-1.414L161 63.586l-5.657-5.657a1 1 0 1 0-1.414 1.414l6.364 6.364zM160 28v37h2V28h-2z"/><text fill="#000" font-family="Dank Mono" font-size="16" letter-spacing="0" white-space="pre"><tspan x="73" y="21.567">.col5</tspan></text><text fill="#000" font-family="Dank Mono" font-size="16" letter-spacing="0" white-space="pre"><tspan x="403" y="21.567">.co20</tspan></text><text fill="#000" font-family="Dank Mono" font-size="16" letter-spacing="0" white-space="pre"><tspan x="289" y="37.567">.col15</tspan></text><text fill="#000" font-family="Dank Mono" font-size="16" letter-spacing="0" white-space="pre"><tspan x="139" y="21.567">.col8</tspan></text><text fill="#000" font-family="Dank Mono" font-size="16" letter-spacing="0" white-space="pre"><tspan x="201" y="21.567">.col11</tspan></text><path fill="#C4C4C4" d="M209 154h79v42h-79z"/><text fill="#000" font-family="Dank Mono" font-size="16" letter-spacing="0" white-space="pre"><tspan x="213.312" y="169.567">specific </tspan><tspan x="217.711" y="188.567">classes</tspan></text></svg>