<svg viewBox="0 0 442 200" fill="none" xmlns="http://www.w3.org/2000/svg">
<rect x="67" y="1" width="11" height="22" fill="#0242BC" stroke="black" stroke-width="2"/>
<rect x="89" y="23" width="11" height="22" fill="#010151" stroke="black" stroke-width="2"/>
<rect x="67" y="23" width="11" height="22" stroke="black" stroke-width="2"/>
<rect x="67" y="45" width="11" height="22" stroke="black" stroke-width="2"/>
<rect x="45" y="67" width="11" height="22" stroke="black" stroke-width="2"/>
<rect x="23" y="67" width="11" height="22" fill="#010151" stroke="black" stroke-width="2"/>
<rect x="23" y="45" width="11" height="22" fill="#010151" stroke="black" stroke-width="2"/>
<rect x="45" y="45" width="11" height="22" stroke="black" stroke-width="2"/>
<rect x="23" y="23" width="11" height="22" fill="#010151" stroke="black" stroke-width="2"/>
<rect x="45" y="23" width="11" height="22" stroke="black" stroke-width="2"/>
<rect x="23" y="1" width="11" height="22" fill="#0242BC" stroke="black" stroke-width="2"/>
<rect x="45" y="1" width="11" height="22" fill="#0242BC" stroke="black" stroke-width="2"/>
<rect x="177" y="45" width="11" height="22" stroke="black" stroke-width="2"/>
<rect x="177" y="89" width="11" height="22" stroke="black" stroke-width="2"/>
<rect x="177" y="111" width="11" height="22" stroke="black" stroke-width="2"/>
<rect x="155" y="23" width="11" height="22" fill="#010151" stroke="black" stroke-width="2"/>
<rect x="89" y="1" width="11" height="22" fill="#00369C" stroke="black" stroke-width="2"/>
<rect x="155" y="1" width="11" height="22" fill="#00369C" stroke="black" stroke-width="2"/>
<rect x="177" y="23" width="11" height="22" fill="#010151" stroke="black" stroke-width="2"/>
<rect x="177" y="1" width="11" height="22" fill="#00369C" stroke="black" stroke-width="2"/>
<rect x="45" y="89" width="11" height="22" fill="#010151" stroke="black" stroke-width="2"/>
<rect x="45" y="89" width="11" height="22" stroke="black" stroke-width="2"/>
<rect x="45" y="111" width="11" height="22" stroke="black" stroke-width="2"/>
<rect x="177" y="133" width="11" height="22" stroke="black" stroke-width="2"/>
<rect x="199" y="133" width="11" height="22" stroke="black" stroke-width="2"/>
<rect x="199" y="111" width="11" height="22" stroke="black" stroke-width="2"/>
<rect x="199" y="177" width="11" height="22" fill="#024EE0" stroke="black" stroke-width="2"/>
<rect x="199" y="155" width="11" height="22" stroke="black" stroke-width="2"/>
<rect x="199" y="89" width="11" height="22" stroke="black" stroke-width="2"/>
<rect x="221" y="133" width="11" height="22" fill="#010151" stroke="black" stroke-width="2"/>
<rect x="221" y="111" width="11" height="22" fill="#000080" stroke="black" stroke-width="2"/>
<rect x="221" y="177" width="11" height="22" fill="#024EE0" stroke="black" stroke-width="2"/>
<rect x="221" y="155" width="11" height="22" fill="#010151" stroke="black" stroke-width="2"/>
<rect x="221" y="89" width="11" height="22" fill="#000080" stroke="black" stroke-width="2"/>
<rect x="199" y="67" width="11" height="22" stroke="black" stroke-width="2"/>
<rect x="221" y="67" width="11" height="22" fill="#000080" stroke="black" stroke-width="2"/>
<rect x="221" y="45" width="11" height="22" fill="#000080" stroke="black" stroke-width="2"/>
<rect x="199" y="45" width="11" height="22" stroke="black" stroke-width="2"/>
<rect x="221" y="23" width="11" height="22" fill="#000080" stroke="black" stroke-width="2"/>
<rect x="199" y="23" width="11" height="22" fill="#010151" stroke="black" stroke-width="2"/>
<rect x="221" y="1" width="11" height="22" fill="#00369C" stroke="black" stroke-width="2"/>
<rect x="243" y="133" width="11" height="22" stroke="black" stroke-width="2"/>
<rect x="243" y="111" width="11" height="22" stroke="black" stroke-width="2"/>
<rect x="243" y="177" width="11" height="22" fill="#024EE0" stroke="black" stroke-width="2"/>
<rect x="243" y="155" width="11" height="22" stroke="black" stroke-width="2"/>
<rect x="243" y="89" width="11" height="22" stroke="black" stroke-width="2"/>
<rect x="243" y="67" width="11" height="22" stroke="black" stroke-width="2"/>
<rect x="243" y="45" width="11" height="22" stroke="black" stroke-width="2"/>
<rect x="243" y="23" width="11" height="22" fill="#000080" stroke="black" stroke-width="2"/>
<rect x="243" y="1" width="11" height="22" fill="#00369C" stroke="black" stroke-width="2"/>
<rect x="199" y="1" width="11" height="22" fill="#00369C" stroke="black" stroke-width="2"/>
<rect x="67" y="89" width="11" height="22" stroke="black" stroke-width="2"/>
<rect x="67" y="133" width="11" height="22" stroke="black" stroke-width="2"/>
<rect x="89" y="133" width="11" height="22" fill="#010151" stroke="black" stroke-width="2"/>
<rect x="155" y="133" width="11" height="22" fill="#010151" stroke="black" stroke-width="2"/>
<rect x="133" y="133" width="11" height="22" stroke="black" stroke-width="2"/>
<rect x="111" y="133" width="11" height="22" stroke="black" stroke-width="2"/>
<rect x="89" y="111" width="11" height="22" fill="#010151" stroke="black" stroke-width="2"/>
<rect x="155" y="111" width="11" height="22" fill="#010151" stroke="black" stroke-width="2"/>
<rect x="133" y="111" width="11" height="22" stroke="black" stroke-width="2"/>
<rect x="111" y="111" width="11" height="22" stroke="black" stroke-width="2"/>
<rect x="133" y="177" width="11" height="22" fill="#024EE0" stroke="black" stroke-width="2"/>
<rect x="111" y="177" width="11" height="22" fill="#024EE0" stroke="black" stroke-width="2"/>
<rect x="133" y="155" width="11" height="22" stroke="black" stroke-width="2"/>
<rect x="111" y="155" width="11" height="22" stroke="black" stroke-width="2"/>
<rect x="89" y="45" width="11" height="22" fill="#010151" stroke="black" stroke-width="2"/>
<rect x="155" y="45" width="11" height="22" fill="#010151" stroke="black" stroke-width="2"/>
<rect x="133" y="45" width="11" height="22" stroke="black" stroke-width="2"/>
<rect x="111" y="45" width="11" height="22" stroke="black" stroke-width="2"/>
<rect x="67" y="67" width="11" height="22" stroke="black" stroke-width="2"/>
<rect x="177" y="67" width="11" height="22" stroke="black" stroke-width="2"/>
<rect x="155" y="89" width="11" height="22" fill="#010151" stroke="black" stroke-width="2"/>
<rect x="155" y="67" width="11" height="22" fill="#010151" stroke="black" stroke-width="2"/>
<rect x="67" y="89" width="11" height="22" fill="#010151" stroke="black" stroke-width="2"/>
<rect x="89" y="67" width="11" height="22" fill="#010151" stroke="black" stroke-width="2"/>
<rect x="89" y="89" width="11" height="22" fill="#010151" stroke="black" stroke-width="2"/>
<rect x="133" y="89" width="11" height="22" stroke="black" stroke-width="2"/>
<rect x="111" y="89" width="11" height="22" stroke="black" stroke-width="2"/>
<rect x="133" y="67" width="11" height="22" stroke="black" stroke-width="2"/>
<rect x="111" y="67" width="11" height="22" stroke="black" stroke-width="2"/>
<rect x="89" y="177" width="11" height="22" fill="#024EE0" stroke="black" stroke-width="2"/>
<rect x="155" y="177" width="11" height="22" fill="#024EE0" stroke="black" stroke-width="2"/>
<rect x="177" y="177" width="11" height="22" fill="#024EE0" stroke="black" stroke-width="2"/>
<rect x="67" y="177" width="11" height="22" fill="#024EE0" stroke="black" stroke-width="2"/>
<rect x="89" y="155" width="11" height="22" fill="#010151" stroke="black" stroke-width="2"/>
<rect x="67" y="155" width="11" height="22" stroke="black" stroke-width="2"/>
<rect x="45" y="177" width="11" height="22" fill="#024EE0" stroke="black" stroke-width="2"/>
<rect x="45" y="155" width="11" height="22" stroke="black" stroke-width="2"/>
<rect x="23" y="89" width="11" height="22" fill="#010151" stroke="black" stroke-width="2"/>
<rect x="23" y="111" width="11" height="22" fill="#010151" stroke="black" stroke-width="2"/>
<rect x="23" y="133" width="11" height="22" fill="#010151" stroke="black" stroke-width="2"/>
<rect x="23" y="177" width="11" height="22" fill="#0242BC" stroke="black" stroke-width="2"/>
<rect x="23" y="155" width="11" height="22" fill="#010151" stroke="black" stroke-width="2"/>
<rect x="1" y="67" width="11" height="22" fill="#0242BC" stroke="black" stroke-width="2"/>
<rect x="1" y="45" width="11" height="22" fill="#0242BC" stroke="black" stroke-width="2"/>
<rect x="1" y="23" width="11" height="22" fill="#0242BC" stroke="black" stroke-width="2"/>
<rect x="1" y="1" width="11" height="22" fill="#0242BC" stroke="black" stroke-width="2"/>
<rect x="1" y="89" width="11" height="22" fill="#0242BC" stroke="black" stroke-width="2"/>
<rect x="1" y="111" width="11" height="22" fill="#0242BC" stroke="black" stroke-width="2"/>
<rect x="1" y="133" width="11" height="22" fill="#0242BC" stroke="black" stroke-width="2"/>
<rect x="1" y="177" width="11" height="22" fill="#0242BC" stroke="black" stroke-width="2"/>
<rect x="1" y="155" width="11" height="22" fill="#0242BC" stroke="black" stroke-width="2"/>
<rect x="155" y="155" width="11" height="22" fill="#010151" stroke="black" stroke-width="2"/>
<rect x="177" y="155" width="11" height="22" stroke="black" stroke-width="2"/>
<rect x="133" y="1" width="11" height="22" fill="#00369C" stroke="black" stroke-width="2"/>
<rect x="133" y="23" width="11" height="22" fill="#010151" stroke="black" stroke-width="2"/>
<rect x="111" y="23" width="11" height="22" fill="#010151" stroke="black" stroke-width="2"/>
<rect x="111" y="1" width="11" height="22" fill="#00369C" stroke="black" stroke-width="2"/>
<rect x="265" y="23" width="11" height="22" stroke="black" stroke-width="2"/>
<rect x="353" y="45" width="11" height="22" stroke="black" stroke-width="2"/>
<rect x="353" y="89" width="11" height="22" stroke="black" stroke-width="2"/>
<rect x="353" y="111" width="11" height="22" stroke="black" stroke-width="2"/>
<rect x="331" y="23" width="11" height="22" fill="#0202CA" stroke="black" stroke-width="2"/>
<rect x="265" y="1" width="11" height="22" fill="#00369C" stroke="black" stroke-width="2"/>
<rect x="331" y="1" width="11" height="22" fill="#00369C" stroke="black" stroke-width="2"/>
<rect x="353" y="23" width="11" height="22" stroke="black" stroke-width="2"/>
<rect x="353" y="1" width="11" height="22" fill="#00369C" stroke="black" stroke-width="2"/>
<rect x="353" y="133" width="11" height="22" stroke="black" stroke-width="2"/>
<rect x="375" y="133" width="11" height="22" stroke="black" stroke-width="2"/>
<rect x="375" y="111" width="11" height="22" stroke="black" stroke-width="2"/>
<rect x="375" y="177" width="11" height="22" fill="#2B6DEC" stroke="black" stroke-width="2"/>
<rect x="375" y="155" width="11" height="22" fill="#0202CA" stroke="black" stroke-width="2"/>
<rect x="375" y="89" width="11" height="22" stroke="black" stroke-width="2"/>
<rect x="397" y="133" width="11" height="22" stroke="black" stroke-width="2"/>
<rect x="397" y="111" width="11" height="22" stroke="black" stroke-width="2"/>
<rect x="397" y="177" width="11" height="22" fill="#2B6DEC" stroke="black" stroke-width="2"/>
<rect x="397" y="155" width="11" height="22" fill="#0202CA" stroke="black" stroke-width="2"/>
<rect x="397" y="89" width="11" height="22" stroke="black" stroke-width="2"/>
<rect x="375" y="67" width="11" height="22" stroke="black" stroke-width="2"/>
<rect x="397" y="67" width="11" height="22" stroke="black" stroke-width="2"/>
<rect x="397" y="45" width="11" height="22" stroke="black" stroke-width="2"/>
<rect x="375" y="45" width="11" height="22" stroke="black" stroke-width="2"/>
<rect x="397" y="23" width="11" height="22" stroke="black" stroke-width="2"/>
<rect x="375" y="23" width="11" height="22" stroke="black" stroke-width="2"/>
<rect x="397" y="1" width="11" height="22" fill="#0202CA" stroke="black" stroke-width="2"/>
<rect x="419" y="133" width="11" height="22" fill="#5186ED" stroke="black" stroke-width="2"/>
<rect x="419" y="111" width="11" height="22" fill="#5186ED" stroke="black" stroke-width="2"/>
<rect x="419" y="177" width="11" height="22" fill="#2B6DEC" stroke="black" stroke-width="2"/>
<rect x="419" y="155" width="11" height="22" fill="#5186ED" stroke="black" stroke-width="2"/>
<rect x="419" y="89" width="11" height="22" fill="#749EEF" stroke="black" stroke-width="2"/>
<rect x="419" y="67" width="11" height="22" fill="#749EEF" stroke="black" stroke-width="2"/>
<rect x="419" y="45" width="11" height="22" fill="#749EEF" stroke="black" stroke-width="2"/>
<rect x="419" y="23" width="11" height="22" fill="#0202CA" stroke="black" stroke-width="2"/>
<rect x="419" y="1" width="11" height="22" fill="#0202CA" stroke="black" stroke-width="2"/>
<rect x="375" y="1" width="11" height="22" fill="#00369C" stroke="black" stroke-width="2"/>
<rect x="265" y="133" width="11" height="22" stroke="black" stroke-width="2"/>
<rect x="331" y="133" width="11" height="22" fill="#0202CA" stroke="black" stroke-width="2"/>
<rect x="309" y="133" width="11" height="22" fill="#0202CA" stroke="black" stroke-width="2"/>
<rect x="287" y="133" width="11" height="22" stroke="black" stroke-width="2"/>
<rect x="265" y="111" width="11" height="22" stroke="black" stroke-width="2"/>
<rect x="331" y="111" width="11" height="22" fill="#0202CA" stroke="black" stroke-width="2"/>
<rect x="309" y="111" width="11" height="22" fill="#000080" stroke="black" stroke-width="2"/>
<rect x="287" y="111" width="11" height="22" stroke="black" stroke-width="2"/>
<rect x="309" y="177" width="11" height="22" fill="#2B6DEC" stroke="black" stroke-width="2"/>
<rect x="287" y="177" width="11" height="22" fill="#155EEA" stroke="black" stroke-width="2"/>
<rect x="309" y="155" width="11" height="22" fill="#0202CA" stroke="black" stroke-width="2"/>
<rect x="287" y="155" width="11" height="22" stroke="black" stroke-width="2"/>
<rect x="265" y="45" width="11" height="22" fill="#000080" stroke="black" stroke-width="2"/>
<rect x="331" y="45" width="11" height="22" fill="#0202CA" stroke="black" stroke-width="2"/>
<rect x="309" y="45" width="11" height="22" fill="#000080" stroke="black" stroke-width="2"/>
<rect x="287" y="45" width="11" height="22" stroke="black" stroke-width="2"/>
<rect x="353" y="67" width="11" height="22" stroke="black" stroke-width="2"/>
<rect x="331" y="89" width="11" height="22" fill="#0202CA" stroke="black" stroke-width="2"/>
<rect x="331" y="67" width="11" height="22" fill="#0202CA" stroke="black" stroke-width="2"/>
<rect x="265" y="67" width="11" height="22" fill="#000080" stroke="black" stroke-width="2"/>
<rect x="265" y="89" width="11" height="22" stroke="black" stroke-width="2"/>
<rect x="309" y="89" width="11" height="22" fill="#000080" stroke="black" stroke-width="2"/>
<rect x="287" y="89" width="11" height="22" stroke="black" stroke-width="2"/>
<rect x="309" y="67" width="11" height="22" fill="#000080" stroke="black" stroke-width="2"/>
<rect x="287" y="67" width="11" height="22" stroke="black" stroke-width="2"/>
<rect x="265" y="177" width="11" height="22" fill="#155EEA" stroke="black" stroke-width="2"/>
<rect x="331" y="177" width="11" height="22" fill="#2B6DEC" stroke="black" stroke-width="2"/>
<rect x="353" y="177" width="11" height="22" fill="#2B6DEC" stroke="black" stroke-width="2"/>
<rect x="265" y="155" width="11" height="22" stroke="black" stroke-width="2"/>
<rect x="331" y="155" width="11" height="22" fill="#0202CA" stroke="black" stroke-width="2"/>
<rect x="353" y="155" width="11" height="22" fill="#0202CA" stroke="black" stroke-width="2"/>
<rect x="309" y="1" width="11" height="22" fill="#00369C" stroke="black" stroke-width="2"/>
<rect x="309" y="23" width="11" height="22" fill="#000080" stroke="black" stroke-width="2"/>
<rect x="287" y="23" width="11" height="22" fill="#000080" stroke="black" stroke-width="2"/>
<rect x="287" y="1" width="11" height="22" fill="#00369C" stroke="black" stroke-width="2"/>
<rect x="78" y="1" width="11" height="22" fill="#0242BC" stroke="black" stroke-width="2"/>
<rect x="100" y="23" width="11" height="22" fill="#010151" stroke="black" stroke-width="2"/>
<rect x="78" y="23" width="11" height="22" stroke="black" stroke-width="2"/>
<rect x="78" y="45" width="11" height="22" stroke="black" stroke-width="2"/>
<rect x="56" y="67" width="11" height="22" stroke="black" stroke-width="2"/>
<rect x="34" y="67" width="11" height="22" fill="#010151" stroke="black" stroke-width="2"/>
<rect x="34" y="45" width="11" height="22" fill="#010151" stroke="black" stroke-width="2"/>
<rect x="56" y="45" width="11" height="22" stroke="black" stroke-width="2"/>
<rect x="34" y="23" width="11" height="22" fill="#010151" stroke="black" stroke-width="2"/>
<rect x="56" y="23" width="11" height="22" stroke="black" stroke-width="2"/>
<rect x="34" y="1" width="11" height="22" fill="#0242BC" stroke="black" stroke-width="2"/>
<rect x="56" y="1" width="11" height="22" fill="#0242BC" stroke="black" stroke-width="2"/>
<rect x="188" y="45" width="11" height="22" stroke="black" stroke-width="2"/>
<rect x="188" y="89" width="11" height="22" stroke="black" stroke-width="2"/>
<rect x="188" y="111" width="11" height="22" stroke="black" stroke-width="2"/>
<rect x="166" y="23" width="11" height="22" fill="#010151" stroke="black" stroke-width="2"/>
<rect x="100" y="1" width="11" height="22" fill="#00369C" stroke="black" stroke-width="2"/>
<rect x="166" y="1" width="11" height="22" fill="#00369C" stroke="black" stroke-width="2"/>
<rect x="188" y="23" width="11" height="22" fill="#010151" stroke="black" stroke-width="2"/>
<rect x="188" y="1" width="11" height="22" fill="#00369C" stroke="black" stroke-width="2"/>
<rect x="56" y="89" width="11" height="22" fill="#010151" stroke="black" stroke-width="2"/>
<rect x="56" y="89" width="11" height="22" stroke="black" stroke-width="2"/>
<rect x="56" y="111" width="11" height="22" stroke="black" stroke-width="2"/>
<rect x="67" y="111" width="11" height="22" stroke="black" stroke-width="2"/>
<rect x="78" y="111" width="11" height="22" stroke="black" stroke-width="2"/>
<rect x="188" y="133" width="11" height="22" stroke="black" stroke-width="2"/>
<rect x="210" y="133" width="11" height="22" stroke="black" stroke-width="2"/>
<rect x="210" y="111" width="11" height="22" stroke="black" stroke-width="2"/>
<rect x="210" y="177" width="11" height="22" fill="#024EE0" stroke="black" stroke-width="2"/>
<rect x="210" y="155" width="11" height="22" stroke="black" stroke-width="2"/>
<rect x="210" y="89" width="11" height="22" stroke="black" stroke-width="2"/>
<rect x="232" y="133" width="11" height="22" fill="#010151" stroke="black" stroke-width="2"/>
<rect x="232" y="111" width="11" height="22" fill="#000080" stroke="black" stroke-width="2"/>
<rect x="232" y="177" width="11" height="22" fill="#024EE0" stroke="black" stroke-width="2"/>
<rect x="232" y="155" width="11" height="22" fill="#010151" stroke="black" stroke-width="2"/>
<rect x="232" y="89" width="11" height="22" fill="#000080" stroke="black" stroke-width="2"/>
<rect x="210" y="67" width="11" height="22" stroke="black" stroke-width="2"/>
<rect x="232" y="67" width="11" height="22" fill="#000080" stroke="black" stroke-width="2"/>
<rect x="232" y="45" width="11" height="22" fill="#000080" stroke="black" stroke-width="2"/>
<rect x="210" y="45" width="11" height="22" stroke="black" stroke-width="2"/>
<rect x="232" y="23" width="11" height="22" fill="#000080" stroke="black" stroke-width="2"/>
<rect x="210" y="23" width="11" height="22" fill="#010151" stroke="black" stroke-width="2"/>
<rect x="232" y="1" width="11" height="22" fill="#00369C" stroke="black" stroke-width="2"/>
<rect x="254" y="133" width="11" height="22" stroke="black" stroke-width="2"/>
<rect x="254" y="111" width="11" height="22" stroke="black" stroke-width="2"/>
<rect x="254" y="177" width="11" height="22" fill="#024EE0" stroke="black" stroke-width="2"/>
<rect x="254" y="155" width="11" height="22" stroke="black" stroke-width="2"/>
<rect x="254" y="89" width="11" height="22" stroke="black" stroke-width="2"/>
<rect x="254" y="67" width="11" height="22" stroke="black" stroke-width="2"/>
<rect x="254" y="45" width="11" height="22" fill="#000080" stroke="black" stroke-width="2"/>
<rect x="254" y="23" width="11" height="22" fill="#000080" stroke="black" stroke-width="2"/>
<rect x="254" y="1" width="11" height="22" fill="#00369C" stroke="black" stroke-width="2"/>
<rect x="210" y="1" width="11" height="22" fill="#00369C" stroke="black" stroke-width="2"/>
<rect x="78" y="89" width="11" height="22" stroke="black" stroke-width="2"/>
<rect x="78" y="133" width="11" height="22" stroke="black" stroke-width="2"/>
<rect x="45" y="133" width="11" height="22" stroke="black" stroke-width="2"/>
<rect x="56" y="133" width="11" height="22" stroke="black" stroke-width="2"/>
<rect x="100" y="133" width="11" height="22" fill="#010151" stroke="black" stroke-width="2"/>
<rect x="166" y="133" width="11" height="22" fill="#010151" stroke="black" stroke-width="2"/>
<rect x="144" y="133" width="11" height="22" stroke="black" stroke-width="2"/>
<rect x="122" y="133" width="11" height="22" stroke="black" stroke-width="2"/>
<rect x="100" y="111" width="11" height="22" fill="#010151" stroke="black" stroke-width="2"/>
<rect x="166" y="111" width="11" height="22" fill="#010151" stroke="black" stroke-width="2"/>
<rect x="144" y="111" width="11" height="22" stroke="black" stroke-width="2"/>
<rect x="122" y="111" width="11" height="22" stroke="black" stroke-width="2"/>
<rect x="144" y="177" width="11" height="22" fill="#024EE0" stroke="black" stroke-width="2"/>
<rect x="122" y="177" width="11" height="22" fill="#024EE0" stroke="black" stroke-width="2"/>
<rect x="144" y="155" width="11" height="22" stroke="black" stroke-width="2"/>
<rect x="122" y="155" width="11" height="22" stroke="black" stroke-width="2"/>
<rect x="100" y="45" width="11" height="22" fill="#010151" stroke="black" stroke-width="2"/>
<rect x="166" y="45" width="11" height="22" fill="#010151" stroke="black" stroke-width="2"/>
<rect x="144" y="45" width="11" height="22" stroke="black" stroke-width="2"/>
<rect x="122" y="45" width="11" height="22" stroke="black" stroke-width="2"/>
<rect x="78" y="67" width="11" height="22" stroke="black" stroke-width="2"/>
<rect x="188" y="67" width="11" height="22" stroke="black" stroke-width="2"/>
<rect x="166" y="89" width="11" height="22" fill="#010151" stroke="black" stroke-width="2"/>
<rect x="166" y="67" width="11" height="22" fill="#010151" stroke="black" stroke-width="2"/>
<rect x="78" y="89" width="11" height="22" fill="#010151" stroke="black" stroke-width="2"/>
<rect x="100" y="67" width="11" height="22" fill="#010151" stroke="black" stroke-width="2"/>
<rect x="100" y="89" width="11" height="22" fill="#010151" stroke="black" stroke-width="2"/>
<rect x="144" y="89" width="11" height="22" stroke="black" stroke-width="2"/>
<rect x="122" y="89" width="11" height="22" stroke="black" stroke-width="2"/>
<rect x="144" y="67" width="11" height="22" stroke="black" stroke-width="2"/>
<rect x="122" y="67" width="11" height="22" stroke="black" stroke-width="2"/>
<rect x="100" y="177" width="11" height="22" fill="#024EE0" stroke="black" stroke-width="2"/>
<rect x="166" y="177" width="11" height="22" fill="#024EE0" stroke="black" stroke-width="2"/>
<rect x="188" y="177" width="11" height="22" fill="#024EE0" stroke="black" stroke-width="2"/>
<rect x="78" y="177" width="11" height="22" fill="#024EE0" stroke="black" stroke-width="2"/>
<rect x="100" y="155" width="11" height="22" fill="#010151" stroke="black" stroke-width="2"/>
<rect x="78" y="155" width="11" height="22" stroke="black" stroke-width="2"/>
<rect x="56" y="177" width="11" height="22" fill="#024EE0" stroke="black" stroke-width="2"/>
<rect x="56" y="155" width="11" height="22" stroke="black" stroke-width="2"/>
<rect x="34" y="89" width="11" height="22" fill="#010151" stroke="black" stroke-width="2"/>
<rect x="34" y="111" width="11" height="22" fill="#010151" stroke="black" stroke-width="2"/>
<rect x="34" y="133" width="11" height="22" fill="#010151" stroke="black" stroke-width="2"/>
<rect x="34" y="177" width="11" height="22" fill="#0242BC" stroke="black" stroke-width="2"/>
<rect x="34" y="155" width="11" height="22" fill="#010151" stroke="black" stroke-width="2"/>
<rect x="12" y="67" width="11" height="22" fill="#0242BC" stroke="black" stroke-width="2"/>
<rect x="12" y="45" width="11" height="22" fill="#0242BC" stroke="black" stroke-width="2"/>
<rect x="12" y="23" width="11" height="22" fill="#0242BC" stroke="black" stroke-width="2"/>
<rect x="12" y="1" width="11" height="22" fill="#0242BC" stroke="black" stroke-width="2"/>
<rect x="12" y="89" width="11" height="22" fill="#0242BC" stroke="black" stroke-width="2"/>
<rect x="12" y="111" width="11" height="22" fill="#0242BC" stroke="black" stroke-width="2"/>
<rect x="12" y="133" width="11" height="22" fill="#0242BC" stroke="black" stroke-width="2"/>
<rect x="12" y="177" width="11" height="22" fill="#0242BC" stroke="black" stroke-width="2"/>
<rect x="12" y="155" width="11" height="22" fill="#0242BC" stroke="black" stroke-width="2"/>
<rect x="166" y="155" width="11" height="22" fill="#010151" stroke="black" stroke-width="2"/>
<rect x="188" y="155" width="11" height="22" stroke="black" stroke-width="2"/>
<rect x="144" y="1" width="11" height="22" fill="#00369C" stroke="black" stroke-width="2"/>
<rect x="144" y="23" width="11" height="22" fill="#010151" stroke="black" stroke-width="2"/>
<rect x="122" y="23" width="11" height="22" fill="#010151" stroke="black" stroke-width="2"/>
<rect x="122" y="1" width="11" height="22" fill="#00369C" stroke="black" stroke-width="2"/>
<rect x="276" y="23" width="11" height="22" stroke="black" stroke-width="2"/>
<rect x="364" y="45" width="11" height="22" stroke="black" stroke-width="2"/>
<rect x="364" y="89" width="11" height="22" stroke="black" stroke-width="2"/>
<rect x="364" y="111" width="11" height="22" stroke="black" stroke-width="2"/>
<rect x="342" y="23" width="11" height="22" fill="#0202CA" stroke="black" stroke-width="2"/>
<rect x="276" y="1" width="11" height="22" fill="#00369C" stroke="black" stroke-width="2"/>
<rect x="342" y="1" width="11" height="22" fill="#00369C" stroke="black" stroke-width="2"/>
<rect x="364" y="23" width="11" height="22" stroke="black" stroke-width="2"/>
<rect x="364" y="1" width="11" height="22" fill="#00369C" stroke="black" stroke-width="2"/>
<rect x="364" y="133" width="11" height="22" stroke="black" stroke-width="2"/>
<rect x="386" y="133" width="11" height="22" stroke="black" stroke-width="2"/>
<rect x="386" y="111" width="11" height="22" stroke="black" stroke-width="2"/>
<rect x="386" y="177" width="11" height="22" fill="#2B6DEC" stroke="black" stroke-width="2"/>
<rect x="386" y="155" width="11" height="22" fill="#0202CA" stroke="black" stroke-width="2"/>
<rect x="386" y="89" width="11" height="22" stroke="black" stroke-width="2"/>
<rect x="408" y="133" width="11" height="22" stroke="black" stroke-width="2"/>
<rect x="408" y="111" width="11" height="22" stroke="black" stroke-width="2"/>
<rect x="408" y="177" width="11" height="22" fill="#2B6DEC" stroke="black" stroke-width="2"/>
<rect x="408" y="155" width="11" height="22" fill="#0202CA" stroke="black" stroke-width="2"/>
<rect x="408" y="89" width="11" height="22" stroke="black" stroke-width="2"/>
<rect x="386" y="67" width="11" height="22" stroke="black" stroke-width="2"/>
<rect x="408" y="67" width="11" height="22" stroke="black" stroke-width="2"/>
<rect x="408" y="45" width="11" height="22" stroke="black" stroke-width="2"/>
<rect x="386" y="45" width="11" height="22" stroke="black" stroke-width="2"/>
<rect x="408" y="23" width="11" height="22" stroke="black" stroke-width="2"/>
<rect x="386" y="23" width="11" height="22" stroke="black" stroke-width="2"/>
<rect x="408" y="1" width="11" height="22" fill="#0202CA" stroke="black" stroke-width="2"/>
<rect x="430" y="133" width="11" height="22" fill="#5186ED" stroke="black" stroke-width="2"/>
<rect x="430" y="111" width="11" height="22" fill="#5186ED" stroke="black" stroke-width="2"/>
<rect x="430" y="177" width="11" height="22" fill="#2B6DEC" stroke="black" stroke-width="2"/>
<rect x="430" y="155" width="11" height="22" fill="#5186ED" stroke="black" stroke-width="2"/>
<rect x="430" y="89" width="11" height="22" fill="#749EEF" stroke="black" stroke-width="2"/>
<rect x="430" y="67" width="11" height="22" fill="#749EEF" stroke="black" stroke-width="2"/>
<rect x="430" y="45" width="11" height="22" fill="#749EEF" stroke="black" stroke-width="2"/>
<rect x="430" y="23" width="11" height="22" fill="#0202CA" stroke="black" stroke-width="2"/>
<rect x="430" y="1" width="11" height="22" fill="#0202CA" stroke="black" stroke-width="2"/>
<rect x="386" y="1" width="11" height="22" fill="#00369C" stroke="black" stroke-width="2"/>
<rect x="276" y="133" width="11" height="22" stroke="black" stroke-width="2"/>
<rect x="342" y="133" width="11" height="22" fill="#0202CA" stroke="black" stroke-width="2"/>
<rect x="320" y="133" width="11" height="22" fill="#0202CA" stroke="black" stroke-width="2"/>
<rect x="298" y="133" width="11" height="22" stroke="black" stroke-width="2"/>
<rect x="276" y="111" width="11" height="22" stroke="black" stroke-width="2"/>
<rect x="342" y="111" width="11" height="22" fill="#0202CA" stroke="black" stroke-width="2"/>
<rect x="320" y="111" width="11" height="22" fill="#000080" stroke="black" stroke-width="2"/>
<rect x="298" y="111" width="11" height="22" stroke="black" stroke-width="2"/>
<rect x="320" y="177" width="11" height="22" fill="#2B6DEC" stroke="black" stroke-width="2"/>
<rect x="298" y="177" width="11" height="22" fill="#155EEA" stroke="black" stroke-width="2"/>
<rect x="320" y="155" width="11" height="22" fill="#0202CA" stroke="black" stroke-width="2"/>
<rect x="298" y="155" width="11" height="22" stroke="black" stroke-width="2"/>
<rect x="276" y="45" width="11" height="22" fill="#000080" stroke="black" stroke-width="2"/>
<rect x="287" y="45" width="11" height="22" fill="#000080" stroke="black" stroke-width="2"/>
<rect x="342" y="45" width="11" height="22" fill="#0202CA" stroke="black" stroke-width="2"/>
<rect x="320" y="45" width="11" height="22" fill="#000080" stroke="black" stroke-width="2"/>
<rect x="298" y="45" width="11" height="22" stroke="black" stroke-width="2"/>
<rect x="364" y="67" width="11" height="22" stroke="black" stroke-width="2"/>
<rect x="342" y="89" width="11" height="22" fill="#0202CA" stroke="black" stroke-width="2"/>
<rect x="342" y="67" width="11" height="22" fill="#0202CA" stroke="black" stroke-width="2"/>
<rect x="276" y="67" width="11" height="22" fill="#000080" stroke="black" stroke-width="2"/>
<rect x="276" y="89" width="11" height="22" stroke="black" stroke-width="2"/>
<rect x="320" y="89" width="11" height="22" fill="#000080" stroke="black" stroke-width="2"/>
<rect x="298" y="89" width="11" height="22" stroke="black" stroke-width="2"/>
<rect x="320" y="67" width="11" height="22" fill="#000080" stroke="black" stroke-width="2"/>
<rect x="298" y="67" width="11" height="22" stroke="black" stroke-width="2"/>
<rect x="276" y="177" width="11" height="22" fill="#155EEA" stroke="black" stroke-width="2"/>
<rect x="342" y="177" width="11" height="22" fill="#2B6DEC" stroke="black" stroke-width="2"/>
<rect x="364" y="177" width="11" height="22" fill="#2B6DEC" stroke="black" stroke-width="2"/>
<rect x="276" y="155" width="11" height="22" stroke="black" stroke-width="2"/>
<rect x="342" y="155" width="11" height="22" fill="#0202CA" stroke="black" stroke-width="2"/>
<rect x="364" y="155" width="11" height="22" fill="#0202CA" stroke="black" stroke-width="2"/>
<rect x="320" y="1" width="11" height="22" fill="#00369C" stroke="black" stroke-width="2"/>
<rect x="320" y="23" width="11" height="22" fill="#000080" stroke="black" stroke-width="2"/>
<rect x="298" y="23" width="11" height="22" fill="#000080" stroke="black" stroke-width="2"/>
<rect x="298" y="1" width="11" height="22" fill="#00369C" stroke="black" stroke-width="2"/>
</svg>
