<svg viewBox="0 0 442 200" fill="none" xmlns="http://www.w3.org/2000/svg">
<rect x="276" y="46" width="22" height="20" fill="#000080"/>
<rect x="254" y="46" width="22" height="20" fill="#000080"/>
<rect x="67" y="1" width="22" height="22" fill="#0242BC" stroke="black" stroke-width="2"/>
<rect x="89" y="23" width="22" height="22" fill="#010151" stroke="black" stroke-width="2"/>
<rect x="67" y="23" width="22" height="22" stroke="black" stroke-width="2"/>
<rect x="67" y="45" width="22" height="22" stroke="black" stroke-width="2"/>
<rect x="45" y="67" width="22" height="22" stroke="black" stroke-width="2"/>
<rect x="23" y="67" width="22" height="22" fill="#010151" stroke="black" stroke-width="2"/>
<rect x="23" y="45" width="22" height="22" fill="#010151" stroke="black" stroke-width="2"/>
<rect x="45" y="45" width="22" height="22" stroke="black" stroke-width="2"/>
<rect x="23" y="23" width="22" height="22" fill="#010151" stroke="black" stroke-width="2"/>
<rect x="45" y="23" width="22" height="22" stroke="black" stroke-width="2"/>
<rect x="23" y="1" width="22" height="22" fill="#0242BC" stroke="black" stroke-width="2"/>
<rect x="45" y="1" width="22" height="22" fill="#0242BC" stroke="black" stroke-width="2"/>
<rect x="177" y="45" width="22" height="22" stroke="black" stroke-width="2"/>
<rect x="177" y="89" width="22" height="22" stroke="black" stroke-width="2"/>
<rect x="177" y="111" width="22" height="22" stroke="black" stroke-width="2"/>
<rect x="155" y="23" width="22" height="22" fill="#010151" stroke="black" stroke-width="2"/>
<rect x="89" y="1" width="22" height="22" fill="#00369C" stroke="black" stroke-width="2"/>
<rect x="155" y="1" width="22" height="22" fill="#00369C" stroke="black" stroke-width="2"/>
<rect x="177" y="23" width="22" height="22" fill="#010151" stroke="black" stroke-width="2"/>
<rect x="177" y="1" width="22" height="22" fill="#00369C" stroke="black" stroke-width="2"/>
<rect x="45" y="89" width="22" height="22" fill="#010151" stroke="black" stroke-width="2"/>
<rect x="45" y="89" width="22" height="22" stroke="black" stroke-width="2"/>
<rect x="45" y="111" width="22" height="22" stroke="black" stroke-width="2"/>
<rect x="177" y="133" width="22" height="22" stroke="black" stroke-width="2"/>
<rect x="199" y="133" width="22" height="22" stroke="black" stroke-width="2"/>
<rect x="199" y="111" width="22" height="22" stroke="black" stroke-width="2"/>
<rect x="199" y="177" width="22" height="22" fill="#024EE0" stroke="black" stroke-width="2"/>
<rect x="199" y="155" width="22" height="22" stroke="black" stroke-width="2"/>
<rect x="199" y="89" width="22" height="22" stroke="black" stroke-width="2"/>
<rect x="221" y="133" width="22" height="22" fill="#010151" stroke="black" stroke-width="2"/>
<rect x="221" y="111" width="22" height="22" fill="#000080" stroke="black" stroke-width="2"/>
<rect x="221" y="177" width="22" height="22" fill="#024EE0" stroke="black" stroke-width="2"/>
<rect x="221" y="155" width="22" height="22" fill="#010151" stroke="black" stroke-width="2"/>
<rect x="221" y="89" width="22" height="22" fill="#000080" stroke="black" stroke-width="2"/>
<rect x="199" y="67" width="22" height="22" stroke="black" stroke-width="2"/>
<rect x="221" y="67" width="22" height="22" fill="#000080" stroke="black" stroke-width="2"/>
<rect x="221" y="45" width="22" height="22" fill="#000080" stroke="black" stroke-width="2"/>
<rect x="199" y="45" width="22" height="22" stroke="black" stroke-width="2"/>
<rect x="221" y="23" width="22" height="22" fill="#000080" stroke="black" stroke-width="2"/>
<rect x="199" y="23" width="22" height="22" fill="#010151" stroke="black" stroke-width="2"/>
<rect x="221" y="1" width="22" height="22" fill="#00369C" stroke="black" stroke-width="2"/>
<rect x="243" y="133" width="22" height="22" stroke="black" stroke-width="2"/>
<rect x="243" y="111" width="22" height="22" stroke="black" stroke-width="2"/>
<rect x="243" y="177" width="22" height="22" fill="#024EE0" stroke="black" stroke-width="2"/>
<rect x="243" y="155" width="22" height="22" stroke="black" stroke-width="2"/>
<rect x="243" y="89" width="22" height="22" stroke="black" stroke-width="2"/>
<rect x="243" y="67" width="22" height="22" stroke="black" stroke-width="2"/>
<rect x="243" y="45" width="22" height="22" stroke="black" stroke-width="2"/>
<rect x="243" y="23" width="22" height="22" fill="#000080" stroke="black" stroke-width="2"/>
<rect x="243" y="1" width="22" height="22" fill="#00369C" stroke="black" stroke-width="2"/>
<rect x="199" y="1" width="22" height="22" fill="#00369C" stroke="black" stroke-width="2"/>
<rect x="67" y="89" width="22" height="22" stroke="black" stroke-width="2"/>
<rect x="67" y="133" width="22" height="22" stroke="black" stroke-width="2"/>
<rect x="89" y="133" width="22" height="22" fill="#010151" stroke="black" stroke-width="2"/>
<rect x="155" y="133" width="22" height="22" fill="#010151" stroke="black" stroke-width="2"/>
<rect x="133" y="133" width="22" height="22" stroke="black" stroke-width="2"/>
<rect x="111" y="133" width="22" height="22" stroke="black" stroke-width="2"/>
<rect x="89" y="111" width="22" height="22" fill="#010151" stroke="black" stroke-width="2"/>
<rect x="155" y="111" width="22" height="22" fill="#010151" stroke="black" stroke-width="2"/>
<rect x="133" y="111" width="22" height="22" stroke="black" stroke-width="2"/>
<rect x="111" y="111" width="22" height="22" stroke="black" stroke-width="2"/>
<rect x="133" y="177" width="22" height="22" fill="#024EE0" stroke="black" stroke-width="2"/>
<rect x="111" y="177" width="22" height="22" fill="#024EE0" stroke="black" stroke-width="2"/>
<rect x="133" y="155" width="22" height="22" stroke="black" stroke-width="2"/>
<rect x="111" y="155" width="22" height="22" stroke="black" stroke-width="2"/>
<rect x="89" y="45" width="22" height="22" fill="#010151" stroke="black" stroke-width="2"/>
<rect x="155" y="45" width="22" height="22" fill="#010151" stroke="black" stroke-width="2"/>
<rect x="133" y="45" width="22" height="22" stroke="black" stroke-width="2"/>
<rect x="111" y="45" width="22" height="22" stroke="black" stroke-width="2"/>
<rect x="67" y="67" width="22" height="22" stroke="black" stroke-width="2"/>
<rect x="177" y="67" width="22" height="22" stroke="black" stroke-width="2"/>
<rect x="155" y="89" width="22" height="22" fill="#010151" stroke="black" stroke-width="2"/>
<rect x="155" y="67" width="22" height="22" fill="#010151" stroke="black" stroke-width="2"/>
<rect x="67" y="89" width="22" height="22" fill="#010151" stroke="black" stroke-width="2"/>
<rect x="89" y="67" width="22" height="22" fill="#010151" stroke="black" stroke-width="2"/>
<rect x="89" y="89" width="22" height="22" fill="#010151" stroke="black" stroke-width="2"/>
<rect x="133" y="89" width="22" height="22" stroke="black" stroke-width="2"/>
<rect x="111" y="89" width="22" height="22" stroke="black" stroke-width="2"/>
<rect x="133" y="67" width="22" height="22" stroke="black" stroke-width="2"/>
<rect x="111" y="67" width="22" height="22" stroke="black" stroke-width="2"/>
<rect x="89" y="177" width="22" height="22" fill="#024EE0" stroke="black" stroke-width="2"/>
<rect x="155" y="177" width="22" height="22" fill="#024EE0" stroke="black" stroke-width="2"/>
<rect x="177" y="177" width="22" height="22" fill="#024EE0" stroke="black" stroke-width="2"/>
<rect x="67" y="177" width="22" height="22" fill="#024EE0" stroke="black" stroke-width="2"/>
<rect x="89" y="155" width="22" height="22" fill="#010151" stroke="black" stroke-width="2"/>
<rect x="67" y="155" width="22" height="22" stroke="black" stroke-width="2"/>
<rect x="45" y="177" width="22" height="22" fill="#024EE0" stroke="black" stroke-width="2"/>
<rect x="45" y="155" width="22" height="22" stroke="black" stroke-width="2"/>
<rect x="23" y="89" width="22" height="22" fill="#010151" stroke="black" stroke-width="2"/>
<rect x="23" y="111" width="22" height="22" fill="#010151" stroke="black" stroke-width="2"/>
<rect x="23" y="133" width="22" height="22" fill="#010151" stroke="black" stroke-width="2"/>
<rect x="23" y="177" width="22" height="22" fill="#0242BC" stroke="black" stroke-width="2"/>
<rect x="23" y="155" width="22" height="22" fill="#010151" stroke="black" stroke-width="2"/>
<rect x="1" y="67" width="22" height="22" fill="#0242BC" stroke="black" stroke-width="2"/>
<rect x="1" y="45" width="22" height="22" fill="#0242BC" stroke="black" stroke-width="2"/>
<rect x="1" y="23" width="22" height="22" fill="#0242BC" stroke="black" stroke-width="2"/>
<rect x="1" y="1" width="22" height="22" fill="#0242BC" stroke="black" stroke-width="2"/>
<rect x="1" y="89" width="22" height="22" fill="#0242BC" stroke="black" stroke-width="2"/>
<rect x="1" y="111" width="22" height="22" fill="#0242BC" stroke="black" stroke-width="2"/>
<rect x="1" y="133" width="22" height="22" fill="#0242BC" stroke="black" stroke-width="2"/>
<rect x="1" y="177" width="22" height="22" fill="#0242BC" stroke="black" stroke-width="2"/>
<rect x="1" y="155" width="22" height="22" fill="#0242BC" stroke="black" stroke-width="2"/>
<rect x="155" y="155" width="22" height="22" fill="#010151" stroke="black" stroke-width="2"/>
<rect x="177" y="155" width="22" height="22" stroke="black" stroke-width="2"/>
<rect x="133" y="1" width="22" height="22" fill="#00369C" stroke="black" stroke-width="2"/>
<rect x="133" y="23" width="22" height="22" fill="#010151" stroke="black" stroke-width="2"/>
<rect x="111" y="23" width="22" height="22" fill="#010151" stroke="black" stroke-width="2"/>
<rect x="111" y="1" width="22" height="22" fill="#00369C" stroke="black" stroke-width="2"/>
<rect x="265" y="23" width="22" height="22" stroke="black" stroke-width="2"/>
<rect x="353" y="45" width="22" height="22" stroke="black" stroke-width="2"/>
<rect x="353" y="89" width="22" height="22" stroke="black" stroke-width="2"/>
<rect x="353" y="111" width="22" height="22" stroke="black" stroke-width="2"/>
<rect x="331" y="23" width="22" height="22" fill="#0202CA" stroke="black" stroke-width="2"/>
<rect x="265" y="1" width="22" height="22" fill="#00369C" stroke="black" stroke-width="2"/>
<rect x="331" y="1" width="22" height="22" fill="#00369C" stroke="black" stroke-width="2"/>
<rect x="353" y="23" width="22" height="22" stroke="black" stroke-width="2"/>
<rect x="353" y="1" width="22" height="22" fill="#00369C" stroke="black" stroke-width="2"/>
<rect x="353" y="133" width="22" height="22" stroke="black" stroke-width="2"/>
<rect x="375" y="133" width="22" height="22" stroke="black" stroke-width="2"/>
<rect x="375" y="111" width="22" height="22" stroke="black" stroke-width="2"/>
<rect x="375" y="177" width="22" height="22" fill="#2B6DEC" stroke="black" stroke-width="2"/>
<rect x="375" y="155" width="22" height="22" fill="#0202CA" stroke="black" stroke-width="2"/>
<rect x="375" y="89" width="22" height="22" stroke="black" stroke-width="2"/>
<rect x="397" y="133" width="22" height="22" stroke="black" stroke-width="2"/>
<rect x="397" y="111" width="22" height="22" stroke="black" stroke-width="2"/>
<rect x="397" y="177" width="22" height="22" fill="#2B6DEC" stroke="black" stroke-width="2"/>
<rect x="397" y="155" width="22" height="22" fill="#0202CA" stroke="black" stroke-width="2"/>
<rect x="397" y="89" width="22" height="22" stroke="black" stroke-width="2"/>
<rect x="375" y="67" width="22" height="22" stroke="black" stroke-width="2"/>
<rect x="397" y="67" width="22" height="22" stroke="black" stroke-width="2"/>
<rect x="397" y="45" width="22" height="22" stroke="black" stroke-width="2"/>
<rect x="375" y="45" width="22" height="22" stroke="black" stroke-width="2"/>
<rect x="397" y="23" width="22" height="22" stroke="black" stroke-width="2"/>
<rect x="375" y="23" width="22" height="22" stroke="black" stroke-width="2"/>
<rect x="397" y="1" width="22" height="22" fill="#0202CA" stroke="black" stroke-width="2"/>
<rect x="419" y="133" width="22" height="22" fill="#5186ED" stroke="black" stroke-width="2"/>
<rect x="419" y="111" width="22" height="22" fill="#5186ED" stroke="black" stroke-width="2"/>
<rect x="419" y="177" width="22" height="22" fill="#2B6DEC" stroke="black" stroke-width="2"/>
<rect x="419" y="155" width="22" height="22" fill="#5186ED" stroke="black" stroke-width="2"/>
<rect x="419" y="89" width="22" height="22" fill="#749EEF" stroke="black" stroke-width="2"/>
<rect x="419" y="67" width="22" height="22" fill="#749EEF" stroke="black" stroke-width="2"/>
<rect x="419" y="45" width="22" height="22" fill="#749EEF" stroke="black" stroke-width="2"/>
<rect x="419" y="23" width="22" height="22" fill="#0202CA" stroke="black" stroke-width="2"/>
<rect x="419" y="1" width="22" height="22" fill="#0202CA" stroke="black" stroke-width="2"/>
<rect x="375" y="1" width="22" height="22" fill="#00369C" stroke="black" stroke-width="2"/>
<rect x="265" y="133" width="22" height="22" stroke="black" stroke-width="2"/>
<rect x="331" y="133" width="22" height="22" fill="#0202CA" stroke="black" stroke-width="2"/>
<rect x="309" y="133" width="22" height="22" fill="#0202CA" stroke="black" stroke-width="2"/>
<rect x="287" y="133" width="22" height="22" stroke="black" stroke-width="2"/>
<rect x="265" y="111" width="22" height="22" stroke="black" stroke-width="2"/>
<rect x="331" y="111" width="22" height="22" fill="#0202CA" stroke="black" stroke-width="2"/>
<rect x="309" y="111" width="22" height="22" fill="#000080" stroke="black" stroke-width="2"/>
<rect x="287" y="111" width="22" height="22" stroke="black" stroke-width="2"/>
<rect x="309" y="177" width="22" height="22" fill="#2B6DEC" stroke="black" stroke-width="2"/>
<rect x="287" y="177" width="22" height="22" fill="#155EEA" stroke="black" stroke-width="2"/>
<rect x="309" y="155" width="22" height="22" fill="#0202CA" stroke="black" stroke-width="2"/>
<rect x="287" y="155" width="22" height="22" stroke="black" stroke-width="2"/>
<rect x="265" y="45" width="22" height="22" stroke="black" stroke-width="2"/>
<rect x="331" y="45" width="22" height="22" fill="#0202CA" stroke="black" stroke-width="2"/>
<rect x="309" y="45" width="22" height="22" fill="#000080" stroke="black" stroke-width="2"/>
<rect x="287" y="45" width="22" height="22" stroke="black" stroke-width="2"/>
<rect x="353" y="67" width="22" height="22" stroke="black" stroke-width="2"/>
<rect x="331" y="89" width="22" height="22" fill="#0202CA" stroke="black" stroke-width="2"/>
<rect x="331" y="67" width="22" height="22" fill="#0202CA" stroke="black" stroke-width="2"/>
<rect x="265" y="67" width="22" height="22" fill="#000080" stroke="black" stroke-width="2"/>
<rect x="265" y="89" width="22" height="22" stroke="black" stroke-width="2"/>
<rect x="309" y="89" width="22" height="22" fill="#000080" stroke="black" stroke-width="2"/>
<rect x="287" y="89" width="22" height="22" stroke="black" stroke-width="2"/>
<rect x="309" y="67" width="22" height="22" fill="#000080" stroke="black" stroke-width="2"/>
<rect x="287" y="67" width="22" height="22" stroke="black" stroke-width="2"/>
<rect x="265" y="177" width="22" height="22" fill="#155EEA" stroke="black" stroke-width="2"/>
<rect x="331" y="177" width="22" height="22" fill="#2B6DEC" stroke="black" stroke-width="2"/>
<rect x="353" y="177" width="22" height="22" fill="#2B6DEC" stroke="black" stroke-width="2"/>
<rect x="265" y="155" width="22" height="22" stroke="black" stroke-width="2"/>
<rect x="331" y="155" width="22" height="22" fill="#0202CA" stroke="black" stroke-width="2"/>
<rect x="353" y="155" width="22" height="22" fill="#0202CA" stroke="black" stroke-width="2"/>
<rect x="309" y="1" width="22" height="22" fill="#00369C" stroke="black" stroke-width="2"/>
<rect x="309" y="23" width="22" height="22" fill="#000080" stroke="black" stroke-width="2"/>
<rect x="287" y="23" width="22" height="22" fill="#000080" stroke="black" stroke-width="2"/>
<rect x="287" y="1" width="22" height="22" fill="#00369C" stroke="black" stroke-width="2"/>
</svg>
