<svg xmlns="http://www.w3.org/2000/svg" fill="none" viewBox="0 0 442 200"><path fill="navy" d="M276 46h22v20h-22zM254 46h22v20h-22z"/><path fill="#0242BC" stroke="#000" stroke-width="2" d="M67 1h22v22H67z"/><path fill="#010151" stroke="#000" stroke-width="2" d="M89 23h22v22H89z"/><path stroke="#000" stroke-width="2" d="M67 23h22v22H67zM67 45h22v22H67zM45 67h22v22H45z"/><path fill="#010151" stroke="#000" stroke-width="2" d="M23 67h22v22H23zM23 45h22v22H23z"/><path stroke="#000" stroke-width="2" d="M45 45h22v22H45z"/><path fill="#010151" stroke="#000" stroke-width="2" d="M23 23h22v22H23z"/><path stroke="#000" stroke-width="2" d="M45 23h22v22H45z"/><path fill="#0242BC" stroke="#000" stroke-width="2" d="M23 1h22v22H23zM45 1h22v22H45z"/><path stroke="#000" stroke-width="2" d="M177 45h22v22h-22zM177 89h22v22h-22zM177 111h22v22h-22z"/><path fill="#010151" stroke="#000" stroke-width="2" d="M155 23h22v22h-22z"/><path fill="#00369C" stroke="#000" stroke-width="2" d="M89 1h22v22H89zM155 1h22v22h-22z"/><path fill="#010151" stroke="#000" stroke-width="2" d="M177 23h22v22h-22z"/><path fill="#00369C" stroke="#000" stroke-width="2" d="M177 1h22v22h-22z"/><path fill="#010151" stroke="#000" stroke-width="2" d="M45 89h22v22H45z"/><path stroke="#000" stroke-width="2" d="M45 89h22v22H45zM45 111h22v22H45zM177 133h22v22h-22zM199 133h22v22h-22zM199 111h22v22h-22z"/><path fill="#024EE0" stroke="#000" stroke-width="2" d="M199 177h22v22h-22z"/><path stroke="#000" stroke-width="2" d="M199 155h22v22h-22zM199 89h22v22h-22z"/><path fill="#010151" stroke="#000" stroke-width="2" d="M221 133h22v22h-22z"/><path fill="navy" stroke="#000" stroke-width="2" d="M221 111h22v22h-22z"/><path fill="#024EE0" stroke="#000" stroke-width="2" d="M221 177h22v22h-22z"/><path fill="#010151" stroke="#000" stroke-width="2" d="M221 155h22v22h-22z"/><path fill="navy" stroke="#000" stroke-width="2" d="M221 89h22v22h-22z"/><path stroke="#000" stroke-width="2" d="M199 67h22v22h-22z"/><path fill="navy" stroke="#000" stroke-width="2" d="M221 67h22v22h-22zM221 45h22v22h-22z"/><path stroke="#000" stroke-width="2" d="M199 45h22v22h-22z"/><path fill="navy" stroke="#000" stroke-width="2" d="M221 23h22v22h-22z"/><path fill="#010151" stroke="#000" stroke-width="2" d="M199 23h22v22h-22z"/><path fill="#00369C" stroke="#000" stroke-width="2" d="M221 1h22v22h-22z"/><path stroke="#000" stroke-width="2" d="M243 133h22v22h-22zM243 111h22v22h-22z"/><path fill="#024EE0" stroke="#000" stroke-width="2" d="M243 177h22v22h-22z"/><path stroke="#000" stroke-width="2" d="M243 155h22v22h-22zM243 89h22v22h-22zM243 67h22v22h-22zM243 45h22v22h-22z"/><path fill="navy" stroke="#000" stroke-width="2" d="M243 23h22v22h-22z"/><path fill="#00369C" stroke="#000" stroke-width="2" d="M243 1h22v22h-22zM199 1h22v22h-22z"/><path stroke="#000" stroke-width="2" d="M67 89h22v22H67z"/><path fill="#fff" stroke="#000" stroke-width="2" d="M67 133h22v22H67z"/><path fill="#010151" stroke="#000" stroke-width="2" d="M89 133h22v22H89zM155 133h22v22h-22z"/><path stroke="#000" stroke-width="2" d="M133 133h22v22h-22zM111 133h22v22h-22z"/><path fill="#010151" stroke="#000" stroke-width="2" d="M89 111h22v22H89zM155 111h22v22h-22z"/><path stroke="#000" stroke-width="2" d="M133 111h22v22h-22zM111 111h22v22h-22z"/><path fill="#024EE0" stroke="#000" stroke-width="2" d="M133 177h22v22h-22zM111 177h22v22h-22z"/><path stroke="#000" stroke-width="2" d="M133 155h22v22h-22zM111 155h22v22h-22z"/><path fill="#010151" stroke="#000" stroke-width="2" d="M89 45h22v22H89zM155 45h22v22h-22z"/><path stroke="#000" stroke-width="2" d="M133 45h22v22h-22zM111 45h22v22h-22zM67 67h22v22H67zM177 67h22v22h-22z"/><path fill="#010151" stroke="#000" stroke-width="2" d="M155 89h22v22h-22zM155 67h22v22h-22zM67 89h22v22H67zM89 67h22v22H89zM89 89h22v22H89z"/><path stroke="#000" stroke-width="2" d="M133 89h22v22h-22zM111 89h22v22h-22zM133 67h22v22h-22zM111 67h22v22h-22z"/><path fill="#024EE0" stroke="#000" stroke-width="2" d="M89 177h22v22H89zM155 177h22v22h-22zM177 177h22v22h-22zM67 177h22v22H67z"/><path fill="#010151" stroke="#000" stroke-width="2" d="M89 155h22v22H89z"/><path stroke="#000" stroke-width="2" d="M67 155h22v22H67z"/><path fill="#024EE0" stroke="#000" stroke-width="2" d="M45 177h22v22H45z"/><path stroke="#000" stroke-width="2" d="M45 155h22v22H45z"/><path fill="#010151" stroke="#000" stroke-width="2" d="M23 89h22v22H23zM23 111h22v22H23zM23 133h22v22H23z"/><path fill="#0242BC" stroke="#000" stroke-width="2" d="M23 177h22v22H23z"/><path fill="#010151" stroke="#000" stroke-width="2" d="M23 155h22v22H23z"/><path fill="#0242BC" stroke="#000" stroke-width="2" d="M1 67h22v22H1zM1 45h22v22H1zM1 23h22v22H1zM1 1h22v22H1zM1 89h22v22H1zM1 111h22v22H1zM1 133h22v22H1zM1 177h22v22H1zM1 155h22v22H1z"/><path fill="#010151" stroke="#000" stroke-width="2" d="M155 155h22v22h-22z"/><path stroke="#000" stroke-width="2" d="M177 155h22v22h-22z"/><path fill="#00369C" stroke="#000" stroke-width="2" d="M133 1h22v22h-22z"/><path fill="#010151" stroke="#000" stroke-width="2" d="M133 23h22v22h-22zM111 23h22v22h-22z"/><path fill="#00369C" stroke="#000" stroke-width="2" d="M111 1h22v22h-22z"/><path stroke="#000" stroke-width="2" d="M265 23h22v22h-22zM353 45h22v22h-22zM353 89h22v22h-22zM353 111h22v22h-22z"/><path fill="#0202CA" stroke="#000" stroke-width="2" d="M331 23h22v22h-22z"/><path fill="#00369C" stroke="#000" stroke-width="2" d="M265 1h22v22h-22zM331 1h22v22h-22z"/><path stroke="#000" stroke-width="2" d="M353 23h22v22h-22z"/><path fill="#00369C" stroke="#000" stroke-width="2" d="M353 1h22v22h-22z"/><path stroke="#000" stroke-width="2" d="M353 133h22v22h-22zM375 133h22v22h-22zM375 111h22v22h-22z"/><path fill="#2B6DEC" stroke="#000" stroke-width="2" d="M375 177h22v22h-22z"/><path fill="#0202CA" stroke="#000" stroke-width="2" d="M375 155h22v22h-22z"/><path stroke="#000" stroke-width="2" d="M375 89h22v22h-22zM397 133h22v22h-22zM397 111h22v22h-22z"/><path fill="#2B6DEC" stroke="#000" stroke-width="2" d="M397 177h22v22h-22z"/><path fill="#0202CA" stroke="#000" stroke-width="2" d="M397 155h22v22h-22z"/><path stroke="#000" stroke-width="2" d="M397 89h22v22h-22zM375 67h22v22h-22zM397 67h22v22h-22zM397 45h22v22h-22zM375 45h22v22h-22zM397 23h22v22h-22zM375 23h22v22h-22z"/><path fill="#0202CA" stroke="#000" stroke-width="2" d="M397 1h22v22h-22z"/><path fill="#5186ED" stroke="#000" stroke-width="2" d="M419 133h22v22h-22zM419 111h22v22h-22z"/><path fill="#2B6DEC" stroke="#000" stroke-width="2" d="M419 177h22v22h-22z"/><path fill="#5186ED" stroke="#000" stroke-width="2" d="M419 155h22v22h-22z"/><path fill="#749EEF" stroke="#000" stroke-width="2" d="M419 89h22v22h-22zM419 67h22v22h-22zM419 45h22v22h-22z"/><path fill="#0202CA" stroke="#000" stroke-width="2" d="M419 23h22v22h-22zM419 1h22v22h-22z"/><path fill="#00369C" stroke="#000" stroke-width="2" d="M375 1h22v22h-22z"/><path stroke="#000" stroke-width="2" d="M265 133h22v22h-22z"/><path fill="#0202CA" stroke="#000" stroke-width="2" d="M331 133h22v22h-22zM309 133h22v22h-22z"/><path stroke="#000" stroke-width="2" d="M287 133h22v22h-22zM265 111h22v22h-22z"/><path fill="#0202CA" stroke="#000" stroke-width="2" d="M331 111h22v22h-22z"/><path fill="navy" stroke="#000" stroke-width="2" d="M309 111h22v22h-22z"/><path stroke="#000" stroke-width="2" d="M287 111h22v22h-22z"/><path fill="#2B6DEC" stroke="#000" stroke-width="2" d="M309 177h22v22h-22z"/><path fill="#155EEA" stroke="#000" stroke-width="2" d="M287 177h22v22h-22z"/><path fill="#0202CA" stroke="#000" stroke-width="2" d="M309 155h22v22h-22z"/><path stroke="#000" stroke-width="2" d="M287 155h22v22h-22zM265 45h22v22h-22z"/><path fill="#0202CA" stroke="#000" stroke-width="2" d="M331 45h22v22h-22z"/><path fill="navy" stroke="#000" stroke-width="2" d="M309 45h22v22h-22z"/><path stroke="#000" stroke-width="2" d="M287 45h22v22h-22zM353 67h22v22h-22z"/><path fill="#0202CA" stroke="#000" stroke-width="2" d="M331 89h22v22h-22zM331 67h22v22h-22z"/><path fill="navy" stroke="#000" stroke-width="2" d="M265 67h22v22h-22z"/><path stroke="#000" stroke-width="2" d="M265 89h22v22h-22z"/><path fill="navy" stroke="#000" stroke-width="2" d="M309 89h22v22h-22z"/><path stroke="#000" stroke-width="2" d="M287 89h22v22h-22z"/><path fill="navy" stroke="#000" stroke-width="2" d="M309 67h22v22h-22z"/><path stroke="#000" stroke-width="2" d="M287 67h22v22h-22z"/><path fill="#155EEA" stroke="#000" stroke-width="2" d="M265 177h22v22h-22z"/><path fill="#2B6DEC" stroke="#000" stroke-width="2" d="M331 177h22v22h-22zM353 177h22v22h-22z"/><path stroke="#000" stroke-width="2" d="M265 155h22v22h-22z"/><path fill="#0202CA" stroke="#000" stroke-width="2" d="M331 155h22v22h-22zM353 155h22v22h-22z"/><path fill="#00369C" stroke="#000" stroke-width="2" d="M309 1h22v22h-22z"/><path fill="navy" stroke="#000" stroke-width="2" d="M309 23h22v22h-22zM287 23h22v22h-22z"/><path fill="#00369C" stroke="#000" stroke-width="2" d="M287 1h22v22h-22z"/><path fill="#fff" d="M292.646 52.354a.501.501 0 0 0 .708 0l3.182-3.182a.5.5 0 0 0-.708-.707L293 51.293l-2.828-2.828a.501.501 0 0 0-.708.707l3.182 3.182zM292.5 24v28h1V24h-1zM258.646 52.354a.501.501 0 0 0 .708 0l3.182-3.182a.5.5 0 0 0-.708-.707L259 51.293l-2.828-2.828a.501.501 0 0 0-.708.707l3.182 3.182zM258.5 24v28h1V24h-1z"/><text fill="#fff" font-family="Magnetic Pro" font-size="17" font-weight="500" letter-spacing="0em" white-space="pre"><tspan x="217" y="17.55">what is this??</tspan></text></svg>