<svg width="858" height="493" xmlns="http://www.w3.org/2000/svg" xmlns:xlink="http://www.w3.org/1999/xlink"><defs><path id="a" d="M11.188 57h460v305h-460z"/></defs><g fill="none" fill-rule="evenodd"><text font-family="MagneticPro-Medium, Magnetic Pro" font-size="36" font-weight="400" fill="#000" transform="translate(0 -5)"><tspan x="11.188" y="31">writing-mode: vertical-rl</tspan></text><g transform="translate(0 -5)"><use fill="#D8D8D8" xlink:href="#a"/><path stroke="#595959" stroke-width="5" d="M8.688 54.5h465v310h-465z"/></g><path d="M318.688 52v305m-307.5-152.5h460M163.688 52v305" stroke-opacity=".5" stroke="#595959" stroke-width="5" stroke-linecap="square"/><path d="M12.188 455h460m-449.2 3l-10.8-3 10.8-3m438.399 6l10.8-3-10.8-3" stroke="#9012FE" stroke-width="2" stroke-linecap="square"/><text font-family="MagneticPro-Medium, Magnetic Pro" font-size="24" font-weight="400" fill="#000" transform="translate(0 -5)"><tspan x="91.188" y="495">Column-axis / Block-axis</tspan></text><text font-family="MagneticPro-Medium, Magnetic Pro" font-size="24" font-weight="400" fill="#000" transform="translate(0 -5)"><tspan x="587.188" y="216">Row-axis / Inline-axis</tspan></text><path d="M562.188 52v305m-3-294.2l3-10.8 3 10.8m-6 283.4l3 10.8 3-10.8" stroke="#9012FE" stroke-width="2" stroke-linecap="square"/><text transform="rotate(90 322.688 207)" font-family="MagneticPro-Medium, Magnetic Pro" font-size="24" font-weight="400" fill="#000"><tspan x="200.688" y="152.5">The text-flow of </tspan> <tspan x="200.688" y="178.5">this document is </tspan> <tspan x="200.688" y="204.5">top-to-bottom with </tspan> <tspan x="200.688" y="230.5">a block flow </tspan> <tspan x="200.688" y="256.5">direction from </tspan> <tspan x="200.688" y="282.5">right-to-left.</tspan></text><text font-family="MagneticPro-Medium, Magnetic Pro" font-size="24" font-weight="400" fill="#000" transform="translate(0 -5)"><tspan x="521.863" y="63.188">1</tspan></text><text font-family="MagneticPro-Medium, Magnetic Pro" font-size="24" font-weight="400" fill="#000" transform="translate(0 -5)"><tspan x="521.311" y="218.188">2</tspan></text><text font-family="MagneticPro-Medium, Magnetic Pro" font-size="24" font-weight="400" fill="#000" transform="translate(0 -5)"><tspan x="520.191" y="372.188">3</tspan></text><path d="M475.375 49.688h35m-35 155.5h35m-35 154.5h35m-502.5 2.5v35m155-35v35m155-35v35m155-35v35" stroke="#979797" stroke-width="3"/><text font-family="MagneticPro-Medium, Magnetic Pro" font-size="24" font-weight="400" fill="#000" transform="translate(0 -5)"><tspan x=".915" y="431.188">4</tspan></text><text font-family="MagneticPro-Medium, Magnetic Pro" font-size="24" font-weight="400" fill="#000" transform="translate(0 -5)"><tspan x="158.191" y="431.188">3</tspan></text><text font-family="MagneticPro-Medium, Magnetic Pro" font-size="24" font-weight="400" fill="#000" transform="translate(0 -5)"><tspan x="311.311" y="431.188">2</tspan></text><text font-family="MagneticPro-Medium, Magnetic Pro" font-size="24" font-weight="400" fill="#000" transform="translate(0 -5)"><tspan x="465.863" y="431.188">1</tspan></text></g></svg>
