<?xml version="1.0" standalone="no"?>
<!DOCTYPE svg PUBLIC "-//W3C//DTD SVG 1.1//EN" "http://www.w3.org/Graphics/SVG/1.1/DTD/svg11.dtd" >
<svg xmlns="http://www.w3.org/2000/svg">
<metadata></metadata>
<defs>
<font id="paloaltoheavy" horiz-adv-x="1290" >
<font-face units-per-em="2048" ascent="1638" descent="-410" />
<missing-glyph horiz-adv-x="645" />
<glyph horiz-adv-x="0" />
<glyph unicode="&#xd;" horiz-adv-x="645" />
<glyph unicode=" "  horiz-adv-x="645" />
<glyph unicode="&#x09;" horiz-adv-x="645" />
<glyph unicode="&#xa0;" horiz-adv-x="645" />
<glyph unicode="!" horiz-adv-x="606" d="M113 47v287q0 20 13 33.5t32 13.5h291q18 0 31.5 -13.5t13.5 -33.5v-287q0 -20 -13.5 -33.5t-31.5 -13.5h-291q-18 0 -31.5 13.5t-13.5 33.5zM115 1462h379q-12 -164 -20.5 -304t-13.5 -260t-7 -223.5t-2 -191.5h-293q0 88 -2 191.5t-7.5 223.5t-13.5 260t-20 304z" />
<glyph unicode="&#x22;" horiz-adv-x="1024" d="M127 725v737h295v-737h-295zM602 725v737h295v-737h-295z" />
<glyph unicode="#" d="M141 389v215h183l30 225h-151v215h182l53 383h236l-53 -383h165l54 383h235l-53 -383h127v-215h-158l-30 -225h126v-215h-157l-53 -389h-236l53 389h-166l-53 -389h-235l53 389h-152zM559 604h166l31 225h-166z" />
<glyph unicode="$" d="M20 72v14t1.5 40t1.5 57.5v66.5q0 80 2 180q39 -18 101 -49t139 -59.5t162 -51t167 -24.5q31 0 83 3t102 17.5t86 45t36 83.5t-62.5 84t-156.5 56.5t-204.5 56.5t-205 82t-157 132t-62.5 210q0 98 47 172t122 125t167 80.5t182 42.5v192h168v-186q152 -4 275 -24.5 t198 -43.5v-26v-63t-1 -82t-2 -81t-1 -62v-24q-35 25 -93 48.5t-124.5 42t-136.5 29.5t-129 11q-33 0 -83 -1t-98 -12t-83 -36.5t-35 -73.5q0 -57 63.5 -88.5t157.5 -58.5t206 -56.5t206 -78.5t157.5 -128t63.5 -204q0 -109 -40 -190.5t-110.5 -137t-171 -87t-219.5 -42.5 v-188h-168v186q-121 4 -222 19.5t-173 34t-112.5 33t-43.5 14.5z" />
<glyph unicode="%" horiz-adv-x="2086" d="M154 1053q0 84 22.5 155.5t65.5 124.5t108.5 83t155.5 30t156.5 -28.5t109.5 -80t63.5 -124t20.5 -160.5q0 -86 -19.5 -159t-61.5 -125t-108.5 -81t-160.5 -29q-92 0 -158.5 29t-109.5 82t-63.5 125t-20.5 158zM393 1053q0 -31 2 -70t12.5 -75t33 -60.5t65.5 -24.5 q41 0 63.5 24.5t32.5 60.5t12 75t2 70t-2 69.5t-12 74.5t-32.5 60.5t-63.5 24.5q-43 0 -65.5 -24.5t-33 -60.5t-12.5 -74.5t-2 -69.5zM532 -55l828 1538h203l-828 -1538h-203zM1233 375q0 84 22.5 155.5t65.5 125t108.5 83t155.5 29.5t156.5 -28.5t109.5 -80t63.5 -124 t20.5 -160.5q0 -86 -19.5 -159t-61.5 -125t-108.5 -80.5t-160.5 -28.5q-92 0 -158.5 28.5t-109.5 81.5t-63.5 125t-20.5 158zM1473 375q0 -31 2 -70t12 -74.5t32.5 -60.5t65.5 -25q41 0 63.5 25t33 60.5t12.5 74.5t2 70t-2 69.5t-12.5 74.5t-33 60.5t-63.5 24.5 q-43 0 -65.5 -24.5t-32.5 -60.5t-12 -74.5t-2 -69.5z" />
<glyph unicode="&#x26;" horiz-adv-x="1478" d="M70 416q0 82 28.5 147.5t74.5 117.5t106.5 91t121.5 70q-20 27 -42.5 53.5t-42 59t-32 73.5t-12.5 94q0 72 29 139.5t82 119t131 82t176 30.5q88 0 164 -27.5t131 -78t87 -120t32 -153.5q0 -41 -10.5 -87t-38 -94t-75.5 -94t-126 -87l236 -273q37 41 71.5 87t67.5 100 l203 -226q-76 -111 -150 -184l150 -172l-248 -205l-152 182q-100 -51 -200.5 -71.5t-200.5 -20.5q-102 0 -202.5 20.5t-180.5 72t-129 137.5t-49 217zM401 436q0 -49 19.5 -84t51.5 -56.5t73 -30.5t86 -9q106 0 207 41l-275 332q-25 -10 -53.5 -25.5t-52 -39t-40 -54.5 t-16.5 -74zM582 1139q0 -37 15 -70t36 -59q23 -31 51 -56q37 18 68 45q25 23 46 55.5t21 80.5q0 59 -38 85.5t-85 26.5t-80.5 -30.5t-33.5 -77.5z" />
<glyph unicode="'" horiz-adv-x="606" d="M156 725v737h295v-737h-295z" />
<glyph unicode="(" horiz-adv-x="606" d="M74 561q2 137 14 253t38 225.5t68 220t105 233.5h326q-104 -213 -167 -448.5t-59 -483.5q-4 -238 58.5 -471t167.5 -446h-326q-63 123 -105 232.5t-68 218t-38 222t-14 244.5z" />
<glyph unicode=")" horiz-adv-x="606" d="M-18 -356q104 213 166.5 446.5t58.5 470.5q4 248 -58.5 483.5t-166.5 448.5h325q63 -123 105.5 -233.5t68 -220t37.5 -225.5t14 -253q-2 -131 -14 -244.5t-37.5 -222t-67.5 -218t-106 -232.5h-325z" />
<glyph unicode="*" horiz-adv-x="909" d="M39 1147.5q0 28.5 9 56t25.5 50t39.5 34.5t64.5 -3t82.5 -38q49 -27 102 -65q-14 66 -22 121q-6 47 -6 93t18 64t45 27.5t55.5 9.5t56.5 -9t46 -28q18 -18 19 -64t-5 -93q-8 -55 -22 -119q53 37 102 63q41 23 83 37t65 2t40 -34.5t25 -50t8 -56.5t-12 -51 q-10 -23 -54 -36.5t-91 -19.5q-55 -8 -125 -10q53 -45 92 -84q35 -35 61.5 -71.5t22.5 -61.5t-20.5 -48.5t-40 -40.5t-51 -25.5t-52.5 -4.5t-51.5 41t-48.5 80q-24 52 -49 115q-25 -63 -50 -115q-23 -43 -47 -81t-49 -42t-52.5 5.5t-51 25.5t-40 39.5t-20.5 50.5 q-4 25 24 61.5t62 71.5q41 39 95 82q-68 4 -123 12q-47 8 -92.5 21.5t-55.5 36.5q-12 23 -12 51.5z" />
<glyph unicode="+" horiz-adv-x="1228" d="M98 371v295h369v370h295v-370h368v-295h-368v-371h-295v371h-369z" />
<glyph unicode="," horiz-adv-x="647" d="M133 47v287q0 20 13.5 33.5t31.5 13.5h291q18 0 31.5 -13.5t13.5 -33.5v-291q0 -111 -38 -184.5t-95 -119.5t-124 -67.5t-124 -27.5v163q84 23 121 68t47 125h-123q-18 0 -31.5 13.5t-13.5 33.5z" />
<glyph unicode="-" horiz-adv-x="833" d="M98 410v295h637v-295h-637z" />
<glyph unicode="." horiz-adv-x="647" d="M133 47v287q0 20 13.5 33.5t31.5 13.5h291q18 0 31.5 -13.5t13.5 -33.5v-287q0 -20 -13.5 -33.5t-31.5 -13.5h-291q-18 0 -31.5 13.5t-13.5 33.5z" />
<glyph unicode="/" horiz-adv-x="833" d="M-4 0l536 1493l308 -27l-539 -1497z" />
<glyph unicode="0" d="M76 715q0 143 30.5 275t97 233.5t173 162t258.5 60.5q156 0 266.5 -60.5t181 -162t102.5 -233.5t32 -275t-32 -275.5t-102.5 -234t-181 -162.5t-266.5 -61q-152 0 -258.5 61t-173 162.5t-97 233.5t-30.5 276zM412 715q0 -70 5 -154t28.5 -156.5t69.5 -122t130 -49.5 q86 0 133 49.5t70.5 122t28 156.5t4.5 154t-4.5 153.5t-28 155.5t-70.5 121t-133 49q-84 0 -130 -49t-69.5 -121t-28.5 -156t-5 -153z" />
<glyph unicode="1" d="M205 940l2 322q236 102 425 146t304 44v-1452h-346v1094q-49 -6 -152.5 -41t-232.5 -113z" />
<glyph unicode="2" d="M66 0q0 68 10 122t29.5 101t48 89t69.5 89q68 78 170.5 156t199.5 154.5t165.5 150.5t68.5 144q0 51 -22.5 86.5t-56 56t-74.5 28t-80 5.5q-78 -4 -149.5 -17.5t-134 -32t-113 -39t-86.5 -38.5v23v58.5t-1 74.5t-1 75t-1 58l-2 22q2 0 37 13.5t97.5 28.5t149.5 27.5 t192 12.5q135 0 246.5 -25.5t190.5 -79t122 -136.5t43 -199q0 -92 -36 -172t-128 -164q-74 -66 -139.5 -117t-123 -94t-104.5 -83t-82 -83h639v-295h-1144z" />
<glyph unicode="3" d="M117 61v314q43 -20 96 -43t113.5 -41.5t123 -30.5t123.5 -12q139 0 221.5 43t82.5 151q0 84 -40 124t-103.5 54.5t-139.5 13.5t-148 1v237q72 0 140.5 -3t123 9.5t87 46t32.5 107.5q0 59 -27.5 90t-68.5 45.5t-87 15.5t-83 1q-104 0 -208.5 -28t-190.5 -62v292 q51 16 119 31q55 10 132 20.5t167 10.5q147 0 259.5 -29.5t188.5 -84t115 -130.5t39 -166q0 -86 -47 -160.5t-136 -109.5q98 -51 159 -137t61 -209q0 -94 -32 -175t-102.5 -139.5t-186.5 -91t-282 -32.5q-178 0 -307 27.5t-194 49.5z" />
<glyph unicode="4" d="M63 317v234q0 47 13.5 87t46.5 81q18 25 79.5 106.5t159.5 198.5q43 51 97.5 119.5t109 132t103.5 107.5t80 44h284v-815h187v-295h-187v-317h-348v317h-625zM334 612h364v461h-4q-41 -49 -78 -92q-31 -37 -62.5 -75t-47.5 -58q-18 -23 -47 -61.5t-58 -77.5 q-33 -45 -67 -97z" />
<glyph unicode="5" d="M117 61v314q43 -20 96 -43t113.5 -41.5t123 -30.5t123.5 -12t114.5 9t92.5 33.5t61.5 68.5t22.5 112q0 61 -22.5 102t-61.5 65t-92 34t-115 10q-72 0 -140 -3t-121.5 -7t-88.5 -6t-41 -2l115 763h860v-294h-584l-28 -218q12 4 53 8.5t97.5 2.5t121 -13t123.5 -36 q80 -35 132 -81t83 -101.5t44 -115t13 -120.5q0 -102 -30.5 -188.5t-100 -150t-183.5 -99t-280 -37.5q-90 -2 -166.5 6t-140 20.5t-112.5 25.5t-82 25z" />
<glyph unicode="6" d="M78 596q0 125 28.5 229.5t75.5 191.5t107.5 155.5t124.5 121.5q147 125 338 199l209 -193q-41 -18 -95.5 -48.5t-115 -77t-122 -106.5t-114.5 -138l2 -4q20 8 41 18t46.5 17.5t61 12.5t89.5 5q98 0 183 -37t146.5 -101.5t97.5 -149.5t36 -183q0 -127 -45.5 -225.5 t-123 -165t-181 -100t-220.5 -33.5q-123 0 -227.5 44t-180 124.5t-118.5 193.5t-43 250zM422 508l2 -27q0 -92 62.5 -154.5t164.5 -62.5q55 0 99.5 18.5t76 48t49 69.5t17.5 83q0 100 -62.5 170t-181.5 70t-173 -61.5t-54 -153.5z" />
<glyph unicode="7" d="M154 1112v318h1097q-47 -121 -106 -261q-51 -119 -120 -272.5t-146 -318.5q-72 -147 -151 -309.5t-155 -301.5l-337 78q281 494 410.5 768t129.5 297v2h-622z" />
<glyph unicode="8" d="M59 420q0 61 19.5 118.5t56.5 102.5t87 76t112 41v4q-104 25 -158.5 105.5t-54.5 185.5q0 106 49 181t126 122t171 68.5t184 21.5q92 0 185.5 -21.5t168 -69.5t123 -123t48.5 -181q0 -49 -14.5 -96.5t-42 -86.5t-66.5 -67.5t-88 -38.5v-4q123 -25 195.5 -114t72.5 -224 q0 -119 -51.5 -202t-134 -135t-187 -76.5t-211.5 -24.5q-104 0 -209.5 21.5t-190.5 72.5t-137.5 135t-52.5 209zM408 428q0 -47 20.5 -82t53 -59.5t75.5 -36.5t90 -12q45 0 87 12t76 36.5t54.5 59.5t20.5 82q0 70 -36 113t-79 66.5t-81 31.5t-40 8q-4 0 -42 -8t-82 -31.5 t-80.5 -66.5t-36.5 -113zM430 1036q0 -59 32 -94t71.5 -53.5t74.5 -24.5t39 -6t39 6t75 24.5t72.5 53.5t32.5 94q0 37 -18.5 65.5t-49 48t-69.5 30t-82 10.5q-86 0 -151.5 -38t-65.5 -116z" />
<glyph unicode="9" d="M76 924q0 127 45 225t123 164.5t181 100.5t220 34q123 0 227.5 -44t180 -125t118.5 -193.5t43 -249.5q0 -125 -29.5 -230.5t-76.5 -191.5t-107.5 -155t-123.5 -122q-147 -125 -336 -198l-209 192q39 18 94 49t115.5 77t122 106.5t114.5 138.5l-2 4q-20 -10 -40.5 -19.5 t-46 -16.5t-62.5 -12t-88 -5q-98 0 -183.5 36.5t-147 101t-97 149.5t-35.5 184zM399 948q0 -100 62.5 -169.5t181.5 -69.5t173 61t54 154l-2 26q0 92 -62.5 154.5t-164.5 62.5q-55 0 -99 -18.5t-76 -48t-49.5 -69.5t-17.5 -83z" />
<glyph unicode=":" horiz-adv-x="647" d="M133 47v287q0 20 13.5 33.5t31.5 13.5h291q18 0 31.5 -13.5t13.5 -33.5v-287q0 -20 -13.5 -33.5t-31.5 -13.5h-291q-18 0 -31.5 13.5t-13.5 33.5zM133 729v287q0 20 13.5 33.5t31.5 13.5h291q18 0 31.5 -13.5t13.5 -33.5v-287q0 -20 -13.5 -33.5t-31.5 -13.5h-291 q-18 0 -31.5 13.5t-13.5 33.5z" />
<glyph unicode=";" horiz-adv-x="647" d="M133 47q0 -20 13.5 -33.5t31.5 -13.5h123q-10 -80 -47 -125t-121 -68v-163q57 6 124 27.5t124 67.5t95 119.5t38 184.5v291q0 20 -13.5 33.5t-31.5 13.5h-291q-18 0 -31.5 -13.5t-13.5 -33.5v-287zM133 729v287q0 20 13.5 33.5t31.5 13.5h291q18 0 31.5 -13.5t13.5 -33.5 v-287q0 -20 -13.5 -33.5t-31.5 -13.5h-291q-18 0 -31.5 13.5t-13.5 33.5z" />
<glyph unicode="&#x3c;" horiz-adv-x="1228" d="M94 373v291l1041 389v-316l-629 -217v-4l629 -217v-315z" />
<glyph unicode="=" horiz-adv-x="1228" d="M98 117v295h1032v-295h-1032zM98 625v295h1032v-295h-1032z" />
<glyph unicode="&#x3e;" horiz-adv-x="1228" d="M94 -16v315l629 217v4l-629 217v316l1041 -389v-291z" />
<glyph unicode="?" horiz-adv-x="1175" d="M88 1399q0 14 51 31.5t125 33t157 25.5t146 10q88 0 184.5 -19.5t177.5 -60.5t134 -106.5t53 -159.5q0 -66 -32.5 -116t-82 -94t-107.5 -85t-107.5 -87t-82 -101.5t-32.5 -126.5q0 -35 12 -60h-328q-14 55 -14 101q0 84 28.5 148.5t72.5 114.5t94.5 90t94.5 76t72.5 71.5 t28.5 76.5q0 33 -20.5 51.5t-51 27.5t-65.5 10t-64 1q-53 0 -116.5 -10t-125 -25.5t-113.5 -35t-85 -37.5l-1 31q-1 32 -1 75t-1 85t-1 65zM340 47v287q0 20 13.5 33.5t31.5 13.5h291q18 0 31.5 -13.5t13.5 -33.5v-287q0 -20 -13.5 -33.5t-31.5 -13.5h-291q-18 0 -31.5 13.5 t-13.5 33.5z" />
<glyph unicode="@" horiz-adv-x="1638" d="M70 731q0 180 65.5 322.5t176 240t253 148.5t295.5 51q154 0 296 -50t253 -149q61 -55 102 -114.5t66 -120t35 -117.5t10 -108q0 -115 -31.5 -198t-86 -140.5t-127 -91t-151.5 -51t-162 -23.5t-159 -6q-98 0 -190 19t-163 62.5t-113 114t-42 172.5q0 205 130 316.5 t356 111.5q135 0 225 -21.5t121 -41.5l-86 -506q39 6 83 21.5t80.5 48t61.5 88t25 141.5q0 98 -49.5 180t-127 141.5t-172 93t-184.5 33.5q-111 0 -213 -42t-181 -116.5t-126 -179t-47 -229.5t47 -229.5t126 -179t181.5 -116.5t212.5 -42q104 0 185 6t137.5 12t86 11.5 t29.5 3.5l-28 -197q2 0 -20.5 -5t-72 -10t-127 -10.5t-190.5 -5.5q-154 0 -296 51.5t-252.5 148.5t-176 238.5t-65.5 323.5zM629 725q-8 -86 39 -131t123 -45h77q23 0 43 2l58 338q-10 2 -29 4q-16 2 -42 3t-60 1q-90 0 -145.5 -44t-63.5 -128z" />
<glyph unicode="A" horiz-adv-x="1441" d="M-18 0l546 1462h387l547 -1462h-397l-90 272h-510l-92 -272h-391zM553 545h332l-162 512h-4z" />
<glyph unicode="B" horiz-adv-x="1458" d="M123 29v1382q68 23 156 41q74 16 178 29.5t233 13.5q141 0 259 -31.5t204 -88t134 -135.5t48 -173q0 -49 -15 -89t-40 -72t-55.5 -57.5t-59.5 -45.5q53 -23 96.5 -59.5t73 -83t46 -98.5t16.5 -105q0 -111 -50.5 -201t-139.5 -153.5t-211 -97.5t-267 -34 q-135 0 -246.5 8.5t-191.5 19.5t-124 21zM504 258q25 -4 55 -8q27 -4 61.5 -6t75.5 -2q70 0 131.5 13t106.5 40t70.5 67t25.5 95q0 84 -36 122.5t-104 52.5q-60 13 -143 13h-23q-48 -1 -103 -1t-117 1v-387zM504 889q72 0 150 -3q17 -1 34 -1q60 0 112 9q66 11 110 45 t44 108q0 59 -27.5 95t-68.5 56.5t-87 26.5t-83 6q-76 0 -129 -13.5t-55 -13.5v-315z" />
<glyph unicode="C" horiz-adv-x="1411" d="M61 741q0 170 52.5 309.5t148.5 239t234.5 153.5t310.5 54q113 0 194.5 -11t145 -26.5t112 -33t91.5 -31.5v-324q-53 23 -113.5 49.5t-126.5 48t-133.5 36t-132.5 14.5q-102 0 -177 -42t-125 -112t-75 -157t-25 -179t25 -179t75 -154.5t124.5 -107.5t177.5 -40 q66 0 133 14t133 37t126 49.5t114 50.5v-325q-43 -12 -91.5 -30.5t-112 -34t-145 -27t-194.5 -11.5q-172 0 -310.5 53.5t-234.5 154t-148.5 242.5t-52.5 320z" />
<glyph unicode="D" horiz-adv-x="1529" d="M123 29v1382q0 -2 37 11.5t109.5 29.5t178 29.5t240.5 13.5q186 0 330.5 -55.5t245 -154.5t152.5 -238.5t52 -309.5q0 -182 -44 -323.5t-137 -239.5t-238.5 -149.5t-348.5 -53.5q-98 0 -200.5 8.5t-186.5 18.5t-137 20zM502 260l18 -4q17 -4 44.5 -8t61 -6t66.5 -2 q115 0 190.5 31.5t122 94t64.5 154.5t18 213q0 41 -5 93.5t-20 107.5t-43 108.5t-71 95.5t-105.5 67.5t-148.5 25.5q-37 0 -70.5 -3t-60.5 -7q-31 -6 -59 -11z" />
<glyph unicode="E" horiz-adv-x="1411" d="M123 0v1462h1165v-270h-784v-305h717v-271h-717v-342h805v-274h-1186z" />
<glyph unicode="F" horiz-adv-x="1241" d="M123 0v1462h1077v-270h-696v-303h602v-271h-602v-618h-381z" />
<glyph unicode="G" horiz-adv-x="1556" d="M61 741q0 170 52.5 309.5t148.5 239t234.5 153.5t310.5 54q113 0 194.5 -11t145 -26.5t112 -33t91.5 -31.5v-324q-53 23 -113.5 49.5t-126.5 49t-133.5 37t-132.5 14.5q-102 0 -178 -43t-128.5 -112t-78 -157t-25.5 -180t25.5 -179t78 -154.5t128 -107.5t178.5 -40 q66 0 125 13t125 36q2 0 2 37t-1 80t-1 78v36h-265v273h615v-699q-43 -18 -105.5 -41.5t-143.5 -43t-178 -33t-210 -13.5q-172 0 -310.5 53.5t-234.5 154t-148.5 242.5t-52.5 320z" />
<glyph unicode="H" horiz-adv-x="1509" d="M123 0v1462h381v-575h502v575h380v-1462h-380v618h-502v-618h-381z" />
<glyph unicode="I" horiz-adv-x="626" d="M123 0v1462h381v-1462h-381z" />
<glyph unicode="J" horiz-adv-x="632" d="M-117 -215q102 63 172 163.5t74 254.5v1261h381v-1292q-4 -117 -32.5 -211t-77 -169t-113 -134t-137.5 -109z" />
<glyph unicode="K" horiz-adv-x="1509" d="M123 0v1462h381v-581l481 581h473l-540 -596l608 -866h-473l-549 825v-825h-381z" />
<glyph unicode="L" horiz-adv-x="1236" d="M123 0v1462h381v-1134h682v-328h-1063z" />
<glyph unicode="M" horiz-adv-x="1904" d="M72 0l82 1462h561q41 -182 78 -332q14 -63 29.5 -126.5t27.5 -116.5t21.5 -92t13.5 -54q10 -41 21.5 -95t21.5 -103q10 -57 22 -117h4q12 59 23 117q10 49 21.5 103t21.5 95q4 14 13 53.5t21.5 92.5t27 116.5t30.5 126.5q35 150 78 332h561l82 -1462h-379l-61 1110h-4 l-283 -1110h-307l-283 1110h-4l-61 -1110h-379z" />
<glyph unicode="N" horiz-adv-x="1507" d="M123 0v1462h391l508 -901h4v901h358v-1462h-391l-508 911h-4v-911h-358z" />
<glyph unicode="O" horiz-adv-x="1564" d="M61 731q0 160 48.5 298t140.5 241.5t226 163t306 59.5t306.5 -59.5t226.5 -163t140 -241.5t48 -298t-48 -298t-140 -241.5t-226.5 -163t-306.5 -59.5t-306 59.5t-226 163t-140.5 241.5t-48.5 298zM442 731q0 -82 18.5 -167t59.5 -154.5t105.5 -114.5t156.5 -45t157 45 t105.5 114.5t59 154.5t18.5 167t-18.5 167t-59 154.5t-105.5 114.5t-157 45t-156.5 -45t-105.5 -114.5t-59.5 -154.5t-18.5 -167z" />
<glyph unicode="P" horiz-adv-x="1396" d="M123 0v1417l44 13q44 12 124 26t191.5 26.5t246.5 12.5q145 0 261 -34t198 -97.5t125 -153.5t43 -200q0 -143 -47 -236.5t-125 -149t-178.5 -77t-208.5 -21.5q-23 0 -72 -1t-98 -1h-86t-37 2v-526h-381zM504 805h192q70 0 124 8t92 29.5t57.5 60.5t19.5 98 q0 113 -75.5 171.5t-211.5 58.5q-41 0 -77.5 -5t-63.5 -9q-33 -6 -57 -13v-399z" />
<glyph unicode="Q" horiz-adv-x="1564" d="M61 731q0 160 48.5 298t140.5 241.5t226 163t306 59.5t306.5 -59.5t226.5 -163t140 -241.5t48 -298q0 -158 -46 -293t-136 -239l176 -170q-25 -35 -51 -62q-23 -23 -53.5 -42t-63.5 -19t-60.5 13t-49.5 30q-25 18 -45 43l-52 53q-147 -76 -340 -76q-172 0 -306 59.5 t-226 163t-140.5 241.5t-48.5 298zM442 731q0 -82 18.5 -167t59.5 -154.5t105.5 -114.5t156.5 -45q23 0 57.5 5t53.5 15l-150 148l170 178l152 -147q29 57 43 132.5t14 149.5q0 82 -18.5 167t-59 154.5t-105.5 114.5t-157 45t-156.5 -45t-105.5 -114.5t-59.5 -154.5 t-18.5 -167z" />
<glyph unicode="R" horiz-adv-x="1509" d="M123 0v1417l44 13q44 12 124 26t191.5 26.5t246.5 12.5q145 0 261 -34t198 -97.5t125 -153.5t43 -200q0 -96 -21.5 -169t-59.5 -127.5t-91.5 -90.5t-114.5 -56q59 -102 130 -203.5t130 -183.5q70 -96 139 -182h-438q-57 76 -115 162q-49 74 -105 168t-103 198h-76h-127 v-526h-381zM504 805h181t154.5 15.5t108.5 56t41 124.5q0 113 -75.5 171.5t-211.5 58.5q-41 0 -77.5 -5t-63.5 -9q-33 -6 -57 -13v-399z" />
<glyph unicode="S" horiz-adv-x="1320" d="M31 72v14q0 14 1 40t1 57.5v66.5q0 80 2 180q39 -18 101.5 -49t139 -59.5t161.5 -51t167 -24.5q31 0 83 3t102.5 17.5t86 45t35.5 83.5t-60 88t-151.5 66t-197 67.5t-196.5 93t-151.5 141.5t-60.5 214q0 117 58.5 197.5t147.5 132t195.5 75t202.5 23.5q168 0 305.5 -23.5 t219.5 -46.5v-25v-64t-1 -82t-2 -80.5t-1 -61.5v-25q-35 25 -93.5 48.5t-125 42t-136 30t-129.5 11.5q-33 0 -79 -1.5t-88 -12.5t-71.5 -36.5t-29.5 -72.5q0 -57 61.5 -93t152.5 -68t197.5 -68t197.5 -90t152.5 -137t61.5 -208q0 -121 -48 -208t-135 -143t-207 -83t-261 -27 q-133 0 -243.5 15.5t-191.5 35t-126 36t-47 16.5z" />
<glyph unicode="T" horiz-adv-x="1327" d="M37 1135v327h1253v-327h-436v-1135h-381v1135h-436z" />
<glyph unicode="U" horiz-adv-x="1478" d="M102 604v858h381v-884q0 -72 13.5 -131.5t44 -102.5t80 -67.5t118.5 -24.5q70 0 119 24.5t80 67.5t44 102.5t13 131.5v884h381v-858q0 -317 -152.5 -476t-484.5 -159t-484.5 159t-152.5 476z" />
<glyph unicode="V" horiz-adv-x="1327" d="M-23 1462h398l287 -1087h4l286 1087h398l-473 -1462h-439z" />
<glyph unicode="W" horiz-adv-x="1943" d="M102 403v1059h377v-903q0 -57 -1 -113v-7q0 -51 12 -92q14 -44 51 -70.5t112 -26.5q41 0 66.5 8t42.5 18q18 10 26 27v762h367v-762q8 -16 27 -27q16 -10 41.5 -18t66.5 -8q76 0 113 26.5t51 70.5q13 41 13 92v7q-1 56 -1 113v903h375v-1059q0 -61 -8 -135.5t-52 -141.5 t-137.5 -112t-265.5 -45q-123 0 -219 20.5t-178 43.5h-2q-84 -23 -185.5 -43.5t-228.5 -20.5q-172 0 -265 45t-137 112t-52.5 141.5t-8.5 135.5z" />
<glyph unicode="X" horiz-adv-x="1441" d="M-16 0l520 768l-477 694h448l246 -454l260 454h434l-473 -694l516 -768h-463l-274 487l-299 -487h-438z" />
<glyph unicode="Y" horiz-adv-x="1355" d="M41 1153v309h381v-336q0 -72 13.5 -131t44 -102t79.5 -67.5t119 -24.5t119 24.5t79.5 67.5t44 102.5t13.5 130.5v336h381v-309q0 -270 -107.5 -424t-339.5 -197v-532h-381v532q-233 43 -339.5 197t-106.5 424z" />
<glyph unicode="Z" horiz-adv-x="1370" d="M51 0v242q0 33 4 51t10.5 31.5t16.5 22.5t22 24q16 16 74 79.5t135.5 148.5t163.5 179t158 174t119 132l47 53h-705v325h1196v-202q0 -63 -12 -91t-39 -57q-12 -14 -49 -54t-89 -98.5t-115.5 -127t-128 -139t-125 -137.5t-106.5 -117t-75 -81l-29 -32h795v-326h-1268z " />
<glyph unicode="[" horiz-adv-x="757" d="M141 -309v1755q0 20 13.5 33.5t31.5 13.5h557v-295h-276v-1259h276v-295h-557q-18 0 -31.5 13t-13.5 34z" />
<glyph unicode="\" horiz-adv-x="833" d="M-8 1462l309 31l537 -1493l-306 -31z" />
<glyph unicode="]" horiz-adv-x="757" d="M14 -61h277v1259h-277v295h557q18 0 31.5 -13.5t13.5 -33.5v-1755q0 -20 -13 -33.5t-32 -13.5h-557v295z" />
<glyph unicode="^" horiz-adv-x="1228" d="M96 680l332 747h373l332 -747h-328l-191 487l-192 -487h-326z" />
<glyph unicode="_" horiz-adv-x="1024" d="M0 -154h1024v-102h-1024v102z" />
<glyph unicode="`" horiz-adv-x="606" d="M-72 1483h369l199 -305h-246z" />
<glyph unicode="a" horiz-adv-x="1228" d="M74 291q-1 14 -1 26q-1 79 31 135q36 64 99 106t144 66.5t163 39.5q35 6 76 12t77.5 10t64.5 6t36 2v31q0 49 -10.5 77.5t-32 43t-53 18.5t-74.5 4q-49 0 -110.5 -12t-123 -29.5t-114.5 -37t-88 -33.5v260q45 14 112.5 27.5t138 24.5t135 18.5t105.5 7.5q88 0 172 -13.5 t149.5 -52.5t105.5 -108.5t40 -182.5v-696l-38 -11q-38 -12 -106.5 -25t-165.5 -23.5t-216 -10.5q-102 0 -192.5 10.5t-160 44t-113.5 96t-50 169.5zM422 315q0 -66 43 -93t102 -27q70 0 120 7t79 17v250q-16 0 -44 -2t-57.5 -4t-57 -6t-42.5 -6q-59 -14 -101 -43.5 t-42 -92.5z" />
<glyph unicode="b" horiz-adv-x="1282" d="M117 82v1378h348v-411q25 12 59 22q29 10 70 17.5t90 7.5q158 0 261.5 -43t164.5 -116t86 -167t25 -199q0 -113 -28 -220t-91.5 -192t-163.5 -137.5t-246 -52.5h-28q-120 -1 -216 15q-106 18 -180 41q-86 25 -151 57zM467 246q27 -18 57 -31q27 -11 62 -19q17 -4 35 -3 q19 0 38 4q72 12 114 52t64.5 93t29.5 113.5t7 115.5q0 49 -8 101.5t-34.5 95.5t-73.5 71.5t-127 28.5q-31 0 -60.5 -7t-52.5 -17q-27 -10 -51 -23v-575z" />
<glyph unicode="c" horiz-adv-x="1153" d="M61 537q0 129 42 232t119 176t187.5 112t249.5 39q88 0 155 -8.5t117 -20.5t88 -25.5t73 -23.5v-260q-43 18 -84 37.5t-84 36t-89.5 27.5t-97.5 11q-82 0 -143.5 -27.5t-102 -74.5t-61 -108.5t-20.5 -131.5t20.5 -131t61 -106t102 -70.5t143.5 -25.5q51 0 97.5 11 t89.5 27.5t84 36t84 37.5v-260q-35 -10 -73 -23.5t-88 -25.5t-116.5 -20.5t-155.5 -8.5q-139 0 -249.5 39t-187.5 112t-119 178t-42 239z" />
<glyph unicode="d" horiz-adv-x="1288" d="M61 530q0 104 25 206t86 181.5t164.5 129t261.5 49.5q49 0 89 -7.5t69 -17.5q35 -10 61 -22v411h348v-1378q-66 -33 -151 -57q-74 -23 -182 -41q-96 -16 -215 -15h-27q-145 0 -245.5 46t-164 123t-91.5 178.5t-28 213.5zM408 530q0 -55 7 -109t29.5 -100.5t64.5 -79 t114 -44.5q20 -4 38 -4q17 0 35 4q34 8 62 18q31 12 57 31v575q-25 12 -51 23q-23 10 -51.5 16t-57.5 8q-82 0 -131 -33.5t-74.5 -85t-33.5 -110t-8 -109.5z" />
<glyph unicode="e" horiz-adv-x="1243" d="M61 537q0 137 45.5 241.5t124 175t183 106.5t221.5 36q113 0 206 -35t161.5 -96.5t111.5 -142.5t57 -173q9 -49 11 -100q1 -12 0 -24q0 -39 -6 -81h-766q2 -43 18 -87t50 -79.5t87 -59t131 -23.5q51 0 110.5 11t118 27.5t112 36t96.5 37.5l-50 -274q0 -4 -38.5 -14.5 t-99 -21.5t-136.5 -19.5t-150 -8.5q-139 0 -249.5 39t-187.5 112t-119 178t-42 239zM410 657h432q-2 45 -14.5 84t-37 68t-63.5 45t-92 16q-109 0 -159 -57t-66 -156z" />
<glyph unicode="f" horiz-adv-x="757" d="M25 838v225h168q6 106 39.5 182t101 124t173 70.5t257.5 22.5v-235q-111 0 -168 -32t-57 -132h211v-225h-209v-838h-348v838h-168z" />
<glyph unicode="g" horiz-adv-x="1265" d="M61 553q0 176 80 309q59 102 169 165t278 65q135 0 240.5 -16.5t177.5 -39.5q84 -25 145 -57v-995v-11q0 -105 -37 -171q-39 -70 -103.5 -109t-148.5 -52.5t-172 -13.5q-41 0 -108.5 4t-142 13.5t-145.5 24t-114 36.5l-4 260q35 -14 91.5 -33.5t121 -37t130 -29.5 t114.5 -12q43 0 76.5 4t57.5 18t36 43t12 78v184h-4q-47 -74 -122 -114.5t-161 -40.5q-121 0 -209 40.5t-145 111.5t-85 167t-28 209zM395 541q0 -51 10.5 -96.5t35 -80t64.5 -55t97 -20.5q29 0 63.5 11t69.5 28q37 16 80 39v407q-29 14 -63 25q-29 10 -67 18t-77 8 q-59 0 -100 -23.5t-65.5 -63.5t-36 -91t-11.5 -106z" />
<glyph unicode="h" horiz-adv-x="1296" d="M123 0v1462h348q0 -111 1 -206t1 -187q63 10 132 17.5t140 7.5q162 0 251 -43t130 -105.5t49.5 -134.5t8.5 -129v-682h-348v571v107.5t-15.5 93.5t-51.5 66.5t-107 25.5q-39 0 -73 -7t-61 -17q-31 -10 -55 -25v-815h-350z" />
<glyph unicode="i" horiz-adv-x="593" d="M123 0v1063h348v-1063h-348zM123 1196v266h348v-266h-348z" />
<glyph unicode="j" horiz-adv-x="608" d="M-92 -195q92 57 156.5 149.5t68.5 231.5v877h348v-903q-4 -106 -29.5 -192.5t-69.5 -156t-103.5 -124t-126.5 -97.5zM131 1196v266h348v-266h-348z" />
<glyph unicode="k" horiz-adv-x="1220" d="M123 0v1462h348v-794l317 395h404l-389 -442l438 -621h-420l-350 539v-539h-348z" />
<glyph unicode="l" horiz-adv-x="600" d="M123 0v1462h348v-1462h-348z" />
<glyph unicode="m" horiz-adv-x="1900" d="M123 981l43 17q43 18 118.5 39.5t180 39t227.5 17.5q90 0 156.5 -17.5t114.5 -40.5q76 20 173 39t214 19q162 0 251 -43t130 -105.5t49 -134.5t8 -129v-682h-348v573q0 63 1 117v11q1 47 -7 81q-8 39 -33 61.5t-74 22.5q-39 0 -73.5 -7t-63.5 -17q-33 -10 -60 -25v-817 h-348v573q0 61 1 115v11q0 48 -8 83q-9 39 -32.5 61.5t-72.5 22.5q-39 0 -74 -7t-64 -17q-33 -10 -59 -25v-817h-348z" />
<glyph unicode="n" horiz-adv-x="1296" d="M123 981l51 17q51 18 137 39.5t199 39t235 17.5q162 0 251 -43t130 -105.5t49.5 -134.5t8.5 -129v-682h-348v573v107.5t-15.5 93.5t-51.5 66.5t-107 25.5q-39 0 -73 -7t-61 -17q-31 -10 -55 -25v-817h-348z" />
<glyph unicode="o" horiz-adv-x="1243" d="M61 532q0 119 38 222.5t111 178.5t176 119t235 44q131 0 235.5 -43t177 -119t110.5 -179.5t38 -222.5q0 -121 -38 -223t-110.5 -178t-177 -119t-235.5 -43t-234.5 44t-176.5 119t-111 177t-38 223zM406 530q0 -66 9 -126t33.5 -107t65.5 -74.5t107 -27.5q63 0 105 27.5 t66.5 74.5t35 107.5t10.5 125.5q0 68 -10.5 129.5t-35 108.5t-66.5 74.5t-105 27.5t-105.5 -27.5t-67 -74.5t-33.5 -108.5t-9 -129.5z" />
<glyph unicode="p" horiz-adv-x="1288" d="M123 -356v1339q66 33 151 57q74 23 180.5 39.5t243.5 16.5q145 0 245.5 -46t164 -123t91.5 -178.5t28 -213.5q0 -104 -24.5 -206t-86 -181.5t-165 -129t-261.5 -49.5q-49 0 -90 6.5t-70 16.5q-35 10 -59 24v-372h-348zM473 244q31 -18 66 -29q29 -10 63 -16q15 -3 30 -3 q20 0 40 5q72 14 113.5 50t63 82t27 98.5t5.5 103.5q0 57 -9.5 116.5t-37 108.5t-77.5 80.5t-130 31.5q-33 0 -60.5 -8t-48.5 -18q-25 -12 -45 -27v-575z" />
<glyph unicode="q" horiz-adv-x="1288" d="M61 506q0 113 28 218t91.5 187t163.5 132.5t246 50.5q135 0 242.5 -16.5t181.5 -39.5q86 -25 151 -57v-1337h-348v372q-27 -14 -61 -24q-29 -10 -69 -16.5t-89 -6.5q-158 0 -261.5 45t-164.5 120t-86 171t-25 201zM408 506q0 -51 5 -99.5t26.5 -89.5t63.5 -71.5 t113 -44.5q19 -5 39 -5q15 0 30 3q36 6 65 16q35 10 65 29v573q-23 14 -47 27q-23 10 -50.5 18t-60.5 8q-80 0 -129 -35.5t-75.5 -90t-35.5 -119t-9 -119.5z" />
<glyph unicode="r" horiz-adv-x="888" d="M123 0v989q61 31 143 53q72 20 176.5 37t243.5 17q31 0 66.5 -3t66.5 -6.5t50.5 -7.5t17.5 -4v-241q-14 6 -40 12t-56.5 10t-64.5 7t-60 3q-45 0 -81 -9t-61.5 -19.5t-39 -19.5t-13.5 -11v-807h-348z" />
<glyph unicode="s" horiz-adv-x="1138" d="M41 43v41q0 18 1 42t1 50q0 57 2 133q33 -14 83 -33.5t110.5 -36t128 -29.5t135.5 -15q27 0 61.5 1t65 10t52 26.5t21.5 52.5q0 43 -46 67.5t-115.5 44t-151.5 43t-151.5 63.5t-115.5 105.5t-46 169.5q0 86 49 146.5t124 98.5t164 55.5t169 17.5q70 0 134 -9.5 t120.5 -21.5t103.5 -26.5t82 -22.5v-39t-1 -86t-2 -85l-1 -38q-31 18 -79 35.5t-104.5 32t-114.5 23.5t-108 9q-27 0 -59.5 -1t-60 -9t-46 -25.5t-18.5 -48.5q0 -43 47 -66.5t118 -43t152.5 -41t152.5 -60t117 -101t46 -163.5q0 -90 -39 -154.5t-107.5 -106.5t-166 -61.5 t-216.5 -19.5q-111 0 -200.5 12.5t-154 25.5t-99.5 25.5t-37 12.5z" />
<glyph unicode="t" horiz-adv-x="796" d="M18 838v225h175v321h348l-2 -321h219v-225h-219v-488q0 -49 14 -73.5t43 -34.5q25 -8 60 -8h11q42 2 97 2v-236q-43 -4 -101.5 -8t-119 -4t-114.5 6t-89 24q-66 33 -106.5 93.5t-40.5 181.5v545h-175z" />
<glyph unicode="u" horiz-adv-x="1296" d="M113 381v682h348v-574v-107t15.5 -93t51 -66.5t107.5 -25.5q39 0 72.5 7t60.5 17q31 10 55 25v817h348l3 -981l-52 -18q-51 -17 -137 -38.5t-198.5 -39t-235.5 -17.5q-162 0 -251 43t-130 105.5t-49 134.5t-8 129z" />
<glyph unicode="v" horiz-adv-x="1099" d="M-6 1063h362q53 -197 97 -352q18 -66 34.5 -129.5t30.5 -112.5t22 -79l7 -30h12q-2 0 5 30t19.5 79t29 112.5t34.5 129.5q41 156 96 352h363q-96 -299 -174 -533q-33 -100 -64.5 -195t-57.5 -170t-42 -120l-16 -45h-404z" />
<glyph unicode="w" horiz-adv-x="1871" d="M113 381v682h348v-574v-107t15.5 -93t51 -66.5t107.5 -25.5q39 0 63.5 7t38.5 17q16 10 25 25v592h348v-592q8 -14 25 -25q14 -10 38.5 -17t63.5 -7q72 0 107.5 25.5t51 66.5t15.5 93v107v574h348v-682q0 -57 -8 -129t-49 -134.5t-130 -105.5t-251 -43q-117 0 -208 18.5 t-169 41.5h-2q-78 -20 -174 -40t-217 -20q-162 0 -251 43t-130 105.5t-49 134.5t-8 129z" />
<glyph unicode="x" horiz-adv-x="1099" d="M-14 0l368 557l-338 506h385l150 -254l149 254h369l-332 -500l377 -563h-385l-184 307l-174 -307h-385z" />
<glyph unicode="y" horiz-adv-x="1099" d="M-14 1063h368l201 -692h4l201 692h356l-356 -954q-39 -104 -77 -181.5t-83 -135.5t-102.5 -106t-137.5 -96l-243 215q47 20 94 51t82 68t51 77q9 21 9 44q0 19 -7 39q-6 20 -22.5 64.5t-54.5 147.5t-105.5 285.5t-177.5 481.5z" />
<glyph unicode="z" horiz-adv-x="1099" d="M45 0v160q0 39 3 63.5t9 41t15.5 26.5t19.5 20l52 52t91.5 92.5t108.5 110t107.5 106.5t84 84t39.5 41h-487v266h930v-160q0 -78 -13.5 -104.5t-33.5 -46.5q-12 -12 -52 -52.5t-91.5 -92.5t-108.5 -109.5t-107.5 -106.5t-84 -84t-40.5 -41h570v-266h-1012z" />
<glyph unicode="{" horiz-adv-x="757" d="M29 506v123q18 0 49 4t60.5 16.5t51 37t21.5 67.5v446q0 82 21.5 138.5t59.5 91t88 49t107 14.5h242v-246h-84q-37 0 -59.5 -13t-32.5 -32.5t-13 -43t-3 -44.5v-336q0 -59 -26 -97t-61.5 -59.5t-75.5 -29.5t-73 -10v-7q33 -2 73 -9t75.5 -28.5t61.5 -62.5t26 -115v-337 q0 -20 3 -44t13 -43.5t32.5 -33t59.5 -13.5h84v-245h-242q-57 0 -107 16t-88 53t-59.5 94.5t-21.5 139.5v415q0 49 -21.5 77t-51 43.5t-60.5 19.5t-49 4z" />
<glyph unicode="|" horiz-adv-x="454" d="M80 -438v2048h295v-2048h-295z" />
<glyph unicode="}" horiz-adv-x="757" d="M29 -111h84q37 0 59.5 13.5t32.5 33t13 43t3 44.5v337q0 74 25.5 115t61.5 62.5t76 28.5t73 9v7q-33 2 -73 10t-76 29.5t-61.5 59.5t-25.5 97v336q0 20 -3 44t-13 43.5t-32.5 32.5t-59.5 13h-84v246h241q57 0 107.5 -14.5t88.5 -49t59.5 -91t21.5 -138.5v-467 q0 -43 21.5 -67.5t51 -37t60.5 -16.5t49 -4v-102q-18 0 -49 -4t-60.5 -19.5t-51 -43t-21.5 -77.5v-415q0 -82 -21.5 -139.5t-59.5 -94.5t-88 -53t-108 -16h-241v245z" />
<glyph unicode="~" horiz-adv-x="1228" d="M141 559q16 33 40 64.5t54.5 56.5t70.5 40t91 15q53 0 110.5 -19.5t117.5 -45.5q57 -25 112.5 -49.5t96.5 -24.5q31 0 56 13.5t46.5 34t40 47t37.5 52.5l73 -266q-23 -33 -48 -64.5t-55 -56t-67.5 -40t-85.5 -15.5q-57 0 -107 19.5t-101 48.5q-49 29 -106.5 50t-129.5 21 q-35 0 -60.5 -13t-47 -33.5t-37 -47.5t-27.5 -53z" />
<glyph unicode="&#xa1;" horiz-adv-x="606" d="M113 786v287q0 20 13 33.5t32 13.5h291q18 0 31.5 -13t13.5 -34v-287q0 -20 -13.5 -33.5t-31.5 -13.5h-291q-18 0 -31.5 13.5t-13.5 33.5zM115 -342q25 328 34 564.5t9 414.5h293q0 -178 9 -414.5t34 -564.5h-379z" />
<glyph unicode="&#xa2;" d="M100 537q0 229 127 373.5t351 176.5v166h167v-157q76 -2 134.5 -11.5t103.5 -20.5t80 -24.5t67 -21.5v-260q-43 18 -83.5 37.5t-83.5 36t-89.5 27.5t-97.5 11q-82 0 -143.5 -27.5t-102.5 -74.5t-61 -108.5t-20 -131.5t20 -131t61 -106t102.5 -70.5t143.5 -25.5 q51 0 97.5 11t89.5 27.5t83.5 36t83.5 37.5v-260q-33 -10 -67.5 -22.5t-79.5 -23.5t-103.5 -20.5t-134.5 -11.5v-184h-167v192q-223 31 -350.5 176.5t-127.5 383.5z" />
<glyph unicode="&#xa3;" d="M84 614v215h149q-25 35 -51 70t-46.5 73t-34 82t-13.5 99q0 94 53.5 159.5t134 106.5t177 60.5t184.5 19.5q63 0 146 -10t157 -25.5t125 -33t51 -31.5q0 -23 -1 -65t-1 -85t-1 -75l-1 -31q-33 18 -85 37.5t-113.5 35t-125 25.5t-116.5 10q-29 0 -64 -1t-65.5 -10 t-51 -27.5t-20.5 -51.5q0 -76 43 -157.5t86 -174.5h240v-215h-174q2 -10 2 -30q0 -86 -21.5 -142.5t-48.5 -93.5q-31 -43 -68 -69l5 -5q33 23 73.5 30t81.5 7q53 0 117.5 -19.5t124.5 -19.5q66 0 103.5 22.5t78.5 70.5l141 -252q-88 -90 -175 -118t-181 -28 q-51 0 -104.5 12.5t-108.5 28t-111.5 27.5t-111.5 12q-59 0 -114.5 -24.5t-102.5 -55.5l-140 209q2 6 39 31.5t80 72t78 112t35 151.5q0 37 -6 71h-248z" />
<glyph unicode="&#xa4;" d="M72 471l67 174h90v33q-2 10 -2 21.5v21.5q0 20 1 36.5t3 30.5h-159l67 175h117q53 213 195 340q162 143 411 143q174 -1 375 -103l-104 -274q-158 100 -289 100q-193 0 -271 -206h514l-67 -175h-479q-2 -20 -3 -37.5t-1 -33.5q0 -6 1 -24.5t3 -47.5h428l-74 -174h-322 q55 -219 279 -219q152 0 313 125v-316q-143 -78 -327 -77q-256 0 -414 155q-135 131 -172 332h-180z" />
<glyph unicode="&#xa5;" d="M47 1337v125h381v-151q0 -72 13.5 -131.5t44 -102.5t79.5 -67.5t119 -24.5t119 24.5t79.5 67.5t44 102.5t13.5 131.5v151h381v-125q0 -199 -56.5 -332t-177.5 -208h148v-215h-361v-99h361v-215h-361v-268h-380v268h-361v215h361v99h-361v215h146q-121 76 -176.5 209 t-55.5 331z" />
<glyph unicode="&#xa6;" horiz-adv-x="454" d="M80 -182v512h295v-512h-295zM80 842v512h295v-512h-295z" />
<glyph unicode="&#xa7;" d="M72 621q0 117 57 194.5t158 116.5q-41 47 -59.5 94t-18.5 111q0 90 41 156.5t106.5 111.5t144.5 66.5t156 21.5q94 0 176 -24.5t143.5 -75t98.5 -125t39 -174.5h-301q0 68 -43 106q-41 37 -108 37q-47 0 -86 -26.5t-39 -80.5q0 -29 15 -50t37.5 -37.5t48.5 -30t48 -23.5 l340 -166q84 -49 139.5 -110.5t55.5 -167.5q0 -104 -54.5 -191.5t-156.5 -115.5q102 -86 102 -226q0 -98 -39 -170.5t-104.5 -121t-149.5 -71t-172 -22.5q-100 0 -188 23.5t-152.5 74t-102.5 129t-38 191.5h301q0 -39 14.5 -68.5t36.5 -52.5q47 -41 123 -41q61 0 102 34 t41 93q0 51 -53 90t-132 75t-171 74t-171 88t-132 118.5t-53 165.5zM367 674q-4 -41 21.5 -64.5t62.5 -46.5l383 -184q23 6 48 23.5t33 39.5q20 41 -2 84t-94 82l-309 144q-31 16 -57.5 16t-45 -12.5t-28.5 -34t-12 -47.5z" />
<glyph unicode="&#xa8;" horiz-adv-x="606" d="M-68 1206v256h308v-256h-308zM369 1206v256h307v-256h-307z" />
<glyph unicode="&#xa9;" horiz-adv-x="1638" d="M29 731q0 180 65.5 322.5t176 240t253 148.5t295.5 51q154 0 296 -51t252 -148.5t176.5 -240t66.5 -322.5q0 -182 -66.5 -323.5t-176.5 -238.5t-252 -148.5t-296 -51.5t-296 51.5t-252.5 148.5t-176 238.5t-65.5 323.5zM252 731q0 -125 47 -229.5t126 -179t181 -116.5 t213 -42q109 0 211.5 42t181 116.5t126.5 179t48 229.5t-48 229.5t-126.5 179t-181 116.5t-211.5 42q-111 0 -213 -42t-181 -116.5t-126 -179t-47 -229.5zM422 741q0 205 112.5 321t307.5 116q63 0 109 -10.5t81 -24t61.5 -26.5t51.5 -21l-41 -201q-29 14 -57.5 32.5 t-59.5 35t-64.5 29t-70.5 12.5q-41 0 -76 -21.5t-59.5 -58.5t-38.5 -85.5t-14 -101.5q0 -55 14 -103t38.5 -84t59.5 -56.5t76 -20.5q37 0 70.5 11.5t64.5 28.5t59.5 35.5t57.5 33.5l41 -201q-25 -8 -51.5 -21.5t-61.5 -27t-81 -23.5t-109 -10q-195 0 -307.5 116.5 t-112.5 325.5z" />
<glyph unicode="&#xaa;" horiz-adv-x="772" d="M0 915q0 92 41 136.5t102 66.5q63 23 138 29t151 20q29 6 44.5 18.5t15.5 41.5t-37 42t-72 13q-96 0 -113 -70h-241q2 78 30.5 122t75.5 69q47 23 107.5 33t142.5 10q76 0 141.5 -8t114.5 -33t76.5 -71t27.5 -120v-284q0 -41 3.5 -86t23.5 -103h-264q-10 29 -14 60 q-31 -20 -58.5 -34.5t-56.5 -25.5q-53 -18 -113 -18q-123 0 -194.5 47t-71.5 145zM256 948q0 -31 28.5 -46t67.5 -15q137 0 137 139v39q-37 -14 -69.5 -20.5t-69.5 -14.5q-39 -8 -66.5 -25.5t-27.5 -56.5z" />
<glyph unicode="&#xab;" horiz-adv-x="909" d="M92 397v312l326 262v-281l-176 -137l176 -135v-281zM492 397v312l325 262v-281l-176 -137l176 -135v-281z" />
<glyph unicode="&#xac;" horiz-adv-x="1228" d="M98 625v295h1032v-674h-294v379h-738z" />
<glyph unicode="&#xad;" horiz-adv-x="833" d="M98 410v295h637v-295h-637z" />
<glyph unicode="&#xae;" horiz-adv-x="1638" d="M29 731q0 180 65.5 322.5t176 240t253 148.5t295.5 51q154 0 296 -51t252 -148.5t176.5 -240t66.5 -322.5q0 -182 -66.5 -323.5t-176.5 -238.5t-252 -148.5t-296 -51.5t-296 51.5t-252.5 148.5t-176 238.5t-65.5 323.5zM252 731q0 -125 47 -229.5t126 -179t181 -116.5 t213 -42q109 0 211.5 42t181 116.5t126.5 179t48 229.5t-48 229.5t-126.5 179t-181 116.5t-211.5 42q-111 0 -213 -42t-181 -116.5t-126 -179t-47 -229.5zM354 848h4h7h-7h-4zM506 319v809q39 12 90 21q43 8 102.5 15t132.5 7q158 0 248 -75.5t90 -204.5q0 -109 -63 -164 t-174 -51q33 -59 70.5 -121.5t72.5 -116.5q39 -61 78 -121h-205q-33 55 -67 115q-29 51 -62 111.5t-57 120.5h-51v-345h-205zM711 811q51 0 98 -1t84 6t58.5 28.5t21.5 68.5q0 53 -41 80t-113 27q-23 0 -43 -2t-35 -6q-18 -4 -30 -8v-193z" />
<glyph unicode="&#xaf;" horiz-adv-x="606" d="M-29 1237v176h666v-176h-666z" />
<glyph unicode="&#xb0;" horiz-adv-x="819" d="M82 1118q0 68 25.5 127.5t70.5 104.5t104.5 70.5t127.5 25.5t127 -25.5t104 -70.5t70.5 -104.5t25.5 -127.5t-25.5 -127t-70.5 -104t-104.5 -70.5t-126.5 -25.5q-68 0 -127.5 25.5t-104.5 70.5t-70.5 104t-25.5 127zM246 1118q0 -76 44 -129t120 -53t119.5 53t43.5 129 t-44 129t-119 53q-76 0 -120 -53t-44 -129z" />
<glyph unicode="&#xb1;" horiz-adv-x="1228" d="M98 -25v295h1032v-295h-1032zM98 559v295h369v207h295v-207h368v-295h-368v-207h-295v207h-369z" />
<glyph unicode="&#xb2;" horiz-adv-x="774" d="M10 1079q0 170 99 267q47 47 119.5 73.5t174.5 26.5q78 0 146.5 -17.5t119 -52.5t79 -88t28.5 -125q0 -55 -19.5 -97t-54 -76t-81 -60.5t-97.5 -52.5q-66 -33 -103.5 -55.5t-58.5 -57.5h398v-195h-748q0 92 38 169t108 130q59 47 123.5 83t117.5 67q53 33 87 64.5 t34 62.5q0 49 -31.5 77.5t-82.5 28.5q-78 0 -108 -51t-32 -121h-256z" />
<glyph unicode="&#xb3;" horiz-adv-x="774" d="M10 842v47h256q0 -70 39 -107t111 -37q25 0 48 5.5t43.5 16.5t33 26.5t12.5 35.5q0 61 -46 83t-106 22q-14 0 -28.5 -1t-30.5 -1v168q16 0 30.5 -1t28.5 -1q18 0 42 3t44.5 12t35 23.5t14.5 37.5q0 35 -37 56t-80 21q-57 0 -93 -30.5t-34 -83.5h-256q4 156 107.5 232.5 t273.5 76.5q72 0 139.5 -13.5t119.5 -43t84 -77.5t32 -120q0 -59 -35 -106.5t-107 -57.5v-4q80 -10 119 -60.5t39 -134.5q0 -74 -33 -127t-87 -86.5t-124.5 -49t-146.5 -15.5q-172 0 -285 68.5t-123 222.5z" />
<glyph unicode="&#xb4;" horiz-adv-x="606" d="M92 1178l199 305h368l-321 -305h-246z" />
<glyph unicode="&#xb5;" horiz-adv-x="1308" d="M123 -356v1419h350v-574v-107t15.5 -93t51 -66.5t107.5 -25.5q39 0 73 7t60 17q31 10 56 25v817h348l2 -981l-52 -18q-51 -17 -137 -38.5t-198.5 -39t-235.5 -17.5q-25 0 -47 1t-45 3v-329h-348z" />
<glyph unicode="&#xb6;" horiz-adv-x="1269" d="M-35 1098q0 111 39 181.5t106.5 111.5t159.5 56t199 15h643v-1808h-246v1624h-198v-1624h-246v1094q-223 0 -340 92t-117 258z" />
<glyph unicode="&#xb7;" horiz-adv-x="645" d="M133 586q0 39 15.5 73.5t41 60t60.5 41t74 15.5t73.5 -15.5t60 -41t41 -60t15.5 -73.5t-15.5 -74t-41 -60.5t-60.5 -41t-73 -15.5q-39 0 -74 15.5t-60.5 41t-41 60.5t-15.5 74z" />
<glyph unicode="&#xb8;" horiz-adv-x="606" d="M59 -416l39 92q41 -14 83 -24t85 -14t74 14t31 57q0 78 -88 78q-23 0 -42.5 -4t-39.5 -10l-45 39l116 188h113l-82 -123l4 -4q20 6 39 8t43 2q29 0 59.5 -8t56 -27.5t42 -51.5t16.5 -77q0 -55 -20.5 -93t-56 -61.5t-84 -33.5t-101.5 -10q-68 0 -132.5 21.5t-109.5 41.5z " />
<glyph unicode="&#xb9;" horiz-adv-x="774" d="M111 1071v184q49 0 97 8.5t86 28t62.5 53t28.5 82.5h205v-858h-256v502h-223z" />
<glyph unicode="&#xba;" horiz-adv-x="792" d="M-4 1083q0 164 105.5 263.5t293.5 99.5q190 0 296 -99.5t106 -263.5q0 -162 -106 -261t-296 -99q-188 0 -293.5 99.5t-105.5 260.5zM252 1083q0 -27 7 -55.5t23.5 -53t44 -40.5t68.5 -16q43 0 71 16t44 40.5t23.5 53.5t7.5 55q0 27 -7.5 56.5t-23.5 54.5t-44 41t-71 16 q-41 0 -68.5 -16t-44 -41t-23.5 -54.5t-7 -56.5z" />
<glyph unicode="&#xbb;" horiz-adv-x="909" d="M92 137v281l176 137l-176 135v281l326 -260v-312zM492 137v281l176 137l-176 135v281l325 -260v-312z" />
<glyph unicode="&#xbc;" horiz-adv-x="1935" d="M53 1071v184q49 0 97.5 8.5t86 28t62.5 53t29 82.5h204v-858h-256v502h-223zM408 -55l841 1538h203l-842 -1538h-202zM1085 182v203l416 473h250v-491h131v-185h-131v-182h-258v182h-408zM1278 367h217v251z" />
<glyph unicode="&#xbd;" horiz-adv-x="1935" d="M31 1071v184q49 0 97 8.5t86 28t62.5 53t28.5 82.5h205v-858h-256v502h-223zM356 -55l842 1538h203l-842 -1538h-203zM1139 510q0 170 98 266q47 47 120 74t175 27q78 0 146.5 -17.5t118.5 -52.5t79 -88t29 -125q0 -55 -19.5 -97t-54.5 -76t-81 -60.5t-97 -53.5 q-66 -33 -104 -55.5t-58 -56.5h397v-195h-747q0 92 38 169t107 130q59 47 124 83t118 67q53 33 87 64.5t34 61.5q0 49 -32 78t-83 29q-78 0 -107.5 -51t-31.5 -121h-256z" />
<glyph unicode="&#xbe;" horiz-adv-x="1935" d="M31 842v47h256q0 -70 39 -107t110 -37q25 0 48.5 5.5t44 16.5t32.5 26.5t12 35.5q0 29 -12 48.5t-33.5 31t-49 16.5t-56.5 5q-14 0 -28.5 -1t-31.5 -1v168q16 0 31 -1t29 -1q18 0 41.5 3t44 12t35 24.5t14.5 40.5q0 35 -37 56t-80 21q-57 0 -93 -30.5t-34 -83.5h-256 q4 156 107.5 232.5t273.5 76.5q72 0 139.5 -13.5t120 -43t84 -77.5t31.5 -120q0 -59 -35 -106.5t-106 -57.5v-4q80 -10 118.5 -60.5t38.5 -134.5q0 -74 -32.5 -127t-87 -86.5t-125 -49t-146.5 -15.5q-172 0 -284.5 68.5t-122.5 222.5zM518 -55l842 1538h203l-842 -1538h-203 zM1108 182v203l416 473h250v-491h131v-185h-131v-182h-258v182h-408zM1300 367h218v251z" />
<glyph unicode="&#xbf;" horiz-adv-x="1175" d="M27 -33q0 -94 53 -159.5t134 -107.5t177 -60.5t184 -18.5q63 0 146.5 10.5t157 25.5t125 32.5t51.5 31.5q0 20 -1 63.5t-1 86.5t-1 75l-1 31q-33 -18 -85.5 -37.5t-113.5 -35t-124.5 -25.5t-117.5 -10q-29 0 -63.5 1t-65 10t-51 26.5t-20.5 52.5q0 41 28.5 77t72.5 71.5 t94 75.5t94 90.5t73 115t29 148.5q0 45 -15 100h-327q12 -25 12 -59q0 -72 -32.5 -127.5t-82 -101.5t-108 -87t-107.5 -85t-81.5 -94t-32.5 -116zM422 786v287q0 20 13.5 33.5t31.5 13.5h291q18 0 31.5 -13t13.5 -34v-287q0 -20 -13.5 -33.5t-31.5 -13.5h-291 q-18 0 -31.5 13.5t-13.5 33.5z" />
<glyph unicode="&#xc0;" horiz-adv-x="1441" d="M-18 0l546 1462h387l547 -1462h-397l-90 272h-510l-92 -272h-391zM346 1858h369l199 -305h-246zM553 545h332l-162 512h-4z" />
<glyph unicode="&#xc1;" horiz-adv-x="1441" d="M-18 0l546 1462h387l547 -1462h-397l-90 272h-510l-92 -272h-391zM510 1553l199 305h368l-321 -305h-246zM553 545h332l-162 512h-4z" />
<glyph unicode="&#xc2;" horiz-adv-x="1441" d="M-18 0l546 1462h387l547 -1462h-397l-90 272h-510l-92 -272h-391zM336 1553l229 305h312l229 -305h-262l-123 163l-123 -163h-262zM553 545h332l-162 512h-4z" />
<glyph unicode="&#xc3;" horiz-adv-x="1441" d="M-18 0l546 1462h387l547 -1462h-397l-90 272h-510l-92 -272h-391zM334 1559q6 49 25.5 99t50.5 90t74 64.5t98 24.5q41 0 82 -12t82 -29q39 -16 73.5 -29.5t59.5 -13.5q35 0 58.5 27t27.5 57h145q-6 -53 -23.5 -100t-47 -82t-72.5 -56.5t-100 -21.5q-47 0 -88.5 11.5 t-77.5 25.5q-37 14 -70 25.5t-61 11.5q-35 0 -59.5 -28.5t-31.5 -63.5h-145zM553 545h332l-162 512h-4z" />
<glyph unicode="&#xc4;" horiz-adv-x="1441" d="M-18 0l546 1462h387l547 -1462h-397l-90 272h-510l-92 -272h-391zM350 1581v256h308v-256h-308zM553 545h332l-162 512h-4zM787 1581v256h307v-256h-307z" />
<glyph unicode="&#xc5;" horiz-adv-x="1441" d="M-18 0l546 1462h387l547 -1462h-397l-90 272h-510l-92 -272h-391zM502 1728q0 45 17.5 85t47 69.5t69.5 47t85 17.5t85 -17.5t69.5 -46t47 -69.5t17.5 -86t-17.5 -85t-47 -69.5t-69.5 -47t-85 -17.5t-85 17.5t-69.5 48t-47 70.5t-17.5 83zM553 545h332l-162 512h-4z M615 1728q0 -43 30.5 -74.5t75.5 -31.5t76 31.5t31 74.5q0 47 -31 77t-76 30t-75.5 -30t-30.5 -77z" />
<glyph unicode="&#xc6;" horiz-adv-x="2086" d="M-29 0l684 1462h1327v-305h-671v-256h626v-295h-626v-278h690v-328h-1059v262h-446l-119 -262h-406zM610 545h332v612h-65z" />
<glyph unicode="&#xc7;" horiz-adv-x="1554" d="M61 741q0 170 52.5 309.5t148.5 239t234.5 153.5t310.5 54q113 0 194.5 -11t145 -26.5t112 -33t91.5 -31.5v-324q-53 23 -113.5 49.5t-126.5 48t-133.5 36t-132.5 14.5q-102 0 -177 -42t-125 -112t-75 -157t-25 -179t25 -179t75 -154.5t124.5 -107.5t177.5 -40 q66 0 133 14t133 37t126 49.5t114 50.5v-325q-43 -12 -91.5 -30.5t-112 -34t-145 -27t-194.5 -11.5q-172 0 -310.5 53.5t-234.5 154t-148.5 242.5t-52.5 320zM532 -416q45 -20 110 -41.5t132 -21.5q53 0 101.5 10t84 33.5t56 61.5t20.5 93q0 45 -16 77t-42 51.5t-56.5 27.5 t-59.5 8q-25 0 -43 -2t-39 -8l-4 4l64 94l-111 2l-100 -161l45 -39q20 6 39.5 10t42.5 4q88 0 88 -78q0 -39 -31 -57.5t-74 -13.5q-43 4 -85 14t-83 24z" />
<glyph unicode="&#xc8;" horiz-adv-x="1402" d="M131 0v1462h1165v-270h-784v-305h717v-271h-717v-342h805v-274h-1186zM327 1858h369l199 -305h-246z" />
<glyph unicode="&#xc9;" horiz-adv-x="1402" d="M131 0v1462h1165v-270h-784v-305h717v-271h-717v-342h805v-274h-1186zM491 1553l199 305h368l-321 -305h-246z" />
<glyph unicode="&#xca;" horiz-adv-x="1402" d="M131 0v1462h1165v-270h-784v-305h717v-271h-717v-342h805v-274h-1186zM317 1553l229 305h312l229 -305h-262l-123 163l-123 -163h-262z" />
<glyph unicode="&#xcb;" horiz-adv-x="1402" d="M131 0v1462h1165v-270h-784v-305h717v-271h-717v-342h805v-274h-1186zM331 1581v256h308v-256h-308zM768 1581v256h307v-256h-307z" />
<glyph unicode="&#xcc;" horiz-adv-x="645" d="M-52 1858h369l199 -305h-246zM131 0v1462h381v-1462h-381z" />
<glyph unicode="&#xcd;" horiz-adv-x="645" d="M112 1553l199 305h368l-321 -305h-246zM131 0v1462h381v-1462h-381z" />
<glyph unicode="&#xce;" horiz-adv-x="645" d="M-62 1553l229 305h312l229 -305h-262l-123 163l-123 -163h-262zM131 0v1462h381v-1462h-381z" />
<glyph unicode="&#xcf;" horiz-adv-x="645" d="M-48 1581v256h308v-256h-308zM131 0v1462h381v-1462h-381zM389 1581v256h307v-256h-307z" />
<glyph unicode="&#xd0;" horiz-adv-x="1554" d="M-18 606v295h149v510q0 -2 37 11.5t109.5 29.5t178 29.5t240.5 13.5q186 0 330.5 -55.5t245 -154.5t153 -238.5t52.5 -309.5q0 -182 -44 -323.5t-137.5 -239.5t-239 -149.5t-347.5 -53.5q-98 0 -200.5 8.5t-186.5 18.5t-138 20l-53 11v577h-149zM510 260l18 -4 q17 -4 44.5 -8t61.5 -6t66 -2q115 0 191 31.5t122 94t64.5 154.5t18.5 213q0 41 -5.5 93.5t-20.5 107.5t-43 108.5t-71 95.5t-105.5 67.5t-148.5 25.5q-37 0 -70.5 -3t-60.5 -7q-31 -6 -59 -11l-2 -309h324v-295h-324v-346z" />
<glyph unicode="&#xd1;" horiz-adv-x="1517" d="M127 0v1462h391l508 -901h4v901h358v-1462h-391l-508 911h-4v-911h-358zM373 1559q6 49 25.5 99t50.5 90t74 64.5t98 24.5q41 0 82 -12t82 -29q39 -16 73.5 -29.5t59.5 -13.5q35 0 58.5 27t27.5 57h145q-6 -53 -23.5 -100t-47 -82t-72.5 -56.5t-100 -21.5 q-47 0 -88.5 11.5t-77.5 25.5q-37 14 -70 25.5t-61 11.5q-35 0 -59.5 -28.5t-31.5 -63.5h-145z" />
<glyph unicode="&#xd2;" horiz-adv-x="1593" d="M75 731q0 160 48.5 298t140.5 241.5t226 163t306 59.5t306.5 -59.5t226.5 -163t140 -241.5t48 -298t-48 -298t-140 -241.5t-226.5 -163t-306.5 -59.5t-306 59.5t-226 163t-140.5 241.5t-48.5 298zM422 1858h369l199 -305h-246zM456 731q0 -82 18.5 -167t59.5 -154.5 t105.5 -114.5t156.5 -45t157 45t105.5 114.5t59 154.5t18.5 167t-18.5 167t-59 154.5t-105.5 114.5t-157 45t-156.5 -45t-105.5 -114.5t-59.5 -154.5t-18.5 -167z" />
<glyph unicode="&#xd3;" horiz-adv-x="1593" d="M75 731q0 160 48.5 298t140.5 241.5t226 163t306 59.5t306.5 -59.5t226.5 -163t140 -241.5t48 -298t-48 -298t-140 -241.5t-226.5 -163t-306.5 -59.5t-306 59.5t-226 163t-140.5 241.5t-48.5 298zM456 731q0 -82 18.5 -167t59.5 -154.5t105.5 -114.5t156.5 -45t157 45 t105.5 114.5t59 154.5t18.5 167t-18.5 167t-59 154.5t-105.5 114.5t-157 45t-156.5 -45t-105.5 -114.5t-59.5 -154.5t-18.5 -167zM586 1553l199 305h368l-321 -305h-246z" />
<glyph unicode="&#xd4;" horiz-adv-x="1593" d="M75 731q0 160 48.5 298t140.5 241.5t226 163t306 59.5t306.5 -59.5t226.5 -163t140 -241.5t48 -298t-48 -298t-140 -241.5t-226.5 -163t-306.5 -59.5t-306 59.5t-226 163t-140.5 241.5t-48.5 298zM412 1553l229 305h312l229 -305h-262l-123 163l-123 -163h-262zM456 731 q0 -82 18.5 -167t59.5 -154.5t105.5 -114.5t156.5 -45t157 45t105.5 114.5t59 154.5t18.5 167t-18.5 167t-59 154.5t-105.5 114.5t-157 45t-156.5 -45t-105.5 -114.5t-59.5 -154.5t-18.5 -167z" />
<glyph unicode="&#xd5;" horiz-adv-x="1593" d="M75 731q0 160 48.5 298t140.5 241.5t226 163t306 59.5t306.5 -59.5t226.5 -163t140 -241.5t48 -298t-48 -298t-140 -241.5t-226.5 -163t-306.5 -59.5t-306 59.5t-226 163t-140.5 241.5t-48.5 298zM410 1559q6 49 25.5 99t50.5 90t74 64.5t98 24.5q41 0 82 -12t82 -29 q39 -16 73.5 -29.5t59.5 -13.5q35 0 58.5 27t27.5 57h145q-6 -53 -23.5 -100t-47 -82t-72.5 -56.5t-100 -21.5q-47 0 -88.5 11.5t-77.5 25.5q-37 14 -70 25.5t-61 11.5q-35 0 -59.5 -28.5t-31.5 -63.5h-145zM456 731q0 -82 18.5 -167t59.5 -154.5t105.5 -114.5t156.5 -45 t157 45t105.5 114.5t59 154.5t18.5 167t-18.5 167t-59 154.5t-105.5 114.5t-157 45t-156.5 -45t-105.5 -114.5t-59.5 -154.5t-18.5 -167z" />
<glyph unicode="&#xd6;" horiz-adv-x="1593" d="M75 731q0 160 48.5 298t140.5 241.5t226 163t306 59.5t306.5 -59.5t226.5 -163t140 -241.5t48 -298t-48 -298t-140 -241.5t-226.5 -163t-306.5 -59.5t-306 59.5t-226 163t-140.5 241.5t-48.5 298zM426 1581v256h308v-256h-308zM456 731q0 -82 18.5 -167t59.5 -154.5 t105.5 -114.5t156.5 -45t157 45t105.5 114.5t59 154.5t18.5 167t-18.5 167t-59 154.5t-105.5 114.5t-157 45t-156.5 -45t-105.5 -114.5t-59.5 -154.5t-18.5 -167zM863 1581v256h307v-256h-307z" />
<glyph unicode="&#xd7;" horiz-adv-x="1228" d="M111 223l295 295l-295 295l208 209l295 -295l295 295l209 -209l-295 -295l295 -295l-209 -209l-295 295l-295 -295z" />
<glyph unicode="&#xd8;" horiz-adv-x="1593" d="M45 20l188 207q-78 100 -117.5 228.5t-39.5 275.5q0 160 48 298t140 241.5t226.5 163t306.5 59.5q139 0 252.5 -39t201.5 -108l168 184l119 -103l-178 -194q78 -100 118 -228t40 -274q0 -160 -48.5 -298t-140.5 -241.5t-226 -163t-306 -59.5q-141 0 -254 39t-201 109 l-180 -199zM457 731q0 -55 8 -111.5t24 -109.5l539 590q-41 51 -98.5 81.5t-132.5 30.5q-92 0 -157 -45t-105.5 -114.5t-59 -154.5t-18.5 -167zM565 360q41 -51 97.5 -80.5t134.5 -29.5q92 0 156.5 45t105.5 114.5t59.5 154.5t18.5 167q0 53 -8.5 109.5t-24.5 109.5z" />
<glyph unicode="&#xd9;" horiz-adv-x="1517" d="M120 604v858h381v-884q0 -72 13.5 -131.5t44 -102.5t80 -67.5t118.5 -24.5q70 0 119 24.5t80 67.5t44 102.5t13 131.5v884h381v-858q0 -317 -152.5 -476t-484.5 -159t-484.5 159t-152.5 476zM385 1858h369l199 -305h-246z" />
<glyph unicode="&#xda;" horiz-adv-x="1517" d="M120 604v858h381v-884q0 -72 13.5 -131.5t44 -102.5t80 -67.5t118.5 -24.5q70 0 119 24.5t80 67.5t44 102.5t13 131.5v884h381v-858q0 -317 -152.5 -476t-484.5 -159t-484.5 159t-152.5 476zM549 1553l199 305h368l-321 -305h-246z" />
<glyph unicode="&#xdb;" horiz-adv-x="1517" d="M120 604v858h381v-884q0 -72 13.5 -131.5t44 -102.5t80 -67.5t118.5 -24.5q70 0 119 24.5t80 67.5t44 102.5t13 131.5v884h381v-858q0 -317 -152.5 -476t-484.5 -159t-484.5 159t-152.5 476zM375 1553l229 305h312l229 -305h-262l-123 163l-123 -163h-262z" />
<glyph unicode="&#xdc;" horiz-adv-x="1517" d="M120 604v858h381v-884q0 -72 13.5 -131.5t44 -102.5t80 -67.5t118.5 -24.5q70 0 119 24.5t80 67.5t44 102.5t13 131.5v884h381v-858q0 -317 -152.5 -476t-484.5 -159t-484.5 159t-152.5 476zM389 1581v256h308v-256h-308zM826 1581v256h307v-256h-307z" />
<glyph unicode="&#xdd;" horiz-adv-x="1366" d="M47 1153v309h381v-336q0 -72 13.5 -131t44 -102t79.5 -67.5t119 -24.5t119 24.5t79.5 67.5t44 102.5t13.5 130.5v336h381v-309q0 -270 -107.5 -424t-339.5 -197v-532h-381v532q-233 43 -339.5 197t-106.5 424zM473 1553l199 305h368l-321 -305h-246z" />
<glyph unicode="&#xde;" horiz-adv-x="1402" />
<glyph unicode="&#xdf;" d="M119 2v1047q6 106 36.5 189t95 140.5t169 87t256.5 29.5q80 0 158.5 -14.5t146.5 -50t119 -95t76 -149.5q27 -98 10 -185.5t-88 -164.5q-25 -29 -50.5 -56.5t-48.5 -38.5q53 -57 98.5 -104t77 -95t50 -101.5t18.5 -125.5q0 -74 -33.5 -134t-94 -103t-146.5 -66.5 t-191 -23.5q-53 0 -105 4t-106 8v236q47 -4 87 -8.5t75 -4.5q68 0 118 34t50 110q0 63 -38 129.5t-83 120t-83 88t-38 36.5t28 29t62.5 69t65.5 92t37 99q6 63 -11.5 109.5t-48 76t-66.5 43t-65 13.5q-35 0 -68.5 -14.5t-61 -41t-45 -66.5t-17.5 -89l2 -1059h-348z" />
<glyph unicode="&#xe0;" horiz-adv-x="1228" d="M74 291q-6 96 30.5 160.5t99 106.5t143.5 66.5t163 39.5q35 6 76 12t77.5 10t64.5 6t36 2v31q0 49 -10.5 77.5t-32 43t-53 18.5t-74.5 4q-49 0 -110.5 -12t-123 -29.5t-114.5 -37t-88 -33.5v260q45 14 112.5 27.5t138 24.5t135 18.5t105.5 7.5q88 0 172 -13.5 t149.5 -52.5t105.5 -108.5t40 -182.5v-696l-38 -11q-38 -12 -106.5 -25t-165.5 -23.5t-216 -10.5q-102 0 -192.5 10.5t-160 44t-113.5 96t-50 169.5zM247 1483h369l199 -305h-246zM422 315q0 -66 43 -93t102 -27q70 0 120 7t79 17v250q-16 0 -44 -2t-57.5 -4t-57 -6 t-42.5 -6q-59 -14 -101 -43.5t-42 -92.5z" />
<glyph unicode="&#xe1;" horiz-adv-x="1228" d="M74 291q-6 96 30.5 160.5t99 106.5t143.5 66.5t163 39.5q35 6 76 12t77.5 10t64.5 6t36 2v31q0 49 -10.5 77.5t-32 43t-53 18.5t-74.5 4q-49 0 -110.5 -12t-123 -29.5t-114.5 -37t-88 -33.5v260q45 14 112.5 27.5t138 24.5t135 18.5t105.5 7.5q88 0 172 -13.5 t149.5 -52.5t105.5 -108.5t40 -182.5v-696l-38 -11q-38 -12 -106.5 -25t-165.5 -23.5t-216 -10.5q-102 0 -192.5 10.5t-160 44t-113.5 96t-50 169.5zM411 1178l199 305h368l-321 -305h-246zM422 315q0 -66 43 -93t102 -27q70 0 120 7t79 17v250q-16 0 -44 -2t-57.5 -4 t-57 -6t-42.5 -6q-59 -14 -101 -43.5t-42 -92.5z" />
<glyph unicode="&#xe2;" horiz-adv-x="1228" d="M74 291q-6 96 30.5 160.5t99 106.5t143.5 66.5t163 39.5q35 6 76 12t77.5 10t64.5 6t36 2v31q0 49 -10.5 77.5t-32 43t-53 18.5t-74.5 4q-49 0 -110.5 -12t-123 -29.5t-114.5 -37t-88 -33.5v260q45 14 112.5 27.5t138 24.5t135 18.5t105.5 7.5q88 0 172 -13.5 t149.5 -52.5t105.5 -108.5t40 -182.5v-696l-38 -11q-38 -12 -106.5 -25t-165.5 -23.5t-216 -10.5q-102 0 -192.5 10.5t-160 44t-113.5 96t-50 169.5zM237 1178l229 305h312l229 -305h-262l-123 163l-123 -163h-262zM422 315q0 -66 43 -93t102 -27q70 0 120 7t79 17v250 q-16 0 -44 -2t-57.5 -4t-57 -6t-42.5 -6q-59 -14 -101 -43.5t-42 -92.5z" />
<glyph unicode="&#xe3;" horiz-adv-x="1228" d="M74 291q-6 96 30.5 160.5t99 106.5t143.5 66.5t163 39.5q35 6 76 12t77.5 10t64.5 6t36 2v31q0 49 -10.5 77.5t-32 43t-53 18.5t-74.5 4q-49 0 -110.5 -12t-123 -29.5t-114.5 -37t-88 -33.5v260q45 14 112.5 27.5t138 24.5t135 18.5t105.5 7.5q88 0 172 -13.5 t149.5 -52.5t105.5 -108.5t40 -182.5v-696l-38 -11q-38 -12 -106.5 -25t-165.5 -23.5t-216 -10.5q-102 0 -192.5 10.5t-160 44t-113.5 96t-50 169.5zM235 1184q6 49 25.5 99t50.5 90t74 64.5t98 24.5q41 0 82 -12t82 -29q39 -16 73.5 -29.5t59.5 -13.5q35 0 58.5 27t27.5 57 h145q-6 -53 -23.5 -100t-47 -82t-72.5 -56.5t-100 -21.5q-47 0 -88.5 11.5t-77.5 25.5q-37 14 -70 25.5t-61 11.5q-35 0 -59.5 -28.5t-31.5 -63.5h-145zM422 315q0 -66 43 -93t102 -27q70 0 120 7t79 17v250q-16 0 -44 -2t-57.5 -4t-57 -6t-42.5 -6q-59 -14 -101 -43.5 t-42 -92.5z" />
<glyph unicode="&#xe4;" horiz-adv-x="1228" d="M74 291q-6 96 30.5 160.5t99 106.5t143.5 66.5t163 39.5q35 6 76 12t77.5 10t64.5 6t36 2v31q0 49 -10.5 77.5t-32 43t-53 18.5t-74.5 4q-49 0 -110.5 -12t-123 -29.5t-114.5 -37t-88 -33.5v260q45 14 112.5 27.5t138 24.5t135 18.5t105.5 7.5q88 0 172 -13.5 t149.5 -52.5t105.5 -108.5t40 -182.5v-696l-38 -11q-38 -12 -106.5 -25t-165.5 -23.5t-216 -10.5q-102 0 -192.5 10.5t-160 44t-113.5 96t-50 169.5zM251 1206v256h308v-256h-308zM422 315q0 -66 43 -93t102 -27q70 0 120 7t79 17v250q-16 0 -44 -2t-57.5 -4t-57 -6 t-42.5 -6q-59 -14 -101 -43.5t-42 -92.5zM688 1206v256h307v-256h-307z" />
<glyph unicode="&#xe5;" horiz-adv-x="1228" d="M74 291q-6 96 30.5 160.5t99 106.5t143.5 66.5t163 39.5q35 6 76 12t77.5 10t64.5 6t36 2v31q0 49 -10.5 77.5t-32 43t-53 18.5t-74.5 4q-49 0 -110.5 -12t-123 -29.5t-114.5 -37t-88 -33.5v260q45 14 112.5 27.5t138 24.5t135 18.5t105.5 7.5q88 0 172 -13.5 t149.5 -52.5t105.5 -108.5t40 -182.5v-696l-38 -11q-38 -12 -106.5 -25t-165.5 -23.5t-216 -10.5q-102 0 -192.5 10.5t-160 44t-113.5 96t-50 169.5zM403 1366q0 45 17.5 85t47 69.5t69.5 47t85 17.5t85 -17.5t69.5 -46t47 -69.5t17.5 -86t-17.5 -85t-47 -69.5t-69.5 -47 t-85 -17.5t-85 17.5t-69.5 48t-47 70.5t-17.5 83zM422 315q0 -66 43 -93t102 -27q70 0 120 7t79 17v250q-16 0 -44 -2t-57.5 -4t-57 -6t-42.5 -6q-59 -14 -101 -43.5t-42 -92.5zM516 1366q0 -43 30.5 -74.5t75.5 -31.5t76 31.5t31 74.5q0 47 -31 77t-76 30t-75.5 -30 t-30.5 -77z" />
<glyph unicode="&#xe6;" horiz-adv-x="1933" d="M57 291q-6 96 31 160.5t99.5 106.5t143.5 66.5t163 39.5q35 6 75.5 11t77.5 8t64.5 4t36.5 1v37q0 49 -10.5 77.5t-32 43t-53 18.5t-74.5 4q-49 0 -110.5 -12t-123 -29.5t-115 -37t-88.5 -33.5v260q45 14 113 27.5t138.5 24.5t135 18.5t105.5 7.5q109 0 212 -22.5 t169 -90.5q68 57 146.5 86t154.5 29q113 0 206 -35t161.5 -96.5t111.5 -142.5t57 -173q8 -49 10.5 -100t-6.5 -105h-765q2 -43 18 -87t50 -79.5t87 -59t131 -23.5q51 0 110.5 11t118 27.5t111.5 36t96 37.5l-49 -274q0 -4 -38.5 -14.5t-99 -21.5t-136.5 -19.5t-150 -8.5 q-127 0 -219 32t-155 93q-70 -47 -169.5 -86t-222.5 -37q-102 0 -192 10.5t-159.5 44t-114 96t-50.5 169.5zM406 315q0 -66 43 -93t102 -27q70 0 120 7t79 17v244q-16 0 -44 -1t-58 -2t-57.5 -4t-41.5 -5q-59 -14 -101 -43.5t-42 -92.5zM1090 657h432q-2 45 -14.5 84t-37 68 t-63.5 45t-92 16q-109 0 -159 -57t-66 -156z" />
<glyph unicode="&#xe7;" horiz-adv-x="1114" d="M61 547q0 113 36 216t107.5 182t180.5 127t254 48q123 0 206 -14t150 -33l-20 -299q0 -2 -19.5 7.5t-58.5 20.5t-96.5 21.5t-132.5 10.5q-63 0 -111.5 -23t-82.5 -62.5t-51 -93t-17 -112.5t17 -112.5t51 -93.5t82 -62.5t112 -22.5q76 0 133 11t96 25.5t59 25.5l19 12 l20 -308q-66 -18 -143.5 -31.5t-187.5 -17.5l-62 -92q23 4 42.5 5t43.5 1q29 0 59.5 -8t56 -27.5t42 -51.5t16.5 -77q0 -55 -20.5 -93t-56 -61.5t-84 -33.5t-101.5 -10q-47 0 -92 13t-84 24q-2 33 -2 55v55q37 -14 68.5 -20t74.5 -10t74 14t31 57q0 43 -19.5 62.5 t-50.5 25.5t-72 3t-84 -5l109 178q-125 12 -217 64.5t-153.5 130.5t-91.5 175t-30 204z" />
<glyph unicode="&#xe8;" horiz-adv-x="1243" d="M61 537q0 137 45.5 241.5t124 175t183 106.5t221.5 36q113 0 206 -35t161.5 -96.5t111.5 -142.5t57 -173q8 -49 10.5 -100t-5.5 -105h-766q2 -43 18 -87t50 -79.5t87 -59t131 -23.5q51 0 110.5 11t118 27.5t112 36t96.5 37.5l-50 -274q0 -4 -38.5 -14.5t-99 -21.5 t-136.5 -19.5t-150 -8.5q-139 0 -249.5 39t-187.5 112t-119 178t-42 239zM247 1483h369l199 -305h-246zM410 657h432q-2 45 -14.5 84t-37 68t-63.5 45t-92 16q-109 0 -159 -57t-66 -156z" />
<glyph unicode="&#xe9;" horiz-adv-x="1243" d="M61 537q0 137 45.5 241.5t124 175t183 106.5t221.5 36q113 0 206 -35t161.5 -96.5t111.5 -142.5t57 -173q8 -49 10.5 -100t-5.5 -105h-766q2 -43 18 -87t50 -79.5t87 -59t131 -23.5q51 0 110.5 11t118 27.5t112 36t96.5 37.5l-50 -274q0 -4 -38.5 -14.5t-99 -21.5 t-136.5 -19.5t-150 -8.5q-139 0 -249.5 39t-187.5 112t-119 178t-42 239zM410 657h432q-2 45 -14.5 84t-37 68t-63.5 45t-92 16q-109 0 -159 -57t-66 -156zM411 1178l199 305h368l-321 -305h-246z" />
<glyph unicode="&#xea;" horiz-adv-x="1243" d="M61 537q0 137 45.5 241.5t124 175t183 106.5t221.5 36q113 0 206 -35t161.5 -96.5t111.5 -142.5t57 -173q8 -49 10.5 -100t-5.5 -105h-766q2 -43 18 -87t50 -79.5t87 -59t131 -23.5q51 0 110.5 11t118 27.5t112 36t96.5 37.5l-50 -274q0 -4 -38.5 -14.5t-99 -21.5 t-136.5 -19.5t-150 -8.5q-139 0 -249.5 39t-187.5 112t-119 178t-42 239zM237 1178l229 305h312l229 -305h-262l-123 163l-123 -163h-262zM410 657h432q-2 45 -14.5 84t-37 68t-63.5 45t-92 16q-109 0 -159 -57t-66 -156z" />
<glyph unicode="&#xeb;" horiz-adv-x="1243" d="M61 537q0 137 45.5 241.5t124 175t183 106.5t221.5 36q113 0 206 -35t161.5 -96.5t111.5 -142.5t57 -173q8 -49 10.5 -100t-5.5 -105h-766q2 -43 18 -87t50 -79.5t87 -59t131 -23.5q51 0 110.5 11t118 27.5t112 36t96.5 37.5l-50 -274q0 -4 -38.5 -14.5t-99 -21.5 t-136.5 -19.5t-150 -8.5q-139 0 -249.5 39t-187.5 112t-119 178t-42 239zM251 1206v256h308v-256h-308zM410 657h432q-2 45 -14.5 84t-37 68t-63.5 45t-92 16q-109 0 -159 -57t-66 -156zM688 1206v256h307v-256h-307z" />
<glyph unicode="&#xec;" horiz-adv-x="593" d="M-72 1483h369l199 -305h-246zM129 0v1063h348v-1063h-348z" />
<glyph unicode="&#xed;" horiz-adv-x="593" d="M102 1178l199 305h368l-321 -305h-246zM139 0v1063h348v-1063h-348z" />
<glyph unicode="&#xee;" horiz-adv-x="593" d="M-82 1178l229 305h312l229 -305h-262l-123 163l-123 -163h-262zM129 0v1063h348v-1063h-348z" />
<glyph unicode="&#xef;" horiz-adv-x="593" d="M-68 1206v256h308v-256h-308zM129 0v1063h348v-1063h-348zM369 1206v256h307v-256h-307z" />
<glyph unicode="&#xf0;" horiz-adv-x="1251" d="M66 496q0 113 39.5 209t108.5 166.5t159 110.5t190 40q51 0 103.5 -7t95.5 -36l4 4q-31 63 -78 120.5t-100 108.5l-262 -143l-138 123l248 135q-59 39 -112.5 65.5t-96.5 41.5l232 159q72 -25 136 -60.5t95 -64.5l254 140l139 -125l-243 -133q74 -61 137 -147.5 t109.5 -187t73 -212t26.5 -225.5q0 -143 -41 -256t-116 -192t-178 -120t-226 -41t-226.5 40t-177.5 110.5t-114.5 167t-40.5 209.5zM414 496q0 -41 10 -87.5t34.5 -85t64.5 -63t102 -24.5q61 0 102 24.5t65.5 63t35 85t10.5 87.5t-10.5 87t-35 84t-65.5 63.5t-102 25.5 t-101.5 -25.5t-65 -63.5t-34.5 -84t-10 -87z" />
<glyph unicode="&#xf1;" horiz-adv-x="1296" d="M123 981l51 17q51 18 137 39.5t199 39t235 17.5q162 0 251 -43t130 -105.5t49.5 -134.5t8.5 -129v-682h-348v573v107.5t-15.5 93.5t-51.5 66.5t-107 25.5q-39 0 -73 -7t-61 -17q-31 -10 -55 -25v-817h-348zM266 1184q6 49 25.5 99t50.5 90t74 64.5t98 24.5q41 0 82 -12 t82 -29q39 -16 73.5 -29.5t59.5 -13.5q35 0 58.5 27t27.5 57h145q-6 -53 -23.5 -100t-47 -82t-72.5 -56.5t-100 -21.5q-47 0 -88.5 11.5t-77.5 25.5q-37 14 -70 25.5t-61 11.5q-35 0 -59.5 -28.5t-31.5 -63.5h-145z" />
<glyph unicode="&#xf2;" horiz-adv-x="1243" d="M61 532q0 119 38 222.5t111 178.5t176 119t235 44q131 0 235.5 -43t177 -119t110.5 -179.5t38 -222.5q0 -121 -38 -223t-110.5 -178t-177 -119t-235.5 -43t-234.5 44t-176.5 119t-111 177t-38 223zM247 1483h369l199 -305h-246zM406 530q0 -66 9 -126t33.5 -107 t65.5 -74.5t107 -27.5q63 0 105 27.5t66.5 74.5t35 107.5t10.5 125.5q0 68 -10.5 129.5t-35 108.5t-66.5 74.5t-105 27.5t-105.5 -27.5t-67 -74.5t-33.5 -108.5t-9 -129.5z" />
<glyph unicode="&#xf3;" horiz-adv-x="1243" d="M61 532q0 119 38 222.5t111 178.5t176 119t235 44q131 0 235.5 -43t177 -119t110.5 -179.5t38 -222.5q0 -121 -38 -223t-110.5 -178t-177 -119t-235.5 -43t-234.5 44t-176.5 119t-111 177t-38 223zM406 530q0 -66 9 -126t33.5 -107t65.5 -74.5t107 -27.5q63 0 105 27.5 t66.5 74.5t35 107.5t10.5 125.5q0 68 -10.5 129.5t-35 108.5t-66.5 74.5t-105 27.5t-105.5 -27.5t-67 -74.5t-33.5 -108.5t-9 -129.5zM411 1178l199 305h368l-321 -305h-246z" />
<glyph unicode="&#xf4;" horiz-adv-x="1243" d="M61 532q0 119 38 222.5t111 178.5t176 119t235 44q131 0 235.5 -43t177 -119t110.5 -179.5t38 -222.5q0 -121 -38 -223t-110.5 -178t-177 -119t-235.5 -43t-234.5 44t-176.5 119t-111 177t-38 223zM237 1178l229 305h312l229 -305h-262l-123 163l-123 -163h-262zM406 530 q0 -66 9 -126t33.5 -107t65.5 -74.5t107 -27.5q63 0 105 27.5t66.5 74.5t35 107.5t10.5 125.5q0 68 -10.5 129.5t-35 108.5t-66.5 74.5t-105 27.5t-105.5 -27.5t-67 -74.5t-33.5 -108.5t-9 -129.5z" />
<glyph unicode="&#xf5;" horiz-adv-x="1243" d="M61 532q0 119 38 222.5t111 178.5t176 119t235 44q131 0 235.5 -43t177 -119t110.5 -179.5t38 -222.5q0 -121 -38 -223t-110.5 -178t-177 -119t-235.5 -43t-234.5 44t-176.5 119t-111 177t-38 223zM235 1184q6 49 25.5 99t50.5 90t74 64.5t98 24.5q41 0 82 -12t82 -29 q39 -16 73.5 -29.5t59.5 -13.5q35 0 58.5 27t27.5 57h145q-6 -53 -23.5 -100t-47 -82t-72.5 -56.5t-100 -21.5q-47 0 -88.5 11.5t-77.5 25.5q-37 14 -70 25.5t-61 11.5q-35 0 -59.5 -28.5t-31.5 -63.5h-145zM406 530q0 -66 9 -126t33.5 -107t65.5 -74.5t107 -27.5 q63 0 105 27.5t66.5 74.5t35 107.5t10.5 125.5q0 68 -10.5 129.5t-35 108.5t-66.5 74.5t-105 27.5t-105.5 -27.5t-67 -74.5t-33.5 -108.5t-9 -129.5z" />
<glyph unicode="&#xf6;" horiz-adv-x="1247" d="M65 532q0 119 38 222.5t111 178.5t176 119t235 44q131 0 235.5 -43t177 -119t110.5 -179.5t38 -222.5q0 -121 -38 -223t-110.5 -178t-177 -119t-235.5 -43t-234.5 44t-176.5 119t-111 177t-38 223zM256 1206v256h308v-256h-308zM410 530q0 -66 9 -126t33.5 -107 t65.5 -74.5t107 -27.5q63 0 105 27.5t66.5 74.5t35 107.5t10.5 125.5q0 68 -10.5 129.5t-35 108.5t-66.5 74.5t-105 27.5t-105.5 -27.5t-67 -74.5t-33.5 -108.5t-9 -129.5zM693 1206v256h307v-256h-307z" />
<glyph unicode="&#xf7;" horiz-adv-x="1228" d="M98 371v295h1032v-295h-1032zM412 94q0 86 58 144.5t144 58.5t144.5 -58.5t58.5 -144.5q0 -41 -15.5 -77.5t-43 -64.5t-64.5 -44.5t-80 -16.5t-79.5 16.5t-64.5 44.5t-43 64.5t-15 77.5zM412 942q0 86 58 144.5t144 58.5t144.5 -58.5t58.5 -144.5q0 -41 -15.5 -78 t-43 -64.5t-64.5 -44t-80 -16.5t-79.5 16.5t-64.5 44t-43 64.5t-15 78z" />
<glyph unicode="&#xf8;" horiz-adv-x="1251" d="M66 530q0 119 40.5 222.5t114.5 179.5t177.5 119t226.5 43q188 0 327 -99l105 123l90 -78l-107 -122q72 -76 109 -174.5t37 -213.5q0 -121 -41 -223t-116 -177t-178 -118t-226 -43q-94 0 -176 24.5t-150 72.5l-119 -136l-86 66l121 141q-72 76 -110.5 176.5t-38.5 216.5z M414 530q0 -35 5 -69.5t15 -67.5l326 379q-27 27 -59.5 41t-75.5 14q-61 0 -101.5 -27.5t-65 -70.5t-34.5 -95t-10 -104zM494 289q47 -53 131 -53q61 0 102 26.5t65.5 69.5t35 95t10.5 103q0 68 -19 134z" />
<glyph unicode="&#xf9;" horiz-adv-x="1296" d="M113 381v682h348v-574v-107t15.5 -93t51 -66.5t107.5 -25.5q39 0 72.5 7t60.5 17q31 10 55 25v817h348l3 -981l-52 -18q-51 -17 -137 -38.5t-198.5 -39t-235.5 -17.5q-162 0 -251 43t-130 105.5t-49 134.5t-8 129zM268 1483h369l199 -305h-246z" />
<glyph unicode="&#xfa;" horiz-adv-x="1296" d="M113 381v682h348v-574v-107t15.5 -93t51 -66.5t107.5 -25.5q39 0 72.5 7t60.5 17q31 10 55 25v817h348l3 -981l-52 -18q-51 -17 -137 -38.5t-198.5 -39t-235.5 -17.5q-162 0 -251 43t-130 105.5t-49 134.5t-8 129zM432 1178l199 305h368l-321 -305h-246z" />
<glyph unicode="&#xfb;" horiz-adv-x="1296" d="M113 381v682h348v-574v-107t15.5 -93t51 -66.5t107.5 -25.5q39 0 72.5 7t60.5 17q31 10 55 25v817h348l3 -981l-52 -18q-51 -17 -137 -38.5t-198.5 -39t-235.5 -17.5q-162 0 -251 43t-130 105.5t-49 134.5t-8 129zM258 1178l229 305h312l229 -305h-262l-123 163 l-123 -163h-262z" />
<glyph unicode="&#xfc;" horiz-adv-x="1296" d="M113 381v682h348v-574v-107t15.5 -93t51 -66.5t107.5 -25.5q39 0 72.5 7t60.5 17q31 10 55 25v817h348l3 -981l-52 -18q-51 -17 -137 -38.5t-198.5 -39t-235.5 -17.5q-162 0 -251 43t-130 105.5t-49 134.5t-8 129zM272 1206v256h308v-256h-308zM709 1206v256h307v-256 h-307z" />
<glyph unicode="&#xfd;" horiz-adv-x="1099" d="M-14 1063h368l201 -692h4l201 692h356l-356 -954q-39 -104 -77 -181.5t-83 -135.5t-102.5 -106t-137.5 -96l-243 215q47 20 94 51t82 68t51 77t2 83q-6 20 -22.5 64.5t-54.5 147.5t-105.5 285.5t-177.5 481.5zM340 1178l199 305h368l-321 -305h-246z" />
<glyph unicode="&#xfe;" d="M117 -356v1818h348v-516h4q106 147 303 148q115 0 200 -49.5t140 -131.5t82 -187t27 -218q0 -104 -28 -200.5t-84 -172.5t-140 -121t-197 -45q-195 0 -303 146h-4v-471h-348zM453 543q0 -139 46 -223t165 -84q57 0 97 27.5t64.5 71.5t35.5 98t11 110q0 51 -10 101 t-34.5 91t-64.5 66.5t-97 25.5q-35 0 -73 -13t-68.5 -46t-51 -88t-20.5 -137z" />
<glyph unicode="&#xff;" horiz-adv-x="1099" d="M-14 1063h368l201 -692h4l201 692h356l-356 -954q-39 -104 -77 -181.5t-83 -135.5t-102.5 -106t-137.5 -96l-243 215q47 20 94 51t82 68t51 77t2 83q-6 20 -22.5 64.5t-54.5 147.5t-105.5 285.5t-177.5 481.5zM180 1206v256h308v-256h-308zM617 1206v256h307v-256h-307z " />
<glyph unicode="&#x152;" horiz-adv-x="2275" d="M76 731q0 147 47 285.5t137 244t218 169t292 63.5q90 0 180 -26.5t148 -100.5h4v96h1067v-305h-711v-256h649v-295h-649v-278h727v-328h-1083v92q-33 -37 -74 -60.5t-85 -36.5t-89 -19.5t-84 -6.5q-164 0 -292 63.5t-218 169t-137 244t-47 285.5zM457 731 q0 -82 17.5 -159.5t59 -139t109.5 -98.5t168 -37q70 0 123 28.5t90 76t55.5 107.5t18.5 124v196q0 63 -18.5 124t-55.5 108t-90 75.5t-123 28.5q-100 0 -168 -36.5t-109.5 -98t-59 -139.5t-17.5 -160z" />
<glyph unicode="&#x153;" horiz-adv-x="1972" d="M66 532q0 119 37.5 222.5t110.5 178.5t176.5 119t234.5 44q123 0 221 -41t153 -119v-6q131 166 355 166q113 0 206 -35t161.5 -96.5t111.5 -142.5t57 -173q8 -49 10.5 -100t-6.5 -105h-766q2 -43 18.5 -87t50.5 -79.5t87 -59t131 -23.5q51 0 110.5 11t118 27.5t111.5 36 t96 37.5l-49 -274q0 -4 -39 -14.5t-99 -21.5t-136 -19.5t-150 -8.5q-143 0 -238.5 40t-152.5 118l-2 -2q-43 -66 -141.5 -111t-218.5 -45q-131 0 -234.5 44t-176.5 119t-110.5 177t-37.5 223zM410 530q0 -66 9 -126t33.5 -107t65.5 -74.5t107 -27.5q63 0 105 27.5t66.5 74.5 t35 107.5t10.5 125.5q0 68 -10.5 129.5t-35 108.5t-66.5 74.5t-105 27.5t-105.5 -27.5t-67 -74.5t-33.5 -108.5t-9 -129.5zM1128 657h433q-2 45 -14.5 84t-37 68t-63.5 45t-92 16q-109 0 -159 -57t-67 -156z" />
<glyph unicode="&#x178;" horiz-adv-x="1366" d="M47 1153v309h381v-336q0 -72 13.5 -131t44 -102t79.5 -67.5t119 -24.5t119 24.5t79.5 67.5t44 102.5t13.5 130.5v336h381v-309q0 -270 -107.5 -424t-339.5 -197v-532h-381v532q-233 43 -339.5 197t-106.5 424zM313 1581v256h308v-256h-308zM750 1581v256h307v-256h-307z " />
<glyph unicode="&#x2c6;" horiz-adv-x="606" d="M-82 1178l229 305h312l229 -305h-262l-123 163l-123 -163h-262z" />
<glyph unicode="&#x2dc;" horiz-adv-x="606" d="M-84 1184q6 49 25.5 99t50.5 90t74 64.5t98 24.5q41 0 82 -12t82 -29q39 -16 73.5 -29.5t59.5 -13.5q35 0 58.5 27t27.5 57h145q-6 -53 -23.5 -100t-47 -82t-72.5 -56.5t-100 -21.5q-47 0 -88.5 11.5t-77.5 25.5q-37 14 -70 25.5t-61 11.5q-35 0 -59.5 -28.5t-31.5 -63.5 h-145z" />
<glyph unicode="&#x2000;" horiz-adv-x="973" />
<glyph unicode="&#x2001;" horiz-adv-x="1947" />
<glyph unicode="&#x2002;" horiz-adv-x="973" />
<glyph unicode="&#x2003;" horiz-adv-x="1947" />
<glyph unicode="&#x2004;" horiz-adv-x="649" />
<glyph unicode="&#x2005;" horiz-adv-x="486" />
<glyph unicode="&#x2006;" horiz-adv-x="324" />
<glyph unicode="&#x2007;" horiz-adv-x="324" />
<glyph unicode="&#x2008;" horiz-adv-x="243" />
<glyph unicode="&#x2009;" horiz-adv-x="389" />
<glyph unicode="&#x200a;" horiz-adv-x="108" />
<glyph unicode="&#x2010;" horiz-adv-x="833" d="M98 410v295h637v-295h-637z" />
<glyph unicode="&#x2011;" horiz-adv-x="833" d="M98 410v295h637v-295h-637z" />
<glyph unicode="&#x2012;" horiz-adv-x="833" d="M98 410v295h637v-295h-637z" />
<glyph unicode="&#x2013;" horiz-adv-x="1024" d="M0 410v295h1024v-295h-1024z" />
<glyph unicode="&#x2014;" horiz-adv-x="2048" d="M266 410v295h1516v-295h-1516z" />
<glyph unicode="&#x2018;" horiz-adv-x="606" d="M143 772v291q0 100 29 173t75 121t104.5 73.5t115.5 31.5v-164q-84 -23 -116 -75t-32 -117h103q18 0 31.5 -13.5t13.5 -33.5v-287q0 -20 -13.5 -33.5t-31.5 -13.5h-234q-18 0 -31.5 13.5t-13.5 33.5z" />
<glyph unicode="&#x2019;" horiz-adv-x="606" d="M141 725v164q84 23 116 75t32 117h-103q-18 0 -31.5 13.5t-13.5 33.5v287q0 20 13.5 33.5t31.5 13.5h234q18 0 31.5 -13t13.5 -34v-291q0 -102 -28.5 -173.5t-75 -120t-104.5 -74t-116 -31.5z" />
<glyph unicode="&#x201a;" horiz-adv-x="606" d="M143 47v287q0 20 13.5 33.5t31.5 13.5h234q18 0 31.5 -13.5t13.5 -33.5v-291q0 -102 -28.5 -174t-75 -120t-104.5 -73.5t-116 -31.5v163q84 23 116 75t32 118h-103q-18 0 -31.5 13.5t-13.5 33.5z" />
<glyph unicode="&#x201c;" horiz-adv-x="1024" d="M115 772v291q0 100 28.5 173t74.5 121t104.5 73.5t115.5 31.5v-164q-84 -23 -115.5 -75t-31.5 -117h102q18 0 31.5 -13.5t13.5 -33.5v-287q0 -20 -13 -33.5t-32 -13.5h-233q-18 0 -31.5 13.5t-13.5 33.5zM588 772v291q0 100 28.5 173t74.5 121t104.5 73.5t115.5 31.5 v-164q-84 -23 -115.5 -75t-31.5 -117h102q18 0 31.5 -13.5t13.5 -33.5v-287q0 -20 -13 -33.5t-32 -13.5h-233q-18 0 -31.5 13.5t-13.5 33.5z" />
<glyph unicode="&#x201d;" horiz-adv-x="1024" d="M113 725v164q84 23 115.5 75t31.5 117h-102q-18 0 -31.5 13.5t-13.5 33.5v287q0 20 13 33.5t32 13.5h233q18 0 31.5 -13t13.5 -34v-291q0 -102 -28.5 -173.5t-74.5 -120t-104.5 -74t-115.5 -31.5zM586 725v164q84 23 115.5 75t31.5 117h-102q-18 0 -31.5 13.5t-13.5 33.5 v287q0 20 13 33.5t32 13.5h233q18 0 31.5 -13t13.5 -34v-291q0 -102 -28.5 -173.5t-74.5 -120t-104.5 -74t-115.5 -31.5z" />
<glyph unicode="&#x201e;" horiz-adv-x="1024" d="M113 47v287q0 20 13 33.5t32 13.5h233q18 0 31.5 -13.5t13.5 -33.5v-291q0 -102 -28.5 -174t-74.5 -120t-104.5 -73.5t-115.5 -31.5v163q84 23 115.5 75t31.5 118h-102q-18 0 -31.5 13.5t-13.5 33.5zM586 47v287q0 20 13 33.5t32 13.5h233q18 0 31.5 -13.5t13.5 -33.5 v-291q0 -102 -28.5 -174t-74.5 -120t-104.5 -73.5t-115.5 -31.5v163q84 23 115.5 75t31.5 118h-102q-18 0 -31.5 13.5t-13.5 33.5z" />
<glyph unicode="&#x2022;" horiz-adv-x="1024" d="M147 731q0 76 29 142.5t78 115.5t115.5 78t142.5 29t142.5 -29t116.5 -78t79 -115.5t29 -142.5t-29 -142.5t-79 -116.5t-116.5 -78.5t-142.5 -28.5t-142.5 28.5t-115.5 78.5t-78 116.5t-29 142.5z" />
<glyph unicode="&#x2026;" horiz-adv-x="2048" d="M152 0v381h380v-381h-380zM834 0v381h380v-381h-380zM1516 0v381h380v-381h-380z" />
<glyph unicode="&#x202f;" horiz-adv-x="389" />
<glyph unicode="&#x2039;" horiz-adv-x="493" d="M84 397v312l326 262v-281l-177 -137l177 -135v-281z" />
<glyph unicode="&#x203a;" horiz-adv-x="493" d="M84 137v281l176 137l-176 135v281l326 -260v-312z" />
<glyph unicode="&#x205f;" horiz-adv-x="486" />
<glyph unicode="&#x20ac;" horiz-adv-x="1353" d="M10 461v168h150q-2 20 -2 41.5v44.5v32.5t2 32.5h-150v168h172q53 231 206 365.5t384 134.5q92 0 159.5 -7t120 -18.5t92.5 -26t77 -26.5v-315q-88 47 -198 85t-218 38q-109 0 -181.5 -65.5t-111.5 -164.5h578l-66 -168h-549q-4 -20 -4 -37.5v-37.5t1 -39t3 -37h492 l-66 -168h-389q39 -98 110.5 -160.5t182.5 -62.5q53 0 108.5 14t109.5 35.5t104.5 47t93.5 50.5v-317q-37 -12 -77 -30t-92.5 -33t-120 -25.5t-159.5 -10.5q-229 0 -380.5 129t-207.5 363h-174z" />
<glyph unicode="&#x2122;" horiz-adv-x="2048" d="M84 1268v194h707v-194h-226v-650h-256v650h-225zM961 618v844h319l182 -489l183 489h319v-844h-225v553h-4l-183 -553h-180l-182 553h-4v-553h-225z" />
<glyph unicode="&#x25fc;" horiz-adv-x="1064" d="M0 0v1065h1065v-1065h-1065z" />
<glyph unicode="&#xfb01;" horiz-adv-x="1327" d="M25 838v225h168q0 115 21.5 191.5t68.5 122.5t124.5 65.5t188.5 19.5q41 0 84 -2t84 -4v-246q-49 6 -94 7q-59 0 -94 -17.5t-35 -89.5v-47h209v-225h-209v-838h-348v838h-168zM850 0v1063h348v-1063h-348zM850 1196v266h348v-266h-348z" />
<glyph unicode="&#xfb02;" horiz-adv-x="1327" d="M25 838v225h168q0 115 21.5 191.5t68.5 122.5t124.5 65.5t188.5 19.5q41 0 84 -2t84 -4v-246q-49 6 -94 7q-59 0 -94 -17.5t-35 -89.5v-47h209v-225h-209v-838h-348v838h-168zM850 0v1462h348v-1462h-348z" />
</font>
</defs>
</svg>
