<svg viewBox="0 0 748 360" xmlns="http://www.w3.org/2000/svg"><g fill="none" fill-rule="evenodd"><path fill="#D8D8D8" d="M.271 316.285L178.26 7.12 356.247 316.5z"/><path d="M340.892 290.642l14.342 25.202h-28.333a27.246 27.246 0 0 1-.048-1.612c0-10.186 5.677-19.047 14.039-23.59z" fill="#737373"/><path d="M179.096 15.36v291.084M176.096 26.16l3-10.8 3 10.8M176.096 295.644l3 10.8 3-10.8M202.872 6.86l170.54 295.383M205.674 17.712L202.872 6.86l7.998 7.853M365.414 294.39l7.998 7.853-2.802-10.853M347.044 332.637h-161.08M336.244 329.637l10.8 3-10.8 3M196.764 329.637l-10.8 3 10.8 3" stroke="#000" stroke-width="4"/><path d="M156.06 188.367c-.82-.4-1.453-.961-1.9-1.681a6.34 6.34 0 0 1-.875-2.38 8.98 8.98 0 0 1 0-2.706c.137-.94.37-1.85.697-2.735.329-.884.73-1.69 1.204-2.42.474-.729.984-1.321 1.53-1.777 1.003-.766 1.933-1.221 2.79-1.367.857-.146 1.622-.064 2.297.246.674.31 1.262.802 1.763 1.476a8 8 0 0 1 1.176 2.311c.283.866.451 1.796.506 2.789a11.47 11.47 0 0 1-.205 2.912 9.405 9.405 0 0 1-.957 2.653 5.95 5.95 0 0 1-1.777 2.023c-.739.529-1.623.866-2.653 1.012-1.03.145-2.228.027-3.595-.356zm2.106-2.27c.766.074 1.454-.095 2.064-.505a5.053 5.053 0 0 0 1.518-1.613 7.366 7.366 0 0 0 .875-2.256 6.83 6.83 0 0 0 .11-2.42 5.225 5.225 0 0 0-.766-2.106c-.401-.629-.975-1.07-1.723-1.326-.456-.091-.934.055-1.435.438-.502.382-.957.897-1.368 1.545a9.653 9.653 0 0 0-1.011 2.187 7.734 7.734 0 0 0-.397 2.406c0 .793.164 1.518.492 2.174.329.656.875 1.149 1.641 1.477zM317.58 155.477c-.328.4-.693.656-1.094.765-.4.11-.765.096-1.093-.04-.329-.138-.584-.393-.766-.766-.182-.374-.21-.853-.082-1.436l-.137-17.992c.128-.274.333-.488.615-.643.283-.155.575-.232.875-.232.301 0 .57.077.807.232.237.155.365.397.383.725v7.3c.346-.492.642-.893.889-1.202.246-.31.505-.57.779-.78.273-.21.588-.373.943-.492.356-.118.798-.232 1.326-.342 1.003-.127 1.819.046 2.448.52.629.474 1.116 1.125 1.463 1.955.346.83.583 1.768.71 2.816.128 1.048.21 2.083.247 3.104.036 1.02.05 1.968.04 2.844-.009.875.023 1.54.096 1.996.146.565.128 1.048-.054 1.449-.183.4-.433.665-.752.793-.32.127-.666.095-1.04-.096-.373-.191-.67-.606-.888-1.244a15.986 15.986 0 0 1-.205-2.133 68.637 68.637 0 0 1-.041-2.392c0-.812-.014-1.6-.041-2.366a14.428 14.428 0 0 0-.205-2.05c-.11-.602-.278-1.09-.506-1.463-.228-.374-.552-.57-.97-.588a3.519 3.519 0 0 0-1.696.93 5.28 5.28 0 0 0-1.108 1.667 10.136 10.136 0 0 0-.642 2.16 20.658 20.658 0 0 0-.3 2.407c-.056.82-.078 1.627-.07 2.42.01.793.033 1.517.07 2.174zM270.828 358.023c0 .53-.11.885-.328 1.067a1.16 1.16 0 0 1-.766.273c-.291 0-.57-.059-.834-.177-.264-.119-.433-.233-.505-.342l-1.45-3.117c-.237.437-.51.86-.82 1.271-.31.41-.656.775-1.04 1.094a6.19 6.19 0 0 1-1.243.806 4.272 4.272 0 0 1-1.436.41c-1.221.037-2.237-.15-3.049-.56-.81-.41-1.458-.962-1.941-1.654-.483-.693-.802-1.49-.957-2.393a9.817 9.817 0 0 1-.068-2.789c.109-.957.337-1.9.683-2.83a10.67 10.67 0 0 1 1.313-2.502 7.492 7.492 0 0 1 1.845-1.832 4.458 4.458 0 0 1 2.256-.807c.802-.054 1.645.133 2.53.561.884.428 1.79 1.19 2.72 2.283l3.09 11.238zm-10.719-1.804c.839.291 1.573.36 2.202.205a3.347 3.347 0 0 0 1.6-.889c.437-.437.77-.984.997-1.64a8.42 8.42 0 0 0 .328-4.143 5.842 5.842 0 0 0-.601-1.805c-.283-.52-.643-.907-1.08-1.162-.438-.255-.948-.31-1.532-.164-.474.11-.897.387-1.271.834a6.14 6.14 0 0 0-.943 1.586 9.46 9.46 0 0 0-.575 1.982c-.127.711-.186 1.404-.177 2.079.009.674.1 1.29.273 1.845.173.556.433.98.78 1.272z" fill="#000"/><g fill="#000"><path d="M412.328 114.316c0 .53-.11.885-.328 1.067a1.16 1.16 0 0 1-.766.273c-.291 0-.57-.059-.834-.177-.264-.119-.433-.233-.505-.342l-1.45-3.117c-.237.437-.51.86-.82 1.271-.31.41-.656.775-1.04 1.094a6.19 6.19 0 0 1-1.243.806 4.272 4.272 0 0 1-1.436.41c-1.221.037-2.237-.15-3.049-.56-.81-.41-1.458-.962-1.941-1.654-.483-.693-.802-1.49-.957-2.393a9.817 9.817 0 0 1-.068-2.789c.109-.957.337-1.9.683-2.83a10.67 10.67 0 0 1 1.313-2.502 7.492 7.492 0 0 1 1.845-1.832 4.458 4.458 0 0 1 2.256-.807c.802-.054 1.645.133 2.53.56.884.43 1.79 1.19 2.72 2.284l3.09 11.238zm-10.719-1.804c.839.291 1.573.36 2.202.205a3.347 3.347 0 0 0 1.6-.889c.437-.437.77-.984.997-1.64a8.42 8.42 0 0 0 .328-4.143 5.842 5.842 0 0 0-.601-1.805c-.283-.52-.643-.907-1.08-1.162-.438-.255-.948-.31-1.532-.164-.474.11-.897.387-1.271.834a6.14 6.14 0 0 0-.943 1.586 9.46 9.46 0 0 0-.575 1.982c-.127.711-.186 1.404-.177 2.079.009.674.1 1.29.273 1.845.173.556.433.98.78 1.272zM413.432 100.719c-.246.058-.443.035-.59-.07a.738.738 0 0 1-.29-.414 1.015 1.015 0 0 1 .01-.545.8.8 0 0 1 .342-.465l3.657-7.594c.28-.645.41-1.146.386-1.503-.023-.357-.14-.604-.351-.738-.211-.135-.484-.17-.818-.106a3.19 3.19 0 0 0-1.02.404c-.345.206-.661.46-.948.765a2.491 2.491 0 0 0-.59.967.595.595 0 0 1-.412.026.879.879 0 0 1-.352-.202.77.77 0 0 1-.21-.343.543.543 0 0 1 .043-.413c.246-.703.615-1.268 1.107-1.696a4.175 4.175 0 0 1 1.6-.888 3.771 3.771 0 0 1 1.688-.105c.55.094.996.316 1.336.668.34.351.533.826.58 1.424.046.597-.147 1.318-.58 2.162l-3.252 7.066c.48.047.963.053 1.45.018.486-.035.972-.085 1.459-.15.486-.064.972-.12 1.459-.167a8.764 8.764 0 0 1 1.468-.017c.07-.012.146.029.228.123a1.233 1.233 0 0 1 .272.826.745.745 0 0 1-.158.44c-.1.128-.258.225-.474.29-.217.064-.519.067-.906.008l-6.134.229zM472.06 115.437c-.82-.4-1.453-.961-1.9-1.681a6.34 6.34 0 0 1-.875-2.379 8.98 8.98 0 0 1 0-2.707c.137-.939.37-1.85.697-2.734.329-.885.73-1.691 1.204-2.42.474-.73.984-1.322 1.53-1.778 1.003-.765 1.933-1.221 2.79-1.367.857-.146 1.622-.064 2.297.246.674.31 1.262.802 1.763 1.477a8 8 0 0 1 1.176 2.31c.283.866.451 1.796.506 2.79a11.47 11.47 0 0 1-.205 2.911 9.405 9.405 0 0 1-.957 2.653 5.95 5.95 0 0 1-1.777 2.023c-.739.529-1.623.866-2.653 1.012-1.03.146-2.228.027-3.595-.356zm2.106-2.269c.766.073 1.454-.096 2.064-.506a5.053 5.053 0 0 0 1.518-1.613 7.366 7.366 0 0 0 .875-2.256 6.83 6.83 0 0 0 .11-2.42 5.225 5.225 0 0 0-.766-2.105c-.401-.63-.975-1.071-1.723-1.327-.456-.09-.934.055-1.435.438-.502.383-.957.898-1.368 1.545a9.653 9.653 0 0 0-1.011 2.187 7.734 7.734 0 0 0-.397 2.407c0 .793.164 1.517.492 2.173.329.657.875 1.149 1.641 1.477zM484.708 100.719c-.246.058-.442.035-.589-.07a.738.738 0 0 1-.29-.414 1.015 1.015 0 0 1 .01-.545.8.8 0 0 1 .342-.465l3.656-7.594c.281-.645.41-1.146.387-1.503-.023-.357-.14-.604-.352-.738-.21-.135-.483-.17-.817-.106a3.19 3.19 0 0 0-1.02.404c-.345.206-.662.46-.949.765a2.491 2.491 0 0 0-.589.967.595.595 0 0 1-.413.026.879.879 0 0 1-.351-.202.77.77 0 0 1-.211-.343.543.543 0 0 1 .044-.413c.246-.703.615-1.268 1.107-1.696a4.175 4.175 0 0 1 1.6-.888 3.771 3.771 0 0 1 1.687-.105c.551.094.996.316 1.336.668.34.351.533.826.58 1.424.047.597-.146 1.318-.58 2.162l-3.252 7.066c.48.047.964.053 1.45.018.487-.035.973-.085 1.46-.15.486-.064.972-.12 1.458-.167a8.764 8.764 0 0 1 1.468-.017c.07-.012.147.029.229.123a1.233 1.233 0 0 1 .272.826.745.745 0 0 1-.158.44c-.1.128-.258.225-.475.29-.216.064-.518.067-.905.008l-6.135.229zM543.08 115.547c-.328.4-.693.656-1.094.765-.4.11-.765.096-1.093-.04-.329-.137-.584-.392-.766-.766-.182-.374-.21-.852-.082-1.436l-.137-17.992c.128-.273.333-.488.615-.642.283-.155.575-.233.875-.233.301 0 .57.078.807.233.237.154.365.396.383.724v7.3c.346-.491.642-.892.889-1.202.246-.31.505-.57.779-.78.273-.21.588-.373.943-.492.356-.118.798-.232 1.326-.341 1.003-.128 1.819.045 2.448.52.629.473 1.116 1.125 1.463 1.954.346.83.583 1.768.71 2.817.128 1.048.21 2.082.247 3.103.036 1.02.05 1.969.04 2.844-.009.875.023 1.54.096 1.996.146.565.128 1.048-.054 1.45-.183.4-.433.664-.752.792-.32.128-.666.096-1.04-.096-.373-.191-.67-.606-.888-1.244a15.986 15.986 0 0 1-.205-2.133 68.637 68.637 0 0 1-.041-2.392c0-.811-.014-1.6-.041-2.365a14.428 14.428 0 0 0-.205-2.051c-.11-.602-.278-1.09-.506-1.463-.228-.374-.552-.57-.97-.588a3.519 3.519 0 0 0-1.696.93 5.28 5.28 0 0 0-1.108 1.668 10.136 10.136 0 0 0-.642 2.16 20.658 20.658 0 0 0-.3 2.406c-.056.82-.078 1.627-.07 2.42.01.793.033 1.518.07 2.174zM553.932 100.719c-.246.058-.443.035-.59-.07a.738.738 0 0 1-.29-.414 1.015 1.015 0 0 1 .01-.545.8.8 0 0 1 .342-.465l3.657-7.594c.28-.645.41-1.146.386-1.503-.023-.357-.14-.604-.351-.738-.211-.135-.484-.17-.818-.106a3.19 3.19 0 0 0-1.02.404c-.345.206-.661.46-.948.765a2.491 2.491 0 0 0-.59.967.595.595 0 0 1-.412.026.879.879 0 0 1-.352-.202.77.77 0 0 1-.21-.343.543.543 0 0 1 .043-.413c.246-.703.615-1.268 1.107-1.696a4.175 4.175 0 0 1 1.6-.888 3.771 3.771 0 0 1 1.688-.105c.55.094.996.316 1.336.668.34.351.533.826.58 1.424.046.597-.147 1.318-.58 2.162l-3.252 7.066c.48.047.963.053 1.45.018.486-.035.972-.085 1.459-.15.486-.064.972-.12 1.459-.167a8.764 8.764 0 0 1 1.468-.017c.07-.012.146.029.228.123a1.233 1.233 0 0 1 .272.826.745.745 0 0 1-.158.44c-.1.128-.258.225-.474.29-.217.064-.519.067-.906.008l-6.134.229zM440.951 112.73c-.2 0-.41.005-.629.014-.218.01-.419-.082-.601-.273-.183-.192-.333-.538-.451-1.04-.119-.5-.16-1.262-.124-2.283-.382 0-.77-.036-1.162-.109a22.722 22.722 0 0 0-1.216-.191c-.42-.584-.602-1.035-.547-1.354.054-.319.237-.542.547-.67.31-.127.688-.182 1.134-.164.447.018.862.064 1.244.137-.109-.164-.186-.41-.232-.738a4.483 4.483 0 0 1-.014-1.053c.037-.374.105-.743.205-1.108.1-.364.237-.66.41-.888.174-.228.388-.356.643-.383.255-.027.556.105.903.396.018.128.04.36.068.698.027.337.064.702.11 1.093.045.392.09.77.136 1.135.046.365.096.647.15.848 1.149-.055 2.01.023 2.584.232.575.21.862.456.862.739 0 .282-.287.56-.862.834-.574.273-1.435.455-2.584.546-.127.165-.196.37-.205.616-.009.246.01.501.055.765.046.265.096.529.15.793.055.265.082.502.082.711 0 .21-.045.378-.136.506-.091.128-.265.191-.52.191zM507.342 110.297c-.438-.055-.766-.196-.985-.424-.218-.228-.332-.474-.341-.738-.01-.265.077-.51.26-.739.182-.227.437-.369.765-.423.456.018.98.022 1.572.013a1255.13 1255.13 0 0 1 3.87-.054c.674-.01 1.33-.005 1.968.013.274-.018.492.046.656.192.164.146.278.328.342.547.064.218.069.455.014.71a1.638 1.638 0 0 1-.356.711l-7.765.192zm-.274-3.774c-.437-.054-.765-.196-.984-.423-.219-.228-.333-.474-.342-.739-.009-.264.078-.51.26-.738.182-.228.437-.37.766-.424.455.018.98.023 1.572.014a1255.11 1255.11 0 0 1 3.869-.055c.674-.009 1.33-.004 1.969.014.273-.018.492.045.656.191.164.146.278.328.342.547.064.219.068.456.013.711a1.638 1.638 0 0 1-.355.711l-7.766.191zM563.662 117.2c.237-.092.447-.274.629-.548a2.84 2.84 0 0 0 .396-.93c.083-.346.096-.71.042-1.093a2.373 2.373 0 0 0-.438-1.067c-.182-.473-.205-.843-.068-1.107.136-.264.332-.428.588-.492.255-.064.524-.032.806.096.283.127.488.337.615.628.347.693.52 1.395.52 2.106 0 .71-.132 1.312-.397 1.805-.264.492-.628.815-1.093.97-.465.155-.998.032-1.6-.369zm23.242-2.763c-1.075-.82-1.927-1.75-2.556-2.789a14.129 14.129 0 0 1-1.463-3.308 22.363 22.363 0 0 1-.752-3.637 188.598 188.598 0 0 1-.424-3.746c.073-.401.228-.743.465-1.025.237-.283.51-.474.82-.575.31-.1.629-.09.957.028.328.118.61.378.848.78a17.09 17.09 0 0 0 .027 3.198 21.37 21.37 0 0 0 .533 3.104c.246.975.538 1.86.875 2.652.338.793.693 1.404 1.067 1.832.373.429.743.643 1.107.643.365 0 .702-.31 1.012-.93.31-.62.574-1.581.793-2.885.219-1.303.355-3.03.41-5.181 0-.237.105-.442.315-.616.21-.173.46-.305.751-.396.292-.091.58-.15.862-.178.282-.027.506-.013.67.041.237.401.428.925.574 1.572.146.648.278 1.34.396 2.079.119.738.237 1.485.356 2.242.118.756.287 1.444.506 2.064.218.62.496 1.135.834 1.545.337.41.77.643 1.299.697.474.037.847-.104 1.12-.423.274-.32.48-.757.616-1.313.137-.556.21-1.198.219-1.928.009-.729-.01-1.476-.055-2.242a45.675 45.675 0 0 0-.191-2.27c-.083-.747-.155-1.417-.22-2.01a25.873 25.873 0 0 1-.122-1.448c-.018-.374.018-.58.11-.616.546-.255 1.03-.264 1.448-.027.42.237.78.647 1.08 1.23.301.584.534 1.3.698 2.147.164.848.255 1.745.273 2.693a20.61 20.61 0 0 1-.15 2.885 13.668 13.668 0 0 1-.602 2.72c-.282.84-.642 1.569-1.08 2.188-.437.62-.966 1.058-1.586 1.313-.93.146-1.713.15-2.351.014-.638-.137-1.185-.388-1.641-.752-.456-.365-.861-.839-1.217-1.422a31.122 31.122 0 0 1-1.107-1.996 28.376 28.376 0 0 1-.807 1.941c-.3.656-.665 1.208-1.094 1.654a3.022 3.022 0 0 1-1.517.875c-.584.137-1.285-.004-2.106-.424zm19.688.11c-.328.4-.693.656-1.094.765-.401.11-.766.096-1.094-.04-.328-.137-.583-.392-.765-.766-.183-.374-.21-.852-.082-1.436l-.137-17.992c.128-.273.333-.488.615-.642.283-.155.574-.233.875-.233.3 0 .57.078.807.233.237.154.364.396.383.724v7.3c.346-.491.642-.892.888-1.202.246-.31.506-.57.78-.78.273-.21.587-.373.943-.492.355-.118.797-.232 1.326-.341 1.003-.128 1.818.045 2.447.52.63.473 1.117 1.125 1.463 1.954.347.83.584 1.768.711 2.817.128 1.048.21 2.082.246 3.103.037 1.02.05 1.969.041 2.844-.009.875.023 1.54.096 1.996.146.565.128 1.048-.055 1.45-.182.4-.433.664-.752.792s-.665.096-1.039-.096c-.373-.191-.67-.606-.888-1.244a15.986 15.986 0 0 1-.205-2.133 68.637 68.637 0 0 1-.041-2.392c0-.811-.014-1.6-.041-2.365a14.428 14.428 0 0 0-.206-2.051c-.109-.602-.278-1.09-.505-1.463-.228-.374-.552-.57-.971-.588a3.519 3.519 0 0 0-1.695.93 5.28 5.28 0 0 0-1.108 1.668 10.136 10.136 0 0 0-.642 2.16 20.658 20.658 0 0 0-.301 2.406c-.055.82-.078 1.627-.069 2.42.01.793.032 1.518.069 2.174zm21.656-2.543a4.586 4.586 0 0 1-1.312 1.545 5.819 5.819 0 0 1-1.805.916 6.73 6.73 0 0 1-2.065.287 7.03 7.03 0 0 1-2.091-.342 7.505 7.505 0 0 1-1.9-.93 5.602 5.602 0 0 1-1.491-1.476 11.505 11.505 0 0 1-1.34-3.692c-.237-1.312-.228-2.552.027-3.718a6.636 6.636 0 0 1 1.56-3.063c.783-.875 1.877-1.458 3.28-1.75 1.331-.09 2.384.069 3.159.479.774.41 1.303.966 1.585 1.668.283.702.338 1.48.165 2.338-.174.856-.543 1.69-1.108 2.502-.565.81-1.312 1.53-2.242 2.16-.93.629-2.005 1.062-3.227 1.299.365.601.78 1.034 1.245 1.298a3.74 3.74 0 0 0 1.462.479c.51.055 1.017.023 1.518-.096a9.628 9.628 0 0 0 1.395-.437c.428-.173.806-.338 1.134-.492.328-.155.565-.26.711-.315.656-.2 1.103-.2 1.34 0 .237.2.237.647 0 1.34zm-7.246-9.762c-.438.328-.82.702-1.148 1.121-.329.42-.593.866-.793 1.34-.201.474-.333.966-.397 1.477-.064.51-.05 1.011.041 1.504a5.499 5.499 0 0 0 2.065-.711 6.383 6.383 0 0 0 1.53-1.244c.41-.465.707-.944.89-1.436.182-.492.232-.92.15-1.285-.082-.365-.315-.63-.697-.793-.383-.164-.93-.155-1.641.027zm12.168 11.649c-.128.291-.351.524-.67.697-.319.173-.652.26-.998.26s-.67-.1-.97-.301c-.302-.2-.507-.538-.616-1.012-.036-.182-.041-.56-.014-1.135.028-.574.032-1.385.014-2.433a98.27 98.27 0 0 0-.164-3.91c-.091-1.559-.264-3.423-.52-5.592.383-.347.752-.474 1.108-.383.355.091.679.292.97.602.292.31.53.688.711 1.134.183.447.283.862.301 1.244.091-.346.287-.706.588-1.08.3-.373.67-.715 1.108-1.025.437-.31.925-.574 1.462-.793a5.885 5.885 0 0 1 1.668-.41c.575-.055 1.149 0 1.723.164.574.164 1.108.474 1.6.93.018.164-.01.337-.082.52a2.138 2.138 0 0 1-.301.519 2.14 2.14 0 0 1-.438.424 1.342 1.342 0 0 1-.492.232c-1.057-.219-1.955-.205-2.693.041a3.948 3.948 0 0 0-1.819 1.217c-.473.565-.829 1.253-1.066 2.064a14.26 14.26 0 0 0-.492 2.584 21.714 21.714 0 0 0-.096 2.79c.028.947.087 1.831.178 2.652zm19.66-1.887a4.586 4.586 0 0 1-1.312 1.545 5.819 5.819 0 0 1-1.805.916 6.73 6.73 0 0 1-2.065.287 7.03 7.03 0 0 1-2.091-.342 7.505 7.505 0 0 1-1.9-.93 5.602 5.602 0 0 1-1.491-1.476 11.505 11.505 0 0 1-1.34-3.692c-.237-1.312-.228-2.552.028-3.718a6.636 6.636 0 0 1 1.558-3.063c.784-.875 1.878-1.458 3.281-1.75 1.331-.09 2.384.069 3.159.479.774.41 1.303.966 1.586 1.668.282.702.337 1.48.164 2.338-.174.856-.543 1.69-1.108 2.502-.565.81-1.312 1.53-2.242 2.16-.93.629-2.005 1.062-3.227 1.299.365.601.78 1.034 1.245 1.298a3.74 3.74 0 0 0 1.462.479c.51.055 1.017.023 1.518-.096a9.628 9.628 0 0 0 1.395-.437c.428-.173.806-.338 1.134-.492.328-.155.565-.26.711-.315.656-.2 1.103-.2 1.34 0 .237.2.237.647 0 1.34zm-7.246-9.762c-.438.328-.82.702-1.148 1.121-.329.42-.593.866-.793 1.34-.2.474-.333.966-.397 1.477-.064.51-.05 1.011.041 1.504a5.499 5.499 0 0 0 2.065-.711 6.383 6.383 0 0 0 1.53-1.244c.411-.465.707-.944.89-1.436.182-.492.232-.92.15-1.285-.082-.365-.315-.63-.697-.793-.383-.164-.93-.155-1.641.027zm36.941 11.074c0 .53-.109.885-.328 1.067a1.16 1.16 0 0 1-.765.273c-.292 0-.57-.059-.834-.177-.265-.119-.433-.233-.506-.342l-1.45-3.117c-.236.437-.51.86-.82 1.271-.31.41-.656.775-1.039 1.094a6.19 6.19 0 0 1-1.244.806 4.272 4.272 0 0 1-1.435.41c-1.222.037-2.238-.15-3.05-.56-.81-.41-1.458-.962-1.94-1.654-.484-.693-.803-1.49-.958-2.393a9.817 9.817 0 0 1-.068-2.789c.11-.957.337-1.9.683-2.83a10.67 10.67 0 0 1 1.313-2.502 7.492 7.492 0 0 1 1.846-1.832 4.458 4.458 0 0 1 2.256-.807c.802-.054 1.645.133 2.529.56.884.43 1.79 1.19 2.72 2.284l3.09 11.238zm-10.718-1.804c.838.291 1.572.36 2.2.205a3.347 3.347 0 0 0 1.6-.889c.438-.437.77-.984.998-1.64a8.42 8.42 0 0 0 .328-4.143 5.842 5.842 0 0 0-.601-1.805c-.283-.52-.643-.907-1.08-1.162-.438-.255-.948-.31-1.531-.164-.474.11-.898.387-1.272.834a6.14 6.14 0 0 0-.943 1.586 9.46 9.46 0 0 0-.574 1.982c-.128.711-.187 1.404-.178 2.079.009.674.1 1.29.273 1.845.174.556.433.98.78 1.272zm28.027-2.215c-.438-.055-.766-.196-.984-.424-.22-.228-.333-.474-.342-.738-.01-.265.077-.51.26-.739.182-.227.437-.369.765-.423.456.018.98.022 1.572.013a1255.128 1255.128 0 0 1 3.87-.054c.674-.01 1.33-.005 1.968.013.274-.018.493.046.657.192.164.146.278.328.341.547.064.218.069.455.014.71a1.638 1.638 0 0 1-.355.711l-7.766.192zm-.273-3.774c-.438-.054-.766-.196-.985-.423-.219-.228-.333-.474-.342-.739-.009-.264.078-.51.26-.738.182-.228.438-.37.766-.424.455.018.98.023 1.572.014a1255.13 1255.13 0 0 1 3.87-.055c.674-.009 1.33-.004 1.968.014.273-.018.492.045.656.191.164.146.278.328.342.547.064.219.068.456.014.711a1.638 1.638 0 0 1-.356.711l-7.765.191zM732.58 97.617c-.328.401-.693.656-1.094.766-.4.11-.765.096-1.093-.041-.329-.137-.584-.392-.766-.766-.182-.374-.21-.852-.082-1.435l-.137-17.993c.128-.273.333-.487.615-.642.283-.155.575-.233.875-.233.301 0 .57.078.807.233.237.155.365.396.383.724v7.301c.346-.492.642-.893.889-1.203.246-.31.505-.57.779-.78.273-.209.588-.373.943-.491.356-.119.798-.233 1.326-.342 1.003-.128 1.819.045 2.448.52.629.473 1.116 1.125 1.463 1.954.346.83.583 1.769.71 2.817.128 1.048.21 2.083.247 3.103.036 1.021.05 1.97.04 2.844-.009.875.023 1.54.096 1.996.146.565.128 1.048-.054 1.45-.183.4-.433.665-.752.792-.32.128-.666.096-1.04-.095-.373-.192-.67-.606-.888-1.244a15.986 15.986 0 0 1-.205-2.133 68.637 68.637 0 0 1-.041-2.393c0-.811-.014-1.6-.041-2.365a14.428 14.428 0 0 0-.205-2.05c-.11-.602-.278-1.09-.506-1.464-.228-.373-.552-.57-.97-.588a3.519 3.519 0 0 0-1.696.93 5.28 5.28 0 0 0-1.108 1.668 10.136 10.136 0 0 0-.642 2.16 20.658 20.658 0 0 0-.3 2.406c-.056.82-.078 1.627-.07 2.42.01.793.033 1.518.07 2.174zM730.174 134.562c-.383.092-.688.055-.916-.109a1.149 1.149 0 0 1-.451-.642 1.58 1.58 0 0 1 .013-.848c.082-.3.26-.542.534-.725l5.687-11.812c.438-1.003.638-1.782.602-2.338-.037-.556-.22-.939-.547-1.149-.328-.21-.752-.264-1.272-.164s-1.048.31-1.586.63a6.77 6.77 0 0 0-1.476 1.189c-.447.474-.752.975-.916 1.504a.926.926 0 0 1-.643.04 1.367 1.367 0 0 1-.547-.314 1.197 1.197 0 0 1-.328-.533.844.844 0 0 1 .068-.643c.383-1.093.958-1.973 1.723-2.638.766-.666 1.595-1.126 2.488-1.381a5.867 5.867 0 0 1 2.625-.164c.857.146 1.55.492 2.079 1.039.528.547.829 1.285.902 2.215.073.93-.228 2.05-.902 3.363l-5.059 10.992c.747.073 1.5.082 2.256.028a38.277 38.277 0 0 0 2.27-.233c.756-.1 1.512-.187 2.269-.26a13.633 13.633 0 0 1 2.283-.027c.11-.018.228.046.356.191.127.146.232.333.314.561.082.228.118.47.11.725-.01.255-.092.483-.247.683-.155.2-.4.351-.738.451-.337.1-.807.105-1.408.014l-9.543.355zM722.45 106v-1.86h25.306V106z"/></g><path d="M408.127 195.367c-.82-.4-1.454-.961-1.9-1.681a6.34 6.34 0 0 1-.875-2.38 8.98 8.98 0 0 1 0-2.706c.136-.94.369-1.85.697-2.735.328-.884.729-1.69 1.203-2.42.474-.729.984-1.321 1.531-1.777 1.003-.766 1.932-1.221 2.79-1.367.856-.146 1.622-.064 2.296.246.675.31 1.263.802 1.764 1.476a8 8 0 0 1 1.176 2.311c.282.866.45 1.796.505 2.789a11.47 11.47 0 0 1-.205 2.912 9.405 9.405 0 0 1-.957 2.653 5.95 5.95 0 0 1-1.777 2.023c-.738.529-1.622.866-2.652 1.012-1.03.145-2.229.027-3.596-.356zm2.105-2.27c.766.074 1.454-.095 2.065-.505a5.053 5.053 0 0 0 1.517-1.613 7.366 7.366 0 0 0 .875-2.256 6.83 6.83 0 0 0 .11-2.42 5.225 5.225 0 0 0-.766-2.106c-.4-.629-.975-1.07-1.722-1.326-.456-.091-.935.055-1.436.438-.501.382-.957.897-1.367 1.545a9.653 9.653 0 0 0-1.012 2.187 7.734 7.734 0 0 0-.396 2.406c0 .793.164 1.518.492 2.174.328.656.875 1.149 1.64 1.477zm24.063-2.87c-.438-.055-.766-.196-.984-.424-.22-.228-.333-.474-.342-.739-.01-.264.077-.51.26-.738.182-.228.437-.369.765-.424.456.019.98.023 1.572.014a1255.116 1255.116 0 0 1 3.87-.055c.674-.009 1.33-.004 1.968.014.274-.018.492.046.657.191.164.146.278.329.341.547.064.219.069.456.014.711a1.638 1.638 0 0 1-.355.711l-7.766.192zm-.274-3.774c-.437-.055-.765-.196-.984-.424-.219-.228-.333-.474-.342-.738-.009-.264.078-.51.26-.738.182-.228.438-.37.766-.424.455.018.98.023 1.572.014a1255.114 1255.114 0 0 1 3.87-.055c.674-.01 1.33-.005 1.968.014.273-.019.492.045.656.191.164.146.278.328.342.547.064.219.068.456.014.71a1.638 1.638 0 0 1-.356.712l-7.766.191zM518.58 195.547c-.328.4-.693.656-1.094.766-.4.109-.765.095-1.093-.042-.329-.136-.584-.391-.766-.765-.182-.374-.21-.852-.082-1.436l-.137-17.992c.128-.273.333-.488.615-.642.283-.155.575-.233.875-.233.301 0 .57.078.807.233.237.154.365.396.383.724v7.3c.346-.491.642-.892.889-1.202.246-.31.505-.57.779-.78.273-.21.588-.373.943-.492.356-.118.798-.232 1.326-.341 1.003-.128 1.819.045 2.448.52.629.473 1.116 1.125 1.463 1.954.346.83.583 1.768.71 2.817.128 1.048.21 2.082.247 3.103.036 1.02.05 1.969.04 2.844-.009.875.023 1.54.096 1.996.146.565.128 1.048-.054 1.45-.183.4-.433.664-.752.792-.32.128-.666.096-1.04-.096-.373-.191-.67-.606-.888-1.244a15.986 15.986 0 0 1-.205-2.133 68.637 68.637 0 0 1-.041-2.392c0-.811-.014-1.6-.041-2.365a14.428 14.428 0 0 0-.205-2.051c-.11-.602-.278-1.09-.506-1.463-.228-.374-.552-.57-.97-.588a3.519 3.519 0 0 0-1.696.93 5.28 5.28 0 0 0-1.108 1.668 10.136 10.136 0 0 0-.642 2.16 20.658 20.658 0 0 0-.3 2.406c-.056.82-.078 1.627-.07 2.42.01.793.033 1.518.07 2.174z" fill="#000"/><path d="M476.855 153.051H496a1.5 1.5 0 1 1 0 3h-16.886l-7.102 24.695-7.096-9.847-2.573 5.454a1.5 1.5 0 1 1-2.713-1.28l4.743-10.057 6.463 8.966 6.019-20.93z" fill="#000" fill-rule="nonzero"/><path d="M489.438 167.208c1.458-.019 2.634.241 3.527.779.893.538 1.54 1.226 1.941 2.064.401.839.574 1.764.52 2.776a8.101 8.101 0 0 1-.738 2.953 8.639 8.639 0 0 1-1.805 2.57 6.64 6.64 0 0 1-2.707 1.627c-1.04.328-2.183.378-3.432.15-1.249-.227-2.575-.852-3.978-1.873a.616.616 0 0 1 .068-.574c.118-.182.278-.346.478-.492.201-.146.42-.269.657-.37.237-.1.437-.168.601-.204.711.547 1.463.884 2.256 1.012a5.186 5.186 0 0 0 2.256-.11c.711-.2 1.354-.542 1.928-1.025a4.936 4.936 0 0 0 1.312-1.682c.301-.638.429-1.33.383-2.078-.045-.747-.333-1.504-.861-2.27-.474-.437-.994-.729-1.559-.875a6.709 6.709 0 0 0-1.681-.218c-.556 0-1.085.027-1.586.082-.502.054-.93.064-1.286.027-.355-.036-.62-.16-.793-.369-.173-.21-.205-.588-.095-1.135.437-.237.911-.574 1.422-1.012.51-.437.993-.93 1.449-1.476a11.06 11.06 0 0 0 1.19-1.736c.337-.611.55-1.199.642-1.764-.164-.018-.474.004-.93.068a35.706 35.706 0 0 1-3.309.3c-.601.028-1.134.001-1.599-.081-.465-.082-.816-.232-1.053-.451s-.264-.547-.082-.985c.091-.236.224-.41.397-.519.173-.11.364-.182.574-.219.21-.036.424-.054.642-.054.22 0 .429-.01.63-.028a84.214 84.214 0 0 1 2.925-.205c.893-.045 1.668-.018 2.324.082.657.1 1.167.292 1.532.574.364.283.542.707.533 1.272-.01.565-.228 1.29-.656 2.174-.429.884-1.108 1.982-2.038 3.295z" fill="#000"/><path d="M461.096 187.86a1.5 1.5 0 0 1 0-3h41.012a1.5 1.5 0 0 1 0 3h-41.012z" fill="#000" fill-rule="nonzero"/><path d="M478.078 216.422c-.383.091-.688.055-.916-.11a1.149 1.149 0 0 1-.451-.642 1.58 1.58 0 0 1 .014-.848c.082-.3.26-.542.533-.724l5.687-11.813c.438-1.002.638-1.782.602-2.338-.037-.556-.219-.939-.547-1.148-.328-.21-.752-.264-1.271-.164-.52.1-1.049.31-1.586.629a6.77 6.77 0 0 0-1.477 1.19c-.447.473-.752.974-.916 1.503a.926.926 0 0 1-.643.041 1.367 1.367 0 0 1-.546-.314 1.197 1.197 0 0 1-.329-.534.844.844 0 0 1 .069-.642c.383-1.094.957-1.973 1.722-2.639.766-.665 1.595-1.126 2.489-1.38a5.867 5.867 0 0 1 2.625-.165c.856.146 1.55.492 2.078 1.04.528.546.83 1.284.902 2.214.073.93-.228 2.05-.902 3.363l-5.059 10.993c.748.073 1.5.082 2.256.027a38.276 38.276 0 0 0 2.27-.232c.756-.1 1.513-.187 2.27-.26a13.633 13.633 0 0 1 2.282-.028c.11-.018.228.046.356.192.127.146.232.332.314.56.082.228.119.47.11.725-.01.255-.091.483-.246.684-.155.2-.401.35-.739.45-.337.101-.806.106-1.408.014l-9.543.356zM546.495 184.678c0-2.926 1.244-4.389 3.733-4.389.93 0 2.023.255 3.28.766l1.067.437 1.258.492 1.271.493c1.003.4 1.75.601 2.243.601 1.33 0 1.996-.775 1.996-2.324v-.123h1.34c0 2.926-1.245 4.389-3.733 4.389-.93 0-2.023-.256-3.281-.766l-1.053-.438-1.258-.492a46.561 46.561 0 0 1-1.285-.506c-.993-.392-1.74-.588-2.242-.588-1.322 0-1.982.775-1.982 2.325v.123h-1.354zm0 6.07c0-2.926 1.244-4.389 3.733-4.389.93 0 2.023.256 3.28.766l1.067.438 1.258.492 1.271.492c1.003.4 1.75.601 2.243.601 1.33 0 1.996-.774 1.996-2.324v-.123h1.34c0 2.926-1.245 4.389-3.733 4.389-.93 0-2.023-.255-3.281-.766l-1.053-.437-1.258-.492a46.559 46.559 0 0 1-1.285-.506c-.993-.392-1.74-.588-2.242-.588-1.322 0-1.982.775-1.982 2.324v.123h-1.354zM589.852 195.625a4.81 4.81 0 0 1-2.393-1.354c-.665-.683-1.203-1.513-1.613-2.488a12.497 12.497 0 0 1-.848-3.213 16.51 16.51 0 0 1-.082-3.554 17.1 17.1 0 0 1 .67-3.528 11.453 11.453 0 0 1 1.435-3.09 8.473 8.473 0 0 1 2.215-2.27c.866-.6 1.855-.956 2.967-1.065 1.221.072 2.283.45 3.186 1.134a8.078 8.078 0 0 1 2.215 2.598c.574 1.048.98 2.228 1.216 3.54.237 1.313.306 2.63.205 3.952a15.056 15.056 0 0 1-.793 3.828c-.428 1.23-1.025 2.297-1.79 3.2a7.03 7.03 0 0 1-2.79 2.01c-1.093.437-2.36.537-3.8.3zm4.785-16.844c-.948-.82-1.832-1.217-2.653-1.19-.82.028-1.55.338-2.187.93-.638.593-1.171 1.4-1.6 2.42a13.19 13.19 0 0 0-.888 3.268 13.842 13.842 0 0 0-.055 3.473c.128 1.157.42 2.164.875 3.021.456.857 1.09 1.504 1.9 1.942.811.437 1.837.51 3.076.218a4.159 4.159 0 0 0 1.887-1.531 7.814 7.814 0 0 0 1.108-2.434c.246-.911.382-1.877.41-2.898.027-1.02-.028-2-.164-2.94a11.27 11.27 0 0 0-.657-2.542c-.3-.757-.651-1.336-1.052-1.737zm6.07 16.844c-.365-.31-.606-.665-.725-1.066-.118-.401-.118-.761 0-1.08.119-.32.351-.552.698-.698.346-.146.793-.118 1.34.082.437.401.66.807.67 1.217.009.41-.092.766-.301 1.066-.21.301-.483.506-.82.616-.338.11-.625.064-.862-.137zm7.137-.328c-1.003-.346-1.782-.916-2.338-1.71a5.967 5.967 0 0 1-1.04-2.597 6.513 6.513 0 0 1 .22-2.83 5.55 5.55 0 0 1 1.462-2.433c.019-.019-.095-.137-.341-.356a7.457 7.457 0 0 1-.82-.889 8.07 8.07 0 0 1-.862-1.353 5.03 5.03 0 0 1-.52-1.764c-.072-.647 0-1.344.22-2.092.218-.747.683-1.54 1.394-2.378a4.51 4.51 0 0 1 1.367-1.149 5.828 5.828 0 0 1 1.531-.574c.51-.11.994-.146 1.45-.11.455.037.838.124 1.148.26.31.137.515.315.615.533.1.22.06.456-.123.711-.164.22-.392.351-.684.397-.291.045-.61.077-.957.096-.346.018-.706.05-1.08.095a2.496 2.496 0 0 0-1.052.383c-.329.21-.616.529-.862.957-.246.429-.414 1.026-.506 1.791.019 1.057.183 1.86.493 2.406.31.547.701.898 1.175 1.053.474.155.994.137 1.559-.055a5.466 5.466 0 0 0 1.64-.916 7.615 7.615 0 0 0 1.436-1.517 6.1 6.1 0 0 0 .93-1.873 4.665 4.665 0 0 0 .15-1.969c-.09-.656-.4-1.267-.93-1.832.073-.146.215-.228.424-.246.21-.018.429-.005.657.041.227.046.433.11.615.191.182.082.292.15.328.205.73 1.586 1.053 3.09.97 4.512-.081 1.422-.605 2.908-1.572 4.457.967.766 1.641 1.613 2.024 2.543.383.93.538 1.85.465 2.762a5.821 5.821 0 0 1-.834 2.57 6.224 6.224 0 0 1-1.887 1.983c-.775.52-1.663.86-2.666 1.025-1.003.164-2.069.055-3.2-.328zm.465-2.05c.656.345 1.298.473 1.927.382a3.943 3.943 0 0 0 1.723-.684c.52-.364.957-.834 1.312-1.408.356-.574.588-1.18.698-1.818a4.323 4.323 0 0 0-.096-1.9c-.173-.63-.533-1.181-1.08-1.655a5.177 5.177 0 0 0-2.05-.082 5.91 5.91 0 0 0-1.901.629c-.574.31-1.062.71-1.463 1.203a3.569 3.569 0 0 0-.766 1.613c-.11.584-.036 1.194.219 1.832.255.638.747 1.267 1.477 1.887zm13.043 2.214c-1.003-.547-1.823-1.358-2.461-2.434-.638-1.075-1.021-2.424-1.149-4.047-.127-1.622.055-3.527.547-5.714.492-2.188 1.367-4.658 2.625-7.41.073-.329.237-.566.492-.711.255-.146.515-.187.78-.124.264.064.487.233.67.506.182.274.246.657.19 1.149-.418.948-.833 1.987-1.243 3.117-.41 1.13-.757 2.27-1.04 3.418a24.131 24.131 0 0 0-.587 3.363c-.11 1.094-.091 2.083.054 2.967.146.884.447 1.622.903 2.215.456.592 1.12.961 1.996 1.107-.51-1.203-.807-2.297-.889-3.281-.082-.984-.013-1.855.205-2.611.22-.757.552-1.39.998-1.9.447-.511.94-.894 1.477-1.15a3.677 3.677 0 0 1 1.654-.368c.565.009 1.085.155 1.559.437.474.283.861.702 1.162 1.258.3.556.451 1.262.451 2.12a6.57 6.57 0 0 1-.219 2.187c-.2.765-.487 1.504-.861 2.215a9.75 9.75 0 0 1-1.367 1.968 7.082 7.082 0 0 1-1.764 1.45 5.085 5.085 0 0 1-2.023.656c-.711.073-1.431-.055-2.16-.383zm3.773-3.254c.693-.328 1.212-.784 1.559-1.367.346-.583.556-1.19.629-1.819a5.308 5.308 0 0 0-.083-1.79c-.127-.566-.319-.98-.574-1.245-.255-.264-.542-.323-.861-.177-.32.145-.615.601-.889 1.367-.11.328-.182.715-.218 1.162a9.75 9.75 0 0 0-.014 1.367c.027.465.082.916.164 1.354.082.437.178.82.287 1.148zm9.133 3.254c-1.003-.547-1.823-1.358-2.461-2.434-.638-1.075-1.021-2.424-1.149-4.047-.127-1.622.055-3.527.547-5.714.493-2.188 1.367-4.658 2.625-7.41.073-.329.237-.566.492-.711.256-.146.515-.187.78-.124.264.064.487.233.67.506.182.274.246.657.191 1.149-.42.948-.834 1.987-1.244 3.117-.41 1.13-.757 2.27-1.04 3.418a24.131 24.131 0 0 0-.587 3.363c-.11 1.094-.091 2.083.055 2.967.146.884.446 1.622.902 2.215.456.592 1.121.961 1.996 1.107-.51-1.203-.806-2.297-.889-3.281-.082-.984-.013-1.855.206-2.611.218-.757.551-1.39.998-1.9.446-.511.938-.894 1.476-1.15a3.677 3.677 0 0 1 1.654-.368c.566.009 1.085.155 1.56.437.473.283.86.702 1.161 1.258.301.556.451 1.262.451 2.12a6.57 6.57 0 0 1-.218 2.187c-.2.765-.488 1.504-.862 2.215a9.75 9.75 0 0 1-1.367 1.968 7.082 7.082 0 0 1-1.764 1.45 5.085 5.085 0 0 1-2.023.656c-.711.073-1.431-.055-2.16-.383zm3.773-3.254c.693-.328 1.212-.784 1.559-1.367.346-.583.556-1.19.629-1.819a5.308 5.308 0 0 0-.082-1.79c-.128-.566-.32-.98-.574-1.245-.256-.264-.543-.323-.862-.177-.319.145-.615.601-.889 1.367-.109.328-.182.715-.218 1.162a9.75 9.75 0 0 0-.014 1.367c.027.465.082.916.164 1.354.082.437.178.82.287 1.148zm9.16 3.2c-.328.4-.692.655-1.093.765-.401.11-.766.096-1.094-.041-.328-.137-.583-.392-.766-.766-.182-.373-.21-.852-.082-1.435l-.136-17.993c.127-.273.332-.487.615-.642.282-.155.574-.232.875-.232.3 0 .57.077.806.232.237.155.365.396.383.725v7.3c.347-.492.643-.893.889-1.203.246-.31.506-.57.78-.78.273-.209.587-.373.943-.491.355-.119.797-.233 1.326-.342 1.002-.128 1.818.045 2.447.52.629.473 1.117 1.125 1.463 1.955.346.829.583 1.768.71 2.816.128 1.048.21 2.083.247 3.103.036 1.021.05 1.97.04 2.844-.008.875.024 1.54.097 1.996.145.565.127 1.048-.055 1.45-.182.4-.433.665-.752.792-.319.128-.665.096-1.04-.095-.373-.192-.669-.606-.888-1.244a15.986 15.986 0 0 1-.205-2.133 68.637 68.637 0 0 1-.04-2.393c0-.811-.015-1.6-.042-2.365a14.428 14.428 0 0 0-.205-2.05c-.11-.602-.278-1.09-.506-1.464-.228-.373-.551-.57-.97-.588a3.519 3.519 0 0 0-1.696.93 5.28 5.28 0 0 0-1.107 1.668 10.136 10.136 0 0 0-.643 2.16 20.658 20.658 0 0 0-.3 2.406c-.055.82-.078 1.627-.069 2.42.01.793.032 1.518.068 2.174z" fill="#000"/></g></svg>
