<svg viewBox="0 0 740 156" xmlns="http://www.w3.org/2000/svg"><g fill="none" fill-rule="evenodd"><path d="M6.47 67.015c-1.584 0-2.07.576-2.07 2.124v1.908h3.258v1.476H4.4v7.524H2.726v-7.524H.602v-1.476h2.124v-2.268c0-2.124 1.53-3.258 3.618-3.258.738 0 1.332.09 1.818.27l-.504 1.386c-.288-.108-.666-.162-1.188-.162zm8.172 13.23c-2.106 0-4.05-1.242-4.05-4.716 0-3.456 1.944-4.698 4.05-4.698 2.088 0 4.032 1.242 4.032 4.698 0 3.474-1.944 4.716-4.032 4.716zm0-1.494c1.116 0 2.268-.81 2.268-3.222 0-2.394-1.152-3.204-2.268-3.204-1.134 0-2.286.81-2.286 3.204 0 2.412 1.152 3.222 2.286 3.222zm11.7-7.902c2.088 0 3.15 1.188 3.15 4.122v5.076h-1.674V75.51c0-2.142-.18-3.168-1.836-3.168-1.476 0-2.304 1.134-2.538 1.728v5.976H21.77v-9h1.314l.252 1.206c.612-.864 1.656-1.404 3.006-1.404zM39.5 72.523h-3.222v4.968c0 1.134.45 1.368 1.026 1.368.558 0 1.332-.18 1.53-.216v1.404c-.144.018-.666.198-1.872.198s-2.358-.54-2.358-2.394v-5.328h-2.52v-1.476h2.52v-3.24h1.674v3.24H39.5v1.476zm4.752 1.314h5.364v1.476h-5.364v-1.476zm13.572 6.408c-1.35 0-3.186-.414-3.978-1.584l1.404-.936c.378.648 1.692 1.026 2.61 1.026 1.08 0 2.196-.306 2.196-1.17 0-.954-1.638-1.242-2.25-1.404-.918-.234-3.456-.882-3.51-2.844-.054-1.8 2.16-2.502 3.69-2.502 1.116 0 2.718.414 3.492 1.602l-1.368.882c-.414-.684-1.44-.99-2.124-.99-.738 0-1.926.252-1.926 1.062 0 .738 1.386 1.062 1.98 1.242.792.234 3.816.72 3.78 2.898-.036 1.944-2.196 2.718-3.996 2.718zm10.818-11.358a1.383 1.383 0 0 1-1.404-1.404c0-.792.612-1.404 1.404-1.404.792 0 1.404.612 1.404 1.404 0 .792-.612 1.404-1.404 1.404zm.882 9.684h2.502v1.476H67.85v-7.524h-3.024v-1.476h4.698v7.524zm8.442 0h5.13v1.476h-7.074V78.57l4.95-6.048h-4.806v-1.476h6.714v1.476l-4.914 6.048zm12.762-7.74c2.718 0 4.032 2.124 3.852 5.184h-6.318c.126 2.106 1.134 2.736 2.358 2.736.864 0 1.692-.36 2.232-1.242l1.476.81c-.864 1.386-2.304 1.926-3.654 1.926-2.052 0-4.194-1.242-4.194-4.716 0-3.51 2.142-4.698 4.248-4.698zm-2.412 3.708h4.446c-.162-1.476-.774-2.214-2.106-2.214-1.134 0-2.088.468-2.34 2.214zm12.6-.738c-.81 0-1.458-.648-1.458-1.458 0-.81.648-1.458 1.458-1.458.81 0 1.458.648 1.458 1.458 0 .81-.648 1.458-1.458 1.458zm0 6.444c-.81 0-1.458-.648-1.458-1.458 0-.81.648-1.458 1.458-1.458.81 0 1.458.648 1.458 1.458 0 .81-.648 1.458-1.458 1.458zm25.758-2.052c-.864 1.476-2.124 2.052-3.42 2.052-2.286 0-4.23-1.278-4.23-4.716 0-3.474 1.944-4.698 4.23-4.698 1.278 0 2.52.558 3.384 2.178l-1.548.81c-.486-1.08-1.152-1.494-1.89-1.494-1.314 0-2.412.882-2.412 3.204 0 2.286 1.098 3.222 2.412 3.222.738 0 1.404-.396 1.926-1.368l1.548.81zm11.484 1.098l-1.134 1.08-1.134-1.116c-.522.45-1.476.99-2.934.99-2.502 0-3.654-.936-3.654-2.952 0-1.998 1.278-2.934 4.014-2.934h2.124v-.63c0-1.062-.666-1.404-2.07-1.404-1.17 0-1.908.252-2.358.756l-1.116-1.098c.612-.612 1.89-1.152 3.6-1.152 2.268 0 3.618.9 3.618 2.538v4.878l1.044 1.044zm-7.182-1.998c0 1.08.63 1.476 2.286 1.476.846 0 1.746-.396 2.178-.846v-2.088h-1.512c-2.448 0-2.952.252-2.952 1.458zm15.192 1.566c.558 0 1.602-.18 1.8-.216v1.404c-.144.018-.936.198-2.142.198-1.116 0-2.628-.36-2.628-2.394V67.123h-2.826v-1.476h4.5V77.49c0 1.314.81 1.368 1.296 1.368zm12.906-.666c-.864 1.476-2.124 2.052-3.42 2.052-2.286 0-4.23-1.278-4.23-4.716 0-3.474 1.944-4.698 4.23-4.698 1.278 0 2.52.558 3.384 2.178l-1.548.81c-.486-1.08-1.152-1.494-1.89-1.494-1.314 0-2.412.882-2.412 3.204 0 2.286 1.098 3.222 2.412 3.222.738 0 1.404-.396 1.926-1.368l1.548.81zm8.478 5.868c-.108-.162-3.114-3.6-3.114-9.306 0-5.688 3.006-9.126 3.114-9.288l1.314.684c-.108.144-2.754 3.834-2.754 8.604 0 4.788 2.646 8.46 2.754 8.622l-1.314.684zm10.152-5.49h2.322v1.476h-6.48V78.57h2.484v-9.144l-2.322 1.386-.738-1.368 3.33-1.998h1.404V78.57zm10.044-6.93c2.466 0 3.726 1.494 3.726 4.248 0 2.718-1.53 4.356-3.996 4.356-2.646 0-4.23-1.548-4.23-6.102 0-4.716 2.538-6.66 4.986-6.804.882-.054 1.764.09 2.394.378l-.72 1.368c-.414-.216-1.062-.288-1.674-.252-1.242.072-2.718 1.296-3.114 3.888.684-.72 1.53-1.08 2.628-1.08zm-.27 7.11c1.494 0 2.232-1.296 2.232-2.862 0-1.602-.468-2.754-1.962-2.754-1.116 0-2.178.45-2.736 1.494.09 3.042.882 4.122 2.466 4.122zm11.412-7.92c2.268 0 3.51 1.44 3.51 4.734s-1.422 4.68-3.69 4.68c-1.242 0-2.124-.486-2.682-1.224v4.626h-1.674v-12.6h1.314l.36 1.278v.018c.63-.882 1.62-1.512 2.862-1.512zm-.54 7.92c1.656 0 2.376-.864 2.376-3.186s-.54-3.24-2.196-3.24c-1.35 0-2.304 1.134-2.502 1.926v2.808c.18.756.972 1.692 2.322 1.692zm14.976-7.704L210.5 75.51l2.826 4.536H211.4l-2.268-3.816h-.468l-2.268 3.816h-1.926l2.826-4.536-2.826-4.464h1.926l2.25 3.708h.504l2.25-3.708h1.926zm20.79 2.79v1.476h-2.736v2.754h-1.476v-2.754h-2.754v-1.476h2.754V71.1h1.476v2.736h2.736zm19.836 10.224c-.108-.162-3.114-3.6-3.114-9.306 0-5.688 3.006-9.126 3.114-9.288l1.314.684c-.108.144-2.754 3.834-2.754 8.604 0 4.788 2.646 8.46 2.754 8.622l-1.314.684zm10.17-7.848c-.882 1.026-2.016 2.052-2.466 2.358h5.058v1.476h-7.542V78.57c1.386-1.08 2.574-2.07 3.528-3.15 1.224-1.35 2.304-3.06 2.304-4.464 0-1.296-.774-2.124-1.962-2.124-1.098 0-2.016.63-2.394 1.494l-1.566-.81c.666-1.332 2.232-2.178 3.996-2.178 2.43 0 3.69 1.71 3.69 3.618 0 1.818-1.17 3.564-2.646 5.256zm10.8 0c-.882 1.026-2.016 2.052-2.466 2.358h5.058v1.476h-7.542V78.57c1.386-1.08 2.574-2.07 3.528-3.15 1.224-1.35 2.304-3.06 2.304-4.464 0-1.296-.774-2.124-1.962-2.124-1.098 0-2.016.63-2.394 1.494l-1.566-.81c.666-1.332 2.232-2.178 3.996-2.178 2.43 0 3.69 1.71 3.69 3.618 0 1.818-1.17 3.564-2.646 5.256zm17.73-2.376h5.364v1.476h-5.364v-1.476zm25.452 4.734h2.322v1.476h-6.48V78.57h2.484v-9.144l-2.322 1.386-.738-1.368 3.33-1.998h1.404V78.57zm10.044-6.93c2.466 0 3.726 1.494 3.726 4.248 0 2.718-1.53 4.356-3.996 4.356-2.646 0-4.23-1.548-4.23-6.102 0-4.716 2.538-6.66 4.986-6.804.882-.054 1.764.09 2.394.378l-.72 1.368c-.414-.216-1.062-.288-1.674-.252-1.242.072-2.718 1.296-3.114 3.888.684-.72 1.53-1.08 2.628-1.08zm-.27 7.11c1.494 0 2.232-1.296 2.232-2.862 0-1.602-.468-2.754-1.962-2.754-1.116 0-2.178.45-2.736 1.494.09 3.042.882 4.122 2.466 4.122zm8.604 5.31l-1.314-.684c.108-.162 2.754-3.834 2.754-8.622 0-4.77-2.646-8.46-2.754-8.604l1.314-.684c.108.162 3.114 3.6 3.114 9.288 0 5.706-3.006 9.144-3.114 9.306zm26.442-16.002l-1.836.504 1.206 1.494-1.062.774-1.062-1.62-1.062 1.62-1.062-.774 1.206-1.494-1.836-.504.396-1.242 1.8.684-.09-1.854h1.314l-.09 1.854 1.782-.684.396 1.242zm20.628 16.002c-.108-.162-3.114-3.6-3.114-9.306 0-5.688 3.006-9.126 3.114-9.288l1.314.684c-.108.144-2.754 3.834-2.754 8.604 0 4.788 2.646 8.46 2.754 8.622l-1.314.684zm10.8 0c-.108-.162-3.114-3.6-3.114-9.306 0-5.688 3.006-9.126 3.114-9.288l1.314.684c-.108.144-2.754 3.834-2.754 8.604 0 4.788 2.646 8.46 2.754 8.622l-1.314.684zm10.152-5.49h2.322v1.476h-6.48V78.57h2.484v-9.144l-2.322 1.386-.738-1.368 3.33-1.998h1.404V78.57zm9.72 1.674c-2.106 0-4.05-1.278-4.05-6.462 0-5.166 1.944-6.444 4.05-6.444 2.088 0 4.032 1.278 4.032 6.444 0 5.184-1.944 6.462-4.032 6.462zm0-1.494c1.116 0 2.268-.936 2.268-4.968 0-4.014-1.152-4.95-2.268-4.95-1.134 0-2.286.936-2.286 4.95 0 4.032 1.152 4.968 2.286 4.968zm0-3.492c-.522 0-.99-.288-.99-1.476 0-1.17.468-1.458.99-1.458.504 0 .972.288.972 1.458 0 1.188-.468 1.476-.972 1.476zm10.8 4.986c-2.106 0-4.05-1.278-4.05-6.462 0-5.166 1.944-6.444 4.05-6.444 2.088 0 4.032 1.278 4.032 6.444 0 5.184-1.944 6.462-4.032 6.462zm0-1.494c1.116 0 2.268-.936 2.268-4.968 0-4.014-1.152-4.95-2.268-4.95-1.134 0-2.286.936-2.286 4.95 0 4.032 1.152 4.968 2.286 4.968zm0-3.492c-.522 0-.99-.288-.99-1.476 0-1.17.468-1.458.99-1.458.504 0 .972.288.972 1.458 0 1.188-.468 1.476-.972 1.476zm12.726-4.212h1.746l-2.196 9h-2.952l-2.196-9h1.746l1.692 7.524h.468l1.692-7.524zm11.736 0h1.62l-1.134 9h-2.016l-1.404-5.796-1.404 5.796h-2.016l-1.134-9h1.62l.738 6.876 1.422-6.876h1.548l1.422 6.876.738-6.876zm15.966 2.79h5.364v1.476h-5.364v-1.476zm26.334-.252c1.494.468 2.196 1.566 2.196 2.934 0 2.322-1.53 3.726-4.05 3.726-1.962 0-3.546-.81-4.23-2.178l1.566-.81c.396.9 1.44 1.494 2.664 1.494 1.53 0 2.268-.9 2.268-2.232 0-1.188-.594-2.106-2.574-2.106h-.504v-1.476h.504c1.98 0 2.322-1.134 2.322-2.25 0-1.332-.738-1.854-2.106-1.854-1.062 0-1.962.63-2.34 1.494l-1.566-.81c.666-1.332 2.106-2.178 3.906-2.178 2.358 0 3.888 1.206 3.888 3.348 0 1.242-.576 2.286-1.944 2.898zm9.936 2.628c-.882 1.026-2.016 2.052-2.466 2.358h5.058v1.476h-7.542V78.57c1.386-1.08 2.574-2.07 3.528-3.15 1.224-1.35 2.304-3.06 2.304-4.464 0-1.296-.774-2.124-1.962-2.124-1.098 0-2.016.63-2.394 1.494l-1.566-.81c.666-1.332 2.232-2.178 3.996-2.178 2.43 0 3.69 1.71 3.69 3.618 0 1.818-1.17 3.564-2.646 5.256zm9.702 4.032c-2.106 0-4.05-1.278-4.05-6.462 0-5.166 1.944-6.444 4.05-6.444 2.088 0 4.032 1.278 4.032 6.444 0 5.184-1.944 6.462-4.032 6.462zm0-1.494c1.116 0 2.268-.936 2.268-4.968 0-4.014-1.152-4.95-2.268-4.95-1.134 0-2.286.936-2.286 4.95 0 4.032 1.152 4.968 2.286 4.968zm0-3.492c-.522 0-.99-.288-.99-1.476 0-1.17.468-1.458.99-1.458.504 0 .972.288.972 1.458 0 1.188-.468 1.476-.972 1.476zm11.466-4.428c2.268 0 3.51 1.44 3.51 4.734s-1.422 4.68-3.69 4.68c-1.242 0-2.124-.486-2.682-1.224v4.626h-1.674v-12.6h1.314l.36 1.278v.018c.63-.882 1.62-1.512 2.862-1.512zm-.54 7.92c1.656 0 2.376-.864 2.376-3.186s-.54-3.24-2.196-3.24c-1.35 0-2.304 1.134-2.502 1.926v2.808c.18.756.972 1.692 2.322 1.692zm14.976-7.704L534.5 75.51l2.826 4.536H535.4l-2.268-3.816h-.468l-2.268 3.816h-1.926l2.826-4.536-2.826-4.464h1.926l2.25 3.708h.504l2.25-3.708h1.926zm4.356 13.014l-1.314-.684c.108-.162 2.754-3.834 2.754-8.622 0-4.77-2.646-8.46-2.754-8.604l1.314-.684c.108.162 3.114 3.6 3.114 9.288 0 5.706-3.006 9.144-3.114 9.306zm26.694-18.414l-4.482 16.956h-1.44l4.482-16.956h1.44zm20.376 18.414c-.108-.162-3.114-3.6-3.114-9.306 0-5.688 3.006-9.126 3.114-9.288l1.314.684c-.108.144-2.754 3.834-2.754 8.604 0 4.788 2.646 8.46 2.754 8.622l-1.314.684zm10.152-5.49h2.322v1.476h-6.48V78.57h2.484v-9.144l-2.322 1.386-.738-1.368 3.33-1.998h1.404V78.57zm10.818-2.358c-.882 1.026-2.016 2.052-2.466 2.358h5.058v1.476h-7.542V78.57c1.386-1.08 2.574-2.07 3.528-3.15 1.224-1.35 2.304-3.06 2.304-4.464 0-1.296-.774-2.124-1.962-2.124-1.098 0-2.016.63-2.394 1.494l-1.566-.81c.666-1.332 2.232-2.178 3.996-2.178 2.43 0 3.69 1.71 3.69 3.618 0 1.818-1.17 3.564-2.646 5.256zm12.222-2.88c1.008.594 1.71 1.62 1.71 3.096 0 2.574-1.764 3.816-4.212 3.816-2.466 0-4.23-1.242-4.23-3.816 0-1.476.702-2.502 1.71-3.096-.702-.576-1.17-1.44-1.17-2.574 0-2.196 1.584-3.438 3.69-3.438 2.088 0 3.672 1.242 3.672 3.438 0 1.134-.468 1.998-1.17 2.574zm-4.428-2.574c0 1.152.612 1.908 1.926 1.908 1.296 0 1.908-.756 1.908-1.908 0-1.134-.612-1.944-1.908-1.944-1.314 0-1.926.81-1.926 1.944zm1.926 7.992c1.476 0 2.448-.81 2.448-2.322 0-1.494-1.152-2.268-2.448-2.268-1.314 0-2.466.774-2.466 2.268 0 1.512.972 2.322 2.466 2.322zm10.782 1.494c-2.106 0-4.05-1.278-4.05-6.462 0-5.166 1.944-6.444 4.05-6.444 2.088 0 4.032 1.278 4.032 6.444 0 5.184-1.944 6.462-4.032 6.462zm0-1.494c1.116 0 2.268-.936 2.268-4.968 0-4.014-1.152-4.95-2.268-4.95-1.134 0-2.286.936-2.286 4.95 0 4.032 1.152 4.968 2.286 4.968zm0-3.492c-.522 0-.99-.288-.99-1.476 0-1.17.468-1.458.99-1.458.504 0 .972.288.972 1.458 0 1.188-.468 1.476-.972 1.476zm18.828-1.422h5.364v1.476h-5.364v-1.476zm26.334-.252c1.494.468 2.196 1.566 2.196 2.934 0 2.322-1.53 3.726-4.05 3.726-1.962 0-3.546-.81-4.23-2.178l1.566-.81c.396.9 1.44 1.494 2.664 1.494 1.53 0 2.268-.9 2.268-2.232 0-1.188-.594-2.106-2.574-2.106h-.504v-1.476h.504c1.98 0 2.322-1.134 2.322-2.25 0-1.332-.738-1.854-2.106-1.854-1.062 0-1.962.63-2.34 1.494l-1.566-.81c.666-1.332 2.106-2.178 3.906-2.178 2.358 0 3.888 1.206 3.888 3.348 0 1.242-.576 2.286-1.944 2.898zm9.936 2.628c-.882 1.026-2.016 2.052-2.466 2.358h5.058v1.476h-7.542V78.57c1.386-1.08 2.574-2.07 3.528-3.15 1.224-1.35 2.304-3.06 2.304-4.464 0-1.296-.774-2.124-1.962-2.124-1.098 0-2.016.63-2.394 1.494l-1.566-.81c.666-1.332 2.232-2.178 3.996-2.178 2.43 0 3.69 1.71 3.69 3.618 0 1.818-1.17 3.564-2.646 5.256zm9.702 4.032c-2.106 0-4.05-1.278-4.05-6.462 0-5.166 1.944-6.444 4.05-6.444 2.088 0 4.032 1.278 4.032 6.444 0 5.184-1.944 6.462-4.032 6.462zm0-1.494c1.116 0 2.268-.936 2.268-4.968 0-4.014-1.152-4.95-2.268-4.95-1.134 0-2.286.936-2.286 4.95 0 4.032 1.152 4.968 2.286 4.968zm0-3.492c-.522 0-.99-.288-.99-1.476 0-1.17.468-1.458.99-1.458.504 0 .972.288.972 1.458 0 1.188-.468 1.476-.972 1.476zm8.658 8.802l-1.314-.684c.108-.162 2.754-3.834 2.754-8.622 0-4.77-2.646-8.46-2.754-8.604l1.314-.684c.108.162 3.114 3.6 3.114 9.288 0 5.706-3.006 9.144-3.114 9.306zm10.8 0l-1.314-.684c.108-.162 2.754-3.834 2.754-8.622 0-4.77-2.646-8.46-2.754-8.604l1.314-.684c.108.162 3.114 3.6 3.114 9.288 0 5.706-3.006 9.144-3.114 9.306zm10.8 0l-1.314-.684c.108-.162 2.754-3.834 2.754-8.622 0-4.77-2.646-8.46-2.754-8.604l1.314-.684c.108.162 3.114 3.6 3.114 9.288 0 5.706-3.006 9.144-3.114 9.306zm12.834-10.26c-.81 0-1.458-.648-1.458-1.458 0-.81.648-1.458 1.458-1.458.81 0 1.458.648 1.458 1.458 0 .81-.648 1.458-1.458 1.458zm-.144 3.654c.792 0 1.422.63 1.422 1.404 0 .198-.036.396-.108.558h.018l-1.242 3.006-1.134-.486.54-1.728a1.417 1.417 0 0 1-.918-1.35c0-.774.63-1.404 1.422-1.404z" fill="#000"/><path d="M194.5 57.492l36.166-36.166M204.258 51.977l-9.758 5.515 5.515-9.758M317.254 57.992l-31.83-36.162M312.37 47.903l4.884 10.09-9.388-6.126M307.339 129.21l-31.83-36.163M284.897 99.172l-9.388-6.125 4.884 10.089M509.469 57.492l36.166-36.166M519.227 51.977l-9.758 5.515 5.515-9.758M579.469 128.71l36.166-36.167M610.12 102.3l5.515-9.757-9.758 5.515M682.223 57.992l-31.83-36.162M677.339 47.903l4.884 10.09-9.388-6.126" stroke="#979797" stroke-width="2" stroke-linecap="square"/><path d="M199.966 13.219c.082.293.044.539-.114.738a1.25 1.25 0 0 1-1.292.44.643.643 0 0 1-.475-.44l-.088-10.336c-.469.516-.9 1.075-1.292 1.679a31.088 31.088 0 0 0-1.116 1.854c-.352.633-.694 1.26-1.028 1.881a27.28 27.28 0 0 1-1.029 1.758c-.199.223-.41.357-.633.404-.222.047-.439.035-.65-.035a1.723 1.723 0 0 1-.589-.343 1.79 1.79 0 0 1-.43-.553l-1.97-5.01a125.424 125.424 0 0 0 .044 5.15c.018.563.039 1.011.062 1.345a11.105 11.105 0 0 0 .15 1.248c.017.1.032.196.044.29.023.258-.056.448-.238.571-.181.123-.39.185-.624.185a1.36 1.36 0 0 1-.659-.167c-.205-.111-.32-.273-.343-.483l-.457-12.27c0-.094.07-.179.211-.255.14-.076.299-.12.475-.132.176-.011.348.018.518.088.17.07.29.205.36.404a88.859 88.859 0 0 1 1.89 3.718 94.054 94.054 0 0 1 1.697 3.753c.375-.527.758-1.128 1.151-1.802.393-.673.785-1.344 1.178-2.012.392-.668.785-1.304 1.177-1.908.393-.603.783-1.098 1.17-1.485.386-.387.77-.639 1.15-.756.382-.117.76-.023 1.135.282l.615 12.199zm3.04-.774c.083.223.11.44.08.65-.03.212-.097.4-.202.563a1.186 1.186 0 0 1-.396.387.819.819 0 0 1-.483.123.765.765 0 0 1-.466-.22c-.146-.135-.26-.354-.343-.659-.023-.082-.044-.284-.061-.606-.018-.323-.032-.7-.044-1.134-.012-.434-.024-.9-.035-1.398a401.37 401.37 0 0 0-.035-1.397 123.67 123.67 0 0 0-.036-1.134c-.011-.322-.029-.53-.052-.624-.082-.574-.088-1.04-.018-1.397.07-.358.179-.627.325-.809.147-.182.314-.281.501-.299a.731.731 0 0 1 .519.15c.158.117.284.296.378.536.093.24.123.524.088.852l.28 6.416zm-1.265-9.351c-.258-.2-.413-.42-.466-.66a.981.981 0 0 1 .053-.641.791.791 0 0 1 .422-.404c.193-.082.401-.07.624.035.258.14.416.34.475.597.058.258.047.496-.036.712a.85.85 0 0 1-.413.475c-.193.1-.413.062-.659-.114zm4.483 10.02c0 .363-.097.606-.29.729a.857.857 0 0 1-.633.123 1.332 1.332 0 0 1-.633-.308.866.866 0 0 1-.325-.58c.023-1.195.026-2.47.009-3.823a162.02 162.02 0 0 0-.115-4.263c.094-.316.255-.515.484-.597a.717.717 0 0 1 .659.079c.21.134.372.375.483.72.112.346.097.788-.044 1.327.75-1.101 1.453-1.822 2.11-2.162.656-.34 1.26-.41 1.81-.21.551.199 1.034.606 1.45 1.221a8.706 8.706 0 0 1 1.029 2.136c.27.808.454 1.655.553 2.54.1.885.103 1.696.01 2.434.011.305-.08.534-.273.686a1.149 1.149 0 0 1-.633.255.943.943 0 0 1-.624-.167c-.188-.129-.27-.328-.246-.598.082-1.476.05-2.672-.097-3.586-.146-.914-.357-1.596-.633-2.048-.275-.45-.594-.7-.958-.747-.363-.046-.73.05-1.098.29-.37.24-.721.601-1.055 1.081a6.527 6.527 0 0 0-.809 1.618 7.443 7.443 0 0 0-.377 1.907 4.919 4.919 0 0 0 .246 1.942zm9.738-.669c.082.223.108.44.079.65-.03.212-.097.4-.202.563a1.186 1.186 0 0 1-.396.387.819.819 0 0 1-.483.123.765.765 0 0 1-.466-.22c-.146-.135-.26-.354-.343-.659-.023-.082-.044-.284-.061-.606-.018-.323-.032-.7-.044-1.134-.012-.434-.024-.9-.035-1.398a401.37 401.37 0 0 0-.035-1.397 123.67 123.67 0 0 0-.036-1.134c-.011-.322-.029-.53-.052-.624-.082-.574-.088-1.04-.018-1.397.07-.358.179-.627.325-.809.147-.182.314-.281.501-.299a.731.731 0 0 1 .519.15c.158.117.284.296.378.536.094.24.123.524.088.852l.28 6.416zm-1.266-9.351c-.258-.2-.413-.42-.466-.66a.981.981 0 0 1 .053-.641.791.791 0 0 1 .422-.404c.193-.082.401-.07.624.035.258.14.416.34.475.597.058.258.047.496-.035.712a.85.85 0 0 1-.414.475c-.193.1-.413.062-.659-.114zm4.992 10.213c-.058.27-.193.463-.404.58-.21.117-.436.175-.677.175-.24 0-.468-.058-.685-.175a.86.86 0 0 1-.43-.492 70.447 70.447 0 0 1-.045-2.11c-.006-.785-.02-1.573-.044-2.364a38.785 38.785 0 0 0-.132-2.276c-.064-.727-.16-1.336-.29-1.829a1.088 1.088 0 0 1 .123-.659.854.854 0 0 1 .414-.378.749.749 0 0 1 .562.01c.205.075.39.236.554.482l.228 1.688c.387-.633.826-1.066 1.319-1.3.492-.235.958-.294 1.397-.177.44.118.823.399 1.151.844.329.445.528 1.031.598 1.758.024-.2.135-.445.334-.738.2-.293.454-.59.765-.888.31-.299.656-.568 1.037-.809.38-.24.765-.41 1.151-.51.387-.099.762-.099 1.125 0 .364.1.68.343.95.73.14.223.26.533.36.932.1.398.181.84.246 1.327.064.486.123.996.176 1.53l.15 1.537c.046.493.099.95.157 1.371.059.422.135.762.229 1.02.035.352-.02.653-.167.905-.147.252-.325.422-.536.51a.789.789 0 0 1-.65-.018c-.223-.1-.4-.319-.528-.659.047-1.781-.02-3.21-.202-4.289-.182-1.078-.42-1.846-.712-2.303-.293-.457-.618-.63-.976-.518-.357.111-.685.466-.984 1.063-.299.598-.548 1.41-.747 2.435-.2 1.025-.287 2.224-.264 3.595-.082.234-.196.404-.343.51a.81.81 0 0 1-.483.158 1.16 1.16 0 0 1-.545-.15 1.779 1.779 0 0 1-.51-.413c.036-1.23-.02-2.323-.167-3.278-.146-.955-.337-1.714-.57-2.277-.235-.562-.487-.91-.757-1.045-.27-.135-.51 0-.72.404-.211.404-.367 1.101-.466 2.092-.1.99-.097 2.323.008 3.999zm14.063.632a2.91 2.91 0 0 1-1.266-.852 4.858 4.858 0 0 1-.826-1.371 8.728 8.728 0 0 1-.483-1.679 15.626 15.626 0 0 1-.229-1.793 21.664 21.664 0 0 1-.052-1.714c.005-.545.02-1.022.043-1.432.024-.223.109-.387.255-.493a.898.898 0 0 1 .51-.167c.193-.005.384.033.571.115.188.082.334.193.44.334.082.117.138.363.167.738.03.375.053.812.07 1.31.018.498.041 1.02.07 1.564.03.545.088 1.055.176 1.53.088.474.214.881.378 1.221.164.34.399.54.703.598.47-.012.841-.147 1.117-.405.275-.257.474-.594.597-1.01.123-.416.185-.885.185-1.407 0-.521-.035-1.051-.106-1.59-.07-.54-.16-1.061-.272-1.565a49.932 49.932 0 0 0-.308-1.318c-.058-.282-.014-.463.132-.545.147-.082.331-.103.554-.062.222.041.45.12.685.238.235.117.405.24.51.369.246.515.44 1.119.58 1.81a10.002 10.002 0 0 1-.07 4.263 5.485 5.485 0 0 1-.774 1.828 3.548 3.548 0 0 1-1.362 1.204c-.557.281-1.222.375-1.995.281zm7.84-.632c-.059.27-.194.463-.404.58-.211.117-.437.175-.677.175-.24 0-.469-.058-.686-.175a.86.86 0 0 1-.43-.492 70.45 70.45 0 0 1-.044-2.11c-.006-.785-.02-1.573-.044-2.364a38.786 38.786 0 0 0-.132-2.276c-.065-.727-.161-1.336-.29-1.829a1.088 1.088 0 0 1 .123-.659.854.854 0 0 1 .413-.378.749.749 0 0 1 .562.01c.206.075.39.236.554.482l.229 1.688c.386-.633.826-1.066 1.318-1.3.492-.235.958-.294 1.397-.177.44.118.824.399 1.152.844.328.445.527 1.031.597 1.758.024-.2.135-.445.334-.738.2-.293.455-.59.765-.888.31-.299.656-.568 1.037-.809.381-.24.765-.41 1.152-.51.386-.099.761-.099 1.125 0 .363.1.68.343.949.73.14.223.26.533.36.932.1.398.182.84.246 1.327.065.486.123.996.176 1.53.053.532.103 1.045.15 1.537.046.493.1.95.158 1.371.058.422.134.762.228 1.02.035.352-.02.653-.167.905-.146.252-.325.422-.536.51a.789.789 0 0 1-.65-.018c-.223-.1-.399-.319-.528-.659.047-1.781-.02-3.21-.202-4.289-.181-1.078-.419-1.846-.712-2.303-.293-.457-.618-.63-.975-.518-.358.111-.686.466-.985 1.063-.299.598-.548 1.41-.747 2.435-.199 1.025-.287 2.224-.263 3.595-.082.234-.197.404-.343.51a.81.81 0 0 1-.484.158 1.16 1.16 0 0 1-.545-.15 1.779 1.779 0 0 1-.51-.413c.036-1.23-.02-2.323-.166-3.278-.147-.955-.337-1.714-.572-2.277-.234-.562-.486-.91-.755-1.045-.27-.135-.51 0-.721.404-.211.404-.366 1.101-.466 2.092-.1.99-.097 2.323.009 3.999zm22.482-3.446c-.047-.035-.164-.061-.351-.079l-.642-.061a6.487 6.487 0 0 1-.73-.115 2.102 2.102 0 0 1-.623-.228.632.632 0 0 1-.317-.396c-.04-.164.027-.375.202-.632a.848.848 0 0 1 .334-.326c.14-.076.293-.131.457-.167.164-.035.331-.052.501-.052.17 0 .331.011.484.035-.2-1.336-.226-2.458-.08-3.366.147-.909.402-1.641.765-2.198.364-.556.803-.958 1.319-1.204a3.4 3.4 0 0 1 1.555-.351 3.613 3.613 0 0 1 1.486.351c.468.223.843.516 1.125.88a.481.481 0 0 1 .193.491c-.035.2-.123.381-.264.545-.14.164-.307.279-.5.343-.194.065-.367.015-.52-.15-.48-.55-.92-.867-1.318-.949-.398-.082-.747-.008-1.045.22-.3.229-.548.574-.748 1.037-.199.463-.34.958-.421 1.486a6.445 6.445 0 0 0-.053 1.573c.047.521.158.958.334 1.31l2.742-.018c.188.117.331.272.43.466.1.193.159.386.176.58.018.193 0 .366-.052.518-.053.153-.138.252-.255.3l-2.408.122c.023.106.082.296.175.571.094.276.194.59.3.94.105.352.198.725.28 1.117.083.393.124.765.124 1.116a.92.92 0 0 1-.431.501c-.193.1-.39.15-.589.15-.2 0-.39-.053-.571-.159a.833.833 0 0 1-.378-.457l-.686-3.744zm7.242 3.815a2.894 2.894 0 0 1-1.221-1.081 4.076 4.076 0 0 1-.563-1.53 5.773 5.773 0 0 1 0-1.74 8.6 8.6 0 0 1 .448-1.758c.211-.568.47-1.087.774-1.555.305-.469.633-.85.984-1.143.645-.492 1.242-.785 1.793-.879.551-.094 1.043-.04 1.477.158.433.2.811.516 1.134.95.322.433.574.928.755 1.485.182.557.29 1.154.326 1.793a7.373 7.373 0 0 1-.132 1.872 6.046 6.046 0 0 1-.615 1.705c-.288.527-.668.961-1.143 1.3-.475.34-1.043.558-1.705.651-.662.094-1.433.018-2.312-.228zm1.354-1.46c.492.048.935-.06 1.327-.324.393-.264.718-.61.976-1.038.257-.427.445-.91.562-1.45.117-.539.14-1.057.07-1.555a3.359 3.359 0 0 0-.492-1.354 2.057 2.057 0 0 0-1.107-.852c-.293-.059-.6.035-.923.28a3.767 3.767 0 0 0-.879.994c-.264.416-.48.885-.65 1.406a4.972 4.972 0 0 0-.255 1.547c0 .51.105.976.316 1.398.211.421.563.738 1.055.949zm7.207.897c0 .364-.097.607-.29.73a.857.857 0 0 1-.633.123 1.332 1.332 0 0 1-.633-.308.866.866 0 0 1-.325-.58c.024-1.195.026-2.47.009-3.823a162.021 162.021 0 0 0-.114-4.263c.093-.316.255-.515.483-.597a.717.717 0 0 1 .66.079c.21.134.371.375.483.72.111.346.096.788-.044 1.327.75-1.101 1.453-1.822 2.11-2.162.655-.34 1.259-.41 1.81-.21.55.199 1.034.606 1.45 1.221a8.706 8.706 0 0 1 1.028 2.136c.27.808.454 1.655.554 2.54.1.885.102 1.696.009 2.434.011.305-.08.534-.273.686a1.149 1.149 0 0 1-.633.255.943.943 0 0 1-.624-.167c-.187-.129-.27-.328-.246-.598.082-1.476.05-2.672-.096-3.586-.147-.914-.358-1.596-.633-2.048-.276-.45-.595-.7-.958-.747-.364-.046-.73.05-1.099.29s-.72.601-1.055 1.081a6.527 6.527 0 0 0-.808 1.618 7.443 7.443 0 0 0-.378 1.907 4.919 4.919 0 0 0 .246 1.942zm10.828-5.748c-.058.024-.082.158-.07.405.012.246.038.556.079.931.04.375.09.797.15 1.266.058.469.099.931.122 1.388.024.458.02.888-.008 1.292-.03.405-.103.736-.22.994-.117.257-.29.419-.519.483-.228.064-.536-.009-.923-.22l-.421-6.539a3.686 3.686 0 0 0-.633-.07c-.164 0-.32.009-.466.026-.147.018-.308.035-.483.053a3.905 3.905 0 0 1-.686-.009c-.211-.129-.346-.293-.404-.492-.059-.2-.01-.395.15-.589.157-.193.439-.357.843-.492.404-.135.964-.202 1.679-.202.082-.047.105-.226.07-.536-.035-.31-.082-.677-.14-1.099a17.922 17.922 0 0 1-.133-1.318c-.029-.457.003-.85.097-1.178.094-.328.273-.55.536-.668.264-.117.66-.053 1.187.193.011.657.023 1.207.035 1.653.012.445.023.817.035 1.116.012.299.023.536.035.712a16.218 16.218 0 0 0 .07.782c.012.1.024.22.036.36.246.012.471.01.676-.008l.598-.053c.193-.018.393-.032.598-.044.205-.012.43-.012.677 0 .257.059.445.164.562.316a.749.749 0 0 1 .167.493.806.806 0 0 1-.21.5 1.259 1.259 0 0 1-.537.36l-2.549.194zm12.27 6.24a1.059 1.059 0 0 1-.44-.228.974.974 0 0 1-.299-.413.698.698 0 0 1 .027-.519c.076-.187.255-.369.536-.545.152.141.404.261.756.36.351.1.735.168 1.151.203.416.035.83.038 1.24.009.41-.03.752-.097 1.028-.202.275-.106.448-.25.518-.431.07-.182-.03-.407-.299-.677a45.982 45.982 0 0 0-2.047-1.31 11.863 11.863 0 0 1-1.477-1.019 4.27 4.27 0 0 1-.967-1.107c-.24-.405-.413-.923-.518-1.556-.036-.516.088-.94.369-1.274a2.61 2.61 0 0 1 1.09-.756c.445-.17.943-.261 1.494-.273.55-.012 1.087.05 1.608.185.522.135.993.337 1.415.606.422.27.727.598.914.985a.89.89 0 0 1-.026.483 1.011 1.011 0 0 1-.237.378.993.993 0 0 1-.396.237 1.103 1.103 0 0 1-.5.044c-.364-.457-.76-.788-1.187-.993-.428-.205-.832-.313-1.213-.325-.381-.012-.7.067-.958.237a.835.835 0 0 0-.405.694c-.011.293.132.64.431 1.038s.817.826 1.556 1.283c1.054.633 1.837 1.221 2.346 1.766.51.545.797 1.032.862 1.46a1.2 1.2 0 0 1-.378 1.098c-.317.305-.768.533-1.354.686-.586.152-1.28.222-2.083.21a12.03 12.03 0 0 1-2.557-.334zm9.175-1.16c.082.223.109.44.08.65-.03.212-.097.4-.203.563a1.186 1.186 0 0 1-.395.387.819.819 0 0 1-.484.123.765.765 0 0 1-.465-.22c-.147-.135-.261-.354-.343-.659-.024-.082-.044-.284-.062-.606-.017-.323-.032-.7-.044-1.134l-.035-1.398a401.37 401.37 0 0 0-.035-1.397 123.67 123.67 0 0 0-.035-1.134c-.012-.322-.03-.53-.053-.624-.082-.574-.088-1.04-.017-1.397.07-.358.178-.627.325-.809.146-.182.313-.281.5-.299a.731.731 0 0 1 .52.15c.158.117.284.296.377.536.094.24.123.524.088.852l.281 6.416zm-1.265-9.351c-.258-.2-.413-.42-.466-.66a.981.981 0 0 1 .053-.641.791.791 0 0 1 .422-.404c.193-.082.4-.07.624.035.257.14.416.34.474.597.059.258.047.496-.035.712a.85.85 0 0 1-.413.475c-.193.1-.413.062-.66-.114zm3.111 10.74a.965.965 0 0 1-.351-.246 2.173 2.173 0 0 1-.334-.43 1.307 1.307 0 0 1-.176-.484.45.45 0 0 1 .123-.404c.984-.88 1.77-1.65 2.355-2.312.586-.662 1.032-1.23 1.336-1.705.305-.475.504-.873.598-1.195.094-.323.146-.59.158-.8.012-.14-.138-.24-.448-.299a6.596 6.596 0 0 0-1.116-.097c-.434-.006-.88.003-1.336.027-.457.023-.826.047-1.108.07-.457-.328-.668-.642-.633-.94.036-.3.317-.554.844-.765 1.465-.129 2.634-.144 3.507-.044.873.1 1.503.302 1.89.606.386.305.565.7.536 1.187-.03.486-.211 1.046-.545 1.679-.334.632-.788 1.327-1.362 2.083a68.406 68.406 0 0 1-1.916 2.4l3.726-.282c.246.082.413.217.501.404a.886.886 0 0 1 .062.589c-.047.205-.159.39-.334.554-.176.164-.405.27-.686.316l-5.29.088zm14.608-1.723c-.211.399-.493.73-.844.993a3.74 3.74 0 0 1-1.16.59 4.52 4.52 0 0 1-2.672-.035c-.434-.141-.841-.34-1.222-.598-.38-.258-.7-.575-.958-.95a7.396 7.396 0 0 1-.861-2.373c-.153-.843-.147-1.64.017-2.39a4.266 4.266 0 0 1 1.002-1.97c.504-.562 1.207-.937 2.11-1.124.855-.059 1.532.044 2.03.308.498.263.838.62 1.02 1.072.181.451.216.952.105 1.503a4.298 4.298 0 0 1-.712 1.608 5.447 5.447 0 0 1-1.441 1.389c-.598.404-1.29.682-2.075.835.235.386.501.665.8.835.299.17.612.272.94.307.329.035.654.015.976-.061a6.19 6.19 0 0 0 .897-.281 14.1 14.1 0 0 0 .73-.317c.21-.1.362-.167.456-.202.422-.129.71-.129.862 0 .152.129.152.416 0 .861zm-4.659-6.275c-.28.21-.527.451-.738.72-.21.27-.38.557-.51.862a3.557 3.557 0 0 0-.255.95 3.14 3.14 0 0 0 .027.966c.492-.07.934-.223 1.327-.457.393-.234.72-.501.984-.8.264-.299.454-.606.572-.923.117-.316.149-.591.096-.826-.052-.234-.202-.404-.448-.51-.246-.105-.598-.1-1.055.018z" fill="#D0021B"/><path d="M251.688 149.436c.082.293.043.539-.115.738a1.25 1.25 0 0 1-1.292.44.643.643 0 0 1-.474-.44l-.088-10.336c-.469.516-.9 1.075-1.292 1.679a31.088 31.088 0 0 0-1.116 1.854c-.352.633-.695 1.26-1.029 1.881a27.279 27.279 0 0 1-1.028 1.758c-.2.223-.41.357-.633.404-.223.047-.44.035-.65-.035a1.723 1.723 0 0 1-.59-.343 1.79 1.79 0 0 1-.43-.554l-1.969-5.01a125.436 125.436 0 0 0 .044 5.15c.018.564.038 1.012.062 1.346a11.104 11.104 0 0 0 .15 1.248c.017.1.032.196.043.29.024.258-.055.448-.237.571-.182.123-.39.185-.624.185a1.36 1.36 0 0 1-.66-.167c-.204-.112-.319-.273-.342-.484l-.457-12.27c0-.093.07-.178.21-.254.142-.076.3-.12.475-.132.176-.012.35.018.519.088.17.07.29.205.36.404a88.86 88.86 0 0 1 1.89 3.718 94.054 94.054 0 0 1 1.696 3.753c.375-.527.76-1.128 1.152-1.802.392-.674.785-1.344 1.177-2.012.393-.668.786-1.304 1.178-1.908.393-.603.782-1.098 1.17-1.485.386-.387.77-.639 1.15-.756.381-.117.76-.023 1.134.281l.615 12.2zm10.09-.264c0 .34-.071.568-.212.685a.746.746 0 0 1-.492.176c-.187 0-.366-.038-.536-.114-.17-.076-.278-.15-.325-.22l-.932-2.004a6.456 6.456 0 0 1-.527.818c-.2.263-.422.498-.668.703a3.979 3.979 0 0 1-.8.518c-.287.141-.595.229-.923.264-.785.024-1.438-.097-1.96-.36a3.308 3.308 0 0 1-1.248-1.064 3.764 3.764 0 0 1-.615-1.538 6.311 6.311 0 0 1-.044-1.793 7.7 7.7 0 0 1 .44-1.82 6.86 6.86 0 0 1 .843-1.607c.34-.475.736-.868 1.187-1.178.451-.31.934-.484 1.45-.519.516-.035 1.058.085 1.626.36.568.276 1.151.765 1.749 1.468l1.986 7.225zm-6.891-1.16c.539.187 1.01.231 1.415.132.404-.1.747-.29 1.028-.572.281-.28.495-.632.642-1.054a5.413 5.413 0 0 0 .21-2.663 3.755 3.755 0 0 0-.386-1.16 1.87 1.87 0 0 0-.694-.748c-.282-.164-.61-.199-.985-.105-.305.07-.577.249-.817.536-.24.287-.443.627-.607 1.02a6.082 6.082 0 0 0-.369 1.274c-.082.457-.12.902-.114 1.336.006.433.064.829.176 1.186.111.358.278.63.5.818zm8.033 1.986c-.176-.129-.293-.26-.352-.395-.058-.135-.047-.32.036-.554.21-.211.477-.519.8-.923.322-.404.635-.826.94-1.266.304-.439.58-.87.826-1.292.246-.421.398-.755.457-1.002l-2.32-2.76c-.13-.222-.161-.442-.097-.658a1.13 1.13 0 0 1 .352-.545c.17-.147.363-.25.58-.308a.828.828 0 0 1 .624.07c.14.07.319.24.536.51.217.27.442.548.677.835.234.287.46.536.676.747.217.211.396.293.536.246.07-.058.182-.184.334-.378.153-.193.329-.407.528-.641.199-.235.413-.47.641-.703.229-.235.457-.42.686-.554.228-.135.442-.2.641-.194.2.006.37.132.51.378.117.293.132.58.044.862-.088.281-.225.55-.413.808a5.876 5.876 0 0 1-.65.747c-.246.24-.472.472-.677.695-.205.222-.37.433-.492.633-.123.199-.156.38-.097.544.211.305.448.604.712.897.264.293.524.586.782.879.258.293.501.592.73.896.228.305.419.627.571.967.117.246.123.475.018.686-.106.21-.264.369-.475.474a1.24 1.24 0 0 1-.686.123.86.86 0 0 1-.615-.351l-2.39-2.918c-.118.082-.258.255-.422.518-.164.264-.349.554-.554.87a25.92 25.92 0 0 1-.66.967c-.234.328-.48.607-.737.835a1.942 1.942 0 0 1-.791.448c-.27.07-.54.006-.81-.193zm11.32-1.336c.082.223.109.44.08.65-.03.212-.097.399-.203.563a1.187 1.187 0 0 1-.395.387.819.819 0 0 1-.484.123.765.765 0 0 1-.466-.22c-.146-.135-.26-.354-.342-.66-.024-.081-.044-.283-.062-.606-.017-.322-.032-.7-.044-1.133-.012-.434-.023-.9-.035-1.398-.012-.498-.023-.964-.035-1.397-.012-.434-.024-.812-.035-1.134-.012-.322-.03-.53-.053-.624-.082-.574-.088-1.04-.018-1.397.07-.358.18-.627.326-.81.146-.18.313-.28.5-.298a.731.731 0 0 1 .52.15c.157.117.283.295.377.536.094.24.123.524.088.852l.281 6.416zm-1.265-9.351c-.258-.2-.413-.42-.466-.66a.981.981 0 0 1 .053-.641.791.791 0 0 1 .421-.404c.194-.082.402-.07.624.035.258.14.416.34.475.597.059.258.047.495-.035.712a.85.85 0 0 1-.413.475c-.194.1-.413.061-.66-.114zm4.992 10.213c-.059.269-.194.462-.404.58-.211.117-.437.175-.677.175-.24 0-.469-.058-.686-.175a.86.86 0 0 1-.43-.493 70.45 70.45 0 0 1-.044-2.109c-.006-.785-.02-1.573-.044-2.364a38.787 38.787 0 0 0-.132-2.277c-.065-.726-.161-1.336-.29-1.828a1.088 1.088 0 0 1 .123-.659.854.854 0 0 1 .413-.378.749.749 0 0 1 .562.009c.205.076.39.237.554.483l.229 1.688c.386-.633.826-1.067 1.318-1.3.492-.235.958-.294 1.397-.177.44.117.824.399 1.152.844.328.445.527 1.031.597 1.758.024-.2.135-.445.334-.738.2-.293.455-.59.765-.888.31-.299.656-.568 1.037-.809.381-.24.765-.41 1.152-.51.386-.1.761-.1 1.125 0 .363.1.68.343.949.73.14.223.26.533.36.932.1.398.182.84.246 1.327.065.486.123.996.176 1.53.053.532.103 1.045.15 1.537.046.492.099.95.158 1.371.058.422.134.762.228 1.02.035.351-.02.653-.167.905-.146.252-.325.422-.536.51a.789.789 0 0 1-.65-.018c-.223-.1-.399-.32-.528-.659.047-1.781-.02-3.21-.202-4.289-.181-1.078-.419-1.846-.712-2.303-.293-.457-.618-.63-.975-.518-.358.111-.686.466-.985 1.063-.299.598-.548 1.41-.747 2.435-.199 1.025-.287 2.223-.263 3.595-.082.234-.197.404-.343.51a.81.81 0 0 1-.484.157 1.16 1.16 0 0 1-.545-.149 1.779 1.779 0 0 1-.51-.413c.036-1.23-.02-2.323-.166-3.278-.147-.955-.337-1.714-.572-2.277-.234-.562-.486-.91-.755-1.046-.27-.134-.51 0-.721.405-.211.404-.366 1.101-.466 2.091-.1.99-.097 2.324.009 4zm14.062.632a2.91 2.91 0 0 1-1.265-.852 4.858 4.858 0 0 1-.827-1.371 8.728 8.728 0 0 1-.483-1.679 15.626 15.626 0 0 1-.228-1.793 21.663 21.663 0 0 1-.053-1.714c.006-.545.02-1.022.044-1.432.023-.223.108-.387.255-.493a.898.898 0 0 1 .51-.167c.193-.006.383.033.57.115.188.082.335.193.44.334.082.117.138.363.167.738.03.375.053.811.07 1.31.018.497.042 1.019.07 1.564.03.545.089 1.055.177 1.53.087.474.213.881.378 1.22.164.34.398.54.703.599.468-.012.84-.147 1.116-.405.275-.258.474-.594.598-1.01.123-.417.184-.885.184-1.407 0-.521-.035-1.052-.105-1.59-.07-.54-.162-1.061-.273-1.565a49.924 49.924 0 0 0-.307-1.318c-.06-.282-.015-.463.131-.545.147-.082.331-.103.554-.062.223.041.451.12.686.237.234.118.404.24.51.37.245.515.439 1.119.58 1.81.14.692.205 1.4.193 2.127-.012.727-.1 1.439-.264 2.136a5.485 5.485 0 0 1-.773 1.828 3.548 3.548 0 0 1-1.363 1.204c-.556.281-1.221.375-1.995.281zm7.84-.632c-.058.269-.193.462-.404.58-.211.117-.437.175-.677.175-.24 0-.469-.058-.685-.175a.86.86 0 0 1-.431-.493 70.447 70.447 0 0 1-.044-2.109c-.006-.785-.02-1.573-.044-2.364a38.785 38.785 0 0 0-.132-2.277c-.064-.726-.161-1.336-.29-1.828a1.088 1.088 0 0 1 .123-.659.854.854 0 0 1 .413-.378.749.749 0 0 1 .563.009c.205.076.39.237.553.483l.229 1.688c.387-.633.826-1.067 1.318-1.3.493-.235.958-.294 1.398-.177.44.117.823.399 1.151.844.328.445.527 1.031.598 1.758.023-.2.135-.445.334-.738s.454-.59.764-.888c.311-.299.657-.568 1.038-.809.38-.24.764-.41 1.15-.51.388-.1.763-.1 1.126 0 .363.1.68.343.95.73.14.223.26.533.36.932.1.398.181.84.246 1.327.064.486.123.996.175 1.53.053.532.103 1.045.15 1.537s.1.95.158 1.371c.059.422.135.762.228 1.02.036.351-.02.653-.166.905-.147.252-.326.422-.537.51a.789.789 0 0 1-.65-.018c-.223-.1-.398-.32-.527-.659.047-1.781-.02-3.21-.203-4.289-.181-1.078-.418-1.846-.711-2.303-.293-.457-.619-.63-.976-.518-.357.111-.686.466-.984 1.063-.3.598-.548 1.41-.747 2.435-.2 1.025-.288 2.223-.264 3.595-.082.234-.196.404-.343.51a.81.81 0 0 1-.483.157 1.16 1.16 0 0 1-.545-.149 1.779 1.779 0 0 1-.51-.413c.035-1.23-.02-2.323-.167-3.278-.146-.955-.337-1.714-.571-2.277-.235-.562-.487-.91-.756-1.046-.27-.134-.51 0-.72.405-.212.404-.367 1.101-.467 2.091-.1.99-.096 2.324.01 4zm22.483-3.446c-.047-.035-.164-.061-.352-.079a172.76 172.76 0 0 1-.642-.061 6.486 6.486 0 0 1-.73-.115 2.102 2.102 0 0 1-.623-.228.632.632 0 0 1-.317-.396c-.04-.164.027-.375.203-.633a.848.848 0 0 1 .334-.325c.14-.076.293-.132.457-.167.164-.035.33-.052.5-.052.17 0 .332.011.484.035-.2-1.336-.226-2.458-.08-3.366.147-.909.402-1.641.766-2.198.363-.556.802-.958 1.318-1.204a3.4 3.4 0 0 1 1.556-.351 3.613 3.613 0 0 1 1.485.351c.469.223.844.516 1.125.879a.481.481 0 0 1 .193.492c-.035.2-.123.381-.263.545-.141.164-.308.278-.501.343-.194.064-.367.015-.519-.15-.48-.55-.92-.867-1.318-.949-.399-.082-.747-.008-1.046.22-.299.229-.548.574-.747 1.037a6.445 6.445 0 0 0-.475 3.059c.047.521.158.958.334 1.31l2.742-.018c.188.117.331.272.431.466.1.193.158.386.176.58.017.193 0 .366-.053.518-.053.153-.138.252-.255.299l-2.408.123c.023.106.082.296.176.571.093.276.193.59.299.94.105.352.199.724.28 1.117.083.393.124.765.124 1.116a.92.92 0 0 1-.43.501c-.194.1-.39.15-.59.15-.199 0-.39-.053-.571-.159a.833.833 0 0 1-.378-.457l-.685-3.744zm7.242 3.815a2.894 2.894 0 0 1-1.222-1.081 4.076 4.076 0 0 1-.562-1.53 5.773 5.773 0 0 1 0-1.74 8.6 8.6 0 0 1 .448-1.758c.21-.568.469-1.087.773-1.555.305-.47.633-.85.985-1.143.644-.492 1.242-.785 1.793-.879.55-.094 1.043-.04 1.476.158.434.2.812.516 1.134.95.322.433.574.928.756 1.485.181.557.29 1.154.325 1.793a7.373 7.373 0 0 1-.132 1.872 6.046 6.046 0 0 1-.615 1.705c-.287.527-.668.96-1.143 1.3-.474.34-1.043.557-1.705.651-.662.094-1.432.018-2.311-.228zm1.353-1.46c.492.048.935-.06 1.327-.325.393-.263.718-.609.976-1.037.258-.427.445-.91.563-1.45.117-.539.14-1.057.07-1.555a3.359 3.359 0 0 0-.492-1.354 2.057 2.057 0 0 0-1.108-.853c-.293-.058-.6.036-.923.282a3.767 3.767 0 0 0-.879.993c-.263.416-.48.885-.65 1.406a4.972 4.972 0 0 0-.255 1.547c0 .51.106.976.317 1.397.21.422.562.739 1.054.95zm7.207.897c0 .363-.096.607-.29.73a.857.857 0 0 1-.633.123 1.332 1.332 0 0 1-.632-.308.866.866 0 0 1-.326-.58c.024-1.195.027-2.47.01-3.823a162.025 162.025 0 0 0-.115-4.263c.094-.316.255-.516.483-.598a.717.717 0 0 1 .66.08c.21.134.372.375.483.72.111.346.097.788-.044 1.327.75-1.101 1.453-1.822 2.11-2.162.656-.34 1.26-.41 1.81-.21.55.199 1.034.606 1.45 1.221a8.706 8.706 0 0 1 1.028 2.136c.27.808.455 1.655.554 2.54.1.885.103 1.696.009 2.434.012.305-.08.534-.273.686a1.149 1.149 0 0 1-.632.255.943.943 0 0 1-.624-.167c-.188-.13-.27-.328-.246-.598.082-1.476.05-2.672-.097-3.586-.147-.914-.358-1.596-.633-2.048-.275-.45-.595-.7-.958-.747-.363-.047-.73.05-1.099.29s-.72.6-1.054 1.081a6.527 6.527 0 0 0-.809 1.618 7.443 7.443 0 0 0-.378 1.907 4.919 4.919 0 0 0 .246 1.942zm10.828-5.748c-.058.024-.082.158-.07.404.012.247.038.557.08.932.04.375.09.797.149 1.266.058.468.1.931.123 1.388.023.457.02.888-.01 1.292-.028.405-.102.736-.219.993-.117.258-.29.42-.518.484-.229.064-.537-.009-.923-.22l-.422-6.539a3.686 3.686 0 0 0-.633-.07c-.164 0-.32.009-.466.026-.146.018-.307.035-.483.053a3.905 3.905 0 0 1-.686-.009c-.21-.129-.345-.293-.404-.492-.059-.2-.009-.396.15-.589.158-.193.439-.357.843-.492.404-.135.964-.202 1.679-.202.082-.047.105-.226.07-.536-.035-.311-.082-.677-.14-1.099a17.922 17.922 0 0 1-.132-1.318c-.03-.457.003-.85.096-1.178.094-.328.273-.55.537-.668.263-.117.659-.053 1.186.193.012.657.024 1.207.035 1.653.012.445.024.817.035 1.116.012.299.024.536.036.712a16.217 16.217 0 0 0 .07.782c.012.1.023.22.035.36.246.012.472.01.677-.008l.597-.053c.194-.018.393-.032.598-.044.205-.012.43-.012.677 0 .258.058.445.164.562.316a.749.749 0 0 1 .167.492.806.806 0 0 1-.21.501 1.259 1.259 0 0 1-.537.36l-2.549.194zm12.27 6.24a1.059 1.059 0 0 1-.44-.228.974.974 0 0 1-.298-.413.698.698 0 0 1 .026-.519c.076-.187.255-.369.536-.545.153.14.404.261.756.36.352.1.735.168 1.151.203.416.035.83.038 1.24.009.41-.03.753-.097 1.028-.203.275-.105.448-.249.519-.43.07-.182-.03-.407-.3-.677a45.983 45.983 0 0 0-2.047-1.31 11.863 11.863 0 0 1-1.477-1.02 4.27 4.27 0 0 1-.967-1.107c-.24-.404-.413-.922-.518-1.555-.035-.516.088-.94.37-1.275a2.61 2.61 0 0 1 1.089-.755c.445-.17.943-.261 1.494-.273.55-.012 1.087.05 1.608.185.522.134.994.337 1.416.606.421.27.726.598.914.984a.89.89 0 0 1-.027.484 1.011 1.011 0 0 1-.237.378.993.993 0 0 1-.396.237 1.103 1.103 0 0 1-.5.044c-.364-.457-.76-.788-1.187-.993-.428-.205-.832-.314-1.213-.325-.38-.012-.7.067-.958.237a.835.835 0 0 0-.404.694c-.012.293.132.639.43 1.037.3.399.818.827 1.556 1.284 1.055.632 1.837 1.221 2.347 1.766.51.545.797 1.031.861 1.46a1.2 1.2 0 0 1-.378 1.098c-.316.305-.767.533-1.353.685-.586.153-1.28.223-2.083.211a12.03 12.03 0 0 1-2.558-.334zm9.176-1.16c.082.223.108.44.079.65-.03.212-.097.399-.202.563a1.187 1.187 0 0 1-.396.387.819.819 0 0 1-.483.123.765.765 0 0 1-.466-.22c-.147-.135-.26-.354-.343-.66-.023-.081-.044-.283-.061-.606-.018-.322-.033-.7-.044-1.133-.012-.434-.024-.9-.035-1.398l-.036-1.397c-.011-.434-.023-.812-.035-1.134-.011-.322-.029-.53-.052-.624-.083-.574-.088-1.04-.018-1.397.07-.358.179-.627.325-.81.147-.18.314-.28.501-.298a.731.731 0 0 1 .519.15c.158.117.284.295.378.536.093.24.123.524.087.852l.282 6.416zm-1.266-9.351c-.258-.2-.413-.42-.466-.66a.981.981 0 0 1 .053-.641.791.791 0 0 1 .422-.404c.193-.082.401-.07.624.035.258.14.416.34.475.597.058.258.046.495-.036.712a.85.85 0 0 1-.413.475c-.193.1-.413.061-.659-.114zm3.111 10.74a.965.965 0 0 1-.351-.246 2.173 2.173 0 0 1-.334-.43 1.307 1.307 0 0 1-.176-.484.45.45 0 0 1 .123-.405c.985-.879 1.77-1.649 2.356-2.311.586-.662 1.03-1.23 1.336-1.705.304-.475.503-.873.597-1.196.094-.322.147-.588.158-.8.012-.14-.137-.24-.448-.298a6.596 6.596 0 0 0-1.116-.097c-.434-.006-.879.003-1.336.027-.457.023-.826.046-1.107.07-.457-.328-.668-.642-.633-.94.035-.3.316-.554.844-.765 1.464-.13 2.633-.144 3.506-.044.873.1 1.503.302 1.89.606.387.305.565.7.536 1.187-.03.486-.21 1.046-.545 1.679-.334.632-.788 1.327-1.362 2.083a68.406 68.406 0 0 1-1.916 2.399l3.726-.281c.247.082.414.216.501.404a.886.886 0 0 1 .062.589c-.047.205-.158.39-.334.554-.176.164-.404.27-.686.316l-5.29.088zm14.608-1.723c-.211.399-.492.73-.844.993a3.74 3.74 0 0 1-1.16.59 4.52 4.52 0 0 1-2.672-.035c-.434-.142-.84-.34-1.222-.599-.38-.257-.7-.574-.958-.949a7.396 7.396 0 0 1-.86-2.373c-.153-.844-.147-1.64.017-2.39a4.266 4.266 0 0 1 1.002-1.97c.504-.562 1.207-.937 2.109-1.124.855-.059 1.532.044 2.03.307.498.264.838.621 1.02 1.073.181.45.217.952.105 1.503a4.298 4.298 0 0 1-.712 1.608 5.447 5.447 0 0 1-1.441 1.389c-.598.404-1.29.682-2.074.835.234.386.5.665.8.835.298.17.612.272.94.307.328.035.653.015.976-.061a6.19 6.19 0 0 0 .896-.282 14.1 14.1 0 0 0 .73-.316c.21-.1.363-.167.457-.202.421-.129.709-.129.86 0 .153.129.153.416 0 .861zm-4.658-6.275c-.282.21-.528.451-.739.72-.21.27-.38.557-.51.862a3.557 3.557 0 0 0-.254.95 3.14 3.14 0 0 0 .026.966c.492-.07.935-.223 1.327-.457.393-.235.72-.501.985-.8.263-.299.454-.606.57-.923.118-.316.15-.592.098-.826-.053-.234-.203-.404-.449-.51-.246-.105-.597-.1-1.054.018z" fill="#9013FE"/><path d="M494.63 149.436c.082.293.044.539-.114.738a1.25 1.25 0 0 1-1.292.44.643.643 0 0 1-.475-.44l-.088-10.336c-.469.516-.9 1.075-1.292 1.679a31.088 31.088 0 0 0-1.116 1.854c-.352.633-.694 1.26-1.028 1.881a27.28 27.28 0 0 1-1.029 1.758c-.199.223-.41.357-.633.404-.222.047-.439.035-.65-.035a1.722 1.722 0 0 1-.589-.343 1.79 1.79 0 0 1-.43-.554l-1.97-5.01a125.426 125.426 0 0 0 .044 5.15c.018.564.039 1.012.062 1.346a11.105 11.105 0 0 0 .15 1.248c.017.1.032.196.044.29.023.258-.056.448-.238.571-.181.123-.39.185-.624.185a1.36 1.36 0 0 1-.659-.167c-.205-.112-.32-.273-.343-.484l-.457-12.27c0-.093.07-.178.211-.254.14-.076.3-.12.475-.132.176-.012.348.018.518.088.17.07.29.205.36.404a88.859 88.859 0 0 1 1.89 3.718 94.054 94.054 0 0 1 1.697 3.753c.375-.527.758-1.128 1.151-1.802.393-.674.785-1.344 1.178-2.012.392-.668.785-1.304 1.178-1.908.392-.603.782-1.098 1.168-1.485.387-.387.771-.639 1.152-.756.38-.117.759-.023 1.134.281l.615 12.2zm10.09-.264c0 .34-.07.568-.211.685a.746.746 0 0 1-.492.176c-.188 0-.367-.038-.537-.114-.17-.076-.278-.15-.325-.22l-.931-2.004a6.456 6.456 0 0 1-.528.818c-.199.263-.422.498-.668.703a3.979 3.979 0 0 1-.8.518c-.287.141-.594.229-.922.264-.785.024-1.439-.097-1.96-.36a3.308 3.308 0 0 1-1.248-1.064 3.764 3.764 0 0 1-.616-1.538 6.311 6.311 0 0 1-.044-1.793 7.7 7.7 0 0 1 .44-1.82 6.86 6.86 0 0 1 .844-1.607c.34-.475.735-.868 1.186-1.178.451-.31.935-.484 1.45-.519.516-.035 1.058.085 1.626.36.569.276 1.152.765 1.75 1.468l1.986 7.225zm-6.89-1.16c.538.187 1.01.231 1.414.132.404-.1.747-.29 1.028-.572.282-.28.496-.632.642-1.054a5.413 5.413 0 0 0 .21-2.663 3.755 3.755 0 0 0-.386-1.16 1.87 1.87 0 0 0-.694-.748c-.281-.164-.61-.199-.984-.105-.305.07-.578.249-.818.536-.24.287-.442.627-.606 1.02a6.082 6.082 0 0 0-.37 1.274c-.081.457-.12.902-.114 1.336.006.433.065.829.176 1.186.111.358.278.63.501.818zm8.032 1.986c-.175-.129-.293-.26-.351-.395-.059-.135-.047-.32.035-.554.21-.211.477-.519.8-.923.322-.404.635-.826.94-1.266.305-.439.58-.87.826-1.292.246-.421.399-.755.457-1.002l-2.32-2.76c-.129-.222-.161-.442-.097-.658a1.13 1.13 0 0 1 .352-.545c.17-.147.363-.25.58-.308a.828.828 0 0 1 .624.07c.14.07.32.24.536.51.217.27.443.548.677.835.234.287.46.536.677.747.216.211.395.293.536.246.07-.058.181-.184.334-.378.152-.193.328-.407.527-.641.2-.235.413-.47.642-.703.228-.235.457-.42.685-.554.229-.135.443-.2.642-.194.2.006.369.132.51.378.117.293.131.58.044.862-.088.281-.226.55-.414.808a5.876 5.876 0 0 1-.65.747c-.246.24-.472.472-.677.695-.205.222-.369.433-.492.633-.123.199-.155.38-.097.544.211.305.449.604.712.897.264.293.525.586.783.879.257.293.5.592.73.896.228.305.418.627.57.967.118.246.123.475.018.686-.105.21-.264.369-.475.474a1.24 1.24 0 0 1-.685.123.86.86 0 0 1-.615-.351l-2.391-2.918c-.117.082-.258.255-.422.518-.164.264-.349.554-.554.87-.205.317-.424.64-.659.967-.234.328-.48.607-.738.835a1.942 1.942 0 0 1-.791.448c-.27.07-.54.006-.809-.193zm11.32-1.336c.083.223.109.44.08.65-.03.212-.097.399-.202.563a1.186 1.186 0 0 1-.396.387.819.819 0 0 1-.483.123.765.765 0 0 1-.466-.22c-.147-.135-.26-.354-.343-.66-.023-.081-.044-.283-.061-.606-.018-.322-.033-.7-.044-1.133l-.036-1.398c-.011-.498-.023-.964-.035-1.397-.011-.434-.023-.812-.035-1.134-.012-.322-.03-.53-.053-.624-.082-.574-.087-1.04-.017-1.397.07-.358.179-.627.325-.81.147-.18.313-.28.501-.298a.731.731 0 0 1 .519.15c.158.117.284.295.377.536.094.24.124.524.088.852l.282 6.416zm-1.265-9.351c-.258-.2-.413-.42-.466-.66a.981.981 0 0 1 .053-.641.791.791 0 0 1 .422-.404c.193-.082.401-.07.624.035.258.14.416.34.474.597.059.258.047.495-.035.712a.85.85 0 0 1-.413.475c-.193.1-.413.061-.659-.114zm4.992 10.213c-.058.269-.193.462-.404.58-.211.117-.437.175-.677.175-.24 0-.469-.058-.685-.175a.86.86 0 0 1-.431-.493 70.447 70.447 0 0 1-.044-2.109c-.006-.785-.02-1.573-.044-2.364a38.786 38.786 0 0 0-.132-2.277c-.064-.726-.16-1.336-.29-1.828a1.088 1.088 0 0 1 .123-.659.854.854 0 0 1 .413-.378.749.749 0 0 1 .563.009c.205.076.39.237.553.483l.229 1.688c.387-.633.826-1.067 1.318-1.3.493-.235.958-.294 1.398-.177.44.117.823.399 1.151.844.328.445.528 1.031.598 1.758.023-.2.135-.445.334-.738.2-.293.454-.59.764-.888.311-.299.657-.568 1.038-.809.38-.24.764-.41 1.151-.51.387-.1.762-.1 1.125 0s.68.343.95.73c.14.223.26.533.36.932.1.398.181.84.246 1.327.064.486.123.996.175 1.53.053.532.103 1.045.15 1.537s.1.95.158 1.371c.059.422.135.762.229 1.02.035.351-.021.653-.167.905-.147.252-.326.422-.537.51a.789.789 0 0 1-.65-.018c-.223-.1-.398-.32-.527-.659.047-1.781-.02-3.21-.202-4.289-.182-1.078-.42-1.846-.712-2.303-.293-.457-.619-.63-.976-.518-.357.111-.686.466-.984 1.063-.3.598-.548 1.41-.747 2.435-.2 1.025-.288 2.223-.264 3.595-.082.234-.196.404-.343.51a.81.81 0 0 1-.483.157 1.16 1.16 0 0 1-.545-.149 1.779 1.779 0 0 1-.51-.413c.035-1.23-.02-2.323-.167-3.278-.146-.955-.337-1.714-.571-2.277-.235-.562-.487-.91-.756-1.046-.27-.134-.51 0-.72.405-.212.404-.367 1.101-.467 2.091-.1.99-.096 2.324.01 4zm14.063.632a2.91 2.91 0 0 1-1.266-.852 4.858 4.858 0 0 1-.826-1.371 8.728 8.728 0 0 1-.484-1.679 15.626 15.626 0 0 1-.228-1.793 21.664 21.664 0 0 1-.053-1.714c.006-.545.02-1.022.044-1.432.024-.223.109-.387.255-.493a.898.898 0 0 1 .51-.167c.193-.006.384.033.571.115.188.082.334.193.44.334.082.117.137.363.167.738.029.375.052.811.07 1.31.017.497.04 1.019.07 1.564.03.545.088 1.055.176 1.53.088.474.214.881.378 1.22.164.34.398.54.703.599.469-.012.84-.147 1.116-.405.276-.258.475-.594.598-1.01.123-.417.184-.885.184-1.407 0-.521-.035-1.052-.105-1.59-.07-.54-.161-1.061-.272-1.565a49.924 49.924 0 0 0-.308-1.318c-.059-.282-.015-.463.132-.545.146-.082.33-.103.553-.062.223.041.452.12.686.237.234.118.404.24.51.37.246.515.44 1.119.58 1.81.14.692.205 1.4.193 2.127-.012.727-.1 1.439-.263 2.136a5.485 5.485 0 0 1-.774 1.828 3.548 3.548 0 0 1-1.362 1.204c-.557.281-1.222.375-1.995.281zm7.84-.632c-.06.269-.194.462-.405.58-.21.117-.436.175-.677.175-.24 0-.468-.058-.685-.175a.86.86 0 0 1-.43-.493 70.45 70.45 0 0 1-.045-2.109c-.006-.785-.02-1.573-.044-2.364a38.785 38.785 0 0 0-.131-2.277c-.065-.726-.162-1.336-.29-1.828a1.088 1.088 0 0 1 .123-.659.854.854 0 0 1 .413-.378.749.749 0 0 1 .562.009c.205.076.39.237.554.483l.228 1.688c.387-.633.827-1.067 1.319-1.3.492-.235.958-.294 1.397-.177.44.117.823.399 1.152.844.328.445.527 1.031.597 1.758.024-.2.135-.445.334-.738.2-.293.454-.59.765-.888.31-.299.656-.568 1.037-.809.38-.24.765-.41 1.151-.51.387-.1.762-.1 1.125 0 .364.1.68.343.95.73.14.223.26.533.36.932.1.398.182.84.246 1.327.064.486.123.996.176 1.53l.15 1.537c.046.492.099.95.157 1.371.059.422.135.762.229 1.02.035.351-.02.653-.167.905-.147.252-.325.422-.536.51a.789.789 0 0 1-.65-.018c-.223-.1-.4-.32-.528-.659.047-1.781-.02-3.21-.202-4.289-.182-1.078-.42-1.846-.712-2.303-.293-.457-.618-.63-.976-.518-.357.111-.685.466-.984 1.063-.299.598-.548 1.41-.747 2.435-.2 1.025-.287 2.223-.264 3.595-.082.234-.196.404-.343.51a.81.81 0 0 1-.483.157 1.16 1.16 0 0 1-.545-.149 1.779 1.779 0 0 1-.51-.413c.036-1.23-.02-2.323-.167-3.278-.146-.955-.337-1.714-.57-2.277-.235-.562-.487-.91-.757-1.046-.27-.134-.51 0-.72.405-.211.404-.367 1.101-.466 2.091-.1.99-.097 2.324.009 4zm26.173-.053c-.199.363-.442.592-.73.685-.286.094-.6.006-.94-.263-.023-.036-.131-.197-.325-.484-.193-.287-.48-.75-.861-1.388a93.996 93.996 0 0 1-1.433-2.514 136.205 136.205 0 0 1-2.039-3.858.83.83 0 0 1-.14-.607.966.966 0 0 1 .254-.518 1.052 1.052 0 0 1 1.134-.247c.117.047.258.19.422.431.164.24.343.536.536.888.194.351.399.741.616 1.169.216.427.433.852.65 1.274.217.422.428.826.633 1.213.205.387.395.712.571.976.176.263.334.45.475.562.14.111.252.103.334-.026.035-.059.09-.194.167-.405.076-.21.164-.465.263-.764.1-.299.205-.612.317-.94l.316-.941a33.344 33.344 0 0 1 .413-1.169c.059-.152.13-.343.211-.571.082-.229.176-.463.281-.703.106-.24.226-.46.36-.66.135-.199.285-.342.449-.43a.678.678 0 0 1 .536-.044c.193.058.413.234.66.527.07.082.114.185.131.308.018.123-.006.304-.07.545-.065.24-.17.553-.317.94-.146.387-.348.894-.606 1.52-.258.628-.574 1.39-.95 2.286-.374.896-.814 1.966-1.318 3.208zm6.1-.809c.082.223.108.44.08.65-.03.212-.098.399-.203.563a1.186 1.186 0 0 1-.396.387.819.819 0 0 1-.483.123.765.765 0 0 1-.466-.22c-.146-.135-.26-.354-.343-.66-.023-.081-.044-.283-.061-.606-.018-.322-.032-.7-.044-1.133-.012-.434-.023-.9-.035-1.398l-.035-1.397a123.67 123.67 0 0 0-.036-1.134c-.011-.322-.029-.53-.052-.624-.082-.574-.088-1.04-.018-1.397.07-.358.179-.627.325-.81.147-.18.314-.28.501-.298a.731.731 0 0 1 .519.15c.158.117.284.295.378.536.094.24.123.524.088.852l.281 6.416zm-1.266-9.351c-.257-.2-.413-.42-.465-.66a.981.981 0 0 1 .052-.641.791.791 0 0 1 .422-.404c.193-.082.401-.07.624.035.258.14.416.34.475.597.058.258.047.495-.035.712a.85.85 0 0 1-.413.475c-.194.1-.414.061-.66-.114zm10.178 9.017c-.21.399-.492.73-.844.993a3.74 3.74 0 0 1-1.16.59 4.52 4.52 0 0 1-2.672-.035c-.433-.142-.84-.34-1.221-.599-.381-.257-.7-.574-.958-.949a7.396 7.396 0 0 1-.862-2.373c-.152-.844-.146-1.64.018-2.39a4.266 4.266 0 0 1 1.002-1.97c.504-.562 1.207-.937 2.11-1.124.855-.059 1.531.044 2.03.307.498.264.837.621 1.019 1.073.182.45.217.952.105 1.503a4.298 4.298 0 0 1-.711 1.608 5.447 5.447 0 0 1-1.442 1.389c-.598.404-1.289.682-2.074.835.234.386.5.665.8.835.299.17.612.272.94.307.328.035.653.015.976-.061a6.19 6.19 0 0 0 .896-.282 14.1 14.1 0 0 0 .73-.316c.21-.1.363-.167.457-.202.422-.129.709-.129.861 0 .152.129.152.416 0 .861zm-4.658-6.275c-.281.21-.527.451-.738.72-.211.27-.381.557-.51.862a3.557 3.557 0 0 0-.255.95 3.14 3.14 0 0 0 .026.966c.492-.07.935-.223 1.327-.457.393-.235.721-.501.985-.8.264-.299.454-.606.571-.923.117-.316.15-.592.097-.826-.053-.234-.202-.404-.448-.51-.247-.105-.598-.1-1.055.018zm8.068 7.84c-.691-.528-1.239-1.125-1.643-1.793a9.083 9.083 0 0 1-.94-2.127c-.223-.75-.385-1.53-.484-2.338-.1-.809-.19-1.611-.273-2.408.047-.258.147-.478.3-.66.152-.181.327-.304.527-.369a.926.926 0 0 1 .615.018c.21.076.392.243.545.5-.059.669-.053 1.354.017 2.058.07.703.185 1.368.343 1.995.158.627.346 1.195.563 1.705.216.51.445.902.685 1.177.24.276.478.414.712.414.234 0 .451-.2.65-.598.2-.399.37-1.017.51-1.855.14-.838.229-1.948.264-3.33a.5.5 0 0 1 .202-.396 1.41 1.41 0 0 1 .483-.255 2.74 2.74 0 0 1 .554-.114c.182-.018.325-.01.43.026.153.258.276.595.37 1.01.094.417.179.862.255 1.337l.228 1.441c.076.486.185.929.326 1.327.14.399.319.73.536.993.216.264.495.414.835.449.304.023.545-.068.72-.273.176-.205.308-.486.396-.844a5.51 5.51 0 0 0 .14-1.239c.006-.469-.005-.949-.035-1.441-.029-.492-.07-.979-.123-1.46-.053-.48-.1-.91-.14-1.291-.041-.381-.068-.692-.08-.932-.011-.24.012-.372.07-.395.352-.164.663-.17.932-.018.27.152.501.416.695.791.193.375.343.835.448 1.38.106.545.164 1.122.176 1.731.012.61-.02 1.228-.097 1.855a8.787 8.787 0 0 1-.387 1.749 5.43 5.43 0 0 1-.694 1.406c-.281.399-.621.68-1.02.844-.597.094-1.101.097-1.511.009a2.497 2.497 0 0 1-1.055-.484 3.457 3.457 0 0 1-.782-.914 20.007 20.007 0 0 1-.712-1.283c-.152.41-.325.826-.519 1.248a3.816 3.816 0 0 1-.703 1.064c-.275.287-.6.474-.975.562-.375.088-.826-.003-1.354-.272zm13.64 3.955c.071.375.027.662-.131.861a.865.865 0 0 1-.58.343 1.029 1.029 0 0 1-.677-.158.908.908 0 0 1-.422-.624 94.48 94.48 0 0 0-.176-8.895 34.647 34.647 0 0 0-.28-2.725c-.294.13-.534.176-.721.141-.188-.035-.32-.12-.396-.255-.076-.135-.097-.304-.061-.51.035-.205.128-.424.28-.659.388-.468.92-.74 1.6-.817.68-.076 1.4-.009 2.163.202.761.211 1.52.542 2.276.993.756.451 1.41.967 1.96 1.547s.95 1.204 1.195 1.872c.246.668.246 1.318 0 1.951-.164.446-.474.856-.931 1.23a6.236 6.236 0 0 1-1.574.932 7.69 7.69 0 0 1-1.863.51 4.942 4.942 0 0 1-1.82-.053l.159 4.114zm-.105-5.66c1.243-.07 2.195-.255 2.857-.554.662-.299 1.098-.656 1.31-1.072.21-.416.225-.862.043-1.336-.181-.475-.489-.92-.923-1.336a6.22 6.22 0 0 0-1.582-1.081 5.738 5.738 0 0 0-1.95-.563l.245 5.942zm8.666 1.705a2.894 2.894 0 0 1-1.221-1.081 4.076 4.076 0 0 1-.563-1.53 5.773 5.773 0 0 1 0-1.74 8.6 8.6 0 0 1 .448-1.758c.211-.568.47-1.087.774-1.555.305-.47.633-.85.984-1.143.645-.492 1.242-.785 1.793-.879.551-.094 1.043-.04 1.477.158.433.2.811.516 1.134.95.322.433.574.928.755 1.485.182.557.29 1.154.326 1.793a7.373 7.373 0 0 1-.132 1.872 6.046 6.046 0 0 1-.615 1.705c-.288.527-.668.96-1.143 1.3-.475.34-1.043.557-1.705.651-.662.094-1.433.018-2.312-.228zm1.354-1.46c.492.048.934-.06 1.327-.325.393-.263.718-.609.976-1.037.257-.427.445-.91.562-1.45.117-.539.14-1.057.07-1.555a3.359 3.359 0 0 0-.492-1.354 2.057 2.057 0 0 0-1.107-.853c-.293-.058-.6.036-.923.282a3.767 3.767 0 0 0-.879.993c-.264.416-.48.885-.65 1.406a4.972 4.972 0 0 0-.255 1.547c0 .51.105.976.316 1.397.211.422.563.739 1.055.95zm7.523 1.108a.936.936 0 0 1-.43.448 1.327 1.327 0 0 1-.642.167c-.223 0-.43-.064-.624-.193-.193-.129-.325-.346-.395-.65-.024-.118-.027-.36-.01-.73.018-.37.021-.89.01-1.564a63.174 63.174 0 0 0-.106-2.514c-.059-1.002-.17-2.2-.334-3.595.246-.222.483-.304.712-.246.229.059.437.188.624.387.188.2.34.442.457.73.117.286.182.553.193.8.059-.224.185-.455.378-.695.194-.24.431-.46.712-.66.282-.199.595-.368.94-.51.346-.14.704-.228 1.073-.263.37-.035.738 0 1.107.106.37.105.712.304 1.029.597a.689.689 0 0 1-.053.334 1.374 1.374 0 0 1-.193.334 1.375 1.375 0 0 1-.282.273.863.863 0 0 1-.316.15c-.68-.141-1.257-.133-1.731.026a2.538 2.538 0 0 0-1.17.782 3.611 3.611 0 0 0-.685 1.327 9.167 9.167 0 0 0-.316 1.661c-.059.586-.08 1.184-.062 1.793.018.61.056 1.178.114 1.705zm8.508-5.959c-.058.024-.082.158-.07.404.012.247.038.557.079.932s.09.797.15 1.266c.058.468.099.931.122 1.388.024.457.02.888-.008 1.292-.03.405-.103.736-.22.993-.117.258-.29.42-.519.484-.228.064-.536-.009-.923-.22l-.421-6.539a3.686 3.686 0 0 0-.633-.07c-.164 0-.32.009-.466.026-.147.018-.308.035-.483.053a3.905 3.905 0 0 1-.686-.009c-.21-.129-.346-.293-.404-.492-.059-.2-.009-.396.15-.589.157-.193.439-.357.843-.492.404-.135.964-.202 1.679-.202.082-.047.105-.226.07-.536-.035-.311-.082-.677-.14-1.099a17.922 17.922 0 0 1-.133-1.318c-.029-.457.003-.85.097-1.178.094-.328.273-.55.536-.668.264-.117.66-.053 1.187.193.012.657.023 1.207.035 1.653.012.445.023.817.035 1.116.012.299.024.536.035.712a16.217 16.217 0 0 0 .07.782c.012.1.024.22.036.36.246.012.471.01.677-.008l.597-.053c.194-.018.393-.032.598-.044.205-.012.43-.012.677 0 .257.058.445.164.562.316a.749.749 0 0 1 .167.492.806.806 0 0 1-.21.501 1.259 1.259 0 0 1-.537.36l-2.549.194zm14.924 6.31c-.691-.527-1.24-1.124-1.644-1.792a9.083 9.083 0 0 1-.94-2.127c-.223-.75-.384-1.53-.483-2.338-.1-.809-.19-1.611-.273-2.408.047-.258.147-.478.299-.66.152-.181.328-.304.527-.369a.926.926 0 0 1 .616.018c.21.076.392.243.544.5-.058.669-.052 1.354.018 2.058.07.703.185 1.368.343 1.995.158.627.346 1.195.562 1.705.217.51.446.902.686 1.177.24.276.477.414.712.414.234 0 .451-.2.65-.598.2-.399.37-1.017.51-1.855.14-.838.228-1.948.264-3.33a.5.5 0 0 1 .202-.396 1.41 1.41 0 0 1 .483-.255 2.74 2.74 0 0 1 .554-.114c.182-.018.325-.01.43.026.153.258.276.595.37 1.01.093.417.178.862.255 1.337l.228 1.441c.076.486.185.929.325 1.327.14.399.32.73.536.993.217.264.496.414.835.449.305.023.545-.068.721-.273.176-.205.308-.486.396-.844a5.51 5.51 0 0 0 .14-1.239c.006-.469-.006-.949-.035-1.441-.03-.492-.07-.979-.123-1.46-.053-.48-.1-.91-.14-1.291-.042-.381-.068-.692-.08-.932-.011-.24.012-.372.07-.395.352-.164.663-.17.932-.018.27.152.501.416.695.791.193.375.342.835.448 1.38.105.545.164 1.122.176 1.731.011.61-.02 1.228-.097 1.855a8.787 8.787 0 0 1-.387 1.749 5.43 5.43 0 0 1-.694 1.406c-.281.399-.621.68-1.02.844-.597.094-1.101.097-1.511.009a2.497 2.497 0 0 1-1.055-.484 3.457 3.457 0 0 1-.782-.914 20.007 20.007 0 0 1-.712-1.283c-.153.41-.325.826-.519 1.248a3.816 3.816 0 0 1-.703 1.064c-.275.287-.6.474-.975.562-.375.088-.827-.003-1.354-.272zm12.78-1.23c.081.223.108.44.078.65-.029.212-.096.399-.202.563a1.186 1.186 0 0 1-.395.387.819.819 0 0 1-.484.123.765.765 0 0 1-.465-.22c-.147-.135-.261-.354-.343-.66-.024-.081-.044-.283-.062-.606-.017-.322-.032-.7-.044-1.133l-.035-1.398c-.012-.498-.023-.964-.035-1.397a123.67 123.67 0 0 0-.035-1.134c-.012-.322-.03-.53-.053-.624-.082-.574-.088-1.04-.018-1.397.07-.358.18-.627.326-.81.146-.18.313-.28.5-.298a.731.731 0 0 1 .52.15c.157.117.283.295.377.536.094.24.123.524.088.852l.281 6.416zm-1.266-9.351c-.258-.2-.413-.42-.466-.66a.981.981 0 0 1 .053-.641.791.791 0 0 1 .421-.404c.194-.082.402-.07.624.035.258.14.416.34.475.597.059.258.047.495-.035.712a.85.85 0 0 1-.413.475c-.194.1-.413.061-.66-.114zm5.361 10.793c-.762-.188-1.386-.551-1.872-1.09a4.817 4.817 0 0 1-1.046-1.855 5.992 5.992 0 0 1-.228-2.206 5.89 5.89 0 0 1 .57-2.153 4.809 4.809 0 0 1 1.363-1.688c.586-.463 1.3-.735 2.145-.817.41-.035.843-.03 1.3.018.457.046.873.164 1.248.351l-.228-3.463c0-.14.102-.246.308-.316.205-.07.43-.1.676-.088.246.012.472.076.677.193a.585.585 0 0 1 .308.545l1.142 11.936c.024.222-.032.398-.167.527a.938.938 0 0 1-.492.246c-.193.035-.39.024-.589-.035-.199-.059-.34-.164-.422-.316a1.212 1.212 0 0 1-.096-.246 46.47 46.47 0 0 1-.255-.827c-.035-.117-.059-.175-.07-.175-.458.457-.9.8-1.328 1.028-.427.228-.829.38-1.204.457a3.673 3.673 0 0 1-1.01.08 4.581 4.581 0 0 1-.73-.106zm-1.354-3.955c.165.644.381 1.163.65 1.555.27.393.566.674.889.844.322.17.662.24 1.02.21.357-.028.705-.137 1.045-.324.34-.188.662-.44.967-.756.304-.317.568-.686.79-1.108a1.85 1.85 0 0 0 .185-.712 3.87 3.87 0 0 0-.035-.817 7.602 7.602 0 0 0-.176-.852l-.22-.835c-.327-.645-.7-1.096-1.115-1.354-.417-.258-.835-.372-1.257-.343a2.35 2.35 0 0 0-1.213.457 3.736 3.736 0 0 0-.985 1.046c-.27.422-.46.894-.57 1.415a3.482 3.482 0 0 0 .025 1.574zm11.866-2.567c-.059.024-.082.158-.07.404.011.247.037.557.078.932.042.375.091.797.15 1.266.059.468.1.931.123 1.388.023.457.02.888-.009 1.292-.03.405-.102.736-.22.993-.117.258-.29.42-.518.484-.229.064-.536-.009-.923-.22l-.422-6.539a3.686 3.686 0 0 0-.633-.07c-.164 0-.319.009-.465.026-.147.018-.308.035-.484.053a3.905 3.905 0 0 1-.685-.009c-.211-.129-.346-.293-.405-.492-.058-.2-.009-.396.15-.589.158-.193.44-.357.843-.492.405-.135.964-.202 1.68-.202.081-.047.105-.226.07-.536-.036-.311-.083-.677-.141-1.099a17.922 17.922 0 0 1-.132-1.318c-.03-.457.003-.85.097-1.178.093-.328.272-.55.536-.668.264-.117.659-.053 1.186.193.012.657.024 1.207.036 1.653.011.445.023.817.035 1.116.011.299.023.536.035.712a16.217 16.217 0 0 0 .07.782c.012.1.024.22.035.36.246.012.472.01.677-.008l.598-.053c.193-.018.392-.032.597-.044.205-.012.431-.012.677 0 .258.058.445.164.563.316a.749.749 0 0 1 .167.492.806.806 0 0 1-.211.501 1.259 1.259 0 0 1-.536.36l-2.55.194zm5.256 6.381c-.211.258-.446.422-.704.492a1.06 1.06 0 0 1-.703-.026c-.21-.088-.375-.252-.492-.492-.117-.24-.135-.548-.053-.923l-.087-11.567a.898.898 0 0 1 .395-.413c.182-.1.37-.15.563-.15.193 0 .366.05.518.15.152.1.234.255.246.466v4.693c.223-.316.413-.574.571-.773.159-.2.326-.366.501-.501.176-.135.378-.24.607-.316.228-.077.513-.15.852-.22.645-.082 1.17.03 1.574.334.404.305.717.724.94 1.257.223.533.375 1.136.457 1.81.082.674.135 1.34.158 1.995.024.657.033 1.266.027 1.828-.006.563.014.99.061 1.284.094.363.082.674-.035.931-.117.258-.278.428-.483.51-.205.082-.428.062-.668-.061-.24-.123-.431-.39-.572-.8-.07-.41-.114-.867-.131-1.371a44.125 44.125 0 0 1-.027-1.538c0-.522-.009-1.029-.026-1.52a9.275 9.275 0 0 0-.132-1.32c-.07-.386-.179-.7-.325-.94a.733.733 0 0 0-.624-.378 2.262 2.262 0 0 0-1.09.598c-.293.293-.53.65-.712 1.072-.182.422-.32.885-.413 1.389a13.28 13.28 0 0 0-.193 1.547 19.94 19.94 0 0 0-.044 1.556c.005.51.02.975.044 1.397z" fill="#009F7C"/><path d="M515.377 13.219c.082.293.044.539-.114.738a1.25 1.25 0 0 1-1.292.44.643.643 0 0 1-.475-.44l-.088-10.336c-.469.516-.9 1.075-1.292 1.679A31.088 31.088 0 0 0 511 7.154c-.352.633-.694 1.26-1.028 1.881a27.279 27.279 0 0 1-1.029 1.758c-.199.223-.41.357-.632.404-.223.047-.44.035-.65-.035a1.723 1.723 0 0 1-.59-.343 1.79 1.79 0 0 1-.43-.553l-1.97-5.01a125.436 125.436 0 0 0 .044 5.15c.018.563.039 1.011.062 1.345a11.104 11.104 0 0 0 .15 1.248c.017.1.032.196.044.29.023.258-.056.448-.238.571-.181.123-.39.185-.624.185a1.36 1.36 0 0 1-.659-.167c-.205-.111-.32-.273-.343-.483l-.457-12.27c0-.094.07-.179.211-.255.141-.076.3-.12.475-.132.176-.011.349.018.518.088.17.07.29.205.36.404a88.86 88.86 0 0 1 1.89 3.718 94.054 94.054 0 0 1 1.697 3.753c.375-.527.759-1.128 1.151-1.802.393-.673.785-1.344 1.178-2.012.392-.668.785-1.304 1.178-1.908.392-.603.782-1.098 1.169-1.485.386-.387.77-.639 1.15-.756.382-.117.76-.023 1.135.282l.615 12.199zm3.041-.774c.082.223.108.44.08.65-.03.212-.098.4-.203.563a1.186 1.186 0 0 1-.396.387.819.819 0 0 1-.483.123.765.765 0 0 1-.466-.22c-.146-.135-.26-.354-.343-.659-.023-.082-.044-.284-.061-.606-.018-.323-.032-.7-.044-1.134-.012-.434-.023-.9-.035-1.398l-.035-1.397c-.012-.434-.024-.812-.036-1.134-.011-.322-.029-.53-.052-.624-.082-.574-.088-1.04-.018-1.397.07-.358.179-.627.325-.809.147-.182.314-.281.501-.299a.731.731 0 0 1 .519.15c.158.117.284.296.378.536.094.24.123.524.088.852l.281 6.416zm-1.266-9.351c-.257-.2-.413-.42-.465-.66a.981.981 0 0 1 .052-.641.791.791 0 0 1 .422-.404c.193-.082.401-.07.624.035.258.14.416.34.475.597.058.258.047.496-.035.712a.85.85 0 0 1-.413.475c-.194.1-.414.062-.66-.114zm4.483 10.02c0 .363-.097.606-.29.729a.857.857 0 0 1-.633.123 1.332 1.332 0 0 1-.633-.308.866.866 0 0 1-.325-.58c.023-1.195.026-2.47.009-3.823a162.02 162.02 0 0 0-.115-4.263c.094-.316.255-.515.484-.597a.717.717 0 0 1 .659.079c.211.134.372.375.483.72.112.346.097.788-.044 1.327.75-1.101 1.454-1.822 2.11-2.162.656-.34 1.26-.41 1.81-.21.551.199 1.035.606 1.45 1.221a8.706 8.706 0 0 1 1.029 2.136c.27.808.454 1.655.554 2.54.1.885.102 1.696.008 2.434.012.305-.079.534-.272.686a1.149 1.149 0 0 1-.633.255.943.943 0 0 1-.624-.167c-.187-.129-.27-.328-.246-.598.082-1.476.05-2.672-.097-3.586-.146-.914-.357-1.596-.632-2.048-.276-.45-.595-.7-.958-.747-.364-.046-.73.05-1.1.29-.368.24-.72.601-1.054 1.081a6.527 6.527 0 0 0-.808 1.618 7.442 7.442 0 0 0-.378 1.907 4.919 4.919 0 0 0 .246 1.942zm9.738-.669c.082.223.108.44.08.65-.03.212-.098.4-.203.563a1.186 1.186 0 0 1-.396.387.819.819 0 0 1-.483.123.765.765 0 0 1-.466-.22c-.146-.135-.26-.354-.342-.659-.024-.082-.044-.284-.062-.606-.018-.323-.032-.7-.044-1.134-.012-.434-.023-.9-.035-1.398a401.37 401.37 0 0 0-.035-1.397c-.012-.434-.024-.812-.035-1.134-.012-.322-.03-.53-.053-.624-.082-.574-.088-1.04-.018-1.397.07-.358.179-.627.325-.809.147-.182.314-.281.501-.299a.731.731 0 0 1 .519.15c.158.117.284.296.378.536.094.24.123.524.088.852l.281 6.416zm-1.266-9.351c-.257-.2-.413-.42-.465-.66a.981.981 0 0 1 .052-.641.791.791 0 0 1 .422-.404c.194-.082.402-.07.624.035.258.14.416.34.475.597.058.258.047.496-.035.712a.85.85 0 0 1-.413.475c-.194.1-.413.062-.66-.114zm4.993 10.213c-.059.27-.194.463-.405.58-.21.117-.436.175-.676.175-.24 0-.47-.058-.686-.175a.86.86 0 0 1-.43-.492 70.45 70.45 0 0 1-.045-2.11c-.005-.785-.02-1.573-.044-2.364a38.785 38.785 0 0 0-.131-2.276c-.065-.727-.162-1.336-.29-1.829a1.088 1.088 0 0 1 .123-.659.854.854 0 0 1 .413-.378.749.749 0 0 1 .562.01c.205.075.39.236.554.482l.228 1.688c.387-.633.827-1.066 1.319-1.3.492-.235.958-.294 1.397-.177.44.118.823.399 1.152.844.328.445.527 1.031.597 1.758.024-.2.135-.445.334-.738.2-.293.454-.59.765-.888.31-.299.656-.568 1.037-.809.38-.24.765-.41 1.151-.51.387-.099.762-.099 1.125 0 .364.1.68.343.95.73.14.223.26.533.36.932.1.398.182.84.246 1.327.065.486.123.996.176 1.53.053.532.102 1.045.15 1.537.046.493.099.95.157 1.371.059.422.135.762.229 1.02.035.352-.02.653-.167.905-.147.252-.325.422-.536.51a.789.789 0 0 1-.65-.018c-.223-.1-.399-.319-.528-.659.047-1.781-.02-3.21-.202-4.289-.182-1.078-.419-1.846-.712-2.303-.293-.457-.618-.63-.976-.518-.357.111-.685.466-.984 1.063-.299.598-.548 1.41-.747 2.435-.2 1.025-.287 2.224-.264 3.595-.082.234-.196.404-.342.51a.81.81 0 0 1-.484.158 1.16 1.16 0 0 1-.545-.15 1.779 1.779 0 0 1-.51-.413c.036-1.23-.02-2.323-.167-3.278-.146-.955-.336-1.714-.57-2.277-.235-.562-.487-.91-.757-1.045-.27-.135-.51 0-.72.404-.211.404-.367 1.101-.466 2.092-.1.99-.097 2.323.009 3.999zm14.062.632a2.91 2.91 0 0 1-1.266-.852 4.858 4.858 0 0 1-.826-1.371 8.728 8.728 0 0 1-.483-1.679 15.626 15.626 0 0 1-.229-1.793 21.664 21.664 0 0 1-.052-1.714c.006-.545.02-1.022.044-1.432.023-.223.108-.387.254-.493a.898.898 0 0 1 .51-.167c.194-.005.384.033.572.115.187.082.334.193.439.334.082.117.138.363.167.738.03.375.053.812.07 1.31.018.498.041 1.02.07 1.564.03.545.089 1.055.176 1.53.088.474.214.881.378 1.221.164.34.399.54.703.598.47-.012.841-.147 1.117-.405.275-.257.474-.594.597-1.01.123-.416.185-.885.185-1.407 0-.521-.035-1.051-.106-1.59-.07-.54-.16-1.061-.272-1.565a49.932 49.932 0 0 0-.308-1.318c-.058-.282-.014-.463.132-.545.147-.082.331-.103.554-.062.223.041.451.12.685.238.235.117.405.24.51.369.246.515.44 1.119.58 1.81a10.002 10.002 0 0 1-.07 4.263 5.485 5.485 0 0 1-.773 1.828 3.548 3.548 0 0 1-1.363 1.204c-.556.281-1.221.375-1.995.281zm7.84-.632c-.059.27-.193.463-.404.58-.211.117-.437.175-.677.175-.24 0-.469-.058-.686-.175a.86.86 0 0 1-.43-.492 70.45 70.45 0 0 1-.044-2.11c-.006-.785-.02-1.573-.044-2.364a38.787 38.787 0 0 0-.132-2.276c-.064-.727-.161-1.336-.29-1.829a1.088 1.088 0 0 1 .123-.659.854.854 0 0 1 .413-.378.749.749 0 0 1 .563.01c.205.075.39.236.553.482l.229 1.688c.387-.633.826-1.066 1.318-1.3.492-.235.958-.294 1.398-.177.44.118.823.399 1.151.844.328.445.527 1.031.598 1.758.023-.2.134-.445.334-.738.199-.293.454-.59.764-.888.31-.299.657-.568 1.037-.809.381-.24.765-.41 1.152-.51.386-.099.761-.099 1.125 0 .363.1.68.343.949.73.14.223.26.533.36.932.1.398.182.84.246 1.327.065.486.123.996.176 1.53.053.532.103 1.045.15 1.537.046.493.1.95.158 1.371.058.422.135.762.228 1.02.035.352-.02.653-.167.905-.146.252-.325.422-.536.51a.789.789 0 0 1-.65-.018c-.223-.1-.399-.319-.528-.659.047-1.781-.02-3.21-.202-4.289-.181-1.078-.419-1.846-.712-2.303-.293-.457-.618-.63-.975-.518-.358.111-.686.466-.985 1.063-.298.598-.547 1.41-.747 2.435-.199 1.025-.287 2.224-.263 3.595-.082.234-.197.404-.343.51a.81.81 0 0 1-.483.158 1.16 1.16 0 0 1-.545-.15 1.779 1.779 0 0 1-.51-.413c.035-1.23-.02-2.323-.167-3.278-.147-.955-.337-1.714-.571-2.277-.235-.562-.487-.91-.756-1.045-.27-.135-.51 0-.721.404-.211.404-.366 1.101-.466 2.092-.1.99-.097 2.323.009 3.999zm26.174-.053c-.2.363-.443.592-.73.685-.287.094-.6.006-.94-.263l-.325-.484a33.14 33.14 0 0 1-.862-1.388 93.994 93.994 0 0 1-1.432-2.514 136.205 136.205 0 0 1-2.04-3.858.83.83 0 0 1-.14-.607.966.966 0 0 1 .255-.518 1.052 1.052 0 0 1 1.134-.246c.117.046.258.19.422.43.164.24.342.536.536.888.193.351.398.741.615 1.169.217.428.434.852.65 1.274.217.422.428.826.633 1.213.205.387.396.712.571.976.176.263.334.45.475.562.14.112.252.103.334-.026.035-.059.09-.193.167-.404.076-.211.164-.466.264-.765l.316-.94.317-.94a33.339 33.339 0 0 1 .413-1.17c.058-.152.129-.343.21-.571.083-.229.176-.463.282-.703.105-.24.225-.46.36-.66.135-.199.284-.342.448-.43a.678.678 0 0 1 .537-.044c.193.059.413.234.659.527.07.082.114.185.132.308.017.123-.006.305-.07.545-.065.24-.17.554-.317.94-.147.387-.349.894-.607 1.52-.257.628-.574 1.39-.949 2.286-.375.896-.814 1.966-1.318 3.208zm6.1-.809c.081.223.108.44.078.65-.029.212-.096.4-.202.563a1.186 1.186 0 0 1-.395.387.819.819 0 0 1-.484.123.765.765 0 0 1-.465-.22c-.147-.135-.261-.354-.343-.659-.024-.082-.044-.284-.062-.606-.017-.323-.032-.7-.044-1.134l-.035-1.398a401.36 401.36 0 0 0-.035-1.397c-.012-.434-.023-.812-.035-1.134-.012-.322-.03-.53-.053-.624-.082-.574-.088-1.04-.017-1.397.07-.358.178-.627.325-.809.146-.182.313-.281.5-.299a.731.731 0 0 1 .52.15c.158.117.284.296.377.536.094.24.123.524.088.852l.281 6.416zm-1.266-9.351c-.258-.2-.413-.42-.466-.66a.981.981 0 0 1 .053-.641.791.791 0 0 1 .422-.404c.193-.082.4-.07.624.035.257.14.416.34.474.597.059.258.047.496-.035.712a.85.85 0 0 1-.413.475c-.193.1-.413.062-.66-.114zm10.178 9.017c-.211.399-.493.73-.844.993a3.74 3.74 0 0 1-1.16.59 4.52 4.52 0 0 1-2.672-.035c-.434-.141-.841-.34-1.222-.598-.38-.258-.7-.575-.958-.95a7.396 7.396 0 0 1-.861-2.373c-.153-.843-.147-1.64.017-2.39a4.266 4.266 0 0 1 1.002-1.97c.504-.562 1.207-.937 2.11-1.124.855-.059 1.532.044 2.03.308.498.263.838.62 1.02 1.072.181.451.216.952.105 1.503a4.298 4.298 0 0 1-.712 1.608 5.447 5.447 0 0 1-1.441 1.389c-.598.404-1.29.682-2.075.835.235.386.501.665.8.835.299.17.612.272.94.307.329.035.654.015.976-.061a6.19 6.19 0 0 0 .897-.281 14.1 14.1 0 0 0 .73-.317c.21-.1.362-.167.456-.202.422-.129.71-.129.861 0 .153.129.153.416 0 .861zm-4.659-6.275c-.281.21-.527.451-.738.72-.21.27-.38.557-.51.862a3.557 3.557 0 0 0-.255.95 3.14 3.14 0 0 0 .027.966c.492-.07.934-.223 1.327-.457.392-.234.72-.501.984-.8.264-.299.454-.606.572-.923.117-.316.149-.591.096-.826-.053-.234-.202-.404-.448-.51-.246-.105-.598-.1-1.055.018zm8.069 7.84c-.692-.528-1.24-1.125-1.644-1.793a9.083 9.083 0 0 1-.94-2.127c-.223-.75-.384-1.53-.484-2.338-.1-.809-.19-1.611-.272-2.408.047-.258.146-.478.299-.66.152-.181.328-.304.527-.369a.926.926 0 0 1 .615.018c.211.076.393.243.545.501-.058.668-.053 1.354.018 2.057.07.703.184 1.368.342 1.995.159.627.346 1.195.563 1.705.217.51.445.902.686 1.178.24.275.477.413.711.413.235 0 .452-.2.65-.598.2-.398.37-1.017.51-1.854.141-.838.23-1.949.264-3.332a.5.5 0 0 1 .202-.395 1.41 1.41 0 0 1 .484-.255 2.74 2.74 0 0 1 .554-.114c.181-.018.325-.009.43.026.153.258.276.595.37 1.01.093.417.178.862.254 1.337.076.474.153.955.229 1.441.076.487.184.929.325 1.327.14.399.32.73.536.994.217.263.495.413.835.448.305.023.545-.068.72-.273.177-.205.308-.486.396-.843a5.51 5.51 0 0 0 .14-1.24c.007-.468-.005-.949-.034-1.441-.03-.492-.07-.979-.123-1.459l-.141-1.292c-.041-.38-.067-.691-.08-.932-.01-.24.013-.372.071-.395.352-.164.662-.17.932-.018.27.153.5.416.694.791.194.375.343.835.448 1.38.106.545.165 1.122.176 1.732.012.609-.02 1.227-.096 1.854a8.787 8.787 0 0 1-.387 1.75 5.43 5.43 0 0 1-.694 1.405c-.282.399-.622.68-1.02.844-.598.094-1.102.097-1.512.009a2.497 2.497 0 0 1-1.054-.484 3.457 3.457 0 0 1-.783-.914 20.006 20.006 0 0 1-.712-1.283c-.152.41-.325.826-.518 1.248a3.816 3.816 0 0 1-.703 1.064c-.276.287-.6.474-.976.562-.375.088-.826-.003-1.353-.272zm13.64 3.955c.07.375.027.662-.132.861a.865.865 0 0 1-.58.343 1.029 1.029 0 0 1-.676-.158.908.908 0 0 1-.422-.624 94.478 94.478 0 0 0-.176-8.895 34.648 34.648 0 0 0-.281-2.724c-.293.129-.533.175-.721.14-.188-.035-.32-.12-.396-.255-.076-.134-.096-.304-.061-.51.035-.205.129-.424.281-.659.387-.468.92-.74 1.6-.817.68-.076 1.4-.009 2.162.202.762.211 1.52.542 2.276.993.756.451 1.41.967 1.96 1.547.551.58.95 1.204 1.196 1.872.246.668.246 1.319 0 1.951-.164.446-.475.856-.932 1.23a6.236 6.236 0 0 1-1.573.933 7.69 7.69 0 0 1-1.864.51 4.942 4.942 0 0 1-1.819-.053l.158 4.113zm-.105-5.66c1.242-.07 2.194-.255 2.856-.554.662-.299 1.099-.656 1.31-1.072.21-.416.225-.862.044-1.336-.182-.475-.49-.92-.923-1.336a6.22 6.22 0 0 0-1.582-1.081 5.738 5.738 0 0 0-1.951-.563l.246 5.942zm8.666 1.705a2.894 2.894 0 0 1-1.222-1.081 4.076 4.076 0 0 1-.562-1.53 5.773 5.773 0 0 1 0-1.74 8.6 8.6 0 0 1 .448-1.758c.21-.568.469-1.087.773-1.555.305-.469.633-.85.985-1.143.644-.492 1.242-.785 1.793-.879.55-.094 1.043-.04 1.476.158.434.2.812.516 1.134.95.322.433.574.928.756 1.485.182.557.29 1.154.325 1.793a7.373 7.373 0 0 1-.132 1.872 6.046 6.046 0 0 1-.615 1.705c-.287.527-.668.961-1.143 1.3-.474.34-1.043.558-1.705.651-.662.094-1.432.018-2.311-.228zm1.353-1.46c.493.048.935-.06 1.327-.324.393-.264.718-.61.976-1.038.258-.427.445-.91.563-1.45.117-.539.14-1.057.07-1.555a3.359 3.359 0 0 0-.492-1.354 2.057 2.057 0 0 0-1.108-.852c-.293-.059-.6.035-.923.28a3.767 3.767 0 0 0-.878.994c-.264.416-.48.885-.65 1.406a4.972 4.972 0 0 0-.256 1.547c0 .51.106.976.317 1.398.21.421.562.738 1.054.949zm7.524 1.108a.936.936 0 0 1-.43.448 1.327 1.327 0 0 1-.642.167c-.223 0-.431-.064-.625-.193-.193-.129-.325-.346-.395-.65-.023-.117-.026-.36-.009-.73.018-.369.02-.89.009-1.564a63.172 63.172 0 0 0-.105-2.514c-.06-1.002-.17-2.2-.334-3.595.246-.222.483-.304.711-.246.229.059.437.188.624.387.188.2.34.442.457.73.118.287.182.553.194.8.058-.223.184-.455.378-.695.193-.24.43-.46.712-.66.281-.198.594-.368.94-.509.346-.14.703-.229 1.072-.264.37-.035.739 0 1.108.106.369.105.712.304 1.028.597a.689.689 0 0 1-.053.334 1.374 1.374 0 0 1-.193.334 1.375 1.375 0 0 1-.281.273.863.863 0 0 1-.317.15c-.68-.141-1.256-.133-1.731.026a2.538 2.538 0 0 0-1.169.782 3.611 3.611 0 0 0-.686 1.327 9.167 9.167 0 0 0-.316 1.661c-.059.586-.08 1.184-.061 1.793.017.61.055 1.178.114 1.705zm8.508-5.959c-.059.024-.082.158-.07.405.011.246.037.556.078.931s.091.797.15 1.266c.058.469.1.931.123 1.388.023.458.02.888-.009 1.292-.03.405-.102.736-.22.994-.117.257-.29.419-.518.483-.229.064-.536-.009-.923-.22l-.422-6.539a3.686 3.686 0 0 0-.633-.07c-.164 0-.32.009-.466.026-.146.018-.307.035-.483.053a3.905 3.905 0 0 1-.686-.009c-.21-.129-.345-.293-.404-.492-.058-.2-.009-.395.15-.589.158-.193.439-.357.843-.492.405-.135.964-.202 1.679-.202.082-.047.106-.226.07-.536-.035-.31-.082-.677-.14-1.099a17.922 17.922 0 0 1-.132-1.318c-.03-.457.003-.85.097-1.178.093-.328.272-.55.536-.668.263-.117.659-.053 1.186.193.012.657.024 1.207.035 1.653.012.445.024.817.036 1.116.011.299.023.536.035.712a16.221 16.221 0 0 0 .07.782c.012.1.023.22.035.36.246.012.472.01.677-.008l.598-.053c.193-.018.392-.032.597-.044.205-.012.43-.012.677 0 .258.059.445.164.563.316a.749.749 0 0 1 .166.493.806.806 0 0 1-.21.5 1.259 1.259 0 0 1-.537.36l-2.548.194zm14.923 6.31c-.691-.527-1.239-1.124-1.643-1.792a9.083 9.083 0 0 1-.94-2.127c-.223-.75-.384-1.53-.484-2.338-.1-.809-.19-1.611-.272-2.408.046-.258.146-.478.298-.66.153-.181.329-.304.528-.369a.926.926 0 0 1 .615.018c.21.076.393.243.545.501-.059.668-.053 1.354.017 2.057.07.703.185 1.368.343 1.995.158.627.346 1.195.563 1.705.217.51.445.902.685 1.178.24.275.478.413.712.413.235 0 .451-.2.65-.598.2-.398.37-1.017.51-1.854.141-.838.229-1.949.264-3.332a.5.5 0 0 1 .202-.395 1.41 1.41 0 0 1 .484-.255 2.74 2.74 0 0 1 .553-.114c.182-.018.325-.009.431.026.152.258.275.595.37 1.01.093.417.178.862.254 1.337l.229 1.441c.076.487.184.929.325 1.327.14.399.319.73.536.994.217.263.495.413.835.448.304.023.545-.068.72-.273.176-.205.308-.486.396-.843a5.51 5.51 0 0 0 .14-1.24c.006-.468-.005-.949-.035-1.441-.029-.492-.07-.979-.123-1.459-.052-.48-.1-.911-.14-1.292-.041-.38-.068-.691-.08-.932-.011-.24.012-.372.071-.395.352-.164.662-.17.932-.018.27.153.5.416.694.791.193.375.343.835.448 1.38.106.545.164 1.122.176 1.732.012.609-.02 1.227-.097 1.854a8.787 8.787 0 0 1-.386 1.75 5.43 5.43 0 0 1-.695 1.405c-.281.399-.62.68-1.02.844-.597.094-1.1.097-1.511.009a2.497 2.497 0 0 1-1.055-.484 3.457 3.457 0 0 1-.782-.914 20.006 20.006 0 0 1-.712-1.283c-.152.41-.325.826-.518 1.248a3.816 3.816 0 0 1-.703 1.064c-.276.287-.601.474-.976.562-.375.088-.826-.003-1.354-.272zm12.78-1.23c.082.223.108.44.079.65-.03.212-.097.4-.202.563a1.186 1.186 0 0 1-.396.387.819.819 0 0 1-.483.123.765.765 0 0 1-.466-.22c-.147-.135-.26-.354-.343-.659-.023-.082-.044-.284-.061-.606-.018-.323-.033-.7-.044-1.134-.012-.434-.024-.9-.035-1.398l-.036-1.397c-.011-.434-.023-.812-.035-1.134-.011-.322-.03-.53-.053-.624-.082-.574-.087-1.04-.017-1.397.07-.358.179-.627.325-.809.147-.182.314-.281.501-.299a.731.731 0 0 1 .519.15c.158.117.284.296.378.536.093.24.123.524.087.852l.282 6.416zm-1.266-9.351c-.258-.2-.413-.42-.466-.66a.981.981 0 0 1 .053-.641.791.791 0 0 1 .422-.404c.193-.082.401-.07.624.035.258.14.416.34.475.597.058.258.046.496-.036.712a.85.85 0 0 1-.413.475c-.193.1-.413.062-.659-.114zm5.361 10.793c-.761-.188-1.385-.551-1.872-1.09a4.817 4.817 0 0 1-1.046-1.855 5.992 5.992 0 0 1-.228-2.206 5.89 5.89 0 0 1 .571-2.153 4.809 4.809 0 0 1 1.363-1.687c.585-.463 1.3-.736 2.144-.818a6.94 6.94 0 0 1 1.3.018c.458.047.874.164 1.249.351l-.229-3.463c0-.14.103-.246.308-.316.205-.07.43-.1.677-.088.246.012.471.076.677.193a.585.585 0 0 1 .307.545l1.143 11.936c.023.223-.033.398-.167.527a.938.938 0 0 1-.492.246c-.194.036-.39.024-.59-.035-.199-.058-.34-.164-.421-.316a1.212 1.212 0 0 1-.097-.246 46.484 46.484 0 0 1-.255-.826c-.035-.118-.058-.176-.07-.176-.457.457-.9.8-1.327 1.028-.428.229-.83.38-1.204.457a3.673 3.673 0 0 1-1.011.08 4.581 4.581 0 0 1-.73-.106zm-1.353-3.955c.164.644.38 1.163.65 1.555.27.393.566.674.888.844.322.17.662.24 1.02.211.357-.03.706-.138 1.045-.325.34-.188.663-.44.967-.756.305-.316.569-.686.791-1.107a1.85 1.85 0 0 0 .185-.712 3.87 3.87 0 0 0-.035-.818 7.602 7.602 0 0 0-.176-.852l-.22-.835c-.328-.645-.7-1.096-1.116-1.354-.416-.258-.835-.372-1.257-.343a2.35 2.35 0 0 0-1.213.457 3.736 3.736 0 0 0-.984 1.046c-.27.422-.46.894-.571 1.415a3.482 3.482 0 0 0 .026 1.574zm11.865-2.567c-.058.024-.082.158-.07.405.012.246.038.556.079.931.04.375.09.797.15 1.266.058.469.099.931.122 1.388.024.458.02.888-.008 1.292-.03.405-.103.736-.22.994-.117.257-.29.419-.519.483-.228.064-.536-.009-.923-.22l-.421-6.539a3.686 3.686 0 0 0-.633-.07c-.164 0-.32.009-.466.026-.147.018-.308.035-.483.053a3.905 3.905 0 0 1-.686-.009c-.21-.129-.346-.293-.404-.492-.059-.2-.01-.395.15-.589.157-.193.439-.357.843-.492.404-.135.964-.202 1.679-.202.082-.047.105-.226.07-.536-.035-.31-.082-.677-.14-1.099a17.922 17.922 0 0 1-.133-1.318c-.029-.457.003-.85.097-1.178.094-.328.273-.55.536-.668.264-.117.66-.053 1.187.193.011.657.023 1.207.035 1.653.012.445.023.817.035 1.116.012.299.024.536.035.712a16.218 16.218 0 0 0 .07.782c.012.1.024.22.036.36.246.012.471.01.676-.008l.598-.053c.193-.018.393-.032.598-.044.205-.012.43-.012.677 0 .257.059.445.164.562.316a.749.749 0 0 1 .167.493.806.806 0 0 1-.21.5 1.259 1.259 0 0 1-.537.36l-2.549.194zm5.256 6.381c-.21.258-.445.422-.703.492a1.06 1.06 0 0 1-.703-.026c-.211-.088-.375-.252-.492-.492-.118-.24-.135-.548-.053-.923L686.71 1.23a.898.898 0 0 1 .395-.413c.182-.1.37-.149.563-.149.193 0 .366.05.519.15.152.099.234.254.246.465v4.694c.222-.317.413-.575.57-.774.16-.2.326-.366.502-.5.176-.136.378-.241.606-.317.229-.076.513-.15.853-.22.644-.082 1.169.03 1.573.334.404.305.718.724.94 1.257.223.533.376 1.137.458 1.81.082.674.134 1.34.158 1.995.023.657.032 1.266.026 1.829-.006.562.015.99.062 1.283.093.363.082.674-.036.931-.117.258-.278.428-.483.51-.205.082-.428.062-.668-.061-.24-.123-.43-.39-.571-.8-.07-.41-.114-.867-.132-1.371a44.125 44.125 0 0 1-.026-1.538c0-.522-.01-1.029-.027-1.52a9.275 9.275 0 0 0-.132-1.32c-.07-.386-.178-.7-.325-.94a.733.733 0 0 0-.624-.378 2.262 2.262 0 0 0-1.09.598c-.293.293-.53.65-.712 1.072-.181.422-.319.885-.413 1.39a13.28 13.28 0 0 0-.193 1.546c-.035.527-.05 1.046-.044 1.556.006.51.02.975.044 1.397z" fill="#4A90E2"/></g></svg>
