<svg xmlns="http://www.w3.org/2000/svg" viewBox="0 0 473 300" xmlns:xlink="http://www.w3.org/1999/xlink"><defs><path id="a" d="M0 0h473v300H0z"/></defs><g fill="none" fill-rule="evenodd"><use fill="#FFF" xlink:href="#a"/><path stroke="#000" stroke-width="4" d="M2 2h469v296H2z"/><path stroke="#000" stroke-width="4" d="M29.53 40.62h345.888v231.007H29.528z"/><text fill="#000" transform="rotate(90 454 36.5)" font-family="MagneticPro-Medium, Magnetic Pro" font-size="24" font-weight="400"><tspan x="425.836" y="44.5">body</tspan></text><text fill="#000" transform="rotate(90 434 152.12)" font-family="MagneticPro-Medium, Magnetic Pro" font-size="16" font-weight="400"><tspan x="389.144" y="157.62">vertical-rl</tspan></text><text fill="#000" transform="rotate(90 359.313 79)" font-family="MagneticPro-Medium, Magnetic Pro" font-size="24" font-weight="400"><tspan x="329.156" y="87">main</tspan></text><path stroke="#000" stroke-width="4" d="M415.5 23.055V281.2" stroke-linecap="square"/><path fill="#000" d="M422.5 24.555h-14l7-13.967m6.71 266.345h-13.22l6.61 13.19"/><text fill="#000" transform="rotate(90 314 166)" font-family="MagneticPro-Medium, Magnetic Pro" font-size="16" font-weight="400"><tspan x="269.144" y="163">vertical-rl</tspan> <tspan x="269.8" y="180">(inherited)</tspan></text><path stroke="#000" stroke-width="4" d="M289.5 66.485V255" stroke-linecap="square"/><path fill="#000" d="M296.5 65.113h-14l7-13.967m6.71 199.6h-13.22l6.61 13.19"/><text fill="#000" font-family="MagneticPro-Medium, Magnetic Pro" font-size="16" font-weight="400"><tspan x="124.841" y="65.92">horizontal-tb</tspan></text><path stroke="#000" stroke-width="4" d="M52.867 76h258.145" stroke-linecap="square"/><path fill="#000" d="M54.367 69v14L40.4 76m266.345-6.71v13.22l13.19-6.61"/><text fill="#000" font-family="MagneticPro-Medium, Magnetic Pro" font-size="14" font-weight="400"><tspan x="50.132" y="23.74">Toggle</tspan></text><text fill="#000" font-family="AppleColorEmoji, Apple Color Emoji" font-size="12"><tspan x="28.453" y="24.24">☑️</tspan></text></g></svg>
