<svg xmlns="http://www.w3.org/2000/svg" viewBox="0 0 2717 150" xmlns:xlink="http://www.w3.org/1999/xlink"><defs><path id="a" d="M0 0h206.438v150H0z"/><path id="b" d="M0 0h165.197l19.56 29.273V87.78l19.446 20.7V150H0z"/><path id="c" d="M0 0h136.34v30.545L112 59.268V150H0z"/><path id="d" d="M0 0h100v51H0z"/><path id="e" d="M0 0h115v51H0z"/><path id="f" d="M0 0l85.664 24H94v26H0z"/><path id="g" d="M0 0h118.31L141 50H0z"/><path id="h" d="M0 0h111.71L125 25H0z"/><path id="i" d="M0 0h12.646L40 22.607V50H0z"/><path id="j" d="M0 49h39.932l7.814 25.5V100H0z"/><path id="k" d="M0 0h238v26H0z"/><path id="l" d="M0 0h197v150H0z"/><path id="m" d="M0 0h280v26H0z"/><path id="n" d="M0 0h98v26H0z"/><path id="o" d="M0 0h148v26H0z"/><path id="p" d="M0 0h125v25H0z"/><path id="q" d="M0 0h145v25H0z"/><path id="r" d="M0 0h31v150H0z"/><path id="s" d="M0 0h20v75H0z"/><path id="t" d="M0 0h17v37.5H0z"/><path id="u" d="M0 0h24v76H0z"/><path id="v" d="M0 0h17v37.5H0z"/><path id="w" d="M0 0h17v38.487H0z"/><path id="x" d="M0 0h34v76H0z"/><path id="y" d="M0 0h23v76H0z"/><path id="z" d="M0 0h42v76H0z"/><path id="A" d="M0 0h103v75H0z"/><path id="B" d="M0 0h55.514L91 37.5V75H0z"/><path id="C" d="M0 0h65v76H0z"/><path id="D" d="M0 0h25.223L39 37.7V150H0z"/><path id="E" d="M0 0h33v150H0z"/><path id="F" d="M0 0h30v50H0z"/><path id="G" d="M0 0h43v50H0z"/><path id="H" d="M0 0h122v150H0z"/><path id="I" d="M.757 0h25.486v150H.757z"/><path id="J" d="M0 0h142v150H0z"/><path id="K" d="M1.54 0h31.03v150H1.54z"/><path id="L" d="M0 0h363v150H0z"/><path id="M" d="M0 0h185v150H0z"/><path id="N" d="M0 0h377v150H0z"/><path id="O" d="M0 0h319v150H0z"/></defs><g fill="none" fill-rule="evenodd"><g transform="translate(2510)"><use fill="#E9FFD3" xlink:href="#a"/><path stroke="#979797" d="M.5.5h205.438v149H.5z"/></g><text fill="#222" font-family="PingFangSC-Regular, PingFang SC" font-size="32" transform="translate(2510)"><tspan x="96" y="91">清</tspan></text><text fill="#222" font-family="PingFangSC-Regular, PingFang SC" font-size="18" transform="translate(2510)"><tspan x="50" y="25">后金</tspan></text><text fill="#222" font-family="MagneticPro-Medium, Magnetic Pro" font-size="14" font-weight="400" transform="translate(2510)"><tspan x="16" y="16">1616</tspan></text><text fill="#222" font-family="MagneticPro-Medium, Magnetic Pro" font-size="14" font-weight="400" transform="translate(2510)"><tspan x="171" y="144">1912</tspan></text><text fill="#222" font-family="MagneticPro-Medium, Magnetic Pro" font-size="14" font-weight="400" transform="translate(2510)"><tspan x="37" y="69">1636</tspan></text><g transform="translate(2345)"><use fill="#BCECFE" xlink:href="#b"/><path stroke="#979797" d="M.5.5h164.43l19.326 28.925V87.98l.135.144 19.32 20.553V149.5H.5V.5z"/></g><text fill="#222" font-family="PingFangSC-Regular, PingFang SC" font-size="32" transform="translate(2345)"><tspan x="80" y="91">明</tspan></text><text fill="#222" font-family="PingFangSC-Regular, PingFang SC" font-size="18" transform="translate(2345)"><tspan x="164" y="127">南明</tspan></text><text fill="#222" font-family="MagneticPro-Medium, Magnetic Pro" font-size="14" font-weight="400" transform="translate(2345)"><tspan x="30" y="16">1388</tspan></text><text fill="#222" font-family="MagneticPro-Medium, Magnetic Pro" font-size="14" font-weight="400" transform="translate(2345)"><tspan x="169" y="144">1662</tspan></text><text fill="#222" font-family="MagneticPro-Medium, Magnetic Pro" font-size="14" font-weight="400" transform="translate(2345)"><tspan x="149" y="85">1644</tspan></text><g transform="translate(2234)"><use fill="#FFEDCE" xlink:href="#c"/><path stroke="#979797" d="M.5.5h135.34v29.862l-24.22 28.582-.12.14V149.5H.5V.5z"/></g><text fill="#222" font-family="PingFangSC-Regular, PingFang SC" font-size="32" transform="translate(2234)"><tspan x="55" y="91">元</tspan></text><text fill="#222" font-family="PingFangSC-Regular, PingFang SC" font-size="18" transform="translate(2234)"><tspan x="41" y="25">蒙古</tspan></text><text fill="#222" font-family="PingFangSC-Regular, PingFang SC" font-size="18" transform="translate(2234)"><tspan x="94" y="25">北元</tspan></text><text fill="#222" font-family="MagneticPro-Medium, Magnetic Pro" font-size="12" font-weight="400" transform="translate(2234)"><tspan x="10.078" y="14">1206</tspan></text><text fill="#222" font-family="MagneticPro-Medium, Magnetic Pro" font-size="14" font-weight="400" transform="translate(2234)"><tspan x="24" y="45">1271</tspan></text><text fill="#222" font-family="MagneticPro-Medium, Magnetic Pro" font-size="14" font-weight="400" transform="translate(2234)"><tspan x="76" y="144">1368</tspan></text><g transform="translate(2183 49)"><use fill="#C3EEDF" xlink:href="#d"/><path stroke="#979797" d="M.5.5h99v50H.5V.5z"/></g><text fill="#222" font-family="PingFangSC-Regular, PingFang SC" font-size="16" transform="translate(2183 49)"><tspan x="34.435" y="33">南宋</tspan></text><text fill="#222" font-family="MagneticPro-Medium, Magnetic Pro" font-size="12" font-weight="400" transform="translate(2183 49)"><tspan x="70.4" y="43">1276</tspan></text><text fill="#222" font-family="MagneticPro-Medium, Magnetic Pro" font-size="12" font-weight="400" transform="translate(2183 49)"><tspan x="4.622" y="14">1127</tspan></text><g transform="translate(2069 49)"><use fill="#C3EEDF" xlink:href="#e"/><path stroke="#979797" d="M.5.5h114v50H.5V.5z"/></g><text fill="#222" font-family="PingFangSC-Regular, PingFang SC" font-size="16" transform="translate(2069 49)"><tspan x="42" y="33">北宋</tspan></text><text fill="#222" font-family="MagneticPro-Medium, Magnetic Pro" font-size="12" font-weight="400" transform="translate(2069 49)"><tspan x="8.458" y="14">960</tspan></text><text fill="#222" font-family="MagneticPro-Medium, Magnetic Pro" font-size="12" font-weight="400" transform="translate(2069 49)"><tspan x="86.122" y="43">1127</tspan></text><g transform="translate(2161)"><use fill="#FFEBF6" xlink:href="#f"/><path stroke="#979797" d="M.5.66l85.03 23.82.134.02H93.5v25H.5V.66z"/></g><text fill="#222" font-family="PingFangSC-Regular, PingFang SC" font-size="16" transform="translate(2161)"><tspan x="46" y="45">金</tspan></text><text fill="#222" font-family="MagneticPro-Medium, Magnetic Pro" font-size="12" font-weight="400" transform="translate(2161)"><tspan x="18.146" y="35">1115</tspan></text><text fill="#222" font-family="MagneticPro-Medium, Magnetic Pro" font-size="12" font-weight="400" transform="translate(2161)"><tspan x="65.39" y="45">1234</tspan></text><g transform="translate(2043)"><use fill="#BCECFE" xlink:href="#g"/><path stroke="#979797" d="M.5.5h117.488l22.236 49H.5V.5z"/></g><text fill="#222" font-family="PingFangSC-Regular, PingFang SC" font-size="16" transform="translate(2043)"><tspan x="55" y="33">辽</tspan></text><text fill="#222" font-family="MagneticPro-Medium, Magnetic Pro" font-size="12" font-weight="400" transform="translate(2043)"><tspan x="20.178" y="14">916</tspan></text><text fill="#222" font-family="MagneticPro-Medium, Magnetic Pro" font-size="12" font-weight="400" transform="translate(2043)"><tspan x="106.37" y="43">1125</tspan></text><g transform="translate(2123)"><use fill="#E9FFD3" xlink:href="#h"/><path stroke="#979797" d="M.5.5h110.91l12.758 24H.5V.5z"/></g><text fill="#222" font-family="PingFangSC-Regular, PingFang SC" font-size="16" transform="translate(2123)"><tspan x="45" y="19">西夏</tspan></text><text fill="#222" font-family="MagneticPro-Medium, Magnetic Pro" font-size="12" font-weight="400" transform="translate(2123)"><tspan x="4.416" y="15">1038</tspan></text><text fill="#222" font-family="MagneticPro-Medium, Magnetic Pro" font-size="12" font-weight="400" transform="translate(2123)"><tspan x="87.346" y="15">1227</tspan></text><g transform="translate(2030)"><use fill="#E9FFD3" xlink:href="#i"/><path stroke="#979797" d="M.5.5h11.967L39.5 22.843V49.5H.5V.5z"/></g><g transform="translate(2030)"><use fill="#E9FFD3" xlink:href="#j"/><path stroke="#979797" d="M.5 49.5h39.062l7.684 25.075V99.5H.5v-50z"/></g><text fill="#222" font-family="PingFangSC-Regular, PingFang SC" font-size="16" transform="translate(2030)"><tspan x="4" y="37">五代</tspan></text><text fill="#222" font-family="PingFangSC-Regular, PingFang SC" font-size="16" transform="translate(2030)"><tspan x="8" y="82">十国</tspan></text><g transform="translate(2030 99)"><use fill="#FFFCE3" xlink:href="#k"/><path stroke="#979797" d="M.5.5h237v25H.5z"/></g><text fill="#222" font-family="PingFangSC-Regular, PingFang SC" font-size="16" transform="translate(2030 99)"><tspan x="103" y="19.08">大理</tspan></text><text fill="#222" font-family="MagneticPro-Medium, Magnetic Pro" font-size="12" font-weight="400" transform="translate(2030 99)"><tspan x="4.238" y="15.2">937</tspan></text><text fill="#222" font-family="MagneticPro-Medium, Magnetic Pro" font-size="12" font-weight="400" transform="translate(2030 99)"><tspan x="207.034" y="15.2">1253</tspan></text><g transform="translate(1834)"><use fill="#FFEBF6" xlink:href="#l"/><path stroke="#979797" d="M.5.5h196v149H.5z"/></g><text fill="#222" font-family="PingFangSC-Regular, PingFang SC" font-size="20" transform="translate(1834)"><tspan x="88" y="59">唐</tspan></text><text fill="#222" font-family="MagneticPro-Medium, Magnetic Pro" font-size="14" font-weight="400" transform="translate(1834)"><tspan x="4" y="16">618</tspan></text><text fill="#222" font-family="MagneticPro-Medium, Magnetic Pro" font-size="14" font-weight="400" transform="translate(1834)"><tspan x="169" y="96">907</tspan></text><g transform="translate(1981 124)"><use fill="#EFDBFF" xlink:href="#m"/><path stroke="#979797" d="M.5.5h279v25H.5z"/></g><text fill="#222" font-family="PingFangSC-Regular, PingFang SC" font-size="16" transform="translate(1981 124)"><tspan x="103.62" y="19.08">吐蕃(分裂)</tspan></text><text fill="#222" font-family="MagneticPro-Medium, Magnetic Pro" font-size="12" font-weight="400" transform="translate(1981 124)"><tspan x="4.132" y="17.28">842</tspan></text><text fill="#222" font-family="MagneticPro-Medium, Magnetic Pro" font-size="12" font-weight="400" transform="translate(1981 124)"><tspan x="250.274" y="16.24">1247</tspan></text><g transform="translate(1931 99)"><use fill="#FFEDCE" xlink:href="#n"/><path stroke="#979797" d="M.5.5h97v25H.5z"/></g><text fill="#222" font-family="PingFangSC-Regular, PingFang SC" font-size="16" transform="translate(1931 99)"><tspan x="33" y="20.12">南诏</tspan></text><text fill="#222" font-family="MagneticPro-Medium, Magnetic Pro" font-size="12" font-weight="400" transform="translate(1931 99)"><tspan x="5.968" y="16.24">738</tspan></text><text fill="#222" font-family="MagneticPro-Medium, Magnetic Pro" font-size="12" font-weight="400" transform="translate(1931 99)"><tspan x="73.65" y="16.24">902</tspan></text><g transform="translate(1834 124)"><use fill="#EFDBFF" xlink:href="#o"/><path stroke="#979797" d="M.5.5h147v25H.5z"/></g><text fill="#222" font-family="PingFangSC-Regular, PingFang SC" font-size="16" transform="translate(1834 124)"><tspan x="37" y="19.04">吐蕃(统一)</tspan></text><g transform="translate(1853 75)"><use fill="#C3EEDF" xlink:href="#p"/><path stroke="#979797" d="M.5.5h124v24H.5z"/></g><text fill="#222" font-family="PingFangSC-Regular, PingFang SC" font-size="16" transform="translate(1853 75)"><tspan x="47" y="19">回鹘</tspan></text><text fill="#222" font-family="MagneticPro-Medium, Magnetic Pro" font-size="12" font-weight="400" transform="translate(1853 75)"><tspan x="5.704" y="16">646</tspan></text><text fill="#222" font-family="MagneticPro-Medium, Magnetic Pro" font-size="12" font-weight="400" transform="translate(1853 75)"><tspan x="97.188" y="16">840</tspan></text><g transform="translate(1890)"><use fill="#BCECFE" xlink:href="#q"/><path stroke="#979797" d="M.5.5h144v24H.5z"/></g><text fill="#222" font-family="PingFangSC-Regular, PingFang SC" font-size="16" transform="translate(1890)"><tspan x="49" y="19">渤海国</tspan></text><text fill="#222" font-family="MagneticPro-Medium, Magnetic Pro" font-size="12" font-weight="400" transform="translate(1890)"><tspan x="4.078" y="15">698</tspan></text><text fill="#222" font-family="MagneticPro-Medium, Magnetic Pro" font-size="12" font-weight="400" transform="translate(1890)"><tspan x="121.004" y="15">926</tspan></text><g transform="translate(1804)"><use fill="#FFFCE3" xlink:href="#r"/><path stroke="#979797" d="M.5.5h30v149H.5z"/></g><text fill="#222" font-family="PingFangSC-Regular, PingFang SC" font-size="20" transform="translate(1804)"><tspan x="5.808" y="81">隋</tspan></text><text fill="#222" font-family="MagneticPro-Medium, Magnetic Pro" font-size="14" font-weight="400" transform="translate(1804)"><tspan x="4" y="16">581</tspan></text><text fill="#222" font-family="MagneticPro-Medium, Magnetic Pro" font-size="14" font-weight="400" transform="translate(1804)"><tspan x="6" y="144">618</tspan></text><g transform="translate(1785)"><use fill="#E9FFD3" xlink:href="#s"/><path stroke="#979797" d="M.5.5h19v74H.5z"/></g><text fill="#222" font-family="PingFangSC-Regular, PingFang SC" font-size="12" transform="translate(1785)"><tspan x="3.469" y="54.576">北</tspan> <tspan x="3.469" y="68.576">周</tspan></text><g transform="translate(1785)"><use fill="#E9FFD3" xlink:href="#t"/><path stroke="#979797" d="M.5.5h16V37H.5z"/></g><text fill="#222" font-family="PingFangSC-Regular, PingFang SC" font-size="12" transform="translate(1785)"><tspan x="2.136" y="17.563">北</tspan> <tspan x="2.136" y="31.563">齐</tspan></text><g transform="translate(1785 74)"><use fill="#BCECFE" xlink:href="#u"/><path stroke="#979797" d="M.5.5h23v75H.5z"/></g><text fill="#222" font-family="PingFangSC-Regular, PingFang SC" font-size="20" transform="translate(1785 74)"><tspan x="2" y="43.293">陈</tspan></text><text fill="#222" font-family="MagneticPro-Medium, Magnetic Pro" font-size="12" font-weight="400" transform="translate(1785 74)"><tspan x="2.15" y="68.773">589</tspan></text><g transform="translate(1769)"><use fill="#E9FFD3" xlink:href="#v"/><path stroke="#979797" d="M.5.5h16V37H.5z"/></g><text fill="#222" font-family="PingFangSC-Regular, PingFang SC" font-size="12" transform="translate(1769)"><tspan x="2.136" y="17.576">东</tspan> <tspan x="2.136" y="31.576">魏</tspan></text><g transform="translate(1769 36.5)"><use fill="#E9FFD3" xlink:href="#w"/><path stroke="#979797" d="M.5.5h16v37.487H.5z"/></g><text fill="#222" font-family="PingFangSC-Regular, PingFang SC" font-size="12" transform="translate(1769 36.5)"><tspan x="2.136" y="17.694">西</tspan> <tspan x="2.136" y="31.694">魏</tspan></text><g transform="translate(1752 74)"><use fill="#BCECFE" xlink:href="#x"/><path stroke="#979797" d="M.5.5h33v75H.5z"/></g><text fill="#222" font-family="PingFangSC-Regular, PingFang SC" font-size="20" transform="translate(1752 74)"><tspan x="7.165" y="43.293">梁</tspan></text><text fill="#222" font-family="MagneticPro-Medium, Magnetic Pro" font-size="12" font-weight="400" transform="translate(1752 74)"><tspan x="6.744" y="68.773">557</tspan></text><text fill="#222" font-family="MagneticPro-Medium, Magnetic Pro" font-size="12" font-weight="400" transform="translate(1752 74)"><tspan x="6.722" y="15.067">502</tspan></text><g transform="translate(1730 74)"><use fill="#BCECFE" xlink:href="#y"/><path stroke="#979797" d="M.5.5h22v75H.5z"/></g><text fill="#222" font-family="PingFangSC-Regular, PingFang SC" font-size="20" transform="translate(1730 74)"><tspan x="1.612" y="43.293">齐</tspan></text><text fill="#222" font-family="MagneticPro-Medium, Magnetic Pro" font-size="12" font-weight="400" transform="translate(1730 74)"><tspan x="1.106" y="15.067">479</tspan></text><g transform="translate(1689 74)"><use fill="#BCECFE" xlink:href="#z"/><path stroke="#979797" d="M.5.5h41v75H.5z"/></g><text fill="#222" font-family="PingFangSC-Regular, PingFang SC" font-size="20" transform="translate(1689 74)"><tspan x="11.204" y="43.293">宋</tspan></text><text fill="#222" font-family="MagneticPro-Medium, Magnetic Pro" font-size="12" font-weight="400" transform="translate(1689 74)"><tspan x="6.012" y="15.067">420</tspan></text><g transform="translate(1667)"><use fill="#E9FFD3" xlink:href="#A"/><path stroke="#979797" d="M.5.5h102v74H.5z"/></g><text fill="#222" font-family="PingFangSC-Regular, PingFang SC" font-size="20" transform="translate(1667)"><tspan x="47" y="43">北魏</tspan></text><text fill="#222" font-family="MagneticPro-Medium, Magnetic Pro" font-size="12" font-weight="400" transform="translate(1667)"><tspan x="76.842" y="68">534</tspan></text><text fill="#222" font-family="MagneticPro-Medium, Magnetic Pro" font-size="12" font-weight="400" transform="translate(1667)"><tspan x="20.144" y="15">386</tspan></text><g transform="translate(1612)"><use fill="#FFEDCE" xlink:href="#B"/><path stroke="#979797" d="M.5.5h54.798L90.5 37.7v36.8H.5V.5z"/></g><text fill="#222" font-family="PingFangSC-Regular, PingFang SC" font-size="20" transform="translate(1612)"><tspan x="16" y="43">十六国</tspan></text><text fill="#222" font-family="MagneticPro-Medium, Magnetic Pro" font-size="12" font-weight="400" transform="translate(1612)"><tspan x="9.952" y="15">304</tspan></text><text fill="#222" font-family="MagneticPro-Medium, Magnetic Pro" font-size="12" font-weight="400" transform="translate(1612)"><tspan x="64.77" y="68">439</tspan></text><g transform="translate(1625 74)"><use fill="#C3EEDF" xlink:href="#C"/><path stroke="#979797" d="M.5.5h64v75H.5z"/></g><text fill="#222" font-family="PingFangSC-Regular, PingFang SC" font-size="20" transform="translate(1625 74)"><tspan x="12.762" y="43.293">东晋</tspan></text><text fill="#222" font-family="MagneticPro-Medium, Magnetic Pro" font-size="12" font-weight="400" transform="translate(1625 74)"><tspan x="7.068" y="15.067">317</tspan></text><text fill="#222" font-family="MagneticPro-Medium, Magnetic Pro" font-size="12" font-weight="400" transform="translate(1625 74)"><tspan x="38.012" y="68.773">420</tspan></text><g transform="translate(1587)"><use fill="#C3EEDF" xlink:href="#D"/><path stroke="#979797" d="M.5.5h24.374L38.5 37.788V149.5H.5V.5z"/></g><text fill="#222" font-family="PingFangSC-Regular, PingFang SC" font-size="20" transform="translate(1587)"><tspan x="8.06" y="71.96">西</tspan> <tspan x="8.06" y="95.96">晋</tspan></text><text fill="#222" font-family="MagneticPro-Medium, Magnetic Pro" font-size="12" font-weight="400" transform="translate(1587)"><tspan x="15.744" y="143">316</tspan></text><text fill="#222" font-family="MagneticPro-Medium, Magnetic Pro" font-size="12" font-weight="400" transform="translate(1587)"><tspan x="3.974" y="15">265</tspan></text><g transform="translate(1555)"><use fill="#BCECFE" xlink:href="#E"/><path stroke="#979797" d="M.5.5h32v149H.5z"/></g><text fill="#222" font-family="PingFangSC-Regular, PingFang SC" font-size="16" transform="translate(1555)"><tspan x="9" y="33">魏</tspan></text><g transform="translate(1555 51)"><use fill="#FFFCE3" xlink:href="#F"/><path stroke="#979797" d="M.5.5h29v49H.5z"/></g><text fill="#222" font-family="PingFangSC-Regular, PingFang SC" font-size="16" transform="translate(1555 51)"><tspan x="7" y="30">蜀</tspan></text><text fill="#222" font-family="MagneticPro-Medium, Magnetic Pro" font-size="12" font-weight="400" transform="translate(1555 51)"><tspan x="5.968" y="44">263</tspan></text><g transform="translate(1555 100)"><use fill="#FFEBF6" xlink:href="#G"/><path stroke="#979797" d="M.5.5h42v49H.5z"/></g><text fill="#222" font-family="PingFangSC-Regular, PingFang SC" font-size="16" transform="translate(1555 100)"><tspan x="14" y="30">吴</tspan></text><g transform="translate(1434)"><use fill="#FFEDCE" xlink:href="#H"/><path stroke="#979797" d="M.5.5h121v149H.5z"/></g><text fill="#222" font-family="PingFangSC-Regular, PingFang SC" font-size="32" transform="translate(1434)"><tspan x="29.42" y="85">东汉</tspan></text><text fill="#222" font-family="MagneticPro-Medium, Magnetic Pro" font-size="14" font-weight="400" transform="translate(1434)"><tspan x="5" y="16">25</tspan></text><text fill="#222" font-family="MagneticPro-Medium, Magnetic Pro" font-size="14" font-weight="400" transform="translate(1434)"><tspan x="93" y="33">220</tspan></text><text fill="#222" font-family="MagneticPro-Medium, Magnetic Pro" font-size="14" font-weight="400" transform="translate(1434)"><tspan x="95" y="79">221</tspan></text><text fill="#222" font-family="MagneticPro-Medium, Magnetic Pro" font-size="14" font-weight="400" transform="translate(1434)"><tspan x="95" y="129">222</tspan></text><g transform="translate(1409)"><use fill="#E9FFD3" xlink:href="#I"/><path stroke="#979797" d="M1.257.5h24.486v149H1.257z"/></g><text fill="#222" font-family="PingFangSC-Regular, PingFang SC" font-size="24" transform="translate(1409)"><tspan x="2" y="82">新</tspan></text><text fill="#222" font-family="MagneticPro-Medium, Magnetic Pro" font-size="14" font-weight="400" transform="translate(1409)"><tspan x="10" y="16">9</tspan></text><text fill="#222" font-family="MagneticPro-Medium, Magnetic Pro" font-size="14" font-weight="400" transform="translate(1409)"><tspan x="6" y="144">23</tspan></text><g transform="translate(1269)"><use fill="#FFEDCE" xlink:href="#J"/><path stroke="#979797" d="M.5.5h141v149H.5z"/></g><text fill="#222" font-family="PingFangSC-Regular, PingFang SC" font-size="32" transform="translate(1269)"><tspan x="39.021" y="85">西汉</tspan></text><g transform="translate(1238)"><use fill="#C3EEDF" xlink:href="#K"/><path stroke="#979797" d="M2.04.5h30.03v149H2.04z"/></g><text fill="#222" font-family="PingFangSC-Regular, PingFang SC" font-size="30" transform="translate(1238)"><tspan x="2" y="84">秦</tspan></text><text fill="#222" font-family="MagneticPro-Medium, Magnetic Pro" font-size="14" font-weight="400" transform="translate(1238)"><tspan x="2" y="16">-221</tspan></text><text fill="#222" font-family="MagneticPro-Medium, Magnetic Pro" font-size="14" font-weight="400" transform="translate(1238)"><tspan x="0" y="144">-206</tspan></text><g transform="translate(878)"><use fill="#FFEBF6" xlink:href="#L"/><path stroke="#979797" d="M.5.5h362v149H.5z"/></g><text fill="#222" font-family="PingFangSC-Regular, PingFang SC" font-size="32" transform="translate(878)"><tspan x="150" y="85">东周</tspan></text><text fill="#222" font-family="PingFangSC-Regular, PingFang SC" font-size="20" transform="translate(878)"><tspan x="57" y="121">春秋</tspan></text><text fill="#222" font-family="PingFangSC-Regular, PingFang SC" font-size="20" transform="translate(878)"><tspan x="267" y="121">战国</tspan></text><text fill="#222" font-family="MagneticPro-Medium, Magnetic Pro" font-size="20" font-weight="400" transform="translate(878)"><tspan x="4" y="21">-770</tspan></text><g transform="translate(694)"><use fill="#FFEBF6" xlink:href="#M"/><path stroke="#979797" d="M.5.5h184v149H.5z"/></g><text fill="#222" font-family="PingFangSC-Regular, PingFang SC" font-size="32" transform="translate(694)"><tspan x="61" y="85">西周</tspan></text><text fill="#222" font-family="MagneticPro-Medium, Magnetic Pro" font-size="20" font-weight="400" transform="translate(694)"><tspan x="4" y="21">-1046</tspan></text><g transform="translate(318)"><use fill="#FFFCE3" xlink:href="#N"/><path stroke="#979797" d="M.5.5h376v149H.5z"/></g><text fill="#222" font-family="PingFangSC-Regular, PingFang SC" font-size="32" transform="translate(318)"><tspan x="172.795" y="85">商</tspan></text><text fill="#222" font-family="MagneticPro-Medium, Magnetic Pro" font-size="20" font-weight="400" transform="translate(318)"><tspan x="4" y="21">~-1600</tspan></text><use fill="#BCECFE" xlink:href="#O"/><path stroke="#979797" d="M.5.5h318v149H.5z"/><text fill="#222" font-family="PingFangSC-Regular, PingFang SC" font-size="32"><tspan x="143.442" y="85">夏</tspan></text><text fill="#222" font-family="MagneticPro-Medium, Magnetic Pro" font-size="20" font-weight="400"><tspan x="4" y="21">~-2070</tspan></text></g></svg>
