<svg xmlns="http://www.w3.org/2000/svg" fill="none" viewBox="0 0 384 207"><path stroke="red" stroke-width="3" d="M205.5 61.5h117v117h-117z"/><circle cx="264" cy="60" r="58.5" stroke="#34C749" stroke-dasharray="6 6" stroke-width="3"/><circle cx="324" cy="120" r="58.5" stroke="#1572B6" stroke-dasharray="6 6" stroke-width="3"/><path fill="#000" d="M273.291 31.125v1.535h1.184v.838h-1.184v3.932c0 .254.053.445.158.574.106.125.285.187.539.187.125 0 .297-.023.516-.07V39a3.146 3.146 0 0 1-.832.117c-.484 0-.85-.146-1.096-.44-.246-.292-.369-.708-.369-1.247v-3.932h-1.154v-.838h1.154v-1.535h1.084zm2.051 4.647c0-.622.121-1.18.363-1.676a2.755 2.755 0 0 1 1.02-1.149c.437-.27.935-.404 1.494-.404.863 0 1.56.299 2.092.897.535.597.802 1.392.802 2.384v.076c0 .618-.119 1.172-.357 1.665a2.67 2.67 0 0 1-1.014 1.142c-.437.273-.941.41-1.512.41-.859 0-1.556-.299-2.091-.896-.532-.598-.797-1.389-.797-2.373v-.076zm1.09.128c0 .703.162 1.268.486 1.694.328.425.766.638 1.312.638.551 0 .989-.214 1.313-.644.324-.434.486-1.04.486-1.816 0-.696-.166-1.258-.498-1.688a1.563 1.563 0 0 0-1.312-.65c-.535 0-.967.213-1.295.638-.328.426-.492 1.035-.492 1.828zm11.396 0c0 .965-.221 1.743-.662 2.332-.441.59-1.039.885-1.793.885-.769 0-1.375-.244-1.816-.732v3.053h-1.084V32.66h.99l.053.703c.441-.547 1.054-.82 1.839-.82.762 0 1.364.287 1.805.861.445.574.668 1.373.668 2.397v.1zm-1.084-.123c0-.715-.152-1.279-.457-1.693-.305-.414-.723-.621-1.254-.621-.656 0-1.148.29-1.476.873v3.03c.324.577.82.866 1.488.866.519 0 .932-.205 1.236-.615.309-.414.463-1.027.463-1.84zm2.432 2.655c0-.188.054-.344.164-.47.113-.124.281-.187.504-.187.222 0 .39.063.504.188a.659.659 0 0 1 .175.469c0 .18-.058.33-.175.45-.114.122-.282.183-.504.183-.223 0-.391-.061-.504-.182a.645.645 0 0 1-.164-.451zm.006-5.174c0-.188.054-.344.164-.469.113-.125.281-.187.504-.187.222 0 .39.062.504.187a.659.659 0 0 1 .175.469c0 .18-.058.33-.175.451-.114.121-.282.182-.504.182-.223 0-.391-.06-.504-.182a.645.645 0 0 1-.164-.451zm8.168 2.56h-2.86v-.884h2.86v.884zM301.861 39h-1.09v-7.225l-2.185.803v-.984l3.105-1.166h.17V39zm3.674-4.277l.434-4.254h4.371v1.002h-3.451l-.258 2.326c.418-.246.892-.37 1.424-.37.777 0 1.394.258 1.851.774.457.512.686 1.205.686 2.08 0 .88-.238 1.572-.715 2.08-.473.504-1.135.756-1.986.756-.754 0-1.37-.209-1.846-.627-.477-.418-.748-.996-.815-1.734h1.026c.066.488.24.857.521 1.107.282.246.653.37 1.114.37.504 0 .898-.172 1.183-.516.289-.344.434-.819.434-1.424 0-.57-.156-1.027-.469-1.371-.309-.348-.721-.522-1.236-.522-.473 0-.844.104-1.114.31l-.287.235-.867-.222zm11.707 1.177c0 .965-.221 1.743-.662 2.332-.441.59-1.039.885-1.793.885-.769 0-1.375-.244-1.816-.732v3.053h-1.084V32.66h.99l.053.703c.441-.547 1.054-.82 1.84-.82.761 0 1.363.287 1.804.861.446.574.668 1.373.668 2.397v.1zm-1.084-.123c0-.715-.152-1.279-.457-1.693-.305-.414-.722-.621-1.254-.621-.656 0-1.148.29-1.476.873v3.03c.324.577.82.866 1.488.866.52 0 .932-.205 1.236-.615.309-.414.463-1.027.463-1.84zm4.5-.802l1.406-2.315h1.266l-2.074 3.135L323.395 39h-1.254l-1.465-2.373L319.211 39h-1.26l2.139-3.205-2.074-3.135h1.254l1.388 2.315zM214.998 139h-1.084v-9h1.084v9zm4.371.117c-.859 0-1.558-.281-2.098-.844-.539-.566-.808-1.322-.808-2.267v-.199c0-.629.119-1.19.357-1.682a2.81 2.81 0 0 1 1.008-1.16 2.537 2.537 0 0 1 1.406-.422c.825 0 1.465.271 1.922.814.457.543.686 1.321.686 2.332v.452h-4.295c.015.625.197 1.13.545 1.517.351.383.797.574 1.336.574.383 0 .707-.078.972-.234.266-.156.498-.363.698-.621l.662.516c-.531.816-1.328 1.224-2.391 1.224zm-.135-5.683c-.437 0-.804.16-1.101.48-.297.316-.481.762-.551 1.336h3.176v-.082c-.031-.551-.18-.977-.446-1.277-.265-.305-.624-.457-1.078-.457zm4.401 5.566v-5.502h-1.002v-.838h1.002v-.65c0-.68.181-1.205.545-1.576.363-.372.877-.557 1.541-.557.25 0 .498.033.744.1l-.059.878a3.124 3.124 0 0 0-.586-.052c-.351 0-.623.103-.814.31-.192.203-.287.496-.287.879v.668h1.353v.838h-1.353V139h-1.084zm5.109-7.875v1.535h1.184v.838h-1.184v3.932c0 .254.053.445.158.574.106.125.286.187.539.187.125 0 .297-.023.516-.07V139a3.144 3.144 0 0 1-.832.117c-.484 0-.85-.146-1.096-.439-.246-.293-.369-.709-.369-1.248v-3.932h-1.154v-.838h1.154v-1.535h1.084zm2.42 7.307c0-.188.055-.344.164-.469.113-.125.281-.188.504-.188.223 0 .391.063.504.188a.66.66 0 0 1 .176.469c0 .179-.059.33-.176.451-.113.121-.281.181-.504.181-.223 0-.391-.06-.504-.181a.65.65 0 0 1-.164-.451zm.006-5.174c0-.188.055-.344.164-.469.113-.125.281-.187.504-.187.223 0 .391.062.504.187a.66.66 0 0 1 .176.469c0 .18-.059.33-.176.451-.113.121-.281.182-.504.182-.223 0-.391-.061-.504-.182a.649.649 0 0 1-.164-.451zm9.363 5.742h-1.09v-7.225l-2.185.803v-.984l3.105-1.166h.17V139zm3.674-4.277l.434-4.254h4.371v1.002h-3.451l-.258 2.326a2.753 2.753 0 0 1 1.424-.369c.777 0 1.394.258 1.851.773.457.512.686 1.205.686 2.08 0 .879-.239 1.573-.715 2.08-.473.504-1.135.756-1.987.756-.753 0-1.369-.209-1.845-.627-.477-.418-.748-.996-.815-1.734h1.026c.066.488.24.857.521 1.107.281.246.653.369 1.113.369.504 0 .899-.171 1.184-.515.289-.344.434-.819.434-1.424 0-.57-.157-1.027-.469-1.371-.309-.348-.721-.522-1.236-.522-.473 0-.844.104-1.114.311l-.287.234-.867-.222zm11.707 1.177c0 .965-.221 1.743-.662 2.332-.441.59-1.039.885-1.793.885-.77 0-1.375-.244-1.816-.732v3.053h-1.084v-8.778h.99l.053.703c.441-.547 1.054-.82 1.839-.82.762 0 1.364.287 1.805.861.445.575.668 1.373.668 2.397v.099zm-1.084-.123c0-.715-.152-1.279-.457-1.693-.305-.414-.723-.621-1.254-.621-.656 0-1.148.291-1.476.873v3.029c.324.578.82.867 1.488.867.519 0 .931-.205 1.236-.615.309-.414.463-1.027.463-1.84zm4.5-.802l1.406-2.315h1.266l-2.074 3.135 2.138 3.205h-1.254l-1.464-2.373-1.465 2.373h-1.26l2.139-3.205-2.074-3.135h1.253l1.389 2.315z"/><path stroke="red" stroke-width="3" d="M1.5 61.5h117v117H1.5z"/><circle cx="60" cy="120" r="58.5" stroke="#34C749" stroke-dasharray="6 6" stroke-width="3"/><circle cx="60" cy="120" r="58.5" stroke="#1572B6" stroke-dasharray="6 4" stroke-width="3"/><path fill="#000" d="M264.354 3.646a.501.501 0 0 0-.708 0l-3.182 3.182a.5.5 0 0 0 .708.708L264 4.707l2.828 2.829a.501.501 0 0 0 .708-.708l-3.182-3.182zm-.708 56.708a.501.501 0 0 0 .708 0l3.182-3.182a.5.5 0 0 0-.708-.707L264 59.293l-2.828-2.828a.501.501 0 0 0-.708.707l3.182 3.182zM263.5 4v56h1V4h-1zM207.646 123.646a.502.502 0 0 0 0 .708l3.182 3.182a.502.502 0 0 0 .708-.708L208.707 124l2.829-2.828a.502.502 0 0 0-.708-.708l-3.182 3.182zm56.708.708a.502.502 0 0 0 0-.708l-3.182-3.182a.502.502 0 0 0-.708.708l2.829 2.828-2.829 2.828a.502.502 0 0 0 .708.708l3.182-3.182zM208 124.5h56v-1h-56v1zM42.99 203v-8.531h2.79c.925 0 1.62.191 2.085.574.469.383.703.949.703 1.699 0 .399-.113.752-.34 1.061a2.218 2.218 0 0 1-.925.709 1.96 1.96 0 0 1 1.09.738c.27.359.404.789.404 1.289 0 .766-.248 1.367-.744 1.805-.496.437-1.197.656-2.104.656H42.99zm1.125-3.99v3.07h1.858c.523 0 .935-.135 1.236-.404.305-.274.457-.649.457-1.125 0-1.028-.559-1.541-1.676-1.541h-1.875zm0-.903h1.7c.492 0 .884-.123 1.177-.369.297-.246.446-.58.446-1.002 0-.468-.137-.808-.41-1.019-.274-.215-.69-.322-1.249-.322h-1.664v2.712zm8.813 5.01c-.86 0-1.559-.281-2.098-.844-.539-.566-.808-1.322-.808-2.267v-.199c0-.629.119-1.19.357-1.682a2.812 2.812 0 0 1 1.008-1.16 2.538 2.538 0 0 1 1.406-.422c.824 0 1.465.271 1.922.814.457.543.685 1.321.685 2.332v.452h-4.294c.015.625.197 1.13.544 1.517.352.383.797.574 1.336.574.383 0 .707-.078.973-.234.266-.156.498-.363.697-.621l.662.516c-.53.816-1.328 1.224-2.39 1.224zm-.135-5.683c-.438 0-.805.16-1.102.48-.297.316-.48.762-.55 1.336h3.175v-.082c-.03-.551-.18-.977-.445-1.277-.266-.305-.625-.457-1.078-.457zm4.4 5.566v-5.502h-1.002v-.838h1.002v-.65c0-.68.182-1.205.545-1.576.364-.372.877-.557 1.541-.557.25 0 .498.033.744.1l-.058.878a3.128 3.128 0 0 0-.586-.052c-.352 0-.623.103-.814.31-.192.203-.288.496-.288.879v.668h1.354v.838h-1.354V203h-1.084zm3.352-3.229c0-.621.121-1.179.363-1.675a2.763 2.763 0 0 1 1.02-1.149 2.795 2.795 0 0 1 1.494-.404c.863 0 1.56.299 2.092.896.535.598.802 1.393.802 2.385v.076c0 .618-.119 1.172-.357 1.664-.234.489-.572.87-1.014 1.143-.437.273-.941.41-1.511.41-.86 0-1.557-.299-2.092-.896-.532-.598-.797-1.389-.797-2.373v-.077zm1.09.129c0 .704.162 1.268.486 1.694.328.426.766.638 1.313.638.55 0 .988-.214 1.312-.644.324-.434.486-1.039.486-1.817 0-.695-.166-1.257-.498-1.687a1.562 1.562 0 0 0-1.312-.65c-.535 0-.967.212-1.295.638-.328.426-.492 1.035-.492 1.828zm9.105-2.267a3.177 3.177 0 0 0-.533-.041c-.71 0-1.193.303-1.447.908v4.5h-1.084v-6.34h1.055l.017.733c.355-.567.86-.85 1.512-.85.21 0 .37.027.48.082v1.008zm3.516 5.484c-.86 0-1.559-.281-2.098-.844-.539-.566-.808-1.322-.808-2.267v-.199c0-.629.119-1.19.357-1.682a2.813 2.813 0 0 1 1.008-1.16 2.538 2.538 0 0 1 1.406-.422c.824 0 1.465.271 1.922.814.457.543.685 1.321.685 2.332v.452h-4.294c.015.625.197 1.13.544 1.517.352.383.797.574 1.337.574.382 0 .707-.078.972-.234.266-.156.498-.363.697-.621l.663.516c-.532.816-1.329 1.224-2.391 1.224zm-.135-5.683c-.437 0-.805.16-1.102.48-.296.316-.48.762-.55 1.336h3.175v-.082c-.03-.551-.18-.977-.445-1.277-.265-.305-.625-.457-1.078-.457zM256.701 200.773h-3.574l-.803 2.227h-1.16l3.258-8.531h.984L258.67 203h-1.154l-.815-2.227zm-3.234-.925h2.9l-1.453-3.991-1.447 3.991zm6.715 3.152v-5.502h-1.002v-.838h1.002v-.65c0-.68.181-1.205.545-1.576.363-.372.877-.557 1.541-.557.25 0 .498.033.744.1l-.059.878a3.124 3.124 0 0 0-.586-.052c-.351 0-.623.103-.814.31-.192.203-.287.496-.287.879v.668h1.353v.838h-1.353V203h-1.084zm5.109-7.875v1.535h1.184v.838h-1.184v3.932c0 .254.053.445.158.574.106.125.285.187.539.187.125 0 .297-.023.516-.07V203a3.15 3.15 0 0 1-.832.117c-.484 0-.85-.146-1.096-.439-.246-.293-.369-.709-.369-1.248v-3.932h-1.154v-.838h1.154v-1.535h1.084zm5.086 7.992c-.859 0-1.559-.281-2.098-.844-.539-.566-.808-1.322-.808-2.267v-.199c0-.629.119-1.19.357-1.682a2.81 2.81 0 0 1 1.008-1.16 2.537 2.537 0 0 1 1.406-.422c.824 0 1.465.271 1.922.814.457.543.686 1.321.686 2.332v.452h-4.295c.015.625.197 1.13.545 1.517.351.383.796.574 1.336.574.382 0 .707-.078.972-.234.266-.156.498-.363.697-.621l.663.516c-.532.816-1.329 1.224-2.391 1.224zm-.135-5.683c-.437 0-.804.16-1.101.48-.297.316-.481.762-.551 1.336h3.176v-.082c-.032-.551-.18-.977-.446-1.277-.265-.305-.625-.457-1.078-.457zm6.932.199a3.178 3.178 0 0 0-.533-.041c-.711 0-1.194.303-1.448.908v4.5h-1.084v-6.34h1.055l.018.733c.355-.567.859-.85 1.511-.85.211 0 .371.027.481.082v1.008z"/></svg>