<svg xmlns="http://www.w3.org/2000/svg" fill="none" viewBox="0 0 697 502"><path stroke="#333" stroke-dasharray="5 5" stroke-width="2" d="M696 1H1v500h695V1z"/><path fill="#BDDEFF" stroke="#333" stroke-dasharray="5 5" stroke-width="2" d="M626 51H70v400h556V51z"/><path fill="#BDDEFF" stroke="#333" stroke-dasharray="5 5" stroke-width="2" d="M557 101H140v300h417V101z"/><path fill="#BDDEFF" stroke="#333" stroke-dasharray="5 5" stroke-width="2" d="M487 151H209v200h278V151z"/><path fill="#333" d="M302.844 27.781l.125 2.282c0 .125-.011.354-.031.687 0 .333-.126.635-.376.906-.229.25-.52.375-.874.375-.334 0-.594-.01-.782-.031-.687 0-1.031-.302-1.031-.906 0-.5.229-2.51.687-6.032.459-3.541.75-5.822.876-6.843l.312-2.563c.104-.708.177-1.229.219-1.562a8.36 8.36 0 0 1 .187-1 2.12 2.12 0 0 1 .375-.813c.313-.396.917-.594 1.813-.594 1.5.75 3.041 2.876 4.625 6.376 1.125 2.5 1.875 4.083 2.25 4.75.375.666.739 1.125 1.093 1.375l6.25-10.875c.438-.313.771-.47 1-.47.667 0 1.178.303 1.532.907.354.604.646 1.344.875 2.219.25.854.458 1.802.625 2.844a47.5 47.5 0 0 1 .468 3.28c.146 1.126.282 2.23.407 3.313.291 2.604.51 4.24.656 4.907.167.666.25 1.145.25 1.437 0 .27-.094.542-.281.813-.188.25-.448.374-.782.374-.333 0-.666-.124-1-.374-.333-.271-.541-.594-.624-.97a62.34 62.34 0 0 1-.219-1.53 63.094 63.094 0 0 0-.25-2.094c-.104-.792-.209-1.615-.313-2.469-.104-.875-.208-1.708-.312-2.5-.104-.792-.198-1.49-.282-2.094l-.187-1.406c0-.417-.01-.802-.031-1.156-.021-.354-.104-.573-.25-.657-.146-.083-.375.021-.688.313-.291.27-.708.833-1.25 1.688-1.166 1.812-2.854 4.864-5.062 9.156-.292.52-.677.635-1.156.343-.563-.312-1.042-1.114-1.438-2.406l-5.75-12.218c-.5 1-.958 4.312-1.375 9.937-.063.688-.104 1.27-.125 1.75a7.808 7.808 0 0 0-.156 1.531zM338.594 27.813c-1.563 2.458-3.646 3.979-6.25 4.562a8.227 8.227 0 0 1-1.656.188h-1.219a7.696 7.696 0 0 1-1.063-.157 3.828 3.828 0 0 1-1.094-.406c-.77-.438-1.156-1.052-1.156-1.844a5.793 5.793 0 0 1-.125-1.25c0-.479.104-1.104.313-1.875.208-.77.583-1.604 1.125-2.5a12.655 12.655 0 0 1 2.031-2.468c1.646-1.584 3.427-2.605 5.344-3.063a7.114 7.114 0 0 1 1.531-.188c.479 0 .906.032 1.281.094 1.209 0 2.021.823 2.438 2.469.271 1.042.427 2.5.468 4.375.063 1.854.115 3.292.157 4.313.062 1 .198 1.916.406 2.75h-1.844a28.941 28.941 0 0 1-.187-1.5 92.816 92.816 0 0 0-.125-1.22 22.561 22.561 0 0 0-.375-2.28zm-.125-4.844c0-1.209-.594-1.813-1.781-1.813a3.102 3.102 0 0 0-.438-.031c-1.521 0-3.125.73-4.812 2.188a10.932 10.932 0 0 0-2.032 2.25c-.833 1.187-1.25 2.25-1.25 3.187 0 1.23.709 1.958 2.125 2.188 1.875-.042 3.667-.896 5.375-2.563.729-.73 1.334-1.52 1.813-2.375.666-1.146 1-2.156 1-3.031zM357.938 21.594c-.876-.625-2-.938-3.376-.938-1.291 0-2.489.24-3.593.719-2.084.875-3.511 2-4.281 3.375a4.18 4.18 0 0 0-.5 2v1.063c0 .562.104 1.333.312 2.312.208.958.312 1.938.312 2.938-.437.02-.791.072-1.062.156-.271.083-.5.125-.688.125-.187 0-.354-.084-.5-.25-.124-.167-.27-.49-.437-.969-.021-.125-.063-.48-.125-1.063s-.146-1.291-.25-2.125c-.083-.833-.188-1.74-.312-2.718-.105-1-.209-1.98-.313-2.938a293.89 293.89 0 0 0-.531-4.593c0-.5.364-.75 1.094-.75.437 0 .781.187 1.031.562.25.354.448.77.593 1.25.146.458.24.917.282 1.375.062.458.114.781.156.969 2.75-2.459 6.167-3.688 10.25-3.688.458 0 .938.01 1.438.032.124-.021.281-.032.468-.032.188 0 .375.125.563.375.229.292.343.646.343 1.063 0 1.041-.291 1.625-.874 1.75zM369.281 46.375l-.437-.031c-.625 0-1.292.041-2 .125h-1.188c-1.25 0-2.229-.24-2.937-.719-.375-.25-.563-.625-.563-1.125l7.188-.344c2.208-.062 3.312-1.25 3.312-3.562v-.438V39l.156-10.063c0-.354-.01-.645-.031-.875-3.375 3.146-6.625 4.72-9.75 4.72-.271 0-.541-.011-.812-.032-1.396 0-2.094-.615-2.094-1.844.042-.958.323-2.01.844-3.156a16.699 16.699 0 0 1 2-3.344 17.71 17.71 0 0 1 2.812-2.906c1.604-1.313 3.157-1.969 4.657-1.969 1.75 0 3.187.927 4.312 2.782.333 4.958.5 8.479.5 10.562s-.031 3.792-.094 5.125a23.41 23.41 0 0 1-.437 3.656c-.209 1.104-.49 1.98-.844 2.625-.354.646-.771 1.115-1.25 1.407-.792.458-1.906.687-3.344.687zm1.875-24.563c-.25-.083-.604-.125-1.062-.125-.438 0-1.011.188-1.719.563a9.466 9.466 0 0 0-2.031 1.469 14.96 14.96 0 0 0-1.813 1.968c-1.375 1.792-2.062 3.22-2.062 4.282 0 .333.093.583.281.75.146.083.323.125.531.125.229 0 .552-.032.969-.094.417-.083.979-.27 1.688-.563a16.884 16.884 0 0 0 2.25-1.187 13.54 13.54 0 0 0 2.093-1.594c1.459-1.333 2.188-2.635 2.188-3.906 0-.77-.438-1.333-1.313-1.688zM379.562 18.313c.271 3.895.5 8.406.688 13.53-.125.647-.625.97-1.5.97-.229 0-.469-.042-.719-.126-.229-.104-.375-.24-.437-.406V18.313h1.968zm-2.906-4.25c0-.73.427-1.094 1.282-1.094.562 0 1.02.125 1.374.375.063.229.094.458.094.687 0 .209-.083.417-.25.625-.166.209-.416.313-.75.313-.333 0-.666-.073-1-.219a1.726 1.726 0 0 1-.75-.688zM393.781 26.156c0-2.479-.135-4.302-.406-5.468.167-.313-.083-.47-.75-.47-.708 0-1.625.178-2.75.532-1.125.354-2.042.708-2.75 1.063-1.687.812-2.625 1.604-2.813 2.375v8.5h-2.093c-.271-.709-.407-2.698-.407-5.97 0-2.916.053-5.062.157-6.437.125-1.375.219-2.156.281-2.343.542-.355.979-.532 1.312-.532.521 0 .782.615.782 1.844 0 .48-.032.948-.094 1.406-.042.438-.062.74-.062.907 3.374-2.48 5.989-3.72 7.843-3.72 2.104 0 3.302 1.699 3.594 5.095.125 1.187.187 2.833.187 4.937l-.031 2.469c0 .916.021 1.802.063 2.656-.209.125-.375.188-.5.188a4.369 4.369 0 0 0-.406-.094 6.312 6.312 0 0 0-.813-.094 11.599 11.599 0 0 1-.344-2.531c-.021-.875-.031-1.677-.031-2.407l.031-1.906zM295.031 63.25c1.542-.333 3-.5 4.375-.5s2.594.052 3.656.156a19.74 19.74 0 0 1 3.25.594c2.292.646 3.709 1.52 4.25 2.625.146.23.219.5.219.813 0 .916-.802 1.906-2.406 2.968-1.063.709-2.583 1.427-4.563 2.156 4.855.271 8.146.98 9.876 2.126.958.604 1.437 1.312 1.437 2.124 0 1.126-.792 2.292-2.375 3.5-1.729 1.292-3.938 2.365-6.625 3.22-2.479.79-4.781 1.187-6.906 1.187-1.625 0-3.021-.24-4.188-.719a301.539 301.539 0 0 0-.156-4.125c-.167-3.146-.25-5.792-.25-7.938 0-2.166.073-4.416.219-6.75-.229 0-.438-.02-.625-.062-.188-.063-.281-.27-.281-.625 0-.5.364-.75 1.093-.75zm2.813 18.688c3.354-.188 6.104-.584 8.25-1.188 2.146-.625 3.687-1.292 4.625-2 .958-.73 1.437-1.427 1.437-2.094 0-.875-.625-1.573-1.875-2.094-1.354-.541-3.156-.812-5.406-.812-2.229 0-4.823.302-7.781.906l.75 7.281zm2.906-17.157h-.781c-1.709 0-2.667.177-2.875.531l-.313 6.282c1.875 0 4.157-.448 6.844-1.344 1.75-.604 3.031-1.27 3.844-2 .416-.375.625-.76.625-1.156 0-.396-.156-.719-.469-.969-.292-.27-.677-.49-1.156-.656a7.814 7.814 0 0 0-1.563-.375 15.682 15.682 0 0 0-1.656-.219 33.415 33.415 0 0 0-2.5-.094zM317.375 78.063c0-2.459 1.063-4.438 3.187-5.938 1.688-1.188 3.719-1.906 6.094-2.156h.875c.459 0 1.073.135 1.844.406 1.708.583 2.875 1.615 3.5 3.094.25.583.375 1.083.375 1.5 0 .396-.01.677-.031.844 0 2.604-.99 4.656-2.969 6.156-1.833 1.375-4.125 2.062-6.875 2.062-1.979 0-3.479-.458-4.5-1.375-1-.916-1.5-2.448-1.5-4.594zm2.156.75c0 1.291.344 2.166 1.031 2.624.521.334 1.396.5 2.626.5 1.229 0 2.312-.093 3.25-.28.937-.188 1.77-.511 2.5-.97 1.562-1 2.343-2.552 2.343-4.656 0-1.25-.333-2.27-1-3.062-.729-.854-1.687-1.281-2.875-1.281-.812.145-1.635.302-2.468.468a6.596 6.596 0 0 0-2.313.969c-1.583 1.02-2.615 2.917-3.094 5.688zM349.938 72.594c-.876-.625-2-.938-3.376-.938-1.291 0-2.489.24-3.593.719-2.084.875-3.511 2-4.281 3.375a4.18 4.18 0 0 0-.5 2v1.063c0 .562.104 1.333.312 2.312.208.958.312 1.938.312 2.938-.437.02-.791.072-1.062.156-.271.083-.5.125-.688.125-.187 0-.354-.084-.5-.25-.124-.167-.27-.49-.437-.969-.021-.125-.063-.48-.125-1.063s-.146-1.291-.25-2.124c-.083-.834-.188-1.74-.312-2.72-.105-1-.209-1.978-.313-2.937a293.89 293.89 0 0 0-.531-4.594c0-.5.364-.75 1.094-.75.437 0 .781.188 1.031.563.25.354.448.77.593 1.25.146.458.24.917.282 1.375.062.458.114.781.156.969 2.75-2.459 6.167-3.688 10.25-3.688.458 0 .938.01 1.438.031.124-.02.281-.03.468-.03.188 0 .375.124.563.374.229.292.343.646.343 1.063 0 1.041-.291 1.625-.874 1.75zM367.031 58.906c0 2-.062 3.959-.187 5.875-.104 1.896-.209 3.76-.313 5.594-.083 1.813-.125 3.75-.125 5.813 0 2.041.146 4.208.438 6.5 0 .479-.094.822-.282 1.03-.166.21-.458.313-.874.313-.98 0-1.469-.812-1.469-2.437v-1.031c-2.959 2.208-5.459 3.312-7.5 3.312-.813 0-1.646-.198-2.5-.594-.834-.396-1.625-1.198-2.375-2.406a7.5 7.5 0 0 1-.156-1.531c0-.521.093-1.146.281-1.875.208-.75.614-1.521 1.219-2.313a10.25 10.25 0 0 1 2.25-2.094c1.916-1.291 3.989-1.937 6.218-1.937.959 0 1.875.146 2.75.438 0-.376.021-1.032.063-1.97.062-.937.125-1.926.187-2.968.125-2.708.209-4.302.25-4.781.042-.5.094-.917.156-1.25.084-.354.198-.657.344-.907.313-.52.854-.78 1.625-.78zm-13.062 20.188c0 1.646.593 2.469 1.781 2.469.188 0 .396-.021.625-.063.854 0 1.906-.25 3.156-.75 2.375-.938 3.823-1.75 4.344-2.438v-4.156c0-.729-.594-1.094-1.781-1.094a4.424 4.424 0 0 0-.594-.03c-.229 0-.594.051-1.094.156-.5.104-1.062.291-1.687.562-.625.27-1.24.604-1.844 1-1.271.854-2.146 1.854-2.625 3a3.371 3.371 0 0 0-.281 1.344zM375.031 81.813c1.834 0 4.594-.834 8.281-2.5.23 0 .417.083.563.25a.723.723 0 0 1 .219.53c-.834 1.417-2.427 2.522-4.782 3.313-2.354.792-4.552.927-6.593.406-2.313-.604-3.719-1.906-4.219-3.906a15.902 15.902 0 0 1-.062-1.594c0-.666.166-1.541.5-2.624.354-1.105.947-2.146 1.781-3.126a9.263 9.263 0 0 1 2.937-2.312 7.928 7.928 0 0 1 3.594-.844c1.208 0 2.562.417 4.062 1.25.709.396 1.271.844 1.688 1.344.417.5.625 1.01.625 1.531 0 .146-.01.292-.031.438-.042 1.27-.656 2.073-1.844 2.406-.521.146-1.125.219-1.812.219l-4.5-.188c-1.5 0-2.646.323-3.438.969-.458.354-.781.885-.969 1.594.521 1.896 1.854 2.844 4 2.844zm5.563-9.657a4.663 4.663 0 0 0-1.438-.719c-.5-.145-.916-.218-1.25-.218-.333 0-.875.114-1.625.344-.75.208-1.416.447-2 .718-1.437.667-2.156 1.365-2.156 2.094 1.667.146 2.917.219 3.75.219 2.313 0 3.875-.198 4.687-.594.5-.208.75-.469.75-.781 0-.375-.239-.73-.718-1.063zM401.312 72.594c-.874-.625-2-.938-3.374-.938-1.292 0-2.49.24-3.594.719-2.084.875-3.511 2-4.282 3.375a4.191 4.191 0 0 0-.5 2v1.063c0 .562.105 1.333.313 2.312.208.958.313 1.938.313 2.938-.438.02-.792.072-1.063.156-.271.083-.5.125-.687.125-.188 0-.355-.084-.5-.25-.126-.167-.271-.49-.438-.969-.021-.125-.062-.48-.125-1.063s-.146-1.291-.25-2.124a95.704 95.704 0 0 0-.313-2.72c-.104-1-.208-1.978-.312-2.937a293.89 293.89 0 0 0-.531-4.594c0-.5.364-.75 1.093-.75.438 0 .782.188 1.032.563.25.354.448.77.594 1.25.145.458.239.917.281 1.375.062.458.114.781.156.969 2.75-2.459 6.167-3.688 10.25-3.688.458 0 .937.01 1.437.031.126-.02.282-.03.469-.03.188 0 .375.124.563.374.229.292.344.646.344 1.063 0 1.041-.292 1.625-.876 1.75zM296.594 133.062l-1.406-.062v-7.281c.104-1.563.187-2.948.25-4.157.062-1.208.177-2.25.343-3.124.167-.876.438-1.605.813-2.188.375-.604.937-1.083 1.687-1.438 1.354-.666 3.844-1 7.469-1 1.562 0 2.885.157 3.969.469 1.083.292 1.885.573 2.406.844 1.187.583 1.781 1.396 1.781 2.437 0 1.042-.302 1.99-.906 2.844-.583.834-1.354 1.563-2.312 2.188-.938.604-2 1.104-3.188 1.5a32.32 32.32 0 0 1-3.562.968c-2.126.417-4.167.626-6.126.626l-.124 7c0 .25-.365.374-1.094.374zm1.187-10.906c0 1.042.448 1.563 1.344 1.563h.656c.313-.021.854-.052 1.625-.094a29.361 29.361 0 0 0 2.5-.313c.875-.166 1.75-.374 2.625-.624.896-.25 1.698-.563 2.407-.938 1.604-.875 2.406-1.99 2.406-3.344-.313-1.354-1.552-2.218-3.719-2.594a9.373 9.373 0 0 0-1.75-.187c-.5 0-1.104.031-1.813.094-.687.041-1.489.198-2.406.469-.916.27-1.687.635-2.312 1.093-.625.459-.969.99-1.032 1.594-.02.25-.072.542-.156.875-.25 1.062-.375 1.865-.375 2.406zM327.531 127.812c-1.562 2.459-3.646 3.98-6.25 4.563a8.224 8.224 0 0 1-1.656.187h-1.219a7.492 7.492 0 0 1-1.062-.156 3.793 3.793 0 0 1-1.094-.406c-.771-.438-1.156-1.052-1.156-1.844a5.727 5.727 0 0 1-.125-1.25c0-.479.104-1.104.312-1.875.209-.771.584-1.604 1.125-2.5a12.692 12.692 0 0 1 2.032-2.469c1.645-1.583 3.427-2.604 5.343-3.062a7.125 7.125 0 0 1 1.531-.188c.48 0 .907.032 1.282.094 1.208 0 2.021.823 2.437 2.469.271 1.042.427 2.5.469 4.375.062 1.854.115 3.292.156 4.312.063 1 .198 1.917.406 2.75h-1.843a28.904 28.904 0 0 1-.188-1.5 68.13 68.13 0 0 0-.125-1.218 22.588 22.588 0 0 0-.375-2.282zm-.125-4.843c0-1.209-.594-1.813-1.781-1.813a3.068 3.068 0 0 0-.437-.031c-1.521 0-3.126.729-4.813 2.187a10.914 10.914 0 0 0-2.031 2.25c-.834 1.188-1.25 2.25-1.25 3.188 0 1.229.708 1.958 2.125 2.188 1.875-.042 3.666-.896 5.375-2.563a10.883 10.883 0 0 0 1.812-2.375c.667-1.146 1-2.156 1-3.031zM346.312 107.906c0 2-.062 3.959-.187 5.875-.104 1.896-.208 3.761-.313 5.594-.083 1.813-.124 3.75-.124 5.813 0 2.041.145 4.208.437 6.5 0 .479-.094.822-.281 1.031-.167.208-.459.312-.875.312-.979 0-1.469-.812-1.469-2.437v-1.032c-2.958 2.209-5.458 3.313-7.5 3.313-.812 0-1.646-.198-2.5-.594-.833-.396-1.625-1.198-2.375-2.406a7.496 7.496 0 0 1-.156-1.531c0-.521.093-1.146.281-1.875.208-.75.615-1.521 1.219-2.313a10.33 10.33 0 0 1 2.25-2.094c1.916-1.291 3.989-1.937 6.219-1.937.958 0 1.874.146 2.75.437 0-.374.02-1.031.062-1.968.062-.938.125-1.927.188-2.969.124-2.708.208-4.302.25-4.781.041-.5.093-.917.156-1.25.083-.354.198-.656.344-.906.312-.521.854-.782 1.624-.782zm-13.062 20.188c0 1.646.594 2.468 1.781 2.468.188 0 .396-.02.625-.062.854 0 1.906-.25 3.156-.75 2.376-.938 3.823-1.75 4.344-2.438v-4.156c0-.729-.594-1.094-1.781-1.094a4.571 4.571 0 0 0-.594-.031c-.229 0-.593.052-1.093.157-.5.104-1.063.291-1.688.562-.625.271-1.24.604-1.844 1-1.271.854-2.146 1.854-2.625 3a3.39 3.39 0 0 0-.281 1.344zM362.719 107.906c0 2-.063 3.959-.188 5.875-.104 1.896-.208 3.761-.312 5.594a126 126 0 0 0-.125 5.813c0 2.041.146 4.208.437 6.5 0 .479-.093.822-.281 1.031-.167.208-.458.312-.875.312-.979 0-1.469-.812-1.469-2.437v-1.032c-2.958 2.209-5.458 3.313-7.5 3.313-.812 0-1.646-.198-2.5-.594-.833-.396-1.625-1.198-2.375-2.406a7.496 7.496 0 0 1-.156-1.531c0-.521.094-1.146.281-1.875.209-.75.615-1.521 1.219-2.313a10.33 10.33 0 0 1 2.25-2.094c1.917-1.291 3.99-1.937 6.219-1.937.958 0 1.875.146 2.75.437 0-.374.021-1.031.062-1.968.063-.938.125-1.927.188-2.969.125-2.708.208-4.302.25-4.781.041-.5.094-.917.156-1.25.083-.354.198-.656.344-.906.312-.521.854-.782 1.625-.782zm-13.063 20.188c0 1.646.594 2.468 1.782 2.468.187 0 .395-.02.624-.062.855 0 1.907-.25 3.157-.75 2.375-.938 3.823-1.75 4.343-2.438v-4.156c0-.729-.593-1.094-1.781-1.094a4.554 4.554 0 0 0-.593-.031c-.23 0-.594.052-1.094.157-.5.104-1.063.291-1.688.562-.625.271-1.239.604-1.844 1-1.27.854-2.145 1.854-2.624 3a3.373 3.373 0 0 0-.282 1.344zM367.156 118.312c.271 3.896.5 8.407.688 13.532-.125.646-.625.968-1.5.968a2.28 2.28 0 0 1-.719-.124c-.229-.105-.375-.24-.437-.407v-13.969h1.968zm-2.906-4.25c0-.729.427-1.093 1.281-1.093.563 0 1.021.125 1.375.375.063.229.094.458.094.687 0 .209-.083.417-.25.625-.167.209-.417.313-.75.313s-.667-.073-1-.219a1.727 1.727 0 0 1-.75-.688zM381.375 126.156c0-2.479-.135-4.302-.406-5.468.166-.313-.084-.469-.75-.469-.709 0-1.625.177-2.75.531-1.125.354-2.042.708-2.75 1.062-1.688.813-2.625 1.605-2.813 2.376v8.5h-2.094c-.27-.709-.406-2.698-.406-5.969 0-2.917.052-5.063.156-6.438.126-1.375.219-2.156.282-2.343.541-.355.979-.532 1.312-.532.521 0 .782.615.782 1.844 0 .479-.032.948-.094 1.406-.042.438-.063.74-.063.906 3.375-2.479 5.99-3.718 7.844-3.718 2.104 0 3.302 1.698 3.594 5.094.125 1.187.187 2.833.187 4.937l-.031 2.469c0 .916.021 1.802.063 2.656-.209.125-.376.188-.5.188a4.052 4.052 0 0 0-.407-.094 6.249 6.249 0 0 0-.812-.094 11.535 11.535 0 0 1-.344-2.531 100.76 100.76 0 0 1-.031-2.407l.031-1.906zM394.219 146.375l-.438-.031c-.625 0-1.291.041-2 .125h-1.187c-1.25 0-2.229-.24-2.938-.719-.375-.25-.562-.625-.562-1.125l7.187-.344c2.209-.062 3.313-1.25 3.313-3.562v-.438V139l.156-10.062c0-.355-.01-.646-.031-.876-3.375 3.146-6.625 4.719-9.75 4.719-.271 0-.542-.01-.813-.031-1.396 0-2.094-.615-2.094-1.844.042-.958.323-2.01.844-3.156a16.75 16.75 0 0 1 2-3.344 17.72 17.72 0 0 1 2.813-2.906c1.604-1.312 3.156-1.969 4.656-1.969 1.75 0 3.187.927 4.313 2.781.333 4.959.5 8.48.5 10.563s-.032 3.792-.094 5.125a23.525 23.525 0 0 1-.438 3.656c-.208 1.104-.489 1.979-.844 2.625-.354.646-.77 1.115-1.25 1.407-.791.458-1.906.687-3.343.687zm1.875-24.563c-.25-.083-.604-.124-1.063-.124-.437 0-1.01.187-1.719.562a9.474 9.474 0 0 0-2.031 1.469 14.82 14.82 0 0 0-1.812 1.969c-1.375 1.791-2.063 3.218-2.063 4.281 0 .333.094.583.282.75.145.083.322.125.531.125.229 0 .552-.032.969-.094.416-.083.979-.271 1.687-.562a16.972 16.972 0 0 0 2.25-1.188 13.453 13.453 0 0 0 2.094-1.594c1.458-1.333 2.187-2.635 2.187-3.906 0-.771-.437-1.333-1.312-1.688zM306.312 239.656c-1.354-1.333-2.854-2-4.5-2-1.562 0-3.062.594-4.5 1.782-1.812 1.5-3.062 3.437-3.75 5.812-.25.854-.374 1.562-.374 2.125s.02 1 .062 1.313c0 2.062.698 3.645 2.094 4.75 1.312 1.02 2.989 1.531 5.031 1.531 2.792-.229 5.469-1.302 8.031-3.219a30.785 30.785 0 0 1 2.25-1.562c.292 0 .584.041.875.124.313.084.469.323.469.719-2.062 1.792-3.802 3.084-5.219 3.875-2.625 1.417-5 2.125-7.125 2.125h-.406c-2.312 0-4.292-.719-5.938-2.156-1.75-1.521-2.624-3.417-2.624-5.687 0-1.709.302-3.344.906-4.907.625-1.562 1.468-2.937 2.531-4.125a12.283 12.283 0 0 1 3.813-2.875 10.859 10.859 0 0 1 4.75-1.062c1.437 0 2.374.198 2.812.593.542.48.812 1.428.812 2.844zM314.281 251.062c0-2.458 1.063-4.437 3.188-5.937 1.687-1.187 3.719-1.906 6.093-2.156h.876c.458 0 1.072.135 1.843.406 1.709.583 2.875 1.615 3.5 3.094.25.583.375 1.083.375 1.5 0 .396-.01.677-.031.843 0 2.605-.99 4.657-2.969 6.157-1.833 1.375-4.125 2.062-6.875 2.062-1.979 0-3.479-.458-4.5-1.375-1-.916-1.5-2.448-1.5-4.594zm2.157.75c0 1.292.343 2.167 1.031 2.626.521.333 1.396.5 2.625.5s2.312-.094 3.25-.282c.937-.187 1.771-.51 2.5-.968 1.562-1 2.344-2.553 2.344-4.657 0-1.25-.334-2.271-1-3.062-.73-.854-1.688-1.281-2.876-1.281-.812.145-1.635.302-2.468.468a6.605 6.605 0 0 0-2.313.969c-1.583 1.021-2.614 2.917-3.093 5.687zM343.688 250.156c0-2.479-.136-4.302-.407-5.468.167-.313-.083-.469-.75-.469-.708 0-1.625.177-2.75.531-1.125.354-2.041.708-2.75 1.062-1.687.813-2.625 1.605-2.812 2.376v8.5h-2.094c-.271-.709-.406-2.698-.406-5.969 0-2.917.052-5.063.156-6.438.125-1.375.219-2.156.281-2.343.542-.355.979-.532 1.313-.532.521 0 .781.615.781 1.844 0 .479-.031.948-.094 1.406-.041.438-.062.74-.062.906 3.375-2.479 5.989-3.718 7.844-3.718 2.104 0 3.302 1.698 3.593 5.094.125 1.187.188 2.833.188 4.937l-.031 2.469c0 .916.02 1.802.062 2.656-.208.125-.375.188-.5.188a4.008 4.008 0 0 0-.406-.094 6.267 6.267 0 0 0-.813-.094 11.534 11.534 0 0 1-.343-2.531 101.08 101.08 0 0 1-.032-2.407l.032-1.906zM352.219 254l.062-5c0-.792-.073-1.469-.219-2.031h-4.843l-.063-2.157h4.688v-8.062c.062-.188.187-.375.375-.562.291-.292.531-.438.719-.438.208 0 .385.021.531.062.146.042.302.188.469.438.333 1.375.5 3.448.5 6.219 0 .687.031 1.364.093 2.031a16.186 16.186 0 0 1 2-.125h1.625a8.78 8.78 0 0 0 1.094-.063l-.094 2.25-4.562-.124.156 10.781c-.375.166-.698.25-.969.25-1.041 0-1.562-1.157-1.562-3.469zM366.812 254.812c1.834 0 4.594-.833 8.282-2.5.229 0 .416.084.562.25a.724.724 0 0 1 .219.532c-.833 1.416-2.427 2.521-4.781 3.312-2.354.792-4.552.927-6.594.406-2.312-.604-3.719-1.906-4.219-3.906a16.216 16.216 0 0 1-.062-1.594c0-.666.166-1.541.5-2.624.354-1.105.948-2.146 1.781-3.126a9.25 9.25 0 0 1 2.938-2.312 7.928 7.928 0 0 1 3.593-.844c1.209 0 2.563.417 4.063 1.25.708.396 1.271.844 1.687 1.344.417.5.625 1.01.625 1.531 0 .146-.01.292-.031.438-.042 1.271-.656 2.073-1.844 2.406-.521.146-1.125.219-1.812.219l-4.5-.188c-1.5 0-2.646.323-3.438.969-.458.354-.781.885-.969 1.594.521 1.896 1.855 2.843 4 2.843zm5.563-9.656a4.634 4.634 0 0 0-1.437-.718c-.5-.146-.917-.219-1.25-.219-.334 0-.876.114-1.626.343-.75.209-1.416.448-2 .719-1.437.667-2.156 1.365-2.156 2.094 1.667.146 2.917.219 3.75.219 2.313 0 3.875-.198 4.688-.594.5-.208.75-.469.75-.781 0-.375-.24-.729-.719-1.063zM389.938 250.156c0-2.479-.136-4.302-.407-5.468.167-.313-.083-.469-.75-.469-.708 0-1.625.177-2.75.531-1.125.354-2.041.708-2.75 1.062-1.687.813-2.625 1.605-2.812 2.376v8.5h-2.094c-.271-.709-.406-2.698-.406-5.969 0-2.917.052-5.063.156-6.438.125-1.375.219-2.156.281-2.343.542-.355.979-.532 1.313-.532.521 0 .781.615.781 1.844 0 .479-.031.948-.094 1.406-.041.438-.062.74-.062.906 3.375-2.479 5.989-3.718 7.844-3.718 2.104 0 3.302 1.698 3.593 5.094.125 1.187.188 2.833.188 4.937l-.031 2.469c0 .916.02 1.802.062 2.656-.208.125-.375.188-.5.188a4.008 4.008 0 0 0-.406-.094 6.267 6.267 0 0 0-.813-.094 11.534 11.534 0 0 1-.343-2.531 101.08 101.08 0 0 1-.032-2.407l.032-1.906zM398.469 254l.062-5c0-.792-.073-1.469-.219-2.031h-4.843l-.063-2.157h4.688v-8.062c.062-.188.187-.375.375-.562.291-.292.531-.438.719-.438.208 0 .385.021.531.062.146.042.302.188.469.438.333 1.375.5 3.448.5 6.219 0 .687.031 1.364.093 2.031a16.186 16.186 0 0 1 2-.125h1.625a8.78 8.78 0 0 0 1.094-.063l-.094 2.25-4.562-.124.156 10.781c-.375.166-.698.25-.969.25-1.041 0-1.562-1.157-1.562-3.469z"/></svg>