<svg xmlns="http://www.w3.org/2000/svg" fill="none" viewBox="0 0 336 255"><path fill="#000" d="M262.885 51.633a3.254 3.254 0 0 0-.533-.041c-.711 0-1.194.303-1.448.908V57h-1.084v-6.34h1.055l.018.733c.355-.567.859-.85 1.511-.85.211 0 .371.027.481.082v1.008zm.597 2.139c0-.622.122-1.18.364-1.676a2.76 2.76 0 0 1 1.019-1.149c.438-.27.936-.404 1.494-.404.864 0 1.561.299 2.092.897.535.597.803 1.392.803 2.384v.076c0 .618-.119 1.172-.358 1.665-.234.488-.572.869-1.013 1.142-.438.273-.942.41-1.512.41-.859 0-1.557-.299-2.092-.896-.531-.598-.797-1.389-.797-2.373v-.076zm1.09.128c0 .703.162 1.268.487 1.694.328.425.765.638 1.312.638.551 0 .988-.214 1.313-.644.324-.434.486-1.04.486-1.816 0-.696-.166-1.258-.498-1.688a1.564 1.564 0 0 0-1.313-.65c-.535 0-.966.213-1.295.638-.328.426-.492 1.035-.492 1.828zm7.512-4.775v1.535h1.184v.838h-1.184v3.932c0 .254.053.445.158.574.106.125.285.187.539.187.125 0 .297-.023.516-.07V57a3.146 3.146 0 0 1-.832.117c-.485 0-.85-.146-1.096-.44-.246-.292-.369-.708-.369-1.247v-3.932h-1.154v-.838H271v-1.535h1.084zM278.453 57c-.062-.125-.113-.348-.152-.668-.504.523-1.106.785-1.805.785-.625 0-1.139-.176-1.541-.527a1.73 1.73 0 0 1-.598-1.348c0-.66.25-1.172.75-1.535.504-.367 1.211-.55 2.122-.55h1.054v-.499c0-.379-.113-.68-.34-.902-.226-.227-.56-.34-1.002-.34-.386 0-.711.098-.972.293-.262.195-.393.432-.393.709h-1.09c0-.316.112-.621.334-.914.227-.297.532-.531.914-.703a3.098 3.098 0 0 1 1.272-.258c.73 0 1.303.184 1.717.55.414.364.629.866.644 1.507v2.918c0 .582.074 1.044.223 1.388V57h-1.137zm-1.799-.826c.34 0 .662-.088.967-.264.305-.176.525-.404.662-.685v-1.301h-.849c-1.329 0-1.993.389-1.993 1.166 0 .34.114.605.34.797.227.191.518.287.873.287zm5.883-7.049v1.535h1.184v.838h-1.184v3.932c0 .254.053.445.158.574.106.125.285.187.539.187.125 0 .297-.023.516-.07V57a3.14 3.14 0 0 1-.832.117c-.484 0-.85-.146-1.096-.44-.246-.292-.369-.708-.369-1.247v-3.932h-1.154v-.838h1.154v-1.535h1.084zm5.086 7.992c-.859 0-1.559-.281-2.098-.844-.539-.566-.808-1.322-.808-2.267v-.2c0-.628.119-1.189.357-1.681a2.812 2.812 0 0 1 1.008-1.16 2.536 2.536 0 0 1 1.406-.422c.824 0 1.465.272 1.922.814.457.543.686 1.32.686 2.333v.45h-4.295c.015.626.197 1.132.545 1.518.351.383.797.574 1.336.574.382 0 .707-.078.972-.234.266-.156.498-.363.698-.621l.662.516c-.532.816-1.328 1.224-2.391 1.224zm-.135-5.683c-.437 0-.804.16-1.101.48-.297.316-.481.762-.551 1.336h3.176v-.082c-.032-.55-.18-.977-.446-1.277-.265-.305-.625-.457-1.078-.457zm3.826 2.103c0-.883.118-1.73.352-2.543a7.43 7.43 0 0 1 1.061-2.215c.468-.664.955-1.133 1.459-1.406l.222.715c-.57.437-1.039 1.105-1.406 2.004-.363.898-.563 1.904-.598 3.017l-.006.498c0 1.508.276 2.817.827 3.926.332.664.726 1.184 1.183 1.559l-.222.662c-.52-.29-1.016-.773-1.489-1.453-.922-1.328-1.383-2.916-1.383-4.764zm6.399.281h-2.859v-.884h2.859v.884zm5.525.317h1.184v.885h-1.184V57h-1.09v-1.98h-3.884v-.64l3.82-5.911h1.154v5.666zm-3.744 0h2.654V49.95l-.128.234-2.526 3.95zm6.404-1.412l.434-4.254h4.371v1.002h-3.451l-.258 2.326c.418-.246.893-.37 1.424-.37.777 0 1.394.258 1.852.774.457.512.685 1.205.685 2.08 0 .88-.238 1.572-.715 2.08-.472.504-1.135.756-1.986.756-.754 0-1.369-.209-1.846-.627-.476-.418-.748-.996-.814-1.734h1.025c.067.488.24.857.522 1.107.281.246.652.37 1.113.37.504 0 .898-.172 1.184-.516.289-.344.433-.819.433-1.424 0-.57-.156-1.027-.469-1.371-.308-.348-.72-.522-1.236-.522-.473 0-.844.104-1.113.31l-.287.235-.868-.222zm6.088 1.054c0-.972.231-1.754.692-2.343.461-.594 1.064-.891 1.81-.891.742 0 1.33.254 1.764.762V48h1.084v9h-.996l-.053-.68c-.433.532-1.037.797-1.81.797-.735 0-1.334-.3-1.799-.902-.461-.602-.692-1.387-.692-2.356v-.082zm1.084.123c0 .72.149 1.282.446 1.688.296.406.707.61 1.23.61.688 0 1.19-.31 1.506-.926v-2.913c-.324-.597-.822-.896-1.494-.896-.531 0-.946.205-1.242.615-.297.41-.446 1.018-.446 1.822zm8.584 3.217c-.859 0-1.558-.281-2.097-.844-.539-.566-.809-1.322-.809-2.267v-.2c0-.628.119-1.189.357-1.681a2.826 2.826 0 0 1 1.008-1.16 2.539 2.539 0 0 1 1.407-.422c.824 0 1.464.272 1.921.814.457.543.686 1.32.686 2.333v.45h-4.295c.016.626.197 1.132.545 1.518.352.383.797.574 1.336.574.383 0 .707-.078.973-.234.265-.156.498-.363.697-.621l.662.516c-.531.816-1.328 1.224-2.391 1.224zm-.134-5.683c-.438 0-.805.16-1.102.48-.297.316-.48.762-.551 1.336h3.176v-.082c-.031-.55-.18-.977-.445-1.277-.266-.305-.625-.457-1.078-.457zm3.609 2.343c0-.988.228-1.773.685-2.355.457-.586 1.063-.879 1.817-.879.773 0 1.377.273 1.81.82l.053-.703h.99v6.188c0 .82-.244 1.467-.732 1.94-.484.472-1.137.708-1.957.708-.457 0-.904-.098-1.342-.293-.437-.195-.771-.463-1.002-.803l.563-.65c.465.574 1.033.861 1.705.861.527 0 .937-.148 1.23-.445.297-.297.446-.715.446-1.254v-.545c-.434.5-1.026.75-1.776.75-.742 0-1.344-.299-1.805-.896-.457-.598-.685-1.412-.685-2.444zm1.09.123c0 .715.146 1.278.439 1.688.293.406.703.61 1.231.61.683 0 1.185-.311 1.506-.932V52.37c-.333-.605-.831-.908-1.495-.908-.527 0-.939.205-1.236.615-.297.41-.445 1.018-.445 1.822zm8.408-.304c0 .87-.115 1.707-.346 2.508a7.298 7.298 0 0 1-1.049 2.209c-.468.675-.961 1.156-1.476 1.44l-.229-.661c.602-.461 1.084-1.176 1.448-2.145.367-.972.554-2.05.562-3.234v-.188c0-.82-.086-1.582-.258-2.285a7.668 7.668 0 0 0-.72-1.898c-.305-.559-.649-.994-1.032-1.307l.229-.662c.515.285 1.006.762 1.471 1.43a7.334 7.334 0 0 1 1.048 2.209c.235.804.352 1.666.352 2.584z"/><path stroke="#494949" stroke-dasharray="6 6" stroke-width="3" d="M65.5 115.5h117v117h-117z"/><circle cx="124" cy="114" r="58.5" stroke="#494949" stroke-dasharray="6 6" stroke-width="3"/><circle cx="184" cy="174" r="58.5" stroke="#494949" stroke-dasharray="6 6" stroke-width="3"/><path stroke="red" stroke-width="3" d="M44.548 169.706l82.731-82.732 82.732 82.732-82.732 82.731z"/><circle cx="84.853" cy="127.279" r="58.5" stroke="red" stroke-width="3" transform="rotate(-45 84.853 127.279)"/><circle cx="169.706" cy="127.279" r="58.5" stroke="red" stroke-width="3" transform="rotate(-45 169.706 127.279)"/><path fill="#000" d="M249.411 61.311l.755-.656-.755.656zm-66.169-28.226a1 1 0 0 0 .106 1.41l6.823 5.869a1 1 0 1 0 1.304-1.517l-6.065-5.216 5.217-6.065a1 1 0 1 0-1.516-1.305l-5.869 6.824zm79.669 93.727l.938.347.001-.002.003-.007.008-.023.03-.083c.025-.072.062-.177.108-.314.092-.274.222-.676.377-1.195.311-1.04.722-2.552 1.13-4.459a73.25 73.25 0 0 0 1.593-15.582c-.064-12.742-3.491-29.367-16.933-44.839l-1.51 1.312c13.058 15.029 16.381 31.153 16.443 43.537a71.272 71.272 0 0 1-1.548 15.153 56.212 56.212 0 0 1-1.091 4.305c-.148.497-.272.877-.357 1.13-.042.127-.076.222-.098.285l-.024.068a.2.2 0 0 0-.006.016l-.001.003.937.348zm-12.745-66.157c-13.426-15.452-29.99-22.428-43.168-25.542a92.136 92.136 0 0 0-16.454-2.356 71.694 71.694 0 0 0-4.839-.086 44.555 44.555 0 0 0-1.745.066l-.025.002h-.007-.002l.074.998.075.997h.004l.018-.002a14.36 14.36 0 0 1 .394-.022c.282-.013.703-.03 1.251-.04a69.662 69.662 0 0 1 4.702.085c4.014.2 9.644.78 16.094 2.305 12.902 3.048 29.044 9.86 42.118 24.907l1.51-1.312z"/></svg>