<svg xmlns="http://www.w3.org/2000/svg" fill="none" viewBox="0 0 572 730"><path fill="#8AE8D6" d="M0 730V365h200v365z"/><path fill="#FFD795" d="M200 365V0h200v365z"/><rect width="365" height="231" x="200" y="335" fill="#FF97AF" filter="url(#filter0_d)" rx="5"/><mask id="a" width="365" height="231" x="200" y="335" maskUnits="userSpaceOnUse"><rect width="365" height="231" x="200" y="335" fill="#fff" rx="5"/></mask><g mask="url(#a)"><path fill="url(#paint0_linear)" d="M200 335h391v30H200z" filter="url(#filter1_d)"/><path fill="#909090" d="M258.7 353.45v-1.925c0-1.183-.5-2.408-1.733-2.408-.584 0-1.209.275-1.434.691V347.5l-.708-.05V354h.708v-3.433c.209-.417.509-.742 1.084-.742.841 0 1.325.683 1.325 1.525V354h.808c-.05-.167-.05-.367-.05-.55zm5.031-.717c-.208.484-.608.692-.991.692-.484 0-.934-.342-.934-1.05v-2.483h2.025v-.642h-2.025v-1.75l-.708-.05v1.8h-.767v.642h.767v2.483c0 1.117.808 1.75 1.65 1.75.617 0 1.258-.325 1.617-1.108l-.634-.284zm5.498 0c-.208.484-.608.692-.991.692-.484 0-.934-.342-.934-1.05v-2.483h2.025v-.642h-2.025v-1.75l-.708-.05v1.8h-.767v.642h.767v2.483c0 1.117.808 1.75 1.65 1.75.617 0 1.258-.325 1.617-1.108l-.634-.284zm4.065-3.616c-.633 0-1.067.225-1.425.733v-.017c0-.216.108-.475.183-.583h-.891v6.467l.708-.05v-2.025c.35.308.817.475 1.342.475 1.316 0 2.191-1.042 2.191-2.625 0-1.5-.775-2.375-2.108-2.375zm-.083 4.325c-.709 0-1.125-.225-1.342-.734v-2.025c.308-.6.825-.941 1.425-.941.85 0 1.4.691 1.4 1.75 0 1.141-.617 1.95-1.483 1.95zm5.815-2.159c-.917-.175-1.334-.391-1.334-.775 0-.433.525-.741 1.25-.741.517 0 .867.158 1.259.575l.45-.45c-.35-.5-.984-.775-1.784-.775-1.108 0-1.841.566-1.841 1.408 0 .742.566 1.175 1.941 1.45.825.167 1.075.317 1.075.633 0 .475-.566.884-1.216.884-.567 0-1.067-.309-1.525-.85l-.475.483c.491.658 1.141 1 1.991 1 1.15 0 1.892-.633 1.892-1.525 0-.717-.483-1.092-1.683-1.317zm4.689-1.1c0 .342.184.525.525.525.334 0 .517-.183.517-.525 0-.333-.183-.516-.517-.516-.333 0-.525.183-.525.516zm0 3.167c0 .342.184.525.525.525.334 0 .517-.183.517-.525 0-.333-.183-.517-.517-.517-.333 0-.525.184-.525.517zm8.182-6.042l-.517-.316-3.792 7.825.509.325 3.8-7.834zm5.498 0l-.517-.316-3.792 7.825.509.325 3.8-7.834z"/><path fill="#292929" d="M300.568 349.117c-.692 0-1.342.291-1.809.8l.425.516c.534-.516.984-.675 1.409-.675.841 0 1.425.625 1.425 1.525v.059a9.907 9.907 0 0 0-.5-.017c-1.909 0-2.867.492-2.867 1.442 0 .883.833 1.35 1.883 1.35.667-.009 1.242-.284 1.484-.7 0 .216-.109.475-.184.583h.892v-2.717c0-1.266-.9-2.166-2.158-2.166zm-.159 4.4c-.566 0-1.033-.259-1.033-.75 0-.584.667-.817 2.108-.817.167 0 .35 0 .534.008v.767c-.384.533-1.042.792-1.609.792zm7.398-4.4c0 1.366-.225 2.525-.558 3.725-.308-.867-.525-1.559-.667-2.425h-.716c-.159.866-.409 1.558-.734 2.425a14.444 14.444 0 0 1-.483-3.725h-.708c.025 1.725.358 3.3.75 4.883h.675c.35-.883.641-1.6.825-2.483.166.883.433 1.6.766 2.483h.675c.442-1.583.884-3.158.884-4.883h-.709zm3.957 0c-1.359 0-2.075.891-2.117 2.425v.425c0 1.258.9 2.158 2.158 2.158.692 0 1.342-.292 1.809-.8l-.425-.517c-.534.517-.984.675-1.409.675-.841 0-1.425-.625-1.425-1.516l3.384-.017.016-.408c.059-1.542-.641-2.425-1.991-2.425zm1.233 2.208h-2.633c.041-.975.408-1.583 1.325-1.583.925 0 1.358.566 1.308 1.583zm4.515-.042c-.917-.175-1.333-.391-1.333-.775 0-.433.525-.741 1.25-.741.516 0 .866.158 1.258.575l.45-.45c-.35-.5-.983-.775-1.783-.775-1.109 0-1.842.566-1.842 1.408 0 .742.567 1.175 1.942 1.45.825.167 1.075.317 1.075.633 0 .475-.567.884-1.217.884-.567 0-1.067-.309-1.525-.85l-.475.483c.492.658 1.142 1 1.992 1 1.15 0 1.891-.633 1.891-1.525 0-.717-.483-1.092-1.683-1.317zm5.206 2.842c1.325 0 2.2-1.017 2.2-2.55 0-1.492-.866-2.458-2.2-2.458-1.341 0-2.183.941-2.183 2.458 0 1.55.858 2.55 2.183 2.55zm0-.608c-.841 0-1.35-.734-1.35-1.942 0-1.192.509-1.867 1.35-1.875.875-.008 1.392.658 1.392 1.875 0 1.225-.517 1.942-1.392 1.942zm6.698-4.4c-.541 0-.741.225-.925.708v.042c-.15-.45-.45-.75-.908-.75-.4 0-.608.15-.8.558v-.425h-.708V354h.758c-.05-.167-.05-.367-.05-.55v-3.017c.2-.408.35-.608.608-.608.359 0 .55.308.55.675v3.5h.675v-3.325c0-.092 0-.175-.008-.258.217-.5.4-.675.617-.675.358 0 .55.308.55.675V354h.675v-3.408c0-.842-.192-1.475-1.034-1.475zm4.34 0c-1.358 0-2.075.891-2.117 2.425v.425c0 1.258.9 2.158 2.159 2.158a2.45 2.45 0 0 0 1.808-.8l-.425-.517c-.533.517-.983.675-1.408.675-.842 0-1.425-.625-1.425-1.516l3.383-.017.017-.408c.058-1.542-.642-2.425-1.992-2.425zm1.233 2.208h-2.633c.042-.975.408-1.583 1.325-1.583.925 0 1.358.566 1.308 1.583zm3.707 2.275c0 .342.183.525.525.525.333 0 .516-.183.516-.525 0-.333-.183-.517-.516-.517-.334 0-.525.184-.525.517zm6.306-2.317c-.917-.175-1.333-.391-1.333-.775 0-.433.525-.741 1.25-.741.516 0 .866.158 1.258.575l.45-.45c-.35-.5-.983-.775-1.783-.775-1.109 0-1.842.566-1.842 1.408 0 .742.567 1.175 1.942 1.45.825.167 1.075.317 1.075.633 0 .475-.567.884-1.217.884-.567 0-1.067-.309-1.525-.85l-.475.483c.492.658 1.142 1 1.992 1 1.15 0 1.891-.633 1.891-1.525 0-.717-.483-1.092-1.683-1.317zm6.99 2.167v-.033h-1.417V347.5h-1.683v.525l.975.058v5.334h-1.442V354h3.617c-.05-.167-.05-.367-.05-.55zm3.656-5.042c.334 0 .517-.183.517-.525 0-.333-.183-.516-.517-.516-.333 0-.525.183-.525.516 0 .342.184.525.525.525zm1.875 5.042v-.033h-1.458l.008-4.167h-1.658v.525l.975.058v3.584h-1.433V354h3.616c-.05-.167-.05-.367-.05-.55zm5.79.55c-.05-.167-.05-.367-.05-.55v-5.95l-.708-.05v2.4c-.359-.508-.792-.733-1.425-.733-1.334 0-2.109.875-2.109 2.375 0 1.583.875 2.625 2.192 2.625.525 0 .992-.167 1.342-.475V354h.758zm-2.1-.558c-.867 0-1.483-.809-1.483-1.95 0-1.059.55-1.75 1.4-1.75.6 0 1.116.341 1.425.941v2.025c-.217.509-.634.734-1.342.734zm5.531-4.325c-1.358 0-2.075.891-2.116 2.425v.425c0 1.258.9 2.158 2.158 2.158.692 0 1.342-.292 1.808-.8l-.425-.517c-.533.517-.983.675-1.408.675-.842 0-1.425-.625-1.425-1.516l3.383-.017.017-.408c.058-1.542-.642-2.425-1.992-2.425zm1.234 2.208h-2.634c.042-.975.409-1.583 1.325-1.583.925 0 1.359.566 1.309 1.583zm4.514-.042c-.916-.175-1.333-.391-1.333-.775 0-.433.525-.741 1.25-.741.517 0 .867.158 1.258.575l.45-.45c-.35-.5-.983-.775-1.783-.775-1.108 0-1.842.566-1.842 1.408 0 .742.567 1.175 1.942 1.45.825.167 1.075.317 1.075.633 0 .475-.567.884-1.217.884-.566 0-1.066-.309-1.525-.85l-.475.483c.492.658 1.142 1 1.992 1 1.15 0 1.892-.633 1.892-1.525 0-.717-.484-1.092-1.684-1.317z"/><path fill="#34C749" fill-rule="evenodd" d="M240 354a4 4 0 1 0 0-8 4 4 0 0 0 0 8z" clip-rule="evenodd"/><path fill="#FDBC40" fill-rule="evenodd" d="M227 354a4 4 0 1 0 0-8 4 4 0 0 0 0 8z" clip-rule="evenodd"/><path fill="#FC605C" fill-rule="evenodd" d="M214 354a4 4 0 1 0 0-8 4 4 0 0 0 0 8z" clip-rule="evenodd"/></g><circle cx="200" cy="365" r="5" fill="#000"/><path fill="#000" d="M53.787 299.6v.933H50.92V310h-1.133v-9.467h-2.774v-.933h6.774zm8.503 4.053l.707-1.106c-.867-.334-1.16-.36-1.453-.36-.587 0-1.787.093-2.32 1.106 0-.173.12-.746.213-.893h-2.8v.84l1.56.093v5.734h-2.36V310h5.786c-.08-.267-.08-.587-.08-.88v-.053H59.29v-4.36c.267-1.147 1.694-1.76 3-1.054zm5.437-1.466a3.915 3.915 0 0 0-2.893 1.28l.68.826c.853-.826 1.573-1.08 2.253-1.08 1.347 0 2.28 1 2.28 2.44v.094c-.28-.014-.547-.027-.8-.027-3.053 0-4.587.787-4.587 2.307 0 1.413 1.334 2.16 3.014 2.16 1.066-.014 1.986-.454 2.373-1.12 0 .346-.173.76-.293.933h1.426v-4.347c0-2.026-1.44-3.466-3.453-3.466zm-.253 7.04c-.907 0-1.654-.414-1.654-1.2 0-.934 1.067-1.307 3.374-1.307.266 0 .56 0 .853.013v1.227c-.613.853-1.667 1.267-2.573 1.267zm12.477-.107v-3.08c0-1.893-.8-3.853-2.774-3.853-.933 0-1.933.44-2.293 1.106v.04-.04c.013-.333.173-.733.293-.893h-1.426v7.6h1.133v-5.493c.333-.667.813-1.187 1.733-1.187 1.347 0 2.12 1.093 2.12 2.44V310h1.294c-.08-.267-.08-.587-.08-.88zm6.09-3.467c-1.467-.28-2.133-.626-2.133-1.24 0-.693.84-1.186 2-1.186.826 0 1.386.253 2.013.92l.72-.72c-.56-.8-1.574-1.24-2.854-1.24-1.773 0-2.946.906-2.946 2.253 0 1.187.907 1.88 3.107 2.32 1.32.267 1.72.507 1.72 1.013 0 .76-.907 1.414-1.947 1.414-.907 0-1.707-.494-2.44-1.36l-.76.773c.787 1.053 1.826 1.6 3.186 1.6 1.84 0 3.027-1.013 3.027-2.44 0-1.147-.773-1.747-2.693-2.107zm9.57-5.146c.613 0 1.253.333 1.587 1.106l1.013-.453c-.573-1.253-1.6-1.773-2.587-1.773-1.346 0-2.64 1.013-2.64 2.8v3.533h-1.453v1.027h1.453v5.92l1.134.08v-6h3.013v-1.027h-3.013v-3.533c0-1.134.72-1.68 1.493-1.68zm7.557 9.693c2.12 0 3.52-1.627 3.52-4.08 0-2.387-1.387-3.933-3.52-3.933-2.147 0-3.493 1.506-3.493 3.933 0 2.48 1.373 4.08 3.493 4.08zm0-.973c-1.347 0-2.16-1.174-2.16-3.107 0-1.907.813-2.987 2.16-3 1.4-.013 2.227 1.053 2.227 3 0 1.96-.827 3.107-2.227 3.107zm11.903-5.574l.707-1.106c-.867-.334-1.16-.36-1.453-.36-.587 0-1.787.093-2.32 1.106 0-.173.12-.746.213-.893h-2.8v.84l1.56.093v5.734h-2.36V310h5.787c-.08-.267-.08-.587-.08-.88v-.053h-2.254v-4.36c.267-1.147 1.694-1.76 3-1.054zm7.611-1.466c-.867 0-1.187.36-1.48 1.133v.067c-.24-.72-.72-1.2-1.454-1.2-.64 0-.973.24-1.28.893v-.68h-1.133v7.6h1.213c-.08-.267-.08-.587-.08-.88v-4.827c.32-.653.56-.973.974-.973.573 0 .88.493.88 1.08v5.6h1.08v-5.32c0-.147 0-.28-.014-.413.347-.8.64-1.08.987-1.08.573 0 .88.493.88 1.08V310h1.08v-5.453c0-1.347-.307-2.36-1.653-2.36zm15.673 8.013c2.12 0 3.52-1.627 3.52-4.08 0-2.387-1.386-3.933-3.52-3.933-2.146 0-3.493 1.506-3.493 3.933 0 2.48 1.373 4.08 3.493 4.08zm0-.973c-1.346 0-2.16-1.174-2.16-3.107 0-1.907.814-2.987 2.16-3 1.4-.013 2.227 1.053 2.227 3 0 1.96-.827 3.107-2.227 3.107zm11.904-5.574l.707-1.106c-.867-.334-1.16-.36-1.454-.36-.586 0-1.786.093-2.32 1.106 0-.173.12-.746.214-.893h-2.8v.84l1.56.093v5.734h-2.36V310h5.786c-.08-.267-.08-.587-.08-.88v-.053h-2.253v-4.36c.267-1.147 1.693-1.76 3-1.054zm5.597-2.6c.533 0 .826-.293.826-.84 0-.533-.293-.826-.826-.826-.534 0-.84.293-.84.826 0 .547.293.84.84.84zm3 8.067v-.053h-2.333l.013-6.667h-2.653v.84l1.56.093v5.734h-2.294V310h5.787c-.08-.267-.08-.587-.08-.88zm7.957-6.72v.933c-.547-.773-1.28-1.146-2.28-1.146-2.12 0-3.48 1.346-3.48 3.44 0 2.146 1.426 3.64 3.48 3.64.76 0 1.573-.307 2.28-.867v1.6c0 .907-.68 1.373-2.014 1.373-1.16 0-2.08-.36-2.653-1.026l-.68.826c.56.734 1.893 1.227 3.293 1.227 1.934 0 3.187-.947 3.187-2.4v-6.72c0-.293 0-.613.08-.88h-1.213zm-2.28 5.787c-1.32 0-2.374-1.134-2.374-2.56 0-1.387 1.04-2.467 2.374-2.467.96 0 1.786.547 2.28 1.507v2.24c-.427.8-1.28 1.28-2.28 1.28zm8.917-7.134c.533 0 .826-.293.826-.84 0-.533-.293-.826-.826-.826-.534 0-.84.293-.84.826 0 .547.293.84.84.84zm3 8.067v-.053h-2.334l.014-6.667h-2.654v.84l1.56.093v5.734h-2.293V310h5.787c-.08-.267-.08-.587-.08-.88zm9.063 0v-3.08c0-1.893-.8-3.853-2.773-3.853-.934 0-1.934.44-2.294 1.106v.04-.04c.014-.333.174-.733.294-.893h-1.427v7.6h1.133v-5.493c.334-.667.814-1.187 1.734-1.187 1.346 0 2.12 1.093 2.12 2.44V310h1.293c-.08-.267-.08-.587-.08-.88zM187.205 354.979a1 1 0 0 0 .774-1.184l-1.844-8.809a1 1 0 1 0-1.958.41l1.639 7.83-7.83 1.639a1 1 0 1 0 .41 1.958l8.809-1.844zm-52.752-34.142l52 34 1.094-1.674-52-34-1.094 1.674zM316.671 582.901a2 2 0 0 0-2.77-.572l-15.04 9.889a2 2 0 0 0 2.197 3.342l13.37-8.79 8.79 13.369a2 2 0 0 0 3.342-2.197l-9.889-15.041zM217 657c-.342 1.97-.342 1.971-.341 1.971h.003l.008.002.028.004.098.017.37.058c.321.048.79.116 1.391.193 1.202.154 2.938.345 5.095.502 4.312.312 10.325.483 17.138-.082 13.58-1.126 30.599-5.2 43.568-17.197l-2.716-2.936c-12.031 11.128-28.012 15.054-41.182 16.147-6.562.544-12.362.379-16.519.078a89.13 89.13 0 0 1-4.877-.48 60.456 60.456 0 0 1-1.297-.18l-.327-.051-.078-.013-.017-.003-.003-.001L217 657zm67.358-14.532c12.777-11.818 20.915-26.341 25.855-37.851a131.412 131.412 0 0 0 5.22-14.395c.533-1.8.912-3.243 1.159-4.241a61.316 61.316 0 0 0 .36-1.543l.004-.023.002-.007v-.002c0-.001.001-.001-1.958-.406l-1.958-.405s0-.001 0 0l-.001.002a.078.078 0 0 0-.003.014l-.014.064-.059.27c-.055.241-.139.603-.256 1.076a95.216 95.216 0 0 1-1.111 4.066 127.638 127.638 0 0 1-5.061 13.952c-4.81 11.209-12.672 25.186-24.895 36.493l2.716 2.936zM426.357 251.816a1.999 1.999 0 0 0 .503 2.783l14.788 10.263a2 2 0 0 0 2.28-3.287l-13.145-9.122 9.123-13.145a2 2 0 0 0-3.287-2.28l-10.262 14.788zm105.945 64.812c1.956-.418 1.956-.419 1.955-.42v-.002l-.002-.008a.232.232 0 0 0-.006-.027l-.022-.098a52.525 52.525 0 0 0-.424-1.727 93.17 93.17 0 0 0-1.436-4.915 111.87 111.87 0 0 0-6.472-15.869c-6.114-12.178-16.245-26.446-32.215-34.001l-1.711 3.616c14.815 7.008 24.422 20.369 30.351 32.18a107.875 107.875 0 0 1 6.238 15.295 89 89 0 0 1 1.375 4.704 51.486 51.486 0 0 1 .392 1.593l.017.077.004.017v.003c0 .001 0 0 0 0l1.956-.418zm-38.622-57.067c-15.734-7.442-32.245-9.572-44.766-9.859a131.571 131.571 0 0 0-15.303.53 96.237 96.237 0 0 0-4.367.508 64.672 64.672 0 0 0-1.483.228l-.083.014-.023.004-.007.001-.002.001c-.001 0-.002 0 .354 1.968l.355 1.968h.002l.014-.003.065-.011.273-.045c.244-.039.611-.096 1.093-.164a92.813 92.813 0 0 1 4.187-.487c3.609-.343 8.746-.652 14.833-.513 12.195.279 28.096 2.356 43.147 9.476l1.711-3.616z"/><defs><filter id="filter0_d" width="379" height="245" x="193" y="328" color-interpolation-filters="sRGB" filterUnits="userSpaceOnUse"><feFlood flood-opacity="0" result="BackgroundImageFix"/><feColorMatrix in="SourceAlpha" values="0 0 0 0 0 0 0 0 0 0 0 0 0 0 0 0 0 0 127 0"/><feOffset/><feGaussianBlur stdDeviation="3.5"/><feColorMatrix values="0 0 0 0 0 0 0 0 0 0 0 0 0 0 0 0 0 0 0.2 0"/><feBlend in2="BackgroundImageFix" result="effect1_dropShadow"/><feBlend in="SourceGraphic" in2="effect1_dropShadow" result="shape"/></filter><filter id="filter1_d" width="395" height="34" x="198" y="333" color-interpolation-filters="sRGB" filterUnits="userSpaceOnUse"><feFlood flood-opacity="0" result="BackgroundImageFix"/><feColorMatrix in="SourceAlpha" values="0 0 0 0 0 0 0 0 0 0 0 0 0 0 0 0 0 0 127 0"/><feOffset/><feGaussianBlur stdDeviation="1"/><feColorMatrix values="0 0 0 0 0 0 0 0 0 0 0 0 0 0 0 0 0 0 0.15 0"/><feBlend in2="BackgroundImageFix" result="effect1_dropShadow"/><feBlend in="SourceGraphic" in2="effect1_dropShadow" result="shape"/></filter><linearGradient id="paint0_linear" x1="200" x2="200" y1="335" y2="365" gradientUnits="userSpaceOnUse"><stop stop-color="#fff"/><stop offset="1" stop-color="#FAFBFC"/></linearGradient></defs></svg>