<svg xmlns="http://www.w3.org/2000/svg" fill="none" viewBox="0 0 1225 1000"><path fill="#C2B4E2" stroke="#000" d="M860.112 693.5l-183.886-87h362.664l183.88 87H860.112z"/><path fill="#8AE8D6" stroke="#000" d="M860.112 618.5l-183.886-87h362.664l183.88 87H860.112z"/><path fill="#FF97AF" stroke="#000" d="M860.112 543.5l-183.886-87h362.664l183.88 87H860.112z"/><path fill="#FFD795" stroke="#000" d="M860.112 468.5l-183.886-87h362.664l183.88 87H860.112z"/><path fill="#BBF8C1" stroke="#000" d="M860.112 393.5l-183.886-87h362.664l183.88 87H860.112zM.5.5h364v199H.5z"/><path fill="#C2B4E2" stroke="#000" d="M.5 800.5h364v199H.5z"/><path fill="#8AE8D6" stroke="#000" d="M.5 600.5h364v199H.5z"/><path fill="#FF97AF" stroke="#000" d="M.5 400.5h364v199H.5z"/><path fill="#FFD795" stroke="#000" d="M.5 200.5h364v199H.5z"/><path fill="#000" d="M608.121 502.121a2.998 2.998 0 0 0 0-4.242l-19.092-19.092a2.998 2.998 0 0 0-4.242 0 2.998 2.998 0 0 0 0 4.242L601.757 500l-16.97 16.971a2.998 2.998 0 0 0 0 4.242 2.998 2.998 0 0 0 4.242 0l19.092-19.092zM434 503h172v-6H434v6z"/></svg>