<svg xmlns="http://www.w3.org/2000/svg" viewBox="0 0 379 382" xmlns:xlink="http://www.w3.org/1999/xlink"><defs><path id="a" d="M0 0h190v128H0z"/><mask id="g" width="190" height="128" x="0" y="0" fill="#fff"><use xlink:href="#a"/></mask><path id="b" d="M189 0h190v128H189z"/><mask id="h" width="190" height="128" x="0" y="0" fill="#fff"><use xlink:href="#b"/></mask><path id="c" d="M0 127h190v128H0z"/><mask id="i" width="190" height="128" x="0" y="0" fill="#fff"><use xlink:href="#c"/></mask><path id="d" d="M189 127h190v128H189z"/><mask id="j" width="190" height="128" x="0" y="0" fill="#fff"><use xlink:href="#d"/></mask><path id="e" d="M0 254h190v128H0z"/><mask id="k" width="190" height="128" x="0" y="0" fill="#fff"><use xlink:href="#e"/></mask><path id="f" d="M189 254h190v128H189z"/><mask id="l" width="190" height="128" x="0" y="0" fill="#fff"><use xlink:href="#f"/></mask></defs><g fill="none" fill-rule="evenodd"><use fill="#D8D8D8" stroke="#979797" stroke-width="4" mask="url(#g)" xlink:href="#a"/><use fill="#D8D8D8" stroke="#979797" stroke-width="4" mask="url(#h)" xlink:href="#b"/><text fill="#000" font-size="24" font-weight="bold"><tspan x="66" y="70">Text</tspan></text><text fill="#000" font-size="24" font-weight="bold"><tspan x="215" y="70">Other thing</tspan></text><use fill="#D8D8D8" stroke="#979797" stroke-width="4" mask="url(#i)" xlink:href="#c"/><use fill="#D8D8D8" stroke="#979797" stroke-width="4" mask="url(#j)" xlink:href="#d"/><text fill="#000" font-size="24" font-weight="bold"><tspan x="28" y="196">Other thing</tspan></text><text fill="#000" font-size="24" font-weight="bold"><tspan x="255" y="196">Text</tspan></text><use fill="#D8D8D8" stroke="#979797" stroke-width="4" mask="url(#k)" xlink:href="#e"/><use fill="#D8D8D8" stroke="#979797" stroke-width="4" mask="url(#l)" xlink:href="#f"/><text fill="#000" font-size="24" font-weight="bold"><tspan x="66" y="323">Text</tspan></text><text fill="#000" font-size="24" font-weight="bold"><tspan x="215" y="323">Other thing</tspan></text></g></svg>
