<svg xmlns="http://www.w3.org/2000/svg" fill="none" viewBox="0 0 782 412"><path stroke="#00882E" stroke-width="10" d="M5 5h772v402H5z"/><path stroke="#FC951D" stroke-width="10" d="M15 15h623v84H15z"/><path fill="#000" d="M41.155 74h-4.687V38.453h4.687V74zm36.597 0c-.26-.52-.472-1.449-.635-2.783-2.1 2.18-4.606 3.271-7.52 3.271-2.603 0-4.744-.732-6.42-2.197-1.66-1.481-2.49-3.353-2.49-5.615 0-2.75 1.041-4.883 3.125-6.397 2.1-1.53 5.045-2.295 8.837-2.295h4.395V55.91c0-1.579-.472-2.832-1.416-3.76-.944-.944-2.336-1.416-4.175-1.416-1.611 0-2.962.407-4.053 1.221-1.09.814-1.635 1.799-1.635 2.954h-4.541c0-1.318.464-2.588 1.391-3.808.944-1.237 2.214-2.214 3.809-2.93 1.611-.716 3.377-1.074 5.298-1.074 3.043 0 5.428.765 7.153 2.295 1.725 1.513 2.62 3.605 2.686 6.274v12.158c0 2.425.309 4.354.927 5.786V74h-4.736zm-7.495-3.442c1.416 0 2.759-.367 4.028-1.099 1.27-.732 2.19-1.685 2.759-2.856v-5.42h-3.54c-5.534 0-8.3 1.62-8.3 4.858 0 1.416.471 2.523 1.415 3.32.944.798 2.157 1.197 3.638 1.197zm22.632-22.974l.122 2.93c1.937-2.279 4.549-3.418 7.837-3.418 3.694 0 6.209 1.416 7.544 4.248.879-1.27 2.018-2.295 3.418-3.076 1.416-.782 3.084-1.172 5.004-1.172 5.795 0 8.741 3.068 8.838 9.204V74h-4.516V56.568c0-1.888-.432-3.295-1.294-4.223-.863-.944-2.311-1.416-4.346-1.416-1.676 0-3.068.504-4.175 1.513-1.106.993-1.749 2.336-1.928 4.029V74h-4.541V56.69c0-3.84-1.88-5.761-5.64-5.761-2.962 0-4.989 1.261-6.08 3.784V74h-4.516V47.584h4.273zM161.199 74c-.26-.52-.472-1.449-.635-2.783-2.099 2.18-4.606 3.271-7.519 3.271-2.604 0-4.745-.732-6.421-2.197-1.66-1.481-2.49-3.353-2.49-5.615 0-2.75 1.041-4.883 3.125-6.397 2.099-1.53 5.045-2.295 8.838-2.295h4.394V55.91c0-1.579-.472-2.832-1.416-3.76-.944-.944-2.335-1.416-4.175-1.416-1.611 0-2.962.407-4.052 1.221-1.091.814-1.636 1.799-1.636 2.954h-4.541c0-1.318.464-2.588 1.391-3.808.945-1.237 2.214-2.214 3.809-2.93 1.611-.716 3.377-1.074 5.298-1.074 3.044 0 5.428.765 7.153 2.295 1.726 1.513 2.621 3.605 2.686 6.274v12.158c0 2.425.309 4.354.928 5.786V74h-4.737zm-7.495-3.442c1.416 0 2.759-.367 4.028-1.099 1.27-.732 2.19-1.685 2.759-2.856v-5.42h-3.54c-5.534 0-8.301 1.62-8.301 4.858 0 1.416.472 2.523 1.416 3.32.944.798 2.157 1.197 3.638 1.197zm40.747-9.473c0 4.036-.928 7.283-2.783 9.741-1.856 2.442-4.346 3.662-7.471 3.662-3.336 0-5.916-1.18-7.739-3.54l-.22 3.052h-4.15V36.5h4.516v13.99c1.823-2.263 4.338-3.394 7.544-3.394 3.207 0 5.721 1.212 7.544 3.637 1.84 2.425 2.759 5.746 2.759 9.961v.391zm-4.516-.513c0-3.076-.595-5.452-1.783-7.129-1.188-1.676-2.897-2.514-5.127-2.514-2.978 0-5.118 1.383-6.421 4.15v11.426c1.384 2.767 3.541 4.15 6.47 4.15 2.165 0 3.85-.838 5.054-2.514 1.204-1.677 1.807-4.2 1.807-7.569zm25.61 6.421c0-1.22-.464-2.164-1.392-2.832-.911-.684-2.514-1.27-4.809-1.758-2.279-.488-4.094-1.074-5.445-1.758-1.334-.683-2.327-1.497-2.978-2.44-.635-.945-.952-2.068-.952-3.37 0-2.165.911-3.996 2.734-5.493 1.839-1.498 4.183-2.246 7.031-2.246 2.995 0 5.42.773 7.276 2.319 1.872 1.546 2.807 3.524 2.807 5.933h-4.541c0-1.237-.529-2.303-1.587-3.199-1.041-.895-2.36-1.342-3.955-1.342-1.644 0-2.929.358-3.857 1.074-.928.716-1.392 1.652-1.392 2.807 0 1.091.432 1.913 1.294 2.466.863.554 2.417 1.083 4.663 1.587 2.263.505 4.094 1.107 5.494 1.807 1.399.7 2.433 1.546 3.1 2.539.684.977 1.026 2.173 1.026 3.589 0 2.36-.944 4.256-2.833 5.688-1.888 1.416-4.337 2.124-7.348 2.124-2.116 0-3.988-.374-5.615-1.123-1.628-.748-2.906-1.79-3.833-3.125-.912-1.35-1.368-2.807-1.368-4.37h4.517c.081 1.514.684 2.718 1.807 3.613 1.139.88 2.636 1.319 4.492 1.319 1.709 0 3.076-.342 4.101-1.026 1.042-.7 1.563-1.627 1.563-2.783zm9.204-6.445c0-2.588.505-4.916 1.514-6.983 1.025-2.067 2.441-3.662 4.248-4.785 1.823-1.123 3.898-1.684 6.225-1.684 3.597 0 6.503 1.245 8.716 3.735 2.23 2.49 3.345 5.802 3.345 9.937v.317c0 2.572-.497 4.883-1.489 6.934-.977 2.034-2.385 3.621-4.224 4.76-1.823 1.14-3.923 1.71-6.299 1.71-3.581 0-6.486-1.246-8.716-3.736-2.213-2.49-3.32-5.786-3.32-9.888v-.317zm4.541.537c0 2.93.675 5.282 2.026 7.056 1.368 1.774 3.191 2.66 5.469 2.66 2.295 0 4.118-.894 5.469-2.685 1.351-1.806 2.026-4.33 2.026-7.568 0-2.897-.691-5.241-2.075-7.031-1.367-1.807-3.19-2.71-5.469-2.71-2.229 0-4.028.887-5.395 2.66-1.367 1.775-2.051 4.314-2.051 7.618zM259.368 74h-4.516V36.5h4.516V74zm23.56-2.612c-1.758 2.067-4.338 3.1-7.74 3.1-2.815 0-4.964-.814-6.445-2.441-1.465-1.644-2.205-4.07-2.222-7.275V47.584h4.517v17.065c0 4.004 1.628 6.006 4.883 6.006 3.45 0 5.745-1.285 6.885-3.857V47.584h4.516V74h-4.297l-.097-2.612zm17.407-30.2v6.396h4.932v3.491h-4.932v16.382c0 1.058.22 1.856.659 2.393.44.52 1.188.78 2.246.78.521 0 1.237-.097 2.149-.292V74a13.096 13.096 0 01-3.467.488c-2.018 0-3.54-.61-4.566-1.83-1.025-1.222-1.538-2.955-1.538-5.201V51.075h-4.809v-3.491h4.809v-6.397h4.517zm21.191 33.3c-3.58 0-6.494-1.172-8.74-3.515-2.246-2.36-3.369-5.51-3.369-9.449v-.83c0-2.62.496-4.956 1.489-7.007 1.009-2.067 2.409-3.678 4.199-4.834 1.807-1.171 3.76-1.757 5.86-1.757 3.434 0 6.103 1.13 8.008 3.393 1.904 2.263 2.856 5.502 2.856 9.717v1.88h-17.895c.065 2.604.822 4.712 2.27 6.323 1.465 1.595 3.32 2.393 5.567 2.393 1.595 0 2.945-.326 4.052-.977a10.194 10.194 0 002.906-2.588l2.758 2.149c-2.213 3.401-5.534 5.102-9.961 5.102zm-.561-23.681c-1.823 0-3.353.667-4.59 2.002-1.237 1.318-2.002 3.173-2.295 5.566h13.232v-.342c-.13-2.295-.748-4.069-1.855-5.322-1.107-1.27-2.604-1.904-4.492-1.904zM341.985 74h-4.516V36.5h4.516V74zm15.894-6.616l6.152-19.8h4.834l-10.62 30.493c-1.644 4.395-4.256 6.592-7.837 6.592l-.854-.073-1.685-.318v-3.662l1.221.098c1.53 0 2.718-.31 3.564-.928.863-.618 1.571-1.75 2.124-3.393l1.001-2.686-9.424-26.123h4.932l6.592 19.8zm49.756-6.299c0 4.02-.92 7.26-2.759 9.717-1.839 2.457-4.329 3.686-7.471 3.686-3.206 0-5.729-1.017-7.568-3.052v12.72h-4.517V47.584h4.126l.22 2.93c1.839-2.279 4.395-3.418 7.666-3.418 3.174 0 5.68 1.196 7.52 3.589 1.855 2.392 2.783 5.72 2.783 9.985v.415zm-4.517-.513c0-2.978-.635-5.33-1.904-7.055-1.27-1.726-3.011-2.588-5.225-2.588-2.734 0-4.785 1.212-6.152 3.637V67.19c1.351 2.408 3.418 3.613 6.201 3.613 2.165 0 3.882-.855 5.151-2.564 1.286-1.725 1.929-4.28 1.929-7.666zm9.082-.024c0-2.588.505-4.916 1.514-6.983 1.025-2.067 2.441-3.662 4.248-4.785 1.823-1.123 3.898-1.684 6.226-1.684 3.597 0 6.502 1.245 8.715 3.735 2.23 2.49 3.345 5.802 3.345 9.937v.317c0 2.572-.496 4.883-1.489 6.934-.977 2.034-2.385 3.621-4.224 4.76-1.823 1.14-3.922 1.71-6.299 1.71-3.58 0-6.486-1.246-8.715-3.736-2.214-2.49-3.321-5.786-3.321-9.888v-.317zm4.541.537c0 2.93.676 5.282 2.027 7.056 1.367 1.774 3.19 2.66 5.468 2.66 2.295 0 4.118-.894 5.469-2.685 1.351-1.806 2.026-4.33 2.026-7.568 0-2.897-.691-5.241-2.075-7.031-1.367-1.807-3.19-2.71-5.468-2.71-2.23 0-4.029.887-5.396 2.66-1.367 1.775-2.051 4.314-2.051 7.618zm40.552 5.908c0-1.22-.464-2.164-1.392-2.832-.911-.684-2.514-1.27-4.809-1.758-2.279-.488-4.094-1.074-5.445-1.758-1.334-.683-2.327-1.497-2.978-2.44-.635-.945-.952-2.068-.952-3.37 0-2.165.911-3.996 2.734-5.493 1.839-1.498 4.183-2.246 7.031-2.246 2.995 0 5.42.773 7.276 2.319 1.872 1.546 2.807 3.524 2.807 5.933h-4.541c0-1.237-.529-2.303-1.586-3.199-1.042-.895-2.361-1.342-3.956-1.342-1.643 0-2.929.358-3.857 1.074-.928.716-1.392 1.652-1.392 2.807 0 1.091.432 1.913 1.294 2.466.863.554 2.417 1.083 4.663 1.587 2.263.505 4.094 1.107 5.494 1.807 1.399.7 2.433 1.546 3.1 2.539.684.977 1.026 2.173 1.026 3.589 0 2.36-.944 4.256-2.832 5.688-1.888 1.416-4.338 2.124-7.349 2.124-2.116 0-3.988-.374-5.615-1.123-1.628-.748-2.906-1.79-3.833-3.125-.912-1.35-1.368-2.807-1.368-4.37h4.517c.081 1.514.684 2.718 1.807 3.613 1.139.88 2.636 1.319 4.492 1.319 1.709 0 3.076-.342 4.101-1.026 1.042-.7 1.563-1.627 1.563-2.783zM472.601 74h-4.517V47.584h4.517V74zm-4.883-33.423c0-.732.22-1.35.659-1.855.456-.505 1.123-.757 2.002-.757.879 0 1.546.252 2.002.757.456.504.683 1.123.683 1.855 0 .733-.227 1.343-.683 1.831-.456.489-1.123.733-2.002.733-.879 0-1.546-.244-2.002-.733-.439-.488-.659-1.098-.659-1.83zm18.261.61v6.397h4.932v3.491h-4.932v16.382c0 1.058.22 1.856.66 2.393.439.52 1.188.78 2.246.78.521 0 1.237-.097 2.148-.292V74a13.096 13.096 0 01-3.467.488c-2.018 0-3.54-.61-4.565-1.83-1.025-1.222-1.538-2.955-1.538-5.201V51.075h-4.81v-3.491h4.81v-6.397h4.516zM501.116 74H496.6V47.584h4.516V74zm-4.883-33.423c0-.732.22-1.35.66-1.855.455-.505 1.123-.757 2.002-.757.878 0 1.546.252 2.001.757.456.504.684 1.123.684 1.855 0 .733-.228 1.343-.684 1.831-.455.489-1.123.733-2.001.733-.879 0-1.547-.244-2.002-.733-.44-.488-.66-1.098-.66-1.83zm10.938 19.97c0-2.587.504-4.914 1.514-6.982 1.025-2.067 2.441-3.662 4.248-4.785 1.823-1.123 3.898-1.684 6.225-1.684 3.597 0 6.502 1.245 8.716 3.735 2.23 2.49 3.345 5.802 3.345 9.937v.317c0 2.572-.497 4.883-1.49 6.934-.976 2.034-2.384 3.621-4.223 4.76-1.823 1.14-3.923 1.71-6.299 1.71-3.581 0-6.486-1.246-8.716-3.736-2.213-2.49-3.32-5.786-3.32-9.888v-.317zm4.541.538c0 2.93.675 5.282 2.026 7.056 1.367 1.774 3.19 2.66 5.469 2.66 2.295 0 4.118-.894 5.469-2.685 1.351-1.806 2.026-4.33 2.026-7.568 0-2.897-.692-5.241-2.075-7.031-1.367-1.807-3.19-2.71-5.469-2.71-2.23 0-4.028.887-5.395 2.66-1.367 1.775-2.051 4.314-2.051 7.618zm29.443-13.501l.147 3.32c2.018-2.539 4.655-3.808 7.91-3.808 5.583 0 8.398 3.15 8.447 9.448V74h-4.516V56.52c-.017-1.905-.456-3.313-1.319-4.224-.846-.912-2.173-1.367-3.979-1.367-1.465 0-2.751.39-3.858 1.172-1.106.78-1.969 1.806-2.588 3.076V74h-4.516V47.584h4.272zm34.278 26.904c-3.581 0-6.495-1.172-8.741-3.515-2.246-2.36-3.369-5.51-3.369-9.449v-.83c0-2.62.497-4.956 1.489-7.007 1.01-2.067 2.409-3.678 4.2-4.834 1.806-1.171 3.759-1.757 5.859-1.757 3.434 0 6.104 1.13 8.008 3.393 1.904 2.263 2.856 5.502 2.856 9.717v1.88H567.84c.065 2.604.822 4.712 2.27 6.323 1.465 1.595 3.321 2.393 5.567 2.393 1.595 0 2.946-.326 4.052-.977a10.181 10.181 0 002.906-2.588l2.759 2.149c-2.214 3.401-5.534 5.102-9.961 5.102zm-.562-23.681c-1.823 0-3.353.667-4.59 2.002-1.237 1.318-2.002 3.173-2.295 5.566h13.233v-.342c-.13-2.295-.749-4.069-1.856-5.322-1.106-1.27-2.604-1.904-4.492-1.904zm15.015 9.765c0-4.053.96-7.308 2.881-9.765 1.92-2.474 4.435-3.711 7.544-3.711 3.092 0 5.542 1.058 7.348 3.174V36.5h4.517V74h-4.151l-.219-2.832c-1.807 2.213-4.322 3.32-7.544 3.32-3.06 0-5.559-1.253-7.495-3.76-1.921-2.506-2.881-5.777-2.881-9.814v-.342zm4.516.513c0 2.995.619 5.339 1.856 7.031 1.237 1.693 2.946 2.54 5.127 2.54 2.864 0 4.956-1.287 6.274-3.858V54.664c-1.351-2.49-3.426-3.735-6.225-3.735-2.214 0-3.939.854-5.176 2.563-1.237 1.71-1.856 4.24-1.856 7.593zm24.903 10.547c0-.781.228-1.433.683-1.953.472-.521 1.172-.782 2.1-.782.928 0 1.627.26 2.1.782.488.52.732 1.172.732 1.953 0 .748-.244 1.375-.732 1.88-.473.504-1.172.757-2.1.757-.928 0-1.628-.253-2.1-.757-.455-.505-.683-1.132-.683-1.88z"/></svg>